<?xml version="1.0" encoding="utf-8" standalone="no"?>
<!DOCTYPE svg PUBLIC "-//W3C//DTD SVG 1.1//EN"
  "http://www.w3.org/Graphics/SVG/1.1/DTD/svg11.dtd">
<svg xmlns:xlink="http://www.w3.org/1999/xlink" width="720pt" height="720pt" viewBox="0 0 720 720" xmlns="http://www.w3.org/2000/svg" version="1.1">
 <metadata>
  <rdf:RDF xmlns:dc="http://purl.org/dc/elements/1.1/" xmlns:cc="http://creativecommons.org/ns#" xmlns:rdf="http://www.w3.org/1999/02/22-rdf-syntax-ns#">
   <cc:Work>
    <dc:type rdf:resource="http://purl.org/dc/dcmitype/StillImage"/>
    <dc:date>2024-03-28T15:38:23.118978</dc:date>
    <dc:format>image/svg+xml</dc:format>
    <dc:creator>
     <cc:Agent>
      <dc:title>Matplotlib v3.7.1, https://matplotlib.org/</dc:title>
     </cc:Agent>
    </dc:creator>
   </cc:Work>
  </rdf:RDF>
 </metadata>
 <defs>
  <style type="text/css">*{stroke-linejoin: round; stroke-linecap: butt}</style>
 </defs>
 <g id="figure_1">
  <g id="patch_1">
   <path d="M 0 720 
L 720 720 
L 720 0 
L 0 0 
z
" style="fill: #ffffff"/>
  </g>
  <g id="axes_1">
   <g id="patch_2">
    <path d="M 90 640.8 
L 648 640.8 
L 648 86.4 
L 90 86.4 
z
" style="fill: #ffffff"/>
   </g>
   <g id="matplotlib.axis_1">
    <g id="xtick_1">
     <g id="line2d_1">
      <path d="M 115.363636 640.8 
L 115.363636 86.4 
" clip-path="url(#pbd3fe51df0)" style="fill: none; stroke: #cccccc; stroke-width: 0.8; stroke-linecap: round"/>
     </g>
     <g id="line2d_2"/>
     <g id="text_1">
      <!-- 0 -->
      <g style="fill: #262626" transform="translate(112.583168 651.457813) scale(0.1 -0.1)">
       <defs>
        <path id="ArialMT-30" d="M 266 2259 
Q 266 3072 433 3567 
Q 600 4063 929 4331 
Q 1259 4600 1759 4600 
Q 2128 4600 2406 4451 
Q 2684 4303 2865 4023 
Q 3047 3744 3150 3342 
Q 3253 2941 3253 2259 
Q 3253 1453 3087 958 
Q 2922 463 2592 192 
Q 2263 -78 1759 -78 
Q 1097 -78 719 397 
Q 266 969 266 2259 
z
M 844 2259 
Q 844 1131 1108 757 
Q 1372 384 1759 384 
Q 2147 384 2411 759 
Q 2675 1134 2675 2259 
Q 2675 3391 2411 3762 
Q 2147 4134 1753 4134 
Q 1366 4134 1134 3806 
Q 844 3388 844 2259 
z
" transform="scale(0.015625)"/>
       </defs>
       <use xlink:href="#ArialMT-30"/>
      </g>
     </g>
    </g>
    <g id="xtick_2">
     <g id="line2d_3">
      <path d="M 178.457259 640.8 
L 178.457259 86.4 
" clip-path="url(#pbd3fe51df0)" style="fill: none; stroke: #cccccc; stroke-width: 0.8; stroke-linecap: round"/>
     </g>
     <g id="line2d_4"/>
     <g id="text_2">
      <!-- 25 -->
      <g style="fill: #262626" transform="translate(172.896322 651.457813) scale(0.1 -0.1)">
       <defs>
        <path id="ArialMT-32" d="M 3222 541 
L 3222 0 
L 194 0 
Q 188 203 259 391 
Q 375 700 629 1000 
Q 884 1300 1366 1694 
Q 2113 2306 2375 2664 
Q 2638 3022 2638 3341 
Q 2638 3675 2398 3904 
Q 2159 4134 1775 4134 
Q 1369 4134 1125 3890 
Q 881 3647 878 3216 
L 300 3275 
Q 359 3922 746 4261 
Q 1134 4600 1788 4600 
Q 2447 4600 2831 4234 
Q 3216 3869 3216 3328 
Q 3216 3053 3103 2787 
Q 2991 2522 2730 2228 
Q 2469 1934 1863 1422 
Q 1356 997 1212 845 
Q 1069 694 975 541 
L 3222 541 
z
" transform="scale(0.015625)"/>
        <path id="ArialMT-35" d="M 266 1200 
L 856 1250 
Q 922 819 1161 601 
Q 1400 384 1738 384 
Q 2144 384 2425 690 
Q 2706 997 2706 1503 
Q 2706 1984 2436 2262 
Q 2166 2541 1728 2541 
Q 1456 2541 1237 2417 
Q 1019 2294 894 2097 
L 366 2166 
L 809 4519 
L 3088 4519 
L 3088 3981 
L 1259 3981 
L 1013 2750 
Q 1425 3038 1878 3038 
Q 2478 3038 2890 2622 
Q 3303 2206 3303 1553 
Q 3303 931 2941 478 
Q 2500 -78 1738 -78 
Q 1113 -78 717 272 
Q 322 622 266 1200 
z
" transform="scale(0.015625)"/>
       </defs>
       <use xlink:href="#ArialMT-32"/>
       <use xlink:href="#ArialMT-35" x="55.615234"/>
      </g>
     </g>
    </g>
    <g id="xtick_3">
     <g id="line2d_5">
      <path d="M 241.550882 640.8 
L 241.550882 86.4 
" clip-path="url(#pbd3fe51df0)" style="fill: none; stroke: #cccccc; stroke-width: 0.8; stroke-linecap: round"/>
     </g>
     <g id="line2d_6"/>
     <g id="text_3">
      <!-- 50 -->
      <g style="fill: #262626" transform="translate(235.989944 651.457813) scale(0.1 -0.1)">
       <use xlink:href="#ArialMT-35"/>
       <use xlink:href="#ArialMT-30" x="55.615234"/>
      </g>
     </g>
    </g>
    <g id="xtick_4">
     <g id="line2d_7">
      <path d="M 304.644505 640.8 
L 304.644505 86.4 
" clip-path="url(#pbd3fe51df0)" style="fill: none; stroke: #cccccc; stroke-width: 0.8; stroke-linecap: round"/>
     </g>
     <g id="line2d_8"/>
     <g id="text_4">
      <!-- 75 -->
      <g style="fill: #262626" transform="translate(299.083567 651.457813) scale(0.1 -0.1)">
       <defs>
        <path id="ArialMT-37" d="M 303 3981 
L 303 4522 
L 3269 4522 
L 3269 4084 
Q 2831 3619 2401 2847 
Q 1972 2075 1738 1259 
Q 1569 684 1522 0 
L 944 0 
Q 953 541 1156 1306 
Q 1359 2072 1739 2783 
Q 2119 3494 2547 3981 
L 303 3981 
z
" transform="scale(0.015625)"/>
       </defs>
       <use xlink:href="#ArialMT-37"/>
       <use xlink:href="#ArialMT-35" x="55.615234"/>
      </g>
     </g>
    </g>
    <g id="xtick_5">
     <g id="line2d_9">
      <path d="M 367.738128 640.8 
L 367.738128 86.4 
" clip-path="url(#pbd3fe51df0)" style="fill: none; stroke: #cccccc; stroke-width: 0.8; stroke-linecap: round"/>
     </g>
     <g id="line2d_10"/>
     <g id="text_5">
      <!-- 100 -->
      <g style="fill: #262626" transform="translate(359.396721 651.457813) scale(0.1 -0.1)">
       <defs>
        <path id="ArialMT-31" d="M 2384 0 
L 1822 0 
L 1822 3584 
Q 1619 3391 1289 3197 
Q 959 3003 697 2906 
L 697 3450 
Q 1169 3672 1522 3987 
Q 1875 4303 2022 4600 
L 2384 4600 
L 2384 0 
z
" transform="scale(0.015625)"/>
       </defs>
       <use xlink:href="#ArialMT-31"/>
       <use xlink:href="#ArialMT-30" x="55.615234"/>
       <use xlink:href="#ArialMT-30" x="111.230469"/>
      </g>
     </g>
    </g>
    <g id="xtick_6">
     <g id="line2d_11">
      <path d="M 430.83175 640.8 
L 430.83175 86.4 
" clip-path="url(#pbd3fe51df0)" style="fill: none; stroke: #cccccc; stroke-width: 0.8; stroke-linecap: round"/>
     </g>
     <g id="line2d_12"/>
     <g id="text_6">
      <!-- 125 -->
      <g style="fill: #262626" transform="translate(422.490344 651.457813) scale(0.1 -0.1)">
       <use xlink:href="#ArialMT-31"/>
       <use xlink:href="#ArialMT-32" x="55.615234"/>
       <use xlink:href="#ArialMT-35" x="111.230469"/>
      </g>
     </g>
    </g>
    <g id="xtick_7">
     <g id="line2d_13">
      <path d="M 493.925373 640.8 
L 493.925373 86.4 
" clip-path="url(#pbd3fe51df0)" style="fill: none; stroke: #cccccc; stroke-width: 0.8; stroke-linecap: round"/>
     </g>
     <g id="line2d_14"/>
     <g id="text_7">
      <!-- 150 -->
      <g style="fill: #262626" transform="translate(485.583967 651.457813) scale(0.1 -0.1)">
       <use xlink:href="#ArialMT-31"/>
       <use xlink:href="#ArialMT-35" x="55.615234"/>
       <use xlink:href="#ArialMT-30" x="111.230469"/>
      </g>
     </g>
    </g>
    <g id="xtick_8">
     <g id="line2d_15">
      <path d="M 557.018996 640.8 
L 557.018996 86.4 
" clip-path="url(#pbd3fe51df0)" style="fill: none; stroke: #cccccc; stroke-width: 0.8; stroke-linecap: round"/>
     </g>
     <g id="line2d_16"/>
     <g id="text_8">
      <!-- 175 -->
      <g style="fill: #262626" transform="translate(548.67759 651.457813) scale(0.1 -0.1)">
       <use xlink:href="#ArialMT-31"/>
       <use xlink:href="#ArialMT-37" x="55.615234"/>
       <use xlink:href="#ArialMT-35" x="111.230469"/>
      </g>
     </g>
    </g>
    <g id="xtick_9">
     <g id="line2d_17">
      <path d="M 620.112619 640.8 
L 620.112619 86.4 
" clip-path="url(#pbd3fe51df0)" style="fill: none; stroke: #cccccc; stroke-width: 0.8; stroke-linecap: round"/>
     </g>
     <g id="line2d_18"/>
     <g id="text_9">
      <!-- 200 -->
      <g style="fill: #262626" transform="translate(611.771212 651.457813) scale(0.1 -0.1)">
       <use xlink:href="#ArialMT-32"/>
       <use xlink:href="#ArialMT-30" x="55.615234"/>
       <use xlink:href="#ArialMT-30" x="111.230469"/>
      </g>
     </g>
    </g>
    <g id="text_10">
     <!-- rounds -->
     <g style="fill: #262626" transform="translate(353.713281 664.603125) scale(0.1 -0.1)">
      <defs>
       <path id="ArialMT-72" d="M 416 0 
L 416 3319 
L 922 3319 
L 922 2816 
Q 1116 3169 1280 3281 
Q 1444 3394 1641 3394 
Q 1925 3394 2219 3213 
L 2025 2691 
Q 1819 2813 1613 2813 
Q 1428 2813 1281 2702 
Q 1134 2591 1072 2394 
Q 978 2094 978 1738 
L 978 0 
L 416 0 
z
" transform="scale(0.015625)"/>
       <path id="ArialMT-6f" d="M 213 1659 
Q 213 2581 725 3025 
Q 1153 3394 1769 3394 
Q 2453 3394 2887 2945 
Q 3322 2497 3322 1706 
Q 3322 1066 3130 698 
Q 2938 331 2570 128 
Q 2203 -75 1769 -75 
Q 1072 -75 642 372 
Q 213 819 213 1659 
z
M 791 1659 
Q 791 1022 1069 705 
Q 1347 388 1769 388 
Q 2188 388 2466 706 
Q 2744 1025 2744 1678 
Q 2744 2294 2464 2611 
Q 2184 2928 1769 2928 
Q 1347 2928 1069 2612 
Q 791 2297 791 1659 
z
" transform="scale(0.015625)"/>
       <path id="ArialMT-75" d="M 2597 0 
L 2597 488 
Q 2209 -75 1544 -75 
Q 1250 -75 995 37 
Q 741 150 617 320 
Q 494 491 444 738 
Q 409 903 409 1263 
L 409 3319 
L 972 3319 
L 972 1478 
Q 972 1038 1006 884 
Q 1059 663 1231 536 
Q 1403 409 1656 409 
Q 1909 409 2131 539 
Q 2353 669 2445 892 
Q 2538 1116 2538 1541 
L 2538 3319 
L 3100 3319 
L 3100 0 
L 2597 0 
z
" transform="scale(0.015625)"/>
       <path id="ArialMT-6e" d="M 422 0 
L 422 3319 
L 928 3319 
L 928 2847 
Q 1294 3394 1984 3394 
Q 2284 3394 2536 3286 
Q 2788 3178 2913 3003 
Q 3038 2828 3088 2588 
Q 3119 2431 3119 2041 
L 3119 0 
L 2556 0 
L 2556 2019 
Q 2556 2363 2490 2533 
Q 2425 2703 2258 2804 
Q 2091 2906 1866 2906 
Q 1506 2906 1245 2678 
Q 984 2450 984 1813 
L 984 0 
L 422 0 
z
" transform="scale(0.015625)"/>
       <path id="ArialMT-64" d="M 2575 0 
L 2575 419 
Q 2259 -75 1647 -75 
Q 1250 -75 917 144 
Q 584 363 401 755 
Q 219 1147 219 1656 
Q 219 2153 384 2558 
Q 550 2963 881 3178 
Q 1213 3394 1622 3394 
Q 1922 3394 2156 3267 
Q 2391 3141 2538 2938 
L 2538 4581 
L 3097 4581 
L 3097 0 
L 2575 0 
z
M 797 1656 
Q 797 1019 1065 703 
Q 1334 388 1700 388 
Q 2069 388 2326 689 
Q 2584 991 2584 1609 
Q 2584 2291 2321 2609 
Q 2059 2928 1675 2928 
Q 1300 2928 1048 2622 
Q 797 2316 797 1656 
z
" transform="scale(0.015625)"/>
       <path id="ArialMT-73" d="M 197 991 
L 753 1078 
Q 800 744 1014 566 
Q 1228 388 1613 388 
Q 2000 388 2187 545 
Q 2375 703 2375 916 
Q 2375 1106 2209 1216 
Q 2094 1291 1634 1406 
Q 1016 1563 777 1677 
Q 538 1791 414 1992 
Q 291 2194 291 2438 
Q 291 2659 392 2848 
Q 494 3038 669 3163 
Q 800 3259 1026 3326 
Q 1253 3394 1513 3394 
Q 1903 3394 2198 3281 
Q 2494 3169 2634 2976 
Q 2775 2784 2828 2463 
L 2278 2388 
Q 2241 2644 2061 2787 
Q 1881 2931 1553 2931 
Q 1166 2931 1000 2803 
Q 834 2675 834 2503 
Q 834 2394 903 2306 
Q 972 2216 1119 2156 
Q 1203 2125 1616 2013 
Q 2213 1853 2448 1751 
Q 2684 1650 2818 1456 
Q 2953 1263 2953 975 
Q 2953 694 2789 445 
Q 2625 197 2315 61 
Q 2006 -75 1616 -75 
Q 969 -75 630 194 
Q 291 463 197 991 
z
" transform="scale(0.015625)"/>
      </defs>
      <use xlink:href="#ArialMT-72"/>
      <use xlink:href="#ArialMT-6f" x="33.300781"/>
      <use xlink:href="#ArialMT-75" x="88.916016"/>
      <use xlink:href="#ArialMT-6e" x="144.53125"/>
      <use xlink:href="#ArialMT-64" x="200.146484"/>
      <use xlink:href="#ArialMT-73" x="255.761719"/>
     </g>
    </g>
   </g>
   <g id="matplotlib.axis_2">
    <g id="ytick_1">
     <g id="line2d_19">
      <path d="M 90 615.6 
L 648 615.6 
" clip-path="url(#pbd3fe51df0)" style="fill: none; stroke: #cccccc; stroke-width: 0.8; stroke-linecap: round"/>
     </g>
     <g id="line2d_20"/>
     <g id="text_11">
      <!-- 0.50 -->
      <g style="fill: #262626" transform="translate(67.039062 619.178906) scale(0.1 -0.1)">
       <defs>
        <path id="ArialMT-2e" d="M 581 0 
L 581 641 
L 1222 641 
L 1222 0 
L 581 0 
z
" transform="scale(0.015625)"/>
       </defs>
       <use xlink:href="#ArialMT-30"/>
       <use xlink:href="#ArialMT-2e" x="55.615234"/>
       <use xlink:href="#ArialMT-35" x="83.398438"/>
       <use xlink:href="#ArialMT-30" x="139.013672"/>
      </g>
     </g>
    </g>
    <g id="ytick_2">
     <g id="line2d_21">
      <path d="M 90 507.212903 
L 648 507.212903 
" clip-path="url(#pbd3fe51df0)" style="fill: none; stroke: #cccccc; stroke-width: 0.8; stroke-linecap: round"/>
     </g>
     <g id="line2d_22"/>
     <g id="text_12">
      <!-- 0.52 -->
      <g style="fill: #262626" transform="translate(67.039062 510.791809) scale(0.1 -0.1)">
       <use xlink:href="#ArialMT-30"/>
       <use xlink:href="#ArialMT-2e" x="55.615234"/>
       <use xlink:href="#ArialMT-35" x="83.398438"/>
       <use xlink:href="#ArialMT-32" x="139.013672"/>
      </g>
     </g>
    </g>
    <g id="ytick_3">
     <g id="line2d_23">
      <path d="M 90 398.825806 
L 648 398.825806 
" clip-path="url(#pbd3fe51df0)" style="fill: none; stroke: #cccccc; stroke-width: 0.8; stroke-linecap: round"/>
     </g>
     <g id="line2d_24"/>
     <g id="text_13">
      <!-- 0.54 -->
      <g style="fill: #262626" transform="translate(67.039062 402.404713) scale(0.1 -0.1)">
       <defs>
        <path id="ArialMT-34" d="M 2069 0 
L 2069 1097 
L 81 1097 
L 81 1613 
L 2172 4581 
L 2631 4581 
L 2631 1613 
L 3250 1613 
L 3250 1097 
L 2631 1097 
L 2631 0 
L 2069 0 
z
M 2069 1613 
L 2069 3678 
L 634 1613 
L 2069 1613 
z
" transform="scale(0.015625)"/>
       </defs>
       <use xlink:href="#ArialMT-30"/>
       <use xlink:href="#ArialMT-2e" x="55.615234"/>
       <use xlink:href="#ArialMT-35" x="83.398438"/>
       <use xlink:href="#ArialMT-34" x="139.013672"/>
      </g>
     </g>
    </g>
    <g id="ytick_4">
     <g id="line2d_25">
      <path d="M 90 290.43871 
L 648 290.43871 
" clip-path="url(#pbd3fe51df0)" style="fill: none; stroke: #cccccc; stroke-width: 0.8; stroke-linecap: round"/>
     </g>
     <g id="line2d_26"/>
     <g id="text_14">
      <!-- 0.56 -->
      <g style="fill: #262626" transform="translate(67.039062 294.017616) scale(0.1 -0.1)">
       <defs>
        <path id="ArialMT-36" d="M 3184 3459 
L 2625 3416 
Q 2550 3747 2413 3897 
Q 2184 4138 1850 4138 
Q 1581 4138 1378 3988 
Q 1113 3794 959 3422 
Q 806 3050 800 2363 
Q 1003 2672 1297 2822 
Q 1591 2972 1913 2972 
Q 2475 2972 2870 2558 
Q 3266 2144 3266 1488 
Q 3266 1056 3080 686 
Q 2894 316 2569 119 
Q 2244 -78 1831 -78 
Q 1128 -78 684 439 
Q 241 956 241 2144 
Q 241 3472 731 4075 
Q 1159 4600 1884 4600 
Q 2425 4600 2770 4297 
Q 3116 3994 3184 3459 
z
M 888 1484 
Q 888 1194 1011 928 
Q 1134 663 1356 523 
Q 1578 384 1822 384 
Q 2178 384 2434 671 
Q 2691 959 2691 1453 
Q 2691 1928 2437 2201 
Q 2184 2475 1800 2475 
Q 1419 2475 1153 2201 
Q 888 1928 888 1484 
z
" transform="scale(0.015625)"/>
       </defs>
       <use xlink:href="#ArialMT-30"/>
       <use xlink:href="#ArialMT-2e" x="55.615234"/>
       <use xlink:href="#ArialMT-35" x="83.398438"/>
       <use xlink:href="#ArialMT-36" x="139.013672"/>
      </g>
     </g>
    </g>
    <g id="ytick_5">
     <g id="line2d_27">
      <path d="M 90 182.051613 
L 648 182.051613 
" clip-path="url(#pbd3fe51df0)" style="fill: none; stroke: #cccccc; stroke-width: 0.8; stroke-linecap: round"/>
     </g>
     <g id="line2d_28"/>
     <g id="text_15">
      <!-- 0.58 -->
      <g style="fill: #262626" transform="translate(67.039062 185.630519) scale(0.1 -0.1)">
       <defs>
        <path id="ArialMT-38" d="M 1131 2484 
Q 781 2613 612 2850 
Q 444 3088 444 3419 
Q 444 3919 803 4259 
Q 1163 4600 1759 4600 
Q 2359 4600 2725 4251 
Q 3091 3903 3091 3403 
Q 3091 3084 2923 2848 
Q 2756 2613 2416 2484 
Q 2838 2347 3058 2040 
Q 3278 1734 3278 1309 
Q 3278 722 2862 322 
Q 2447 -78 1769 -78 
Q 1091 -78 675 323 
Q 259 725 259 1325 
Q 259 1772 486 2073 
Q 713 2375 1131 2484 
z
M 1019 3438 
Q 1019 3113 1228 2906 
Q 1438 2700 1772 2700 
Q 2097 2700 2305 2904 
Q 2513 3109 2513 3406 
Q 2513 3716 2298 3927 
Q 2084 4138 1766 4138 
Q 1444 4138 1231 3931 
Q 1019 3725 1019 3438 
z
M 838 1322 
Q 838 1081 952 856 
Q 1066 631 1291 507 
Q 1516 384 1775 384 
Q 2178 384 2440 643 
Q 2703 903 2703 1303 
Q 2703 1709 2433 1975 
Q 2163 2241 1756 2241 
Q 1359 2241 1098 1978 
Q 838 1716 838 1322 
z
" transform="scale(0.015625)"/>
       </defs>
       <use xlink:href="#ArialMT-30"/>
       <use xlink:href="#ArialMT-2e" x="55.615234"/>
       <use xlink:href="#ArialMT-35" x="83.398438"/>
       <use xlink:href="#ArialMT-38" x="139.013672"/>
      </g>
     </g>
    </g>
    <g id="text_16">
     <!-- ACC -->
     <g style="fill: #262626" transform="translate(61.051563 374.157031) rotate(-90) scale(0.1 -0.1)">
      <defs>
       <path id="ArialMT-41" d="M -9 0 
L 1750 4581 
L 2403 4581 
L 4278 0 
L 3588 0 
L 3053 1388 
L 1138 1388 
L 634 0 
L -9 0 
z
M 1313 1881 
L 2866 1881 
L 2388 3150 
Q 2169 3728 2063 4100 
Q 1975 3659 1816 3225 
L 1313 1881 
z
" transform="scale(0.015625)"/>
       <path id="ArialMT-43" d="M 3763 1606 
L 4369 1453 
Q 4178 706 3683 314 
Q 3188 -78 2472 -78 
Q 1731 -78 1267 223 
Q 803 525 561 1097 
Q 319 1669 319 2325 
Q 319 3041 592 3573 
Q 866 4106 1370 4382 
Q 1875 4659 2481 4659 
Q 3169 4659 3637 4309 
Q 4106 3959 4291 3325 
L 3694 3184 
Q 3534 3684 3231 3912 
Q 2928 4141 2469 4141 
Q 1941 4141 1586 3887 
Q 1231 3634 1087 3207 
Q 944 2781 944 2328 
Q 944 1744 1114 1308 
Q 1284 872 1643 656 
Q 2003 441 2422 441 
Q 2931 441 3284 734 
Q 3638 1028 3763 1606 
z
" transform="scale(0.015625)"/>
      </defs>
      <use xlink:href="#ArialMT-41"/>
      <use xlink:href="#ArialMT-43" x="66.699219"/>
      <use xlink:href="#ArialMT-43" x="138.916016"/>
     </g>
    </g>
   </g>
   <g id="line2d_29">
    <path d="M 115.363636 111.6 
L 120.411126 122.43871 
L 122.934871 122.43871 
L 125.458616 127.858065 
L 130.506106 127.858065 
L 133.029851 133.277419 
L 143.12483 133.277419 
L 145.648575 138.696774 
L 150.696065 138.696774 
L 153.21981 144.116129 
L 165.838535 144.116129 
L 168.36228 149.535484 
L 173.409769 149.535484 
L 175.933514 154.954839 
L 183.504749 154.954839 
L 186.028494 160.374194 
L 196.123474 160.374194 
L 198.647218 165.793548 
L 208.742198 165.793548 
L 211.265943 171.212903 
L 236.503392 171.212903 
L 239.027137 176.632258 
L 246.598372 176.632258 
L 249.122117 182.051613 
L 254.169607 182.051613 
L 256.693351 187.470968 
L 259.217096 182.051613 
L 261.740841 187.470968 
L 292.02578 187.470968 
L 294.549525 192.890323 
L 312.215739 192.890323 
L 314.739484 198.309677 
L 319.786974 198.309677 
L 322.310719 203.729032 
L 337.453189 203.729032 
L 339.976934 209.148387 
L 342.500678 209.148387 
L 345.024423 203.729032 
L 347.548168 209.148387 
L 385.404342 209.148387 
L 387.928087 203.729032 
L 390.451832 209.148387 
L 392.975577 209.148387 
L 395.499322 203.729032 
L 440.92673 203.729032 
L 443.450475 198.309677 
L 493.925373 198.309677 
L 496.449118 192.890323 
L 498.972863 198.309677 
L 501.496608 198.309677 
L 504.020353 192.890323 
L 506.544098 192.890323 
L 509.067843 198.309677 
L 521.686567 198.309677 
L 524.210312 192.890323 
L 549.447761 192.890323 
L 554.495251 182.051613 
L 562.066486 182.051613 
L 564.590231 176.632258 
L 567.113976 182.051613 
L 569.63772 182.051613 
L 572.161465 176.632258 
L 579.7327 176.632258 
L 582.256445 171.212903 
L 602.446404 171.212903 
L 604.970149 165.793548 
L 615.065129 165.793548 
L 617.588874 160.374194 
L 622.636364 160.374194 
L 622.636364 160.374194 
" clip-path="url(#pbd3fe51df0)" style="fill: none; stroke: #1f77b4; stroke-linecap: round"/>
    <defs>
     <path id="me9c7ab1263" d="M 0 5 
C 1.326016 5 2.597899 4.473168 3.535534 3.535534 
C 4.473168 2.597899 5 1.326016 5 0 
C 5 -1.326016 4.473168 -2.597899 3.535534 -3.535534 
C 2.597899 -4.473168 1.326016 -5 0 -5 
C -1.326016 -5 -2.597899 -4.473168 -3.535534 -3.535534 
C -4.473168 -2.597899 -5 -1.326016 -5 0 
C -5 1.326016 -4.473168 2.597899 -3.535534 3.535534 
C -2.597899 4.473168 -1.326016 5 0 5 
z
" style="stroke: #1f77b4"/>
    </defs>
    <g clip-path="url(#pbd3fe51df0)">
     <use xlink:href="#me9c7ab1263" x="115.363636" y="111.6" style="fill: #1f77b4; stroke: #1f77b4"/>
     <use xlink:href="#me9c7ab1263" x="165.838535" y="144.116129" style="fill: #1f77b4; stroke: #1f77b4"/>
     <use xlink:href="#me9c7ab1263" x="216.313433" y="171.212903" style="fill: #1f77b4; stroke: #1f77b4"/>
     <use xlink:href="#me9c7ab1263" x="266.788331" y="187.470968" style="fill: #1f77b4; stroke: #1f77b4"/>
     <use xlink:href="#me9c7ab1263" x="317.263229" y="198.309677" style="fill: #1f77b4; stroke: #1f77b4"/>
     <use xlink:href="#me9c7ab1263" x="367.738128" y="209.148387" style="fill: #1f77b4; stroke: #1f77b4"/>
     <use xlink:href="#me9c7ab1263" x="418.213026" y="203.729032" style="fill: #1f77b4; stroke: #1f77b4"/>
     <use xlink:href="#me9c7ab1263" x="468.687924" y="198.309677" style="fill: #1f77b4; stroke: #1f77b4"/>
     <use xlink:href="#me9c7ab1263" x="519.162822" y="198.309677" style="fill: #1f77b4; stroke: #1f77b4"/>
     <use xlink:href="#me9c7ab1263" x="569.63772" y="182.051613" style="fill: #1f77b4; stroke: #1f77b4"/>
     <use xlink:href="#me9c7ab1263" x="620.112619" y="160.374194" style="fill: #1f77b4; stroke: #1f77b4"/>
    </g>
   </g>
   <g id="line2d_30">
    <path d="M 115.363636 111.6 
L 117.887381 117.019355 
L 120.411126 117.019355 
L 122.934871 122.43871 
L 125.458616 122.43871 
L 127.982361 127.858065 
L 130.506106 127.858065 
L 133.029851 133.277419 
L 135.553596 133.277419 
L 138.077341 138.696774 
L 140.601085 138.696774 
L 143.12483 144.116129 
L 148.17232 144.116129 
L 150.696065 149.535484 
L 153.21981 149.535484 
L 155.743555 154.954839 
L 160.791045 154.954839 
L 163.31479 160.374194 
L 165.838535 160.374194 
L 168.36228 165.793548 
L 170.886024 165.793548 
L 173.409769 171.212903 
L 175.933514 171.212903 
L 178.457259 176.632258 
L 183.504749 176.632258 
L 186.028494 182.051613 
L 188.552239 182.051613 
L 191.075984 187.470968 
L 193.599729 187.470968 
L 196.123474 192.890323 
L 198.647218 192.890323 
L 201.170963 198.309677 
L 203.694708 198.309677 
L 206.218453 203.729032 
L 211.265943 203.729032 
L 213.789688 209.148387 
L 218.837178 209.148387 
L 223.884668 219.987097 
L 226.408412 219.987097 
L 228.932157 225.406452 
L 231.455902 225.406452 
L 233.979647 230.825806 
L 239.027137 230.825806 
L 246.598372 247.083871 
L 249.122117 247.083871 
L 251.645862 252.503226 
L 254.169607 252.503226 
L 256.693351 257.922581 
L 259.217096 257.922581 
L 261.740841 263.341935 
L 266.788331 263.341935 
L 269.312076 268.76129 
L 271.835821 268.76129 
L 274.359566 274.180645 
L 279.407056 274.180645 
L 284.454545 285.019355 
L 286.97829 285.019355 
L 289.502035 290.43871 
L 292.02578 290.43871 
L 297.07327 301.277419 
L 302.12076 301.277419 
L 304.644505 306.696774 
L 307.16825 306.696774 
L 309.691995 312.116129 
L 312.215739 312.116129 
L 314.739484 317.535484 
L 317.263229 317.535484 
L 319.786974 322.954839 
L 322.310719 322.954839 
L 324.834464 328.374194 
L 329.881954 328.374194 
L 332.405699 333.793548 
L 337.453189 333.793548 
L 339.976934 339.212903 
L 342.500678 339.212903 
L 345.024423 344.632258 
L 347.548168 344.632258 
L 350.071913 350.051613 
L 352.595658 350.051613 
L 355.119403 355.470968 
L 357.643148 355.470968 
L 360.166893 360.890323 
L 362.690638 360.890323 
L 367.738128 371.729032 
L 372.785617 371.729032 
L 375.309362 377.148387 
L 377.833107 377.148387 
L 380.356852 382.567742 
L 382.880597 382.567742 
L 385.404342 387.987097 
L 390.451832 387.987097 
L 392.975577 393.406452 
L 395.499322 393.406452 
L 398.023066 398.825806 
L 403.070556 398.825806 
L 405.594301 404.245161 
L 410.641791 404.245161 
L 415.689281 415.083871 
L 420.736771 415.083871 
L 423.260516 420.503226 
L 425.784261 420.503226 
L 428.308005 425.922581 
L 430.83175 425.922581 
L 433.355495 431.341935 
L 438.402985 431.341935 
L 440.92673 436.76129 
L 445.97422 436.76129 
L 448.497965 442.180645 
L 451.02171 442.180645 
L 453.545455 447.6 
L 456.069199 447.6 
L 458.592944 453.019355 
L 461.116689 453.019355 
L 463.640434 458.43871 
L 468.687924 458.43871 
L 471.211669 463.858065 
L 476.259159 463.858065 
L 478.782904 469.277419 
L 481.306649 469.277419 
L 483.830393 474.696774 
L 488.877883 474.696774 
L 491.401628 480.116129 
L 493.925373 480.116129 
L 496.449118 485.535484 
L 501.496608 485.535484 
L 504.020353 490.954839 
L 509.067843 490.954839 
L 511.591588 496.374194 
L 514.115332 496.374194 
L 516.639077 501.793548 
L 521.686567 501.793548 
L 524.210312 507.212903 
L 526.734057 507.212903 
L 529.257802 512.632258 
L 534.305292 512.632258 
L 536.829037 518.051613 
L 541.876526 518.051613 
L 544.400271 523.470968 
L 549.447761 523.470968 
L 551.971506 528.890323 
L 557.018996 528.890323 
L 559.542741 534.309677 
L 562.066486 534.309677 
L 564.590231 539.729032 
L 567.113976 539.729032 
L 569.63772 545.148387 
L 572.161465 545.148387 
L 574.68521 550.567742 
L 579.7327 550.567742 
L 582.256445 555.987097 
L 584.78019 555.987097 
L 587.303935 561.406452 
L 589.82768 561.406452 
L 592.351425 566.825806 
L 597.398915 566.825806 
L 599.922659 572.245161 
L 602.446404 572.245161 
L 604.970149 577.664516 
L 610.017639 577.664516 
L 612.541384 583.083871 
L 615.065129 583.083871 
L 617.588874 588.503226 
L 622.636364 588.503226 
L 622.636364 588.503226 
" clip-path="url(#pbd3fe51df0)" style="fill: none; stroke: #ff7f0e; stroke-linecap: round"/>
    <defs>
     <path id="m6a9bd9c0a6" d="M 0 -5 
L -5 5 
L 5 5 
z
" style="stroke: #ff7f0e; stroke-linejoin: miter"/>
    </defs>
    <g clip-path="url(#pbd3fe51df0)">
     <use xlink:href="#m6a9bd9c0a6" x="115.363636" y="111.6" style="fill: #ff7f0e; stroke: #ff7f0e; stroke-linejoin: miter"/>
     <use xlink:href="#m6a9bd9c0a6" x="165.838535" y="160.374194" style="fill: #ff7f0e; stroke: #ff7f0e; stroke-linejoin: miter"/>
     <use xlink:href="#m6a9bd9c0a6" x="216.313433" y="209.148387" style="fill: #ff7f0e; stroke: #ff7f0e; stroke-linejoin: miter"/>
     <use xlink:href="#m6a9bd9c0a6" x="266.788331" y="263.341935" style="fill: #ff7f0e; stroke: #ff7f0e; stroke-linejoin: miter"/>
     <use xlink:href="#m6a9bd9c0a6" x="317.263229" y="317.535484" style="fill: #ff7f0e; stroke: #ff7f0e; stroke-linejoin: miter"/>
     <use xlink:href="#m6a9bd9c0a6" x="367.738128" y="371.729032" style="fill: #ff7f0e; stroke: #ff7f0e; stroke-linejoin: miter"/>
     <use xlink:href="#m6a9bd9c0a6" x="418.213026" y="415.083871" style="fill: #ff7f0e; stroke: #ff7f0e; stroke-linejoin: miter"/>
     <use xlink:href="#m6a9bd9c0a6" x="468.687924" y="458.43871" style="fill: #ff7f0e; stroke: #ff7f0e; stroke-linejoin: miter"/>
     <use xlink:href="#m6a9bd9c0a6" x="519.162822" y="501.793548" style="fill: #ff7f0e; stroke: #ff7f0e; stroke-linejoin: miter"/>
     <use xlink:href="#m6a9bd9c0a6" x="569.63772" y="545.148387" style="fill: #ff7f0e; stroke: #ff7f0e; stroke-linejoin: miter"/>
     <use xlink:href="#m6a9bd9c0a6" x="620.112619" y="588.503226" style="fill: #ff7f0e; stroke: #ff7f0e; stroke-linejoin: miter"/>
    </g>
   </g>
   <g id="line2d_31">
    <path d="M 115.363636 111.6 
L 117.887381 111.6 
L 120.411126 117.019355 
L 122.934871 117.019355 
L 125.458616 127.858065 
L 127.982361 127.858065 
L 130.506106 133.277419 
L 133.029851 133.277419 
L 135.553596 138.696774 
L 138.077341 138.696774 
L 140.601085 144.116129 
L 143.12483 144.116129 
L 145.648575 149.535484 
L 148.17232 149.535484 
L 150.696065 154.954839 
L 155.743555 154.954839 
L 158.2673 160.374194 
L 160.791045 160.374194 
L 165.838535 171.212903 
L 168.36228 171.212903 
L 170.886024 176.632258 
L 173.409769 176.632258 
L 175.933514 182.051613 
L 178.457259 182.051613 
L 180.981004 187.470968 
L 183.504749 187.470968 
L 186.028494 192.890323 
L 188.552239 192.890323 
L 191.075984 198.309677 
L 201.170963 198.309677 
L 203.694708 203.729032 
L 206.218453 203.729032 
L 208.742198 209.148387 
L 211.265943 209.148387 
L 213.789688 214.567742 
L 216.313433 225.406452 
L 218.837178 225.406452 
L 221.360923 230.825806 
L 223.884668 230.825806 
L 226.408412 236.245161 
L 228.932157 236.245161 
L 231.455902 241.664516 
L 233.979647 241.664516 
L 236.503392 247.083871 
L 241.550882 247.083871 
L 246.598372 257.922581 
L 249.122117 257.922581 
L 251.645862 263.341935 
L 254.169607 263.341935 
L 256.693351 268.76129 
L 259.217096 268.76129 
L 261.740841 274.180645 
L 264.264586 274.180645 
L 266.788331 279.6 
L 271.835821 279.6 
L 274.359566 285.019355 
L 276.883311 285.019355 
L 279.407056 290.43871 
L 281.930801 290.43871 
L 284.454545 295.858065 
L 286.97829 295.858065 
L 289.502035 301.277419 
L 292.02578 301.277419 
L 294.549525 306.696774 
L 297.07327 306.696774 
L 299.597015 312.116129 
L 307.16825 312.116129 
L 309.691995 317.535484 
L 312.215739 317.535484 
L 314.739484 322.954839 
L 319.786974 322.954839 
L 322.310719 328.374194 
L 324.834464 328.374194 
L 327.358209 333.793548 
L 332.405699 333.793548 
L 334.929444 339.212903 
L 337.453189 339.212903 
L 345.024423 355.470968 
L 350.071913 355.470968 
L 352.595658 360.890323 
L 357.643148 360.890323 
L 360.166893 366.309677 
L 362.690638 366.309677 
L 365.214383 371.729032 
L 370.261872 371.729032 
L 372.785617 377.148387 
L 375.309362 377.148387 
L 377.833107 382.567742 
L 380.356852 382.567742 
L 382.880597 387.987097 
L 387.928087 387.987097 
L 390.451832 393.406452 
L 392.975577 393.406452 
L 395.499322 398.825806 
L 400.546811 398.825806 
L 408.118046 415.083871 
L 413.165536 415.083871 
L 418.213026 425.922581 
L 420.736771 425.922581 
L 423.260516 431.341935 
L 428.308005 431.341935 
L 430.83175 436.76129 
L 433.355495 436.76129 
L 435.87924 442.180645 
L 438.402985 442.180645 
L 440.92673 447.6 
L 448.497965 447.6 
L 451.02171 453.019355 
L 453.545455 453.019355 
L 456.069199 458.43871 
L 461.116689 458.43871 
L 463.640434 463.858065 
L 466.164179 463.858065 
L 468.687924 469.277419 
L 471.211669 469.277419 
L 473.735414 474.696774 
L 478.782904 474.696774 
L 481.306649 480.116129 
L 483.830393 480.116129 
L 486.354138 485.535484 
L 491.401628 485.535484 
L 496.449118 496.374194 
L 498.972863 496.374194 
L 501.496608 501.793548 
L 504.020353 501.793548 
L 506.544098 507.212903 
L 511.591588 507.212903 
L 514.115332 512.632258 
L 516.639077 512.632258 
L 519.162822 518.051613 
L 521.686567 518.051613 
L 524.210312 523.470968 
L 526.734057 523.470968 
L 529.257802 528.890323 
L 531.781547 528.890323 
L 534.305292 534.309677 
L 539.352782 534.309677 
L 544.400271 545.148387 
L 549.447761 545.148387 
L 551.971506 550.567742 
L 557.018996 550.567742 
L 559.542741 555.987097 
L 562.066486 555.987097 
L 564.590231 561.406452 
L 567.113976 561.406452 
L 569.63772 566.825806 
L 572.161465 566.825806 
L 574.68521 572.245161 
L 577.208955 572.245161 
L 579.7327 577.664516 
L 582.256445 577.664516 
L 587.303935 588.503226 
L 592.351425 588.503226 
L 594.87517 593.922581 
L 597.398915 593.922581 
L 599.922659 599.341935 
L 602.446404 599.341935 
L 604.970149 604.76129 
L 612.541384 604.76129 
L 615.065129 610.180645 
L 617.588874 610.180645 
L 620.112619 615.6 
L 622.636364 615.6 
L 622.636364 615.6 
" clip-path="url(#pbd3fe51df0)" style="fill: none; stroke: #2ca02c; stroke-linecap: round"/>
    <defs>
     <path id="m1a35139084" d="M -5 5 
L 5 -5 
M -5 -5 
L 5 5 
" style="stroke: #2ca02c"/>
    </defs>
    <g clip-path="url(#pbd3fe51df0)">
     <use xlink:href="#m1a35139084" x="115.363636" y="111.6" style="fill: #2ca02c; stroke: #2ca02c"/>
     <use xlink:href="#m1a35139084" x="165.838535" y="171.212903" style="fill: #2ca02c; stroke: #2ca02c"/>
     <use xlink:href="#m1a35139084" x="216.313433" y="225.406452" style="fill: #2ca02c; stroke: #2ca02c"/>
     <use xlink:href="#m1a35139084" x="266.788331" y="279.6" style="fill: #2ca02c; stroke: #2ca02c"/>
     <use xlink:href="#m1a35139084" x="317.263229" y="322.954839" style="fill: #2ca02c; stroke: #2ca02c"/>
     <use xlink:href="#m1a35139084" x="367.738128" y="371.729032" style="fill: #2ca02c; stroke: #2ca02c"/>
     <use xlink:href="#m1a35139084" x="418.213026" y="425.922581" style="fill: #2ca02c; stroke: #2ca02c"/>
     <use xlink:href="#m1a35139084" x="468.687924" y="469.277419" style="fill: #2ca02c; stroke: #2ca02c"/>
     <use xlink:href="#m1a35139084" x="519.162822" y="518.051613" style="fill: #2ca02c; stroke: #2ca02c"/>
     <use xlink:href="#m1a35139084" x="569.63772" y="566.825806" style="fill: #2ca02c; stroke: #2ca02c"/>
     <use xlink:href="#m1a35139084" x="620.112619" y="615.6" style="fill: #2ca02c; stroke: #2ca02c"/>
    </g>
   </g>
   <g id="patch_3">
    <path d="M 90 640.8 
L 90 86.4 
" style="fill: none; stroke: #cccccc; stroke-linejoin: miter; stroke-linecap: square"/>
   </g>
   <g id="patch_4">
    <path d="M 648 640.8 
L 648 86.4 
" style="fill: none; stroke: #cccccc; stroke-linejoin: miter; stroke-linecap: square"/>
   </g>
   <g id="patch_5">
    <path d="M 90 640.8 
L 648 640.8 
" style="fill: none; stroke: #cccccc; stroke-linejoin: miter; stroke-linecap: square"/>
   </g>
   <g id="patch_6">
    <path d="M 90 86.4 
L 648 86.4 
" style="fill: none; stroke: #cccccc; stroke-linejoin: miter; stroke-linecap: square"/>
   </g>
   <g id="text_17">
    <!-- ACC v/s rounds -->
    <g style="fill: #262626" transform="translate(326.986875 80.4) scale(0.12 -0.12)">
     <defs>
      <path id="ArialMT-20" transform="scale(0.015625)"/>
      <path id="ArialMT-76" d="M 1344 0 
L 81 3319 
L 675 3319 
L 1388 1331 
Q 1503 1009 1600 663 
Q 1675 925 1809 1294 
L 2547 3319 
L 3125 3319 
L 1869 0 
L 1344 0 
z
" transform="scale(0.015625)"/>
      <path id="ArialMT-2f" d="M 0 -78 
L 1328 4659 
L 1778 4659 
L 453 -78 
L 0 -78 
z
" transform="scale(0.015625)"/>
     </defs>
     <use xlink:href="#ArialMT-41"/>
     <use xlink:href="#ArialMT-43" x="66.699219"/>
     <use xlink:href="#ArialMT-43" x="138.916016"/>
     <use xlink:href="#ArialMT-20" x="211.132812"/>
     <use xlink:href="#ArialMT-76" x="238.916016"/>
     <use xlink:href="#ArialMT-2f" x="288.916016"/>
     <use xlink:href="#ArialMT-73" x="316.699219"/>
     <use xlink:href="#ArialMT-20" x="366.699219"/>
     <use xlink:href="#ArialMT-72" x="394.482422"/>
     <use xlink:href="#ArialMT-6f" x="427.783203"/>
     <use xlink:href="#ArialMT-75" x="483.398438"/>
     <use xlink:href="#ArialMT-6e" x="539.013672"/>
     <use xlink:href="#ArialMT-64" x="594.628906"/>
     <use xlink:href="#ArialMT-73" x="650.244141"/>
    </g>
   </g>
   <g id="legend_1">
    <g id="line2d_32">
     <path d="M 593.217188 99.057812 
L 603.217188 99.057812 
L 613.217188 99.057812 
" style="fill: none; stroke: #1f77b4; stroke-linecap: round"/>
     <g>
      <use xlink:href="#me9c7ab1263" x="603.217188" y="99.057812" style="fill: #1f77b4; stroke: #1f77b4"/>
     </g>
    </g>
    <g id="text_18">
     <!-- gsw -->
     <g style="fill: #262626" transform="translate(621.217188 102.557812) scale(0.1 -0.1)">
      <defs>
       <path id="ArialMT-67" d="M 319 -275 
L 866 -356 
Q 900 -609 1056 -725 
Q 1266 -881 1628 -881 
Q 2019 -881 2231 -725 
Q 2444 -569 2519 -288 
Q 2563 -116 2559 434 
Q 2191 0 1641 0 
Q 956 0 581 494 
Q 206 988 206 1678 
Q 206 2153 378 2554 
Q 550 2956 876 3175 
Q 1203 3394 1644 3394 
Q 2231 3394 2613 2919 
L 2613 3319 
L 3131 3319 
L 3131 450 
Q 3131 -325 2973 -648 
Q 2816 -972 2473 -1159 
Q 2131 -1347 1631 -1347 
Q 1038 -1347 672 -1080 
Q 306 -813 319 -275 
z
M 784 1719 
Q 784 1066 1043 766 
Q 1303 466 1694 466 
Q 2081 466 2343 764 
Q 2606 1063 2606 1700 
Q 2606 2309 2336 2618 
Q 2066 2928 1684 2928 
Q 1309 2928 1046 2623 
Q 784 2319 784 1719 
z
" transform="scale(0.015625)"/>
       <path id="ArialMT-77" d="M 1034 0 
L 19 3319 
L 600 3319 
L 1128 1403 
L 1325 691 
Q 1338 744 1497 1375 
L 2025 3319 
L 2603 3319 
L 3100 1394 
L 3266 759 
L 3456 1400 
L 4025 3319 
L 4572 3319 
L 3534 0 
L 2950 0 
L 2422 1988 
L 2294 2553 
L 1622 0 
L 1034 0 
z
" transform="scale(0.015625)"/>
      </defs>
      <use xlink:href="#ArialMT-67"/>
      <use xlink:href="#ArialMT-73" x="55.615234"/>
      <use xlink:href="#ArialMT-77" x="105.615234"/>
     </g>
    </g>
    <g id="line2d_33">
     <path d="M 593.217188 113.320312 
L 603.217188 113.320312 
L 613.217188 113.320312 
" style="fill: none; stroke: #ff7f0e; stroke-linecap: round"/>
     <g>
      <use xlink:href="#m6a9bd9c0a6" x="603.217188" y="113.320312" style="fill: #ff7f0e; stroke: #ff7f0e; stroke-linejoin: miter"/>
     </g>
    </g>
    <g id="text_19">
     <!-- nsw -->
     <g style="fill: #262626" transform="translate(621.217188 116.820312) scale(0.1 -0.1)">
      <use xlink:href="#ArialMT-6e"/>
      <use xlink:href="#ArialMT-73" x="55.615234"/>
      <use xlink:href="#ArialMT-77" x="105.615234"/>
     </g>
    </g>
    <g id="line2d_34">
     <path d="M 593.217188 127.465625 
L 603.217188 127.465625 
L 613.217188 127.465625 
" style="fill: none; stroke: #2ca02c; stroke-linecap: round"/>
     <g>
      <use xlink:href="#m1a35139084" x="603.217188" y="127.465625" style="fill: #2ca02c; stroke: #2ca02c"/>
     </g>
    </g>
    <g id="text_20">
     <!-- ppo -->
     <g style="fill: #262626" transform="translate(621.217188 130.965625) scale(0.1 -0.1)">
      <defs>
       <path id="ArialMT-70" d="M 422 -1272 
L 422 3319 
L 934 3319 
L 934 2888 
Q 1116 3141 1344 3267 
Q 1572 3394 1897 3394 
Q 2322 3394 2647 3175 
Q 2972 2956 3137 2557 
Q 3303 2159 3303 1684 
Q 3303 1175 3120 767 
Q 2938 359 2589 142 
Q 2241 -75 1856 -75 
Q 1575 -75 1351 44 
Q 1128 163 984 344 
L 984 -1272 
L 422 -1272 
z
M 931 1641 
Q 931 1000 1190 694 
Q 1450 388 1819 388 
Q 2194 388 2461 705 
Q 2728 1022 2728 1688 
Q 2728 2322 2467 2637 
Q 2206 2953 1844 2953 
Q 1484 2953 1207 2617 
Q 931 2281 931 1641 
z
" transform="scale(0.015625)"/>
      </defs>
      <use xlink:href="#ArialMT-70"/>
      <use xlink:href="#ArialMT-70" x="55.615234"/>
      <use xlink:href="#ArialMT-6f" x="111.230469"/>
     </g>
    </g>
   </g>
  </g>
 </g>
 <defs>
  <clipPath id="pbd3fe51df0">
   <rect x="90" y="86.4" width="558" height="554.4"/>
  </clipPath>
 </defs>
</svg>
