<?xml version="1.0" encoding="utf-8" standalone="no"?>
<!DOCTYPE svg PUBLIC "-//W3C//DTD SVG 1.1//EN"
  "http://www.w3.org/Graphics/SVG/1.1/DTD/svg11.dtd">
<svg xmlns:xlink="http://www.w3.org/1999/xlink" width="720pt" height="720pt" viewBox="0 0 720 720" xmlns="http://www.w3.org/2000/svg" version="1.1">
 <metadata>
  <rdf:RDF xmlns:dc="http://purl.org/dc/elements/1.1/" xmlns:cc="http://creativecommons.org/ns#" xmlns:rdf="http://www.w3.org/1999/02/22-rdf-syntax-ns#">
   <cc:Work>
    <dc:type rdf:resource="http://purl.org/dc/dcmitype/StillImage"/>
    <dc:date>2024-03-27T17:41:29.156604</dc:date>
    <dc:format>image/svg+xml</dc:format>
    <dc:creator>
     <cc:Agent>
      <dc:title>Matplotlib v3.8.3, https://matplotlib.org/</dc:title>
     </cc:Agent>
    </dc:creator>
   </cc:Work>
  </rdf:RDF>
 </metadata>
 <defs>
  <style type="text/css">*{stroke-linejoin: round; stroke-linecap: butt}</style>
 </defs>
 <g id="figure_1">
  <g id="patch_1">
   <path d="M 0 720 
L 720 720 
L 720 0 
L 0 0 
z
" style="fill: #ffffff"/>
  </g>
  <g id="axes_1">
   <g id="patch_2">
    <path d="M 90 640.8 
L 648 640.8 
L 648 86.4 
L 90 86.4 
z
" style="fill: #ffffff"/>
   </g>
   <g id="matplotlib.axis_1">
    <g id="xtick_1">
     <g id="line2d_1">
      <path d="M 115.363636 640.8 
L 115.363636 86.4 
" clip-path="url(#pa8ed4e26de)" style="fill: none; stroke: #cccccc; stroke-width: 0.8; stroke-linecap: round"/>
     </g>
     <g id="line2d_2"/>
     <g id="text_1">
      <!-- 0 -->
      <g style="fill: #262626" transform="translate(112.583168 651.546875) scale(0.1 -0.1)">
       <defs>
        <path id="LiberationSans-30" d="M 3309 2203 
Q 3309 1569 3189 1136 
Q 3069 703 2861 436 
Q 2653 169 2372 53 
Q 2091 -63 1772 -63 
Q 1450 -63 1172 53 
Q 894 169 689 434 
Q 484 700 367 1133 
Q 250 1566 250 2203 
Q 250 2869 367 3305 
Q 484 3741 690 4000 
Q 897 4259 1178 4364 
Q 1459 4469 1791 4469 
Q 2106 4469 2382 4364 
Q 2659 4259 2865 4000 
Q 3072 3741 3190 3305 
Q 3309 2869 3309 2203 
z
M 2738 2203 
Q 2738 2728 2675 3076 
Q 2613 3425 2491 3633 
Q 2369 3841 2192 3927 
Q 2016 4013 1791 4013 
Q 1553 4013 1372 3925 
Q 1191 3838 1067 3630 
Q 944 3422 881 3073 
Q 819 2725 819 2203 
Q 819 1697 883 1350 
Q 947 1003 1070 792 
Q 1194 581 1372 489 
Q 1550 397 1778 397 
Q 2000 397 2178 489 
Q 2356 581 2479 792 
Q 2603 1003 2670 1350 
Q 2738 1697 2738 2203 
z
" transform="scale(0.015625)"/>
       </defs>
       <use xlink:href="#LiberationSans-30"/>
      </g>
     </g>
    </g>
    <g id="xtick_2">
     <g id="line2d_3">
      <path d="M 178.457259 640.8 
L 178.457259 86.4 
" clip-path="url(#pa8ed4e26de)" style="fill: none; stroke: #cccccc; stroke-width: 0.8; stroke-linecap: round"/>
     </g>
     <g id="line2d_4"/>
     <g id="text_2">
      <!-- 25 -->
      <g style="fill: #262626" transform="translate(172.896322 651.546875) scale(0.1 -0.1)">
       <defs>
        <path id="LiberationSans-32" d="M 322 0 
L 322 397 
Q 481 763 711 1042 
Q 941 1322 1194 1548 
Q 1447 1775 1695 1969 
Q 1944 2163 2144 2356 
Q 2344 2550 2467 2762 
Q 2591 2975 2591 3244 
Q 2591 3431 2534 3573 
Q 2478 3716 2372 3812 
Q 2266 3909 2117 3957 
Q 1969 4006 1788 4006 
Q 1619 4006 1470 3959 
Q 1322 3913 1206 3819 
Q 1091 3725 1017 3586 
Q 944 3447 922 3263 
L 347 3316 
Q 375 3553 478 3762 
Q 581 3972 762 4130 
Q 944 4288 1198 4378 
Q 1453 4469 1788 4469 
Q 2116 4469 2372 4391 
Q 2628 4313 2804 4159 
Q 2981 4006 3075 3781 
Q 3169 3556 3169 3263 
Q 3169 3041 3089 2841 
Q 3009 2641 2876 2459 
Q 2744 2278 2569 2109 
Q 2394 1941 2203 1780 
Q 2013 1619 1819 1461 
Q 1625 1303 1454 1143 
Q 1284 984 1150 820 
Q 1016 656 941 478 
L 3238 478 
L 3238 0 
L 322 0 
z
" transform="scale(0.015625)"/>
        <path id="LiberationSans-35" d="M 3291 1434 
Q 3291 1103 3191 828 
Q 3091 553 2894 354 
Q 2697 156 2405 46 
Q 2113 -63 1728 -63 
Q 1381 -63 1123 18 
Q 866 100 687 242 
Q 509 384 404 575 
Q 300 766 256 984 
L 825 1050 
Q 859 925 921 808 
Q 984 691 1092 598 
Q 1200 506 1358 451 
Q 1516 397 1741 397 
Q 1959 397 2137 464 
Q 2316 531 2442 662 
Q 2569 794 2637 984 
Q 2706 1175 2706 1422 
Q 2706 1625 2640 1795 
Q 2575 1966 2453 2089 
Q 2331 2213 2154 2281 
Q 1978 2350 1753 2350 
Q 1613 2350 1494 2325 
Q 1375 2300 1273 2256 
Q 1172 2213 1089 2155 
Q 1006 2097 934 2034 
L 384 2034 
L 531 4403 
L 3034 4403 
L 3034 3925 
L 1044 3925 
L 959 2528 
Q 1109 2644 1334 2726 
Q 1559 2809 1869 2809 
Q 2197 2809 2459 2709 
Q 2722 2609 2906 2426 
Q 3091 2244 3191 1991 
Q 3291 1738 3291 1434 
z
" transform="scale(0.015625)"/>
       </defs>
       <use xlink:href="#LiberationSans-32"/>
       <use xlink:href="#LiberationSans-35" x="55.615234"/>
      </g>
     </g>
    </g>
    <g id="xtick_3">
     <g id="line2d_5">
      <path d="M 241.550882 640.8 
L 241.550882 86.4 
" clip-path="url(#pa8ed4e26de)" style="fill: none; stroke: #cccccc; stroke-width: 0.8; stroke-linecap: round"/>
     </g>
     <g id="line2d_6"/>
     <g id="text_3">
      <!-- 50 -->
      <g style="fill: #262626" transform="translate(235.989944 651.546875) scale(0.1 -0.1)">
       <use xlink:href="#LiberationSans-35"/>
       <use xlink:href="#LiberationSans-30" x="55.615234"/>
      </g>
     </g>
    </g>
    <g id="xtick_4">
     <g id="line2d_7">
      <path d="M 304.644505 640.8 
L 304.644505 86.4 
" clip-path="url(#pa8ed4e26de)" style="fill: none; stroke: #cccccc; stroke-width: 0.8; stroke-linecap: round"/>
     </g>
     <g id="line2d_8"/>
     <g id="text_4">
      <!-- 75 -->
      <g style="fill: #262626" transform="translate(299.083567 651.546875) scale(0.1 -0.1)">
       <defs>
        <path id="LiberationSans-37" d="M 3238 3947 
Q 2906 3441 2628 2973 
Q 2350 2506 2150 2032 
Q 1950 1559 1839 1061 
Q 1728 563 1728 0 
L 1141 0 
Q 1141 528 1266 1036 
Q 1391 1544 1603 2033 
Q 1816 2522 2097 2994 
Q 2378 3466 2694 3925 
L 328 3925 
L 328 4403 
L 3238 4403 
L 3238 3947 
z
" transform="scale(0.015625)"/>
       </defs>
       <use xlink:href="#LiberationSans-37"/>
       <use xlink:href="#LiberationSans-35" x="55.615234"/>
      </g>
     </g>
    </g>
    <g id="xtick_5">
     <g id="line2d_9">
      <path d="M 367.738128 640.8 
L 367.738128 86.4 
" clip-path="url(#pa8ed4e26de)" style="fill: none; stroke: #cccccc; stroke-width: 0.8; stroke-linecap: round"/>
     </g>
     <g id="line2d_10"/>
     <g id="text_5">
      <!-- 100 -->
      <g style="fill: #262626" transform="translate(359.396721 651.546875) scale(0.1 -0.1)">
       <defs>
        <path id="LiberationSans-31" d="M 488 0 
L 488 478 
L 1609 478 
L 1609 3866 
L 616 3156 
L 616 3688 
L 1656 4403 
L 2175 4403 
L 2175 478 
L 3247 478 
L 3247 0 
L 488 0 
z
" transform="scale(0.015625)"/>
       </defs>
       <use xlink:href="#LiberationSans-31"/>
       <use xlink:href="#LiberationSans-30" x="55.615234"/>
       <use xlink:href="#LiberationSans-30" x="111.230469"/>
      </g>
     </g>
    </g>
    <g id="xtick_6">
     <g id="line2d_11">
      <path d="M 430.83175 640.8 
L 430.83175 86.4 
" clip-path="url(#pa8ed4e26de)" style="fill: none; stroke: #cccccc; stroke-width: 0.8; stroke-linecap: round"/>
     </g>
     <g id="line2d_12"/>
     <g id="text_6">
      <!-- 125 -->
      <g style="fill: #262626" transform="translate(422.490344 651.546875) scale(0.1 -0.1)">
       <use xlink:href="#LiberationSans-31"/>
       <use xlink:href="#LiberationSans-32" x="55.615234"/>
       <use xlink:href="#LiberationSans-35" x="111.230469"/>
      </g>
     </g>
    </g>
    <g id="xtick_7">
     <g id="line2d_13">
      <path d="M 493.925373 640.8 
L 493.925373 86.4 
" clip-path="url(#pa8ed4e26de)" style="fill: none; stroke: #cccccc; stroke-width: 0.8; stroke-linecap: round"/>
     </g>
     <g id="line2d_14"/>
     <g id="text_7">
      <!-- 150 -->
      <g style="fill: #262626" transform="translate(485.583967 651.546875) scale(0.1 -0.1)">
       <use xlink:href="#LiberationSans-31"/>
       <use xlink:href="#LiberationSans-35" x="55.615234"/>
       <use xlink:href="#LiberationSans-30" x="111.230469"/>
      </g>
     </g>
    </g>
    <g id="xtick_8">
     <g id="line2d_15">
      <path d="M 557.018996 640.8 
L 557.018996 86.4 
" clip-path="url(#pa8ed4e26de)" style="fill: none; stroke: #cccccc; stroke-width: 0.8; stroke-linecap: round"/>
     </g>
     <g id="line2d_16"/>
     <g id="text_8">
      <!-- 175 -->
      <g style="fill: #262626" transform="translate(548.67759 651.546875) scale(0.1 -0.1)">
       <use xlink:href="#LiberationSans-31"/>
       <use xlink:href="#LiberationSans-37" x="55.615234"/>
       <use xlink:href="#LiberationSans-35" x="111.230469"/>
      </g>
     </g>
    </g>
    <g id="xtick_9">
     <g id="line2d_17">
      <path d="M 620.112619 640.8 
L 620.112619 86.4 
" clip-path="url(#pa8ed4e26de)" style="fill: none; stroke: #cccccc; stroke-width: 0.8; stroke-linecap: round"/>
     </g>
     <g id="line2d_18"/>
     <g id="text_9">
      <!-- 200 -->
      <g style="fill: #262626" transform="translate(611.771212 651.546875) scale(0.1 -0.1)">
       <use xlink:href="#LiberationSans-32"/>
       <use xlink:href="#LiberationSans-30" x="55.615234"/>
       <use xlink:href="#LiberationSans-30" x="111.230469"/>
      </g>
     </g>
    </g>
    <g id="text_10">
     <!-- rounds -->
     <g style="fill: #262626" transform="translate(353.713281 664.86875) scale(0.1 -0.1)">
      <defs>
       <path id="LiberationSans-72" d="M 444 0 
L 444 2594 
Q 444 2700 442 2811 
Q 441 2922 437 3025 
Q 434 3128 431 3218 
Q 428 3309 425 3381 
L 956 3381 
Q 959 3309 964 3217 
Q 969 3125 973 3028 
Q 978 2931 979 2842 
Q 981 2753 981 2691 
L 994 2691 
Q 1053 2884 1120 3026 
Q 1188 3169 1278 3261 
Q 1369 3353 1494 3398 
Q 1619 3444 1797 3444 
Q 1866 3444 1928 3433 
Q 1991 3422 2025 3413 
L 2025 2897 
Q 1969 2913 1894 2920 
Q 1819 2928 1725 2928 
Q 1531 2928 1395 2840 
Q 1259 2753 1173 2598 
Q 1088 2444 1047 2230 
Q 1006 2016 1006 1763 
L 1006 0 
L 444 0 
z
" transform="scale(0.015625)"/>
       <path id="LiberationSans-6f" d="M 3291 1694 
Q 3291 806 2900 371 
Q 2509 -63 1766 -63 
Q 1413 -63 1134 43 
Q 856 150 664 369 
Q 472 588 370 917 
Q 269 1247 269 1694 
Q 269 3444 1784 3444 
Q 2178 3444 2464 3334 
Q 2750 3225 2933 3006 
Q 3116 2788 3203 2459 
Q 3291 2131 3291 1694 
z
M 2700 1694 
Q 2700 2088 2639 2344 
Q 2578 2600 2461 2753 
Q 2344 2906 2175 2967 
Q 2006 3028 1794 3028 
Q 1578 3028 1404 2964 
Q 1231 2900 1109 2745 
Q 988 2591 923 2334 
Q 859 2078 859 1694 
Q 859 1300 928 1042 
Q 997 784 1117 631 
Q 1238 478 1402 415 
Q 1566 353 1759 353 
Q 1975 353 2150 414 
Q 2325 475 2447 628 
Q 2569 781 2634 1040 
Q 2700 1300 2700 1694 
z
" transform="scale(0.015625)"/>
       <path id="LiberationSans-75" d="M 981 3381 
L 981 1238 
Q 981 991 1017 825 
Q 1053 659 1134 557 
Q 1216 456 1348 414 
Q 1481 372 1678 372 
Q 1878 372 2039 442 
Q 2200 513 2314 645 
Q 2428 778 2490 973 
Q 2553 1169 2553 1422 
L 2553 3381 
L 3116 3381 
L 3116 722 
Q 3116 616 3117 498 
Q 3119 381 3122 276 
Q 3125 172 3128 97 
Q 3131 22 3134 0 
L 2603 0 
Q 2600 16 2597 84 
Q 2594 153 2589 242 
Q 2584 331 2581 423 
Q 2578 516 2578 578 
L 2569 578 
Q 2488 431 2391 312 
Q 2294 194 2166 111 
Q 2038 28 1872 -17 
Q 1706 -63 1488 -63 
Q 1206 -63 1003 6 
Q 800 75 669 219 
Q 538 363 477 588 
Q 416 813 416 1128 
L 416 3381 
L 981 3381 
z
" transform="scale(0.015625)"/>
       <path id="LiberationSans-6e" d="M 2578 0 
L 2578 2144 
Q 2578 2391 2542 2556 
Q 2506 2722 2425 2823 
Q 2344 2925 2211 2967 
Q 2078 3009 1881 3009 
Q 1681 3009 1520 2939 
Q 1359 2869 1245 2736 
Q 1131 2603 1068 2408 
Q 1006 2213 1006 1959 
L 1006 0 
L 444 0 
L 444 2659 
Q 444 2766 442 2883 
Q 441 3000 437 3104 
Q 434 3209 431 3284 
Q 428 3359 425 3381 
L 956 3381 
Q 959 3366 962 3297 
Q 966 3228 970 3139 
Q 975 3050 978 2958 
Q 981 2866 981 2803 
L 991 2803 
Q 1072 2950 1169 3069 
Q 1266 3188 1394 3270 
Q 1522 3353 1687 3398 
Q 1853 3444 2072 3444 
Q 2353 3444 2556 3375 
Q 2759 3306 2890 3162 
Q 3022 3019 3083 2792 
Q 3144 2566 3144 2253 
L 3144 0 
L 2578 0 
z
" transform="scale(0.015625)"/>
       <path id="LiberationSans-64" d="M 2566 544 
Q 2409 219 2151 78 
Q 1894 -63 1513 -63 
Q 872 -63 570 368 
Q 269 800 269 1675 
Q 269 3444 1513 3444 
Q 1897 3444 2153 3303 
Q 2409 3163 2566 2856 
L 2572 2856 
Q 2572 2888 2570 2955 
Q 2569 3022 2567 3095 
Q 2566 3169 2566 3234 
Q 2566 3300 2566 3328 
L 2566 4638 
L 3128 4638 
L 3128 697 
Q 3128 575 3129 462 
Q 3131 350 3134 256 
Q 3138 163 3141 95 
Q 3144 28 3147 0 
L 2609 0 
Q 2603 31 2598 89 
Q 2594 147 2589 222 
Q 2584 297 2581 380 
Q 2578 463 2578 544 
L 2566 544 
z
M 859 1694 
Q 859 1344 903 1094 
Q 947 844 1044 683 
Q 1141 522 1291 447 
Q 1441 372 1656 372 
Q 1878 372 2048 444 
Q 2219 516 2333 677 
Q 2447 838 2506 1097 
Q 2566 1356 2566 1731 
Q 2566 2091 2506 2339 
Q 2447 2588 2331 2741 
Q 2216 2894 2048 2961 
Q 1881 3028 1663 3028 
Q 1456 3028 1306 2956 
Q 1156 2884 1056 2725 
Q 956 2566 907 2311 
Q 859 2056 859 1694 
z
" transform="scale(0.015625)"/>
       <path id="LiberationSans-73" d="M 2969 934 
Q 2969 697 2876 511 
Q 2784 325 2609 198 
Q 2434 72 2179 4 
Q 1925 -63 1597 -63 
Q 1303 -63 1067 -17 
Q 831 28 653 128 
Q 475 228 354 392 
Q 234 556 178 794 
L 675 891 
Q 747 619 972 492 
Q 1197 366 1597 366 
Q 1778 366 1929 391 
Q 2081 416 2190 477 
Q 2300 538 2361 639 
Q 2422 741 2422 891 
Q 2422 1044 2350 1142 
Q 2278 1241 2150 1306 
Q 2022 1372 1839 1420 
Q 1656 1469 1438 1528 
Q 1234 1581 1034 1647 
Q 834 1713 673 1820 
Q 513 1928 413 2087 
Q 313 2247 313 2488 
Q 313 2950 642 3192 
Q 972 3434 1603 3434 
Q 2163 3434 2492 3237 
Q 2822 3041 2909 2606 
L 2403 2544 
Q 2375 2675 2300 2764 
Q 2225 2853 2119 2908 
Q 2013 2963 1880 2986 
Q 1747 3009 1603 3009 
Q 1222 3009 1040 2893 
Q 859 2778 859 2544 
Q 859 2406 926 2317 
Q 994 2228 1114 2167 
Q 1234 2106 1403 2061 
Q 1572 2016 1775 1966 
Q 1909 1931 2050 1892 
Q 2191 1853 2323 1798 
Q 2456 1744 2573 1670 
Q 2691 1597 2778 1494 
Q 2866 1391 2917 1253 
Q 2969 1116 2969 934 
z
" transform="scale(0.015625)"/>
      </defs>
      <use xlink:href="#LiberationSans-72"/>
      <use xlink:href="#LiberationSans-6f" x="33.300781"/>
      <use xlink:href="#LiberationSans-75" x="88.916016"/>
      <use xlink:href="#LiberationSans-6e" x="144.53125"/>
      <use xlink:href="#LiberationSans-64" x="200.146484"/>
      <use xlink:href="#LiberationSans-73" x="255.761719"/>
     </g>
    </g>
   </g>
   <g id="matplotlib.axis_2">
    <g id="ytick_1">
     <g id="line2d_19">
      <path d="M 90 615.6 
L 648 615.6 
" clip-path="url(#pa8ed4e26de)" style="fill: none; stroke: #cccccc; stroke-width: 0.8; stroke-linecap: round"/>
     </g>
     <g id="line2d_20"/>
     <g id="text_11">
      <!-- 0.50 -->
      <g style="fill: #262626" transform="translate(67.039062 619.223438) scale(0.1 -0.1)">
       <defs>
        <path id="LiberationSans-2e" d="M 584 0 
L 584 684 
L 1194 684 
L 1194 0 
L 584 0 
z
" transform="scale(0.015625)"/>
       </defs>
       <use xlink:href="#LiberationSans-30"/>
       <use xlink:href="#LiberationSans-2e" x="55.615234"/>
       <use xlink:href="#LiberationSans-35" x="83.398438"/>
       <use xlink:href="#LiberationSans-30" x="139.013672"/>
      </g>
     </g>
    </g>
    <g id="ytick_2">
     <g id="line2d_21">
      <path d="M 90 507.212903 
L 648 507.212903 
" clip-path="url(#pa8ed4e26de)" style="fill: none; stroke: #cccccc; stroke-width: 0.8; stroke-linecap: round"/>
     </g>
     <g id="line2d_22"/>
     <g id="text_12">
      <!-- 0.52 -->
      <g style="fill: #262626" transform="translate(67.039062 510.836341) scale(0.1 -0.1)">
       <use xlink:href="#LiberationSans-30"/>
       <use xlink:href="#LiberationSans-2e" x="55.615234"/>
       <use xlink:href="#LiberationSans-35" x="83.398438"/>
       <use xlink:href="#LiberationSans-32" x="139.013672"/>
      </g>
     </g>
    </g>
    <g id="ytick_3">
     <g id="line2d_23">
      <path d="M 90 398.825806 
L 648 398.825806 
" clip-path="url(#pa8ed4e26de)" style="fill: none; stroke: #cccccc; stroke-width: 0.8; stroke-linecap: round"/>
     </g>
     <g id="line2d_24"/>
     <g id="text_13">
      <!-- 0.54 -->
      <g style="fill: #262626" transform="translate(67.039062 402.449244) scale(0.1 -0.1)">
       <defs>
        <path id="LiberationSans-34" d="M 2753 997 
L 2753 0 
L 2222 0 
L 2222 997 
L 147 997 
L 147 1434 
L 2163 4403 
L 2753 4403 
L 2753 1441 
L 3372 1441 
L 3372 997 
L 2753 997 
z
M 2222 3769 
Q 2216 3753 2191 3708 
Q 2166 3663 2134 3606 
Q 2103 3550 2070 3492 
Q 2038 3434 2013 3397 
L 884 1734 
Q 869 1709 839 1668 
Q 809 1628 778 1586 
Q 747 1544 715 1503 
Q 684 1463 666 1441 
L 2222 1441 
L 2222 3769 
z
" transform="scale(0.015625)"/>
       </defs>
       <use xlink:href="#LiberationSans-30"/>
       <use xlink:href="#LiberationSans-2e" x="55.615234"/>
       <use xlink:href="#LiberationSans-35" x="83.398438"/>
       <use xlink:href="#LiberationSans-34" x="139.013672"/>
      </g>
     </g>
    </g>
    <g id="ytick_4">
     <g id="line2d_25">
      <path d="M 90 290.43871 
L 648 290.43871 
" clip-path="url(#pa8ed4e26de)" style="fill: none; stroke: #cccccc; stroke-width: 0.8; stroke-linecap: round"/>
     </g>
     <g id="line2d_26"/>
     <g id="text_14">
      <!-- 0.56 -->
      <g style="fill: #262626" transform="translate(67.039062 294.062147) scale(0.1 -0.1)">
       <defs>
        <path id="LiberationSans-36" d="M 3278 1441 
Q 3278 1109 3186 832 
Q 3094 556 2914 357 
Q 2734 159 2468 48 
Q 2203 -63 1856 -63 
Q 1472 -63 1184 84 
Q 897 231 706 507 
Q 516 784 420 1186 
Q 325 1588 325 2100 
Q 325 2688 433 3131 
Q 541 3575 744 3872 
Q 947 4169 1239 4319 
Q 1531 4469 1900 4469 
Q 2125 4469 2322 4422 
Q 2519 4375 2680 4270 
Q 2841 4166 2962 3994 
Q 3084 3822 3156 3572 
L 2619 3475 
Q 2531 3759 2339 3886 
Q 2147 4013 1894 4013 
Q 1663 4013 1475 3903 
Q 1288 3794 1156 3576 
Q 1025 3359 954 3031 
Q 884 2703 884 2266 
Q 1038 2550 1316 2698 
Q 1594 2847 1953 2847 
Q 2253 2847 2497 2750 
Q 2741 2653 2914 2470 
Q 3088 2288 3183 2027 
Q 3278 1766 3278 1441 
z
M 2706 1416 
Q 2706 1644 2650 1828 
Q 2594 2013 2481 2142 
Q 2369 2272 2203 2342 
Q 2038 2413 1819 2413 
Q 1666 2413 1509 2367 
Q 1353 2322 1226 2220 
Q 1100 2119 1020 1953 
Q 941 1788 941 1550 
Q 941 1306 1003 1095 
Q 1066 884 1183 728 
Q 1300 572 1465 481 
Q 1631 391 1838 391 
Q 2041 391 2202 461 
Q 2363 531 2475 664 
Q 2588 797 2647 987 
Q 2706 1178 2706 1416 
z
" transform="scale(0.015625)"/>
       </defs>
       <use xlink:href="#LiberationSans-30"/>
       <use xlink:href="#LiberationSans-2e" x="55.615234"/>
       <use xlink:href="#LiberationSans-35" x="83.398438"/>
       <use xlink:href="#LiberationSans-36" x="139.013672"/>
      </g>
     </g>
    </g>
    <g id="ytick_5">
     <g id="line2d_27">
      <path d="M 90 182.051613 
L 648 182.051613 
" clip-path="url(#pa8ed4e26de)" style="fill: none; stroke: #cccccc; stroke-width: 0.8; stroke-linecap: round"/>
     </g>
     <g id="line2d_28"/>
     <g id="text_15">
      <!-- 0.58 -->
      <g style="fill: #262626" transform="translate(67.039062 185.67505) scale(0.1 -0.1)">
       <defs>
        <path id="LiberationSans-38" d="M 3281 1228 
Q 3281 947 3192 711 
Q 3103 475 2920 303 
Q 2738 131 2453 34 
Q 2169 -63 1781 -63 
Q 1394 -63 1111 34 
Q 828 131 642 301 
Q 456 472 367 708 
Q 278 944 278 1222 
Q 278 1463 351 1650 
Q 425 1838 548 1973 
Q 672 2109 830 2192 
Q 988 2275 1156 2303 
L 1156 2316 
Q 972 2359 826 2456 
Q 681 2553 582 2689 
Q 484 2825 432 2990 
Q 381 3156 381 3341 
Q 381 3572 470 3776 
Q 559 3981 734 4136 
Q 909 4291 1168 4380 
Q 1428 4469 1769 4469 
Q 2128 4469 2392 4378 
Q 2656 4288 2829 4133 
Q 3003 3978 3087 3772 
Q 3172 3566 3172 3334 
Q 3172 3153 3120 2987 
Q 3069 2822 2970 2686 
Q 2872 2550 2726 2454 
Q 2581 2359 2391 2322 
L 2391 2309 
Q 2581 2278 2743 2195 
Q 2906 2113 3025 1977 
Q 3144 1841 3212 1653 
Q 3281 1466 3281 1228 
z
M 2588 3303 
Q 2588 3469 2545 3606 
Q 2503 3744 2406 3842 
Q 2309 3941 2153 3995 
Q 1997 4050 1769 4050 
Q 1547 4050 1394 3995 
Q 1241 3941 1142 3842 
Q 1044 3744 1000 3606 
Q 956 3469 956 3303 
Q 956 3172 990 3034 
Q 1025 2897 1115 2784 
Q 1206 2672 1365 2600 
Q 1525 2528 1775 2528 
Q 2041 2528 2202 2600 
Q 2363 2672 2448 2784 
Q 2534 2897 2561 3034 
Q 2588 3172 2588 3303 
z
M 2697 1281 
Q 2697 1441 2653 1589 
Q 2609 1738 2503 1852 
Q 2397 1966 2217 2036 
Q 2038 2106 1769 2106 
Q 1522 2106 1348 2036 
Q 1175 1966 1067 1850 
Q 959 1734 909 1582 
Q 859 1431 859 1269 
Q 859 1066 909 898 
Q 959 731 1068 611 
Q 1178 491 1356 425 
Q 1534 359 1788 359 
Q 2044 359 2219 425 
Q 2394 491 2500 611 
Q 2606 731 2651 901 
Q 2697 1072 2697 1281 
z
" transform="scale(0.015625)"/>
       </defs>
       <use xlink:href="#LiberationSans-30"/>
       <use xlink:href="#LiberationSans-2e" x="55.615234"/>
       <use xlink:href="#LiberationSans-35" x="83.398438"/>
       <use xlink:href="#LiberationSans-38" x="139.013672"/>
      </g>
     </g>
    </g>
    <g id="text_16">
     <!-- ACC -->
     <g style="fill: #262626" transform="translate(60.964062 374.157031) rotate(-90) scale(0.1 -0.1)">
      <defs>
       <path id="LiberationSans-41" d="M 3647 0 
L 3144 1288 
L 1138 1288 
L 631 0 
L 13 0 
L 1809 4403 
L 2488 4403 
L 4256 0 
L 3647 0 
z
M 2400 3206 
Q 2350 3331 2304 3459 
Q 2259 3588 2225 3692 
Q 2191 3797 2167 3867 
Q 2144 3938 2141 3953 
Q 2134 3938 2112 3866 
Q 2091 3794 2055 3687 
Q 2019 3581 1973 3453 
Q 1928 3325 1881 3200 
L 1319 1753 
L 2966 1753 
L 2400 3206 
z
" transform="scale(0.015625)"/>
       <path id="LiberationSans-43" d="M 2475 3981 
Q 2100 3981 1811 3856 
Q 1522 3731 1326 3500 
Q 1131 3269 1031 2944 
Q 931 2619 931 2222 
Q 931 1825 1039 1495 
Q 1147 1166 1348 928 
Q 1550 691 1842 559 
Q 2134 428 2500 428 
Q 2756 428 2967 495 
Q 3178 563 3348 684 
Q 3519 806 3653 973 
Q 3788 1141 3891 1344 
L 4378 1100 
Q 4259 853 4084 640 
Q 3909 428 3673 272 
Q 3438 116 3139 26 
Q 2841 -63 2472 -63 
Q 1938 -63 1536 107 
Q 1134 278 864 583 
Q 594 888 459 1306 
Q 325 1725 325 2222 
Q 325 2738 467 3153 
Q 609 3569 882 3861 
Q 1156 4153 1556 4311 
Q 1956 4469 2469 4469 
Q 3172 4469 3644 4194 
Q 4116 3919 4338 3378 
L 3772 3191 
Q 3709 3347 3603 3489 
Q 3497 3631 3337 3740 
Q 3178 3850 2964 3915 
Q 2750 3981 2475 3981 
z
" transform="scale(0.015625)"/>
      </defs>
      <use xlink:href="#LiberationSans-41"/>
      <use xlink:href="#LiberationSans-43" x="66.699219"/>
      <use xlink:href="#LiberationSans-43" x="138.916016"/>
     </g>
    </g>
   </g>
   <g id="line2d_29">
    <path d="M 115.363636 111.6 
L 120.411126 122.43871 
L 122.934871 122.43871 
L 125.458616 127.858065 
L 130.506106 127.858065 
L 133.029851 133.277419 
L 143.12483 133.277419 
L 145.648575 138.696774 
L 150.696065 138.696774 
L 153.21981 144.116129 
L 165.838535 144.116129 
L 168.36228 149.535484 
L 173.409769 149.535484 
L 175.933514 154.954839 
L 183.504749 154.954839 
L 186.028494 160.374194 
L 196.123474 160.374194 
L 198.647218 165.793548 
L 208.742198 165.793548 
L 211.265943 171.212903 
L 236.503392 171.212903 
L 239.027137 176.632258 
L 246.598372 176.632258 
L 249.122117 182.051613 
L 254.169607 182.051613 
L 256.693351 187.470968 
L 259.217096 182.051613 
L 261.740841 187.470968 
L 292.02578 187.470968 
L 294.549525 192.890323 
L 312.215739 192.890323 
L 314.739484 198.309677 
L 319.786974 198.309677 
L 322.310719 203.729032 
L 337.453189 203.729032 
L 339.976934 209.148387 
L 342.500678 209.148387 
L 345.024423 203.729032 
L 347.548168 209.148387 
L 385.404342 209.148387 
L 387.928087 203.729032 
L 390.451832 209.148387 
L 392.975577 209.148387 
L 395.499322 203.729032 
L 440.92673 203.729032 
L 443.450475 198.309677 
L 493.925373 198.309677 
L 496.449118 192.890323 
L 498.972863 198.309677 
L 501.496608 198.309677 
L 504.020353 192.890323 
L 506.544098 192.890323 
L 509.067843 198.309677 
L 521.686567 198.309677 
L 524.210312 192.890323 
L 549.447761 192.890323 
L 554.495251 182.051613 
L 562.066486 182.051613 
L 564.590231 176.632258 
L 567.113976 182.051613 
L 569.63772 182.051613 
L 572.161465 176.632258 
L 579.7327 176.632258 
L 582.256445 171.212903 
L 602.446404 171.212903 
L 604.970149 165.793548 
L 615.065129 165.793548 
L 617.588874 160.374194 
L 622.636364 160.374194 
L 622.636364 160.374194 
" clip-path="url(#pa8ed4e26de)" style="fill: none; stroke: #1f77b4; stroke-linecap: round"/>
    <defs>
     <path id="m8e76792b73" d="M 0 3 
C 0.795609 3 1.55874 2.683901 2.12132 2.12132 
C 2.683901 1.55874 3 0.795609 3 0 
C 3 -0.795609 2.683901 -1.55874 2.12132 -2.12132 
C 1.55874 -2.683901 0.795609 -3 0 -3 
C -0.795609 -3 -1.55874 -2.683901 -2.12132 -2.12132 
C -2.683901 -1.55874 -3 -0.795609 -3 0 
C -3 0.795609 -2.683901 1.55874 -2.12132 2.12132 
C -1.55874 2.683901 -0.795609 3 0 3 
z
" style="stroke: #1f77b4"/>
    </defs>
    <g clip-path="url(#pa8ed4e26de)">
     <use xlink:href="#m8e76792b73" x="115.363636" y="111.6" style="fill: #1f77b4; stroke: #1f77b4"/>
     <use xlink:href="#m8e76792b73" x="165.838535" y="144.116129" style="fill: #1f77b4; stroke: #1f77b4"/>
     <use xlink:href="#m8e76792b73" x="216.313433" y="171.212903" style="fill: #1f77b4; stroke: #1f77b4"/>
     <use xlink:href="#m8e76792b73" x="266.788331" y="187.470968" style="fill: #1f77b4; stroke: #1f77b4"/>
     <use xlink:href="#m8e76792b73" x="317.263229" y="198.309677" style="fill: #1f77b4; stroke: #1f77b4"/>
     <use xlink:href="#m8e76792b73" x="367.738128" y="209.148387" style="fill: #1f77b4; stroke: #1f77b4"/>
     <use xlink:href="#m8e76792b73" x="418.213026" y="203.729032" style="fill: #1f77b4; stroke: #1f77b4"/>
     <use xlink:href="#m8e76792b73" x="468.687924" y="198.309677" style="fill: #1f77b4; stroke: #1f77b4"/>
     <use xlink:href="#m8e76792b73" x="519.162822" y="198.309677" style="fill: #1f77b4; stroke: #1f77b4"/>
     <use xlink:href="#m8e76792b73" x="569.63772" y="182.051613" style="fill: #1f77b4; stroke: #1f77b4"/>
     <use xlink:href="#m8e76792b73" x="620.112619" y="160.374194" style="fill: #1f77b4; stroke: #1f77b4"/>
    </g>
   </g>
   <g id="line2d_30">
    <path d="M 115.363636 111.6 
L 117.887381 117.019355 
L 120.411126 117.019355 
L 122.934871 122.43871 
L 125.458616 122.43871 
L 127.982361 127.858065 
L 130.506106 127.858065 
L 133.029851 133.277419 
L 135.553596 133.277419 
L 138.077341 138.696774 
L 140.601085 138.696774 
L 143.12483 144.116129 
L 148.17232 144.116129 
L 150.696065 149.535484 
L 153.21981 149.535484 
L 155.743555 154.954839 
L 160.791045 154.954839 
L 163.31479 160.374194 
L 165.838535 160.374194 
L 168.36228 165.793548 
L 170.886024 165.793548 
L 173.409769 171.212903 
L 175.933514 171.212903 
L 178.457259 176.632258 
L 183.504749 176.632258 
L 186.028494 182.051613 
L 188.552239 182.051613 
L 191.075984 187.470968 
L 193.599729 187.470968 
L 196.123474 192.890323 
L 198.647218 192.890323 
L 201.170963 198.309677 
L 203.694708 198.309677 
L 206.218453 203.729032 
L 211.265943 203.729032 
L 213.789688 209.148387 
L 218.837178 209.148387 
L 223.884668 219.987097 
L 226.408412 219.987097 
L 228.932157 225.406452 
L 231.455902 225.406452 
L 233.979647 230.825806 
L 239.027137 230.825806 
L 246.598372 247.083871 
L 249.122117 247.083871 
L 251.645862 252.503226 
L 254.169607 252.503226 
L 256.693351 257.922581 
L 259.217096 257.922581 
L 261.740841 263.341935 
L 266.788331 263.341935 
L 269.312076 268.76129 
L 271.835821 268.76129 
L 274.359566 274.180645 
L 279.407056 274.180645 
L 284.454545 285.019355 
L 286.97829 285.019355 
L 289.502035 290.43871 
L 292.02578 290.43871 
L 297.07327 301.277419 
L 302.12076 301.277419 
L 304.644505 306.696774 
L 307.16825 306.696774 
L 309.691995 312.116129 
L 312.215739 312.116129 
L 314.739484 317.535484 
L 317.263229 317.535484 
L 319.786974 322.954839 
L 322.310719 322.954839 
L 324.834464 328.374194 
L 329.881954 328.374194 
L 332.405699 333.793548 
L 337.453189 333.793548 
L 339.976934 339.212903 
L 342.500678 339.212903 
L 345.024423 344.632258 
L 347.548168 344.632258 
L 350.071913 350.051613 
L 352.595658 350.051613 
L 355.119403 355.470968 
L 357.643148 355.470968 
L 360.166893 360.890323 
L 362.690638 360.890323 
L 367.738128 371.729032 
L 372.785617 371.729032 
L 375.309362 377.148387 
L 377.833107 377.148387 
L 380.356852 382.567742 
L 382.880597 382.567742 
L 385.404342 387.987097 
L 390.451832 387.987097 
L 392.975577 393.406452 
L 395.499322 393.406452 
L 398.023066 398.825806 
L 403.070556 398.825806 
L 405.594301 404.245161 
L 410.641791 404.245161 
L 415.689281 415.083871 
L 420.736771 415.083871 
L 423.260516 420.503226 
L 425.784261 420.503226 
L 428.308005 425.922581 
L 430.83175 425.922581 
L 433.355495 431.341935 
L 438.402985 431.341935 
L 440.92673 436.76129 
L 445.97422 436.76129 
L 448.497965 442.180645 
L 451.02171 442.180645 
L 453.545455 447.6 
L 456.069199 447.6 
L 458.592944 453.019355 
L 461.116689 453.019355 
L 463.640434 458.43871 
L 468.687924 458.43871 
L 471.211669 463.858065 
L 476.259159 463.858065 
L 478.782904 469.277419 
L 481.306649 469.277419 
L 483.830393 474.696774 
L 488.877883 474.696774 
L 491.401628 480.116129 
L 493.925373 480.116129 
L 496.449118 485.535484 
L 501.496608 485.535484 
L 504.020353 490.954839 
L 509.067843 490.954839 
L 511.591588 496.374194 
L 514.115332 496.374194 
L 516.639077 501.793548 
L 521.686567 501.793548 
L 524.210312 507.212903 
L 526.734057 507.212903 
L 529.257802 512.632258 
L 534.305292 512.632258 
L 536.829037 518.051613 
L 541.876526 518.051613 
L 544.400271 523.470968 
L 549.447761 523.470968 
L 551.971506 528.890323 
L 557.018996 528.890323 
L 559.542741 534.309677 
L 562.066486 534.309677 
L 564.590231 539.729032 
L 567.113976 539.729032 
L 569.63772 545.148387 
L 572.161465 545.148387 
L 574.68521 550.567742 
L 579.7327 550.567742 
L 582.256445 555.987097 
L 584.78019 555.987097 
L 587.303935 561.406452 
L 589.82768 561.406452 
L 592.351425 566.825806 
L 597.398915 566.825806 
L 599.922659 572.245161 
L 602.446404 572.245161 
L 604.970149 577.664516 
L 610.017639 577.664516 
L 612.541384 583.083871 
L 615.065129 583.083871 
L 617.588874 588.503226 
L 622.636364 588.503226 
L 622.636364 588.503226 
" clip-path="url(#pa8ed4e26de)" style="fill: none; stroke: #ff7f0e; stroke-linecap: round"/>
    <defs>
     <path id="m5be525efe7" d="M 0 -3 
L -3 3 
L 3 3 
z
" style="stroke: #ff7f0e; stroke-linejoin: miter"/>
    </defs>
    <g clip-path="url(#pa8ed4e26de)">
     <use xlink:href="#m5be525efe7" x="115.363636" y="111.6" style="fill: #ff7f0e; stroke: #ff7f0e; stroke-linejoin: miter"/>
     <use xlink:href="#m5be525efe7" x="165.838535" y="160.374194" style="fill: #ff7f0e; stroke: #ff7f0e; stroke-linejoin: miter"/>
     <use xlink:href="#m5be525efe7" x="216.313433" y="209.148387" style="fill: #ff7f0e; stroke: #ff7f0e; stroke-linejoin: miter"/>
     <use xlink:href="#m5be525efe7" x="266.788331" y="263.341935" style="fill: #ff7f0e; stroke: #ff7f0e; stroke-linejoin: miter"/>
     <use xlink:href="#m5be525efe7" x="317.263229" y="317.535484" style="fill: #ff7f0e; stroke: #ff7f0e; stroke-linejoin: miter"/>
     <use xlink:href="#m5be525efe7" x="367.738128" y="371.729032" style="fill: #ff7f0e; stroke: #ff7f0e; stroke-linejoin: miter"/>
     <use xlink:href="#m5be525efe7" x="418.213026" y="415.083871" style="fill: #ff7f0e; stroke: #ff7f0e; stroke-linejoin: miter"/>
     <use xlink:href="#m5be525efe7" x="468.687924" y="458.43871" style="fill: #ff7f0e; stroke: #ff7f0e; stroke-linejoin: miter"/>
     <use xlink:href="#m5be525efe7" x="519.162822" y="501.793548" style="fill: #ff7f0e; stroke: #ff7f0e; stroke-linejoin: miter"/>
     <use xlink:href="#m5be525efe7" x="569.63772" y="545.148387" style="fill: #ff7f0e; stroke: #ff7f0e; stroke-linejoin: miter"/>
     <use xlink:href="#m5be525efe7" x="620.112619" y="588.503226" style="fill: #ff7f0e; stroke: #ff7f0e; stroke-linejoin: miter"/>
    </g>
   </g>
   <g id="line2d_31">
    <path d="M 115.363636 111.6 
L 117.887381 111.6 
L 120.411126 117.019355 
L 122.934871 117.019355 
L 125.458616 127.858065 
L 127.982361 127.858065 
L 130.506106 133.277419 
L 133.029851 133.277419 
L 135.553596 138.696774 
L 138.077341 138.696774 
L 140.601085 144.116129 
L 143.12483 144.116129 
L 145.648575 149.535484 
L 148.17232 149.535484 
L 150.696065 154.954839 
L 155.743555 154.954839 
L 158.2673 160.374194 
L 160.791045 160.374194 
L 165.838535 171.212903 
L 168.36228 171.212903 
L 170.886024 176.632258 
L 173.409769 176.632258 
L 175.933514 182.051613 
L 178.457259 182.051613 
L 180.981004 187.470968 
L 183.504749 187.470968 
L 186.028494 192.890323 
L 188.552239 192.890323 
L 191.075984 198.309677 
L 201.170963 198.309677 
L 203.694708 203.729032 
L 206.218453 203.729032 
L 208.742198 209.148387 
L 211.265943 209.148387 
L 213.789688 214.567742 
L 216.313433 225.406452 
L 218.837178 225.406452 
L 221.360923 230.825806 
L 223.884668 230.825806 
L 226.408412 236.245161 
L 228.932157 236.245161 
L 231.455902 241.664516 
L 233.979647 241.664516 
L 236.503392 247.083871 
L 241.550882 247.083871 
L 246.598372 257.922581 
L 249.122117 257.922581 
L 251.645862 263.341935 
L 254.169607 263.341935 
L 256.693351 268.76129 
L 259.217096 268.76129 
L 261.740841 274.180645 
L 264.264586 274.180645 
L 266.788331 279.6 
L 271.835821 279.6 
L 274.359566 285.019355 
L 276.883311 285.019355 
L 279.407056 290.43871 
L 281.930801 290.43871 
L 284.454545 295.858065 
L 286.97829 295.858065 
L 289.502035 301.277419 
L 292.02578 301.277419 
L 294.549525 306.696774 
L 297.07327 306.696774 
L 299.597015 312.116129 
L 307.16825 312.116129 
L 309.691995 317.535484 
L 312.215739 317.535484 
L 314.739484 322.954839 
L 319.786974 322.954839 
L 322.310719 328.374194 
L 324.834464 328.374194 
L 327.358209 333.793548 
L 332.405699 333.793548 
L 334.929444 339.212903 
L 337.453189 339.212903 
L 345.024423 355.470968 
L 350.071913 355.470968 
L 352.595658 360.890323 
L 357.643148 360.890323 
L 360.166893 366.309677 
L 362.690638 366.309677 
L 365.214383 371.729032 
L 370.261872 371.729032 
L 372.785617 377.148387 
L 375.309362 377.148387 
L 377.833107 382.567742 
L 380.356852 382.567742 
L 382.880597 387.987097 
L 387.928087 387.987097 
L 390.451832 393.406452 
L 392.975577 393.406452 
L 395.499322 398.825806 
L 400.546811 398.825806 
L 408.118046 415.083871 
L 413.165536 415.083871 
L 418.213026 425.922581 
L 420.736771 425.922581 
L 423.260516 431.341935 
L 428.308005 431.341935 
L 430.83175 436.76129 
L 433.355495 436.76129 
L 435.87924 442.180645 
L 438.402985 442.180645 
L 440.92673 447.6 
L 448.497965 447.6 
L 451.02171 453.019355 
L 453.545455 453.019355 
L 456.069199 458.43871 
L 461.116689 458.43871 
L 463.640434 463.858065 
L 466.164179 463.858065 
L 468.687924 469.277419 
L 471.211669 469.277419 
L 473.735414 474.696774 
L 478.782904 474.696774 
L 481.306649 480.116129 
L 483.830393 480.116129 
L 486.354138 485.535484 
L 491.401628 485.535484 
L 496.449118 496.374194 
L 498.972863 496.374194 
L 501.496608 501.793548 
L 504.020353 501.793548 
L 506.544098 507.212903 
L 511.591588 507.212903 
L 514.115332 512.632258 
L 516.639077 512.632258 
L 519.162822 518.051613 
L 521.686567 518.051613 
L 524.210312 523.470968 
L 526.734057 523.470968 
L 529.257802 528.890323 
L 531.781547 528.890323 
L 534.305292 534.309677 
L 539.352782 534.309677 
L 544.400271 545.148387 
L 549.447761 545.148387 
L 551.971506 550.567742 
L 557.018996 550.567742 
L 559.542741 555.987097 
L 562.066486 555.987097 
L 564.590231 561.406452 
L 567.113976 561.406452 
L 569.63772 566.825806 
L 572.161465 566.825806 
L 574.68521 572.245161 
L 577.208955 572.245161 
L 579.7327 577.664516 
L 582.256445 577.664516 
L 587.303935 588.503226 
L 592.351425 588.503226 
L 594.87517 593.922581 
L 597.398915 593.922581 
L 599.922659 599.341935 
L 602.446404 599.341935 
L 604.970149 604.76129 
L 612.541384 604.76129 
L 615.065129 610.180645 
L 617.588874 610.180645 
L 620.112619 615.6 
L 622.636364 615.6 
L 622.636364 615.6 
" clip-path="url(#pa8ed4e26de)" style="fill: none; stroke: #2ca02c; stroke-linecap: round"/>
    <defs>
     <path id="m34661f23f5" d="M -3 3 
L 3 -3 
M -3 -3 
L 3 3 
" style="stroke: #2ca02c"/>
    </defs>
    <g clip-path="url(#pa8ed4e26de)">
     <use xlink:href="#m34661f23f5" x="115.363636" y="111.6" style="fill: #2ca02c; stroke: #2ca02c"/>
     <use xlink:href="#m34661f23f5" x="165.838535" y="171.212903" style="fill: #2ca02c; stroke: #2ca02c"/>
     <use xlink:href="#m34661f23f5" x="216.313433" y="225.406452" style="fill: #2ca02c; stroke: #2ca02c"/>
     <use xlink:href="#m34661f23f5" x="266.788331" y="279.6" style="fill: #2ca02c; stroke: #2ca02c"/>
     <use xlink:href="#m34661f23f5" x="317.263229" y="322.954839" style="fill: #2ca02c; stroke: #2ca02c"/>
     <use xlink:href="#m34661f23f5" x="367.738128" y="371.729032" style="fill: #2ca02c; stroke: #2ca02c"/>
     <use xlink:href="#m34661f23f5" x="418.213026" y="425.922581" style="fill: #2ca02c; stroke: #2ca02c"/>
     <use xlink:href="#m34661f23f5" x="468.687924" y="469.277419" style="fill: #2ca02c; stroke: #2ca02c"/>
     <use xlink:href="#m34661f23f5" x="519.162822" y="518.051613" style="fill: #2ca02c; stroke: #2ca02c"/>
     <use xlink:href="#m34661f23f5" x="569.63772" y="566.825806" style="fill: #2ca02c; stroke: #2ca02c"/>
     <use xlink:href="#m34661f23f5" x="620.112619" y="615.6" style="fill: #2ca02c; stroke: #2ca02c"/>
    </g>
   </g>
   <g id="patch_3">
    <path d="M 90 640.8 
L 90 86.4 
" style="fill: none; stroke: #cccccc; stroke-linejoin: miter; stroke-linecap: square"/>
   </g>
   <g id="patch_4">
    <path d="M 648 640.8 
L 648 86.4 
" style="fill: none; stroke: #cccccc; stroke-linejoin: miter; stroke-linecap: square"/>
   </g>
   <g id="patch_5">
    <path d="M 90 640.8 
L 648 640.8 
" style="fill: none; stroke: #cccccc; stroke-linejoin: miter; stroke-linecap: square"/>
   </g>
   <g id="patch_6">
    <path d="M 90 86.4 
L 648 86.4 
" style="fill: none; stroke: #cccccc; stroke-linejoin: miter; stroke-linecap: square"/>
   </g>
   <g id="text_17">
    <!-- ACC v/s rounds -->
    <g style="fill: #262626" transform="translate(326.986875 80.4) scale(0.12 -0.12)">
     <defs>
      <path id="LiberationSans-20" transform="scale(0.015625)"/>
      <path id="LiberationSans-76" d="M 1916 0 
L 1250 0 
L 22 3381 
L 622 3381 
L 1366 1181 
Q 1388 1113 1417 1014 
Q 1447 916 1478 809 
Q 1509 703 1536 604 
Q 1563 506 1581 441 
Q 1600 506 1629 604 
Q 1659 703 1690 806 
Q 1722 909 1755 1007 
Q 1788 1106 1813 1175 
L 2581 3381 
L 3178 3381 
L 1916 0 
z
" transform="scale(0.015625)"/>
      <path id="LiberationSans-2f" d="M 0 -63 
L 1284 4638 
L 1778 4638 
L 506 -63 
L 0 -63 
z
" transform="scale(0.015625)"/>
     </defs>
     <use xlink:href="#LiberationSans-41"/>
     <use xlink:href="#LiberationSans-43" x="66.699219"/>
     <use xlink:href="#LiberationSans-43" x="138.916016"/>
     <use xlink:href="#LiberationSans-20" x="211.132812"/>
     <use xlink:href="#LiberationSans-76" x="238.916016"/>
     <use xlink:href="#LiberationSans-2f" x="288.916016"/>
     <use xlink:href="#LiberationSans-73" x="316.699219"/>
     <use xlink:href="#LiberationSans-20" x="366.699219"/>
     <use xlink:href="#LiberationSans-72" x="394.482422"/>
     <use xlink:href="#LiberationSans-6f" x="427.783203"/>
     <use xlink:href="#LiberationSans-75" x="483.398438"/>
     <use xlink:href="#LiberationSans-6e" x="539.013672"/>
     <use xlink:href="#LiberationSans-64" x="594.628906"/>
     <use xlink:href="#LiberationSans-73" x="650.244141"/>
    </g>
   </g>
   <g id="legend_1">
    <g id="line2d_32">
     <path d="M 593.217188 99.146875 
L 603.217188 99.146875 
L 613.217188 99.146875 
" style="fill: none; stroke: #1f77b4; stroke-linecap: round"/>
     <g>
      <use xlink:href="#m8e76792b73" x="603.217188" y="99.146875" style="fill: #1f77b4; stroke: #1f77b4"/>
     </g>
    </g>
    <g id="text_18">
     <!-- gsw -->
     <g style="fill: #262626" transform="translate(621.217188 102.646875) scale(0.1 -0.1)">
      <defs>
       <path id="LiberationSans-67" d="M 1713 -1328 
Q 1422 -1328 1197 -1268 
Q 972 -1209 812 -1098 
Q 653 -988 553 -834 
Q 453 -681 409 -494 
L 975 -413 
Q 1031 -647 1223 -773 
Q 1416 -900 1728 -900 
Q 1919 -900 2075 -847 
Q 2231 -794 2340 -676 
Q 2450 -559 2509 -371 
Q 2569 -184 2569 84 
L 2569 628 
L 2563 628 
Q 2500 500 2408 383 
Q 2316 266 2183 175 
Q 2050 84 1875 29 
Q 1700 -25 1475 -25 
Q 1153 -25 923 83 
Q 694 191 548 406 
Q 403 622 336 942 
Q 269 1263 269 1684 
Q 269 2091 336 2416 
Q 403 2741 554 2967 
Q 706 3194 948 3314 
Q 1191 3434 1538 3434 
Q 1897 3434 2161 3270 
Q 2425 3106 2569 2803 
L 2575 2803 
Q 2575 2881 2579 2978 
Q 2584 3075 2589 3161 
Q 2594 3247 2600 3309 
Q 2606 3372 2613 3381 
L 3147 3381 
Q 3144 3353 3141 3286 
Q 3138 3219 3134 3125 
Q 3131 3031 3129 2917 
Q 3128 2803 3128 2681 
L 3128 97 
Q 3128 -613 2779 -970 
Q 2431 -1328 1713 -1328 
z
M 2569 1691 
Q 2569 2044 2492 2295 
Q 2416 2547 2291 2706 
Q 2166 2866 2005 2941 
Q 1844 3016 1675 3016 
Q 1459 3016 1304 2941 
Q 1150 2866 1048 2705 
Q 947 2544 898 2292 
Q 850 2041 850 1691 
Q 850 1325 898 1076 
Q 947 828 1047 675 
Q 1147 522 1300 456 
Q 1453 391 1666 391 
Q 1834 391 1995 462 
Q 2156 534 2284 690 
Q 2413 847 2491 1094 
Q 2569 1341 2569 1691 
z
" transform="scale(0.015625)"/>
       <path id="LiberationSans-77" d="M 3669 0 
L 3016 0 
L 2475 2181 
Q 2450 2266 2423 2391 
Q 2397 2516 2372 2634 
Q 2341 2772 2313 2919 
Q 2284 2778 2253 2641 
Q 2228 2522 2198 2394 
Q 2169 2266 2144 2169 
L 1588 0 
L 938 0 
L -9 3381 
L 547 3381 
L 1119 1084 
Q 1141 1013 1162 908 
Q 1184 803 1206 703 
Q 1228 588 1253 466 
Q 1278 584 1306 697 
Q 1331 794 1356 894 
Q 1381 994 1400 1059 
L 2013 3381 
L 2616 3381 
L 3206 1059 
Q 3228 978 3253 875 
Q 3278 772 3300 681 
Q 3325 575 3350 466 
Q 3375 584 3400 697 
Q 3422 794 3445 898 
Q 3469 1003 3491 1084 
L 4088 3381 
L 4638 3381 
L 3669 0 
z
" transform="scale(0.015625)"/>
      </defs>
      <use xlink:href="#LiberationSans-67"/>
      <use xlink:href="#LiberationSans-73" x="55.615234"/>
      <use xlink:href="#LiberationSans-77" x="105.615234"/>
     </g>
    </g>
    <g id="line2d_33">
     <path d="M 593.217188 113.46875 
L 603.217188 113.46875 
L 613.217188 113.46875 
" style="fill: none; stroke: #ff7f0e; stroke-linecap: round"/>
     <g>
      <use xlink:href="#m5be525efe7" x="603.217188" y="113.46875" style="fill: #ff7f0e; stroke: #ff7f0e; stroke-linejoin: miter"/>
     </g>
    </g>
    <g id="text_19">
     <!-- nsw -->
     <g style="fill: #262626" transform="translate(621.217188 116.96875) scale(0.1 -0.1)">
      <use xlink:href="#LiberationSans-6e"/>
      <use xlink:href="#LiberationSans-73" x="55.615234"/>
      <use xlink:href="#LiberationSans-77" x="105.615234"/>
     </g>
    </g>
    <g id="line2d_34">
     <path d="M 593.217188 127.790625 
L 603.217188 127.790625 
L 613.217188 127.790625 
" style="fill: none; stroke: #2ca02c; stroke-linecap: round"/>
     <g>
      <use xlink:href="#m34661f23f5" x="603.217188" y="127.790625" style="fill: #2ca02c; stroke: #2ca02c"/>
     </g>
    </g>
    <g id="text_20">
     <!-- ppo -->
     <g style="fill: #262626" transform="translate(621.217188 131.290625) scale(0.1 -0.1)">
      <defs>
       <path id="LiberationSans-70" d="M 3291 1706 
Q 3291 1322 3228 997 
Q 3166 672 3020 437 
Q 2875 203 2636 70 
Q 2397 -63 2047 -63 
Q 1684 -63 1412 75 
Q 1141 213 997 525 
L 981 525 
Q 984 519 986 469 
Q 988 419 989 344 
Q 991 269 992 176 
Q 994 84 994 -6 
L 994 -1328 
L 431 -1328 
L 431 2691 
Q 431 2813 429 2925 
Q 428 3038 425 3130 
Q 422 3222 419 3287 
Q 416 3353 413 3381 
L 956 3381 
Q 959 3372 964 3315 
Q 969 3259 973 3179 
Q 978 3100 983 3009 
Q 988 2919 988 2838 
L 1000 2838 
Q 1078 3000 1178 3114 
Q 1278 3228 1406 3301 
Q 1534 3375 1692 3408 
Q 1850 3441 2047 3441 
Q 2397 3441 2636 3316 
Q 2875 3191 3020 2964 
Q 3166 2738 3228 2417 
Q 3291 2097 3291 1706 
z
M 2700 1694 
Q 2700 2006 2662 2250 
Q 2625 2494 2533 2662 
Q 2441 2831 2287 2918 
Q 2134 3006 1903 3006 
Q 1716 3006 1550 2953 
Q 1384 2900 1261 2750 
Q 1138 2600 1066 2336 
Q 994 2072 994 1650 
Q 994 1291 1053 1042 
Q 1113 794 1227 641 
Q 1341 488 1509 420 
Q 1678 353 1897 353 
Q 2131 353 2286 443 
Q 2441 534 2533 706 
Q 2625 878 2662 1126 
Q 2700 1375 2700 1694 
z
" transform="scale(0.015625)"/>
      </defs>
      <use xlink:href="#LiberationSans-70"/>
      <use xlink:href="#LiberationSans-70" x="55.615234"/>
      <use xlink:href="#LiberationSans-6f" x="111.230469"/>
     </g>
    </g>
   </g>
  </g>
 </g>
 <defs>
  <clipPath id="pa8ed4e26de">
   <rect x="90" y="86.4" width="558" height="554.4"/>
  </clipPath>
 </defs>
</svg>
