<?xml version="1.0" encoding="utf-8" standalone="no"?>
<!DOCTYPE svg PUBLIC "-//W3C//DTD SVG 1.1//EN"
  "http://www.w3.org/Graphics/SVG/1.1/DTD/svg11.dtd">
<svg xmlns:xlink="http://www.w3.org/1999/xlink" width="720pt" height="720pt" viewBox="0 0 720 720" xmlns="http://www.w3.org/2000/svg" version="1.1">
 <metadata>
  <rdf:RDF xmlns:dc="http://purl.org/dc/elements/1.1/" xmlns:cc="http://creativecommons.org/ns#" xmlns:rdf="http://www.w3.org/1999/02/22-rdf-syntax-ns#">
   <cc:Work>
    <dc:type rdf:resource="http://purl.org/dc/dcmitype/StillImage"/>
    <dc:date>2024-03-28T15:36:08.570797</dc:date>
    <dc:format>image/svg+xml</dc:format>
    <dc:creator>
     <cc:Agent>
      <dc:title>Matplotlib v3.7.1, https://matplotlib.org/</dc:title>
     </cc:Agent>
    </dc:creator>
   </cc:Work>
  </rdf:RDF>
 </metadata>
 <defs>
  <style type="text/css">*{stroke-linejoin: round; stroke-linecap: butt}</style>
 </defs>
 <g id="figure_1">
  <g id="patch_1">
   <path d="M 0 720 
L 720 720 
L 720 0 
L 0 0 
z
" style="fill: #ffffff"/>
  </g>
  <g id="axes_1">
   <g id="patch_2">
    <path d="M 90 640.8 
L 648 640.8 
L 648 86.4 
L 90 86.4 
z
" style="fill: #ffffff"/>
   </g>
   <g id="matplotlib.axis_1">
    <g id="xtick_1">
     <g id="line2d_1">
      <path d="M 115.363636 640.8 
L 115.363636 86.4 
" clip-path="url(#paa6d9eb62b)" style="fill: none; stroke: #cccccc; stroke-width: 0.8; stroke-linecap: round"/>
     </g>
     <g id="line2d_2"/>
     <g id="text_1">
      <!-- 0 -->
      <g style="fill: #262626" transform="translate(112.583168 651.457813) scale(0.1 -0.1)">
       <defs>
        <path id="ArialMT-30" d="M 266 2259 
Q 266 3072 433 3567 
Q 600 4063 929 4331 
Q 1259 4600 1759 4600 
Q 2128 4600 2406 4451 
Q 2684 4303 2865 4023 
Q 3047 3744 3150 3342 
Q 3253 2941 3253 2259 
Q 3253 1453 3087 958 
Q 2922 463 2592 192 
Q 2263 -78 1759 -78 
Q 1097 -78 719 397 
Q 266 969 266 2259 
z
M 844 2259 
Q 844 1131 1108 757 
Q 1372 384 1759 384 
Q 2147 384 2411 759 
Q 2675 1134 2675 2259 
Q 2675 3391 2411 3762 
Q 2147 4134 1753 4134 
Q 1366 4134 1134 3806 
Q 844 3388 844 2259 
z
" transform="scale(0.015625)"/>
       </defs>
       <use xlink:href="#ArialMT-30"/>
      </g>
     </g>
    </g>
    <g id="xtick_2">
     <g id="line2d_3">
      <path d="M 178.457259 640.8 
L 178.457259 86.4 
" clip-path="url(#paa6d9eb62b)" style="fill: none; stroke: #cccccc; stroke-width: 0.8; stroke-linecap: round"/>
     </g>
     <g id="line2d_4"/>
     <g id="text_2">
      <!-- 25 -->
      <g style="fill: #262626" transform="translate(172.896322 651.457813) scale(0.1 -0.1)">
       <defs>
        <path id="ArialMT-32" d="M 3222 541 
L 3222 0 
L 194 0 
Q 188 203 259 391 
Q 375 700 629 1000 
Q 884 1300 1366 1694 
Q 2113 2306 2375 2664 
Q 2638 3022 2638 3341 
Q 2638 3675 2398 3904 
Q 2159 4134 1775 4134 
Q 1369 4134 1125 3890 
Q 881 3647 878 3216 
L 300 3275 
Q 359 3922 746 4261 
Q 1134 4600 1788 4600 
Q 2447 4600 2831 4234 
Q 3216 3869 3216 3328 
Q 3216 3053 3103 2787 
Q 2991 2522 2730 2228 
Q 2469 1934 1863 1422 
Q 1356 997 1212 845 
Q 1069 694 975 541 
L 3222 541 
z
" transform="scale(0.015625)"/>
        <path id="ArialMT-35" d="M 266 1200 
L 856 1250 
Q 922 819 1161 601 
Q 1400 384 1738 384 
Q 2144 384 2425 690 
Q 2706 997 2706 1503 
Q 2706 1984 2436 2262 
Q 2166 2541 1728 2541 
Q 1456 2541 1237 2417 
Q 1019 2294 894 2097 
L 366 2166 
L 809 4519 
L 3088 4519 
L 3088 3981 
L 1259 3981 
L 1013 2750 
Q 1425 3038 1878 3038 
Q 2478 3038 2890 2622 
Q 3303 2206 3303 1553 
Q 3303 931 2941 478 
Q 2500 -78 1738 -78 
Q 1113 -78 717 272 
Q 322 622 266 1200 
z
" transform="scale(0.015625)"/>
       </defs>
       <use xlink:href="#ArialMT-32"/>
       <use xlink:href="#ArialMT-35" x="55.615234"/>
      </g>
     </g>
    </g>
    <g id="xtick_3">
     <g id="line2d_5">
      <path d="M 241.550882 640.8 
L 241.550882 86.4 
" clip-path="url(#paa6d9eb62b)" style="fill: none; stroke: #cccccc; stroke-width: 0.8; stroke-linecap: round"/>
     </g>
     <g id="line2d_6"/>
     <g id="text_3">
      <!-- 50 -->
      <g style="fill: #262626" transform="translate(235.989944 651.457813) scale(0.1 -0.1)">
       <use xlink:href="#ArialMT-35"/>
       <use xlink:href="#ArialMT-30" x="55.615234"/>
      </g>
     </g>
    </g>
    <g id="xtick_4">
     <g id="line2d_7">
      <path d="M 304.644505 640.8 
L 304.644505 86.4 
" clip-path="url(#paa6d9eb62b)" style="fill: none; stroke: #cccccc; stroke-width: 0.8; stroke-linecap: round"/>
     </g>
     <g id="line2d_8"/>
     <g id="text_4">
      <!-- 75 -->
      <g style="fill: #262626" transform="translate(299.083567 651.457813) scale(0.1 -0.1)">
       <defs>
        <path id="ArialMT-37" d="M 303 3981 
L 303 4522 
L 3269 4522 
L 3269 4084 
Q 2831 3619 2401 2847 
Q 1972 2075 1738 1259 
Q 1569 684 1522 0 
L 944 0 
Q 953 541 1156 1306 
Q 1359 2072 1739 2783 
Q 2119 3494 2547 3981 
L 303 3981 
z
" transform="scale(0.015625)"/>
       </defs>
       <use xlink:href="#ArialMT-37"/>
       <use xlink:href="#ArialMT-35" x="55.615234"/>
      </g>
     </g>
    </g>
    <g id="xtick_5">
     <g id="line2d_9">
      <path d="M 367.738128 640.8 
L 367.738128 86.4 
" clip-path="url(#paa6d9eb62b)" style="fill: none; stroke: #cccccc; stroke-width: 0.8; stroke-linecap: round"/>
     </g>
     <g id="line2d_10"/>
     <g id="text_5">
      <!-- 100 -->
      <g style="fill: #262626" transform="translate(359.396721 651.457813) scale(0.1 -0.1)">
       <defs>
        <path id="ArialMT-31" d="M 2384 0 
L 1822 0 
L 1822 3584 
Q 1619 3391 1289 3197 
Q 959 3003 697 2906 
L 697 3450 
Q 1169 3672 1522 3987 
Q 1875 4303 2022 4600 
L 2384 4600 
L 2384 0 
z
" transform="scale(0.015625)"/>
       </defs>
       <use xlink:href="#ArialMT-31"/>
       <use xlink:href="#ArialMT-30" x="55.615234"/>
       <use xlink:href="#ArialMT-30" x="111.230469"/>
      </g>
     </g>
    </g>
    <g id="xtick_6">
     <g id="line2d_11">
      <path d="M 430.83175 640.8 
L 430.83175 86.4 
" clip-path="url(#paa6d9eb62b)" style="fill: none; stroke: #cccccc; stroke-width: 0.8; stroke-linecap: round"/>
     </g>
     <g id="line2d_12"/>
     <g id="text_6">
      <!-- 125 -->
      <g style="fill: #262626" transform="translate(422.490344 651.457813) scale(0.1 -0.1)">
       <use xlink:href="#ArialMT-31"/>
       <use xlink:href="#ArialMT-32" x="55.615234"/>
       <use xlink:href="#ArialMT-35" x="111.230469"/>
      </g>
     </g>
    </g>
    <g id="xtick_7">
     <g id="line2d_13">
      <path d="M 493.925373 640.8 
L 493.925373 86.4 
" clip-path="url(#paa6d9eb62b)" style="fill: none; stroke: #cccccc; stroke-width: 0.8; stroke-linecap: round"/>
     </g>
     <g id="line2d_14"/>
     <g id="text_7">
      <!-- 150 -->
      <g style="fill: #262626" transform="translate(485.583967 651.457813) scale(0.1 -0.1)">
       <use xlink:href="#ArialMT-31"/>
       <use xlink:href="#ArialMT-35" x="55.615234"/>
       <use xlink:href="#ArialMT-30" x="111.230469"/>
      </g>
     </g>
    </g>
    <g id="xtick_8">
     <g id="line2d_15">
      <path d="M 557.018996 640.8 
L 557.018996 86.4 
" clip-path="url(#paa6d9eb62b)" style="fill: none; stroke: #cccccc; stroke-width: 0.8; stroke-linecap: round"/>
     </g>
     <g id="line2d_16"/>
     <g id="text_8">
      <!-- 175 -->
      <g style="fill: #262626" transform="translate(548.67759 651.457813) scale(0.1 -0.1)">
       <use xlink:href="#ArialMT-31"/>
       <use xlink:href="#ArialMT-37" x="55.615234"/>
       <use xlink:href="#ArialMT-35" x="111.230469"/>
      </g>
     </g>
    </g>
    <g id="xtick_9">
     <g id="line2d_17">
      <path d="M 620.112619 640.8 
L 620.112619 86.4 
" clip-path="url(#paa6d9eb62b)" style="fill: none; stroke: #cccccc; stroke-width: 0.8; stroke-linecap: round"/>
     </g>
     <g id="line2d_18"/>
     <g id="text_9">
      <!-- 200 -->
      <g style="fill: #262626" transform="translate(611.771212 651.457813) scale(0.1 -0.1)">
       <use xlink:href="#ArialMT-32"/>
       <use xlink:href="#ArialMT-30" x="55.615234"/>
       <use xlink:href="#ArialMT-30" x="111.230469"/>
      </g>
     </g>
    </g>
    <g id="text_10">
     <!-- Epochs -->
     <g style="fill: #262626" transform="translate(352.323438 664.603125) scale(0.1 -0.1)">
      <defs>
       <path id="ArialMT-45" d="M 506 0 
L 506 4581 
L 3819 4581 
L 3819 4041 
L 1113 4041 
L 1113 2638 
L 3647 2638 
L 3647 2100 
L 1113 2100 
L 1113 541 
L 3925 541 
L 3925 0 
L 506 0 
z
" transform="scale(0.015625)"/>
       <path id="ArialMT-70" d="M 422 -1272 
L 422 3319 
L 934 3319 
L 934 2888 
Q 1116 3141 1344 3267 
Q 1572 3394 1897 3394 
Q 2322 3394 2647 3175 
Q 2972 2956 3137 2557 
Q 3303 2159 3303 1684 
Q 3303 1175 3120 767 
Q 2938 359 2589 142 
Q 2241 -75 1856 -75 
Q 1575 -75 1351 44 
Q 1128 163 984 344 
L 984 -1272 
L 422 -1272 
z
M 931 1641 
Q 931 1000 1190 694 
Q 1450 388 1819 388 
Q 2194 388 2461 705 
Q 2728 1022 2728 1688 
Q 2728 2322 2467 2637 
Q 2206 2953 1844 2953 
Q 1484 2953 1207 2617 
Q 931 2281 931 1641 
z
" transform="scale(0.015625)"/>
       <path id="ArialMT-6f" d="M 213 1659 
Q 213 2581 725 3025 
Q 1153 3394 1769 3394 
Q 2453 3394 2887 2945 
Q 3322 2497 3322 1706 
Q 3322 1066 3130 698 
Q 2938 331 2570 128 
Q 2203 -75 1769 -75 
Q 1072 -75 642 372 
Q 213 819 213 1659 
z
M 791 1659 
Q 791 1022 1069 705 
Q 1347 388 1769 388 
Q 2188 388 2466 706 
Q 2744 1025 2744 1678 
Q 2744 2294 2464 2611 
Q 2184 2928 1769 2928 
Q 1347 2928 1069 2612 
Q 791 2297 791 1659 
z
" transform="scale(0.015625)"/>
       <path id="ArialMT-63" d="M 2588 1216 
L 3141 1144 
Q 3050 572 2676 248 
Q 2303 -75 1759 -75 
Q 1078 -75 664 370 
Q 250 816 250 1647 
Q 250 2184 428 2587 
Q 606 2991 970 3192 
Q 1334 3394 1763 3394 
Q 2303 3394 2647 3120 
Q 2991 2847 3088 2344 
L 2541 2259 
Q 2463 2594 2264 2762 
Q 2066 2931 1784 2931 
Q 1359 2931 1093 2626 
Q 828 2322 828 1663 
Q 828 994 1084 691 
Q 1341 388 1753 388 
Q 2084 388 2306 591 
Q 2528 794 2588 1216 
z
" transform="scale(0.015625)"/>
       <path id="ArialMT-68" d="M 422 0 
L 422 4581 
L 984 4581 
L 984 2938 
Q 1378 3394 1978 3394 
Q 2347 3394 2619 3248 
Q 2891 3103 3008 2847 
Q 3125 2591 3125 2103 
L 3125 0 
L 2563 0 
L 2563 2103 
Q 2563 2525 2380 2717 
Q 2197 2909 1863 2909 
Q 1613 2909 1392 2779 
Q 1172 2650 1078 2428 
Q 984 2206 984 1816 
L 984 0 
L 422 0 
z
" transform="scale(0.015625)"/>
       <path id="ArialMT-73" d="M 197 991 
L 753 1078 
Q 800 744 1014 566 
Q 1228 388 1613 388 
Q 2000 388 2187 545 
Q 2375 703 2375 916 
Q 2375 1106 2209 1216 
Q 2094 1291 1634 1406 
Q 1016 1563 777 1677 
Q 538 1791 414 1992 
Q 291 2194 291 2438 
Q 291 2659 392 2848 
Q 494 3038 669 3163 
Q 800 3259 1026 3326 
Q 1253 3394 1513 3394 
Q 1903 3394 2198 3281 
Q 2494 3169 2634 2976 
Q 2775 2784 2828 2463 
L 2278 2388 
Q 2241 2644 2061 2787 
Q 1881 2931 1553 2931 
Q 1166 2931 1000 2803 
Q 834 2675 834 2503 
Q 834 2394 903 2306 
Q 972 2216 1119 2156 
Q 1203 2125 1616 2013 
Q 2213 1853 2448 1751 
Q 2684 1650 2818 1456 
Q 2953 1263 2953 975 
Q 2953 694 2789 445 
Q 2625 197 2315 61 
Q 2006 -75 1616 -75 
Q 969 -75 630 194 
Q 291 463 197 991 
z
" transform="scale(0.015625)"/>
      </defs>
      <use xlink:href="#ArialMT-45"/>
      <use xlink:href="#ArialMT-70" x="66.699219"/>
      <use xlink:href="#ArialMT-6f" x="122.314453"/>
      <use xlink:href="#ArialMT-63" x="177.929688"/>
      <use xlink:href="#ArialMT-68" x="227.929688"/>
      <use xlink:href="#ArialMT-73" x="283.544922"/>
     </g>
    </g>
   </g>
   <g id="matplotlib.axis_2">
    <g id="ytick_1">
     <g id="line2d_19">
      <path d="M 90 596.96965 
L 648 596.96965 
" clip-path="url(#paa6d9eb62b)" style="fill: none; stroke: #cccccc; stroke-width: 0.8; stroke-linecap: round"/>
     </g>
     <g id="line2d_20"/>
     <g id="text_11">
      <!-- 3 -->
      <g style="fill: #262626" transform="translate(80.939063 600.548556) scale(0.1 -0.1)">
       <defs>
        <path id="ArialMT-33" d="M 269 1209 
L 831 1284 
Q 928 806 1161 595 
Q 1394 384 1728 384 
Q 2125 384 2398 659 
Q 2672 934 2672 1341 
Q 2672 1728 2419 1979 
Q 2166 2231 1775 2231 
Q 1616 2231 1378 2169 
L 1441 2663 
Q 1497 2656 1531 2656 
Q 1891 2656 2178 2843 
Q 2466 3031 2466 3422 
Q 2466 3731 2256 3934 
Q 2047 4138 1716 4138 
Q 1388 4138 1169 3931 
Q 950 3725 888 3313 
L 325 3413 
Q 428 3978 793 4289 
Q 1159 4600 1703 4600 
Q 2078 4600 2393 4439 
Q 2709 4278 2876 4000 
Q 3044 3722 3044 3409 
Q 3044 3113 2884 2869 
Q 2725 2625 2413 2481 
Q 2819 2388 3044 2092 
Q 3269 1797 3269 1353 
Q 3269 753 2831 336 
Q 2394 -81 1725 -81 
Q 1122 -81 723 278 
Q 325 638 269 1209 
z
" transform="scale(0.015625)"/>
       </defs>
       <use xlink:href="#ArialMT-33"/>
      </g>
     </g>
    </g>
    <g id="ytick_2">
     <g id="line2d_21">
      <path d="M 90 474.401556 
L 648 474.401556 
" clip-path="url(#paa6d9eb62b)" style="fill: none; stroke: #cccccc; stroke-width: 0.8; stroke-linecap: round"/>
     </g>
     <g id="line2d_22"/>
     <g id="text_12">
      <!-- 4 -->
      <g style="fill: #262626" transform="translate(80.939063 477.980463) scale(0.1 -0.1)">
       <defs>
        <path id="ArialMT-34" d="M 2069 0 
L 2069 1097 
L 81 1097 
L 81 1613 
L 2172 4581 
L 2631 4581 
L 2631 1613 
L 3250 1613 
L 3250 1097 
L 2631 1097 
L 2631 0 
L 2069 0 
z
M 2069 1613 
L 2069 3678 
L 634 1613 
L 2069 1613 
z
" transform="scale(0.015625)"/>
       </defs>
       <use xlink:href="#ArialMT-34"/>
      </g>
     </g>
    </g>
    <g id="ytick_3">
     <g id="line2d_23">
      <path d="M 90 351.833463 
L 648 351.833463 
" clip-path="url(#paa6d9eb62b)" style="fill: none; stroke: #cccccc; stroke-width: 0.8; stroke-linecap: round"/>
     </g>
     <g id="line2d_24"/>
     <g id="text_13">
      <!-- 5 -->
      <g style="fill: #262626" transform="translate(80.939063 355.412369) scale(0.1 -0.1)">
       <use xlink:href="#ArialMT-35"/>
      </g>
     </g>
    </g>
    <g id="ytick_4">
     <g id="line2d_25">
      <path d="M 90 229.26537 
L 648 229.26537 
" clip-path="url(#paa6d9eb62b)" style="fill: none; stroke: #cccccc; stroke-width: 0.8; stroke-linecap: round"/>
     </g>
     <g id="line2d_26"/>
     <g id="text_14">
      <!-- 6 -->
      <g style="fill: #262626" transform="translate(80.939063 232.844276) scale(0.1 -0.1)">
       <defs>
        <path id="ArialMT-36" d="M 3184 3459 
L 2625 3416 
Q 2550 3747 2413 3897 
Q 2184 4138 1850 4138 
Q 1581 4138 1378 3988 
Q 1113 3794 959 3422 
Q 806 3050 800 2363 
Q 1003 2672 1297 2822 
Q 1591 2972 1913 2972 
Q 2475 2972 2870 2558 
Q 3266 2144 3266 1488 
Q 3266 1056 3080 686 
Q 2894 316 2569 119 
Q 2244 -78 1831 -78 
Q 1128 -78 684 439 
Q 241 956 241 2144 
Q 241 3472 731 4075 
Q 1159 4600 1884 4600 
Q 2425 4600 2770 4297 
Q 3116 3994 3184 3459 
z
M 888 1484 
Q 888 1194 1011 928 
Q 1134 663 1356 523 
Q 1578 384 1822 384 
Q 2178 384 2434 671 
Q 2691 959 2691 1453 
Q 2691 1928 2437 2201 
Q 2184 2475 1800 2475 
Q 1419 2475 1153 2201 
Q 888 1928 888 1484 
z
" transform="scale(0.015625)"/>
       </defs>
       <use xlink:href="#ArialMT-36"/>
      </g>
     </g>
    </g>
    <g id="ytick_5">
     <g id="line2d_27">
      <path d="M 90 106.697276 
L 648 106.697276 
" clip-path="url(#paa6d9eb62b)" style="fill: none; stroke: #cccccc; stroke-width: 0.8; stroke-linecap: round"/>
     </g>
     <g id="line2d_28"/>
     <g id="text_15">
      <!-- 7 -->
      <g style="fill: #262626" transform="translate(80.939063 110.276183) scale(0.1 -0.1)">
       <use xlink:href="#ArialMT-37"/>
      </g>
     </g>
    </g>
    <g id="text_16">
     <!-- Average Path Length -->
     <g style="fill: #262626" transform="translate(74.834375 410.489062) rotate(-90) scale(0.1 -0.1)">
      <defs>
       <path id="ArialMT-41" d="M -9 0 
L 1750 4581 
L 2403 4581 
L 4278 0 
L 3588 0 
L 3053 1388 
L 1138 1388 
L 634 0 
L -9 0 
z
M 1313 1881 
L 2866 1881 
L 2388 3150 
Q 2169 3728 2063 4100 
Q 1975 3659 1816 3225 
L 1313 1881 
z
" transform="scale(0.015625)"/>
       <path id="ArialMT-76" d="M 1344 0 
L 81 3319 
L 675 3319 
L 1388 1331 
Q 1503 1009 1600 663 
Q 1675 925 1809 1294 
L 2547 3319 
L 3125 3319 
L 1869 0 
L 1344 0 
z
" transform="scale(0.015625)"/>
       <path id="ArialMT-65" d="M 2694 1069 
L 3275 997 
Q 3138 488 2766 206 
Q 2394 -75 1816 -75 
Q 1088 -75 661 373 
Q 234 822 234 1631 
Q 234 2469 665 2931 
Q 1097 3394 1784 3394 
Q 2450 3394 2872 2941 
Q 3294 2488 3294 1666 
Q 3294 1616 3291 1516 
L 816 1516 
Q 847 969 1125 678 
Q 1403 388 1819 388 
Q 2128 388 2347 550 
Q 2566 713 2694 1069 
z
M 847 1978 
L 2700 1978 
Q 2663 2397 2488 2606 
Q 2219 2931 1791 2931 
Q 1403 2931 1139 2672 
Q 875 2413 847 1978 
z
" transform="scale(0.015625)"/>
       <path id="ArialMT-72" d="M 416 0 
L 416 3319 
L 922 3319 
L 922 2816 
Q 1116 3169 1280 3281 
Q 1444 3394 1641 3394 
Q 1925 3394 2219 3213 
L 2025 2691 
Q 1819 2813 1613 2813 
Q 1428 2813 1281 2702 
Q 1134 2591 1072 2394 
Q 978 2094 978 1738 
L 978 0 
L 416 0 
z
" transform="scale(0.015625)"/>
       <path id="ArialMT-61" d="M 2588 409 
Q 2275 144 1986 34 
Q 1697 -75 1366 -75 
Q 819 -75 525 192 
Q 231 459 231 875 
Q 231 1119 342 1320 
Q 453 1522 633 1644 
Q 813 1766 1038 1828 
Q 1203 1872 1538 1913 
Q 2219 1994 2541 2106 
Q 2544 2222 2544 2253 
Q 2544 2597 2384 2738 
Q 2169 2928 1744 2928 
Q 1347 2928 1158 2789 
Q 969 2650 878 2297 
L 328 2372 
Q 403 2725 575 2942 
Q 747 3159 1072 3276 
Q 1397 3394 1825 3394 
Q 2250 3394 2515 3294 
Q 2781 3194 2906 3042 
Q 3031 2891 3081 2659 
Q 3109 2516 3109 2141 
L 3109 1391 
Q 3109 606 3145 398 
Q 3181 191 3288 0 
L 2700 0 
Q 2613 175 2588 409 
z
M 2541 1666 
Q 2234 1541 1622 1453 
Q 1275 1403 1131 1340 
Q 988 1278 909 1158 
Q 831 1038 831 891 
Q 831 666 1001 516 
Q 1172 366 1500 366 
Q 1825 366 2078 508 
Q 2331 650 2450 897 
Q 2541 1088 2541 1459 
L 2541 1666 
z
" transform="scale(0.015625)"/>
       <path id="ArialMT-67" d="M 319 -275 
L 866 -356 
Q 900 -609 1056 -725 
Q 1266 -881 1628 -881 
Q 2019 -881 2231 -725 
Q 2444 -569 2519 -288 
Q 2563 -116 2559 434 
Q 2191 0 1641 0 
Q 956 0 581 494 
Q 206 988 206 1678 
Q 206 2153 378 2554 
Q 550 2956 876 3175 
Q 1203 3394 1644 3394 
Q 2231 3394 2613 2919 
L 2613 3319 
L 3131 3319 
L 3131 450 
Q 3131 -325 2973 -648 
Q 2816 -972 2473 -1159 
Q 2131 -1347 1631 -1347 
Q 1038 -1347 672 -1080 
Q 306 -813 319 -275 
z
M 784 1719 
Q 784 1066 1043 766 
Q 1303 466 1694 466 
Q 2081 466 2343 764 
Q 2606 1063 2606 1700 
Q 2606 2309 2336 2618 
Q 2066 2928 1684 2928 
Q 1309 2928 1046 2623 
Q 784 2319 784 1719 
z
" transform="scale(0.015625)"/>
       <path id="ArialMT-20" transform="scale(0.015625)"/>
       <path id="ArialMT-50" d="M 494 0 
L 494 4581 
L 2222 4581 
Q 2678 4581 2919 4538 
Q 3256 4481 3484 4323 
Q 3713 4166 3852 3881 
Q 3991 3597 3991 3256 
Q 3991 2672 3619 2267 
Q 3247 1863 2275 1863 
L 1100 1863 
L 1100 0 
L 494 0 
z
M 1100 2403 
L 2284 2403 
Q 2872 2403 3119 2622 
Q 3366 2841 3366 3238 
Q 3366 3525 3220 3729 
Q 3075 3934 2838 4000 
Q 2684 4041 2272 4041 
L 1100 4041 
L 1100 2403 
z
" transform="scale(0.015625)"/>
       <path id="ArialMT-74" d="M 1650 503 
L 1731 6 
Q 1494 -44 1306 -44 
Q 1000 -44 831 53 
Q 663 150 594 308 
Q 525 466 525 972 
L 525 2881 
L 113 2881 
L 113 3319 
L 525 3319 
L 525 4141 
L 1084 4478 
L 1084 3319 
L 1650 3319 
L 1650 2881 
L 1084 2881 
L 1084 941 
Q 1084 700 1114 631 
Q 1144 563 1211 522 
Q 1278 481 1403 481 
Q 1497 481 1650 503 
z
" transform="scale(0.015625)"/>
       <path id="ArialMT-4c" d="M 469 0 
L 469 4581 
L 1075 4581 
L 1075 541 
L 3331 541 
L 3331 0 
L 469 0 
z
" transform="scale(0.015625)"/>
       <path id="ArialMT-6e" d="M 422 0 
L 422 3319 
L 928 3319 
L 928 2847 
Q 1294 3394 1984 3394 
Q 2284 3394 2536 3286 
Q 2788 3178 2913 3003 
Q 3038 2828 3088 2588 
Q 3119 2431 3119 2041 
L 3119 0 
L 2556 0 
L 2556 2019 
Q 2556 2363 2490 2533 
Q 2425 2703 2258 2804 
Q 2091 2906 1866 2906 
Q 1506 2906 1245 2678 
Q 984 2450 984 1813 
L 984 0 
L 422 0 
z
" transform="scale(0.015625)"/>
      </defs>
      <use xlink:href="#ArialMT-41"/>
      <use xlink:href="#ArialMT-76" x="64.949219"/>
      <use xlink:href="#ArialMT-65" x="114.949219"/>
      <use xlink:href="#ArialMT-72" x="170.564453"/>
      <use xlink:href="#ArialMT-61" x="203.865234"/>
      <use xlink:href="#ArialMT-67" x="259.480469"/>
      <use xlink:href="#ArialMT-65" x="315.095703"/>
      <use xlink:href="#ArialMT-20" x="370.710938"/>
      <use xlink:href="#ArialMT-50" x="398.494141"/>
      <use xlink:href="#ArialMT-61" x="465.193359"/>
      <use xlink:href="#ArialMT-74" x="520.808594"/>
      <use xlink:href="#ArialMT-68" x="548.591797"/>
      <use xlink:href="#ArialMT-20" x="604.207031"/>
      <use xlink:href="#ArialMT-4c" x="631.990234"/>
      <use xlink:href="#ArialMT-65" x="687.605469"/>
      <use xlink:href="#ArialMT-6e" x="743.220703"/>
      <use xlink:href="#ArialMT-67" x="798.835938"/>
      <use xlink:href="#ArialMT-74" x="854.451172"/>
      <use xlink:href="#ArialMT-68" x="882.234375"/>
     </g>
    </g>
   </g>
   <g id="line2d_29">
    <path d="M 115.363636 111.6 
L 117.887381 115.767315 
L 120.411126 144.938521 
L 122.934871 210.635019 
L 125.458616 235.638911 
L 127.982361 251.327626 
L 130.506106 298.516342 
L 133.029851 309.792607 
L 135.553596 327.197276 
L 138.077341 329.648638 
L 140.601085 340.189494 
L 143.12483 342.518288 
L 145.648575 351.710895 
L 148.17232 366.909339 
L 150.696065 369.115564 
L 153.21981 373.282879 
L 155.743555 377.817899 
L 158.2673 381.127237 
L 160.791045 395.222568 
L 163.31479 401.718677 
L 165.838535 402.576654 
L 168.36228 411.769261 
L 170.886024 413.362646 
L 173.409769 421.207004 
L 175.933514 431.502724 
L 178.457259 436.773152 
L 180.981004 444.372374 
L 183.504749 449.029961 
L 186.028494 450.500778 
L 188.552239 452.829572 
L 191.075984 457.977432 
L 193.599729 458.467704 
L 196.123474 460.183658 
L 198.647218 464.350973 
L 201.170963 464.963813 
L 203.694708 467.537743 
L 206.218453 469.376265 
L 208.742198 470.96965 
L 211.265943 472.072763 
L 216.313433 482.491051 
L 221.360923 483.471595 
L 223.884668 484.084436 
L 226.408412 486.045525 
L 228.932157 486.41323 
L 231.455902 487.02607 
L 236.503392 488.006615 
L 239.027137 489.232296 
L 241.550882 490.21284 
L 244.074627 491.438521 
L 246.598372 493.522179 
L 249.122117 497.93463 
L 251.645862 498.424903 
L 254.169607 499.037743 
L 256.693351 500.018288 
L 259.217096 500.50856 
L 261.740841 502.347082 
L 264.264586 505.411284 
L 266.788331 507.004669 
L 269.312076 507.61751 
L 271.835821 510.681712 
L 274.359566 512.029961 
L 276.883311 513.991051 
L 279.407056 515.094163 
L 281.930801 515.584436 
L 284.454545 516.197276 
L 289.502035 517.177821 
L 292.02578 518.035798 
L 294.549525 518.52607 
L 297.07327 519.996887 
L 299.597015 520.48716 
L 302.12076 521.345136 
L 304.644505 521.957977 
L 307.16825 523.428794 
L 312.215739 524.409339 
L 314.739484 528.576654 
L 319.786974 529.557198 
L 322.310719 530.660311 
L 327.358209 531.640856 
L 329.881954 532.253696 
L 332.405699 532.743969 
L 334.929444 534.705058 
L 337.453189 535.195331 
L 339.976934 538.136965 
L 342.500678 538.627237 
L 345.024423 539.240078 
L 347.548168 542.794553 
L 350.071913 543.407393 
L 352.595658 548.187549 
L 355.119403 548.677821 
L 357.643148 549.290661 
L 360.166893 551.129183 
L 362.690638 551.619455 
L 365.214383 552.232296 
L 375.309362 554.193385 
L 377.833107 554.806226 
L 382.880597 555.78677 
L 385.404342 556.399611 
L 390.451832 557.380156 
L 392.975577 560.199222 
L 405.594301 562.650584 
L 408.118046 563.263424 
L 415.689281 564.734241 
L 418.213026 565.347082 
L 420.736771 565.837354 
L 423.260516 566.817899 
L 425.784261 567.308171 
L 428.308005 567.921012 
L 433.355495 568.901556 
L 435.87924 569.514397 
L 438.402985 570.494942 
L 440.92673 571.107782 
L 445.97422 572.088327 
L 448.497965 573.19144 
L 458.592944 575.152529 
L 461.116689 575.76537 
L 463.640434 576.255642 
L 466.164179 576.868482 
L 471.211669 577.849027 
L 473.735414 578.461868 
L 478.782904 579.442412 
L 481.306649 580.055253 
L 486.354138 581.035798 
L 488.877883 581.648638 
L 491.401628 584.222568 
L 493.925373 584.835409 
L 496.449118 585.325681 
L 498.972863 585.938521 
L 504.020353 586.919066 
L 506.544098 587.531907 
L 509.067843 588.022179 
L 511.591588 588.635019 
L 516.639077 589.615564 
L 521.686567 590.841245 
L 526.734057 591.82179 
L 529.257802 594.150584 
L 534.305292 595.131128 
L 536.829037 595.743969 
L 539.352782 596.234241 
L 541.876526 596.847082 
L 549.447761 598.317899 
L 551.971506 598.930739 
L 554.495251 599.421012 
L 557.018996 600.033852 
L 562.066486 601.014397 
L 569.63772 604.323735 
L 574.68521 605.30428 
L 577.208955 605.917121 
L 582.256445 606.897665 
L 587.303935 608.123346 
L 589.82768 608.613619 
L 592.351425 609.226459 
L 597.398915 610.207004 
L 599.922659 610.819844 
L 604.970149 611.800389 
L 607.493894 612.41323 
L 612.541384 613.393774 
L 615.065129 614.006615 
L 617.588874 614.496887 
L 620.112619 615.109728 
L 622.636364 615.6 
L 622.636364 615.6 
" clip-path="url(#paa6d9eb62b)" style="fill: none; stroke: #1f77b4; stroke-width: 2; stroke-linecap: round"/>
    <defs>
     <path id="mdb935bfb95" d="M 0 3 
C 0.795609 3 1.55874 2.683901 2.12132 2.12132 
C 2.683901 1.55874 3 0.795609 3 0 
C 3 -0.795609 2.683901 -1.55874 2.12132 -2.12132 
C 1.55874 -2.683901 0.795609 -3 0 -3 
C -0.795609 -3 -1.55874 -2.683901 -2.12132 -2.12132 
C -2.683901 -1.55874 -3 -0.795609 -3 0 
C -3 0.795609 -2.683901 1.55874 -2.12132 2.12132 
C -1.55874 2.683901 -0.795609 3 0 3 
z
" style="stroke: #1f77b4"/>
    </defs>
    <g clip-path="url(#paa6d9eb62b)">
     <use xlink:href="#mdb935bfb95" x="115.363636" y="111.6" style="fill: #1f77b4; stroke: #1f77b4"/>
     <use xlink:href="#mdb935bfb95" x="165.838535" y="402.576654" style="fill: #1f77b4; stroke: #1f77b4"/>
     <use xlink:href="#mdb935bfb95" x="216.313433" y="482.491051" style="fill: #1f77b4; stroke: #1f77b4"/>
     <use xlink:href="#mdb935bfb95" x="266.788331" y="507.004669" style="fill: #1f77b4; stroke: #1f77b4"/>
     <use xlink:href="#mdb935bfb95" x="317.263229" y="529.066926" style="fill: #1f77b4; stroke: #1f77b4"/>
     <use xlink:href="#mdb935bfb95" x="367.738128" y="552.722568" style="fill: #1f77b4; stroke: #1f77b4"/>
     <use xlink:href="#mdb935bfb95" x="418.213026" y="565.347082" style="fill: #1f77b4; stroke: #1f77b4"/>
     <use xlink:href="#mdb935bfb95" x="468.687924" y="577.358755" style="fill: #1f77b4; stroke: #1f77b4"/>
     <use xlink:href="#mdb935bfb95" x="519.162822" y="590.228405" style="fill: #1f77b4; stroke: #1f77b4"/>
     <use xlink:href="#mdb935bfb95" x="569.63772" y="604.323735" style="fill: #1f77b4; stroke: #1f77b4"/>
     <use xlink:href="#mdb935bfb95" x="620.112619" y="615.109728" style="fill: #1f77b4; stroke: #1f77b4"/>
    </g>
   </g>
   <g id="line2d_30">
    <path d="M 115.363636 111.6 
L 117.887381 132.681712 
L 120.411126 180.605837 
L 122.934871 191.269261 
L 125.458616 194.210895 
L 127.982361 197.397665 
L 130.506106 205.119455 
L 133.029851 215.292607 
L 135.553596 232.819844 
L 138.077341 234.045525 
L 140.601085 245.199222 
L 143.12483 246.915175 
L 145.648575 252.308171 
L 148.17232 256.23035 
L 150.696065 259.049416 
L 153.21981 266.403502 
L 158.2673 286.504669 
L 160.791045 292.26537 
L 163.31479 300.354864 
L 165.838535 304.644747 
L 168.36228 310.037743 
L 170.886024 311.876265 
L 173.409769 315.921012 
L 175.933514 319.23035 
L 178.457259 320.456031 
L 180.981004 335.409339 
L 183.504749 338.105837 
L 186.028494 345.58249 
L 188.552239 347.053307 
L 191.075984 350.11751 
L 193.599729 356.368482 
L 198.647218 360.045525 
L 201.170963 361.638911 
L 203.694708 365.315953 
L 211.265943 370.341245 
L 213.789688 373.037743 
L 216.313433 374.140856 
L 218.837178 374.50856 
L 223.884668 379.533852 
L 226.408412 384.559144 
L 228.932157 386.397665 
L 231.455902 387.745914 
L 233.979647 389.3393 
L 236.503392 391.177821 
L 239.027137 391.422957 
L 241.550882 393.996887 
L 244.074627 399.389883 
L 246.598372 400.983268 
L 249.122117 401.473541 
L 251.645862 402.454086 
L 254.169607 403.312062 
L 256.693351 408.459922 
L 261.740841 409.685603 
L 264.264586 412.382101 
L 266.788331 412.627237 
L 269.312076 412.994942 
L 271.835821 414.220623 
L 274.359566 420.103891 
L 276.883311 421.574708 
L 279.407056 425.742023 
L 281.930801 427.580545 
L 284.454545 428.315953 
L 286.97829 431.502724 
L 292.02578 435.670039 
L 294.549525 437.263424 
L 297.07327 438.121401 
L 299.597015 438.366537 
L 302.12076 439.101946 
L 304.644505 439.714786 
L 307.16825 441.675875 
L 309.691995 442.778988 
L 312.215739 444.249805 
L 314.739484 444.740078 
L 317.263229 445.965759 
L 319.786974 446.210895 
L 322.310719 448.049416 
L 324.834464 448.907393 
L 327.358209 449.520233 
L 329.881954 450.255642 
L 332.405699 451.481323 
L 334.929444 452.094163 
L 337.453189 453.074708 
L 339.976934 453.442412 
L 342.500678 454.668093 
L 345.024423 455.035798 
L 347.548168 456.016342 
L 350.071913 456.506615 
L 352.595658 457.119455 
L 355.119403 458.222568 
L 357.643148 459.203113 
L 360.166893 459.325681 
L 362.690638 460.428794 
L 365.214383 461.041634 
L 367.738128 461.777043 
L 370.261872 462.022179 
L 372.785617 462.144747 
L 375.309362 462.757588 
L 380.356852 464.228405 
L 382.880597 464.718677 
L 385.404342 465.331518 
L 387.928087 466.312062 
L 390.451832 466.557198 
L 392.975577 467.047471 
L 395.499322 467.660311 
L 398.023066 469.866537 
L 400.546811 470.356809 
L 403.070556 470.356809 
L 405.594301 471.827626 
L 408.118046 472.317899 
L 410.641791 473.053307 
L 413.165536 474.278988 
L 415.689281 474.769261 
L 418.213026 477.220623 
L 420.736771 477.343191 
L 423.260516 477.588327 
L 425.784261 477.956031 
L 428.308005 478.446304 
L 430.83175 479.30428 
L 433.355495 479.426848 
L 435.87924 479.794553 
L 438.402985 480.897665 
L 440.92673 481.755642 
L 443.450475 483.349027 
L 445.97422 483.8393 
L 448.497965 484.45214 
L 451.02171 485.555253 
L 453.545455 486.41323 
L 456.069199 486.780934 
L 461.116689 488.006615 
L 466.164179 488.742023 
L 468.687924 489.845136 
L 471.211669 490.090272 
L 473.735414 490.457977 
L 476.259159 491.683658 
L 478.782904 492.051362 
L 481.306649 492.296498 
L 486.354138 494.257588 
L 488.877883 495.728405 
L 493.925373 496.218677 
L 496.449118 496.341245 
L 498.972863 496.831518 
L 501.496608 496.831518 
L 504.020353 497.444358 
L 509.067843 498.424903 
L 511.591588 498.547471 
L 516.639077 499.282879 
L 519.162822 499.89572 
L 521.686567 500.876265 
L 524.210312 501.243969 
L 526.734057 501.243969 
L 529.257802 501.611673 
L 531.781547 502.592218 
L 534.305292 504.063035 
L 536.829037 505.288716 
L 539.352782 505.411284 
L 541.876526 505.778988 
L 544.400271 506.269261 
L 546.924016 507.004669 
L 554.495251 507.372374 
L 557.018996 507.61751 
L 562.066486 508.843191 
L 567.113976 510.314008 
L 569.63772 510.559144 
L 574.68521 511.294553 
L 577.208955 511.907393 
L 579.7327 512.397665 
L 582.256445 513.010506 
L 587.303935 513.500778 
L 589.82768 513.868482 
L 592.351425 513.991051 
L 597.398915 514.726459 
L 602.446404 514.971595 
L 607.493894 515.707004 
L 610.017639 515.95214 
L 615.065129 516.197276 
L 622.636364 517.300389 
L 622.636364 517.300389 
" clip-path="url(#paa6d9eb62b)" style="fill: none; stroke: #ff7f0e; stroke-width: 2; stroke-linecap: round"/>
    <defs>
     <path id="mcde3b823ff" d="M 0 -3 
L -3 3 
L 3 3 
z
" style="stroke: #ff7f0e; stroke-linejoin: miter"/>
    </defs>
    <g clip-path="url(#paa6d9eb62b)">
     <use xlink:href="#mcde3b823ff" x="115.363636" y="111.6" style="fill: #ff7f0e; stroke: #ff7f0e; stroke-linejoin: miter"/>
     <use xlink:href="#mcde3b823ff" x="165.838535" y="304.644747" style="fill: #ff7f0e; stroke: #ff7f0e; stroke-linejoin: miter"/>
     <use xlink:href="#mcde3b823ff" x="216.313433" y="374.140856" style="fill: #ff7f0e; stroke: #ff7f0e; stroke-linejoin: miter"/>
     <use xlink:href="#mcde3b823ff" x="266.788331" y="412.627237" style="fill: #ff7f0e; stroke: #ff7f0e; stroke-linejoin: miter"/>
     <use xlink:href="#mcde3b823ff" x="317.263229" y="445.965759" style="fill: #ff7f0e; stroke: #ff7f0e; stroke-linejoin: miter"/>
     <use xlink:href="#mcde3b823ff" x="367.738128" y="461.777043" style="fill: #ff7f0e; stroke: #ff7f0e; stroke-linejoin: miter"/>
     <use xlink:href="#mcde3b823ff" x="418.213026" y="477.220623" style="fill: #ff7f0e; stroke: #ff7f0e; stroke-linejoin: miter"/>
     <use xlink:href="#mcde3b823ff" x="468.687924" y="489.845136" style="fill: #ff7f0e; stroke: #ff7f0e; stroke-linejoin: miter"/>
     <use xlink:href="#mcde3b823ff" x="519.162822" y="499.89572" style="fill: #ff7f0e; stroke: #ff7f0e; stroke-linejoin: miter"/>
     <use xlink:href="#mcde3b823ff" x="569.63772" y="510.559144" style="fill: #ff7f0e; stroke: #ff7f0e; stroke-linejoin: miter"/>
     <use xlink:href="#mcde3b823ff" x="620.112619" y="516.932685" style="fill: #ff7f0e; stroke: #ff7f0e; stroke-linejoin: miter"/>
    </g>
   </g>
   <g id="line2d_31">
    <path d="M 115.363636 111.6 
L 117.887381 112.090272 
L 122.934871 193.23035 
L 125.458616 221.54358 
L 127.982361 244.586381 
L 130.506106 253.166148 
L 133.029851 262.481323 
L 135.553596 280.376265 
L 138.077341 286.259533 
L 140.601085 288.710895 
L 143.12483 301.090272 
L 145.648575 309.424903 
L 148.17232 325.113619 
L 150.696065 327.074708 
L 153.21981 333.448249 
L 155.743555 334.428794 
L 158.2673 347.666148 
L 160.791045 349.504669 
L 163.31479 351.588327 
L 165.838535 354.652529 
L 168.36228 358.45214 
L 173.409769 368.257588 
L 175.933514 370.096109 
L 178.457259 372.179767 
L 180.981004 373.89572 
L 183.504749 375.856809 
L 186.028494 376.347082 
L 188.552239 377.450195 
L 191.075984 381.494942 
L 193.599729 381.862646 
L 196.123474 382.965759 
L 198.647218 383.210895 
L 201.170963 385.784825 
L 203.694708 388.849027 
L 206.218453 390.442412 
L 208.742198 396.325681 
L 211.265943 400.615564 
L 213.789688 405.518288 
L 216.313433 406.131128 
L 218.837178 408.092218 
L 221.360923 408.705058 
L 223.884668 412.749805 
L 226.408412 415.201167 
L 228.932157 416.181712 
L 231.455902 417.775097 
L 233.979647 419.000778 
L 239.027137 423.168093 
L 244.074627 426.477432 
L 246.598372 427.21284 
L 249.122117 428.193385 
L 254.169607 430.767315 
L 256.693351 433.586381 
L 259.217096 434.689494 
L 261.740841 439.959922 
L 264.264586 441.308171 
L 266.788331 441.921012 
L 269.312076 442.65642 
L 271.835821 443.024125 
L 274.359566 444.740078 
L 276.883311 448.662257 
L 279.407056 451.481323 
L 284.454545 454.055253 
L 286.97829 455.893774 
L 289.502035 456.384047 
L 292.02578 457.48716 
L 297.07327 462.757588 
L 299.597015 463.615564 
L 304.644505 464.105837 
L 307.16825 465.208949 
L 314.739484 468.885992 
L 317.263229 471.214786 
L 319.786974 472.317899 
L 322.310719 472.808171 
L 324.834464 473.911284 
L 329.881954 476.485214 
L 332.405699 477.343191 
L 334.929444 478.078599 
L 337.453189 478.936576 
L 339.976934 479.917121 
L 342.500678 481.020233 
L 345.024423 481.142802 
L 347.548168 482.613619 
L 350.071913 482.858755 
L 352.595658 483.716732 
L 355.119403 485.064981 
L 357.643148 485.187549 
L 360.166893 485.187549 
L 362.690638 487.516342 
L 365.214383 488.129183 
L 367.738128 488.496887 
L 372.785617 491.561089 
L 377.833107 492.541634 
L 380.356852 492.78677 
L 382.880597 493.522179 
L 385.404342 495.3607 
L 387.928087 495.850973 
L 390.451832 496.831518 
L 392.975577 497.32179 
L 398.023066 497.812062 
L 403.070556 499.037743 
L 405.594301 499.160311 
L 408.118046 499.528016 
L 410.641791 499.650584 
L 413.165536 500.018288 
L 415.689281 501.366537 
L 418.213026 501.979377 
L 420.736771 502.101946 
L 423.260516 503.205058 
L 425.784261 503.695331 
L 428.308005 503.817899 
L 430.83175 504.308171 
L 433.355495 505.65642 
L 435.87924 506.146693 
L 438.402985 506.882101 
L 440.92673 507.985214 
L 443.450475 508.23035 
L 445.97422 508.23035 
L 448.497965 508.720623 
L 451.02171 509.823735 
L 453.545455 510.681712 
L 456.069199 511.294553 
L 461.116689 513.010506 
L 463.640434 513.37821 
L 466.164179 514.481323 
L 468.687924 515.094163 
L 471.211669 515.461868 
L 476.259159 515.707004 
L 478.782904 516.197276 
L 481.306649 516.932685 
L 483.830393 517.300389 
L 486.354138 517.790661 
L 488.877883 518.158366 
L 491.401628 519.751751 
L 496.449118 520.48716 
L 498.972863 520.609728 
L 501.496608 521.345136 
L 504.020353 521.835409 
L 506.544098 522.815953 
L 509.067843 522.938521 
L 511.591588 523.306226 
L 516.639077 524.28677 
L 519.162822 524.531907 
L 521.686567 525.022179 
L 526.734057 526.24786 
L 529.257802 527.105837 
L 531.781547 527.718677 
L 534.305292 528.086381 
L 536.829037 528.82179 
L 539.352782 529.189494 
L 541.876526 529.802335 
L 544.400271 530.047471 
L 546.924016 531.028016 
L 549.447761 531.39572 
L 551.971506 532.131128 
L 557.018996 532.866537 
L 559.542741 533.111673 
L 564.590231 534.337354 
L 567.113976 534.58249 
L 569.63772 535.072763 
L 572.161465 535.440467 
L 574.68521 536.175875 
L 577.208955 536.421012 
L 579.7327 536.788716 
L 582.256445 537.401556 
L 584.78019 537.646693 
L 587.303935 538.014397 
L 592.351425 538.504669 
L 594.87517 538.872374 
L 597.398915 539.607782 
L 599.922659 540.220623 
L 602.446404 540.710895 
L 604.970149 541.568872 
L 607.493894 541.814008 
L 610.017639 542.426848 
L 612.541384 542.426848 
L 615.065129 543.039689 
L 620.112619 543.529961 
L 622.636364 544.020233 
L 622.636364 544.020233 
" clip-path="url(#paa6d9eb62b)" style="fill: none; stroke: #2ca02c; stroke-width: 2; stroke-linecap: round"/>
    <defs>
     <path id="m69fed8fc11" d="M -3 3 
L 3 -3 
M -3 -3 
L 3 3 
" style="stroke: #2ca02c"/>
    </defs>
    <g clip-path="url(#paa6d9eb62b)">
     <use xlink:href="#m69fed8fc11" x="115.363636" y="111.6" style="fill: #2ca02c; stroke: #2ca02c"/>
     <use xlink:href="#m69fed8fc11" x="165.838535" y="354.652529" style="fill: #2ca02c; stroke: #2ca02c"/>
     <use xlink:href="#m69fed8fc11" x="216.313433" y="406.131128" style="fill: #2ca02c; stroke: #2ca02c"/>
     <use xlink:href="#m69fed8fc11" x="266.788331" y="441.921012" style="fill: #2ca02c; stroke: #2ca02c"/>
     <use xlink:href="#m69fed8fc11" x="317.263229" y="471.214786" style="fill: #2ca02c; stroke: #2ca02c"/>
     <use xlink:href="#m69fed8fc11" x="367.738128" y="488.496887" style="fill: #2ca02c; stroke: #2ca02c"/>
     <use xlink:href="#m69fed8fc11" x="418.213026" y="501.979377" style="fill: #2ca02c; stroke: #2ca02c"/>
     <use xlink:href="#m69fed8fc11" x="468.687924" y="515.094163" style="fill: #2ca02c; stroke: #2ca02c"/>
     <use xlink:href="#m69fed8fc11" x="519.162822" y="524.531907" style="fill: #2ca02c; stroke: #2ca02c"/>
     <use xlink:href="#m69fed8fc11" x="569.63772" y="535.072763" style="fill: #2ca02c; stroke: #2ca02c"/>
     <use xlink:href="#m69fed8fc11" x="620.112619" y="543.529961" style="fill: #2ca02c; stroke: #2ca02c"/>
    </g>
   </g>
   <g id="patch_3">
    <path d="M 90 640.8 
L 90 86.4 
" style="fill: none; stroke: #cccccc; stroke-linejoin: miter; stroke-linecap: square"/>
   </g>
   <g id="patch_4">
    <path d="M 648 640.8 
L 648 86.4 
" style="fill: none; stroke: #cccccc; stroke-linejoin: miter; stroke-linecap: square"/>
   </g>
   <g id="patch_5">
    <path d="M 90 640.8 
L 648 640.8 
" style="fill: none; stroke: #cccccc; stroke-linejoin: miter; stroke-linecap: square"/>
   </g>
   <g id="patch_6">
    <path d="M 90 86.4 
L 648 86.4 
" style="fill: none; stroke: #cccccc; stroke-linejoin: miter; stroke-linecap: square"/>
   </g>
   <g id="legend_1">
    <g id="line2d_32">
     <path d="M 593.217188 99.057812 
L 603.217188 99.057812 
L 613.217188 99.057812 
" style="fill: none; stroke: #1f77b4; stroke-width: 2; stroke-linecap: round"/>
     <g>
      <use xlink:href="#mdb935bfb95" x="603.217188" y="99.057812" style="fill: #1f77b4; stroke: #1f77b4"/>
     </g>
    </g>
    <g id="text_17">
     <!-- gsw -->
     <g style="fill: #262626" transform="translate(621.217188 102.557812) scale(0.1 -0.1)">
      <defs>
       <path id="ArialMT-77" d="M 1034 0 
L 19 3319 
L 600 3319 
L 1128 1403 
L 1325 691 
Q 1338 744 1497 1375 
L 2025 3319 
L 2603 3319 
L 3100 1394 
L 3266 759 
L 3456 1400 
L 4025 3319 
L 4572 3319 
L 3534 0 
L 2950 0 
L 2422 1988 
L 2294 2553 
L 1622 0 
L 1034 0 
z
" transform="scale(0.015625)"/>
      </defs>
      <use xlink:href="#ArialMT-67"/>
      <use xlink:href="#ArialMT-73" x="55.615234"/>
      <use xlink:href="#ArialMT-77" x="105.615234"/>
     </g>
    </g>
    <g id="line2d_33">
     <path d="M 593.217188 113.320312 
L 603.217188 113.320312 
L 613.217188 113.320312 
" style="fill: none; stroke: #ff7f0e; stroke-width: 2; stroke-linecap: round"/>
     <g>
      <use xlink:href="#mcde3b823ff" x="603.217188" y="113.320312" style="fill: #ff7f0e; stroke: #ff7f0e; stroke-linejoin: miter"/>
     </g>
    </g>
    <g id="text_18">
     <!-- nsw -->
     <g style="fill: #262626" transform="translate(621.217188 116.820312) scale(0.1 -0.1)">
      <use xlink:href="#ArialMT-6e"/>
      <use xlink:href="#ArialMT-73" x="55.615234"/>
      <use xlink:href="#ArialMT-77" x="105.615234"/>
     </g>
    </g>
    <g id="line2d_34">
     <path d="M 593.217188 127.465625 
L 603.217188 127.465625 
L 613.217188 127.465625 
" style="fill: none; stroke: #2ca02c; stroke-width: 2; stroke-linecap: round"/>
     <g>
      <use xlink:href="#m69fed8fc11" x="603.217188" y="127.465625" style="fill: #2ca02c; stroke: #2ca02c"/>
     </g>
    </g>
    <g id="text_19">
     <!-- ppo -->
     <g style="fill: #262626" transform="translate(621.217188 130.965625) scale(0.1 -0.1)">
      <use xlink:href="#ArialMT-70"/>
      <use xlink:href="#ArialMT-70" x="55.615234"/>
      <use xlink:href="#ArialMT-6f" x="111.230469"/>
     </g>
    </g>
   </g>
  </g>
 </g>
 <defs>
  <clipPath id="paa6d9eb62b">
   <rect x="90" y="86.4" width="558" height="554.4"/>
  </clipPath>
 </defs>
</svg>
