<?xml version="1.0" encoding="utf-8" standalone="no"?>
<!DOCTYPE svg PUBLIC "-//W3C//DTD SVG 1.1//EN"
  "http://www.w3.org/Graphics/SVG/1.1/DTD/svg11.dtd">
<svg xmlns:xlink="http://www.w3.org/1999/xlink" width="720pt" height="720pt" viewBox="0 0 720 720" xmlns="http://www.w3.org/2000/svg" version="1.1">
 <metadata>
  <rdf:RDF xmlns:dc="http://purl.org/dc/elements/1.1/" xmlns:cc="http://creativecommons.org/ns#" xmlns:rdf="http://www.w3.org/1999/02/22-rdf-syntax-ns#">
   <cc:Work>
    <dc:type rdf:resource="http://purl.org/dc/dcmitype/StillImage"/>
    <dc:date>2024-03-27T17:41:26.745159</dc:date>
    <dc:format>image/svg+xml</dc:format>
    <dc:creator>
     <cc:Agent>
      <dc:title>Matplotlib v3.8.3, https://matplotlib.org/</dc:title>
     </cc:Agent>
    </dc:creator>
   </cc:Work>
  </rdf:RDF>
 </metadata>
 <defs>
  <style type="text/css">*{stroke-linejoin: round; stroke-linecap: butt}</style>
 </defs>
 <g id="figure_1">
  <g id="patch_1">
   <path d="M 0 720 
L 720 720 
L 720 0 
L 0 0 
z
" style="fill: #ffffff"/>
  </g>
  <g id="axes_1">
   <g id="patch_2">
    <path d="M 90 640.8 
L 648 640.8 
L 648 86.4 
L 90 86.4 
z
" style="fill: #ffffff"/>
   </g>
   <g id="matplotlib.axis_1">
    <g id="xtick_1">
     <g id="line2d_1">
      <path d="M 115.363636 640.8 
L 115.363636 86.4 
" clip-path="url(#p3ad0e64ae5)" style="fill: none; stroke: #cccccc; stroke-width: 0.8; stroke-linecap: round"/>
     </g>
     <g id="line2d_2"/>
     <g id="text_1">
      <!-- 0 -->
      <g style="fill: #262626" transform="translate(112.583168 651.546875) scale(0.1 -0.1)">
       <defs>
        <path id="LiberationSans-30" d="M 3309 2203 
Q 3309 1569 3189 1136 
Q 3069 703 2861 436 
Q 2653 169 2372 53 
Q 2091 -63 1772 -63 
Q 1450 -63 1172 53 
Q 894 169 689 434 
Q 484 700 367 1133 
Q 250 1566 250 2203 
Q 250 2869 367 3305 
Q 484 3741 690 4000 
Q 897 4259 1178 4364 
Q 1459 4469 1791 4469 
Q 2106 4469 2382 4364 
Q 2659 4259 2865 4000 
Q 3072 3741 3190 3305 
Q 3309 2869 3309 2203 
z
M 2738 2203 
Q 2738 2728 2675 3076 
Q 2613 3425 2491 3633 
Q 2369 3841 2192 3927 
Q 2016 4013 1791 4013 
Q 1553 4013 1372 3925 
Q 1191 3838 1067 3630 
Q 944 3422 881 3073 
Q 819 2725 819 2203 
Q 819 1697 883 1350 
Q 947 1003 1070 792 
Q 1194 581 1372 489 
Q 1550 397 1778 397 
Q 2000 397 2178 489 
Q 2356 581 2479 792 
Q 2603 1003 2670 1350 
Q 2738 1697 2738 2203 
z
" transform="scale(0.015625)"/>
       </defs>
       <use xlink:href="#LiberationSans-30"/>
      </g>
     </g>
    </g>
    <g id="xtick_2">
     <g id="line2d_3">
      <path d="M 178.457259 640.8 
L 178.457259 86.4 
" clip-path="url(#p3ad0e64ae5)" style="fill: none; stroke: #cccccc; stroke-width: 0.8; stroke-linecap: round"/>
     </g>
     <g id="line2d_4"/>
     <g id="text_2">
      <!-- 25 -->
      <g style="fill: #262626" transform="translate(172.896322 651.546875) scale(0.1 -0.1)">
       <defs>
        <path id="LiberationSans-32" d="M 322 0 
L 322 397 
Q 481 763 711 1042 
Q 941 1322 1194 1548 
Q 1447 1775 1695 1969 
Q 1944 2163 2144 2356 
Q 2344 2550 2467 2762 
Q 2591 2975 2591 3244 
Q 2591 3431 2534 3573 
Q 2478 3716 2372 3812 
Q 2266 3909 2117 3957 
Q 1969 4006 1788 4006 
Q 1619 4006 1470 3959 
Q 1322 3913 1206 3819 
Q 1091 3725 1017 3586 
Q 944 3447 922 3263 
L 347 3316 
Q 375 3553 478 3762 
Q 581 3972 762 4130 
Q 944 4288 1198 4378 
Q 1453 4469 1788 4469 
Q 2116 4469 2372 4391 
Q 2628 4313 2804 4159 
Q 2981 4006 3075 3781 
Q 3169 3556 3169 3263 
Q 3169 3041 3089 2841 
Q 3009 2641 2876 2459 
Q 2744 2278 2569 2109 
Q 2394 1941 2203 1780 
Q 2013 1619 1819 1461 
Q 1625 1303 1454 1143 
Q 1284 984 1150 820 
Q 1016 656 941 478 
L 3238 478 
L 3238 0 
L 322 0 
z
" transform="scale(0.015625)"/>
        <path id="LiberationSans-35" d="M 3291 1434 
Q 3291 1103 3191 828 
Q 3091 553 2894 354 
Q 2697 156 2405 46 
Q 2113 -63 1728 -63 
Q 1381 -63 1123 18 
Q 866 100 687 242 
Q 509 384 404 575 
Q 300 766 256 984 
L 825 1050 
Q 859 925 921 808 
Q 984 691 1092 598 
Q 1200 506 1358 451 
Q 1516 397 1741 397 
Q 1959 397 2137 464 
Q 2316 531 2442 662 
Q 2569 794 2637 984 
Q 2706 1175 2706 1422 
Q 2706 1625 2640 1795 
Q 2575 1966 2453 2089 
Q 2331 2213 2154 2281 
Q 1978 2350 1753 2350 
Q 1613 2350 1494 2325 
Q 1375 2300 1273 2256 
Q 1172 2213 1089 2155 
Q 1006 2097 934 2034 
L 384 2034 
L 531 4403 
L 3034 4403 
L 3034 3925 
L 1044 3925 
L 959 2528 
Q 1109 2644 1334 2726 
Q 1559 2809 1869 2809 
Q 2197 2809 2459 2709 
Q 2722 2609 2906 2426 
Q 3091 2244 3191 1991 
Q 3291 1738 3291 1434 
z
" transform="scale(0.015625)"/>
       </defs>
       <use xlink:href="#LiberationSans-32"/>
       <use xlink:href="#LiberationSans-35" x="55.615234"/>
      </g>
     </g>
    </g>
    <g id="xtick_3">
     <g id="line2d_5">
      <path d="M 241.550882 640.8 
L 241.550882 86.4 
" clip-path="url(#p3ad0e64ae5)" style="fill: none; stroke: #cccccc; stroke-width: 0.8; stroke-linecap: round"/>
     </g>
     <g id="line2d_6"/>
     <g id="text_3">
      <!-- 50 -->
      <g style="fill: #262626" transform="translate(235.989944 651.546875) scale(0.1 -0.1)">
       <use xlink:href="#LiberationSans-35"/>
       <use xlink:href="#LiberationSans-30" x="55.615234"/>
      </g>
     </g>
    </g>
    <g id="xtick_4">
     <g id="line2d_7">
      <path d="M 304.644505 640.8 
L 304.644505 86.4 
" clip-path="url(#p3ad0e64ae5)" style="fill: none; stroke: #cccccc; stroke-width: 0.8; stroke-linecap: round"/>
     </g>
     <g id="line2d_8"/>
     <g id="text_4">
      <!-- 75 -->
      <g style="fill: #262626" transform="translate(299.083567 651.546875) scale(0.1 -0.1)">
       <defs>
        <path id="LiberationSans-37" d="M 3238 3947 
Q 2906 3441 2628 2973 
Q 2350 2506 2150 2032 
Q 1950 1559 1839 1061 
Q 1728 563 1728 0 
L 1141 0 
Q 1141 528 1266 1036 
Q 1391 1544 1603 2033 
Q 1816 2522 2097 2994 
Q 2378 3466 2694 3925 
L 328 3925 
L 328 4403 
L 3238 4403 
L 3238 3947 
z
" transform="scale(0.015625)"/>
       </defs>
       <use xlink:href="#LiberationSans-37"/>
       <use xlink:href="#LiberationSans-35" x="55.615234"/>
      </g>
     </g>
    </g>
    <g id="xtick_5">
     <g id="line2d_9">
      <path d="M 367.738128 640.8 
L 367.738128 86.4 
" clip-path="url(#p3ad0e64ae5)" style="fill: none; stroke: #cccccc; stroke-width: 0.8; stroke-linecap: round"/>
     </g>
     <g id="line2d_10"/>
     <g id="text_5">
      <!-- 100 -->
      <g style="fill: #262626" transform="translate(359.396721 651.546875) scale(0.1 -0.1)">
       <defs>
        <path id="LiberationSans-31" d="M 488 0 
L 488 478 
L 1609 478 
L 1609 3866 
L 616 3156 
L 616 3688 
L 1656 4403 
L 2175 4403 
L 2175 478 
L 3247 478 
L 3247 0 
L 488 0 
z
" transform="scale(0.015625)"/>
       </defs>
       <use xlink:href="#LiberationSans-31"/>
       <use xlink:href="#LiberationSans-30" x="55.615234"/>
       <use xlink:href="#LiberationSans-30" x="111.230469"/>
      </g>
     </g>
    </g>
    <g id="xtick_6">
     <g id="line2d_11">
      <path d="M 430.83175 640.8 
L 430.83175 86.4 
" clip-path="url(#p3ad0e64ae5)" style="fill: none; stroke: #cccccc; stroke-width: 0.8; stroke-linecap: round"/>
     </g>
     <g id="line2d_12"/>
     <g id="text_6">
      <!-- 125 -->
      <g style="fill: #262626" transform="translate(422.490344 651.546875) scale(0.1 -0.1)">
       <use xlink:href="#LiberationSans-31"/>
       <use xlink:href="#LiberationSans-32" x="55.615234"/>
       <use xlink:href="#LiberationSans-35" x="111.230469"/>
      </g>
     </g>
    </g>
    <g id="xtick_7">
     <g id="line2d_13">
      <path d="M 493.925373 640.8 
L 493.925373 86.4 
" clip-path="url(#p3ad0e64ae5)" style="fill: none; stroke: #cccccc; stroke-width: 0.8; stroke-linecap: round"/>
     </g>
     <g id="line2d_14"/>
     <g id="text_7">
      <!-- 150 -->
      <g style="fill: #262626" transform="translate(485.583967 651.546875) scale(0.1 -0.1)">
       <use xlink:href="#LiberationSans-31"/>
       <use xlink:href="#LiberationSans-35" x="55.615234"/>
       <use xlink:href="#LiberationSans-30" x="111.230469"/>
      </g>
     </g>
    </g>
    <g id="xtick_8">
     <g id="line2d_15">
      <path d="M 557.018996 640.8 
L 557.018996 86.4 
" clip-path="url(#p3ad0e64ae5)" style="fill: none; stroke: #cccccc; stroke-width: 0.8; stroke-linecap: round"/>
     </g>
     <g id="line2d_16"/>
     <g id="text_8">
      <!-- 175 -->
      <g style="fill: #262626" transform="translate(548.67759 651.546875) scale(0.1 -0.1)">
       <use xlink:href="#LiberationSans-31"/>
       <use xlink:href="#LiberationSans-37" x="55.615234"/>
       <use xlink:href="#LiberationSans-35" x="111.230469"/>
      </g>
     </g>
    </g>
    <g id="xtick_9">
     <g id="line2d_17">
      <path d="M 620.112619 640.8 
L 620.112619 86.4 
" clip-path="url(#p3ad0e64ae5)" style="fill: none; stroke: #cccccc; stroke-width: 0.8; stroke-linecap: round"/>
     </g>
     <g id="line2d_18"/>
     <g id="text_9">
      <!-- 200 -->
      <g style="fill: #262626" transform="translate(611.771212 651.546875) scale(0.1 -0.1)">
       <use xlink:href="#LiberationSans-32"/>
       <use xlink:href="#LiberationSans-30" x="55.615234"/>
       <use xlink:href="#LiberationSans-30" x="111.230469"/>
      </g>
     </g>
    </g>
    <g id="text_10">
     <!-- rounds -->
     <g style="fill: #262626" transform="translate(353.713281 664.86875) scale(0.1 -0.1)">
      <defs>
       <path id="LiberationSans-72" d="M 444 0 
L 444 2594 
Q 444 2700 442 2811 
Q 441 2922 437 3025 
Q 434 3128 431 3218 
Q 428 3309 425 3381 
L 956 3381 
Q 959 3309 964 3217 
Q 969 3125 973 3028 
Q 978 2931 979 2842 
Q 981 2753 981 2691 
L 994 2691 
Q 1053 2884 1120 3026 
Q 1188 3169 1278 3261 
Q 1369 3353 1494 3398 
Q 1619 3444 1797 3444 
Q 1866 3444 1928 3433 
Q 1991 3422 2025 3413 
L 2025 2897 
Q 1969 2913 1894 2920 
Q 1819 2928 1725 2928 
Q 1531 2928 1395 2840 
Q 1259 2753 1173 2598 
Q 1088 2444 1047 2230 
Q 1006 2016 1006 1763 
L 1006 0 
L 444 0 
z
" transform="scale(0.015625)"/>
       <path id="LiberationSans-6f" d="M 3291 1694 
Q 3291 806 2900 371 
Q 2509 -63 1766 -63 
Q 1413 -63 1134 43 
Q 856 150 664 369 
Q 472 588 370 917 
Q 269 1247 269 1694 
Q 269 3444 1784 3444 
Q 2178 3444 2464 3334 
Q 2750 3225 2933 3006 
Q 3116 2788 3203 2459 
Q 3291 2131 3291 1694 
z
M 2700 1694 
Q 2700 2088 2639 2344 
Q 2578 2600 2461 2753 
Q 2344 2906 2175 2967 
Q 2006 3028 1794 3028 
Q 1578 3028 1404 2964 
Q 1231 2900 1109 2745 
Q 988 2591 923 2334 
Q 859 2078 859 1694 
Q 859 1300 928 1042 
Q 997 784 1117 631 
Q 1238 478 1402 415 
Q 1566 353 1759 353 
Q 1975 353 2150 414 
Q 2325 475 2447 628 
Q 2569 781 2634 1040 
Q 2700 1300 2700 1694 
z
" transform="scale(0.015625)"/>
       <path id="LiberationSans-75" d="M 981 3381 
L 981 1238 
Q 981 991 1017 825 
Q 1053 659 1134 557 
Q 1216 456 1348 414 
Q 1481 372 1678 372 
Q 1878 372 2039 442 
Q 2200 513 2314 645 
Q 2428 778 2490 973 
Q 2553 1169 2553 1422 
L 2553 3381 
L 3116 3381 
L 3116 722 
Q 3116 616 3117 498 
Q 3119 381 3122 276 
Q 3125 172 3128 97 
Q 3131 22 3134 0 
L 2603 0 
Q 2600 16 2597 84 
Q 2594 153 2589 242 
Q 2584 331 2581 423 
Q 2578 516 2578 578 
L 2569 578 
Q 2488 431 2391 312 
Q 2294 194 2166 111 
Q 2038 28 1872 -17 
Q 1706 -63 1488 -63 
Q 1206 -63 1003 6 
Q 800 75 669 219 
Q 538 363 477 588 
Q 416 813 416 1128 
L 416 3381 
L 981 3381 
z
" transform="scale(0.015625)"/>
       <path id="LiberationSans-6e" d="M 2578 0 
L 2578 2144 
Q 2578 2391 2542 2556 
Q 2506 2722 2425 2823 
Q 2344 2925 2211 2967 
Q 2078 3009 1881 3009 
Q 1681 3009 1520 2939 
Q 1359 2869 1245 2736 
Q 1131 2603 1068 2408 
Q 1006 2213 1006 1959 
L 1006 0 
L 444 0 
L 444 2659 
Q 444 2766 442 2883 
Q 441 3000 437 3104 
Q 434 3209 431 3284 
Q 428 3359 425 3381 
L 956 3381 
Q 959 3366 962 3297 
Q 966 3228 970 3139 
Q 975 3050 978 2958 
Q 981 2866 981 2803 
L 991 2803 
Q 1072 2950 1169 3069 
Q 1266 3188 1394 3270 
Q 1522 3353 1687 3398 
Q 1853 3444 2072 3444 
Q 2353 3444 2556 3375 
Q 2759 3306 2890 3162 
Q 3022 3019 3083 2792 
Q 3144 2566 3144 2253 
L 3144 0 
L 2578 0 
z
" transform="scale(0.015625)"/>
       <path id="LiberationSans-64" d="M 2566 544 
Q 2409 219 2151 78 
Q 1894 -63 1513 -63 
Q 872 -63 570 368 
Q 269 800 269 1675 
Q 269 3444 1513 3444 
Q 1897 3444 2153 3303 
Q 2409 3163 2566 2856 
L 2572 2856 
Q 2572 2888 2570 2955 
Q 2569 3022 2567 3095 
Q 2566 3169 2566 3234 
Q 2566 3300 2566 3328 
L 2566 4638 
L 3128 4638 
L 3128 697 
Q 3128 575 3129 462 
Q 3131 350 3134 256 
Q 3138 163 3141 95 
Q 3144 28 3147 0 
L 2609 0 
Q 2603 31 2598 89 
Q 2594 147 2589 222 
Q 2584 297 2581 380 
Q 2578 463 2578 544 
L 2566 544 
z
M 859 1694 
Q 859 1344 903 1094 
Q 947 844 1044 683 
Q 1141 522 1291 447 
Q 1441 372 1656 372 
Q 1878 372 2048 444 
Q 2219 516 2333 677 
Q 2447 838 2506 1097 
Q 2566 1356 2566 1731 
Q 2566 2091 2506 2339 
Q 2447 2588 2331 2741 
Q 2216 2894 2048 2961 
Q 1881 3028 1663 3028 
Q 1456 3028 1306 2956 
Q 1156 2884 1056 2725 
Q 956 2566 907 2311 
Q 859 2056 859 1694 
z
" transform="scale(0.015625)"/>
       <path id="LiberationSans-73" d="M 2969 934 
Q 2969 697 2876 511 
Q 2784 325 2609 198 
Q 2434 72 2179 4 
Q 1925 -63 1597 -63 
Q 1303 -63 1067 -17 
Q 831 28 653 128 
Q 475 228 354 392 
Q 234 556 178 794 
L 675 891 
Q 747 619 972 492 
Q 1197 366 1597 366 
Q 1778 366 1929 391 
Q 2081 416 2190 477 
Q 2300 538 2361 639 
Q 2422 741 2422 891 
Q 2422 1044 2350 1142 
Q 2278 1241 2150 1306 
Q 2022 1372 1839 1420 
Q 1656 1469 1438 1528 
Q 1234 1581 1034 1647 
Q 834 1713 673 1820 
Q 513 1928 413 2087 
Q 313 2247 313 2488 
Q 313 2950 642 3192 
Q 972 3434 1603 3434 
Q 2163 3434 2492 3237 
Q 2822 3041 2909 2606 
L 2403 2544 
Q 2375 2675 2300 2764 
Q 2225 2853 2119 2908 
Q 2013 2963 1880 2986 
Q 1747 3009 1603 3009 
Q 1222 3009 1040 2893 
Q 859 2778 859 2544 
Q 859 2406 926 2317 
Q 994 2228 1114 2167 
Q 1234 2106 1403 2061 
Q 1572 2016 1775 1966 
Q 1909 1931 2050 1892 
Q 2191 1853 2323 1798 
Q 2456 1744 2573 1670 
Q 2691 1597 2778 1494 
Q 2866 1391 2917 1253 
Q 2969 1116 2969 934 
z
" transform="scale(0.015625)"/>
      </defs>
      <use xlink:href="#LiberationSans-72"/>
      <use xlink:href="#LiberationSans-6f" x="33.300781"/>
      <use xlink:href="#LiberationSans-75" x="88.916016"/>
      <use xlink:href="#LiberationSans-6e" x="144.53125"/>
      <use xlink:href="#LiberationSans-64" x="200.146484"/>
      <use xlink:href="#LiberationSans-73" x="255.761719"/>
     </g>
    </g>
   </g>
   <g id="matplotlib.axis_2">
    <g id="ytick_1">
     <g id="line2d_19">
      <path d="M 90 596.96965 
L 648 596.96965 
" clip-path="url(#p3ad0e64ae5)" style="fill: none; stroke: #cccccc; stroke-width: 0.8; stroke-linecap: round"/>
     </g>
     <g id="line2d_20"/>
     <g id="text_11">
      <!-- 3 -->
      <g style="fill: #262626" transform="translate(80.939063 600.593087) scale(0.1 -0.1)">
       <defs>
        <path id="LiberationSans-33" d="M 3278 1216 
Q 3278 913 3179 675 
Q 3081 438 2892 273 
Q 2703 109 2423 23 
Q 2144 -63 1784 -63 
Q 1375 -63 1095 39 
Q 816 141 634 308 
Q 453 475 362 689 
Q 272 903 244 1131 
L 825 1184 
Q 850 1009 917 865 
Q 984 722 1100 619 
Q 1216 516 1384 459 
Q 1553 403 1784 403 
Q 2209 403 2451 612 
Q 2694 822 2694 1234 
Q 2694 1478 2586 1626 
Q 2478 1775 2317 1858 
Q 2156 1941 1967 1969 
Q 1778 1997 1619 1997 
L 1300 1997 
L 1300 2484 
L 1606 2484 
Q 1766 2484 1937 2517 
Q 2109 2550 2251 2636 
Q 2394 2722 2486 2869 
Q 2578 3016 2578 3244 
Q 2578 3597 2370 3801 
Q 2163 4006 1753 4006 
Q 1381 4006 1151 3815 
Q 922 3625 884 3278 
L 319 3322 
Q 353 3613 478 3828 
Q 603 4044 795 4186 
Q 988 4328 1234 4398 
Q 1481 4469 1759 4469 
Q 2128 4469 2393 4376 
Q 2659 4284 2828 4126 
Q 2997 3969 3076 3756 
Q 3156 3544 3156 3303 
Q 3156 3109 3103 2940 
Q 3050 2772 2937 2637 
Q 2825 2503 2651 2406 
Q 2478 2309 2234 2259 
L 2234 2247 
Q 2500 2219 2697 2126 
Q 2894 2034 3022 1896 
Q 3150 1759 3214 1584 
Q 3278 1409 3278 1216 
z
" transform="scale(0.015625)"/>
       </defs>
       <use xlink:href="#LiberationSans-33"/>
      </g>
     </g>
    </g>
    <g id="ytick_2">
     <g id="line2d_21">
      <path d="M 90 474.401556 
L 648 474.401556 
" clip-path="url(#p3ad0e64ae5)" style="fill: none; stroke: #cccccc; stroke-width: 0.8; stroke-linecap: round"/>
     </g>
     <g id="line2d_22"/>
     <g id="text_12">
      <!-- 4 -->
      <g style="fill: #262626" transform="translate(80.939063 478.024994) scale(0.1 -0.1)">
       <defs>
        <path id="LiberationSans-34" d="M 2753 997 
L 2753 0 
L 2222 0 
L 2222 997 
L 147 997 
L 147 1434 
L 2163 4403 
L 2753 4403 
L 2753 1441 
L 3372 1441 
L 3372 997 
L 2753 997 
z
M 2222 3769 
Q 2216 3753 2191 3708 
Q 2166 3663 2134 3606 
Q 2103 3550 2070 3492 
Q 2038 3434 2013 3397 
L 884 1734 
Q 869 1709 839 1668 
Q 809 1628 778 1586 
Q 747 1544 715 1503 
Q 684 1463 666 1441 
L 2222 1441 
L 2222 3769 
z
" transform="scale(0.015625)"/>
       </defs>
       <use xlink:href="#LiberationSans-34"/>
      </g>
     </g>
    </g>
    <g id="ytick_3">
     <g id="line2d_23">
      <path d="M 90 351.833463 
L 648 351.833463 
" clip-path="url(#p3ad0e64ae5)" style="fill: none; stroke: #cccccc; stroke-width: 0.8; stroke-linecap: round"/>
     </g>
     <g id="line2d_24"/>
     <g id="text_13">
      <!-- 5 -->
      <g style="fill: #262626" transform="translate(80.939063 355.456901) scale(0.1 -0.1)">
       <use xlink:href="#LiberationSans-35"/>
      </g>
     </g>
    </g>
    <g id="ytick_4">
     <g id="line2d_25">
      <path d="M 90 229.26537 
L 648 229.26537 
" clip-path="url(#p3ad0e64ae5)" style="fill: none; stroke: #cccccc; stroke-width: 0.8; stroke-linecap: round"/>
     </g>
     <g id="line2d_26"/>
     <g id="text_14">
      <!-- 6 -->
      <g style="fill: #262626" transform="translate(80.939063 232.888807) scale(0.1 -0.1)">
       <defs>
        <path id="LiberationSans-36" d="M 3278 1441 
Q 3278 1109 3186 832 
Q 3094 556 2914 357 
Q 2734 159 2468 48 
Q 2203 -63 1856 -63 
Q 1472 -63 1184 84 
Q 897 231 706 507 
Q 516 784 420 1186 
Q 325 1588 325 2100 
Q 325 2688 433 3131 
Q 541 3575 744 3872 
Q 947 4169 1239 4319 
Q 1531 4469 1900 4469 
Q 2125 4469 2322 4422 
Q 2519 4375 2680 4270 
Q 2841 4166 2962 3994 
Q 3084 3822 3156 3572 
L 2619 3475 
Q 2531 3759 2339 3886 
Q 2147 4013 1894 4013 
Q 1663 4013 1475 3903 
Q 1288 3794 1156 3576 
Q 1025 3359 954 3031 
Q 884 2703 884 2266 
Q 1038 2550 1316 2698 
Q 1594 2847 1953 2847 
Q 2253 2847 2497 2750 
Q 2741 2653 2914 2470 
Q 3088 2288 3183 2027 
Q 3278 1766 3278 1441 
z
M 2706 1416 
Q 2706 1644 2650 1828 
Q 2594 2013 2481 2142 
Q 2369 2272 2203 2342 
Q 2038 2413 1819 2413 
Q 1666 2413 1509 2367 
Q 1353 2322 1226 2220 
Q 1100 2119 1020 1953 
Q 941 1788 941 1550 
Q 941 1306 1003 1095 
Q 1066 884 1183 728 
Q 1300 572 1465 481 
Q 1631 391 1838 391 
Q 2041 391 2202 461 
Q 2363 531 2475 664 
Q 2588 797 2647 987 
Q 2706 1178 2706 1416 
z
" transform="scale(0.015625)"/>
       </defs>
       <use xlink:href="#LiberationSans-36"/>
      </g>
     </g>
    </g>
    <g id="ytick_5">
     <g id="line2d_27">
      <path d="M 90 106.697276 
L 648 106.697276 
" clip-path="url(#p3ad0e64ae5)" style="fill: none; stroke: #cccccc; stroke-width: 0.8; stroke-linecap: round"/>
     </g>
     <g id="line2d_28"/>
     <g id="text_15">
      <!-- 7 -->
      <g style="fill: #262626" transform="translate(80.939063 110.320714) scale(0.1 -0.1)">
       <use xlink:href="#LiberationSans-37"/>
      </g>
     </g>
    </g>
    <g id="text_16">
     <!-- APL -->
     <g style="fill: #262626" transform="translate(74.864063 373.050781) rotate(-90) scale(0.1 -0.1)">
      <defs>
       <path id="LiberationSans-41" d="M 3647 0 
L 3144 1288 
L 1138 1288 
L 631 0 
L 13 0 
L 1809 4403 
L 2488 4403 
L 4256 0 
L 3647 0 
z
M 2400 3206 
Q 2350 3331 2304 3459 
Q 2259 3588 2225 3692 
Q 2191 3797 2167 3867 
Q 2144 3938 2141 3953 
Q 2134 3938 2112 3866 
Q 2091 3794 2055 3687 
Q 2019 3581 1973 3453 
Q 1928 3325 1881 3200 
L 1319 1753 
L 2966 1753 
L 2400 3206 
z
" transform="scale(0.015625)"/>
       <path id="LiberationSans-50" d="M 3931 3078 
Q 3931 2791 3836 2542 
Q 3741 2294 3552 2111 
Q 3363 1928 3078 1822 
Q 2794 1716 2416 1716 
L 1122 1716 
L 1122 0 
L 525 0 
L 525 4403 
L 2378 4403 
Q 2769 4403 3059 4308 
Q 3350 4213 3544 4039 
Q 3738 3866 3834 3620 
Q 3931 3375 3931 3078 
z
M 3331 3072 
Q 3331 3491 3075 3708 
Q 2819 3925 2306 3925 
L 1122 3925 
L 1122 2188 
L 2331 2188 
Q 2847 2188 3089 2416 
Q 3331 2644 3331 3072 
z
" transform="scale(0.015625)"/>
       <path id="LiberationSans-4c" d="M 525 0 
L 525 4403 
L 1122 4403 
L 1122 488 
L 3347 488 
L 3347 0 
L 525 0 
z
" transform="scale(0.015625)"/>
      </defs>
      <use xlink:href="#LiberationSans-41"/>
      <use xlink:href="#LiberationSans-50" x="66.699219"/>
      <use xlink:href="#LiberationSans-4c" x="133.398438"/>
     </g>
    </g>
   </g>
   <g id="line2d_29">
    <path d="M 115.363636 111.6 
L 117.887381 115.767315 
L 120.411126 144.938521 
L 122.934871 210.635019 
L 125.458616 235.638911 
L 127.982361 251.327626 
L 130.506106 298.516342 
L 133.029851 309.792607 
L 135.553596 327.197276 
L 138.077341 329.648638 
L 140.601085 340.189494 
L 143.12483 342.518288 
L 145.648575 351.710895 
L 148.17232 366.909339 
L 150.696065 369.115564 
L 153.21981 373.282879 
L 155.743555 377.817899 
L 158.2673 381.127237 
L 160.791045 395.222568 
L 163.31479 401.718677 
L 165.838535 402.576654 
L 168.36228 411.769261 
L 170.886024 413.362646 
L 173.409769 421.207004 
L 175.933514 431.502724 
L 178.457259 436.773152 
L 180.981004 444.372374 
L 183.504749 449.029961 
L 186.028494 450.500778 
L 188.552239 452.829572 
L 191.075984 457.977432 
L 193.599729 458.467704 
L 196.123474 460.183658 
L 198.647218 464.350973 
L 201.170963 464.963813 
L 203.694708 467.537743 
L 206.218453 469.376265 
L 208.742198 470.96965 
L 211.265943 472.072763 
L 216.313433 482.491051 
L 221.360923 483.471595 
L 223.884668 484.084436 
L 226.408412 486.045525 
L 228.932157 486.41323 
L 231.455902 487.02607 
L 236.503392 488.006615 
L 239.027137 489.232296 
L 241.550882 490.21284 
L 244.074627 491.438521 
L 246.598372 493.522179 
L 249.122117 497.93463 
L 251.645862 498.424903 
L 254.169607 499.037743 
L 256.693351 500.018288 
L 259.217096 500.50856 
L 261.740841 502.347082 
L 264.264586 505.411284 
L 266.788331 507.004669 
L 269.312076 507.61751 
L 271.835821 510.681712 
L 274.359566 512.029961 
L 276.883311 513.991051 
L 279.407056 515.094163 
L 281.930801 515.584436 
L 284.454545 516.197276 
L 289.502035 517.177821 
L 292.02578 518.035798 
L 294.549525 518.52607 
L 297.07327 519.996887 
L 299.597015 520.48716 
L 302.12076 521.345136 
L 304.644505 521.957977 
L 307.16825 523.428794 
L 312.215739 524.409339 
L 314.739484 528.576654 
L 319.786974 529.557198 
L 322.310719 530.660311 
L 327.358209 531.640856 
L 329.881954 532.253696 
L 332.405699 532.743969 
L 334.929444 534.705058 
L 337.453189 535.195331 
L 339.976934 538.136965 
L 342.500678 538.627237 
L 345.024423 539.240078 
L 347.548168 542.794553 
L 350.071913 543.407393 
L 352.595658 548.187549 
L 355.119403 548.677821 
L 357.643148 549.290661 
L 360.166893 551.129183 
L 362.690638 551.619455 
L 365.214383 552.232296 
L 375.309362 554.193385 
L 377.833107 554.806226 
L 382.880597 555.78677 
L 385.404342 556.399611 
L 390.451832 557.380156 
L 392.975577 560.199222 
L 405.594301 562.650584 
L 408.118046 563.263424 
L 415.689281 564.734241 
L 418.213026 565.347082 
L 420.736771 565.837354 
L 423.260516 566.817899 
L 425.784261 567.308171 
L 428.308005 567.921012 
L 433.355495 568.901556 
L 435.87924 569.514397 
L 438.402985 570.494942 
L 440.92673 571.107782 
L 445.97422 572.088327 
L 448.497965 573.19144 
L 458.592944 575.152529 
L 461.116689 575.76537 
L 463.640434 576.255642 
L 466.164179 576.868482 
L 471.211669 577.849027 
L 473.735414 578.461868 
L 478.782904 579.442412 
L 481.306649 580.055253 
L 486.354138 581.035798 
L 488.877883 581.648638 
L 491.401628 584.222568 
L 493.925373 584.835409 
L 496.449118 585.325681 
L 498.972863 585.938521 
L 504.020353 586.919066 
L 506.544098 587.531907 
L 509.067843 588.022179 
L 511.591588 588.635019 
L 516.639077 589.615564 
L 521.686567 590.841245 
L 526.734057 591.82179 
L 529.257802 594.150584 
L 534.305292 595.131128 
L 536.829037 595.743969 
L 539.352782 596.234241 
L 541.876526 596.847082 
L 549.447761 598.317899 
L 551.971506 598.930739 
L 554.495251 599.421012 
L 557.018996 600.033852 
L 562.066486 601.014397 
L 569.63772 604.323735 
L 574.68521 605.30428 
L 577.208955 605.917121 
L 582.256445 606.897665 
L 587.303935 608.123346 
L 589.82768 608.613619 
L 592.351425 609.226459 
L 597.398915 610.207004 
L 599.922659 610.819844 
L 604.970149 611.800389 
L 607.493894 612.41323 
L 612.541384 613.393774 
L 615.065129 614.006615 
L 617.588874 614.496887 
L 620.112619 615.109728 
L 622.636364 615.6 
L 622.636364 615.6 
" clip-path="url(#p3ad0e64ae5)" style="fill: none; stroke: #1f77b4; stroke-linecap: round"/>
    <defs>
     <path id="mbab26ef9be" d="M 0 3 
C 0.795609 3 1.55874 2.683901 2.12132 2.12132 
C 2.683901 1.55874 3 0.795609 3 0 
C 3 -0.795609 2.683901 -1.55874 2.12132 -2.12132 
C 1.55874 -2.683901 0.795609 -3 0 -3 
C -0.795609 -3 -1.55874 -2.683901 -2.12132 -2.12132 
C -2.683901 -1.55874 -3 -0.795609 -3 0 
C -3 0.795609 -2.683901 1.55874 -2.12132 2.12132 
C -1.55874 2.683901 -0.795609 3 0 3 
z
" style="stroke: #1f77b4"/>
    </defs>
    <g clip-path="url(#p3ad0e64ae5)">
     <use xlink:href="#mbab26ef9be" x="115.363636" y="111.6" style="fill: #1f77b4; stroke: #1f77b4"/>
     <use xlink:href="#mbab26ef9be" x="165.838535" y="402.576654" style="fill: #1f77b4; stroke: #1f77b4"/>
     <use xlink:href="#mbab26ef9be" x="216.313433" y="482.491051" style="fill: #1f77b4; stroke: #1f77b4"/>
     <use xlink:href="#mbab26ef9be" x="266.788331" y="507.004669" style="fill: #1f77b4; stroke: #1f77b4"/>
     <use xlink:href="#mbab26ef9be" x="317.263229" y="529.066926" style="fill: #1f77b4; stroke: #1f77b4"/>
     <use xlink:href="#mbab26ef9be" x="367.738128" y="552.722568" style="fill: #1f77b4; stroke: #1f77b4"/>
     <use xlink:href="#mbab26ef9be" x="418.213026" y="565.347082" style="fill: #1f77b4; stroke: #1f77b4"/>
     <use xlink:href="#mbab26ef9be" x="468.687924" y="577.358755" style="fill: #1f77b4; stroke: #1f77b4"/>
     <use xlink:href="#mbab26ef9be" x="519.162822" y="590.228405" style="fill: #1f77b4; stroke: #1f77b4"/>
     <use xlink:href="#mbab26ef9be" x="569.63772" y="604.323735" style="fill: #1f77b4; stroke: #1f77b4"/>
     <use xlink:href="#mbab26ef9be" x="620.112619" y="615.109728" style="fill: #1f77b4; stroke: #1f77b4"/>
    </g>
   </g>
   <g id="line2d_30">
    <path d="M 115.363636 111.6 
L 117.887381 132.681712 
L 120.411126 180.605837 
L 122.934871 191.269261 
L 125.458616 194.210895 
L 127.982361 197.397665 
L 130.506106 205.119455 
L 133.029851 215.292607 
L 135.553596 232.819844 
L 138.077341 234.045525 
L 140.601085 245.199222 
L 143.12483 246.915175 
L 145.648575 252.308171 
L 148.17232 256.23035 
L 150.696065 259.049416 
L 153.21981 266.403502 
L 158.2673 286.504669 
L 160.791045 292.26537 
L 163.31479 300.354864 
L 165.838535 304.644747 
L 168.36228 310.037743 
L 170.886024 311.876265 
L 173.409769 315.921012 
L 175.933514 319.23035 
L 178.457259 320.456031 
L 180.981004 335.409339 
L 183.504749 338.105837 
L 186.028494 345.58249 
L 188.552239 347.053307 
L 191.075984 350.11751 
L 193.599729 356.368482 
L 198.647218 360.045525 
L 201.170963 361.638911 
L 203.694708 365.315953 
L 211.265943 370.341245 
L 213.789688 373.037743 
L 216.313433 374.140856 
L 218.837178 374.50856 
L 223.884668 379.533852 
L 226.408412 384.559144 
L 228.932157 386.397665 
L 231.455902 387.745914 
L 233.979647 389.3393 
L 236.503392 391.177821 
L 239.027137 391.422957 
L 241.550882 393.996887 
L 244.074627 399.389883 
L 246.598372 400.983268 
L 249.122117 401.473541 
L 251.645862 402.454086 
L 254.169607 403.312062 
L 256.693351 408.459922 
L 261.740841 409.685603 
L 264.264586 412.382101 
L 266.788331 412.627237 
L 269.312076 412.994942 
L 271.835821 414.220623 
L 274.359566 420.103891 
L 276.883311 421.574708 
L 279.407056 425.742023 
L 281.930801 427.580545 
L 284.454545 428.315953 
L 286.97829 431.502724 
L 292.02578 435.670039 
L 294.549525 437.263424 
L 297.07327 438.121401 
L 299.597015 438.366537 
L 302.12076 439.101946 
L 304.644505 439.714786 
L 307.16825 441.675875 
L 309.691995 442.778988 
L 312.215739 444.249805 
L 314.739484 444.740078 
L 317.263229 445.965759 
L 319.786974 446.210895 
L 322.310719 448.049416 
L 324.834464 448.907393 
L 327.358209 449.520233 
L 329.881954 450.255642 
L 332.405699 451.481323 
L 334.929444 452.094163 
L 337.453189 453.074708 
L 339.976934 453.442412 
L 342.500678 454.668093 
L 345.024423 455.035798 
L 347.548168 456.016342 
L 350.071913 456.506615 
L 352.595658 457.119455 
L 355.119403 458.222568 
L 357.643148 459.203113 
L 360.166893 459.325681 
L 362.690638 460.428794 
L 365.214383 461.041634 
L 367.738128 461.777043 
L 370.261872 462.022179 
L 372.785617 462.144747 
L 375.309362 462.757588 
L 380.356852 464.228405 
L 382.880597 464.718677 
L 385.404342 465.331518 
L 387.928087 466.312062 
L 390.451832 466.557198 
L 392.975577 467.047471 
L 395.499322 467.660311 
L 398.023066 469.866537 
L 400.546811 470.356809 
L 403.070556 470.356809 
L 405.594301 471.827626 
L 408.118046 472.317899 
L 410.641791 473.053307 
L 413.165536 474.278988 
L 415.689281 474.769261 
L 418.213026 477.220623 
L 420.736771 477.343191 
L 423.260516 477.588327 
L 425.784261 477.956031 
L 428.308005 478.446304 
L 430.83175 479.30428 
L 433.355495 479.426848 
L 435.87924 479.794553 
L 438.402985 480.897665 
L 440.92673 481.755642 
L 443.450475 483.349027 
L 445.97422 483.8393 
L 448.497965 484.45214 
L 451.02171 485.555253 
L 453.545455 486.41323 
L 456.069199 486.780934 
L 461.116689 488.006615 
L 466.164179 488.742023 
L 468.687924 489.845136 
L 471.211669 490.090272 
L 473.735414 490.457977 
L 476.259159 491.683658 
L 478.782904 492.051362 
L 481.306649 492.296498 
L 486.354138 494.257588 
L 488.877883 495.728405 
L 493.925373 496.218677 
L 496.449118 496.341245 
L 498.972863 496.831518 
L 501.496608 496.831518 
L 504.020353 497.444358 
L 509.067843 498.424903 
L 511.591588 498.547471 
L 516.639077 499.282879 
L 519.162822 499.89572 
L 521.686567 500.876265 
L 524.210312 501.243969 
L 526.734057 501.243969 
L 529.257802 501.611673 
L 531.781547 502.592218 
L 534.305292 504.063035 
L 536.829037 505.288716 
L 539.352782 505.411284 
L 541.876526 505.778988 
L 544.400271 506.269261 
L 546.924016 507.004669 
L 554.495251 507.372374 
L 557.018996 507.61751 
L 562.066486 508.843191 
L 567.113976 510.314008 
L 569.63772 510.559144 
L 574.68521 511.294553 
L 577.208955 511.907393 
L 579.7327 512.397665 
L 582.256445 513.010506 
L 587.303935 513.500778 
L 589.82768 513.868482 
L 592.351425 513.991051 
L 597.398915 514.726459 
L 602.446404 514.971595 
L 607.493894 515.707004 
L 610.017639 515.95214 
L 615.065129 516.197276 
L 622.636364 517.300389 
L 622.636364 517.300389 
" clip-path="url(#p3ad0e64ae5)" style="fill: none; stroke: #ff7f0e; stroke-linecap: round"/>
    <defs>
     <path id="m52323a410d" d="M 0 -3 
L -3 3 
L 3 3 
z
" style="stroke: #ff7f0e; stroke-linejoin: miter"/>
    </defs>
    <g clip-path="url(#p3ad0e64ae5)">
     <use xlink:href="#m52323a410d" x="115.363636" y="111.6" style="fill: #ff7f0e; stroke: #ff7f0e; stroke-linejoin: miter"/>
     <use xlink:href="#m52323a410d" x="165.838535" y="304.644747" style="fill: #ff7f0e; stroke: #ff7f0e; stroke-linejoin: miter"/>
     <use xlink:href="#m52323a410d" x="216.313433" y="374.140856" style="fill: #ff7f0e; stroke: #ff7f0e; stroke-linejoin: miter"/>
     <use xlink:href="#m52323a410d" x="266.788331" y="412.627237" style="fill: #ff7f0e; stroke: #ff7f0e; stroke-linejoin: miter"/>
     <use xlink:href="#m52323a410d" x="317.263229" y="445.965759" style="fill: #ff7f0e; stroke: #ff7f0e; stroke-linejoin: miter"/>
     <use xlink:href="#m52323a410d" x="367.738128" y="461.777043" style="fill: #ff7f0e; stroke: #ff7f0e; stroke-linejoin: miter"/>
     <use xlink:href="#m52323a410d" x="418.213026" y="477.220623" style="fill: #ff7f0e; stroke: #ff7f0e; stroke-linejoin: miter"/>
     <use xlink:href="#m52323a410d" x="468.687924" y="489.845136" style="fill: #ff7f0e; stroke: #ff7f0e; stroke-linejoin: miter"/>
     <use xlink:href="#m52323a410d" x="519.162822" y="499.89572" style="fill: #ff7f0e; stroke: #ff7f0e; stroke-linejoin: miter"/>
     <use xlink:href="#m52323a410d" x="569.63772" y="510.559144" style="fill: #ff7f0e; stroke: #ff7f0e; stroke-linejoin: miter"/>
     <use xlink:href="#m52323a410d" x="620.112619" y="516.932685" style="fill: #ff7f0e; stroke: #ff7f0e; stroke-linejoin: miter"/>
    </g>
   </g>
   <g id="line2d_31">
    <path d="M 115.363636 111.6 
L 117.887381 112.090272 
L 122.934871 193.23035 
L 125.458616 221.54358 
L 127.982361 244.586381 
L 130.506106 253.166148 
L 133.029851 262.481323 
L 135.553596 280.376265 
L 138.077341 286.259533 
L 140.601085 288.710895 
L 143.12483 301.090272 
L 145.648575 309.424903 
L 148.17232 325.113619 
L 150.696065 327.074708 
L 153.21981 333.448249 
L 155.743555 334.428794 
L 158.2673 347.666148 
L 160.791045 349.504669 
L 163.31479 351.588327 
L 165.838535 354.652529 
L 168.36228 358.45214 
L 173.409769 368.257588 
L 175.933514 370.096109 
L 178.457259 372.179767 
L 180.981004 373.89572 
L 183.504749 375.856809 
L 186.028494 376.347082 
L 188.552239 377.450195 
L 191.075984 381.494942 
L 193.599729 381.862646 
L 196.123474 382.965759 
L 198.647218 383.210895 
L 201.170963 385.784825 
L 203.694708 388.849027 
L 206.218453 390.442412 
L 208.742198 396.325681 
L 211.265943 400.615564 
L 213.789688 405.518288 
L 216.313433 406.131128 
L 218.837178 408.092218 
L 221.360923 408.705058 
L 223.884668 412.749805 
L 226.408412 415.201167 
L 228.932157 416.181712 
L 231.455902 417.775097 
L 233.979647 419.000778 
L 239.027137 423.168093 
L 244.074627 426.477432 
L 246.598372 427.21284 
L 249.122117 428.193385 
L 254.169607 430.767315 
L 256.693351 433.586381 
L 259.217096 434.689494 
L 261.740841 439.959922 
L 264.264586 441.308171 
L 266.788331 441.921012 
L 269.312076 442.65642 
L 271.835821 443.024125 
L 274.359566 444.740078 
L 276.883311 448.662257 
L 279.407056 451.481323 
L 284.454545 454.055253 
L 286.97829 455.893774 
L 289.502035 456.384047 
L 292.02578 457.48716 
L 297.07327 462.757588 
L 299.597015 463.615564 
L 304.644505 464.105837 
L 307.16825 465.208949 
L 314.739484 468.885992 
L 317.263229 471.214786 
L 319.786974 472.317899 
L 322.310719 472.808171 
L 324.834464 473.911284 
L 329.881954 476.485214 
L 332.405699 477.343191 
L 334.929444 478.078599 
L 337.453189 478.936576 
L 339.976934 479.917121 
L 342.500678 481.020233 
L 345.024423 481.142802 
L 347.548168 482.613619 
L 350.071913 482.858755 
L 352.595658 483.716732 
L 355.119403 485.064981 
L 357.643148 485.187549 
L 360.166893 485.187549 
L 362.690638 487.516342 
L 365.214383 488.129183 
L 367.738128 488.496887 
L 372.785617 491.561089 
L 377.833107 492.541634 
L 380.356852 492.78677 
L 382.880597 493.522179 
L 385.404342 495.3607 
L 387.928087 495.850973 
L 390.451832 496.831518 
L 392.975577 497.32179 
L 398.023066 497.812062 
L 403.070556 499.037743 
L 405.594301 499.160311 
L 408.118046 499.528016 
L 410.641791 499.650584 
L 413.165536 500.018288 
L 415.689281 501.366537 
L 418.213026 501.979377 
L 420.736771 502.101946 
L 423.260516 503.205058 
L 425.784261 503.695331 
L 428.308005 503.817899 
L 430.83175 504.308171 
L 433.355495 505.65642 
L 435.87924 506.146693 
L 438.402985 506.882101 
L 440.92673 507.985214 
L 443.450475 508.23035 
L 445.97422 508.23035 
L 448.497965 508.720623 
L 451.02171 509.823735 
L 453.545455 510.681712 
L 456.069199 511.294553 
L 461.116689 513.010506 
L 463.640434 513.37821 
L 466.164179 514.481323 
L 468.687924 515.094163 
L 471.211669 515.461868 
L 476.259159 515.707004 
L 478.782904 516.197276 
L 481.306649 516.932685 
L 483.830393 517.300389 
L 486.354138 517.790661 
L 488.877883 518.158366 
L 491.401628 519.751751 
L 496.449118 520.48716 
L 498.972863 520.609728 
L 501.496608 521.345136 
L 504.020353 521.835409 
L 506.544098 522.815953 
L 509.067843 522.938521 
L 511.591588 523.306226 
L 516.639077 524.28677 
L 519.162822 524.531907 
L 521.686567 525.022179 
L 526.734057 526.24786 
L 529.257802 527.105837 
L 531.781547 527.718677 
L 534.305292 528.086381 
L 536.829037 528.82179 
L 539.352782 529.189494 
L 541.876526 529.802335 
L 544.400271 530.047471 
L 546.924016 531.028016 
L 549.447761 531.39572 
L 551.971506 532.131128 
L 557.018996 532.866537 
L 559.542741 533.111673 
L 564.590231 534.337354 
L 567.113976 534.58249 
L 569.63772 535.072763 
L 572.161465 535.440467 
L 574.68521 536.175875 
L 577.208955 536.421012 
L 579.7327 536.788716 
L 582.256445 537.401556 
L 584.78019 537.646693 
L 587.303935 538.014397 
L 592.351425 538.504669 
L 594.87517 538.872374 
L 597.398915 539.607782 
L 599.922659 540.220623 
L 602.446404 540.710895 
L 604.970149 541.568872 
L 607.493894 541.814008 
L 610.017639 542.426848 
L 612.541384 542.426848 
L 615.065129 543.039689 
L 620.112619 543.529961 
L 622.636364 544.020233 
L 622.636364 544.020233 
" clip-path="url(#p3ad0e64ae5)" style="fill: none; stroke: #2ca02c; stroke-linecap: round"/>
    <defs>
     <path id="m4eb66c4519" d="M -3 3 
L 3 -3 
M -3 -3 
L 3 3 
" style="stroke: #2ca02c"/>
    </defs>
    <g clip-path="url(#p3ad0e64ae5)">
     <use xlink:href="#m4eb66c4519" x="115.363636" y="111.6" style="fill: #2ca02c; stroke: #2ca02c"/>
     <use xlink:href="#m4eb66c4519" x="165.838535" y="354.652529" style="fill: #2ca02c; stroke: #2ca02c"/>
     <use xlink:href="#m4eb66c4519" x="216.313433" y="406.131128" style="fill: #2ca02c; stroke: #2ca02c"/>
     <use xlink:href="#m4eb66c4519" x="266.788331" y="441.921012" style="fill: #2ca02c; stroke: #2ca02c"/>
     <use xlink:href="#m4eb66c4519" x="317.263229" y="471.214786" style="fill: #2ca02c; stroke: #2ca02c"/>
     <use xlink:href="#m4eb66c4519" x="367.738128" y="488.496887" style="fill: #2ca02c; stroke: #2ca02c"/>
     <use xlink:href="#m4eb66c4519" x="418.213026" y="501.979377" style="fill: #2ca02c; stroke: #2ca02c"/>
     <use xlink:href="#m4eb66c4519" x="468.687924" y="515.094163" style="fill: #2ca02c; stroke: #2ca02c"/>
     <use xlink:href="#m4eb66c4519" x="519.162822" y="524.531907" style="fill: #2ca02c; stroke: #2ca02c"/>
     <use xlink:href="#m4eb66c4519" x="569.63772" y="535.072763" style="fill: #2ca02c; stroke: #2ca02c"/>
     <use xlink:href="#m4eb66c4519" x="620.112619" y="543.529961" style="fill: #2ca02c; stroke: #2ca02c"/>
    </g>
   </g>
   <g id="patch_3">
    <path d="M 90 640.8 
L 90 86.4 
" style="fill: none; stroke: #cccccc; stroke-linejoin: miter; stroke-linecap: square"/>
   </g>
   <g id="patch_4">
    <path d="M 648 640.8 
L 648 86.4 
" style="fill: none; stroke: #cccccc; stroke-linejoin: miter; stroke-linecap: square"/>
   </g>
   <g id="patch_5">
    <path d="M 90 640.8 
L 648 640.8 
" style="fill: none; stroke: #cccccc; stroke-linejoin: miter; stroke-linecap: square"/>
   </g>
   <g id="patch_6">
    <path d="M 90 86.4 
L 648 86.4 
" style="fill: none; stroke: #cccccc; stroke-linejoin: miter; stroke-linecap: square"/>
   </g>
   <g id="text_17">
    <!-- APL v/s round -->
    <g style="fill: #262626" transform="translate(331.539375 80.4) scale(0.12 -0.12)">
     <defs>
      <path id="LiberationSans-20" transform="scale(0.015625)"/>
      <path id="LiberationSans-76" d="M 1916 0 
L 1250 0 
L 22 3381 
L 622 3381 
L 1366 1181 
Q 1388 1113 1417 1014 
Q 1447 916 1478 809 
Q 1509 703 1536 604 
Q 1563 506 1581 441 
Q 1600 506 1629 604 
Q 1659 703 1690 806 
Q 1722 909 1755 1007 
Q 1788 1106 1813 1175 
L 2581 3381 
L 3178 3381 
L 1916 0 
z
" transform="scale(0.015625)"/>
      <path id="LiberationSans-2f" d="M 0 -63 
L 1284 4638 
L 1778 4638 
L 506 -63 
L 0 -63 
z
" transform="scale(0.015625)"/>
     </defs>
     <use xlink:href="#LiberationSans-41"/>
     <use xlink:href="#LiberationSans-50" x="66.699219"/>
     <use xlink:href="#LiberationSans-4c" x="133.398438"/>
     <use xlink:href="#LiberationSans-20" x="185.263672"/>
     <use xlink:href="#LiberationSans-76" x="213.046875"/>
     <use xlink:href="#LiberationSans-2f" x="263.046875"/>
     <use xlink:href="#LiberationSans-73" x="290.830078"/>
     <use xlink:href="#LiberationSans-20" x="340.830078"/>
     <use xlink:href="#LiberationSans-72" x="368.613281"/>
     <use xlink:href="#LiberationSans-6f" x="401.914062"/>
     <use xlink:href="#LiberationSans-75" x="457.529297"/>
     <use xlink:href="#LiberationSans-6e" x="513.144531"/>
     <use xlink:href="#LiberationSans-64" x="568.759766"/>
    </g>
   </g>
   <g id="legend_1">
    <g id="line2d_32">
     <path d="M 593.217188 99.146875 
L 603.217188 99.146875 
L 613.217188 99.146875 
" style="fill: none; stroke: #1f77b4; stroke-linecap: round"/>
     <g>
      <use xlink:href="#mbab26ef9be" x="603.217188" y="99.146875" style="fill: #1f77b4; stroke: #1f77b4"/>
     </g>
    </g>
    <g id="text_18">
     <!-- gsw -->
     <g style="fill: #262626" transform="translate(621.217188 102.646875) scale(0.1 -0.1)">
      <defs>
       <path id="LiberationSans-67" d="M 1713 -1328 
Q 1422 -1328 1197 -1268 
Q 972 -1209 812 -1098 
Q 653 -988 553 -834 
Q 453 -681 409 -494 
L 975 -413 
Q 1031 -647 1223 -773 
Q 1416 -900 1728 -900 
Q 1919 -900 2075 -847 
Q 2231 -794 2340 -676 
Q 2450 -559 2509 -371 
Q 2569 -184 2569 84 
L 2569 628 
L 2563 628 
Q 2500 500 2408 383 
Q 2316 266 2183 175 
Q 2050 84 1875 29 
Q 1700 -25 1475 -25 
Q 1153 -25 923 83 
Q 694 191 548 406 
Q 403 622 336 942 
Q 269 1263 269 1684 
Q 269 2091 336 2416 
Q 403 2741 554 2967 
Q 706 3194 948 3314 
Q 1191 3434 1538 3434 
Q 1897 3434 2161 3270 
Q 2425 3106 2569 2803 
L 2575 2803 
Q 2575 2881 2579 2978 
Q 2584 3075 2589 3161 
Q 2594 3247 2600 3309 
Q 2606 3372 2613 3381 
L 3147 3381 
Q 3144 3353 3141 3286 
Q 3138 3219 3134 3125 
Q 3131 3031 3129 2917 
Q 3128 2803 3128 2681 
L 3128 97 
Q 3128 -613 2779 -970 
Q 2431 -1328 1713 -1328 
z
M 2569 1691 
Q 2569 2044 2492 2295 
Q 2416 2547 2291 2706 
Q 2166 2866 2005 2941 
Q 1844 3016 1675 3016 
Q 1459 3016 1304 2941 
Q 1150 2866 1048 2705 
Q 947 2544 898 2292 
Q 850 2041 850 1691 
Q 850 1325 898 1076 
Q 947 828 1047 675 
Q 1147 522 1300 456 
Q 1453 391 1666 391 
Q 1834 391 1995 462 
Q 2156 534 2284 690 
Q 2413 847 2491 1094 
Q 2569 1341 2569 1691 
z
" transform="scale(0.015625)"/>
       <path id="LiberationSans-77" d="M 3669 0 
L 3016 0 
L 2475 2181 
Q 2450 2266 2423 2391 
Q 2397 2516 2372 2634 
Q 2341 2772 2313 2919 
Q 2284 2778 2253 2641 
Q 2228 2522 2198 2394 
Q 2169 2266 2144 2169 
L 1588 0 
L 938 0 
L -9 3381 
L 547 3381 
L 1119 1084 
Q 1141 1013 1162 908 
Q 1184 803 1206 703 
Q 1228 588 1253 466 
Q 1278 584 1306 697 
Q 1331 794 1356 894 
Q 1381 994 1400 1059 
L 2013 3381 
L 2616 3381 
L 3206 1059 
Q 3228 978 3253 875 
Q 3278 772 3300 681 
Q 3325 575 3350 466 
Q 3375 584 3400 697 
Q 3422 794 3445 898 
Q 3469 1003 3491 1084 
L 4088 3381 
L 4638 3381 
L 3669 0 
z
" transform="scale(0.015625)"/>
      </defs>
      <use xlink:href="#LiberationSans-67"/>
      <use xlink:href="#LiberationSans-73" x="55.615234"/>
      <use xlink:href="#LiberationSans-77" x="105.615234"/>
     </g>
    </g>
    <g id="line2d_33">
     <path d="M 593.217188 113.46875 
L 603.217188 113.46875 
L 613.217188 113.46875 
" style="fill: none; stroke: #ff7f0e; stroke-linecap: round"/>
     <g>
      <use xlink:href="#m52323a410d" x="603.217188" y="113.46875" style="fill: #ff7f0e; stroke: #ff7f0e; stroke-linejoin: miter"/>
     </g>
    </g>
    <g id="text_19">
     <!-- nsw -->
     <g style="fill: #262626" transform="translate(621.217188 116.96875) scale(0.1 -0.1)">
      <use xlink:href="#LiberationSans-6e"/>
      <use xlink:href="#LiberationSans-73" x="55.615234"/>
      <use xlink:href="#LiberationSans-77" x="105.615234"/>
     </g>
    </g>
    <g id="line2d_34">
     <path d="M 593.217188 127.790625 
L 603.217188 127.790625 
L 613.217188 127.790625 
" style="fill: none; stroke: #2ca02c; stroke-linecap: round"/>
     <g>
      <use xlink:href="#m4eb66c4519" x="603.217188" y="127.790625" style="fill: #2ca02c; stroke: #2ca02c"/>
     </g>
    </g>
    <g id="text_20">
     <!-- ppo -->
     <g style="fill: #262626" transform="translate(621.217188 131.290625) scale(0.1 -0.1)">
      <defs>
       <path id="LiberationSans-70" d="M 3291 1706 
Q 3291 1322 3228 997 
Q 3166 672 3020 437 
Q 2875 203 2636 70 
Q 2397 -63 2047 -63 
Q 1684 -63 1412 75 
Q 1141 213 997 525 
L 981 525 
Q 984 519 986 469 
Q 988 419 989 344 
Q 991 269 992 176 
Q 994 84 994 -6 
L 994 -1328 
L 431 -1328 
L 431 2691 
Q 431 2813 429 2925 
Q 428 3038 425 3130 
Q 422 3222 419 3287 
Q 416 3353 413 3381 
L 956 3381 
Q 959 3372 964 3315 
Q 969 3259 973 3179 
Q 978 3100 983 3009 
Q 988 2919 988 2838 
L 1000 2838 
Q 1078 3000 1178 3114 
Q 1278 3228 1406 3301 
Q 1534 3375 1692 3408 
Q 1850 3441 2047 3441 
Q 2397 3441 2636 3316 
Q 2875 3191 3020 2964 
Q 3166 2738 3228 2417 
Q 3291 2097 3291 1706 
z
M 2700 1694 
Q 2700 2006 2662 2250 
Q 2625 2494 2533 2662 
Q 2441 2831 2287 2918 
Q 2134 3006 1903 3006 
Q 1716 3006 1550 2953 
Q 1384 2900 1261 2750 
Q 1138 2600 1066 2336 
Q 994 2072 994 1650 
Q 994 1291 1053 1042 
Q 1113 794 1227 641 
Q 1341 488 1509 420 
Q 1678 353 1897 353 
Q 2131 353 2286 443 
Q 2441 534 2533 706 
Q 2625 878 2662 1126 
Q 2700 1375 2700 1694 
z
" transform="scale(0.015625)"/>
      </defs>
      <use xlink:href="#LiberationSans-70"/>
      <use xlink:href="#LiberationSans-70" x="55.615234"/>
      <use xlink:href="#LiberationSans-6f" x="111.230469"/>
     </g>
    </g>
   </g>
  </g>
 </g>
 <defs>
  <clipPath id="p3ad0e64ae5">
   <rect x="90" y="86.4" width="558" height="554.4"/>
  </clipPath>
 </defs>
</svg>
