<?xml version="1.0" encoding="utf-8" standalone="no"?>
<!DOCTYPE svg PUBLIC "-//W3C//DTD SVG 1.1//EN"
  "http://www.w3.org/Graphics/SVG/1.1/DTD/svg11.dtd">
<svg xmlns:xlink="http://www.w3.org/1999/xlink" width="720pt" height="720pt" viewBox="0 0 720 720" xmlns="http://www.w3.org/2000/svg" version="1.1">
 <metadata>
  <rdf:RDF xmlns:dc="http://purl.org/dc/elements/1.1/" xmlns:cc="http://creativecommons.org/ns#" xmlns:rdf="http://www.w3.org/1999/02/22-rdf-syntax-ns#">
   <cc:Work>
    <dc:type rdf:resource="http://purl.org/dc/dcmitype/StillImage"/>
    <dc:date>2024-03-27T17:47:59.705370</dc:date>
    <dc:format>image/svg+xml</dc:format>
    <dc:creator>
     <cc:Agent>
      <dc:title>Matplotlib v3.8.3, https://matplotlib.org/</dc:title>
     </cc:Agent>
    </dc:creator>
   </cc:Work>
  </rdf:RDF>
 </metadata>
 <defs>
  <style type="text/css">*{stroke-linejoin: round; stroke-linecap: butt}</style>
 </defs>
 <g id="figure_1">
  <g id="patch_1">
   <path d="M 0 720 
L 720 720 
L 720 0 
L 0 0 
z
" style="fill: #ffffff"/>
  </g>
  <g id="axes_1">
   <g id="patch_2">
    <path d="M 90 640.8 
L 648 640.8 
L 648 86.4 
L 90 86.4 
z
" style="fill: #ffffff"/>
   </g>
   <g id="matplotlib.axis_1">
    <g id="xtick_1">
     <g id="line2d_1">
      <path d="M 115.363636 640.8 
L 115.363636 86.4 
" clip-path="url(#p27a18d78d0)" style="fill: none; stroke: #cccccc; stroke-width: 0.8; stroke-linecap: round"/>
     </g>
     <g id="line2d_2"/>
     <g id="text_1">
      <!-- 0 -->
      <g style="fill: #262626" transform="translate(112.583168 651.546875) scale(0.1 -0.1)">
       <defs>
        <path id="LiberationSans-30" d="M 3309 2203 
Q 3309 1569 3189 1136 
Q 3069 703 2861 436 
Q 2653 169 2372 53 
Q 2091 -63 1772 -63 
Q 1450 -63 1172 53 
Q 894 169 689 434 
Q 484 700 367 1133 
Q 250 1566 250 2203 
Q 250 2869 367 3305 
Q 484 3741 690 4000 
Q 897 4259 1178 4364 
Q 1459 4469 1791 4469 
Q 2106 4469 2382 4364 
Q 2659 4259 2865 4000 
Q 3072 3741 3190 3305 
Q 3309 2869 3309 2203 
z
M 2738 2203 
Q 2738 2728 2675 3076 
Q 2613 3425 2491 3633 
Q 2369 3841 2192 3927 
Q 2016 4013 1791 4013 
Q 1553 4013 1372 3925 
Q 1191 3838 1067 3630 
Q 944 3422 881 3073 
Q 819 2725 819 2203 
Q 819 1697 883 1350 
Q 947 1003 1070 792 
Q 1194 581 1372 489 
Q 1550 397 1778 397 
Q 2000 397 2178 489 
Q 2356 581 2479 792 
Q 2603 1003 2670 1350 
Q 2738 1697 2738 2203 
z
" transform="scale(0.015625)"/>
       </defs>
       <use xlink:href="#LiberationSans-30"/>
      </g>
     </g>
    </g>
    <g id="xtick_2">
     <g id="line2d_3">
      <path d="M 216.818182 640.8 
L 216.818182 86.4 
" clip-path="url(#p27a18d78d0)" style="fill: none; stroke: #cccccc; stroke-width: 0.8; stroke-linecap: round"/>
     </g>
     <g id="line2d_4"/>
     <g id="text_2">
      <!-- 50000 -->
      <g style="fill: #262626" transform="translate(202.915838 651.546875) scale(0.1 -0.1)">
       <defs>
        <path id="LiberationSans-35" d="M 3291 1434 
Q 3291 1103 3191 828 
Q 3091 553 2894 354 
Q 2697 156 2405 46 
Q 2113 -63 1728 -63 
Q 1381 -63 1123 18 
Q 866 100 687 242 
Q 509 384 404 575 
Q 300 766 256 984 
L 825 1050 
Q 859 925 921 808 
Q 984 691 1092 598 
Q 1200 506 1358 451 
Q 1516 397 1741 397 
Q 1959 397 2137 464 
Q 2316 531 2442 662 
Q 2569 794 2637 984 
Q 2706 1175 2706 1422 
Q 2706 1625 2640 1795 
Q 2575 1966 2453 2089 
Q 2331 2213 2154 2281 
Q 1978 2350 1753 2350 
Q 1613 2350 1494 2325 
Q 1375 2300 1273 2256 
Q 1172 2213 1089 2155 
Q 1006 2097 934 2034 
L 384 2034 
L 531 4403 
L 3034 4403 
L 3034 3925 
L 1044 3925 
L 959 2528 
Q 1109 2644 1334 2726 
Q 1559 2809 1869 2809 
Q 2197 2809 2459 2709 
Q 2722 2609 2906 2426 
Q 3091 2244 3191 1991 
Q 3291 1738 3291 1434 
z
" transform="scale(0.015625)"/>
       </defs>
       <use xlink:href="#LiberationSans-35"/>
       <use xlink:href="#LiberationSans-30" x="55.615234"/>
       <use xlink:href="#LiberationSans-30" x="111.230469"/>
       <use xlink:href="#LiberationSans-30" x="166.845703"/>
       <use xlink:href="#LiberationSans-30" x="222.460938"/>
      </g>
     </g>
    </g>
    <g id="xtick_3">
     <g id="line2d_5">
      <path d="M 318.272727 640.8 
L 318.272727 86.4 
" clip-path="url(#p27a18d78d0)" style="fill: none; stroke: #cccccc; stroke-width: 0.8; stroke-linecap: round"/>
     </g>
     <g id="line2d_6"/>
     <g id="text_3">
      <!-- 100000 -->
      <g style="fill: #262626" transform="translate(301.589915 651.546875) scale(0.1 -0.1)">
       <defs>
        <path id="LiberationSans-31" d="M 488 0 
L 488 478 
L 1609 478 
L 1609 3866 
L 616 3156 
L 616 3688 
L 1656 4403 
L 2175 4403 
L 2175 478 
L 3247 478 
L 3247 0 
L 488 0 
z
" transform="scale(0.015625)"/>
       </defs>
       <use xlink:href="#LiberationSans-31"/>
       <use xlink:href="#LiberationSans-30" x="55.615234"/>
       <use xlink:href="#LiberationSans-30" x="111.230469"/>
       <use xlink:href="#LiberationSans-30" x="166.845703"/>
       <use xlink:href="#LiberationSans-30" x="222.460938"/>
       <use xlink:href="#LiberationSans-30" x="278.076172"/>
      </g>
     </g>
    </g>
    <g id="xtick_4">
     <g id="line2d_7">
      <path d="M 419.727273 640.8 
L 419.727273 86.4 
" clip-path="url(#p27a18d78d0)" style="fill: none; stroke: #cccccc; stroke-width: 0.8; stroke-linecap: round"/>
     </g>
     <g id="line2d_8"/>
     <g id="text_4">
      <!-- 150000 -->
      <g style="fill: #262626" transform="translate(403.04446 651.546875) scale(0.1 -0.1)">
       <use xlink:href="#LiberationSans-31"/>
       <use xlink:href="#LiberationSans-35" x="55.615234"/>
       <use xlink:href="#LiberationSans-30" x="111.230469"/>
       <use xlink:href="#LiberationSans-30" x="166.845703"/>
       <use xlink:href="#LiberationSans-30" x="222.460938"/>
       <use xlink:href="#LiberationSans-30" x="278.076172"/>
      </g>
     </g>
    </g>
    <g id="xtick_5">
     <g id="line2d_9">
      <path d="M 521.181818 640.8 
L 521.181818 86.4 
" clip-path="url(#p27a18d78d0)" style="fill: none; stroke: #cccccc; stroke-width: 0.8; stroke-linecap: round"/>
     </g>
     <g id="line2d_10"/>
     <g id="text_5">
      <!-- 200000 -->
      <g style="fill: #262626" transform="translate(504.499006 651.546875) scale(0.1 -0.1)">
       <defs>
        <path id="LiberationSans-32" d="M 322 0 
L 322 397 
Q 481 763 711 1042 
Q 941 1322 1194 1548 
Q 1447 1775 1695 1969 
Q 1944 2163 2144 2356 
Q 2344 2550 2467 2762 
Q 2591 2975 2591 3244 
Q 2591 3431 2534 3573 
Q 2478 3716 2372 3812 
Q 2266 3909 2117 3957 
Q 1969 4006 1788 4006 
Q 1619 4006 1470 3959 
Q 1322 3913 1206 3819 
Q 1091 3725 1017 3586 
Q 944 3447 922 3263 
L 347 3316 
Q 375 3553 478 3762 
Q 581 3972 762 4130 
Q 944 4288 1198 4378 
Q 1453 4469 1788 4469 
Q 2116 4469 2372 4391 
Q 2628 4313 2804 4159 
Q 2981 4006 3075 3781 
Q 3169 3556 3169 3263 
Q 3169 3041 3089 2841 
Q 3009 2641 2876 2459 
Q 2744 2278 2569 2109 
Q 2394 1941 2203 1780 
Q 2013 1619 1819 1461 
Q 1625 1303 1454 1143 
Q 1284 984 1150 820 
Q 1016 656 941 478 
L 3238 478 
L 3238 0 
L 322 0 
z
" transform="scale(0.015625)"/>
       </defs>
       <use xlink:href="#LiberationSans-32"/>
       <use xlink:href="#LiberationSans-30" x="55.615234"/>
       <use xlink:href="#LiberationSans-30" x="111.230469"/>
       <use xlink:href="#LiberationSans-30" x="166.845703"/>
       <use xlink:href="#LiberationSans-30" x="222.460938"/>
       <use xlink:href="#LiberationSans-30" x="278.076172"/>
      </g>
     </g>
    </g>
    <g id="xtick_6">
     <g id="line2d_11">
      <path d="M 622.636364 640.8 
L 622.636364 86.4 
" clip-path="url(#p27a18d78d0)" style="fill: none; stroke: #cccccc; stroke-width: 0.8; stroke-linecap: round"/>
     </g>
     <g id="line2d_12"/>
     <g id="text_6">
      <!-- 250000 -->
      <g style="fill: #262626" transform="translate(605.953551 651.546875) scale(0.1 -0.1)">
       <use xlink:href="#LiberationSans-32"/>
       <use xlink:href="#LiberationSans-35" x="55.615234"/>
       <use xlink:href="#LiberationSans-30" x="111.230469"/>
       <use xlink:href="#LiberationSans-30" x="166.845703"/>
       <use xlink:href="#LiberationSans-30" x="222.460938"/>
       <use xlink:href="#LiberationSans-30" x="278.076172"/>
      </g>
     </g>
    </g>
    <g id="text_7">
     <!-- rounds -->
     <g style="fill: #262626" transform="translate(353.713281 664.86875) scale(0.1 -0.1)">
      <defs>
       <path id="LiberationSans-72" d="M 444 0 
L 444 2594 
Q 444 2700 442 2811 
Q 441 2922 437 3025 
Q 434 3128 431 3218 
Q 428 3309 425 3381 
L 956 3381 
Q 959 3309 964 3217 
Q 969 3125 973 3028 
Q 978 2931 979 2842 
Q 981 2753 981 2691 
L 994 2691 
Q 1053 2884 1120 3026 
Q 1188 3169 1278 3261 
Q 1369 3353 1494 3398 
Q 1619 3444 1797 3444 
Q 1866 3444 1928 3433 
Q 1991 3422 2025 3413 
L 2025 2897 
Q 1969 2913 1894 2920 
Q 1819 2928 1725 2928 
Q 1531 2928 1395 2840 
Q 1259 2753 1173 2598 
Q 1088 2444 1047 2230 
Q 1006 2016 1006 1763 
L 1006 0 
L 444 0 
z
" transform="scale(0.015625)"/>
       <path id="LiberationSans-6f" d="M 3291 1694 
Q 3291 806 2900 371 
Q 2509 -63 1766 -63 
Q 1413 -63 1134 43 
Q 856 150 664 369 
Q 472 588 370 917 
Q 269 1247 269 1694 
Q 269 3444 1784 3444 
Q 2178 3444 2464 3334 
Q 2750 3225 2933 3006 
Q 3116 2788 3203 2459 
Q 3291 2131 3291 1694 
z
M 2700 1694 
Q 2700 2088 2639 2344 
Q 2578 2600 2461 2753 
Q 2344 2906 2175 2967 
Q 2006 3028 1794 3028 
Q 1578 3028 1404 2964 
Q 1231 2900 1109 2745 
Q 988 2591 923 2334 
Q 859 2078 859 1694 
Q 859 1300 928 1042 
Q 997 784 1117 631 
Q 1238 478 1402 415 
Q 1566 353 1759 353 
Q 1975 353 2150 414 
Q 2325 475 2447 628 
Q 2569 781 2634 1040 
Q 2700 1300 2700 1694 
z
" transform="scale(0.015625)"/>
       <path id="LiberationSans-75" d="M 981 3381 
L 981 1238 
Q 981 991 1017 825 
Q 1053 659 1134 557 
Q 1216 456 1348 414 
Q 1481 372 1678 372 
Q 1878 372 2039 442 
Q 2200 513 2314 645 
Q 2428 778 2490 973 
Q 2553 1169 2553 1422 
L 2553 3381 
L 3116 3381 
L 3116 722 
Q 3116 616 3117 498 
Q 3119 381 3122 276 
Q 3125 172 3128 97 
Q 3131 22 3134 0 
L 2603 0 
Q 2600 16 2597 84 
Q 2594 153 2589 242 
Q 2584 331 2581 423 
Q 2578 516 2578 578 
L 2569 578 
Q 2488 431 2391 312 
Q 2294 194 2166 111 
Q 2038 28 1872 -17 
Q 1706 -63 1488 -63 
Q 1206 -63 1003 6 
Q 800 75 669 219 
Q 538 363 477 588 
Q 416 813 416 1128 
L 416 3381 
L 981 3381 
z
" transform="scale(0.015625)"/>
       <path id="LiberationSans-6e" d="M 2578 0 
L 2578 2144 
Q 2578 2391 2542 2556 
Q 2506 2722 2425 2823 
Q 2344 2925 2211 2967 
Q 2078 3009 1881 3009 
Q 1681 3009 1520 2939 
Q 1359 2869 1245 2736 
Q 1131 2603 1068 2408 
Q 1006 2213 1006 1959 
L 1006 0 
L 444 0 
L 444 2659 
Q 444 2766 442 2883 
Q 441 3000 437 3104 
Q 434 3209 431 3284 
Q 428 3359 425 3381 
L 956 3381 
Q 959 3366 962 3297 
Q 966 3228 970 3139 
Q 975 3050 978 2958 
Q 981 2866 981 2803 
L 991 2803 
Q 1072 2950 1169 3069 
Q 1266 3188 1394 3270 
Q 1522 3353 1687 3398 
Q 1853 3444 2072 3444 
Q 2353 3444 2556 3375 
Q 2759 3306 2890 3162 
Q 3022 3019 3083 2792 
Q 3144 2566 3144 2253 
L 3144 0 
L 2578 0 
z
" transform="scale(0.015625)"/>
       <path id="LiberationSans-64" d="M 2566 544 
Q 2409 219 2151 78 
Q 1894 -63 1513 -63 
Q 872 -63 570 368 
Q 269 800 269 1675 
Q 269 3444 1513 3444 
Q 1897 3444 2153 3303 
Q 2409 3163 2566 2856 
L 2572 2856 
Q 2572 2888 2570 2955 
Q 2569 3022 2567 3095 
Q 2566 3169 2566 3234 
Q 2566 3300 2566 3328 
L 2566 4638 
L 3128 4638 
L 3128 697 
Q 3128 575 3129 462 
Q 3131 350 3134 256 
Q 3138 163 3141 95 
Q 3144 28 3147 0 
L 2609 0 
Q 2603 31 2598 89 
Q 2594 147 2589 222 
Q 2584 297 2581 380 
Q 2578 463 2578 544 
L 2566 544 
z
M 859 1694 
Q 859 1344 903 1094 
Q 947 844 1044 683 
Q 1141 522 1291 447 
Q 1441 372 1656 372 
Q 1878 372 2048 444 
Q 2219 516 2333 677 
Q 2447 838 2506 1097 
Q 2566 1356 2566 1731 
Q 2566 2091 2506 2339 
Q 2447 2588 2331 2741 
Q 2216 2894 2048 2961 
Q 1881 3028 1663 3028 
Q 1456 3028 1306 2956 
Q 1156 2884 1056 2725 
Q 956 2566 907 2311 
Q 859 2056 859 1694 
z
" transform="scale(0.015625)"/>
       <path id="LiberationSans-73" d="M 2969 934 
Q 2969 697 2876 511 
Q 2784 325 2609 198 
Q 2434 72 2179 4 
Q 1925 -63 1597 -63 
Q 1303 -63 1067 -17 
Q 831 28 653 128 
Q 475 228 354 392 
Q 234 556 178 794 
L 675 891 
Q 747 619 972 492 
Q 1197 366 1597 366 
Q 1778 366 1929 391 
Q 2081 416 2190 477 
Q 2300 538 2361 639 
Q 2422 741 2422 891 
Q 2422 1044 2350 1142 
Q 2278 1241 2150 1306 
Q 2022 1372 1839 1420 
Q 1656 1469 1438 1528 
Q 1234 1581 1034 1647 
Q 834 1713 673 1820 
Q 513 1928 413 2087 
Q 313 2247 313 2488 
Q 313 2950 642 3192 
Q 972 3434 1603 3434 
Q 2163 3434 2492 3237 
Q 2822 3041 2909 2606 
L 2403 2544 
Q 2375 2675 2300 2764 
Q 2225 2853 2119 2908 
Q 2013 2963 1880 2986 
Q 1747 3009 1603 3009 
Q 1222 3009 1040 2893 
Q 859 2778 859 2544 
Q 859 2406 926 2317 
Q 994 2228 1114 2167 
Q 1234 2106 1403 2061 
Q 1572 2016 1775 1966 
Q 1909 1931 2050 1892 
Q 2191 1853 2323 1798 
Q 2456 1744 2573 1670 
Q 2691 1597 2778 1494 
Q 2866 1391 2917 1253 
Q 2969 1116 2969 934 
z
" transform="scale(0.015625)"/>
      </defs>
      <use xlink:href="#LiberationSans-72"/>
      <use xlink:href="#LiberationSans-6f" x="33.300781"/>
      <use xlink:href="#LiberationSans-75" x="88.916016"/>
      <use xlink:href="#LiberationSans-6e" x="144.53125"/>
      <use xlink:href="#LiberationSans-64" x="200.146484"/>
      <use xlink:href="#LiberationSans-73" x="255.761719"/>
     </g>
    </g>
   </g>
   <g id="matplotlib.axis_2">
    <g id="ytick_1">
     <g id="line2d_13">
      <path d="M 90 615.6 
L 648 615.6 
" clip-path="url(#p27a18d78d0)" style="fill: none; stroke: #cccccc; stroke-width: 0.8; stroke-linecap: round"/>
     </g>
     <g id="line2d_14"/>
     <g id="text_8">
      <!-- 0 -->
      <g style="fill: #262626" transform="translate(80.939063 619.223438) scale(0.1 -0.1)">
       <use xlink:href="#LiberationSans-30"/>
      </g>
     </g>
    </g>
    <g id="ytick_2">
     <g id="line2d_15">
      <path d="M 90 552.6 
L 648 552.6 
" clip-path="url(#p27a18d78d0)" style="fill: none; stroke: #cccccc; stroke-width: 0.8; stroke-linecap: round"/>
     </g>
     <g id="line2d_16"/>
     <g id="text_9">
      <!-- 50 -->
      <g style="fill: #262626" transform="translate(75.378125 556.223438) scale(0.1 -0.1)">
       <use xlink:href="#LiberationSans-35"/>
       <use xlink:href="#LiberationSans-30" x="55.615234"/>
      </g>
     </g>
    </g>
    <g id="ytick_3">
     <g id="line2d_17">
      <path d="M 90 489.6 
L 648 489.6 
" clip-path="url(#p27a18d78d0)" style="fill: none; stroke: #cccccc; stroke-width: 0.8; stroke-linecap: round"/>
     </g>
     <g id="line2d_18"/>
     <g id="text_10">
      <!-- 100 -->
      <g style="fill: #262626" transform="translate(69.817188 493.223437) scale(0.1 -0.1)">
       <use xlink:href="#LiberationSans-31"/>
       <use xlink:href="#LiberationSans-30" x="55.615234"/>
       <use xlink:href="#LiberationSans-30" x="111.230469"/>
      </g>
     </g>
    </g>
    <g id="ytick_4">
     <g id="line2d_19">
      <path d="M 90 426.6 
L 648 426.6 
" clip-path="url(#p27a18d78d0)" style="fill: none; stroke: #cccccc; stroke-width: 0.8; stroke-linecap: round"/>
     </g>
     <g id="line2d_20"/>
     <g id="text_11">
      <!-- 150 -->
      <g style="fill: #262626" transform="translate(69.817188 430.223437) scale(0.1 -0.1)">
       <use xlink:href="#LiberationSans-31"/>
       <use xlink:href="#LiberationSans-35" x="55.615234"/>
       <use xlink:href="#LiberationSans-30" x="111.230469"/>
      </g>
     </g>
    </g>
    <g id="ytick_5">
     <g id="line2d_21">
      <path d="M 90 363.6 
L 648 363.6 
" clip-path="url(#p27a18d78d0)" style="fill: none; stroke: #cccccc; stroke-width: 0.8; stroke-linecap: round"/>
     </g>
     <g id="line2d_22"/>
     <g id="text_12">
      <!-- 200 -->
      <g style="fill: #262626" transform="translate(69.817188 367.223437) scale(0.1 -0.1)">
       <use xlink:href="#LiberationSans-32"/>
       <use xlink:href="#LiberationSans-30" x="55.615234"/>
       <use xlink:href="#LiberationSans-30" x="111.230469"/>
      </g>
     </g>
    </g>
    <g id="ytick_6">
     <g id="line2d_23">
      <path d="M 90 300.6 
L 648 300.6 
" clip-path="url(#p27a18d78d0)" style="fill: none; stroke: #cccccc; stroke-width: 0.8; stroke-linecap: round"/>
     </g>
     <g id="line2d_24"/>
     <g id="text_13">
      <!-- 250 -->
      <g style="fill: #262626" transform="translate(69.817188 304.223437) scale(0.1 -0.1)">
       <use xlink:href="#LiberationSans-32"/>
       <use xlink:href="#LiberationSans-35" x="55.615234"/>
       <use xlink:href="#LiberationSans-30" x="111.230469"/>
      </g>
     </g>
    </g>
    <g id="ytick_7">
     <g id="line2d_25">
      <path d="M 90 237.6 
L 648 237.6 
" clip-path="url(#p27a18d78d0)" style="fill: none; stroke: #cccccc; stroke-width: 0.8; stroke-linecap: round"/>
     </g>
     <g id="line2d_26"/>
     <g id="text_14">
      <!-- 300 -->
      <g style="fill: #262626" transform="translate(69.817188 241.223437) scale(0.1 -0.1)">
       <defs>
        <path id="LiberationSans-33" d="M 3278 1216 
Q 3278 913 3179 675 
Q 3081 438 2892 273 
Q 2703 109 2423 23 
Q 2144 -63 1784 -63 
Q 1375 -63 1095 39 
Q 816 141 634 308 
Q 453 475 362 689 
Q 272 903 244 1131 
L 825 1184 
Q 850 1009 917 865 
Q 984 722 1100 619 
Q 1216 516 1384 459 
Q 1553 403 1784 403 
Q 2209 403 2451 612 
Q 2694 822 2694 1234 
Q 2694 1478 2586 1626 
Q 2478 1775 2317 1858 
Q 2156 1941 1967 1969 
Q 1778 1997 1619 1997 
L 1300 1997 
L 1300 2484 
L 1606 2484 
Q 1766 2484 1937 2517 
Q 2109 2550 2251 2636 
Q 2394 2722 2486 2869 
Q 2578 3016 2578 3244 
Q 2578 3597 2370 3801 
Q 2163 4006 1753 4006 
Q 1381 4006 1151 3815 
Q 922 3625 884 3278 
L 319 3322 
Q 353 3613 478 3828 
Q 603 4044 795 4186 
Q 988 4328 1234 4398 
Q 1481 4469 1759 4469 
Q 2128 4469 2393 4376 
Q 2659 4284 2828 4126 
Q 2997 3969 3076 3756 
Q 3156 3544 3156 3303 
Q 3156 3109 3103 2940 
Q 3050 2772 2937 2637 
Q 2825 2503 2651 2406 
Q 2478 2309 2234 2259 
L 2234 2247 
Q 2500 2219 2697 2126 
Q 2894 2034 3022 1896 
Q 3150 1759 3214 1584 
Q 3278 1409 3278 1216 
z
" transform="scale(0.015625)"/>
       </defs>
       <use xlink:href="#LiberationSans-33"/>
       <use xlink:href="#LiberationSans-30" x="55.615234"/>
       <use xlink:href="#LiberationSans-30" x="111.230469"/>
      </g>
     </g>
    </g>
    <g id="ytick_8">
     <g id="line2d_27">
      <path d="M 90 174.6 
L 648 174.6 
" clip-path="url(#p27a18d78d0)" style="fill: none; stroke: #cccccc; stroke-width: 0.8; stroke-linecap: round"/>
     </g>
     <g id="line2d_28"/>
     <g id="text_15">
      <!-- 350 -->
      <g style="fill: #262626" transform="translate(69.817188 178.223437) scale(0.1 -0.1)">
       <use xlink:href="#LiberationSans-33"/>
       <use xlink:href="#LiberationSans-35" x="55.615234"/>
       <use xlink:href="#LiberationSans-30" x="111.230469"/>
      </g>
     </g>
    </g>
    <g id="ytick_9">
     <g id="line2d_29">
      <path d="M 90 111.6 
L 648 111.6 
" clip-path="url(#p27a18d78d0)" style="fill: none; stroke: #cccccc; stroke-width: 0.8; stroke-linecap: round"/>
     </g>
     <g id="line2d_30"/>
     <g id="text_16">
      <!-- 400 -->
      <g style="fill: #262626" transform="translate(69.817188 115.223437) scale(0.1 -0.1)">
       <defs>
        <path id="LiberationSans-34" d="M 2753 997 
L 2753 0 
L 2222 0 
L 2222 997 
L 147 997 
L 147 1434 
L 2163 4403 
L 2753 4403 
L 2753 1441 
L 3372 1441 
L 3372 997 
L 2753 997 
z
M 2222 3769 
Q 2216 3753 2191 3708 
Q 2166 3663 2134 3606 
Q 2103 3550 2070 3492 
Q 2038 3434 2013 3397 
L 884 1734 
Q 869 1709 839 1668 
Q 809 1628 778 1586 
Q 747 1544 715 1503 
Q 684 1463 666 1441 
L 2222 1441 
L 2222 3769 
z
" transform="scale(0.015625)"/>
       </defs>
       <use xlink:href="#LiberationSans-34"/>
       <use xlink:href="#LiberationSans-30" x="55.615234"/>
       <use xlink:href="#LiberationSans-30" x="111.230469"/>
      </g>
     </g>
    </g>
    <g id="text_17">
     <!-- Energy -->
     <g style="fill: #262626" transform="translate(63.742188 379.441406) rotate(-90) scale(0.1 -0.1)">
      <defs>
       <path id="LiberationSans-45" d="M 525 0 
L 525 4403 
L 3866 4403 
L 3866 3916 
L 1122 3916 
L 1122 2503 
L 3678 2503 
L 3678 2022 
L 1122 2022 
L 1122 488 
L 3994 488 
L 3994 0 
L 525 0 
z
" transform="scale(0.015625)"/>
       <path id="LiberationSans-65" d="M 863 1572 
Q 863 1306 917 1082 
Q 972 859 1086 698 
Q 1200 538 1378 448 
Q 1556 359 1806 359 
Q 2172 359 2392 506 
Q 2613 653 2691 878 
L 3184 738 
Q 3131 597 3036 455 
Q 2941 313 2781 198 
Q 2622 84 2383 10 
Q 2144 -63 1806 -63 
Q 1056 -63 664 384 
Q 272 831 272 1713 
Q 272 2188 390 2517 
Q 509 2847 715 3053 
Q 922 3259 1197 3351 
Q 1472 3444 1784 3444 
Q 2209 3444 2495 3306 
Q 2781 3169 2954 2926 
Q 3128 2684 3201 2356 
Q 3275 2028 3275 1647 
L 3275 1572 
L 863 1572 
z
M 2694 2003 
Q 2647 2538 2422 2783 
Q 2197 3028 1775 3028 
Q 1634 3028 1479 2983 
Q 1325 2938 1194 2822 
Q 1063 2706 972 2507 
Q 881 2309 869 2003 
L 2694 2003 
z
" transform="scale(0.015625)"/>
       <path id="LiberationSans-67" d="M 1713 -1328 
Q 1422 -1328 1197 -1268 
Q 972 -1209 812 -1098 
Q 653 -988 553 -834 
Q 453 -681 409 -494 
L 975 -413 
Q 1031 -647 1223 -773 
Q 1416 -900 1728 -900 
Q 1919 -900 2075 -847 
Q 2231 -794 2340 -676 
Q 2450 -559 2509 -371 
Q 2569 -184 2569 84 
L 2569 628 
L 2563 628 
Q 2500 500 2408 383 
Q 2316 266 2183 175 
Q 2050 84 1875 29 
Q 1700 -25 1475 -25 
Q 1153 -25 923 83 
Q 694 191 548 406 
Q 403 622 336 942 
Q 269 1263 269 1684 
Q 269 2091 336 2416 
Q 403 2741 554 2967 
Q 706 3194 948 3314 
Q 1191 3434 1538 3434 
Q 1897 3434 2161 3270 
Q 2425 3106 2569 2803 
L 2575 2803 
Q 2575 2881 2579 2978 
Q 2584 3075 2589 3161 
Q 2594 3247 2600 3309 
Q 2606 3372 2613 3381 
L 3147 3381 
Q 3144 3353 3141 3286 
Q 3138 3219 3134 3125 
Q 3131 3031 3129 2917 
Q 3128 2803 3128 2681 
L 3128 97 
Q 3128 -613 2779 -970 
Q 2431 -1328 1713 -1328 
z
M 2569 1691 
Q 2569 2044 2492 2295 
Q 2416 2547 2291 2706 
Q 2166 2866 2005 2941 
Q 1844 3016 1675 3016 
Q 1459 3016 1304 2941 
Q 1150 2866 1048 2705 
Q 947 2544 898 2292 
Q 850 2041 850 1691 
Q 850 1325 898 1076 
Q 947 828 1047 675 
Q 1147 522 1300 456 
Q 1453 391 1666 391 
Q 1834 391 1995 462 
Q 2156 534 2284 690 
Q 2413 847 2491 1094 
Q 2569 1341 2569 1691 
z
" transform="scale(0.015625)"/>
       <path id="LiberationSans-79" d="M 1888 0 
Q 1769 -306 1645 -551 
Q 1522 -797 1369 -970 
Q 1216 -1144 1028 -1236 
Q 841 -1328 597 -1328 
Q 491 -1328 400 -1322 
Q 309 -1316 209 -1294 
L 209 -872 
Q 269 -881 344 -886 
Q 419 -891 472 -891 
Q 719 -891 931 -706 
Q 1144 -522 1303 -119 
L 1356 16 
L 16 3381 
L 616 3381 
L 1328 1513 
Q 1359 1428 1407 1287 
Q 1456 1147 1504 1006 
Q 1553 866 1590 753 
Q 1628 641 1634 613 
Q 1644 647 1680 748 
Q 1716 850 1761 975 
Q 1806 1100 1853 1228 
Q 1900 1356 1931 1450 
L 2594 3381 
L 3188 3381 
L 1888 0 
z
" transform="scale(0.015625)"/>
      </defs>
      <use xlink:href="#LiberationSans-45"/>
      <use xlink:href="#LiberationSans-6e" x="66.699219"/>
      <use xlink:href="#LiberationSans-65" x="122.314453"/>
      <use xlink:href="#LiberationSans-72" x="177.929688"/>
      <use xlink:href="#LiberationSans-67" x="211.230469"/>
      <use xlink:href="#LiberationSans-79" x="266.845703"/>
     </g>
    </g>
   </g>
   <g id="line2d_31">
    <path d="M 115.363636 111.6 
L 127.568618 149.428819 
L 133.452982 166.112155 
L 139.554458 181.63999 
L 142.261265 188.052571 
L 146.254516 196.699212 
L 150.700255 205.963768 
L 154.604225 213.360734 
L 158.136873 219.347983 
L 162.832189 226.813471 
L 168.255949 235.02201 
L 172.289782 240.589584 
L 180.519775 251.401835 
L 184.354756 256.185586 
L 190.279702 263.233388 
L 198.314902 272.56782 
L 203.588509 278.387717 
L 211.749513 287.124687 
L 225.721833 301.450001 
L 234.126327 309.610752 
L 246.828436 321.605954 
L 256.419949 330.43253 
L 266.715556 339.633315 
L 273.862015 345.731401 
L 281.765324 352.234643 
L 288.11232 357.185572 
L 622.636364 615.6 
L 622.636364 615.6 
" clip-path="url(#p27a18d78d0)" style="fill: none; stroke-dasharray: 3.7,1.6; stroke-dashoffset: 0; stroke: #1f77b4"/>
    <defs>
     <path id="mf8bc918f8f" d="M 0 3 
C 0.795609 3 1.55874 2.683901 2.12132 2.12132 
C 2.683901 1.55874 3 0.795609 3 0 
C 3 -0.795609 2.683901 -1.55874 2.12132 -2.12132 
C 1.55874 -2.683901 0.795609 -3 0 -3 
C -0.795609 -3 -1.55874 -2.683901 -2.12132 -2.12132 
C -2.683901 -1.55874 -3 -0.795609 -3 0 
C -3 0.795609 -2.683901 1.55874 -2.12132 2.12132 
C -1.55874 2.683901 -0.795609 3 0 3 
z
" style="stroke: #1f77b4"/>
    </defs>
    <g clip-path="url(#p27a18d78d0)">
     <use xlink:href="#mf8bc918f8f" x="115.363636" y="111.6" style="fill: #1f77b4; stroke: #1f77b4"/>
     <use xlink:href="#mf8bc918f8f" x="141.287302" y="185.831478" style="fill: #1f77b4; stroke: #1f77b4"/>
     <use xlink:href="#mf8bc918f8f" x="181.745345" y="252.973484" style="fill: #1f77b4; stroke: #1f77b4"/>
     <use xlink:href="#mf8bc918f8f" x="235.179425" y="310.617989" style="fill: #1f77b4; stroke: #1f77b4"/>
     <use xlink:href="#mf8bc918f8f" x="294.54048" y="362.151222" style="fill: #1f77b4; stroke: #1f77b4"/>
     <use xlink:href="#mf8bc918f8f" x="356.79096" y="410.238714" style="fill: #1f77b4; stroke: #1f77b4"/>
     <use xlink:href="#mf8bc918f8f" x="419.039411" y="458.324638" style="fill: #1f77b4; stroke: #1f77b4"/>
     <use xlink:href="#mf8bc918f8f" x="481.287862" y="506.410562" style="fill: #1f77b4; stroke: #1f77b4"/>
     <use xlink:href="#mf8bc918f8f" x="543.536313" y="554.496486" style="fill: #1f77b4; stroke: #1f77b4"/>
     <use xlink:href="#mf8bc918f8f" x="605.786793" y="602.583978" style="fill: #1f77b4; stroke: #1f77b4"/>
    </g>
   </g>
   <g id="line2d_32">
    <path d="M 115.363636 111.6 
L 115.592924 158.819413 
L 115.870909 175.731496 
L 116.420793 195.128181 
L 117.005171 207.067379 
L 117.443455 212.504305 
L 117.865505 215.882802 
L 118.642647 220.445039 
L 119.691687 224.835341 
L 122.122538 233.359321 
L 123.701171 237.824557 
L 125.620691 242.448224 
L 128.041396 247.453466 
L 134.467527 260.439122 
L 139.112116 268.7947 
L 143.018116 274.92862 
L 150.517636 285.524454 
L 158.804444 296.622874 
L 162.223462 300.691576 
L 171.741927 311.538052 
L 176.197811 316.121081 
L 179.588422 319.356095 
L 191.714269 330.354931 
L 202.340618 339.605822 
L 213.076538 348.626546 
L 218.333913 352.761491 
L 244.194676 372.36553 
L 258.684415 382.990398 
L 270.357775 391.103804 
L 281.266167 398.490771 
L 292.941556 405.956644 
L 622.636364 615.6 
L 622.636364 615.6 
" clip-path="url(#p27a18d78d0)" style="fill: none; stroke-dasharray: 3.7,1.6; stroke-dashoffset: 0; stroke: #ff7f0e"/>
    <defs>
     <path id="m7c322cd025" d="M 0 -3 
L -3 3 
L 3 3 
z
" style="stroke: #ff7f0e; stroke-linejoin: miter"/>
    </defs>
    <g clip-path="url(#p27a18d78d0)">
     <use xlink:href="#m7c322cd025" x="115.363636" y="111.6" style="fill: #ff7f0e; stroke: #ff7f0e; stroke-linejoin: miter"/>
     <use xlink:href="#m7c322cd025" x="116.246291" y="190.281792" style="fill: #ff7f0e; stroke: #ff7f0e; stroke-linejoin: miter"/>
     <use xlink:href="#m7c322cd025" x="136.922727" y="264.979328" style="fill: #ff7f0e; stroke: #ff7f0e; stroke-linejoin: miter"/>
     <use xlink:href="#m7c322cd025" x="186.454865" y="325.669788" style="fill: #ff7f0e; stroke: #ff7f0e; stroke-linejoin: miter"/>
     <use xlink:href="#m7c322cd025" x="247.696887" y="374.967044" style="fill: #ff7f0e; stroke: #ff7f0e; stroke-linejoin: miter"/>
     <use xlink:href="#m7c322cd025" x="313.027527" y="418.72873" style="fill: #ff7f0e; stroke: #ff7f0e; stroke-linejoin: miter"/>
     <use xlink:href="#m7c322cd025" x="379.405178" y="460.936351" style="fill: #ff7f0e; stroke: #ff7f0e; stroke-linejoin: miter"/>
     <use xlink:href="#m7c322cd025" x="445.7808" y="503.142682" style="fill: #ff7f0e; stroke: #ff7f0e; stroke-linejoin: miter"/>
     <use xlink:href="#m7c322cd025" x="512.156422" y="545.349012" style="fill: #ff7f0e; stroke: #ff7f0e; stroke-linejoin: miter"/>
     <use xlink:href="#m7c322cd025" x="578.534073" y="587.556634" style="fill: #ff7f0e; stroke: #ff7f0e; stroke-linejoin: miter"/>
    </g>
   </g>
   <g id="line2d_33">
    <path d="M 115.363636 111.6 
L 115.48944 156.025082 
L 115.730902 173.330958 
L 116.019033 181.183822 
L 116.453258 186.803997 
L 117.031549 192.180767 
L 117.865505 198.295851 
L 119.847927 208.696573 
L 121.260175 214.218844 
L 123.356225 221.628215 
L 124.849636 226.275623 
L 129.333927 238.526082 
L 131.257505 243.221131 
L 133.61328 248.460931 
L 140.629876 263.087579 
L 142.283585 266.154259 
L 145.810145 272.127804 
L 149.0364 277.175163 
L 152.386429 281.916218 
L 157.990778 289.388483 
L 161.6472 293.971575 
L 166.555571 299.7746 
L 172.470371 306.352953 
L 176.928284 311.063531 
L 181.968545 316.093156 
L 189.831273 323.529911 
L 207.074487 339.406568 
L 218.895971 350.062677 
L 229.942342 359.67023 
L 240.889287 368.697569 
L 253.043542 378.390163 
L 260.094633 383.754249 
L 269.515702 390.71522 
L 278.486313 397.110322 
L 284.677069 401.239362 
L 459.103811 512.020591 
L 622.636364 615.6 
L 622.636364 615.6 
" clip-path="url(#p27a18d78d0)" style="fill: none; stroke-dasharray: 3.7,1.6; stroke-dashoffset: 0; stroke: #2ca02c"/>
    <defs>
     <path id="mb96d56331a" d="M -3 3 
L 3 -3 
M -3 -3 
L 3 3 
" style="stroke: #2ca02c"/>
    </defs>
    <g clip-path="url(#p27a18d78d0)">
     <use xlink:href="#mb96d56331a" x="115.363636" y="111.6" style="fill: #2ca02c; stroke: #2ca02c"/>
     <use xlink:href="#mb96d56331a" x="116.800233" y="190.222246" style="fill: #2ca02c; stroke: #2ca02c"/>
     <use xlink:href="#mb96d56331a" x="141.346145" y="264.460571" style="fill: #2ca02c; stroke: #2ca02c"/>
     <use xlink:href="#mb96d56331a" x="191.227287" y="324.827569" style="fill: #2ca02c; stroke: #2ca02c"/>
     <use xlink:href="#mb96d56331a" x="250.553847" y="376.435501" style="fill: #2ca02c; stroke: #2ca02c"/>
     <use xlink:href="#mb96d56331a" x="315.444175" y="420.803271" style="fill: #2ca02c; stroke: #2ca02c"/>
     <use xlink:href="#mb96d56331a" x="381.821825" y="463.010892" style="fill: #2ca02c; stroke: #2ca02c"/>
     <use xlink:href="#mb96d56331a" x="448.244116" y="505.142201" style="fill: #2ca02c; stroke: #2ca02c"/>
     <use xlink:href="#mb96d56331a" x="514.694815" y="547.231216" style="fill: #2ca02c; stroke: #2ca02c"/>
     <use xlink:href="#mb96d56331a" x="581.147542" y="589.321516" style="fill: #2ca02c; stroke: #2ca02c"/>
    </g>
   </g>
   <g id="line2d_34">
    <path d="M 115.363636 111.6 
L 116.497898 135.61374 
L 117.938553 159.335586 
L 120.069098 184.891138 
L 121.759331 202.294171 
L 123.544931 217.768029 
L 125.111389 229.68693 
L 126.517549 238.648642 
L 127.852691 245.909786 
L 129.790473 255.194223 
L 131.789127 263.544021 
L 134.222007 272.854277 
L 138.101629 286.59816 
L 140.613644 294.522743 
L 142.758393 300.795066 
L 145.436793 307.59593 
L 147.717491 312.789594 
L 152.74152 323.394397 
L 157.363789 332.506496 
L 159.573469 336.465862 
L 163.816298 343.674351 
L 169.536305 352.713123 
L 172.510953 357.033148 
L 175.578938 361.156542 
L 178.161971 364.224364 
L 182.027389 368.438055 
L 192.146465 378.766642 
L 197.15832 383.62935 
L 202.87224 388.750364 
L 211.999091 396.352914 
L 224.855411 406.602156 
L 253.007018 428.855247 
L 257.426378 431.945635 
L 262.137927 434.915154 
L 267.531251 438.008142 
L 273.194444 441.025451 
L 283.088291 446.069582 
L 300.891535 454.966299 
L 622.636364 615.6 
L 622.636364 615.6 
" clip-path="url(#p27a18d78d0)" style="fill: none; stroke-dasharray: 3.7,1.6; stroke-dashoffset: 0; stroke: #d62728"/>
    <defs>
     <path id="m4e0306e12f" d="M -3 3 
L 3 3 
L 3 -3 
L -3 -3 
z
" style="stroke: #d62728; stroke-linejoin: miter"/>
    </defs>
    <g clip-path="url(#p27a18d78d0)">
     <use xlink:href="#m4e0306e12f" x="115.363636" y="111.6" style="fill: #d62728; stroke: #d62728; stroke-linejoin: miter"/>
     <use xlink:href="#m4e0306e12f" x="120.539847" y="190.080489" style="fill: #d62728; stroke: #d62728; stroke-linejoin: miter"/>
     <use xlink:href="#m4e0306e12f" x="132.834109" y="267.669193" style="fill: #d62728; stroke: #d62728; stroke-linejoin: miter"/>
     <use xlink:href="#m4e0306e12f" x="161.878516" y="340.443925" style="fill: #d62728; stroke: #d62728; stroke-linejoin: miter"/>
     <use xlink:href="#m4e0306e12f" x="214.401535" y="398.285959" style="fill: #d62728; stroke: #d62728; stroke-linejoin: miter"/>
     <use xlink:href="#m4e0306e12f" x="278.370655" y="443.679057" style="fill: #d62728; stroke: #d62728; stroke-linejoin: miter"/>
     <use xlink:href="#m4e0306e12f" x="348.729382" y="478.84973" style="fill: #d62728; stroke: #d62728; stroke-linejoin: miter"/>
     <use xlink:href="#m4e0306e12f" x="419.104342" y="513.984997" style="fill: #d62728; stroke: #d62728; stroke-linejoin: miter"/>
     <use xlink:href="#m4e0306e12f" x="489.481331" y="549.121276" style="fill: #d62728; stroke: #d62728; stroke-linejoin: miter"/>
     <use xlink:href="#m4e0306e12f" x="559.856291" y="584.256542" style="fill: #d62728; stroke: #d62728; stroke-linejoin: miter"/>
    </g>
   </g>
   <g id="line2d_35">
    <path d="M 115.363636 121.715824 
L 115.542196 461.803242 
L 115.767425 513.450147 
L 116.077876 537.987698 
L 116.528335 554.966365 
L 117.013287 565.026243 
L 117.72144 574.070248 
L 118.330167 579.390291 
L 118.922662 583.145766 
L 118.922662 583.145766 
" clip-path="url(#p27a18d78d0)" style="fill: none; stroke-dasharray: 3.7,1.6; stroke-dashoffset: 0; stroke: #9467bd"/>
    <defs>
     <path id="m060aa0a875" d="M -0 4.242641 
L 2.545584 0 
L 0 -4.242641 
L -2.545584 -0 
z
" style="stroke: #9467bd; stroke-linejoin: miter"/>
    </defs>
    <g clip-path="url(#p27a18d78d0)">
     <use xlink:href="#m060aa0a875" x="115.363636" y="121.715824" style="fill: #9467bd; stroke: #9467bd; stroke-linejoin: miter"/>
     <use xlink:href="#m060aa0a875" x="115.495527" y="436.147303" style="fill: #9467bd; stroke: #9467bd; stroke-linejoin: miter"/>
    </g>
   </g>
   <g id="line2d_36">
    <path d="M 115.363636 111.611919 
L 117.658538 124.431821 
L 118.969331 130.350782 
L 119.793142 133.372881 
L 121.534102 137.089393 
L 121.536131 125.443909 
L 121.645702 125.689579 
L 129.411033 142.827966 
L 131.553753 146.155532 
L 134.873345 151.047334 
L 134.875375 145.648594 
L 134.984945 145.796686 
L 152.335702 169.060675 
L 157.637716 173.7186 
L 157.639745 166.606985 
L 157.749316 166.711051 
L 166.08888 174.631637 
L 166.090909 177.728591 
L 166.092938 157.684415 
L 166.188305 157.771047 
L 179.34696 169.575201 
L 200.599658 178.723057 
L 242.179789 182.772408 
L 242.179789 182.772408 
" clip-path="url(#p27a18d78d0)" style="fill: none; stroke-dasharray: 5.55,2.4; stroke-dashoffset: 0; stroke: #8c564b; stroke-width: 1.5"/>
    <defs>
     <path id="mcfb617be14" d="M -0 3 
L 3 -3 
L -3 -3 
z
" style="stroke: #8c564b; stroke-linejoin: miter"/>
    </defs>
    <g clip-path="url(#p27a18d78d0)">
     <use xlink:href="#mcfb617be14" x="115.363636" y="111.611919" style="fill: #8c564b; stroke: #8c564b; stroke-linejoin: miter"/>
     <use xlink:href="#mcfb617be14" x="138.621076" y="150.711138" style="fill: #8c564b; stroke: #8c564b; stroke-linejoin: miter"/>
     <use xlink:href="#mcfb617be14" x="171.068269" y="162.204013" style="fill: #8c564b; stroke: #8c564b; stroke-linejoin: miter"/>
    </g>
   </g>
   <g id="line2d_37">
    <path d="M 115.363636 111.603424 
L 166.08888 197.191725 
L 166.090909 197.77461 
L 166.090909 197.77461 
" clip-path="url(#p27a18d78d0)" style="fill: none; stroke-dasharray: 5.55,2.4; stroke-dashoffset: 0; stroke: #e377c2; stroke-width: 1.5"/>
    <defs>
     <path id="mf204c011d9" d="M -1 3 
L 1 3 
L 1 1 
L 3 1 
L 3 -1 
L 1 -1 
L 1 -3 
L -1 -3 
L -1 -1 
L -3 -1 
L -3 1 
L -1 1 
z
" style="stroke: #e377c2; stroke-linejoin: miter"/>
    </defs>
    <g clip-path="url(#p27a18d78d0)">
     <use xlink:href="#mf204c011d9" x="115.363636" y="111.603424" style="fill: #e377c2; stroke: #e377c2; stroke-linejoin: miter"/>
    </g>
   </g>
   <g id="patch_3">
    <path d="M 90 640.8 
L 90 86.4 
" style="fill: none; stroke: #cccccc; stroke-linejoin: miter; stroke-linecap: square"/>
   </g>
   <g id="patch_4">
    <path d="M 648 640.8 
L 648 86.4 
" style="fill: none; stroke: #cccccc; stroke-linejoin: miter; stroke-linecap: square"/>
   </g>
   <g id="patch_5">
    <path d="M 90 640.8 
L 648 640.8 
" style="fill: none; stroke: #cccccc; stroke-linejoin: miter; stroke-linecap: square"/>
   </g>
   <g id="patch_6">
    <path d="M 90 86.4 
L 648 86.4 
" style="fill: none; stroke: #cccccc; stroke-linejoin: miter; stroke-linecap: square"/>
   </g>
   <g id="text_18">
    <!-- Energy v/s rounds in Federated Learning -->
    <g style="fill: #262626" transform="translate(260.27625 80.4) scale(0.12 -0.12)">
     <defs>
      <path id="LiberationSans-20" transform="scale(0.015625)"/>
      <path id="LiberationSans-76" d="M 1916 0 
L 1250 0 
L 22 3381 
L 622 3381 
L 1366 1181 
Q 1388 1113 1417 1014 
Q 1447 916 1478 809 
Q 1509 703 1536 604 
Q 1563 506 1581 441 
Q 1600 506 1629 604 
Q 1659 703 1690 806 
Q 1722 909 1755 1007 
Q 1788 1106 1813 1175 
L 2581 3381 
L 3178 3381 
L 1916 0 
z
" transform="scale(0.015625)"/>
      <path id="LiberationSans-2f" d="M 0 -63 
L 1284 4638 
L 1778 4638 
L 506 -63 
L 0 -63 
z
" transform="scale(0.015625)"/>
      <path id="LiberationSans-69" d="M 428 4100 
L 428 4638 
L 991 4638 
L 991 4100 
L 428 4100 
z
M 428 0 
L 428 3381 
L 991 3381 
L 991 0 
L 428 0 
z
" transform="scale(0.015625)"/>
      <path id="LiberationSans-46" d="M 1122 3916 
L 1122 2278 
L 3578 2278 
L 3578 1784 
L 1122 1784 
L 1122 0 
L 525 0 
L 525 4403 
L 3653 4403 
L 3653 3916 
L 1122 3916 
z
" transform="scale(0.015625)"/>
      <path id="LiberationSans-61" d="M 1294 -63 
Q 784 -63 528 206 
Q 272 475 272 944 
Q 272 1278 398 1492 
Q 525 1706 729 1828 
Q 934 1950 1196 1997 
Q 1459 2044 1731 2050 
L 2491 2063 
L 2491 2247 
Q 2491 2456 2447 2603 
Q 2403 2750 2312 2840 
Q 2222 2931 2086 2973 
Q 1950 3016 1766 3016 
Q 1603 3016 1472 2992 
Q 1341 2969 1244 2908 
Q 1147 2847 1087 2742 
Q 1028 2638 1009 2478 
L 422 2531 
Q 453 2731 540 2898 
Q 628 3066 789 3187 
Q 950 3309 1192 3376 
Q 1434 3444 1778 3444 
Q 2416 3444 2737 3151 
Q 3059 2859 3059 2306 
L 3059 850 
Q 3059 600 3125 473 
Q 3191 347 3375 347 
Q 3422 347 3469 353 
Q 3516 359 3559 369 
L 3559 19 
Q 3453 -6 3348 -18 
Q 3244 -31 3125 -31 
Q 2966 -31 2852 11 
Q 2738 53 2666 139 
Q 2594 225 2556 351 
Q 2519 478 2509 647 
L 2491 647 
Q 2400 484 2292 353 
Q 2184 222 2040 130 
Q 1897 38 1714 -12 
Q 1531 -63 1294 -63 
z
M 1422 359 
Q 1691 359 1892 457 
Q 2094 556 2226 709 
Q 2359 863 2425 1044 
Q 2491 1225 2491 1391 
L 2491 1669 
L 1875 1656 
Q 1669 1653 1483 1626 
Q 1297 1600 1156 1522 
Q 1016 1444 933 1303 
Q 850 1163 850 934 
Q 850 659 998 509 
Q 1147 359 1422 359 
z
" transform="scale(0.015625)"/>
      <path id="LiberationSans-74" d="M 1731 25 
Q 1603 -9 1470 -29 
Q 1338 -50 1163 -50 
Q 488 -50 488 716 
L 488 2972 
L 97 2972 
L 97 3381 
L 509 3381 
L 675 4138 
L 1050 4138 
L 1050 3381 
L 1675 3381 
L 1675 2972 
L 1050 2972 
L 1050 838 
Q 1050 594 1129 495 
Q 1209 397 1406 397 
Q 1488 397 1564 409 
Q 1641 422 1731 441 
L 1731 25 
z
" transform="scale(0.015625)"/>
      <path id="LiberationSans-4c" d="M 525 0 
L 525 4403 
L 1122 4403 
L 1122 488 
L 3347 488 
L 3347 0 
L 525 0 
z
" transform="scale(0.015625)"/>
     </defs>
     <use xlink:href="#LiberationSans-45"/>
     <use xlink:href="#LiberationSans-6e" x="66.699219"/>
     <use xlink:href="#LiberationSans-65" x="122.314453"/>
     <use xlink:href="#LiberationSans-72" x="177.929688"/>
     <use xlink:href="#LiberationSans-67" x="211.230469"/>
     <use xlink:href="#LiberationSans-79" x="266.845703"/>
     <use xlink:href="#LiberationSans-20" x="316.845703"/>
     <use xlink:href="#LiberationSans-76" x="344.628906"/>
     <use xlink:href="#LiberationSans-2f" x="394.628906"/>
     <use xlink:href="#LiberationSans-73" x="422.412109"/>
     <use xlink:href="#LiberationSans-20" x="472.412109"/>
     <use xlink:href="#LiberationSans-72" x="500.195312"/>
     <use xlink:href="#LiberationSans-6f" x="533.496094"/>
     <use xlink:href="#LiberationSans-75" x="589.111328"/>
     <use xlink:href="#LiberationSans-6e" x="644.726562"/>
     <use xlink:href="#LiberationSans-64" x="700.341797"/>
     <use xlink:href="#LiberationSans-73" x="755.957031"/>
     <use xlink:href="#LiberationSans-20" x="805.957031"/>
     <use xlink:href="#LiberationSans-69" x="833.740234"/>
     <use xlink:href="#LiberationSans-6e" x="855.957031"/>
     <use xlink:href="#LiberationSans-20" x="911.572266"/>
     <use xlink:href="#LiberationSans-46" x="939.355469"/>
     <use xlink:href="#LiberationSans-65" x="1000.439453"/>
     <use xlink:href="#LiberationSans-64" x="1056.054688"/>
     <use xlink:href="#LiberationSans-65" x="1111.669922"/>
     <use xlink:href="#LiberationSans-72" x="1167.285156"/>
     <use xlink:href="#LiberationSans-61" x="1200.585938"/>
     <use xlink:href="#LiberationSans-74" x="1256.201172"/>
     <use xlink:href="#LiberationSans-65" x="1283.984375"/>
     <use xlink:href="#LiberationSans-64" x="1339.599609"/>
     <use xlink:href="#LiberationSans-20" x="1395.214844"/>
     <use xlink:href="#LiberationSans-4c" x="1422.998047"/>
     <use xlink:href="#LiberationSans-65" x="1478.613281"/>
     <use xlink:href="#LiberationSans-61" x="1534.228516"/>
     <use xlink:href="#LiberationSans-72" x="1589.84375"/>
     <use xlink:href="#LiberationSans-6e" x="1623.144531"/>
     <use xlink:href="#LiberationSans-69" x="1678.759766"/>
     <use xlink:href="#LiberationSans-6e" x="1700.976562"/>
     <use xlink:href="#LiberationSans-67" x="1756.591797"/>
    </g>
   </g>
   <g id="legend_1">
    <g id="line2d_38">
     <path d="M 538.457813 99.146875 
L 548.457813 99.146875 
L 558.457813 99.146875 
" style="fill: none; stroke-dasharray: 3.7,1.6; stroke-dashoffset: 0; stroke: #1f77b4"/>
     <g>
      <use xlink:href="#mf8bc918f8f" x="548.457813" y="99.146875" style="fill: #1f77b4; stroke: #1f77b4"/>
     </g>
    </g>
    <g id="text_19">
     <!-- gsw -->
     <g style="fill: #262626" transform="translate(566.457813 102.646875) scale(0.1 -0.1)">
      <defs>
       <path id="LiberationSans-77" d="M 3669 0 
L 3016 0 
L 2475 2181 
Q 2450 2266 2423 2391 
Q 2397 2516 2372 2634 
Q 2341 2772 2313 2919 
Q 2284 2778 2253 2641 
Q 2228 2522 2198 2394 
Q 2169 2266 2144 2169 
L 1588 0 
L 938 0 
L -9 3381 
L 547 3381 
L 1119 1084 
Q 1141 1013 1162 908 
Q 1184 803 1206 703 
Q 1228 588 1253 466 
Q 1278 584 1306 697 
Q 1331 794 1356 894 
Q 1381 994 1400 1059 
L 2013 3381 
L 2616 3381 
L 3206 1059 
Q 3228 978 3253 875 
Q 3278 772 3300 681 
Q 3325 575 3350 466 
Q 3375 584 3400 697 
Q 3422 794 3445 898 
Q 3469 1003 3491 1084 
L 4088 3381 
L 4638 3381 
L 3669 0 
z
" transform="scale(0.015625)"/>
      </defs>
      <use xlink:href="#LiberationSans-67"/>
      <use xlink:href="#LiberationSans-73" x="55.615234"/>
      <use xlink:href="#LiberationSans-77" x="105.615234"/>
     </g>
    </g>
    <g id="line2d_39">
     <path d="M 538.457813 113.46875 
L 548.457813 113.46875 
L 558.457813 113.46875 
" style="fill: none; stroke-dasharray: 3.7,1.6; stroke-dashoffset: 0; stroke: #ff7f0e"/>
     <g>
      <use xlink:href="#m7c322cd025" x="548.457813" y="113.46875" style="fill: #ff7f0e; stroke: #ff7f0e; stroke-linejoin: miter"/>
     </g>
    </g>
    <g id="text_20">
     <!-- nsw -->
     <g style="fill: #262626" transform="translate(566.457813 116.96875) scale(0.1 -0.1)">
      <use xlink:href="#LiberationSans-6e"/>
      <use xlink:href="#LiberationSans-73" x="55.615234"/>
      <use xlink:href="#LiberationSans-77" x="105.615234"/>
     </g>
    </g>
    <g id="line2d_40">
     <path d="M 538.457813 127.790625 
L 548.457813 127.790625 
L 558.457813 127.790625 
" style="fill: none; stroke-dasharray: 3.7,1.6; stroke-dashoffset: 0; stroke: #2ca02c"/>
     <g>
      <use xlink:href="#mb96d56331a" x="548.457813" y="127.790625" style="fill: #2ca02c; stroke: #2ca02c"/>
     </g>
    </g>
    <g id="text_21">
     <!-- ppo -->
     <g style="fill: #262626" transform="translate(566.457813 131.290625) scale(0.1 -0.1)">
      <defs>
       <path id="LiberationSans-70" d="M 3291 1706 
Q 3291 1322 3228 997 
Q 3166 672 3020 437 
Q 2875 203 2636 70 
Q 2397 -63 2047 -63 
Q 1684 -63 1412 75 
Q 1141 213 997 525 
L 981 525 
Q 984 519 986 469 
Q 988 419 989 344 
Q 991 269 992 176 
Q 994 84 994 -6 
L 994 -1328 
L 431 -1328 
L 431 2691 
Q 431 2813 429 2925 
Q 428 3038 425 3130 
Q 422 3222 419 3287 
Q 416 3353 413 3381 
L 956 3381 
Q 959 3372 964 3315 
Q 969 3259 973 3179 
Q 978 3100 983 3009 
Q 988 2919 988 2838 
L 1000 2838 
Q 1078 3000 1178 3114 
Q 1278 3228 1406 3301 
Q 1534 3375 1692 3408 
Q 1850 3441 2047 3441 
Q 2397 3441 2636 3316 
Q 2875 3191 3020 2964 
Q 3166 2738 3228 2417 
Q 3291 2097 3291 1706 
z
M 2700 1694 
Q 2700 2006 2662 2250 
Q 2625 2494 2533 2662 
Q 2441 2831 2287 2918 
Q 2134 3006 1903 3006 
Q 1716 3006 1550 2953 
Q 1384 2900 1261 2750 
Q 1138 2600 1066 2336 
Q 994 2072 994 1650 
Q 994 1291 1053 1042 
Q 1113 794 1227 641 
Q 1341 488 1509 420 
Q 1678 353 1897 353 
Q 2131 353 2286 443 
Q 2441 534 2533 706 
Q 2625 878 2662 1126 
Q 2700 1375 2700 1694 
z
" transform="scale(0.015625)"/>
      </defs>
      <use xlink:href="#LiberationSans-70"/>
      <use xlink:href="#LiberationSans-70" x="55.615234"/>
      <use xlink:href="#LiberationSans-6f" x="111.230469"/>
     </g>
    </g>
    <g id="line2d_41">
     <path d="M 538.457813 142.1125 
L 548.457813 142.1125 
L 558.457813 142.1125 
" style="fill: none; stroke-dasharray: 3.7,1.6; stroke-dashoffset: 0; stroke: #d62728"/>
     <g>
      <use xlink:href="#m4e0306e12f" x="548.457813" y="142.1125" style="fill: #d62728; stroke: #d62728; stroke-linejoin: miter"/>
     </g>
    </g>
    <g id="text_22">
     <!-- conventional -->
     <g style="fill: #262626" transform="translate(566.457813 145.6125) scale(0.1 -0.1)">
      <defs>
       <path id="LiberationSans-63" d="M 859 1706 
Q 859 1416 901 1172 
Q 944 928 1044 751 
Q 1144 575 1308 478 
Q 1472 381 1713 381 
Q 2013 381 2214 543 
Q 2416 706 2463 1044 
L 3031 1006 
Q 3003 797 2909 603 
Q 2816 409 2655 262 
Q 2494 116 2262 26 
Q 2031 -63 1728 -63 
Q 1331 -63 1053 71 
Q 775 206 601 442 
Q 428 678 350 998 
Q 272 1319 272 1694 
Q 272 2034 328 2295 
Q 384 2556 486 2751 
Q 588 2947 725 3080 
Q 863 3213 1023 3292 
Q 1184 3372 1362 3408 
Q 1541 3444 1722 3444 
Q 2006 3444 2228 3366 
Q 2450 3288 2611 3152 
Q 2772 3016 2872 2831 
Q 2972 2647 3013 2434 
L 2434 2391 
Q 2391 2672 2212 2837 
Q 2034 3003 1706 3003 
Q 1466 3003 1305 2923 
Q 1144 2844 1044 2683 
Q 944 2522 901 2278 
Q 859 2034 859 1706 
z
" transform="scale(0.015625)"/>
       <path id="LiberationSans-6c" d="M 431 0 
L 431 4638 
L 994 4638 
L 994 0 
L 431 0 
z
" transform="scale(0.015625)"/>
      </defs>
      <use xlink:href="#LiberationSans-63"/>
      <use xlink:href="#LiberationSans-6f" x="50"/>
      <use xlink:href="#LiberationSans-6e" x="105.615234"/>
      <use xlink:href="#LiberationSans-76" x="161.230469"/>
      <use xlink:href="#LiberationSans-65" x="211.230469"/>
      <use xlink:href="#LiberationSans-6e" x="266.845703"/>
      <use xlink:href="#LiberationSans-74" x="322.460938"/>
      <use xlink:href="#LiberationSans-69" x="350.244141"/>
      <use xlink:href="#LiberationSans-6f" x="372.460938"/>
      <use xlink:href="#LiberationSans-6e" x="428.076172"/>
      <use xlink:href="#LiberationSans-61" x="483.691406"/>
      <use xlink:href="#LiberationSans-6c" x="539.306641"/>
     </g>
    </g>
    <g id="line2d_42">
     <path d="M 538.457813 156.434375 
L 548.457813 156.434375 
L 558.457813 156.434375 
" style="fill: none; stroke-dasharray: 3.7,1.6; stroke-dashoffset: 0; stroke: #9467bd"/>
     <g>
      <use xlink:href="#m060aa0a875" x="548.457813" y="156.434375" style="fill: #9467bd; stroke: #9467bd; stroke-linejoin: miter"/>
     </g>
    </g>
    <g id="text_23">
     <!-- direct -->
     <g style="fill: #262626" transform="translate(566.457813 159.934375) scale(0.1 -0.1)">
      <use xlink:href="#LiberationSans-64"/>
      <use xlink:href="#LiberationSans-69" x="55.615234"/>
      <use xlink:href="#LiberationSans-72" x="77.832031"/>
      <use xlink:href="#LiberationSans-65" x="111.132812"/>
      <use xlink:href="#LiberationSans-63" x="166.748047"/>
      <use xlink:href="#LiberationSans-74" x="216.748047"/>
     </g>
    </g>
    <g id="line2d_43">
     <path d="M 538.457813 170.75625 
L 548.457813 170.75625 
L 558.457813 170.75625 
" style="fill: none; stroke-dasharray: 5.55,2.4; stroke-dashoffset: 0; stroke: #8c564b; stroke-width: 1.5"/>
     <g>
      <use xlink:href="#mcfb617be14" x="548.457813" y="170.75625" style="fill: #8c564b; stroke: #8c564b; stroke-linejoin: miter"/>
     </g>
    </g>
    <g id="text_24">
     <!-- LEACH avg -->
     <g style="fill: #262626" transform="translate(566.457813 174.25625) scale(0.1 -0.1)">
      <defs>
       <path id="LiberationSans-41" d="M 3647 0 
L 3144 1288 
L 1138 1288 
L 631 0 
L 13 0 
L 1809 4403 
L 2488 4403 
L 4256 0 
L 3647 0 
z
M 2400 3206 
Q 2350 3331 2304 3459 
Q 2259 3588 2225 3692 
Q 2191 3797 2167 3867 
Q 2144 3938 2141 3953 
Q 2134 3938 2112 3866 
Q 2091 3794 2055 3687 
Q 2019 3581 1973 3453 
Q 1928 3325 1881 3200 
L 1319 1753 
L 2966 1753 
L 2400 3206 
z
" transform="scale(0.015625)"/>
       <path id="LiberationSans-43" d="M 2475 3981 
Q 2100 3981 1811 3856 
Q 1522 3731 1326 3500 
Q 1131 3269 1031 2944 
Q 931 2619 931 2222 
Q 931 1825 1039 1495 
Q 1147 1166 1348 928 
Q 1550 691 1842 559 
Q 2134 428 2500 428 
Q 2756 428 2967 495 
Q 3178 563 3348 684 
Q 3519 806 3653 973 
Q 3788 1141 3891 1344 
L 4378 1100 
Q 4259 853 4084 640 
Q 3909 428 3673 272 
Q 3438 116 3139 26 
Q 2841 -63 2472 -63 
Q 1938 -63 1536 107 
Q 1134 278 864 583 
Q 594 888 459 1306 
Q 325 1725 325 2222 
Q 325 2738 467 3153 
Q 609 3569 882 3861 
Q 1156 4153 1556 4311 
Q 1956 4469 2469 4469 
Q 3172 4469 3644 4194 
Q 4116 3919 4338 3378 
L 3772 3191 
Q 3709 3347 3603 3489 
Q 3497 3631 3337 3740 
Q 3178 3850 2964 3915 
Q 2750 3981 2475 3981 
z
" transform="scale(0.015625)"/>
       <path id="LiberationSans-48" d="M 3503 0 
L 3503 2041 
L 1122 2041 
L 1122 0 
L 525 0 
L 525 4403 
L 1122 4403 
L 1122 2541 
L 3503 2541 
L 3503 4403 
L 4100 4403 
L 4100 0 
L 3503 0 
z
" transform="scale(0.015625)"/>
      </defs>
      <use xlink:href="#LiberationSans-4c"/>
      <use xlink:href="#LiberationSans-45" x="55.615234"/>
      <use xlink:href="#LiberationSans-41" x="122.314453"/>
      <use xlink:href="#LiberationSans-43" x="189.013672"/>
      <use xlink:href="#LiberationSans-48" x="261.230469"/>
      <use xlink:href="#LiberationSans-20" x="333.447266"/>
      <use xlink:href="#LiberationSans-61" x="361.230469"/>
      <use xlink:href="#LiberationSans-76" x="416.845703"/>
      <use xlink:href="#LiberationSans-67" x="466.845703"/>
     </g>
    </g>
    <g id="line2d_44">
     <path d="M 538.457813 185.078125 
L 548.457813 185.078125 
L 558.457813 185.078125 
" style="fill: none; stroke-dasharray: 5.55,2.4; stroke-dashoffset: 0; stroke: #e377c2; stroke-width: 1.5"/>
     <g>
      <use xlink:href="#mf204c011d9" x="548.457813" y="185.078125" style="fill: #e377c2; stroke: #e377c2; stroke-linejoin: miter"/>
     </g>
    </g>
    <g id="text_25">
     <!-- LEACH p = 0.35 -->
     <g style="fill: #262626" transform="translate(566.457813 188.578125) scale(0.1 -0.1)">
      <defs>
       <path id="LiberationSans-3d" d="M 313 2675 
L 313 3138 
L 3422 3138 
L 3422 2675 
L 313 2675 
z
M 313 1075 
L 313 1538 
L 3422 1538 
L 3422 1075 
L 313 1075 
z
" transform="scale(0.015625)"/>
       <path id="LiberationSans-2e" d="M 584 0 
L 584 684 
L 1194 684 
L 1194 0 
L 584 0 
z
" transform="scale(0.015625)"/>
      </defs>
      <use xlink:href="#LiberationSans-4c"/>
      <use xlink:href="#LiberationSans-45" x="55.615234"/>
      <use xlink:href="#LiberationSans-41" x="122.314453"/>
      <use xlink:href="#LiberationSans-43" x="189.013672"/>
      <use xlink:href="#LiberationSans-48" x="261.230469"/>
      <use xlink:href="#LiberationSans-20" x="333.447266"/>
      <use xlink:href="#LiberationSans-70" x="361.230469"/>
      <use xlink:href="#LiberationSans-20" x="416.845703"/>
      <use xlink:href="#LiberationSans-3d" x="444.628906"/>
      <use xlink:href="#LiberationSans-20" x="503.027344"/>
      <use xlink:href="#LiberationSans-30" x="530.810547"/>
      <use xlink:href="#LiberationSans-2e" x="586.425781"/>
      <use xlink:href="#LiberationSans-33" x="614.208984"/>
      <use xlink:href="#LiberationSans-35" x="669.824219"/>
     </g>
    </g>
   </g>
  </g>
 </g>
 <defs>
  <clipPath id="p27a18d78d0">
   <rect x="90" y="86.4" width="558" height="554.4"/>
  </clipPath>
 </defs>
</svg>
