<?xml version="1.0" encoding="utf-8" standalone="no"?>
<!DOCTYPE svg PUBLIC "-//W3C//DTD SVG 1.1//EN"
  "http://www.w3.org/Graphics/SVG/1.1/DTD/svg11.dtd">
<svg xmlns:xlink="http://www.w3.org/1999/xlink" width="720pt" height="720pt" viewBox="0 0 720 720" xmlns="http://www.w3.org/2000/svg" version="1.1">
 <metadata>
  <rdf:RDF xmlns:dc="http://purl.org/dc/elements/1.1/" xmlns:cc="http://creativecommons.org/ns#" xmlns:rdf="http://www.w3.org/1999/02/22-rdf-syntax-ns#">
   <cc:Work>
    <dc:type rdf:resource="http://purl.org/dc/dcmitype/StillImage"/>
    <dc:date>2024-03-28T16:04:57.655852</dc:date>
    <dc:format>image/svg+xml</dc:format>
    <dc:creator>
     <cc:Agent>
      <dc:title>Matplotlib v3.7.1, https://matplotlib.org/</dc:title>
     </cc:Agent>
    </dc:creator>
   </cc:Work>
  </rdf:RDF>
 </metadata>
 <defs>
  <style type="text/css">*{stroke-linejoin: round; stroke-linecap: butt}</style>
 </defs>
 <g id="figure_1">
  <g id="patch_1">
   <path d="M 0 720 
L 720 720 
L 720 0 
L 0 0 
z
" style="fill: #ffffff"/>
  </g>
  <g id="axes_1">
   <g id="patch_2">
    <path d="M 90 640.8 
L 648 640.8 
L 648 86.4 
L 90 86.4 
z
" style="fill: #ffffff"/>
   </g>
   <g id="matplotlib.axis_1">
    <g id="xtick_1">
     <g id="line2d_1">
      <path d="M 115.363636 640.8 
L 115.363636 86.4 
" clip-path="url(#p8ed8eaf463)" style="fill: none; stroke: #cccccc; stroke-width: 0.8; stroke-linecap: round"/>
     </g>
     <g id="line2d_2"/>
     <g id="text_1">
      <!-- 0 -->
      <g style="fill: #262626" transform="translate(112.027074 652.889375) scale(0.12 -0.12)">
       <defs>
        <path id="Arial-BoldMT-30" d="M 1756 4600 
Q 2422 4600 2797 4125 
Q 3244 3563 3244 2259 
Q 3244 959 2794 391 
Q 2422 -78 1756 -78 
Q 1088 -78 678 436 
Q 269 950 269 2269 
Q 269 3563 719 4131 
Q 1091 4600 1756 4600 
z
M 1756 3872 
Q 1597 3872 1472 3770 
Q 1347 3669 1278 3406 
Q 1188 3066 1188 2259 
Q 1188 1453 1269 1151 
Q 1350 850 1473 750 
Q 1597 650 1756 650 
Q 1916 650 2041 751 
Q 2166 853 2234 1116 
Q 2325 1453 2325 2259 
Q 2325 3066 2244 3367 
Q 2163 3669 2039 3770 
Q 1916 3872 1756 3872 
z
" transform="scale(0.015625)"/>
       </defs>
       <use xlink:href="#Arial-BoldMT-30"/>
      </g>
     </g>
    </g>
    <g id="xtick_2">
     <g id="line2d_3">
      <path d="M 180.298701 640.8 
L 180.298701 86.4 
" clip-path="url(#p8ed8eaf463)" style="fill: none; stroke: #cccccc; stroke-width: 0.8; stroke-linecap: round"/>
     </g>
     <g id="line2d_4"/>
     <g id="text_2">
      <!-- 1000 -->
      <g style="fill: #262626" transform="translate(166.952451 652.889375) scale(0.12 -0.12)">
       <defs>
        <path id="Arial-BoldMT-31" d="M 2519 0 
L 1641 0 
L 1641 3309 
Q 1159 2859 506 2644 
L 506 3441 
Q 850 3553 1253 3867 
Q 1656 4181 1806 4600 
L 2519 4600 
L 2519 0 
z
" transform="scale(0.015625)"/>
       </defs>
       <use xlink:href="#Arial-BoldMT-31"/>
       <use xlink:href="#Arial-BoldMT-30" x="55.615234"/>
       <use xlink:href="#Arial-BoldMT-30" x="111.230469"/>
       <use xlink:href="#Arial-BoldMT-30" x="166.845703"/>
      </g>
     </g>
    </g>
    <g id="xtick_3">
     <g id="line2d_5">
      <path d="M 245.233766 640.8 
L 245.233766 86.4 
" clip-path="url(#p8ed8eaf463)" style="fill: none; stroke: #cccccc; stroke-width: 0.8; stroke-linecap: round"/>
     </g>
     <g id="line2d_6"/>
     <g id="text_3">
      <!-- 2000 -->
      <g style="fill: #262626" transform="translate(231.887516 652.889375) scale(0.12 -0.12)">
       <defs>
        <path id="Arial-BoldMT-32" d="M 3238 816 
L 3238 0 
L 159 0 
Q 209 463 459 877 
Q 709 1291 1447 1975 
Q 2041 2528 2175 2725 
Q 2356 2997 2356 3263 
Q 2356 3556 2198 3714 
Q 2041 3872 1763 3872 
Q 1488 3872 1325 3706 
Q 1163 3541 1138 3156 
L 263 3244 
Q 341 3969 753 4284 
Q 1166 4600 1784 4600 
Q 2463 4600 2850 4234 
Q 3238 3869 3238 3325 
Q 3238 3016 3127 2736 
Q 3016 2456 2775 2150 
Q 2616 1947 2200 1565 
Q 1784 1184 1673 1059 
Q 1563 934 1494 816 
L 3238 816 
z
" transform="scale(0.015625)"/>
       </defs>
       <use xlink:href="#Arial-BoldMT-32"/>
       <use xlink:href="#Arial-BoldMT-30" x="55.615234"/>
       <use xlink:href="#Arial-BoldMT-30" x="111.230469"/>
       <use xlink:href="#Arial-BoldMT-30" x="166.845703"/>
      </g>
     </g>
    </g>
    <g id="xtick_4">
     <g id="line2d_7">
      <path d="M 310.168831 640.8 
L 310.168831 86.4 
" clip-path="url(#p8ed8eaf463)" style="fill: none; stroke: #cccccc; stroke-width: 0.8; stroke-linecap: round"/>
     </g>
     <g id="line2d_8"/>
     <g id="text_4">
      <!-- 3000 -->
      <g style="fill: #262626" transform="translate(296.822581 652.889375) scale(0.12 -0.12)">
       <defs>
        <path id="Arial-BoldMT-33" d="M 241 1216 
L 1091 1319 
Q 1131 994 1309 822 
Q 1488 650 1741 650 
Q 2013 650 2198 856 
Q 2384 1063 2384 1413 
Q 2384 1744 2206 1937 
Q 2028 2131 1772 2131 
Q 1603 2131 1369 2066 
L 1466 2781 
Q 1822 2772 2009 2936 
Q 2197 3100 2197 3372 
Q 2197 3603 2059 3740 
Q 1922 3878 1694 3878 
Q 1469 3878 1309 3722 
Q 1150 3566 1116 3266 
L 306 3403 
Q 391 3819 561 4067 
Q 731 4316 1036 4458 
Q 1341 4600 1719 4600 
Q 2366 4600 2756 4188 
Q 3078 3850 3078 3425 
Q 3078 2822 2419 2463 
Q 2813 2378 3048 2084 
Q 3284 1791 3284 1375 
Q 3284 772 2843 347 
Q 2403 -78 1747 -78 
Q 1125 -78 715 280 
Q 306 638 241 1216 
z
" transform="scale(0.015625)"/>
       </defs>
       <use xlink:href="#Arial-BoldMT-33"/>
       <use xlink:href="#Arial-BoldMT-30" x="55.615234"/>
       <use xlink:href="#Arial-BoldMT-30" x="111.230469"/>
       <use xlink:href="#Arial-BoldMT-30" x="166.845703"/>
      </g>
     </g>
    </g>
    <g id="xtick_5">
     <g id="line2d_9">
      <path d="M 375.103896 640.8 
L 375.103896 86.4 
" clip-path="url(#p8ed8eaf463)" style="fill: none; stroke: #cccccc; stroke-width: 0.8; stroke-linecap: round"/>
     </g>
     <g id="line2d_10"/>
     <g id="text_5">
      <!-- 4000 -->
      <g style="fill: #262626" transform="translate(361.757646 652.889375) scale(0.12 -0.12)">
       <defs>
        <path id="Arial-BoldMT-34" d="M 1994 0 
L 1994 922 
L 119 922 
L 119 1691 
L 2106 4600 
L 2844 4600 
L 2844 1694 
L 3413 1694 
L 3413 922 
L 2844 922 
L 2844 0 
L 1994 0 
z
M 1994 1694 
L 1994 3259 
L 941 1694 
L 1994 1694 
z
" transform="scale(0.015625)"/>
       </defs>
       <use xlink:href="#Arial-BoldMT-34"/>
       <use xlink:href="#Arial-BoldMT-30" x="55.615234"/>
       <use xlink:href="#Arial-BoldMT-30" x="111.230469"/>
       <use xlink:href="#Arial-BoldMT-30" x="166.845703"/>
      </g>
     </g>
    </g>
    <g id="xtick_6">
     <g id="line2d_11">
      <path d="M 440.038961 640.8 
L 440.038961 86.4 
" clip-path="url(#p8ed8eaf463)" style="fill: none; stroke: #cccccc; stroke-width: 0.8; stroke-linecap: round"/>
     </g>
     <g id="line2d_12"/>
     <g id="text_6">
      <!-- 5000 -->
      <g style="fill: #262626" transform="translate(426.692711 652.889375) scale(0.12 -0.12)">
       <defs>
        <path id="Arial-BoldMT-35" d="M 284 1178 
L 1159 1269 
Q 1197 972 1381 798 
Q 1566 625 1806 625 
Q 2081 625 2272 848 
Q 2463 1072 2463 1522 
Q 2463 1944 2273 2155 
Q 2084 2366 1781 2366 
Q 1403 2366 1103 2031 
L 391 2134 
L 841 4519 
L 3163 4519 
L 3163 3697 
L 1506 3697 
L 1369 2919 
Q 1663 3066 1969 3066 
Q 2553 3066 2959 2641 
Q 3366 2216 3366 1538 
Q 3366 972 3038 528 
Q 2591 -78 1797 -78 
Q 1163 -78 763 262 
Q 363 603 284 1178 
z
" transform="scale(0.015625)"/>
       </defs>
       <use xlink:href="#Arial-BoldMT-35"/>
       <use xlink:href="#Arial-BoldMT-30" x="55.615234"/>
       <use xlink:href="#Arial-BoldMT-30" x="111.230469"/>
       <use xlink:href="#Arial-BoldMT-30" x="166.845703"/>
      </g>
     </g>
    </g>
    <g id="xtick_7">
     <g id="line2d_13">
      <path d="M 504.974026 640.8 
L 504.974026 86.4 
" clip-path="url(#p8ed8eaf463)" style="fill: none; stroke: #cccccc; stroke-width: 0.8; stroke-linecap: round"/>
     </g>
     <g id="line2d_14"/>
     <g id="text_7">
      <!-- 6000 -->
      <g style="fill: #262626" transform="translate(491.627776 652.889375) scale(0.12 -0.12)">
       <defs>
        <path id="Arial-BoldMT-36" d="M 3247 3459 
L 2397 3366 
Q 2366 3628 2234 3753 
Q 2103 3878 1894 3878 
Q 1616 3878 1423 3628 
Q 1231 3378 1181 2588 
Q 1509 2975 1997 2975 
Q 2547 2975 2939 2556 
Q 3331 2138 3331 1475 
Q 3331 772 2918 347 
Q 2506 -78 1859 -78 
Q 1166 -78 719 461 
Q 272 1000 272 2228 
Q 272 3488 737 4044 
Q 1203 4600 1947 4600 
Q 2469 4600 2811 4308 
Q 3153 4016 3247 3459 
z
M 1256 1544 
Q 1256 1116 1453 883 
Q 1650 650 1903 650 
Q 2147 650 2309 840 
Q 2472 1031 2472 1466 
Q 2472 1913 2297 2120 
Q 2122 2328 1859 2328 
Q 1606 2328 1431 2129 
Q 1256 1931 1256 1544 
z
" transform="scale(0.015625)"/>
       </defs>
       <use xlink:href="#Arial-BoldMT-36"/>
       <use xlink:href="#Arial-BoldMT-30" x="55.615234"/>
       <use xlink:href="#Arial-BoldMT-30" x="111.230469"/>
       <use xlink:href="#Arial-BoldMT-30" x="166.845703"/>
      </g>
     </g>
    </g>
    <g id="xtick_8">
     <g id="line2d_15">
      <path d="M 569.909091 640.8 
L 569.909091 86.4 
" clip-path="url(#p8ed8eaf463)" style="fill: none; stroke: #cccccc; stroke-width: 0.8; stroke-linecap: round"/>
     </g>
     <g id="line2d_16"/>
     <g id="text_8">
      <!-- 7000 -->
      <g style="fill: #262626" transform="translate(556.562841 652.889375) scale(0.12 -0.12)">
       <defs>
        <path id="Arial-BoldMT-37" d="M 272 3703 
L 272 4519 
L 3275 4519 
L 3275 3881 
Q 2903 3516 2518 2831 
Q 2134 2147 1932 1376 
Q 1731 606 1734 0 
L 888 0 
Q 909 950 1279 1937 
Q 1650 2925 2269 3703 
L 272 3703 
z
" transform="scale(0.015625)"/>
       </defs>
       <use xlink:href="#Arial-BoldMT-37"/>
       <use xlink:href="#Arial-BoldMT-30" x="55.615234"/>
       <use xlink:href="#Arial-BoldMT-30" x="111.230469"/>
       <use xlink:href="#Arial-BoldMT-30" x="166.845703"/>
      </g>
     </g>
    </g>
    <g id="xtick_9">
     <g id="line2d_17">
      <path d="M 634.844156 640.8 
L 634.844156 86.4 
" clip-path="url(#p8ed8eaf463)" style="fill: none; stroke: #cccccc; stroke-width: 0.8; stroke-linecap: round"/>
     </g>
     <g id="line2d_18"/>
     <g id="text_9">
      <!-- 8000 -->
      <g style="fill: #262626" transform="translate(621.497906 652.889375) scale(0.12 -0.12)">
       <defs>
        <path id="Arial-BoldMT-38" d="M 1025 2472 
Q 684 2616 529 2867 
Q 375 3119 375 3419 
Q 375 3931 733 4265 
Q 1091 4600 1750 4600 
Q 2403 4600 2764 4265 
Q 3125 3931 3125 3419 
Q 3125 3100 2959 2851 
Q 2794 2603 2494 2472 
Q 2875 2319 3073 2025 
Q 3272 1731 3272 1347 
Q 3272 713 2867 316 
Q 2463 -81 1791 -81 
Q 1166 -81 750 247 
Q 259 634 259 1309 
Q 259 1681 443 1992 
Q 628 2303 1025 2472 
z
M 1206 3356 
Q 1206 3094 1354 2947 
Q 1503 2800 1750 2800 
Q 2000 2800 2150 2948 
Q 2300 3097 2300 3359 
Q 2300 3606 2151 3754 
Q 2003 3903 1759 3903 
Q 1506 3903 1356 3753 
Q 1206 3603 1206 3356 
z
M 1125 1394 
Q 1125 1031 1311 828 
Q 1497 625 1775 625 
Q 2047 625 2225 820 
Q 2403 1016 2403 1384 
Q 2403 1706 2222 1901 
Q 2041 2097 1763 2097 
Q 1441 2097 1283 1875 
Q 1125 1653 1125 1394 
z
" transform="scale(0.015625)"/>
       </defs>
       <use xlink:href="#Arial-BoldMT-38"/>
       <use xlink:href="#Arial-BoldMT-30" x="55.615234"/>
       <use xlink:href="#Arial-BoldMT-30" x="111.230469"/>
       <use xlink:href="#Arial-BoldMT-30" x="166.845703"/>
      </g>
     </g>
    </g>
    <g id="text_10">
     <!-- rounds -->
     <g style="fill: #262626" transform="translate(345.280937 669.278437) scale(0.14 -0.14)">
      <defs>
       <path id="Arial-BoldMT-72" d="M 1300 0 
L 422 0 
L 422 3319 
L 1238 3319 
L 1238 2847 
Q 1447 3181 1614 3287 
Q 1781 3394 1994 3394 
Q 2294 3394 2572 3228 
L 2300 2463 
Q 2078 2606 1888 2606 
Q 1703 2606 1575 2504 
Q 1447 2403 1373 2137 
Q 1300 1872 1300 1025 
L 1300 0 
z
" transform="scale(0.015625)"/>
       <path id="Arial-BoldMT-6f" d="M 256 1706 
Q 256 2144 472 2553 
Q 688 2963 1083 3178 
Q 1478 3394 1966 3394 
Q 2719 3394 3200 2905 
Q 3681 2416 3681 1669 
Q 3681 916 3195 420 
Q 2709 -75 1972 -75 
Q 1516 -75 1102 131 
Q 688 338 472 736 
Q 256 1134 256 1706 
z
M 1156 1659 
Q 1156 1166 1390 903 
Q 1625 641 1969 641 
Q 2313 641 2545 903 
Q 2778 1166 2778 1666 
Q 2778 2153 2545 2415 
Q 2313 2678 1969 2678 
Q 1625 2678 1390 2415 
Q 1156 2153 1156 1659 
z
" transform="scale(0.015625)"/>
       <path id="Arial-BoldMT-75" d="M 2644 0 
L 2644 497 
Q 2463 231 2167 78 
Q 1872 -75 1544 -75 
Q 1209 -75 943 72 
Q 678 219 559 484 
Q 441 750 441 1219 
L 441 3319 
L 1319 3319 
L 1319 1794 
Q 1319 1094 1367 936 
Q 1416 778 1544 686 
Q 1672 594 1869 594 
Q 2094 594 2272 717 
Q 2450 841 2515 1023 
Q 2581 1206 2581 1919 
L 2581 3319 
L 3459 3319 
L 3459 0 
L 2644 0 
z
" transform="scale(0.015625)"/>
       <path id="Arial-BoldMT-6e" d="M 3478 0 
L 2600 0 
L 2600 1694 
Q 2600 2231 2544 2389 
Q 2488 2547 2361 2634 
Q 2234 2722 2056 2722 
Q 1828 2722 1647 2597 
Q 1466 2472 1398 2265 
Q 1331 2059 1331 1503 
L 1331 0 
L 453 0 
L 453 3319 
L 1269 3319 
L 1269 2831 
Q 1703 3394 2363 3394 
Q 2653 3394 2893 3289 
Q 3134 3184 3257 3021 
Q 3381 2859 3429 2653 
Q 3478 2447 3478 2063 
L 3478 0 
z
" transform="scale(0.015625)"/>
       <path id="Arial-BoldMT-64" d="M 3503 0 
L 2688 0 
L 2688 488 
Q 2484 203 2207 64 
Q 1931 -75 1650 -75 
Q 1078 -75 670 386 
Q 263 847 263 1672 
Q 263 2516 659 2955 
Q 1056 3394 1663 3394 
Q 2219 3394 2625 2931 
L 2625 4581 
L 3503 4581 
L 3503 0 
z
M 1159 1731 
Q 1159 1200 1306 963 
Q 1519 619 1900 619 
Q 2203 619 2415 876 
Q 2628 1134 2628 1647 
Q 2628 2219 2422 2470 
Q 2216 2722 1894 2722 
Q 1581 2722 1370 2473 
Q 1159 2225 1159 1731 
z
" transform="scale(0.015625)"/>
       <path id="Arial-BoldMT-73" d="M 150 947 
L 1031 1081 
Q 1088 825 1259 692 
Q 1431 559 1741 559 
Q 2081 559 2253 684 
Q 2369 772 2369 919 
Q 2369 1019 2306 1084 
Q 2241 1147 2013 1200 
Q 950 1434 666 1628 
Q 272 1897 272 2375 
Q 272 2806 612 3100 
Q 953 3394 1669 3394 
Q 2350 3394 2681 3172 
Q 3013 2950 3138 2516 
L 2309 2363 
Q 2256 2556 2107 2659 
Q 1959 2763 1684 2763 
Q 1338 2763 1188 2666 
Q 1088 2597 1088 2488 
Q 1088 2394 1175 2328 
Q 1294 2241 1995 2081 
Q 2697 1922 2975 1691 
Q 3250 1456 3250 1038 
Q 3250 581 2869 253 
Q 2488 -75 1741 -75 
Q 1063 -75 667 200 
Q 272 475 150 947 
z
" transform="scale(0.015625)"/>
      </defs>
      <use xlink:href="#Arial-BoldMT-72"/>
      <use xlink:href="#Arial-BoldMT-6f" x="38.916016"/>
      <use xlink:href="#Arial-BoldMT-75" x="100"/>
      <use xlink:href="#Arial-BoldMT-6e" x="161.083984"/>
      <use xlink:href="#Arial-BoldMT-64" x="222.167969"/>
      <use xlink:href="#Arial-BoldMT-73" x="283.251953"/>
     </g>
    </g>
   </g>
   <g id="matplotlib.axis_2">
    <g id="ytick_1">
     <g id="line2d_19">
      <path d="M 90 620.575331 
L 648 620.575331 
" clip-path="url(#p8ed8eaf463)" style="fill: none; stroke: #cccccc; stroke-width: 0.8; stroke-linecap: round"/>
     </g>
     <g id="line2d_20"/>
     <g id="text_11">
      <!-- 0 -->
      <g style="fill: #262626" transform="translate(79.826875 624.870019) scale(0.12 -0.12)">
       <use xlink:href="#Arial-BoldMT-30"/>
      </g>
     </g>
    </g>
    <g id="ytick_2">
     <g id="line2d_21">
      <path d="M 90 523.401199 
L 648 523.401199 
" clip-path="url(#p8ed8eaf463)" style="fill: none; stroke: #cccccc; stroke-width: 0.8; stroke-linecap: round"/>
     </g>
     <g id="line2d_22"/>
     <g id="text_12">
      <!-- 100 -->
      <g style="fill: #262626" transform="translate(66.480625 527.695887) scale(0.12 -0.12)">
       <use xlink:href="#Arial-BoldMT-31"/>
       <use xlink:href="#Arial-BoldMT-30" x="55.615234"/>
       <use xlink:href="#Arial-BoldMT-30" x="111.230469"/>
      </g>
     </g>
    </g>
    <g id="ytick_3">
     <g id="line2d_23">
      <path d="M 90 426.227067 
L 648 426.227067 
" clip-path="url(#p8ed8eaf463)" style="fill: none; stroke: #cccccc; stroke-width: 0.8; stroke-linecap: round"/>
     </g>
     <g id="line2d_24"/>
     <g id="text_13">
      <!-- 200 -->
      <g style="fill: #262626" transform="translate(66.480625 430.521754) scale(0.12 -0.12)">
       <use xlink:href="#Arial-BoldMT-32"/>
       <use xlink:href="#Arial-BoldMT-30" x="55.615234"/>
       <use xlink:href="#Arial-BoldMT-30" x="111.230469"/>
      </g>
     </g>
    </g>
    <g id="ytick_4">
     <g id="line2d_25">
      <path d="M 90 329.052934 
L 648 329.052934 
" clip-path="url(#p8ed8eaf463)" style="fill: none; stroke: #cccccc; stroke-width: 0.8; stroke-linecap: round"/>
     </g>
     <g id="line2d_26"/>
     <g id="text_14">
      <!-- 300 -->
      <g style="fill: #262626" transform="translate(66.480625 333.347622) scale(0.12 -0.12)">
       <use xlink:href="#Arial-BoldMT-33"/>
       <use xlink:href="#Arial-BoldMT-30" x="55.615234"/>
       <use xlink:href="#Arial-BoldMT-30" x="111.230469"/>
      </g>
     </g>
    </g>
    <g id="ytick_5">
     <g id="line2d_27">
      <path d="M 90 231.878802 
L 648 231.878802 
" clip-path="url(#p8ed8eaf463)" style="fill: none; stroke: #cccccc; stroke-width: 0.8; stroke-linecap: round"/>
     </g>
     <g id="line2d_28"/>
     <g id="text_15">
      <!-- 400 -->
      <g style="fill: #262626" transform="translate(66.480625 236.17349) scale(0.12 -0.12)">
       <use xlink:href="#Arial-BoldMT-34"/>
       <use xlink:href="#Arial-BoldMT-30" x="55.615234"/>
       <use xlink:href="#Arial-BoldMT-30" x="111.230469"/>
      </g>
     </g>
    </g>
    <g id="ytick_6">
     <g id="line2d_29">
      <path d="M 90 134.70467 
L 648 134.70467 
" clip-path="url(#p8ed8eaf463)" style="fill: none; stroke: #cccccc; stroke-width: 0.8; stroke-linecap: round"/>
     </g>
     <g id="line2d_30"/>
     <g id="text_16">
      <!-- 500 -->
      <g style="fill: #262626" transform="translate(66.480625 138.999357) scale(0.12 -0.12)">
       <use xlink:href="#Arial-BoldMT-35"/>
       <use xlink:href="#Arial-BoldMT-30" x="55.615234"/>
       <use xlink:href="#Arial-BoldMT-30" x="111.230469"/>
      </g>
     </g>
    </g>
    <g id="text_17">
     <!-- Latency -->
     <g style="fill: #262626" transform="translate(59.534063 390.052344) rotate(-90) scale(0.14 -0.14)">
      <defs>
       <path id="Arial-BoldMT-4c" d="M 491 0 
L 491 4544 
L 1416 4544 
L 1416 772 
L 3716 772 
L 3716 0 
L 491 0 
z
" transform="scale(0.015625)"/>
       <path id="Arial-BoldMT-61" d="M 1116 2306 
L 319 2450 
Q 453 2931 781 3162 
Q 1109 3394 1756 3394 
Q 2344 3394 2631 3255 
Q 2919 3116 3036 2902 
Q 3153 2688 3153 2116 
L 3144 1091 
Q 3144 653 3186 445 
Q 3228 238 3344 0 
L 2475 0 
Q 2441 88 2391 259 
Q 2369 338 2359 363 
Q 2134 144 1878 34 
Q 1622 -75 1331 -75 
Q 819 -75 523 203 
Q 228 481 228 906 
Q 228 1188 362 1408 
Q 497 1628 739 1745 
Q 981 1863 1438 1950 
Q 2053 2066 2291 2166 
L 2291 2253 
Q 2291 2506 2166 2614 
Q 2041 2722 1694 2722 
Q 1459 2722 1328 2630 
Q 1197 2538 1116 2306 
z
M 2291 1594 
Q 2122 1538 1756 1459 
Q 1391 1381 1278 1306 
Q 1106 1184 1106 997 
Q 1106 813 1243 678 
Q 1381 544 1594 544 
Q 1831 544 2047 700 
Q 2206 819 2256 991 
Q 2291 1103 2291 1419 
L 2291 1594 
z
" transform="scale(0.015625)"/>
       <path id="Arial-BoldMT-74" d="M 1981 3319 
L 1981 2619 
L 1381 2619 
L 1381 1281 
Q 1381 875 1398 808 
Q 1416 741 1477 697 
Q 1538 653 1625 653 
Q 1747 653 1978 738 
L 2053 56 
Q 1747 -75 1359 -75 
Q 1122 -75 931 4 
Q 741 84 652 211 
Q 563 338 528 553 
Q 500 706 500 1172 
L 500 2619 
L 97 2619 
L 97 3319 
L 500 3319 
L 500 3978 
L 1381 4491 
L 1381 3319 
L 1981 3319 
z
" transform="scale(0.015625)"/>
       <path id="Arial-BoldMT-65" d="M 2381 1056 
L 3256 909 
Q 3088 428 2723 176 
Q 2359 -75 1813 -75 
Q 947 -75 531 491 
Q 203 944 203 1634 
Q 203 2459 634 2926 
Q 1066 3394 1725 3394 
Q 2466 3394 2894 2905 
Q 3322 2416 3303 1406 
L 1103 1406 
Q 1113 1016 1316 798 
Q 1519 581 1822 581 
Q 2028 581 2168 693 
Q 2309 806 2381 1056 
z
M 2431 1944 
Q 2422 2325 2234 2523 
Q 2047 2722 1778 2722 
Q 1491 2722 1303 2513 
Q 1116 2303 1119 1944 
L 2431 1944 
z
" transform="scale(0.015625)"/>
       <path id="Arial-BoldMT-63" d="M 3353 2338 
L 2488 2181 
Q 2444 2441 2289 2572 
Q 2134 2703 1888 2703 
Q 1559 2703 1364 2476 
Q 1169 2250 1169 1719 
Q 1169 1128 1367 884 
Q 1566 641 1900 641 
Q 2150 641 2309 783 
Q 2469 925 2534 1272 
L 3397 1125 
Q 3263 531 2881 228 
Q 2500 -75 1859 -75 
Q 1131 -75 698 384 
Q 266 844 266 1656 
Q 266 2478 700 2936 
Q 1134 3394 1875 3394 
Q 2481 3394 2839 3133 
Q 3197 2872 3353 2338 
z
" transform="scale(0.015625)"/>
       <path id="Arial-BoldMT-79" d="M 44 3319 
L 978 3319 
L 1772 963 
L 2547 3319 
L 3456 3319 
L 2284 125 
L 2075 -453 
Q 1959 -744 1854 -897 
Q 1750 -1050 1614 -1145 
Q 1478 -1241 1279 -1294 
Q 1081 -1347 831 -1347 
Q 578 -1347 334 -1294 
L 256 -606 
Q 463 -647 628 -647 
Q 934 -647 1081 -467 
Q 1228 -288 1306 -9 
L 44 3319 
z
" transform="scale(0.015625)"/>
      </defs>
      <use xlink:href="#Arial-BoldMT-4c"/>
      <use xlink:href="#Arial-BoldMT-61" x="61.083984"/>
      <use xlink:href="#Arial-BoldMT-74" x="116.699219"/>
      <use xlink:href="#Arial-BoldMT-65" x="150"/>
      <use xlink:href="#Arial-BoldMT-6e" x="205.615234"/>
      <use xlink:href="#Arial-BoldMT-63" x="266.699219"/>
      <use xlink:href="#Arial-BoldMT-79" x="322.314453"/>
     </g>
    </g>
   </g>
   <g id="line2d_31">
    <path d="M 115.363636 546.567001 
L 125.623377 546.567001 
L 125.753247 546.691384 
L 126.337662 546.691384 
L 126.467532 546.815768 
L 130.883117 546.815768 
L 131.012987 546.940153 
L 132.506494 546.940153 
L 132.636364 547.064536 
L 132.831169 547.064536 
L 132.961039 547.18892 
L 133.090909 547.18892 
L 133.220779 547.313304 
L 135.103896 547.313304 
L 135.233766 547.437688 
L 139 547.437688 
L 139.12987 547.562072 
L 139.974026 547.562072 
L 140.103896 547.686457 
L 140.493506 547.686457 
L 140.623377 547.810841 
L 141.207792 547.810841 
L 141.337662 547.935226 
L 141.662338 547.935226 
L 141.857143 548.183994 
L 142.701299 548.183994 
L 142.831169 548.308378 
L 143.74026 548.308378 
L 143.87013 548.432763 
L 147.311688 548.432763 
L 147.441558 548.557147 
L 149.064935 548.557147 
L 149.194805 548.681532 
L 149.454545 548.681532 
L 149.584416 548.805916 
L 149.974026 548.805916 
L 150.103896 548.930301 
L 150.558442 548.930301 
L 150.688312 549.054685 
L 151.142857 549.054685 
L 151.272727 549.179069 
L 152.831169 549.179069 
L 152.961039 549.303452 
L 153.220779 549.303452 
L 153.350649 549.427835 
L 154.194805 549.427835 
L 154.324675 549.55222 
L 154.38961 549.55222 
L 154.584416 549.800987 
L 154.714286 549.800987 
L 154.844156 549.92537 
L 155.753247 549.92537 
L 155.883117 550.049754 
L 156.922078 550.049754 
L 157.051948 550.174138 
L 157.896104 550.174138 
L 158.025974 550.298522 
L 160.103896 550.298522 
L 160.233766 550.422906 
L 160.298701 550.422906 
L 160.493506 550.671675 
L 163.805195 550.671675 
L 163.935065 550.796059 
L 165.753247 550.796059 
L 165.883117 550.920444 
L 167.571429 550.920444 
L 167.701299 551.044828 
L 167.831169 551.044828 
L 167.961039 551.169211 
L 168.025974 551.169211 
L 168.155844 551.293596 
L 168.61039 551.293596 
L 168.74026 551.41798 
L 169.454545 551.41798 
L 169.584416 551.542364 
L 170.818182 551.542364 
L 170.948052 551.666748 
L 171.857143 551.666748 
L 171.987013 551.791132 
L 174.844156 551.791132 
L 174.974026 551.915515 
L 177.246753 551.915515 
L 177.376623 552.039899 
L 181.142857 552.039899 
L 181.272727 552.164284 
L 181.467532 552.164284 
L 181.597403 552.288668 
L 182.181818 552.288668 
L 182.311688 552.413053 
L 182.896104 552.413053 
L 183.025974 552.537437 
L 184.844156 552.537437 
L 184.974026 552.661821 
L 185.883117 552.661821 
L 186.012987 552.786205 
L 191.922078 552.786205 
L 192.051948 552.910588 
L 194.194805 552.910588 
L 194.324675 553.034973 
L 198.220779 553.034973 
L 198.350649 553.159356 
L 199.38961 553.159356 
L 199.584416 553.408124 
L 200.558442 553.408124 
L 200.688312 553.532509 
L 205.948052 553.532509 
L 206.077922 553.656893 
L 209.38961 553.656893 
L 209.519481 553.781277 
L 209.649351 553.781277 
L 209.844156 554.030046 
L 220.168831 554.030046 
L 220.298701 554.15443 
L 221.532468 554.15443 
L 221.662338 554.278814 
L 223.090909 554.278814 
L 223.220779 554.403198 
L 224.584416 554.403198 
L 224.714286 554.527582 
L 228.155844 554.527582 
L 228.285714 554.651966 
L 228.415584 554.651966 
L 228.545455 554.776349 
L 231.662338 554.776349 
L 231.792208 554.900734 
L 236.337662 554.900734 
L 236.467532 555.025119 
L 242.311688 555.025119 
L 242.441558 555.149503 
L 247.831169 555.149503 
L 247.961039 555.273886 
L 249 555.273886 
L 249.12987 555.39827 
L 256.337662 555.39827 
L 256.467532 555.522654 
L 259.324675 555.522654 
L 259.454545 555.647038 
L 260.818182 555.647038 
L 260.948052 555.771422 
L 264.064935 555.771422 
L 264.194805 555.895806 
L 265.233766 555.895806 
L 265.363636 556.02019 
L 267.051948 556.02019 
L 267.181818 556.144574 
L 267.636364 556.144574 
L 267.766234 556.268959 
L 271.142857 556.268959 
L 271.272727 556.393343 
L 271.597403 556.393343 
L 271.727273 556.517727 
L 274.454545 556.517727 
L 274.584416 556.64211 
L 275.103896 556.64211 
L 275.233766 556.766495 
L 277.896104 556.766495 
L 278.025974 556.890879 
L 281.142857 556.890879 
L 281.272727 557.015263 
L 281.597403 557.015263 
L 281.727273 557.139647 
L 282.831169 557.139647 
L 283.025974 557.388416 
L 283.74026 557.388416 
L 283.935065 557.637184 
L 622.636364 557.637184 
L 622.636364 557.637184 
" clip-path="url(#p8ed8eaf463)" style="fill: none; stroke-dasharray: 3.7,1.6; stroke-dashoffset: 0; stroke: #1f77b4"/>
    <defs>
     <path id="m5de2ba3f16" d="M 0 3 
C 0.795609 3 1.55874 2.683901 2.12132 2.12132 
C 2.683901 1.55874 3 0.795609 3 0 
C 3 -0.795609 2.683901 -1.55874 2.12132 -2.12132 
C 1.55874 -2.683901 0.795609 -3 0 -3 
C -0.795609 -3 -1.55874 -2.683901 -2.12132 -2.12132 
C -2.683901 -1.55874 -3 -0.795609 -3 0 
C -3 0.795609 -2.683901 1.55874 -2.12132 2.12132 
C -1.55874 2.683901 -0.795609 3 0 3 
z
" style="stroke: #1f77b4"/>
    </defs>
    <g clip-path="url(#p8ed8eaf463)">
     <use xlink:href="#m5de2ba3f16" x="115.363636" y="546.567001" style="fill: #1f77b4; stroke: #1f77b4"/>
     <use xlink:href="#m5de2ba3f16" x="180.298701" y="552.039899" style="fill: #1f77b4; stroke: #1f77b4"/>
     <use xlink:href="#m5de2ba3f16" x="245.233766" y="555.149503" style="fill: #1f77b4; stroke: #1f77b4"/>
     <use xlink:href="#m5de2ba3f16" x="310.168831" y="557.637184" style="fill: #1f77b4; stroke: #1f77b4"/>
     <use xlink:href="#m5de2ba3f16" x="375.103896" y="557.637184" style="fill: #1f77b4; stroke: #1f77b4"/>
     <use xlink:href="#m5de2ba3f16" x="440.038961" y="557.637184" style="fill: #1f77b4; stroke: #1f77b4"/>
     <use xlink:href="#m5de2ba3f16" x="504.974026" y="557.637184" style="fill: #1f77b4; stroke: #1f77b4"/>
     <use xlink:href="#m5de2ba3f16" x="569.909091" y="557.637184" style="fill: #1f77b4; stroke: #1f77b4"/>
    </g>
   </g>
   <g id="line2d_32">
    <path d="M 115.363636 320.43873 
L 116.012987 339.718116 
L 116.207792 342.081395 
L 116.532468 347.429871 
L 116.597403 347.429871 
L 116.857143 349.79315 
L 116.922078 349.79315 
L 116.987013 350.415065 
L 117.181818 355.63916 
L 117.311688 355.63916 
L 117.506494 358.251206 
L 117.701299 361.360785 
L 117.766234 361.360785 
L 117.961039 362.729 
L 118.155844 362.729 
L 118.285714 363.599683 
L 118.350649 363.599683 
L 118.61039 365.962963 
L 118.87013 365.962963 
L 119 366.833645 
L 119.12987 366.833645 
L 119.25974 367.455561 
L 119.454545 367.455561 
L 119.584416 368.20186 
L 121.012987 368.20186 
L 121.142857 368.948159 
L 121.207792 368.948159 
L 121.337662 369.570075 
L 122.116883 369.570075 
L 122.246753 370.191991 
L 122.311688 370.191991 
L 122.441558 371.062673 
L 123.090909 371.062673 
L 123.220779 371.560206 
L 123.61039 371.560206 
L 123.74026 372.306506 
L 124.324675 372.306506 
L 124.454545 373.052805 
L 124.714286 373.052805 
L 124.844156 373.799104 
L 125.558442 373.799104 
L 125.688312 374.172254 
L 125.753247 374.172254 
L 125.883117 374.669786 
L 132.441558 374.669786 
L 132.571429 375.540469 
L 133.025974 375.540469 
L 133.155844 376.162385 
L 134.38961 376.162385 
L 134.519481 376.659918 
L 137.311688 376.659918 
L 137.441558 377.5306 
L 137.766234 377.5306 
L 137.896104 378.152516 
L 138.61039 378.152516 
L 138.805195 379.271964 
L 140.428571 379.271964 
L 140.558442 380.018263 
L 141.467532 380.018263 
L 141.597403 380.764562 
L 142.766234 380.764562 
L 142.961039 382.381545 
L 147.181818 382.381545 
L 147.311688 383.127844 
L 148.74026 383.127844 
L 148.87013 383.874143 
L 156.597403 383.874143 
L 156.857143 385.117975 
L 157.116883 385.117975 
L 157.246753 385.739891 
L 158.545455 385.739891 
L 158.675325 386.48619 
L 158.87013 386.48619 
L 159 386.983722 
L 160.428571 386.983722 
L 160.558442 387.730022 
L 161.077922 387.730022 
L 161.207792 388.600704 
L 167.896104 388.600704 
L 168.025974 389.347003 
L 170.428571 389.347003 
L 170.623377 390.963985 
L 170.753247 390.963985 
L 170.883117 391.710284 
L 172.441558 391.710284 
L 172.571429 392.456584 
L 173.61039 392.456584 
L 173.74026 393.327266 
L 174.974026 393.327266 
L 175.103896 394.197949 
L 176.727273 394.197949 
L 176.857143 395.193015 
L 176.922078 395.193015 
L 177.051948 395.939313 
L 177.831169 395.939313 
L 177.961039 396.809996 
L 179 396.809996 
L 179.12987 397.556296 
L 187.311688 397.556296 
L 187.571429 399.048894 
L 196.792208 399.048894 
L 196.922078 399.795193 
L 198.220779 399.795193 
L 198.350649 400.665876 
L 205.298701 400.665876 
L 205.428571 401.412174 
L 211.077922 401.412174 
L 211.207792 401.909707 
L 212.181818 401.909707 
L 212.311688 402.656005 
L 214.454545 402.656005 
L 214.584416 403.526688 
L 214.974026 403.526688 
L 215.103896 404.272988 
L 215.558442 404.272988 
L 215.688312 404.894903 
L 216.857143 404.894903 
L 216.987013 405.516819 
L 236.207792 405.516819 
L 236.337662 406.263118 
L 238.61039 406.263118 
L 238.74026 406.885034 
L 251.532468 406.885034 
L 251.662338 407.755716 
L 253.220779 407.755716 
L 253.350649 408.626399 
L 257.181818 408.626399 
L 257.311688 409.372697 
L 257.571429 409.372697 
L 257.701299 410.118996 
L 259.064935 410.118996 
L 259.194805 410.989679 
L 265.948052 410.989679 
L 266.077922 411.735978 
L 271.792208 411.735978 
L 271.922078 412.357894 
L 276.922078 412.357894 
L 277.051948 413.104192 
L 279.844156 413.104192 
L 279.974026 413.726108 
L 280.168831 413.726108 
L 280.298701 414.721174 
L 280.363636 414.721174 
L 280.493506 415.343089 
L 283.805195 415.343089 
L 283.935065 415.840621 
L 284.25974 415.840621 
L 284.38961 416.58692 
L 622.636364 416.58692 
L 622.636364 416.58692 
" clip-path="url(#p8ed8eaf463)" style="fill: none; stroke-dasharray: 3.7,1.6; stroke-dashoffset: 0; stroke: #ff7f0e"/>
    <defs>
     <path id="m534535cc6a" d="M 0 -3 
L -3 3 
L 3 3 
z
" style="stroke: #ff7f0e; stroke-linejoin: miter"/>
    </defs>
    <g clip-path="url(#p8ed8eaf463)">
     <use xlink:href="#m534535cc6a" x="115.363636" y="320.43873" style="fill: #ff7f0e; stroke: #ff7f0e; stroke-linejoin: miter"/>
     <use xlink:href="#m534535cc6a" x="180.298701" y="397.556296" style="fill: #ff7f0e; stroke: #ff7f0e; stroke-linejoin: miter"/>
     <use xlink:href="#m534535cc6a" x="245.233766" y="406.885034" style="fill: #ff7f0e; stroke: #ff7f0e; stroke-linejoin: miter"/>
     <use xlink:href="#m534535cc6a" x="310.168831" y="416.58692" style="fill: #ff7f0e; stroke: #ff7f0e; stroke-linejoin: miter"/>
     <use xlink:href="#m534535cc6a" x="375.103896" y="416.58692" style="fill: #ff7f0e; stroke: #ff7f0e; stroke-linejoin: miter"/>
     <use xlink:href="#m534535cc6a" x="440.038961" y="416.58692" style="fill: #ff7f0e; stroke: #ff7f0e; stroke-linejoin: miter"/>
     <use xlink:href="#m534535cc6a" x="504.974026" y="416.58692" style="fill: #ff7f0e; stroke: #ff7f0e; stroke-linejoin: miter"/>
     <use xlink:href="#m534535cc6a" x="569.909091" y="416.58692" style="fill: #ff7f0e; stroke: #ff7f0e; stroke-linejoin: miter"/>
    </g>
   </g>
   <g id="line2d_33">
    <path d="M 115.363636 405.018966 
L 115.688312 418.949898 
L 115.818182 420.815651 
L 116.012987 423.054552 
L 116.272727 424.547151 
L 116.532468 424.547151 
L 116.792208 426.039753 
L 117.116883 426.039753 
L 117.246753 426.537286 
L 117.506494 426.537286 
L 117.701299 427.656736 
L 117.831169 427.656736 
L 117.961039 428.154269 
L 118.74026 428.154269 
L 118.87013 428.651804 
L 119.12987 428.651804 
L 119.25974 429.024954 
L 119.454545 429.024954 
L 119.584416 429.522488 
L 119.714286 429.522488 
L 119.844156 430.020021 
L 120.168831 430.020021 
L 120.298701 430.517554 
L 120.428571 430.517554 
L 120.558442 430.890705 
L 121.857143 430.890705 
L 121.987013 431.263856 
L 122.506494 431.263856 
L 122.636364 431.637006 
L 123.74026 431.637006 
L 123.87013 432.010156 
L 123.935065 432.010156 
L 124.064935 432.383307 
L 124.25974 432.383307 
L 124.38961 432.756456 
L 124.649351 432.756456 
L 124.779221 433.25399 
L 127.571429 433.25399 
L 127.701299 433.751524 
L 127.831169 433.751524 
L 127.961039 434.249058 
L 129.584416 434.249058 
L 129.714286 434.622209 
L 130.233766 434.622209 
L 130.428571 435.617276 
L 131.857143 435.617276 
L 131.987013 436.114809 
L 132.376623 436.114809 
L 132.506494 436.612342 
L 132.701299 436.612342 
L 132.831169 437.109875 
L 136.142857 437.109875 
L 136.272727 437.483026 
L 137.311688 437.483026 
L 137.441558 437.98056 
L 139.844156 437.98056 
L 139.974026 438.478094 
L 140.688312 438.478094 
L 140.948052 439.348779 
L 141.207792 439.348779 
L 141.337662 439.721928 
L 141.402597 439.721928 
L 141.532468 440.219461 
L 142.181818 440.219461 
L 142.311688 440.716996 
L 142.766234 440.716996 
L 142.896104 441.214529 
L 144.194805 441.214529 
L 144.324675 441.836446 
L 145.298701 441.836446 
L 145.428571 442.085212 
L 146.727273 442.085212 
L 146.857143 442.707129 
L 147.571429 442.707129 
L 147.701299 443.329045 
L 147.831169 443.329045 
L 147.961039 443.826579 
L 148.480519 443.826579 
L 148.61039 444.324112 
L 150.038961 444.324112 
L 150.168831 444.697263 
L 150.428571 444.697263 
L 150.558442 445.319179 
L 151.077922 445.319179 
L 151.207792 445.816713 
L 152.571429 445.816713 
L 152.701299 446.314247 
L 157.766234 446.314247 
L 157.896104 446.811781 
L 158.220779 446.811781 
L 158.350649 447.309315 
L 160.038961 447.309315 
L 160.168831 447.806849 
L 160.298701 447.806849 
L 160.428571 448.179999 
L 162.766234 448.179999 
L 162.896104 448.801915 
L 164.12987 448.801915 
L 164.25974 449.29945 
L 166.012987 449.29945 
L 166.142857 449.921366 
L 167.961039 449.921366 
L 168.090909 450.543283 
L 169.779221 450.543283 
L 169.909091 451.165201 
L 173.350649 451.165201 
L 173.480519 451.538351 
L 174.25974 451.538351 
L 174.38961 452.160267 
L 175.493506 452.160267 
L 175.623377 452.533417 
L 177.311688 452.533417 
L 177.441558 453.155333 
L 179.974026 453.155333 
L 180.103896 453.77725 
L 181.077922 453.77725 
L 181.207792 454.274783 
L 183.025974 454.274783 
L 183.155844 454.772317 
L 188.220779 454.772317 
L 188.350649 455.269849 
L 197.181818 455.269849 
L 197.311688 455.767384 
L 211.727273 455.767384 
L 211.857143 456.264916 
L 217.506494 456.264916 
L 217.636364 456.76245 
L 220.168831 456.76245 
L 220.298701 457.384367 
L 228.415584 457.384367 
L 228.545455 457.881901 
L 228.675325 457.881901 
L 228.805195 458.379435 
L 229.844156 458.379435 
L 229.974026 458.876968 
L 231.662338 458.876968 
L 231.792208 459.250118 
L 238.090909 459.250118 
L 238.220779 459.747651 
L 238.675325 459.747651 
L 238.805195 460.245185 
L 243.74026 460.245185 
L 243.87013 460.742719 
L 248.805195 460.742719 
L 248.935065 461.240252 
L 251.727273 461.240252 
L 251.857143 461.613403 
L 254 461.613403 
L 254.194805 462.732853 
L 256.467532 462.732853 
L 256.597403 463.354771 
L 261.597403 463.354771 
L 261.727273 463.852305 
L 264.25974 463.852305 
L 264.38961 464.349839 
L 266.272727 464.349839 
L 266.402597 464.847373 
L 272.896104 464.847373 
L 273.025974 465.469289 
L 274.064935 465.469289 
L 274.194805 466.091207 
L 274.454545 466.091207 
L 274.584416 466.464356 
L 275.168831 466.464356 
L 275.298701 467.086273 
L 278.415584 467.086273 
L 278.545455 467.459423 
L 279.649351 467.459423 
L 279.779221 467.832574 
L 280.168831 467.832574 
L 280.298701 468.330107 
L 280.558442 468.330107 
L 280.688312 468.952023 
L 282.701299 468.952023 
L 282.831169 469.325174 
L 283.675325 469.325174 
L 283.87013 470.444624 
L 284.38961 470.444624 
L 284.519481 470.942158 
L 405.948052 470.942158 
L 406.077922 471.315308 
L 622.636364 471.315308 
L 622.636364 471.315308 
" clip-path="url(#p8ed8eaf463)" style="fill: none; stroke-dasharray: 3.7,1.6; stroke-dashoffset: 0; stroke: #2ca02c"/>
    <defs>
     <path id="m0e258932ad" d="M -3 3 
L 3 -3 
M -3 -3 
L 3 3 
" style="stroke: #2ca02c"/>
    </defs>
    <g clip-path="url(#p8ed8eaf463)">
     <use xlink:href="#m0e258932ad" x="115.363636" y="405.018966" style="fill: #2ca02c; stroke: #2ca02c"/>
     <use xlink:href="#m0e258932ad" x="180.298701" y="453.77725" style="fill: #2ca02c; stroke: #2ca02c"/>
     <use xlink:href="#m0e258932ad" x="245.233766" y="460.742719" style="fill: #2ca02c; stroke: #2ca02c"/>
     <use xlink:href="#m0e258932ad" x="310.168831" y="470.942158" style="fill: #2ca02c; stroke: #2ca02c"/>
     <use xlink:href="#m0e258932ad" x="375.103896" y="470.942158" style="fill: #2ca02c; stroke: #2ca02c"/>
     <use xlink:href="#m0e258932ad" x="440.038961" y="471.315308" style="fill: #2ca02c; stroke: #2ca02c"/>
     <use xlink:href="#m0e258932ad" x="504.974026" y="471.315308" style="fill: #2ca02c; stroke: #2ca02c"/>
     <use xlink:href="#m0e258932ad" x="569.909091" y="471.315308" style="fill: #2ca02c; stroke: #2ca02c"/>
    </g>
   </g>
   <g id="line2d_34">
    <path d="M 115.363636 111.6 
L 115.883117 111.6 
L 116.142857 111.973149 
L 116.337662 111.973149 
L 116.467532 112.346298 
L 116.727273 112.346298 
L 116.857143 112.84383 
L 117.311688 112.84383 
L 117.441558 113.465745 
L 117.571429 113.465745 
L 118.090909 118.441066 
L 119.324675 118.441066 
L 119.454545 119.187364 
L 119.584416 119.187364 
L 119.714286 120.058045 
L 119.844156 120.058045 
L 120.038961 120.67996 
L 120.623377 120.67996 
L 120.753247 121.550642 
L 120.818182 121.550642 
L 120.948052 122.670089 
L 121.012987 122.670089 
L 121.272727 127.147878 
L 121.337662 127.147878 
L 121.467532 128.391708 
L 121.792208 128.391708 
L 121.922078 129.386772 
L 121.987013 129.386772 
L 122.116883 130.381836 
L 122.571429 130.381836 
L 122.701299 131.128134 
L 122.766234 131.128134 
L 122.896104 132.123199 
L 123.025974 132.123199 
L 123.155844 132.869497 
L 123.220779 132.869497 
L 123.350649 133.988944 
L 123.74026 133.988944 
L 124 136.352221 
L 124.649351 136.352221 
L 124.844156 138.093584 
L 124.909091 138.093584 
L 125.103896 141.700691 
L 125.233766 141.700691 
L 125.428571 144.188352 
L 125.493506 144.188352 
L 125.623377 145.556565 
L 125.818182 145.556565 
L 126.142857 148.666141 
L 126.337662 148.666141 
L 126.467532 149.661205 
L 126.662338 149.661205 
L 126.987013 154.014611 
L 127.246753 154.014611 
L 127.506494 157.497335 
L 127.571429 157.497335 
L 127.701299 158.741166 
L 128.090909 158.741166 
L 128.220779 159.73623 
L 128.350649 159.73623 
L 128.480519 160.731294 
L 128.675325 160.731294 
L 128.87013 162.845805 
L 129.194805 162.845805 
L 129.324675 164.338402 
L 129.649351 164.338402 
L 129.909091 168.567425 
L 130.363636 168.567425 
L 130.493506 169.811255 
L 130.558442 169.811255 
L 130.688312 170.930702 
L 130.753247 170.930702 
L 130.883117 172.547681 
L 131.272727 172.547681 
L 131.402597 173.791512 
L 132.051948 173.791512 
L 132.181818 174.910959 
L 132.571429 174.910959 
L 132.701299 175.408491 
L 133.090909 175.408491 
L 133.220779 176.652321 
L 133.415584 176.652321 
L 133.61039 179.388748 
L 136.337662 179.388748 
L 136.467532 180.756961 
L 136.532468 180.756961 
L 136.792208 184.985984 
L 137.246753 184.985984 
L 137.376623 186.602963 
L 137.506494 186.602963 
L 137.636364 187.971177 
L 138.480519 187.971177 
L 138.87013 190.707603 
L 139.584416 190.707603 
L 139.714286 192.075816 
L 141.077922 192.075816 
L 141.272727 195.185392 
L 141.727273 195.185392 
L 141.987013 199.165649 
L 142.181818 199.165649 
L 142.311688 201.28016 
L 142.506494 201.28016 
L 142.636364 203.021522 
L 142.701299 203.021522 
L 142.831169 204.016586 
L 143.285714 204.016586 
L 143.415584 205.509183 
L 143.675325 205.509183 
L 143.805195 206.877396 
L 144.12987 206.877396 
L 144.25974 209.240673 
L 144.649351 209.240673 
L 144.779221 210.73327 
L 145.298701 210.73327 
L 145.428571 212.225866 
L 145.688312 212.225866 
L 145.818182 213.967228 
L 146.467532 213.967228 
L 146.727273 216.952421 
L 146.792208 216.952421 
L 147.051948 218.942549 
L 149.324675 218.942549 
L 149.454545 220.808295 
L 151.012987 220.808295 
L 151.142857 221.678976 
L 151.207792 221.678976 
L 151.337662 223.171572 
L 151.792208 223.171572 
L 151.922078 224.539785 
L 154.25974 224.539785 
L 154.38961 225.783615 
L 154.909091 225.783615 
L 155.038961 227.524978 
L 155.688312 227.524978 
L 155.818182 228.644425 
L 156.532468 228.644425 
L 156.662338 229.763872 
L 157.506494 229.763872 
L 157.701299 232.127149 
L 157.766234 232.127149 
L 157.896104 233.122214 
L 157.961039 233.122214 
L 158.090909 234.863576 
L 158.87013 234.863576 
L 159 236.729321 
L 160.103896 236.729321 
L 160.233766 238.097535 
L 161.467532 238.097535 
L 161.597403 239.341365 
L 162.766234 239.341365 
L 162.896104 240.585195 
L 163.090909 240.585195 
L 163.220779 242.077791 
L 163.350649 242.077791 
L 163.480519 243.570388 
L 166.532468 243.570388 
L 166.662338 245.062984 
L 167.441558 245.062984 
L 167.571429 246.928729 
L 167.896104 246.928729 
L 168.025974 248.545709 
L 169.779221 248.545709 
L 169.974026 252.774732 
L 171.792208 252.774732 
L 171.922078 254.142945 
L 172.441558 254.142945 
L 172.571429 255.262392 
L 173.545455 255.262392 
L 173.74026 258.247585 
L 173.87013 258.247585 
L 174 259.988947 
L 174.324675 259.988947 
L 174.454545 260.610862 
L 174.519481 260.610862 
L 174.649351 261.605926 
L 174.714286 261.605926 
L 174.844156 263.596055 
L 175.363636 263.596055 
L 175.493506 265.088651 
L 175.688312 265.088651 
L 175.818182 266.581248 
L 176.142857 266.581248 
L 176.272727 269.068908 
L 176.922078 269.068908 
L 177.051948 270.561504 
L 177.441558 270.561504 
L 177.571429 272.054101 
L 177.831169 272.054101 
L 177.961039 273.546697 
L 178.155844 273.546697 
L 178.285714 274.790527 
L 179.12987 274.790527 
L 179.25974 275.909974 
L 181.077922 275.909974 
L 181.207792 277.153804 
L 181.272727 277.153804 
L 181.402597 279.019549 
L 181.857143 279.019549 
L 181.987013 279.392699 
L 183.61039 279.392699 
L 183.74026 280.885295 
L 191.922078 280.885295 
L 192.051948 282.502274 
L 193.74026 282.502274 
L 193.87013 283.248572 
L 194.38961 283.248572 
L 194.519481 284.989934 
L 194.974026 284.989934 
L 195.103896 286.482531 
L 196.207792 286.482531 
L 196.337662 287.228829 
L 196.467532 287.228829 
L 196.597403 288.845808 
L 199 288.845808 
L 199.12987 290.462787 
L 200.363636 290.462787 
L 200.493506 292.452916 
L 201.077922 292.452916 
L 201.272727 294.940576 
L 202.506494 294.940576 
L 202.636364 296.308789 
L 206.337662 296.308789 
L 206.467532 298.050152 
L 208.74026 298.050152 
L 208.87013 299.667131 
L 210.168831 299.667131 
L 210.298701 301.657259 
L 213.675325 301.657259 
L 213.805195 303.025473 
L 248.545455 303.025473 
L 248.675325 304.393686 
L 250.103896 304.393686 
L 250.233766 305.886282 
L 250.428571 305.886282 
L 250.558442 307.752027 
L 251.012987 307.752027 
L 251.142857 308.871475 
L 252.571429 308.871475 
L 252.766234 312.478582 
L 253.220779 312.478582 
L 253.350649 314.344328 
L 254.584416 314.344328 
L 254.714286 315.215009 
L 254.909091 315.215009 
L 255.038961 316.458839 
L 255.558442 316.458839 
L 255.688312 317.702669 
L 255.818182 317.702669 
L 256.012987 320.812245 
L 256.857143 320.812245 
L 256.987013 322.304841 
L 257.181818 322.304841 
L 257.311688 323.548672 
L 258.350649 323.548672 
L 258.480519 324.543736 
L 258.545455 324.543736 
L 258.675325 325.165651 
L 259.454545 325.165651 
L 259.584416 326.907013 
L 260.493506 326.907013 
L 260.623377 328.399609 
L 260.688312 328.399609 
L 260.818182 330.265355 
L 260.948052 330.265355 
L 261.142857 333.126164 
L 263.480519 333.126164 
L 263.74026 335.613825 
L 264.12987 335.613825 
L 264.324675 338.847783 
L 266.857143 338.847783 
L 266.987013 340.464763 
L 267.831169 340.464763 
L 267.961039 342.206125 
L 268.220779 342.206125 
L 268.415584 344.44502 
L 272.896104 344.44502 
L 273.025974 346.186382 
L 273.220779 346.186382 
L 273.350649 346.93268 
L 277.051948 346.93268 
L 277.181818 348.425276 
L 284.194805 348.425276 
L 284.324675 350.042256 
L 622.636364 350.042256 
L 622.636364 350.042256 
" clip-path="url(#p8ed8eaf463)" style="fill: none; stroke-dasharray: 3.7,1.6; stroke-dashoffset: 0; stroke: #d62728"/>
    <defs>
     <path id="m67caa3b2ef" d="M -3 3 
L 3 3 
L 3 -3 
L -3 -3 
z
" style="stroke: #d62728; stroke-linejoin: miter"/>
    </defs>
    <g clip-path="url(#p8ed8eaf463)">
     <use xlink:href="#m67caa3b2ef" x="115.363636" y="111.6" style="fill: #d62728; stroke: #d62728; stroke-linejoin: miter"/>
     <use xlink:href="#m67caa3b2ef" x="180.298701" y="275.909974" style="fill: #d62728; stroke: #d62728; stroke-linejoin: miter"/>
     <use xlink:href="#m67caa3b2ef" x="245.233766" y="303.025473" style="fill: #d62728; stroke: #d62728; stroke-linejoin: miter"/>
     <use xlink:href="#m67caa3b2ef" x="310.168831" y="350.042256" style="fill: #d62728; stroke: #d62728; stroke-linejoin: miter"/>
     <use xlink:href="#m67caa3b2ef" x="375.103896" y="350.042256" style="fill: #d62728; stroke: #d62728; stroke-linejoin: miter"/>
     <use xlink:href="#m67caa3b2ef" x="440.038961" y="350.042256" style="fill: #d62728; stroke: #d62728; stroke-linejoin: miter"/>
     <use xlink:href="#m67caa3b2ef" x="504.974026" y="350.042256" style="fill: #d62728; stroke: #d62728; stroke-linejoin: miter"/>
     <use xlink:href="#m67caa3b2ef" x="569.909091" y="350.042256" style="fill: #d62728; stroke: #d62728; stroke-linejoin: miter"/>
    </g>
   </g>
   <g id="line2d_35">
    <path d="M 115.363636 582.762609 
L 115.428571 593.708433 
L 115.493506 598.061879 
L 115.558442 602.042169 
L 115.623377 603.659161 
L 115.688312 605.151768 
L 115.753247 606.14684 
L 115.818182 607.017527 
L 115.883117 608.136981 
L 115.948052 608.634516 
L 116.012987 609.380819 
L 116.077922 609.75397 
L 116.142857 610.127122 
L 116.207792 610.127122 
L 116.272727 610.375889 
L 116.337662 610.74904 
L 116.402597 611.122191 
L 116.467532 611.495342 
L 116.532468 611.74411 
L 116.597403 611.868493 
L 116.662338 612.11726 
L 116.727273 612.241644 
L 116.792208 612.614795 
L 116.857143 612.863562 
L 116.922078 612.987946 
L 116.987013 613.236713 
L 117.051948 613.48548 
L 117.116883 613.48548 
L 117.181818 613.48548 
L 117.246753 613.48548 
L 117.311688 613.48548 
L 117.376623 613.48548 
L 117.441558 613.48548 
L 117.506494 613.609864 
L 117.571429 613.858631 
L 117.636364 613.858631 
L 117.701299 613.983014 
L 117.766234 614.356165 
L 117.831169 614.356165 
L 117.896104 614.356165 
L 117.961039 614.356165 
L 118.025974 614.480549 
L 118.090909 614.729316 
L 118.155844 614.853699 
L 118.220779 614.853699 
L 118.285714 614.853699 
L 118.350649 614.853699 
L 118.415584 614.978083 
L 118.480519 615.102466 
L 118.545455 615.102466 
L 118.61039 615.22685 
L 118.675325 615.22685 
L 118.74026 615.351233 
L 118.805195 615.475617 
L 118.87013 615.6 
" clip-path="url(#p8ed8eaf463)" style="fill: none; stroke-dasharray: 9.25,4; stroke-dashoffset: 0; stroke: #9467bd; stroke-width: 2.5"/>
    <defs>
     <path id="m1cb5d2aabe" d="M -0 8.485281 
L 5.091169 0 
L 0 -8.485281 
L -5.091169 -0 
z
" style="stroke: #9467bd; stroke-linejoin: miter"/>
    </defs>
    <g clip-path="url(#p8ed8eaf463)">
     <use xlink:href="#m1cb5d2aabe" x="115.363636" y="582.762609" style="fill: #9467bd; stroke: #9467bd; stroke-linejoin: miter"/>
     <use xlink:href="#m1cb5d2aabe" x="116.337662" y="610.74904" style="fill: #9467bd; stroke: #9467bd; stroke-linejoin: miter"/>
     <use xlink:href="#m1cb5d2aabe" x="117.311688" y="613.48548" style="fill: #9467bd; stroke: #9467bd; stroke-linejoin: miter"/>
     <use xlink:href="#m1cb5d2aabe" x="118.285714" y="614.853699" style="fill: #9467bd; stroke: #9467bd; stroke-linejoin: miter"/>
    </g>
   </g>
   <g id="line2d_36">
    <path d="M 115.363636 552.661887 
L 118.285714 552.744809 
L 118.805195 552.952116 
L 119.064935 552.993577 
L 119.12987 553.698419 
L 119.324675 559.461536 
L 119.649351 559.502998 
L 120.038961 565.639258 
L 120.233766 565.639258 
L 120.363636 568.831753 
L 120.493506 577.911778 
L 121.077922 577.911778 
L 121.142857 579.362928 
L 121.207792 573.259832 
L 121.272727 573.309585 
L 122.116883 573.359339 
L 122.246753 575.647994 
L 122.376623 566.281913 
L 151.532468 566.281913 
L 151.597403 569.453654 
L 151.727273 600.093525 
L 166.012987 600.093525 
L 166.142857 601.834886 
L 166.272727 600.922741 
L 178.675325 600.922741 
L 178.805195 602.166576 
L 178.935065 590.474518 
L 199.844156 590.474518 
L 199.909091 595.201068 
L 199.909091 595.201068 
" clip-path="url(#p8ed8eaf463)" style="fill: none; stroke-dasharray: 9.25,4; stroke-dashoffset: 0; stroke: #8c564b; stroke-width: 2.5"/>
    <defs>
     <path id="m9197265e05" d="M -0 6 
L 6 -6 
L -6 -6 
z
" style="stroke: #8c564b; stroke-linejoin: miter"/>
    </defs>
    <g clip-path="url(#p8ed8eaf463)">
     <use xlink:href="#m9197265e05" x="115.363636" y="552.661887" style="fill: #8c564b; stroke: #8c564b; stroke-linejoin: miter"/>
     <use xlink:href="#m9197265e05" x="150.753247" y="566.281913" style="fill: #8c564b; stroke: #8c564b; stroke-linejoin: miter"/>
     <use xlink:href="#m9197265e05" x="180.493506" y="590.474518" style="fill: #8c564b; stroke: #8c564b; stroke-linejoin: miter"/>
    </g>
   </g>
   <g id="line2d_37">
    <path d="M 115.363636 570.324379 
L 151.532468 570.324379 
L 151.597403 574.055852 
L 151.727273 611.370965 
L 178.675325 611.370965 
L 178.805195 613.858633 
L 178.805195 613.858633 
" clip-path="url(#p8ed8eaf463)" style="fill: none; stroke-dasharray: 9.25,4; stroke-dashoffset: 0; stroke: #e377c2; stroke-width: 2.5"/>
    <defs>
     <path id="mb050e097d7" d="M -2 6 
L 2 6 
L 2 2 
L 6 2 
L 6 -2 
L 2 -2 
L 2 -6 
L -2 -6 
L -2 -2 
L -6 -2 
L -6 2 
L -2 2 
z
" style="stroke: #e377c2; stroke-linejoin: miter"/>
    </defs>
    <g clip-path="url(#p8ed8eaf463)">
     <use xlink:href="#mb050e097d7" x="115.363636" y="570.324379" style="fill: #e377c2; stroke: #e377c2; stroke-linejoin: miter"/>
     <use xlink:href="#mb050e097d7" x="153.090909" y="611.370965" style="fill: #e377c2; stroke: #e377c2; stroke-linejoin: miter"/>
    </g>
   </g>
   <g id="patch_3">
    <path d="M 90 640.8 
L 90 86.4 
" style="fill: none; stroke: #cccccc; stroke-linejoin: miter; stroke-linecap: square"/>
   </g>
   <g id="patch_4">
    <path d="M 648 640.8 
L 648 86.4 
" style="fill: none; stroke: #cccccc; stroke-linejoin: miter; stroke-linecap: square"/>
   </g>
   <g id="patch_5">
    <path d="M 90 640.8 
L 648 640.8 
" style="fill: none; stroke: #cccccc; stroke-linejoin: miter; stroke-linecap: square"/>
   </g>
   <g id="patch_6">
    <path d="M 90 86.4 
L 648 86.4 
" style="fill: none; stroke: #cccccc; stroke-linejoin: miter; stroke-linecap: square"/>
   </g>
   <g id="text_18">
    <!-- Latency v/s rounds in Centralised Learning -->
    <g style="fill: #262626" transform="translate(232.529625 80.4) scale(0.144 -0.144)">
     <defs>
      <path id="ArialMT-4c" d="M 469 0 
L 469 4581 
L 1075 4581 
L 1075 541 
L 3331 541 
L 3331 0 
L 469 0 
z
" transform="scale(0.015625)"/>
      <path id="ArialMT-61" d="M 2588 409 
Q 2275 144 1986 34 
Q 1697 -75 1366 -75 
Q 819 -75 525 192 
Q 231 459 231 875 
Q 231 1119 342 1320 
Q 453 1522 633 1644 
Q 813 1766 1038 1828 
Q 1203 1872 1538 1913 
Q 2219 1994 2541 2106 
Q 2544 2222 2544 2253 
Q 2544 2597 2384 2738 
Q 2169 2928 1744 2928 
Q 1347 2928 1158 2789 
Q 969 2650 878 2297 
L 328 2372 
Q 403 2725 575 2942 
Q 747 3159 1072 3276 
Q 1397 3394 1825 3394 
Q 2250 3394 2515 3294 
Q 2781 3194 2906 3042 
Q 3031 2891 3081 2659 
Q 3109 2516 3109 2141 
L 3109 1391 
Q 3109 606 3145 398 
Q 3181 191 3288 0 
L 2700 0 
Q 2613 175 2588 409 
z
M 2541 1666 
Q 2234 1541 1622 1453 
Q 1275 1403 1131 1340 
Q 988 1278 909 1158 
Q 831 1038 831 891 
Q 831 666 1001 516 
Q 1172 366 1500 366 
Q 1825 366 2078 508 
Q 2331 650 2450 897 
Q 2541 1088 2541 1459 
L 2541 1666 
z
" transform="scale(0.015625)"/>
      <path id="ArialMT-74" d="M 1650 503 
L 1731 6 
Q 1494 -44 1306 -44 
Q 1000 -44 831 53 
Q 663 150 594 308 
Q 525 466 525 972 
L 525 2881 
L 113 2881 
L 113 3319 
L 525 3319 
L 525 4141 
L 1084 4478 
L 1084 3319 
L 1650 3319 
L 1650 2881 
L 1084 2881 
L 1084 941 
Q 1084 700 1114 631 
Q 1144 563 1211 522 
Q 1278 481 1403 481 
Q 1497 481 1650 503 
z
" transform="scale(0.015625)"/>
      <path id="ArialMT-65" d="M 2694 1069 
L 3275 997 
Q 3138 488 2766 206 
Q 2394 -75 1816 -75 
Q 1088 -75 661 373 
Q 234 822 234 1631 
Q 234 2469 665 2931 
Q 1097 3394 1784 3394 
Q 2450 3394 2872 2941 
Q 3294 2488 3294 1666 
Q 3294 1616 3291 1516 
L 816 1516 
Q 847 969 1125 678 
Q 1403 388 1819 388 
Q 2128 388 2347 550 
Q 2566 713 2694 1069 
z
M 847 1978 
L 2700 1978 
Q 2663 2397 2488 2606 
Q 2219 2931 1791 2931 
Q 1403 2931 1139 2672 
Q 875 2413 847 1978 
z
" transform="scale(0.015625)"/>
      <path id="ArialMT-6e" d="M 422 0 
L 422 3319 
L 928 3319 
L 928 2847 
Q 1294 3394 1984 3394 
Q 2284 3394 2536 3286 
Q 2788 3178 2913 3003 
Q 3038 2828 3088 2588 
Q 3119 2431 3119 2041 
L 3119 0 
L 2556 0 
L 2556 2019 
Q 2556 2363 2490 2533 
Q 2425 2703 2258 2804 
Q 2091 2906 1866 2906 
Q 1506 2906 1245 2678 
Q 984 2450 984 1813 
L 984 0 
L 422 0 
z
" transform="scale(0.015625)"/>
      <path id="ArialMT-63" d="M 2588 1216 
L 3141 1144 
Q 3050 572 2676 248 
Q 2303 -75 1759 -75 
Q 1078 -75 664 370 
Q 250 816 250 1647 
Q 250 2184 428 2587 
Q 606 2991 970 3192 
Q 1334 3394 1763 3394 
Q 2303 3394 2647 3120 
Q 2991 2847 3088 2344 
L 2541 2259 
Q 2463 2594 2264 2762 
Q 2066 2931 1784 2931 
Q 1359 2931 1093 2626 
Q 828 2322 828 1663 
Q 828 994 1084 691 
Q 1341 388 1753 388 
Q 2084 388 2306 591 
Q 2528 794 2588 1216 
z
" transform="scale(0.015625)"/>
      <path id="ArialMT-79" d="M 397 -1278 
L 334 -750 
Q 519 -800 656 -800 
Q 844 -800 956 -737 
Q 1069 -675 1141 -563 
Q 1194 -478 1313 -144 
Q 1328 -97 1363 -6 
L 103 3319 
L 709 3319 
L 1400 1397 
Q 1534 1031 1641 628 
Q 1738 1016 1872 1384 
L 2581 3319 
L 3144 3319 
L 1881 -56 
Q 1678 -603 1566 -809 
Q 1416 -1088 1222 -1217 
Q 1028 -1347 759 -1347 
Q 597 -1347 397 -1278 
z
" transform="scale(0.015625)"/>
      <path id="ArialMT-20" transform="scale(0.015625)"/>
      <path id="ArialMT-76" d="M 1344 0 
L 81 3319 
L 675 3319 
L 1388 1331 
Q 1503 1009 1600 663 
Q 1675 925 1809 1294 
L 2547 3319 
L 3125 3319 
L 1869 0 
L 1344 0 
z
" transform="scale(0.015625)"/>
      <path id="ArialMT-2f" d="M 0 -78 
L 1328 4659 
L 1778 4659 
L 453 -78 
L 0 -78 
z
" transform="scale(0.015625)"/>
      <path id="ArialMT-73" d="M 197 991 
L 753 1078 
Q 800 744 1014 566 
Q 1228 388 1613 388 
Q 2000 388 2187 545 
Q 2375 703 2375 916 
Q 2375 1106 2209 1216 
Q 2094 1291 1634 1406 
Q 1016 1563 777 1677 
Q 538 1791 414 1992 
Q 291 2194 291 2438 
Q 291 2659 392 2848 
Q 494 3038 669 3163 
Q 800 3259 1026 3326 
Q 1253 3394 1513 3394 
Q 1903 3394 2198 3281 
Q 2494 3169 2634 2976 
Q 2775 2784 2828 2463 
L 2278 2388 
Q 2241 2644 2061 2787 
Q 1881 2931 1553 2931 
Q 1166 2931 1000 2803 
Q 834 2675 834 2503 
Q 834 2394 903 2306 
Q 972 2216 1119 2156 
Q 1203 2125 1616 2013 
Q 2213 1853 2448 1751 
Q 2684 1650 2818 1456 
Q 2953 1263 2953 975 
Q 2953 694 2789 445 
Q 2625 197 2315 61 
Q 2006 -75 1616 -75 
Q 969 -75 630 194 
Q 291 463 197 991 
z
" transform="scale(0.015625)"/>
      <path id="ArialMT-72" d="M 416 0 
L 416 3319 
L 922 3319 
L 922 2816 
Q 1116 3169 1280 3281 
Q 1444 3394 1641 3394 
Q 1925 3394 2219 3213 
L 2025 2691 
Q 1819 2813 1613 2813 
Q 1428 2813 1281 2702 
Q 1134 2591 1072 2394 
Q 978 2094 978 1738 
L 978 0 
L 416 0 
z
" transform="scale(0.015625)"/>
      <path id="ArialMT-6f" d="M 213 1659 
Q 213 2581 725 3025 
Q 1153 3394 1769 3394 
Q 2453 3394 2887 2945 
Q 3322 2497 3322 1706 
Q 3322 1066 3130 698 
Q 2938 331 2570 128 
Q 2203 -75 1769 -75 
Q 1072 -75 642 372 
Q 213 819 213 1659 
z
M 791 1659 
Q 791 1022 1069 705 
Q 1347 388 1769 388 
Q 2188 388 2466 706 
Q 2744 1025 2744 1678 
Q 2744 2294 2464 2611 
Q 2184 2928 1769 2928 
Q 1347 2928 1069 2612 
Q 791 2297 791 1659 
z
" transform="scale(0.015625)"/>
      <path id="ArialMT-75" d="M 2597 0 
L 2597 488 
Q 2209 -75 1544 -75 
Q 1250 -75 995 37 
Q 741 150 617 320 
Q 494 491 444 738 
Q 409 903 409 1263 
L 409 3319 
L 972 3319 
L 972 1478 
Q 972 1038 1006 884 
Q 1059 663 1231 536 
Q 1403 409 1656 409 
Q 1909 409 2131 539 
Q 2353 669 2445 892 
Q 2538 1116 2538 1541 
L 2538 3319 
L 3100 3319 
L 3100 0 
L 2597 0 
z
" transform="scale(0.015625)"/>
      <path id="ArialMT-64" d="M 2575 0 
L 2575 419 
Q 2259 -75 1647 -75 
Q 1250 -75 917 144 
Q 584 363 401 755 
Q 219 1147 219 1656 
Q 219 2153 384 2558 
Q 550 2963 881 3178 
Q 1213 3394 1622 3394 
Q 1922 3394 2156 3267 
Q 2391 3141 2538 2938 
L 2538 4581 
L 3097 4581 
L 3097 0 
L 2575 0 
z
M 797 1656 
Q 797 1019 1065 703 
Q 1334 388 1700 388 
Q 2069 388 2326 689 
Q 2584 991 2584 1609 
Q 2584 2291 2321 2609 
Q 2059 2928 1675 2928 
Q 1300 2928 1048 2622 
Q 797 2316 797 1656 
z
" transform="scale(0.015625)"/>
      <path id="ArialMT-69" d="M 425 3934 
L 425 4581 
L 988 4581 
L 988 3934 
L 425 3934 
z
M 425 0 
L 425 3319 
L 988 3319 
L 988 0 
L 425 0 
z
" transform="scale(0.015625)"/>
      <path id="ArialMT-43" d="M 3763 1606 
L 4369 1453 
Q 4178 706 3683 314 
Q 3188 -78 2472 -78 
Q 1731 -78 1267 223 
Q 803 525 561 1097 
Q 319 1669 319 2325 
Q 319 3041 592 3573 
Q 866 4106 1370 4382 
Q 1875 4659 2481 4659 
Q 3169 4659 3637 4309 
Q 4106 3959 4291 3325 
L 3694 3184 
Q 3534 3684 3231 3912 
Q 2928 4141 2469 4141 
Q 1941 4141 1586 3887 
Q 1231 3634 1087 3207 
Q 944 2781 944 2328 
Q 944 1744 1114 1308 
Q 1284 872 1643 656 
Q 2003 441 2422 441 
Q 2931 441 3284 734 
Q 3638 1028 3763 1606 
z
" transform="scale(0.015625)"/>
      <path id="ArialMT-6c" d="M 409 0 
L 409 4581 
L 972 4581 
L 972 0 
L 409 0 
z
" transform="scale(0.015625)"/>
      <path id="ArialMT-67" d="M 319 -275 
L 866 -356 
Q 900 -609 1056 -725 
Q 1266 -881 1628 -881 
Q 2019 -881 2231 -725 
Q 2444 -569 2519 -288 
Q 2563 -116 2559 434 
Q 2191 0 1641 0 
Q 956 0 581 494 
Q 206 988 206 1678 
Q 206 2153 378 2554 
Q 550 2956 876 3175 
Q 1203 3394 1644 3394 
Q 2231 3394 2613 2919 
L 2613 3319 
L 3131 3319 
L 3131 450 
Q 3131 -325 2973 -648 
Q 2816 -972 2473 -1159 
Q 2131 -1347 1631 -1347 
Q 1038 -1347 672 -1080 
Q 306 -813 319 -275 
z
M 784 1719 
Q 784 1066 1043 766 
Q 1303 466 1694 466 
Q 2081 466 2343 764 
Q 2606 1063 2606 1700 
Q 2606 2309 2336 2618 
Q 2066 2928 1684 2928 
Q 1309 2928 1046 2623 
Q 784 2319 784 1719 
z
" transform="scale(0.015625)"/>
     </defs>
     <use xlink:href="#ArialMT-4c"/>
     <use xlink:href="#ArialMT-61" x="55.615234"/>
     <use xlink:href="#ArialMT-74" x="111.230469"/>
     <use xlink:href="#ArialMT-65" x="139.013672"/>
     <use xlink:href="#ArialMT-6e" x="194.628906"/>
     <use xlink:href="#ArialMT-63" x="250.244141"/>
     <use xlink:href="#ArialMT-79" x="300.244141"/>
     <use xlink:href="#ArialMT-20" x="350.244141"/>
     <use xlink:href="#ArialMT-76" x="378.027344"/>
     <use xlink:href="#ArialMT-2f" x="428.027344"/>
     <use xlink:href="#ArialMT-73" x="455.810547"/>
     <use xlink:href="#ArialMT-20" x="505.810547"/>
     <use xlink:href="#ArialMT-72" x="533.59375"/>
     <use xlink:href="#ArialMT-6f" x="566.894531"/>
     <use xlink:href="#ArialMT-75" x="622.509766"/>
     <use xlink:href="#ArialMT-6e" x="678.125"/>
     <use xlink:href="#ArialMT-64" x="733.740234"/>
     <use xlink:href="#ArialMT-73" x="789.355469"/>
     <use xlink:href="#ArialMT-20" x="839.355469"/>
     <use xlink:href="#ArialMT-69" x="867.138672"/>
     <use xlink:href="#ArialMT-6e" x="889.355469"/>
     <use xlink:href="#ArialMT-20" x="944.970703"/>
     <use xlink:href="#ArialMT-43" x="972.753906"/>
     <use xlink:href="#ArialMT-65" x="1044.970703"/>
     <use xlink:href="#ArialMT-6e" x="1100.585938"/>
     <use xlink:href="#ArialMT-74" x="1156.201172"/>
     <use xlink:href="#ArialMT-72" x="1183.984375"/>
     <use xlink:href="#ArialMT-61" x="1217.285156"/>
     <use xlink:href="#ArialMT-6c" x="1272.900391"/>
     <use xlink:href="#ArialMT-69" x="1295.117188"/>
     <use xlink:href="#ArialMT-73" x="1317.333984"/>
     <use xlink:href="#ArialMT-65" x="1367.333984"/>
     <use xlink:href="#ArialMT-64" x="1422.949219"/>
     <use xlink:href="#ArialMT-20" x="1478.564453"/>
     <use xlink:href="#ArialMT-4c" x="1506.347656"/>
     <use xlink:href="#ArialMT-65" x="1561.962891"/>
     <use xlink:href="#ArialMT-61" x="1617.578125"/>
     <use xlink:href="#ArialMT-72" x="1673.193359"/>
     <use xlink:href="#ArialMT-6e" x="1706.494141"/>
     <use xlink:href="#ArialMT-69" x="1762.109375"/>
     <use xlink:href="#ArialMT-6e" x="1784.326172"/>
     <use xlink:href="#ArialMT-67" x="1839.941406"/>
    </g>
   </g>
   <g id="legend_1">
    <g id="line2d_38">
     <path d="M 514.575 101.589375 
L 526.575 101.589375 
L 538.575 101.589375 
" style="fill: none; stroke-dasharray: 3.7,1.6; stroke-dashoffset: 0; stroke: #1f77b4"/>
     <g>
      <use xlink:href="#m5de2ba3f16" x="526.575" y="101.589375" style="fill: #1f77b4; stroke: #1f77b4"/>
     </g>
    </g>
    <g id="text_19">
     <!-- gsw -->
     <g style="fill: #262626" transform="translate(548.175 105.789375) scale(0.12 -0.12)">
      <defs>
       <path id="Arial-BoldMT-67" d="M 378 -219 
L 1381 -341 
Q 1406 -516 1497 -581 
Q 1622 -675 1891 -675 
Q 2234 -675 2406 -572 
Q 2522 -503 2581 -350 
Q 2622 -241 2622 53 
L 2622 538 
Q 2228 0 1628 0 
Q 959 0 569 566 
Q 263 1013 263 1678 
Q 263 2513 664 2953 
Q 1066 3394 1663 3394 
Q 2278 3394 2678 2853 
L 2678 3319 
L 3500 3319 
L 3500 341 
Q 3500 -247 3403 -537 
Q 3306 -828 3131 -993 
Q 2956 -1159 2664 -1253 
Q 2372 -1347 1925 -1347 
Q 1081 -1347 728 -1058 
Q 375 -769 375 -325 
Q 375 -281 378 -219 
z
M 1163 1728 
Q 1163 1200 1367 954 
Q 1572 709 1872 709 
Q 2194 709 2416 961 
Q 2638 1213 2638 1706 
Q 2638 2222 2425 2472 
Q 2213 2722 1888 2722 
Q 1572 2722 1367 2476 
Q 1163 2231 1163 1728 
z
" transform="scale(0.015625)"/>
       <path id="Arial-BoldMT-77" d="M 1078 0 
L 28 3319 
L 881 3319 
L 1503 1144 
L 2075 3319 
L 2922 3319 
L 3475 1144 
L 4109 3319 
L 4975 3319 
L 3909 0 
L 3066 0 
L 2494 2134 
L 1931 0 
L 1078 0 
z
" transform="scale(0.015625)"/>
      </defs>
      <use xlink:href="#Arial-BoldMT-67"/>
      <use xlink:href="#Arial-BoldMT-73" x="61.083984"/>
      <use xlink:href="#Arial-BoldMT-77" x="116.699219"/>
     </g>
    </g>
    <g id="line2d_39">
     <path d="M 514.575 118.704375 
L 526.575 118.704375 
L 538.575 118.704375 
" style="fill: none; stroke-dasharray: 3.7,1.6; stroke-dashoffset: 0; stroke: #ff7f0e"/>
     <g>
      <use xlink:href="#m534535cc6a" x="526.575" y="118.704375" style="fill: #ff7f0e; stroke: #ff7f0e; stroke-linejoin: miter"/>
     </g>
    </g>
    <g id="text_20">
     <!-- nsw -->
     <g style="fill: #262626" transform="translate(548.175 122.904375) scale(0.12 -0.12)">
      <use xlink:href="#Arial-BoldMT-6e"/>
      <use xlink:href="#Arial-BoldMT-73" x="61.083984"/>
      <use xlink:href="#Arial-BoldMT-77" x="116.699219"/>
     </g>
    </g>
    <g id="line2d_40">
     <path d="M 514.575 135.661875 
L 526.575 135.661875 
L 538.575 135.661875 
" style="fill: none; stroke-dasharray: 3.7,1.6; stroke-dashoffset: 0; stroke: #2ca02c"/>
     <g>
      <use xlink:href="#m0e258932ad" x="526.575" y="135.661875" style="fill: #2ca02c; stroke: #2ca02c"/>
     </g>
    </g>
    <g id="text_21">
     <!-- ppo -->
     <g style="fill: #262626" transform="translate(548.175 139.861875) scale(0.12 -0.12)">
      <defs>
       <path id="Arial-BoldMT-70" d="M 434 3319 
L 1253 3319 
L 1253 2831 
Q 1413 3081 1684 3237 
Q 1956 3394 2288 3394 
Q 2866 3394 3269 2941 
Q 3672 2488 3672 1678 
Q 3672 847 3265 386 
Q 2859 -75 2281 -75 
Q 2006 -75 1782 34 
Q 1559 144 1313 409 
L 1313 -1263 
L 434 -1263 
L 434 3319 
z
M 1303 1716 
Q 1303 1156 1525 889 
Q 1747 622 2066 622 
Q 2372 622 2575 867 
Q 2778 1113 2778 1672 
Q 2778 2194 2568 2447 
Q 2359 2700 2050 2700 
Q 1728 2700 1515 2451 
Q 1303 2203 1303 1716 
z
" transform="scale(0.015625)"/>
      </defs>
      <use xlink:href="#Arial-BoldMT-70"/>
      <use xlink:href="#Arial-BoldMT-70" x="61.083984"/>
      <use xlink:href="#Arial-BoldMT-6f" x="122.167969"/>
     </g>
    </g>
    <g id="line2d_41">
     <path d="M 514.575 152.619375 
L 526.575 152.619375 
L 538.575 152.619375 
" style="fill: none; stroke-dasharray: 3.7,1.6; stroke-dashoffset: 0; stroke: #d62728"/>
     <g>
      <use xlink:href="#m67caa3b2ef" x="526.575" y="152.619375" style="fill: #d62728; stroke: #d62728; stroke-linejoin: miter"/>
     </g>
    </g>
    <g id="text_22">
     <!-- conventional -->
     <g style="fill: #262626" transform="translate(548.175 156.819375) scale(0.12 -0.12)">
      <defs>
       <path id="Arial-BoldMT-76" d="M 1372 0 
L 34 3319 
L 956 3319 
L 1581 1625 
L 1763 1059 
Q 1834 1275 1853 1344 
Q 1897 1484 1947 1625 
L 2578 3319 
L 3481 3319 
L 2163 0 
L 1372 0 
z
" transform="scale(0.015625)"/>
       <path id="Arial-BoldMT-69" d="M 459 3769 
L 459 4581 
L 1338 4581 
L 1338 3769 
L 459 3769 
z
M 459 0 
L 459 3319 
L 1338 3319 
L 1338 0 
L 459 0 
z
" transform="scale(0.015625)"/>
       <path id="Arial-BoldMT-6c" d="M 459 0 
L 459 4581 
L 1338 4581 
L 1338 0 
L 459 0 
z
" transform="scale(0.015625)"/>
      </defs>
      <use xlink:href="#Arial-BoldMT-63"/>
      <use xlink:href="#Arial-BoldMT-6f" x="55.615234"/>
      <use xlink:href="#Arial-BoldMT-6e" x="116.699219"/>
      <use xlink:href="#Arial-BoldMT-76" x="177.783203"/>
      <use xlink:href="#Arial-BoldMT-65" x="233.398438"/>
      <use xlink:href="#Arial-BoldMT-6e" x="289.013672"/>
      <use xlink:href="#Arial-BoldMT-74" x="350.097656"/>
      <use xlink:href="#Arial-BoldMT-69" x="383.398438"/>
      <use xlink:href="#Arial-BoldMT-6f" x="411.181641"/>
      <use xlink:href="#Arial-BoldMT-6e" x="472.265625"/>
      <use xlink:href="#Arial-BoldMT-61" x="533.349609"/>
      <use xlink:href="#Arial-BoldMT-6c" x="588.964844"/>
     </g>
    </g>
    <g id="line2d_42">
     <path d="M 514.575 169.576875 
L 526.575 169.576875 
L 538.575 169.576875 
" style="fill: none; stroke-dasharray: 9.25,4; stroke-dashoffset: 0; stroke: #9467bd; stroke-width: 2.5"/>
     <g>
      <use xlink:href="#m1cb5d2aabe" x="526.575" y="169.576875" style="fill: #9467bd; stroke: #9467bd; stroke-linejoin: miter"/>
     </g>
    </g>
    <g id="text_23">
     <!-- direct -->
     <g style="fill: #262626" transform="translate(548.175 173.776875) scale(0.12 -0.12)">
      <use xlink:href="#Arial-BoldMT-64"/>
      <use xlink:href="#Arial-BoldMT-69" x="61.083984"/>
      <use xlink:href="#Arial-BoldMT-72" x="88.867188"/>
      <use xlink:href="#Arial-BoldMT-65" x="127.783203"/>
      <use xlink:href="#Arial-BoldMT-63" x="183.398438"/>
      <use xlink:href="#Arial-BoldMT-74" x="239.013672"/>
     </g>
    </g>
    <g id="line2d_43">
     <path d="M 514.575 186.680625 
L 526.575 186.680625 
L 538.575 186.680625 
" style="fill: none; stroke-dasharray: 9.25,4; stroke-dashoffset: 0; stroke: #8c564b; stroke-width: 2.5"/>
     <g>
      <use xlink:href="#m9197265e05" x="526.575" y="186.680625" style="fill: #8c564b; stroke: #8c564b; stroke-linejoin: miter"/>
     </g>
    </g>
    <g id="text_24">
     <!-- LEACH-avg -->
     <g style="fill: #262626" transform="translate(548.175 190.880625) scale(0.12 -0.12)">
      <defs>
       <path id="Arial-BoldMT-45" d="M 466 0 
L 466 4581 
L 3863 4581 
L 3863 3806 
L 1391 3806 
L 1391 2791 
L 3691 2791 
L 3691 2019 
L 1391 2019 
L 1391 772 
L 3950 772 
L 3950 0 
L 466 0 
z
" transform="scale(0.015625)"/>
       <path id="Arial-BoldMT-41" d="M 4597 0 
L 3591 0 
L 3191 1041 
L 1359 1041 
L 981 0 
L 0 0 
L 1784 4581 
L 2763 4581 
L 4597 0 
z
M 2894 1813 
L 2263 3513 
L 1644 1813 
L 2894 1813 
z
" transform="scale(0.015625)"/>
       <path id="Arial-BoldMT-43" d="M 3397 1684 
L 4294 1400 
Q 4088 650 3608 286 
Q 3128 -78 2391 -78 
Q 1478 -78 890 545 
Q 303 1169 303 2250 
Q 303 3394 893 4026 
Q 1484 4659 2447 4659 
Q 3288 4659 3813 4163 
Q 4125 3869 4281 3319 
L 3366 3100 
Q 3284 3456 3026 3662 
Q 2769 3869 2400 3869 
Q 1891 3869 1573 3503 
Q 1256 3138 1256 2319 
Q 1256 1450 1568 1081 
Q 1881 713 2381 713 
Q 2750 713 3015 947 
Q 3281 1181 3397 1684 
z
" transform="scale(0.015625)"/>
       <path id="Arial-BoldMT-48" d="M 469 0 
L 469 4581 
L 1394 4581 
L 1394 2778 
L 3206 2778 
L 3206 4581 
L 4131 4581 
L 4131 0 
L 3206 0 
L 3206 2003 
L 1394 2003 
L 1394 0 
L 469 0 
z
" transform="scale(0.015625)"/>
       <path id="Arial-BoldMT-2d" d="M 359 1222 
L 359 2100 
L 2084 2100 
L 2084 1222 
L 359 1222 
z
" transform="scale(0.015625)"/>
      </defs>
      <use xlink:href="#Arial-BoldMT-4c"/>
      <use xlink:href="#Arial-BoldMT-45" x="61.083984"/>
      <use xlink:href="#Arial-BoldMT-41" x="127.783203"/>
      <use xlink:href="#Arial-BoldMT-43" x="200"/>
      <use xlink:href="#Arial-BoldMT-48" x="272.216797"/>
      <use xlink:href="#Arial-BoldMT-2d" x="344.433594"/>
      <use xlink:href="#Arial-BoldMT-61" x="377.734375"/>
      <use xlink:href="#Arial-BoldMT-76" x="433.349609"/>
      <use xlink:href="#Arial-BoldMT-67" x="488.964844"/>
     </g>
    </g>
    <g id="line2d_44">
     <path d="M 514.575 203.941875 
L 526.575 203.941875 
L 538.575 203.941875 
" style="fill: none; stroke-dasharray: 9.25,4; stroke-dashoffset: 0; stroke: #e377c2; stroke-width: 2.5"/>
     <g>
      <use xlink:href="#mb050e097d7" x="526.575" y="203.941875" style="fill: #e377c2; stroke: #e377c2; stroke-linejoin: miter"/>
     </g>
    </g>
    <g id="text_25">
     <!-- LEACH p = 0.35 -->
     <g style="fill: #262626" transform="translate(548.175 208.141875) scale(0.12 -0.12)">
      <defs>
       <path id="Arial-BoldMT-20" transform="scale(0.015625)"/>
       <path id="Arial-BoldMT-3d" d="M 266 2550 
L 266 3356 
L 3469 3356 
L 3469 2550 
L 266 2550 
z
M 266 1163 
L 266 1972 
L 3469 1972 
L 3469 1163 
L 266 1163 
z
" transform="scale(0.015625)"/>
       <path id="Arial-BoldMT-2e" d="M 459 0 
L 459 878 
L 1338 878 
L 1338 0 
L 459 0 
z
" transform="scale(0.015625)"/>
      </defs>
      <use xlink:href="#Arial-BoldMT-4c"/>
      <use xlink:href="#Arial-BoldMT-45" x="61.083984"/>
      <use xlink:href="#Arial-BoldMT-41" x="127.783203"/>
      <use xlink:href="#Arial-BoldMT-43" x="200"/>
      <use xlink:href="#Arial-BoldMT-48" x="272.216797"/>
      <use xlink:href="#Arial-BoldMT-20" x="344.433594"/>
      <use xlink:href="#Arial-BoldMT-70" x="372.216797"/>
      <use xlink:href="#Arial-BoldMT-20" x="433.300781"/>
      <use xlink:href="#Arial-BoldMT-3d" x="461.083984"/>
      <use xlink:href="#Arial-BoldMT-20" x="519.482422"/>
      <use xlink:href="#Arial-BoldMT-30" x="547.265625"/>
      <use xlink:href="#Arial-BoldMT-2e" x="602.880859"/>
      <use xlink:href="#Arial-BoldMT-33" x="630.664062"/>
      <use xlink:href="#Arial-BoldMT-35" x="686.279297"/>
     </g>
    </g>
   </g>
  </g>
 </g>
 <defs>
  <clipPath id="p8ed8eaf463">
   <rect x="90" y="86.4" width="558" height="554.4"/>
  </clipPath>
 </defs>
</svg>
