<?xml version="1.0" encoding="utf-8" standalone="no"?>
<!DOCTYPE svg PUBLIC "-//W3C//DTD SVG 1.1//EN"
  "http://www.w3.org/Graphics/SVG/1.1/DTD/svg11.dtd">
<svg xmlns:xlink="http://www.w3.org/1999/xlink" width="720pt" height="720pt" viewBox="0 0 720 720" xmlns="http://www.w3.org/2000/svg" version="1.1">
 <metadata>
  <rdf:RDF xmlns:dc="http://purl.org/dc/elements/1.1/" xmlns:cc="http://creativecommons.org/ns#" xmlns:rdf="http://www.w3.org/1999/02/22-rdf-syntax-ns#">
   <cc:Work>
    <dc:type rdf:resource="http://purl.org/dc/dcmitype/StillImage"/>
    <dc:date>2024-03-27T18:13:24.113553</dc:date>
    <dc:format>image/svg+xml</dc:format>
    <dc:creator>
     <cc:Agent>
      <dc:title>Matplotlib v3.8.3, https://matplotlib.org/</dc:title>
     </cc:Agent>
    </dc:creator>
   </cc:Work>
  </rdf:RDF>
 </metadata>
 <defs>
  <style type="text/css">*{stroke-linejoin: round; stroke-linecap: butt}</style>
 </defs>
 <g id="figure_1">
  <g id="patch_1">
   <path d="M 0 720 
L 720 720 
L 720 0 
L 0 0 
z
" style="fill: #ffffff"/>
  </g>
  <g id="axes_1">
   <g id="patch_2">
    <path d="M 90 640.8 
L 648 640.8 
L 648 86.4 
L 90 86.4 
z
" style="fill: #ffffff"/>
   </g>
   <g id="matplotlib.axis_1">
    <g id="xtick_1">
     <g id="line2d_1">
      <path d="M 115.363636 640.8 
L 115.363636 86.4 
" clip-path="url(#p9c735114a1)" style="fill: none; stroke: #cccccc; stroke-width: 0.8; stroke-linecap: round"/>
     </g>
     <g id="line2d_2"/>
     <g id="text_1">
      <!-- 0 -->
      <g style="fill: #262626" transform="translate(112.583168 651.546875) scale(0.1 -0.1)">
       <defs>
        <path id="LiberationSans-30" d="M 3309 2203 
Q 3309 1569 3189 1136 
Q 3069 703 2861 436 
Q 2653 169 2372 53 
Q 2091 -63 1772 -63 
Q 1450 -63 1172 53 
Q 894 169 689 434 
Q 484 700 367 1133 
Q 250 1566 250 2203 
Q 250 2869 367 3305 
Q 484 3741 690 4000 
Q 897 4259 1178 4364 
Q 1459 4469 1791 4469 
Q 2106 4469 2382 4364 
Q 2659 4259 2865 4000 
Q 3072 3741 3190 3305 
Q 3309 2869 3309 2203 
z
M 2738 2203 
Q 2738 2728 2675 3076 
Q 2613 3425 2491 3633 
Q 2369 3841 2192 3927 
Q 2016 4013 1791 4013 
Q 1553 4013 1372 3925 
Q 1191 3838 1067 3630 
Q 944 3422 881 3073 
Q 819 2725 819 2203 
Q 819 1697 883 1350 
Q 947 1003 1070 792 
Q 1194 581 1372 489 
Q 1550 397 1778 397 
Q 2000 397 2178 489 
Q 2356 581 2479 792 
Q 2603 1003 2670 1350 
Q 2738 1697 2738 2203 
z
" transform="scale(0.015625)"/>
       </defs>
       <use xlink:href="#LiberationSans-30"/>
      </g>
     </g>
    </g>
    <g id="xtick_2">
     <g id="line2d_3">
      <path d="M 216.818588 640.8 
L 216.818588 86.4 
" clip-path="url(#p9c735114a1)" style="fill: none; stroke: #cccccc; stroke-width: 0.8; stroke-linecap: round"/>
     </g>
     <g id="line2d_4"/>
     <g id="text_2">
      <!-- 50000 -->
      <g style="fill: #262626" transform="translate(202.916244 651.546875) scale(0.1 -0.1)">
       <defs>
        <path id="LiberationSans-35" d="M 3291 1434 
Q 3291 1103 3191 828 
Q 3091 553 2894 354 
Q 2697 156 2405 46 
Q 2113 -63 1728 -63 
Q 1381 -63 1123 18 
Q 866 100 687 242 
Q 509 384 404 575 
Q 300 766 256 984 
L 825 1050 
Q 859 925 921 808 
Q 984 691 1092 598 
Q 1200 506 1358 451 
Q 1516 397 1741 397 
Q 1959 397 2137 464 
Q 2316 531 2442 662 
Q 2569 794 2637 984 
Q 2706 1175 2706 1422 
Q 2706 1625 2640 1795 
Q 2575 1966 2453 2089 
Q 2331 2213 2154 2281 
Q 1978 2350 1753 2350 
Q 1613 2350 1494 2325 
Q 1375 2300 1273 2256 
Q 1172 2213 1089 2155 
Q 1006 2097 934 2034 
L 384 2034 
L 531 4403 
L 3034 4403 
L 3034 3925 
L 1044 3925 
L 959 2528 
Q 1109 2644 1334 2726 
Q 1559 2809 1869 2809 
Q 2197 2809 2459 2709 
Q 2722 2609 2906 2426 
Q 3091 2244 3191 1991 
Q 3291 1738 3291 1434 
z
" transform="scale(0.015625)"/>
       </defs>
       <use xlink:href="#LiberationSans-35"/>
       <use xlink:href="#LiberationSans-30" x="55.615234"/>
       <use xlink:href="#LiberationSans-30" x="111.230469"/>
       <use xlink:href="#LiberationSans-30" x="166.845703"/>
       <use xlink:href="#LiberationSans-30" x="222.460938"/>
      </g>
     </g>
    </g>
    <g id="xtick_3">
     <g id="line2d_5">
      <path d="M 318.273539 640.8 
L 318.273539 86.4 
" clip-path="url(#p9c735114a1)" style="fill: none; stroke: #cccccc; stroke-width: 0.8; stroke-linecap: round"/>
     </g>
     <g id="line2d_6"/>
     <g id="text_3">
      <!-- 100000 -->
      <g style="fill: #262626" transform="translate(301.590726 651.546875) scale(0.1 -0.1)">
       <defs>
        <path id="LiberationSans-31" d="M 488 0 
L 488 478 
L 1609 478 
L 1609 3866 
L 616 3156 
L 616 3688 
L 1656 4403 
L 2175 4403 
L 2175 478 
L 3247 478 
L 3247 0 
L 488 0 
z
" transform="scale(0.015625)"/>
       </defs>
       <use xlink:href="#LiberationSans-31"/>
       <use xlink:href="#LiberationSans-30" x="55.615234"/>
       <use xlink:href="#LiberationSans-30" x="111.230469"/>
       <use xlink:href="#LiberationSans-30" x="166.845703"/>
       <use xlink:href="#LiberationSans-30" x="222.460938"/>
       <use xlink:href="#LiberationSans-30" x="278.076172"/>
      </g>
     </g>
    </g>
    <g id="xtick_4">
     <g id="line2d_7">
      <path d="M 419.72849 640.8 
L 419.72849 86.4 
" clip-path="url(#p9c735114a1)" style="fill: none; stroke: #cccccc; stroke-width: 0.8; stroke-linecap: round"/>
     </g>
     <g id="line2d_8"/>
     <g id="text_4">
      <!-- 150000 -->
      <g style="fill: #262626" transform="translate(403.045678 651.546875) scale(0.1 -0.1)">
       <use xlink:href="#LiberationSans-31"/>
       <use xlink:href="#LiberationSans-35" x="55.615234"/>
       <use xlink:href="#LiberationSans-30" x="111.230469"/>
       <use xlink:href="#LiberationSans-30" x="166.845703"/>
       <use xlink:href="#LiberationSans-30" x="222.460938"/>
       <use xlink:href="#LiberationSans-30" x="278.076172"/>
      </g>
     </g>
    </g>
    <g id="xtick_5">
     <g id="line2d_9">
      <path d="M 521.183441 640.8 
L 521.183441 86.4 
" clip-path="url(#p9c735114a1)" style="fill: none; stroke: #cccccc; stroke-width: 0.8; stroke-linecap: round"/>
     </g>
     <g id="line2d_10"/>
     <g id="text_5">
      <!-- 200000 -->
      <g style="fill: #262626" transform="translate(504.500629 651.546875) scale(0.1 -0.1)">
       <defs>
        <path id="LiberationSans-32" d="M 322 0 
L 322 397 
Q 481 763 711 1042 
Q 941 1322 1194 1548 
Q 1447 1775 1695 1969 
Q 1944 2163 2144 2356 
Q 2344 2550 2467 2762 
Q 2591 2975 2591 3244 
Q 2591 3431 2534 3573 
Q 2478 3716 2372 3812 
Q 2266 3909 2117 3957 
Q 1969 4006 1788 4006 
Q 1619 4006 1470 3959 
Q 1322 3913 1206 3819 
Q 1091 3725 1017 3586 
Q 944 3447 922 3263 
L 347 3316 
Q 375 3553 478 3762 
Q 581 3972 762 4130 
Q 944 4288 1198 4378 
Q 1453 4469 1788 4469 
Q 2116 4469 2372 4391 
Q 2628 4313 2804 4159 
Q 2981 4006 3075 3781 
Q 3169 3556 3169 3263 
Q 3169 3041 3089 2841 
Q 3009 2641 2876 2459 
Q 2744 2278 2569 2109 
Q 2394 1941 2203 1780 
Q 2013 1619 1819 1461 
Q 1625 1303 1454 1143 
Q 1284 984 1150 820 
Q 1016 656 941 478 
L 3238 478 
L 3238 0 
L 322 0 
z
" transform="scale(0.015625)"/>
       </defs>
       <use xlink:href="#LiberationSans-32"/>
       <use xlink:href="#LiberationSans-30" x="55.615234"/>
       <use xlink:href="#LiberationSans-30" x="111.230469"/>
       <use xlink:href="#LiberationSans-30" x="166.845703"/>
       <use xlink:href="#LiberationSans-30" x="222.460938"/>
       <use xlink:href="#LiberationSans-30" x="278.076172"/>
      </g>
     </g>
    </g>
    <g id="xtick_6">
     <g id="line2d_11">
      <path d="M 622.638393 640.8 
L 622.638393 86.4 
" clip-path="url(#p9c735114a1)" style="fill: none; stroke: #cccccc; stroke-width: 0.8; stroke-linecap: round"/>
     </g>
     <g id="line2d_12"/>
     <g id="text_6">
      <!-- 250000 -->
      <g style="fill: #262626" transform="translate(605.95558 651.546875) scale(0.1 -0.1)">
       <use xlink:href="#LiberationSans-32"/>
       <use xlink:href="#LiberationSans-35" x="55.615234"/>
       <use xlink:href="#LiberationSans-30" x="111.230469"/>
       <use xlink:href="#LiberationSans-30" x="166.845703"/>
       <use xlink:href="#LiberationSans-30" x="222.460938"/>
       <use xlink:href="#LiberationSans-30" x="278.076172"/>
      </g>
     </g>
    </g>
    <g id="text_7">
     <!-- rounds -->
     <g style="fill: #262626" transform="translate(353.713281 664.86875) scale(0.1 -0.1)">
      <defs>
       <path id="LiberationSans-72" d="M 444 0 
L 444 2594 
Q 444 2700 442 2811 
Q 441 2922 437 3025 
Q 434 3128 431 3218 
Q 428 3309 425 3381 
L 956 3381 
Q 959 3309 964 3217 
Q 969 3125 973 3028 
Q 978 2931 979 2842 
Q 981 2753 981 2691 
L 994 2691 
Q 1053 2884 1120 3026 
Q 1188 3169 1278 3261 
Q 1369 3353 1494 3398 
Q 1619 3444 1797 3444 
Q 1866 3444 1928 3433 
Q 1991 3422 2025 3413 
L 2025 2897 
Q 1969 2913 1894 2920 
Q 1819 2928 1725 2928 
Q 1531 2928 1395 2840 
Q 1259 2753 1173 2598 
Q 1088 2444 1047 2230 
Q 1006 2016 1006 1763 
L 1006 0 
L 444 0 
z
" transform="scale(0.015625)"/>
       <path id="LiberationSans-6f" d="M 3291 1694 
Q 3291 806 2900 371 
Q 2509 -63 1766 -63 
Q 1413 -63 1134 43 
Q 856 150 664 369 
Q 472 588 370 917 
Q 269 1247 269 1694 
Q 269 3444 1784 3444 
Q 2178 3444 2464 3334 
Q 2750 3225 2933 3006 
Q 3116 2788 3203 2459 
Q 3291 2131 3291 1694 
z
M 2700 1694 
Q 2700 2088 2639 2344 
Q 2578 2600 2461 2753 
Q 2344 2906 2175 2967 
Q 2006 3028 1794 3028 
Q 1578 3028 1404 2964 
Q 1231 2900 1109 2745 
Q 988 2591 923 2334 
Q 859 2078 859 1694 
Q 859 1300 928 1042 
Q 997 784 1117 631 
Q 1238 478 1402 415 
Q 1566 353 1759 353 
Q 1975 353 2150 414 
Q 2325 475 2447 628 
Q 2569 781 2634 1040 
Q 2700 1300 2700 1694 
z
" transform="scale(0.015625)"/>
       <path id="LiberationSans-75" d="M 981 3381 
L 981 1238 
Q 981 991 1017 825 
Q 1053 659 1134 557 
Q 1216 456 1348 414 
Q 1481 372 1678 372 
Q 1878 372 2039 442 
Q 2200 513 2314 645 
Q 2428 778 2490 973 
Q 2553 1169 2553 1422 
L 2553 3381 
L 3116 3381 
L 3116 722 
Q 3116 616 3117 498 
Q 3119 381 3122 276 
Q 3125 172 3128 97 
Q 3131 22 3134 0 
L 2603 0 
Q 2600 16 2597 84 
Q 2594 153 2589 242 
Q 2584 331 2581 423 
Q 2578 516 2578 578 
L 2569 578 
Q 2488 431 2391 312 
Q 2294 194 2166 111 
Q 2038 28 1872 -17 
Q 1706 -63 1488 -63 
Q 1206 -63 1003 6 
Q 800 75 669 219 
Q 538 363 477 588 
Q 416 813 416 1128 
L 416 3381 
L 981 3381 
z
" transform="scale(0.015625)"/>
       <path id="LiberationSans-6e" d="M 2578 0 
L 2578 2144 
Q 2578 2391 2542 2556 
Q 2506 2722 2425 2823 
Q 2344 2925 2211 2967 
Q 2078 3009 1881 3009 
Q 1681 3009 1520 2939 
Q 1359 2869 1245 2736 
Q 1131 2603 1068 2408 
Q 1006 2213 1006 1959 
L 1006 0 
L 444 0 
L 444 2659 
Q 444 2766 442 2883 
Q 441 3000 437 3104 
Q 434 3209 431 3284 
Q 428 3359 425 3381 
L 956 3381 
Q 959 3366 962 3297 
Q 966 3228 970 3139 
Q 975 3050 978 2958 
Q 981 2866 981 2803 
L 991 2803 
Q 1072 2950 1169 3069 
Q 1266 3188 1394 3270 
Q 1522 3353 1687 3398 
Q 1853 3444 2072 3444 
Q 2353 3444 2556 3375 
Q 2759 3306 2890 3162 
Q 3022 3019 3083 2792 
Q 3144 2566 3144 2253 
L 3144 0 
L 2578 0 
z
" transform="scale(0.015625)"/>
       <path id="LiberationSans-64" d="M 2566 544 
Q 2409 219 2151 78 
Q 1894 -63 1513 -63 
Q 872 -63 570 368 
Q 269 800 269 1675 
Q 269 3444 1513 3444 
Q 1897 3444 2153 3303 
Q 2409 3163 2566 2856 
L 2572 2856 
Q 2572 2888 2570 2955 
Q 2569 3022 2567 3095 
Q 2566 3169 2566 3234 
Q 2566 3300 2566 3328 
L 2566 4638 
L 3128 4638 
L 3128 697 
Q 3128 575 3129 462 
Q 3131 350 3134 256 
Q 3138 163 3141 95 
Q 3144 28 3147 0 
L 2609 0 
Q 2603 31 2598 89 
Q 2594 147 2589 222 
Q 2584 297 2581 380 
Q 2578 463 2578 544 
L 2566 544 
z
M 859 1694 
Q 859 1344 903 1094 
Q 947 844 1044 683 
Q 1141 522 1291 447 
Q 1441 372 1656 372 
Q 1878 372 2048 444 
Q 2219 516 2333 677 
Q 2447 838 2506 1097 
Q 2566 1356 2566 1731 
Q 2566 2091 2506 2339 
Q 2447 2588 2331 2741 
Q 2216 2894 2048 2961 
Q 1881 3028 1663 3028 
Q 1456 3028 1306 2956 
Q 1156 2884 1056 2725 
Q 956 2566 907 2311 
Q 859 2056 859 1694 
z
" transform="scale(0.015625)"/>
       <path id="LiberationSans-73" d="M 2969 934 
Q 2969 697 2876 511 
Q 2784 325 2609 198 
Q 2434 72 2179 4 
Q 1925 -63 1597 -63 
Q 1303 -63 1067 -17 
Q 831 28 653 128 
Q 475 228 354 392 
Q 234 556 178 794 
L 675 891 
Q 747 619 972 492 
Q 1197 366 1597 366 
Q 1778 366 1929 391 
Q 2081 416 2190 477 
Q 2300 538 2361 639 
Q 2422 741 2422 891 
Q 2422 1044 2350 1142 
Q 2278 1241 2150 1306 
Q 2022 1372 1839 1420 
Q 1656 1469 1438 1528 
Q 1234 1581 1034 1647 
Q 834 1713 673 1820 
Q 513 1928 413 2087 
Q 313 2247 313 2488 
Q 313 2950 642 3192 
Q 972 3434 1603 3434 
Q 2163 3434 2492 3237 
Q 2822 3041 2909 2606 
L 2403 2544 
Q 2375 2675 2300 2764 
Q 2225 2853 2119 2908 
Q 2013 2963 1880 2986 
Q 1747 3009 1603 3009 
Q 1222 3009 1040 2893 
Q 859 2778 859 2544 
Q 859 2406 926 2317 
Q 994 2228 1114 2167 
Q 1234 2106 1403 2061 
Q 1572 2016 1775 1966 
Q 1909 1931 2050 1892 
Q 2191 1853 2323 1798 
Q 2456 1744 2573 1670 
Q 2691 1597 2778 1494 
Q 2866 1391 2917 1253 
Q 2969 1116 2969 934 
z
" transform="scale(0.015625)"/>
      </defs>
      <use xlink:href="#LiberationSans-72"/>
      <use xlink:href="#LiberationSans-6f" x="33.300781"/>
      <use xlink:href="#LiberationSans-75" x="88.916016"/>
      <use xlink:href="#LiberationSans-6e" x="144.53125"/>
      <use xlink:href="#LiberationSans-64" x="200.146484"/>
      <use xlink:href="#LiberationSans-73" x="255.761719"/>
     </g>
    </g>
   </g>
   <g id="matplotlib.axis_2">
    <g id="ytick_1">
     <g id="line2d_13">
      <path d="M 90 618.324411 
L 648 618.324411 
" clip-path="url(#p9c735114a1)" style="fill: none; stroke: #cccccc; stroke-width: 0.8; stroke-linecap: round"/>
     </g>
     <g id="line2d_14"/>
     <g id="text_8">
      <!-- 0 -->
      <g style="fill: #262626" transform="translate(80.939063 621.947848) scale(0.1 -0.1)">
       <use xlink:href="#LiberationSans-30"/>
      </g>
     </g>
    </g>
    <g id="ytick_2">
     <g id="line2d_15">
      <path d="M 90 556.410072 
L 648 556.410072 
" clip-path="url(#p9c735114a1)" style="fill: none; stroke: #cccccc; stroke-width: 0.8; stroke-linecap: round"/>
     </g>
     <g id="line2d_16"/>
     <g id="text_9">
      <!-- 2 -->
      <g style="fill: #262626" transform="translate(80.939063 560.033509) scale(0.1 -0.1)">
       <use xlink:href="#LiberationSans-32"/>
      </g>
     </g>
    </g>
    <g id="ytick_3">
     <g id="line2d_17">
      <path d="M 90 494.495732 
L 648 494.495732 
" clip-path="url(#p9c735114a1)" style="fill: none; stroke: #cccccc; stroke-width: 0.8; stroke-linecap: round"/>
     </g>
     <g id="line2d_18"/>
     <g id="text_10">
      <!-- 4 -->
      <g style="fill: #262626" transform="translate(80.939063 498.11917) scale(0.1 -0.1)">
       <defs>
        <path id="LiberationSans-34" d="M 2753 997 
L 2753 0 
L 2222 0 
L 2222 997 
L 147 997 
L 147 1434 
L 2163 4403 
L 2753 4403 
L 2753 1441 
L 3372 1441 
L 3372 997 
L 2753 997 
z
M 2222 3769 
Q 2216 3753 2191 3708 
Q 2166 3663 2134 3606 
Q 2103 3550 2070 3492 
Q 2038 3434 2013 3397 
L 884 1734 
Q 869 1709 839 1668 
Q 809 1628 778 1586 
Q 747 1544 715 1503 
Q 684 1463 666 1441 
L 2222 1441 
L 2222 3769 
z
" transform="scale(0.015625)"/>
       </defs>
       <use xlink:href="#LiberationSans-34"/>
      </g>
     </g>
    </g>
    <g id="ytick_4">
     <g id="line2d_19">
      <path d="M 90 432.581393 
L 648 432.581393 
" clip-path="url(#p9c735114a1)" style="fill: none; stroke: #cccccc; stroke-width: 0.8; stroke-linecap: round"/>
     </g>
     <g id="line2d_20"/>
     <g id="text_11">
      <!-- 6 -->
      <g style="fill: #262626" transform="translate(80.939063 436.204831) scale(0.1 -0.1)">
       <defs>
        <path id="LiberationSans-36" d="M 3278 1441 
Q 3278 1109 3186 832 
Q 3094 556 2914 357 
Q 2734 159 2468 48 
Q 2203 -63 1856 -63 
Q 1472 -63 1184 84 
Q 897 231 706 507 
Q 516 784 420 1186 
Q 325 1588 325 2100 
Q 325 2688 433 3131 
Q 541 3575 744 3872 
Q 947 4169 1239 4319 
Q 1531 4469 1900 4469 
Q 2125 4469 2322 4422 
Q 2519 4375 2680 4270 
Q 2841 4166 2962 3994 
Q 3084 3822 3156 3572 
L 2619 3475 
Q 2531 3759 2339 3886 
Q 2147 4013 1894 4013 
Q 1663 4013 1475 3903 
Q 1288 3794 1156 3576 
Q 1025 3359 954 3031 
Q 884 2703 884 2266 
Q 1038 2550 1316 2698 
Q 1594 2847 1953 2847 
Q 2253 2847 2497 2750 
Q 2741 2653 2914 2470 
Q 3088 2288 3183 2027 
Q 3278 1766 3278 1441 
z
M 2706 1416 
Q 2706 1644 2650 1828 
Q 2594 2013 2481 2142 
Q 2369 2272 2203 2342 
Q 2038 2413 1819 2413 
Q 1666 2413 1509 2367 
Q 1353 2322 1226 2220 
Q 1100 2119 1020 1953 
Q 941 1788 941 1550 
Q 941 1306 1003 1095 
Q 1066 884 1183 728 
Q 1300 572 1465 481 
Q 1631 391 1838 391 
Q 2041 391 2202 461 
Q 2363 531 2475 664 
Q 2588 797 2647 987 
Q 2706 1178 2706 1416 
z
" transform="scale(0.015625)"/>
       </defs>
       <use xlink:href="#LiberationSans-36"/>
      </g>
     </g>
    </g>
    <g id="ytick_5">
     <g id="line2d_21">
      <path d="M 90 370.667054 
L 648 370.667054 
" clip-path="url(#p9c735114a1)" style="fill: none; stroke: #cccccc; stroke-width: 0.8; stroke-linecap: round"/>
     </g>
     <g id="line2d_22"/>
     <g id="text_12">
      <!-- 8 -->
      <g style="fill: #262626" transform="translate(80.939063 374.290492) scale(0.1 -0.1)">
       <defs>
        <path id="LiberationSans-38" d="M 3281 1228 
Q 3281 947 3192 711 
Q 3103 475 2920 303 
Q 2738 131 2453 34 
Q 2169 -63 1781 -63 
Q 1394 -63 1111 34 
Q 828 131 642 301 
Q 456 472 367 708 
Q 278 944 278 1222 
Q 278 1463 351 1650 
Q 425 1838 548 1973 
Q 672 2109 830 2192 
Q 988 2275 1156 2303 
L 1156 2316 
Q 972 2359 826 2456 
Q 681 2553 582 2689 
Q 484 2825 432 2990 
Q 381 3156 381 3341 
Q 381 3572 470 3776 
Q 559 3981 734 4136 
Q 909 4291 1168 4380 
Q 1428 4469 1769 4469 
Q 2128 4469 2392 4378 
Q 2656 4288 2829 4133 
Q 3003 3978 3087 3772 
Q 3172 3566 3172 3334 
Q 3172 3153 3120 2987 
Q 3069 2822 2970 2686 
Q 2872 2550 2726 2454 
Q 2581 2359 2391 2322 
L 2391 2309 
Q 2581 2278 2743 2195 
Q 2906 2113 3025 1977 
Q 3144 1841 3212 1653 
Q 3281 1466 3281 1228 
z
M 2588 3303 
Q 2588 3469 2545 3606 
Q 2503 3744 2406 3842 
Q 2309 3941 2153 3995 
Q 1997 4050 1769 4050 
Q 1547 4050 1394 3995 
Q 1241 3941 1142 3842 
Q 1044 3744 1000 3606 
Q 956 3469 956 3303 
Q 956 3172 990 3034 
Q 1025 2897 1115 2784 
Q 1206 2672 1365 2600 
Q 1525 2528 1775 2528 
Q 2041 2528 2202 2600 
Q 2363 2672 2448 2784 
Q 2534 2897 2561 3034 
Q 2588 3172 2588 3303 
z
M 2697 1281 
Q 2697 1441 2653 1589 
Q 2609 1738 2503 1852 
Q 2397 1966 2217 2036 
Q 2038 2106 1769 2106 
Q 1522 2106 1348 2036 
Q 1175 1966 1067 1850 
Q 959 1734 909 1582 
Q 859 1431 859 1269 
Q 859 1066 909 898 
Q 959 731 1068 611 
Q 1178 491 1356 425 
Q 1534 359 1788 359 
Q 2044 359 2219 425 
Q 2394 491 2500 611 
Q 2606 731 2651 901 
Q 2697 1072 2697 1281 
z
" transform="scale(0.015625)"/>
       </defs>
       <use xlink:href="#LiberationSans-38"/>
      </g>
     </g>
    </g>
    <g id="ytick_6">
     <g id="line2d_23">
      <path d="M 90 308.752715 
L 648 308.752715 
" clip-path="url(#p9c735114a1)" style="fill: none; stroke: #cccccc; stroke-width: 0.8; stroke-linecap: round"/>
     </g>
     <g id="line2d_24"/>
     <g id="text_13">
      <!-- 10 -->
      <g style="fill: #262626" transform="translate(75.378125 312.376152) scale(0.1 -0.1)">
       <use xlink:href="#LiberationSans-31"/>
       <use xlink:href="#LiberationSans-30" x="55.615234"/>
      </g>
     </g>
    </g>
    <g id="ytick_7">
     <g id="line2d_25">
      <path d="M 90 246.838376 
L 648 246.838376 
" clip-path="url(#p9c735114a1)" style="fill: none; stroke: #cccccc; stroke-width: 0.8; stroke-linecap: round"/>
     </g>
     <g id="line2d_26"/>
     <g id="text_14">
      <!-- 12 -->
      <g style="fill: #262626" transform="translate(75.378125 250.461813) scale(0.1 -0.1)">
       <use xlink:href="#LiberationSans-31"/>
       <use xlink:href="#LiberationSans-32" x="55.615234"/>
      </g>
     </g>
    </g>
    <g id="ytick_8">
     <g id="line2d_27">
      <path d="M 90 184.924037 
L 648 184.924037 
" clip-path="url(#p9c735114a1)" style="fill: none; stroke: #cccccc; stroke-width: 0.8; stroke-linecap: round"/>
     </g>
     <g id="line2d_28"/>
     <g id="text_15">
      <!-- 14 -->
      <g style="fill: #262626" transform="translate(75.378125 188.547474) scale(0.1 -0.1)">
       <use xlink:href="#LiberationSans-31"/>
       <use xlink:href="#LiberationSans-34" x="55.615234"/>
      </g>
     </g>
    </g>
    <g id="ytick_9">
     <g id="line2d_29">
      <path d="M 90 123.009697 
L 648 123.009697 
" clip-path="url(#p9c735114a1)" style="fill: none; stroke: #cccccc; stroke-width: 0.8; stroke-linecap: round"/>
     </g>
     <g id="line2d_30"/>
     <g id="text_16">
      <!-- 16 -->
      <g style="fill: #262626" transform="translate(75.378125 126.633135) scale(0.1 -0.1)">
       <use xlink:href="#LiberationSans-31"/>
       <use xlink:href="#LiberationSans-36" x="55.615234"/>
      </g>
     </g>
    </g>
    <g id="text_17">
     <!-- Latency -->
     <g style="fill: #262626" transform="translate(69.303125 381.110937) rotate(-90) scale(0.1 -0.1)">
      <defs>
       <path id="LiberationSans-4c" d="M 525 0 
L 525 4403 
L 1122 4403 
L 1122 488 
L 3347 488 
L 3347 0 
L 525 0 
z
" transform="scale(0.015625)"/>
       <path id="LiberationSans-61" d="M 1294 -63 
Q 784 -63 528 206 
Q 272 475 272 944 
Q 272 1278 398 1492 
Q 525 1706 729 1828 
Q 934 1950 1196 1997 
Q 1459 2044 1731 2050 
L 2491 2063 
L 2491 2247 
Q 2491 2456 2447 2603 
Q 2403 2750 2312 2840 
Q 2222 2931 2086 2973 
Q 1950 3016 1766 3016 
Q 1603 3016 1472 2992 
Q 1341 2969 1244 2908 
Q 1147 2847 1087 2742 
Q 1028 2638 1009 2478 
L 422 2531 
Q 453 2731 540 2898 
Q 628 3066 789 3187 
Q 950 3309 1192 3376 
Q 1434 3444 1778 3444 
Q 2416 3444 2737 3151 
Q 3059 2859 3059 2306 
L 3059 850 
Q 3059 600 3125 473 
Q 3191 347 3375 347 
Q 3422 347 3469 353 
Q 3516 359 3559 369 
L 3559 19 
Q 3453 -6 3348 -18 
Q 3244 -31 3125 -31 
Q 2966 -31 2852 11 
Q 2738 53 2666 139 
Q 2594 225 2556 351 
Q 2519 478 2509 647 
L 2491 647 
Q 2400 484 2292 353 
Q 2184 222 2040 130 
Q 1897 38 1714 -12 
Q 1531 -63 1294 -63 
z
M 1422 359 
Q 1691 359 1892 457 
Q 2094 556 2226 709 
Q 2359 863 2425 1044 
Q 2491 1225 2491 1391 
L 2491 1669 
L 1875 1656 
Q 1669 1653 1483 1626 
Q 1297 1600 1156 1522 
Q 1016 1444 933 1303 
Q 850 1163 850 934 
Q 850 659 998 509 
Q 1147 359 1422 359 
z
" transform="scale(0.015625)"/>
       <path id="LiberationSans-74" d="M 1731 25 
Q 1603 -9 1470 -29 
Q 1338 -50 1163 -50 
Q 488 -50 488 716 
L 488 2972 
L 97 2972 
L 97 3381 
L 509 3381 
L 675 4138 
L 1050 4138 
L 1050 3381 
L 1675 3381 
L 1675 2972 
L 1050 2972 
L 1050 838 
Q 1050 594 1129 495 
Q 1209 397 1406 397 
Q 1488 397 1564 409 
Q 1641 422 1731 441 
L 1731 25 
z
" transform="scale(0.015625)"/>
       <path id="LiberationSans-65" d="M 863 1572 
Q 863 1306 917 1082 
Q 972 859 1086 698 
Q 1200 538 1378 448 
Q 1556 359 1806 359 
Q 2172 359 2392 506 
Q 2613 653 2691 878 
L 3184 738 
Q 3131 597 3036 455 
Q 2941 313 2781 198 
Q 2622 84 2383 10 
Q 2144 -63 1806 -63 
Q 1056 -63 664 384 
Q 272 831 272 1713 
Q 272 2188 390 2517 
Q 509 2847 715 3053 
Q 922 3259 1197 3351 
Q 1472 3444 1784 3444 
Q 2209 3444 2495 3306 
Q 2781 3169 2954 2926 
Q 3128 2684 3201 2356 
Q 3275 2028 3275 1647 
L 3275 1572 
L 863 1572 
z
M 2694 2003 
Q 2647 2538 2422 2783 
Q 2197 3028 1775 3028 
Q 1634 3028 1479 2983 
Q 1325 2938 1194 2822 
Q 1063 2706 972 2507 
Q 881 2309 869 2003 
L 2694 2003 
z
" transform="scale(0.015625)"/>
       <path id="LiberationSans-63" d="M 859 1706 
Q 859 1416 901 1172 
Q 944 928 1044 751 
Q 1144 575 1308 478 
Q 1472 381 1713 381 
Q 2013 381 2214 543 
Q 2416 706 2463 1044 
L 3031 1006 
Q 3003 797 2909 603 
Q 2816 409 2655 262 
Q 2494 116 2262 26 
Q 2031 -63 1728 -63 
Q 1331 -63 1053 71 
Q 775 206 601 442 
Q 428 678 350 998 
Q 272 1319 272 1694 
Q 272 2034 328 2295 
Q 384 2556 486 2751 
Q 588 2947 725 3080 
Q 863 3213 1023 3292 
Q 1184 3372 1362 3408 
Q 1541 3444 1722 3444 
Q 2006 3444 2228 3366 
Q 2450 3288 2611 3152 
Q 2772 3016 2872 2831 
Q 2972 2647 3013 2434 
L 2434 2391 
Q 2391 2672 2212 2837 
Q 2034 3003 1706 3003 
Q 1466 3003 1305 2923 
Q 1144 2844 1044 2683 
Q 944 2522 901 2278 
Q 859 2034 859 1706 
z
" transform="scale(0.015625)"/>
       <path id="LiberationSans-79" d="M 1888 0 
Q 1769 -306 1645 -551 
Q 1522 -797 1369 -970 
Q 1216 -1144 1028 -1236 
Q 841 -1328 597 -1328 
Q 491 -1328 400 -1322 
Q 309 -1316 209 -1294 
L 209 -872 
Q 269 -881 344 -886 
Q 419 -891 472 -891 
Q 719 -891 931 -706 
Q 1144 -522 1303 -119 
L 1356 16 
L 16 3381 
L 616 3381 
L 1328 1513 
Q 1359 1428 1407 1287 
Q 1456 1147 1504 1006 
Q 1553 866 1590 753 
Q 1628 641 1634 613 
Q 1644 647 1680 748 
Q 1716 850 1761 975 
Q 1806 1100 1853 1228 
Q 1900 1356 1931 1450 
L 2594 3381 
L 3188 3381 
L 1888 0 
z
" transform="scale(0.015625)"/>
      </defs>
      <use xlink:href="#LiberationSans-4c"/>
      <use xlink:href="#LiberationSans-61" x="55.615234"/>
      <use xlink:href="#LiberationSans-74" x="111.230469"/>
      <use xlink:href="#LiberationSans-65" x="139.013672"/>
      <use xlink:href="#LiberationSans-6e" x="194.628906"/>
      <use xlink:href="#LiberationSans-63" x="250.244141"/>
      <use xlink:href="#LiberationSans-79" x="300.244141"/>
     </g>
    </g>
   </g>
   <g id="line2d_31">
    <path d="M 115.363636 544.630058 
L 125.685663 544.630058 
L 125.797264 544.753893 
L 126.387731 544.753893 
L 126.499332 544.877764 
L 130.928855 544.877764 
L 131.040455 545.001642 
L 132.509523 545.001642 
L 132.621124 545.125488 
L 132.874761 545.125488 
L 132.986361 545.249342 
L 133.099991 545.249342 
L 133.211591 545.373199 
L 135.125032 545.373199 
L 135.236632 545.497066 
L 139.053367 545.497066 
L 139.164968 545.620952 
L 140.027335 545.620952 
L 140.138935 545.744822 
L 140.532581 545.744822 
L 140.644181 545.868708 
L 141.25494 545.868708 
L 141.36654 545.992594 
L 141.695254 545.992594 
L 141.806855 546.116454 
L 141.83932 546.116454 
L 141.950921 546.240309 
L 142.738211 546.240309 
L 142.849812 546.364186 
L 143.773052 546.364186 
L 143.884652 546.488078 
L 147.368615 546.488078 
L 147.480216 546.611963 
L 149.121757 546.611963 
L 149.233357 546.735834 
L 149.501198 546.735834 
L 149.612799 546.859722 
L 150.002386 546.859722 
L 150.113986 546.983598 
L 150.613145 546.983598 
L 150.724745 547.107467 
L 151.195496 547.107467 
L 151.307097 547.231325 
L 152.851241 547.231325 
L 152.962841 547.355159 
L 153.246915 547.355159 
L 153.358516 547.479008 
L 154.192475 547.479008 
L 154.304076 547.602879 
L 154.433938 547.602879 
L 154.545539 547.726734 
L 154.553655 547.726734 
L 154.665255 547.850591 
L 154.732216 547.850591 
L 154.843816 547.974432 
L 155.777202 547.974432 
L 155.888802 548.098296 
L 156.982486 548.098296 
L 157.094087 548.222158 
L 157.893552 548.222158 
L 158.005152 548.346014 
L 160.158026 548.346014 
L 160.269627 548.469886 
L 160.296005 548.469886 
L 160.407606 548.593765 
L 160.448188 548.593765 
L 160.559788 548.717644 
L 163.853016 548.717644 
L 163.964616 548.8415 
L 165.782689 548.8415 
L 165.894289 548.965387 
L 167.606849 548.965387 
L 167.718449 549.089266 
L 167.890923 549.089266 
L 168.002523 549.213108 
L 168.075571 549.213108 
L 168.187171 549.336983 
L 168.655893 549.336983 
L 168.767494 549.460858 
L 169.455358 549.460858 
L 169.566959 549.584729 
L 170.831087 549.584729 
L 170.942688 549.708577 
L 171.902452 549.708577 
L 172.014052 549.832438 
L 174.897402 549.832438 
L 175.009002 549.956291 
L 177.259273 549.956291 
L 177.370873 550.080152 
L 181.197754 550.080152 
L 181.309355 550.204031 
L 181.496032 550.204031 
L 181.607632 550.327907 
L 182.228537 550.327907 
L 182.340137 550.451791 
L 182.920459 550.451791 
L 183.03206 550.575654 
L 184.888685 550.575654 
L 185.000286 550.69952 
L 185.93773 550.69952 
L 186.04933 550.823387 
L 191.92763 550.823387 
L 192.03923 550.947228 
L 194.204279 550.947228 
L 194.315879 551.071104 
L 198.232041 551.071104 
L 198.343641 551.19494 
L 199.40486 551.19494 
L 199.51646 551.318803 
L 199.522548 551.318803 
L 199.634148 551.442682 
L 200.579708 551.442682 
L 200.691309 551.566578 
L 206.005519 551.566578 
L 206.117119 551.690433 
L 209.424551 551.690433 
L 209.536151 551.814313 
L 209.680217 551.814313 
L 209.791818 551.938187 
L 209.822254 551.938187 
L 209.933855 552.062053 
L 220.188921 552.062053 
L 220.300522 552.185921 
L 221.540301 552.185921 
L 221.651902 552.309796 
L 223.098649 552.309796 
L 223.21025 552.433644 
L 224.577862 552.433644 
L 224.689463 552.557507 
L 228.173426 552.557507 
L 228.285026 552.681371 
L 228.4575 552.681371 
L 228.5691 552.805223 
L 231.663476 552.805223 
L 231.775077 552.9291 
L 236.366928 552.9291 
L 236.478528 553.052992 
L 242.312188 553.052992 
L 242.423788 553.176857 
L 247.849599 553.176857 
L 247.961199 553.300712 
L 249.006185 553.300712 
L 249.117786 553.424565 
L 256.333262 553.424565 
L 256.444863 553.548447 
L 259.362707 553.548447 
L 259.474307 553.672309 
L 260.809455 553.672309 
L 260.921055 553.796146 
L 264.10877 553.796146 
L 264.22037 553.920011 
L 265.228832 553.920011 
L 265.340433 554.043894 
L 267.093574 554.043894 
L 267.205175 554.167767 
L 267.629256 554.167767 
L 267.740857 554.291638 
L 271.186267 554.291638 
L 271.297867 554.415506 
L 271.612378 554.415506 
L 271.723978 554.53938 
L 274.491669 554.53938 
L 274.60327 554.663221 
L 275.136923 554.663221 
L 275.248523 554.787098 
L 277.898527 554.787098 
L 278.010127 554.910972 
L 281.189725 554.910972 
L 281.301326 555.034834 
L 281.640185 555.034834 
L 281.751786 555.158704 
L 282.865761 555.158704 
L 282.977361 555.282587 
L 282.983449 555.282587 
L 283.095049 555.406466 
L 283.76871 555.406466 
L 283.88234 555.654182 
L 622.636364 555.654182 
L 622.636364 555.654182 
" clip-path="url(#p9c735114a1)" style="fill: none; stroke-dasharray: 3.7,1.6; stroke-dashoffset: 0; stroke: #1f77b4"/>
    <defs>
     <path id="m0c7284c2bd" d="M 0 3 
C 0.795609 3 1.55874 2.683901 2.12132 2.12132 
C 2.683901 1.55874 3 0.795609 3 0 
C 3 -0.795609 2.683901 -1.55874 2.12132 -2.12132 
C 1.55874 -2.683901 0.795609 -3 0 -3 
C -0.795609 -3 -1.55874 -2.683901 -2.12132 -2.12132 
C -2.683901 -1.55874 -3 -0.795609 -3 0 
C -3 0.795609 -2.683901 1.55874 -2.12132 2.12132 
C -1.55874 2.683901 -0.795609 3 0 3 
z
" style="stroke: #1f77b4"/>
    </defs>
    <g clip-path="url(#p9c735114a1)">
     <use xlink:href="#m0c7284c2bd" x="115.363636" y="544.630058" style="fill: #1f77b4; stroke: #1f77b4"/>
     <use xlink:href="#m0c7284c2bd" x="187.930305" y="550.823387" style="fill: #1f77b4; stroke: #1f77b4"/>
     <use xlink:href="#m0c7284c2bd" x="263.664397" y="553.796146" style="fill: #1f77b4; stroke: #1f77b4"/>
     <use xlink:href="#m0c7284c2bd" x="340.496231" y="555.654182" style="fill: #1f77b4; stroke: #1f77b4"/>
     <use xlink:href="#m0c7284c2bd" x="419.154255" y="555.654182" style="fill: #1f77b4; stroke: #1f77b4"/>
     <use xlink:href="#m0c7284c2bd" x="497.814308" y="555.654182" style="fill: #1f77b4; stroke: #1f77b4"/>
     <use xlink:href="#m0c7284c2bd" x="576.472332" y="555.654182" style="fill: #1f77b4; stroke: #1f77b4"/>
    </g>
   </g>
   <g id="line2d_32">
    <path d="M 115.363636 319.503838 
L 115.390015 319.503838 
L 115.534081 327.800841 
L 115.53611 327.800841 
L 115.661914 332.630475 
L 115.674089 332.630475 
L 115.795834 336.0979 
L 115.8283 336.0979 
L 115.94193 337.336269 
L 115.976424 337.336269 
L 116.092083 339.317671 
L 116.108316 339.317671 
L 116.232091 341.051376 
L 116.238178 341.051376 
L 116.353837 343.032794 
L 116.355866 343.032794 
L 116.473554 345.633356 
L 116.475583 345.633356 
L 116.587183 346.376394 
L 116.609503 346.376394 
L 116.721104 347.119404 
L 116.763715 347.119404 
L 116.877344 348.729273 
L 116.972712 348.729273 
L 117.102574 354.549661 
L 117.358241 354.549661 
L 117.475928 357.150253 
L 117.530714 357.150253 
L 117.648402 360.246182 
L 117.780293 360.246182 
L 117.891894 360.989212 
L 117.92233 360.989212 
L 118.033931 361.608405 
L 118.180026 361.608405 
L 118.291626 362.475278 
L 118.366703 362.475278 
L 118.478303 363.218299 
L 118.520914 363.218299 
L 118.634544 364.828186 
L 118.880065 364.828186 
L 118.991665 365.695045 
L 119.158052 365.695045 
L 119.269652 366.314238 
L 119.507057 366.314238 
L 119.618657 367.057261 
L 121.069463 367.057261 
L 121.181063 367.800282 
L 121.250053 367.800282 
L 121.361653 368.419472 
L 122.120536 368.419472 
L 122.232137 369.038661 
L 122.313301 369.038661 
L 122.424901 369.905533 
L 123.096533 369.905533 
L 123.208133 370.400893 
L 123.613953 370.400893 
L 123.725553 371.143936 
L 124.34037 371.143936 
L 124.451971 371.886965 
L 124.713725 371.886965 
L 124.825325 372.630013 
L 125.561888 372.630013 
L 125.673489 373.001514 
L 125.770885 373.001514 
L 125.882486 373.496858 
L 132.444592 373.496858 
L 132.556192 374.363744 
L 133.033031 374.363744 
L 133.144631 374.982938 
L 134.422964 374.982938 
L 134.534564 375.478289 
L 137.318488 375.478289 
L 137.430088 376.345146 
L 137.773006 376.345146 
L 137.884606 376.964339 
L 138.649577 376.964339 
L 138.765235 378.078874 
L 140.473737 378.078874 
L 140.585337 378.82191 
L 141.486257 378.82191 
L 141.597858 379.564936 
L 142.823433 379.564936 
L 142.937063 381.174869 
L 147.236724 381.174869 
L 147.348324 381.917899 
L 148.762606 381.917899 
L 148.874207 382.660928 
L 156.596958 382.660928 
L 156.712616 383.899292 
L 157.142785 383.899292 
L 157.254386 384.518488 
L 158.5733 384.518488 
L 158.684901 385.261518 
L 158.871578 385.261518 
L 158.983178 385.756854 
L 160.448188 385.756854 
L 160.559788 386.499894 
L 161.115761 386.499894 
L 161.227362 387.366762 
L 167.929476 387.366762 
L 168.041076 388.109804 
L 170.437442 388.109804 
L 170.549043 388.852847 
L 170.587595 388.852847 
L 170.699196 389.719705 
L 170.756011 389.719705 
L 170.867611 390.462743 
L 172.482774 390.462743 
L 172.594374 391.205776 
L 173.621098 391.205776 
L 173.732699 392.072647 
L 174.982624 392.072647 
L 175.094224 392.939518 
L 176.766202 392.939518 
L 176.877802 393.930239 
L 176.952879 393.930239 
L 177.06448 394.673255 
L 177.87409 394.673255 
L 177.98569 395.540134 
L 179.046909 395.540134 
L 179.15851 396.283178 
L 187.309401 396.283178 
L 187.421001 396.90237 
L 187.492019 396.90237 
L 187.60362 397.769254 
L 196.79138 397.769254 
L 196.902981 398.51228 
L 198.232041 398.51228 
L 198.343641 399.379142 
L 205.295334 399.379142 
L 205.406935 400.122165 
L 211.131023 400.122165 
L 211.242624 400.617499 
L 212.186155 400.617499 
L 212.297755 401.360517 
L 214.507444 401.360517 
L 214.619044 402.227396 
L 214.984282 402.227396 
L 215.095883 402.970435 
L 215.615332 402.970435 
L 215.726932 403.589614 
L 216.865257 403.589614 
L 216.976857 404.208796 
L 236.243153 404.208796 
L 236.354753 404.951838 
L 238.629373 404.951838 
L 238.740974 405.57102 
L 251.534443 405.57102 
L 251.646043 406.43788 
L 253.259177 406.43788 
L 253.370777 407.304753 
L 257.217949 407.304753 
L 257.32955 408.047767 
L 257.595362 408.047767 
L 257.706962 408.790781 
L 259.056313 408.790781 
L 259.167913 409.657661 
L 265.943075 409.657661 
L 266.054675 410.400693 
L 271.817317 410.400693 
L 271.928917 411.019877 
L 276.928617 411.019877 
L 277.040218 411.762892 
L 279.893131 411.762892 
L 280.004731 412.382086 
L 280.18735 412.382086 
L 280.298951 413.372791 
L 280.388231 413.372791 
L 280.499831 413.991959 
L 283.841758 413.991959 
L 283.953358 414.487298 
L 284.290188 414.487298 
L 284.401789 415.230325 
L 622.636364 415.230325 
L 622.636364 415.230325 
" clip-path="url(#p9c735114a1)" style="fill: none; stroke-dasharray: 3.7,1.6; stroke-dashoffset: 0; stroke: #ff7f0e"/>
    <defs>
     <path id="mdacb2cc50d" d="M 0 -3 
L -3 3 
L 3 3 
z
" style="stroke: #ff7f0e; stroke-linejoin: miter"/>
    </defs>
    <g clip-path="url(#p9c735114a1)">
     <use xlink:href="#mdacb2cc50d" x="115.363636" y="319.503838" style="fill: #ff7f0e; stroke: #ff7f0e; stroke-linejoin: miter"/>
     <use xlink:href="#mdacb2cc50d" x="137.357041" y="376.345146" style="fill: #ff7f0e; stroke: #ff7f0e; stroke-linejoin: miter"/>
     <use xlink:href="#mdacb2cc50d" x="194.650681" y="397.769254" style="fill: #ff7f0e; stroke: #ff7f0e; stroke-linejoin: miter"/>
     <use xlink:href="#mdacb2cc50d" x="261.454708" y="409.657661" style="fill: #ff7f0e; stroke: #ff7f0e; stroke-linejoin: miter"/>
     <use xlink:href="#mdacb2cc50d" x="334.557059" y="415.230325" style="fill: #ff7f0e; stroke: #ff7f0e; stroke-linejoin: miter"/>
     <use xlink:href="#mdacb2cc50d" x="413.215082" y="415.230325" style="fill: #ff7f0e; stroke: #ff7f0e; stroke-linejoin: miter"/>
     <use xlink:href="#mdacb2cc50d" x="491.875135" y="415.230325" style="fill: #ff7f0e; stroke: #ff7f0e; stroke-linejoin: miter"/>
     <use xlink:href="#mdacb2cc50d" x="570.533159" y="415.230325" style="fill: #ff7f0e; stroke: #ff7f0e; stroke-linejoin: miter"/>
    </g>
   </g>
   <g id="line2d_33">
    <path d="M 115.363636 403.703236 
L 115.517848 411.876853 
L 115.521906 411.876853 
L 115.653798 417.202062 
L 115.672059 417.202062 
L 115.791776 419.059793 
L 115.808009 419.059793 
L 115.927726 420.793637 
L 115.935842 420.793637 
L 116.051501 422.155894 
L 116.132665 422.155894 
L 116.246294 423.146639 
L 116.538485 423.146639 
L 116.654143 424.261265 
L 116.672405 424.261265 
L 116.784006 424.63281 
L 117.130982 424.63281 
L 117.242582 425.128176 
L 117.51854 425.128176 
L 117.63014 425.623512 
L 117.668693 425.623512 
L 117.782322 426.242737 
L 117.861457 426.242737 
L 117.973058 426.738117 
L 118.750203 426.738117 
L 118.861803 427.233518 
L 119.502998 427.233518 
L 119.614599 427.728903 
L 119.770839 427.728903 
L 119.884469 428.595811 
L 120.168543 428.595811 
L 120.280143 429.091182 
L 120.474937 429.091182 
L 120.586537 429.462724 
L 121.868928 429.462724 
L 121.980528 429.834297 
L 122.530414 429.834297 
L 122.642015 430.205816 
L 123.747874 430.205816 
L 123.859474 430.577359 
L 123.977162 430.577359 
L 124.088762 430.948899 
L 124.297759 430.948899 
L 124.40936 431.320399 
L 124.675172 431.320399 
L 124.786772 431.815809 
L 127.570696 431.815809 
L 127.682297 432.311203 
L 127.858828 432.311203 
L 127.970429 432.8066 
L 129.628203 432.8066 
L 129.739803 433.178155 
L 130.234903 433.178155 
L 130.348533 434.168894 
L 131.86427 434.168894 
L 131.97587 434.664264 
L 132.424301 434.664264 
L 132.535901 435.159633 
L 132.759102 435.159633 
L 132.870703 435.654993 
L 136.618449 435.654993 
L 136.730049 436.026531 
L 137.322546 436.026531 
L 137.434146 436.521921 
L 139.885298 436.521921 
L 139.996899 437.017316 
L 140.709112 437.017316 
L 140.824771 437.884285 
L 141.252911 437.884285 
L 141.364511 438.255786 
L 141.43553 438.255786 
L 141.54713 438.75114 
L 142.234995 438.75114 
L 142.346595 439.246561 
L 142.807201 439.246561 
L 142.918801 439.741921 
L 144.251919 439.741921 
L 144.36352 440.361146 
L 145.311109 440.361146 
L 145.422709 440.608817 
L 146.741624 440.608817 
L 146.853224 441.228048 
L 147.593845 441.228048 
L 147.705446 441.847245 
L 147.884006 441.847245 
L 147.995607 442.342618 
L 148.527231 442.342618 
L 148.638831 442.837998 
L 150.073404 442.837998 
L 150.185005 443.209532 
L 150.462991 443.209532 
L 150.574592 443.828722 
L 151.108245 443.828722 
L 151.219845 444.324141 
L 152.577312 444.324141 
L 152.688913 444.819516 
L 157.826592 444.819516 
L 157.938192 445.314911 
L 158.220237 445.314911 
L 158.331837 445.810299 
L 160.048455 445.810299 
L 160.160056 446.305689 
L 160.328471 446.305689 
L 160.440071 446.677225 
L 162.767448 446.677225 
L 162.879048 447.296434 
L 164.163468 447.296434 
L 164.275068 447.791833 
L 166.046472 447.791833 
L 166.158072 448.411051 
L 168.000494 448.411051 
L 168.112095 449.030256 
L 169.810451 449.030256 
L 169.922051 449.649512 
L 173.36949 449.649512 
L 173.481091 450.021048 
L 174.256206 450.021048 
L 174.367807 450.64024 
L 175.489899 450.64024 
L 175.601499 451.011782 
L 177.340437 451.011782 
L 177.452037 451.630964 
L 179.970149 451.630964 
L 180.08175 452.250175 
L 181.118619 452.250175 
L 181.23022 452.745557 
L 183.028002 452.745557 
L 183.139602 453.240931 
L 188.226553 453.240931 
L 188.338154 453.736267 
L 197.21952 453.736267 
L 197.331121 454.231677 
L 211.739753 454.231677 
L 211.851353 454.727012 
L 217.514569 454.727012 
L 217.626169 455.222408 
L 220.188921 455.222408 
L 220.300522 455.841629 
L 228.4575 455.841629 
L 228.5691 456.337038 
L 228.688817 456.337038 
L 228.800417 456.832424 
L 229.89816 456.832424 
L 230.00976 457.327778 
L 231.663476 457.327778 
L 231.775077 457.69932 
L 238.085575 457.69932 
L 238.197175 458.194689 
L 238.745032 458.194689 
L 238.856632 458.690069 
L 243.769081 458.690069 
L 243.880681 459.185444 
L 248.825596 459.185444 
L 248.937196 459.680827 
L 251.731265 459.680827 
L 251.842866 460.052367 
L 254.042409 460.052367 
L 254.158068 461.166966 
L 256.515881 461.166966 
L 256.627481 461.786213 
L 261.615007 461.786213 
L 261.726607 462.2816 
L 264.260952 462.2816 
L 264.372552 462.77701 
L 266.326575 462.77701 
L 266.438175 463.272386 
L 272.911001 463.272386 
L 273.022602 463.891604 
L 274.118315 463.891604 
L 274.229915 464.510853 
L 274.491669 464.510853 
L 274.60327 464.882355 
L 275.18765 464.882355 
L 275.299251 465.501564 
L 278.411889 465.501564 
L 278.523489 465.873105 
L 279.663843 465.873105 
L 279.775443 466.244646 
L 280.18735 466.244646 
L 280.298951 466.740033 
L 280.552588 466.740033 
L 280.664188 467.35922 
L 282.705462 467.35922 
L 282.817063 467.73076 
L 283.691604 467.73076 
L 283.807263 468.845358 
L 284.426138 468.845358 
L 284.537739 469.340765 
L 406.092945 469.340765 
L 406.204545 469.712267 
L 622.636364 469.712267 
L 622.636364 469.712267 
" clip-path="url(#p9c735114a1)" style="fill: none; stroke-dasharray: 3.7,1.6; stroke-dashoffset: 0; stroke: #2ca02c"/>
    <defs>
     <path id="mc441ddb2b4" d="M -3 3 
L 3 -3 
M -3 -3 
L 3 3 
" style="stroke: #2ca02c"/>
    </defs>
    <g clip-path="url(#p9c735114a1)">
     <use xlink:href="#mc441ddb2b4" x="115.363636" y="403.703236" style="fill: #2ca02c; stroke: #2ca02c"/>
     <use xlink:href="#mc441ddb2b4" x="153.090675" y="444.819516" style="fill: #2ca02c; stroke: #2ca02c"/>
     <use xlink:href="#mc441ddb2b4" x="220.769243" y="455.841629" style="fill: #2ca02c; stroke: #2ca02c"/>
     <use xlink:href="#mc441ddb2b4" x="285.984486" y="469.340765" style="fill: #2ca02c; stroke: #2ca02c"/>
     <use xlink:href="#mc441ddb2b4" x="364.64251" y="469.340765" style="fill: #2ca02c; stroke: #2ca02c"/>
     <use xlink:href="#mc441ddb2b4" x="442.933267" y="469.712267" style="fill: #2ca02c; stroke: #2ca02c"/>
     <use xlink:href="#mc441ddb2b4" x="521.59129" y="469.712267" style="fill: #2ca02c; stroke: #2ca02c"/>
     <use xlink:href="#mc441ddb2b4" x="600.251343" y="469.712267" style="fill: #2ca02c; stroke: #2ca02c"/>
    </g>
   </g>
   <g id="line2d_34">
    <path d="M 115.363636 111.6 
L 115.899319 111.6 
L 116.014977 111.971498 
L 116.337604 111.971498 
L 116.449204 112.342996 
L 116.788064 112.342996 
L 116.899664 112.838326 
L 117.362299 112.838326 
L 117.473899 113.45749 
L 117.599703 113.45749 
L 117.715362 115.562649 
L 117.812759 115.562649 
L 117.932476 117.667805 
L 118.05828 117.667805 
L 118.16988 118.410803 
L 119.338641 118.410803 
L 119.450242 119.1538 
L 119.606482 119.1538 
L 119.718083 120.020632 
L 119.847945 120.020632 
L 119.961575 120.639795 
L 120.637265 120.639795 
L 120.748865 121.506625 
L 120.85032 121.506625 
L 120.961921 122.621122 
L 121.012648 122.621122 
L 121.126278 124.107118 
L 121.197296 124.107118 
L 121.312955 127.079108 
L 121.39006 127.079108 
L 121.501661 128.317438 
L 121.852695 128.317438 
L 121.964295 129.308102 
L 122.023139 129.308102 
L 122.13474 130.298766 
L 122.597374 130.298766 
L 122.708975 131.041762 
L 122.828692 131.041762 
L 122.940292 132.032427 
L 123.03566 132.032427 
L 123.14726 132.775425 
L 123.273064 132.775425 
L 123.384665 133.889922 
L 123.762077 133.889922 
L 123.877736 135.871245 
L 123.893969 135.871245 
L 124.005569 136.242744 
L 124.703579 136.242744 
L 124.817209 137.976406 
L 124.932867 137.976406 
L 125.046497 140.329232 
L 125.060701 140.329232 
L 125.172301 141.567563 
L 125.269698 141.567563 
L 125.383327 144.044224 
L 125.519277 144.044224 
L 125.634936 145.406383 
L 125.831758 145.406383 
L 125.947417 147.635379 
L 126.056988 147.635379 
L 126.168589 148.50221 
L 126.399906 148.50221 
L 126.511506 149.492875 
L 126.704271 149.492875 
L 126.819929 152.960199 
L 126.836162 152.960199 
L 126.947763 153.82703 
L 127.252128 153.82703 
L 127.367786 157.294352 
L 127.601133 157.294352 
L 127.712733 158.532682 
L 128.096233 158.532682 
L 128.207833 159.523346 
L 128.355957 159.523346 
L 128.467558 160.51401 
L 128.682642 160.51401 
L 128.796272 162.619164 
L 129.240645 162.619164 
L 129.352245 164.105161 
L 129.652552 164.105161 
L 129.766181 167.200988 
L 129.855462 167.200988 
L 129.967062 168.315483 
L 130.385056 168.315483 
L 130.496657 169.553811 
L 130.581879 169.553811 
L 130.69348 170.668308 
L 130.813196 170.668308 
L 130.924797 172.278139 
L 131.294093 172.278139 
L 131.405693 173.516469 
L 132.091529 173.516469 
L 132.203129 174.630967 
L 132.625182 174.630967 
L 132.736782 175.126296 
L 133.091875 175.126296 
L 133.203475 176.364627 
L 133.446967 176.364627 
L 133.558567 177.850624 
L 133.584946 177.850624 
L 133.696546 179.088955 
L 136.393219 179.088955 
L 136.504819 180.451119 
L 136.594099 180.451119 
L 136.7057 182.060949 
L 136.709758 182.060949 
L 136.823388 184.661444 
L 137.296168 184.661444 
L 137.407768 186.271274 
L 137.51531 186.271274 
L 137.626911 187.633436 
L 138.489278 187.633436 
L 138.600878 188.252599 
L 138.615082 188.252599 
L 138.730741 190.35776 
L 139.607312 190.35776 
L 139.718912 191.719921 
L 141.123048 191.719921 
L 141.236678 194.815741 
L 141.729749 194.815741 
L 141.84135 196.177905 
L 141.873815 196.177905 
L 141.989474 198.778397 
L 142.182238 198.778397 
L 142.295868 200.883556 
L 142.545447 200.883556 
L 142.657047 202.617219 
L 142.705746 202.617219 
L 142.817346 203.607878 
L 143.294184 203.607878 
L 143.405785 205.093874 
L 143.683771 205.093874 
L 143.795372 206.45604 
L 144.136261 206.45604 
L 144.24989 208.808862 
L 144.684117 208.808862 
L 144.795718 210.294859 
L 145.337487 210.294859 
L 145.449088 211.780855 
L 145.694609 211.780855 
L 145.806209 213.51452 
L 146.528568 213.51452 
L 146.642198 215.248176 
L 146.656402 215.248176 
L 146.768002 216.486506 
L 146.83902 216.486506 
L 146.954679 218.467831 
L 149.353074 218.467831 
L 149.464675 220.325327 
L 151.041285 220.325327 
L 151.152885 221.192154 
L 151.215787 221.192154 
L 151.327387 222.67815 
L 151.812342 222.67815 
L 151.923943 224.040313 
L 154.281756 224.040313 
L 154.393356 225.278643 
L 154.955417 225.278643 
L 155.067017 227.012307 
L 155.730532 227.012307 
L 155.842133 228.1268 
L 156.588841 228.1268 
L 156.700442 229.241294 
L 157.505994 229.241294 
L 157.617594 230.603457 
L 157.643973 230.603457 
L 157.755573 231.594118 
L 157.790068 231.594118 
L 157.901668 232.584782 
L 157.98689 232.584782 
L 158.098491 234.318445 
L 158.908101 234.318445 
L 159.019702 236.175941 
L 160.133677 236.175941 
L 160.245278 237.538104 
L 161.483028 237.538104 
L 161.594629 238.776431 
L 162.773535 238.776431 
L 162.885136 240.014762 
L 163.128627 240.014762 
L 163.240228 241.500759 
L 163.402556 241.500759 
L 163.514156 242.986757 
L 166.541572 242.986757 
L 166.653172 244.472753 
L 167.487132 244.472753 
L 167.60482 246.330247 
L 167.927447 246.330247 
L 168.039047 247.940075 
L 169.775956 247.940075 
L 169.887556 250.292899 
L 169.950458 250.292899 
L 170.062059 252.150395 
L 171.807084 252.150395 
L 171.918684 253.512557 
L 172.480745 253.512557 
L 172.592345 254.627054 
L 173.562255 254.627054 
L 173.675884 257.599048 
L 173.899085 257.599048 
L 174.010685 259.332712 
L 174.343458 259.332712 
L 174.455058 259.951877 
L 174.570717 259.951877 
L 174.682317 260.942542 
L 174.710725 260.942542 
L 174.822325 262.923872 
L 175.37424 262.923872 
L 175.48584 264.409869 
L 175.719187 264.409869 
L 175.830787 265.895867 
L 176.173705 265.895867 
L 176.287335 268.372525 
L 176.920413 268.372525 
L 177.032014 269.85852 
L 177.450008 269.85852 
L 177.561609 271.344514 
L 177.882206 271.344514 
L 177.993807 272.830503 
L 178.21295 272.830503 
L 178.32455 274.068829 
L 179.160539 274.068829 
L 179.272139 275.183327 
L 181.112532 275.183327 
L 181.224133 276.421652 
L 181.278918 276.421652 
L 181.390519 278.279147 
L 181.867357 278.279147 
L 181.978957 278.650644 
L 183.66311 278.650644 
L 183.77471 280.136636 
L 191.931688 280.136636 
L 192.043289 281.746466 
L 193.784256 281.746466 
L 193.895856 282.489461 
L 194.409218 282.489461 
L 194.520818 284.223123 
L 195.007802 284.223123 
L 195.119403 285.709118 
L 196.22932 285.709118 
L 196.34092 286.452116 
L 196.464695 286.452116 
L 196.576296 288.061947 
L 199.015273 288.061947 
L 199.126873 289.67177 
L 200.407235 289.67177 
L 200.518835 291.6531 
L 201.080896 291.6531 
L 201.194525 294.129753 
L 202.51141 294.129753 
L 202.623011 295.491911 
L 206.334233 295.491911 
L 206.445833 297.225574 
L 208.797559 297.225574 
L 208.90916 298.835401 
L 210.187492 298.835401 
L 210.299092 300.81673 
L 213.70595 300.81673 
L 213.81755 302.178894 
L 248.576016 302.178894 
L 248.687617 303.541057 
L 250.124219 303.541057 
L 250.235819 305.027053 
L 250.456991 305.027053 
L 250.568592 306.884542 
L 251.008906 306.884542 
L 251.120507 307.999039 
L 252.617982 307.999039 
L 252.731611 311.590198 
L 253.259177 311.590198 
L 253.370777 313.447694 
L 254.586208 313.447694 
L 254.697808 314.314522 
L 254.91898 314.314522 
L 255.03058 315.552853 
L 255.580466 315.552853 
L 255.692067 316.791182 
L 255.825987 316.791182 
L 255.937588 318.401012 
L 256.114119 318.401012 
L 256.22572 319.887008 
L 256.897352 319.887008 
L 257.008952 321.373002 
L 257.217949 321.373002 
L 257.32955 322.611333 
L 258.398885 322.611333 
L 258.510485 323.601995 
L 258.573387 323.601995 
L 258.684988 324.221158 
L 259.478366 324.221158 
L 259.589966 325.954821 
L 260.494944 325.954821 
L 260.606545 327.440813 
L 260.736407 327.440813 
L 260.848007 329.298311 
L 260.957579 329.298311 
L 261.069179 331.279641 
L 261.121936 331.279641 
L 261.233536 332.146468 
L 263.475691 332.146468 
L 263.587291 333.0133 
L 263.595407 333.0133 
L 263.707008 334.62313 
L 264.177759 334.62313 
L 264.291388 337.842781 
L 266.862257 337.842781 
L 266.973857 339.452612 
L 267.842312 339.452612 
L 267.953912 341.186276 
L 268.22987 341.186276 
L 268.34147 342.672273 
L 268.377994 342.672273 
L 268.489594 343.41527 
L 272.911001 343.41527 
L 273.022602 345.148932 
L 273.241744 345.148932 
L 273.353345 345.89193 
L 277.086887 345.89193 
L 277.198487 347.377924 
L 284.200908 347.377924 
L 284.312509 348.987752 
L 622.636364 348.987752 
L 622.636364 348.987752 
" clip-path="url(#p9c735114a1)" style="fill: none; stroke-dasharray: 3.7,1.6; stroke-dashoffset: 0; stroke: #d62728"/>
    <defs>
     <path id="mff4c48fec1" d="M -3 3 
L 3 3 
L 3 -3 
L -3 -3 
z
" style="stroke: #d62728; stroke-linejoin: miter"/>
    </defs>
    <g clip-path="url(#p9c735114a1)">
     <use xlink:href="#mff4c48fec1" x="115.363636" y="111.6" style="fill: #d62728; stroke: #d62728; stroke-linejoin: miter"/>
     <use xlink:href="#mff4c48fec1" x="132.091529" y="173.516469" style="fill: #d62728; stroke: #d62728; stroke-linejoin: miter"/>
     <use xlink:href="#mff4c48fec1" x="156.379844" y="228.1268" style="fill: #d62728; stroke: #d62728; stroke-linejoin: miter"/>
     <use xlink:href="#mff4c48fec1" x="183.665139" y="280.136636" style="fill: #d62728; stroke: #d62728; stroke-linejoin: miter"/>
     <use xlink:href="#mff4c48fec1" x="239.753494" y="302.178894" style="fill: #d62728; stroke: #d62728; stroke-linejoin: miter"/>
     <use xlink:href="#mff4c48fec1" x="274.761539" y="345.89193" style="fill: #d62728; stroke: #d62728; stroke-linejoin: miter"/>
     <use xlink:href="#mff4c48fec1" x="350.329245" y="348.987752" style="fill: #d62728; stroke: #d62728; stroke-linejoin: miter"/>
     <use xlink:href="#mff4c48fec1" x="428.987269" y="348.987752" style="fill: #d62728; stroke: #d62728; stroke-linejoin: miter"/>
     <use xlink:href="#mff4c48fec1" x="507.647322" y="348.987752" style="fill: #d62728; stroke: #d62728; stroke-linejoin: miter"/>
     <use xlink:href="#mff4c48fec1" x="586.305346" y="348.987752" style="fill: #d62728; stroke: #d62728; stroke-linejoin: miter"/>
    </g>
   </g>
   <g id="line2d_35">
    <path d="M 115.363636 568.777128 
L 115.379878 568.777128 
L 115.775778 603.58626 
L 115.917896 605.568012 
L 115.923987 605.568012 
L 116.060014 607.178162 
L 116.086407 607.178162 
L 116.208223 607.921299 
L 116.275221 607.921299 
L 116.392976 608.416718 
L 116.399067 608.416718 
L 116.522912 609.283695 
L 116.531033 609.283695 
L 116.646758 609.655255 
L 116.695484 609.655255 
L 116.815269 610.274517 
L 116.831511 610.274517 
L 116.947236 610.646073 
L 116.951296 610.646073 
L 117.067021 611.017627 
L 117.079203 611.017627 
L 117.192897 611.26533 
L 117.548192 611.26533 
L 117.663916 611.636879 
L 117.720763 611.636879 
L 117.838518 612.132276 
L 118.063877 612.132276 
L 118.181632 612.627671 
L 118.417141 612.627671 
L 118.530836 612.875367 
L 118.614076 612.875367 
L 118.72574 612.999215 
L 118.778527 612.999215 
L 118.892221 613.24691 
L 118.922675 613.24691 
L 118.924705 613.370758 
L 118.924705 613.370758 
" clip-path="url(#p9c735114a1)" style="fill: none; stroke-dasharray: 3.7,1.6; stroke-dashoffset: 0; stroke: #9467bd"/>
    <defs>
     <path id="mae093c31d6" d="M -0 4.242641 
L 2.545584 0 
L 0 -4.242641 
L -2.545584 -0 
z
" style="stroke: #9467bd; stroke-linejoin: miter"/>
    </defs>
    <g clip-path="url(#p9c735114a1)">
     <use xlink:href="#mae093c31d6" x="115.363636" y="568.777128" style="fill: #9467bd; stroke: #9467bd; stroke-linejoin: miter"/>
    </g>
   </g>
   <g id="line2d_36">
    <path d="M 115.363636 550.165521 
L 116.857053 550.248097 
L 116.970683 550.330672 
L 117.303455 550.413247 
L 117.415055 550.454534 
L 117.818846 550.53711 
L 117.932476 550.619684 
L 118.634544 550.70226 
L 118.746144 550.743546 
L 119.133702 550.826116 
L 119.247332 550.90869 
L 119.519231 550.949977 
L 119.640977 563.665366 
L 121.532097 563.665366 
L 121.534127 564.181489 
L 121.536156 555.606971 
L 121.611232 555.606971 
L 128.71105 555.681294 
L 128.838883 568.487653 
L 130.279543 568.487653 
L 130.431726 571.509591 
L 134.871394 571.509591 
L 134.875453 563.149275 
L 134.989082 574.667846 
L 151.595229 574.667846 
L 151.731178 590.025346 
L 157.633827 590.025346 
L 157.637885 591.511342 
L 157.639915 587.444915 
L 157.737311 587.444915 
L 166.087054 587.444915 
L 166.091112 578.815207 
L 166.206771 588.352941 
L 178.768923 588.352941 
L 178.772981 589.591105 
L 178.884581 603.958543 
L 199.906047 603.958543 
L 200.046055 615.104583 
L 242.178267 615.104583 
L 242.180296 615.6 
L 242.180296 615.6 
" clip-path="url(#p9c735114a1)" style="fill: none; stroke-dasharray: 5.55,2.4; stroke-dashoffset: 0; stroke: #8c564b; stroke-width: 1.5"/>
    <defs>
     <path id="m41c5c11e4f" d="M -0 3 
L 3 -3 
L -3 -3 
z
" style="stroke: #8c564b; stroke-linejoin: miter"/>
    </defs>
    <g clip-path="url(#p9c735114a1)">
     <use xlink:href="#m41c5c11e4f" x="115.363636" y="550.165521" style="fill: #8c564b; stroke: #8c564b; stroke-linejoin: miter"/>
     <use xlink:href="#m41c5c11e4f" x="134.877482" y="574.667846" style="fill: #8c564b; stroke: #8c564b; stroke-linejoin: miter"/>
     <use xlink:href="#m41c5c11e4f" x="173.219337" y="588.352941" style="fill: #8c564b; stroke: #8c564b; stroke-linejoin: miter"/>
     <use xlink:href="#m41c5c11e4f" x="225.137894" y="615.104583" style="fill: #8c564b; stroke: #8c564b; stroke-linejoin: miter"/>
    </g>
   </g>
   <g id="line2d_37">
    <path d="M 115.363636 563.087909 
L 166.087054 563.087909 
L 166.091112 569.277473 
L 166.091112 569.277473 
" clip-path="url(#p9c735114a1)" style="fill: none; stroke-dasharray: 5.55,2.4; stroke-dashoffset: 0; stroke: #e377c2; stroke-width: 1.5"/>
    <defs>
     <path id="md0e97939fe" d="M -1 3 
L 1 3 
L 1 1 
L 3 1 
L 3 -1 
L 1 -1 
L 1 -3 
L -1 -3 
L -1 -1 
L -3 -1 
L -3 1 
L -1 1 
z
" style="stroke: #e377c2; stroke-linejoin: miter"/>
    </defs>
    <g clip-path="url(#p9c735114a1)">
     <use xlink:href="#md0e97939fe" x="115.363636" y="563.087909" style="fill: #e377c2; stroke: #e377c2; stroke-linejoin: miter"/>
    </g>
   </g>
   <g id="patch_3">
    <path d="M 90 640.8 
L 90 86.4 
" style="fill: none; stroke: #cccccc; stroke-linejoin: miter; stroke-linecap: square"/>
   </g>
   <g id="patch_4">
    <path d="M 648 640.8 
L 648 86.4 
" style="fill: none; stroke: #cccccc; stroke-linejoin: miter; stroke-linecap: square"/>
   </g>
   <g id="patch_5">
    <path d="M 90 640.8 
L 648 640.8 
" style="fill: none; stroke: #cccccc; stroke-linejoin: miter; stroke-linecap: square"/>
   </g>
   <g id="patch_6">
    <path d="M 90 86.4 
L 648 86.4 
" style="fill: none; stroke: #cccccc; stroke-linejoin: miter; stroke-linecap: square"/>
   </g>
   <g id="text_18">
    <!-- Latency v/s rounds in Federated Learning -->
    <g style="fill: #262626" transform="translate(258.272812 80.4) scale(0.12 -0.12)">
     <defs>
      <path id="LiberationSans-20" transform="scale(0.015625)"/>
      <path id="LiberationSans-76" d="M 1916 0 
L 1250 0 
L 22 3381 
L 622 3381 
L 1366 1181 
Q 1388 1113 1417 1014 
Q 1447 916 1478 809 
Q 1509 703 1536 604 
Q 1563 506 1581 441 
Q 1600 506 1629 604 
Q 1659 703 1690 806 
Q 1722 909 1755 1007 
Q 1788 1106 1813 1175 
L 2581 3381 
L 3178 3381 
L 1916 0 
z
" transform="scale(0.015625)"/>
      <path id="LiberationSans-2f" d="M 0 -63 
L 1284 4638 
L 1778 4638 
L 506 -63 
L 0 -63 
z
" transform="scale(0.015625)"/>
      <path id="LiberationSans-69" d="M 428 4100 
L 428 4638 
L 991 4638 
L 991 4100 
L 428 4100 
z
M 428 0 
L 428 3381 
L 991 3381 
L 991 0 
L 428 0 
z
" transform="scale(0.015625)"/>
      <path id="LiberationSans-46" d="M 1122 3916 
L 1122 2278 
L 3578 2278 
L 3578 1784 
L 1122 1784 
L 1122 0 
L 525 0 
L 525 4403 
L 3653 4403 
L 3653 3916 
L 1122 3916 
z
" transform="scale(0.015625)"/>
      <path id="LiberationSans-67" d="M 1713 -1328 
Q 1422 -1328 1197 -1268 
Q 972 -1209 812 -1098 
Q 653 -988 553 -834 
Q 453 -681 409 -494 
L 975 -413 
Q 1031 -647 1223 -773 
Q 1416 -900 1728 -900 
Q 1919 -900 2075 -847 
Q 2231 -794 2340 -676 
Q 2450 -559 2509 -371 
Q 2569 -184 2569 84 
L 2569 628 
L 2563 628 
Q 2500 500 2408 383 
Q 2316 266 2183 175 
Q 2050 84 1875 29 
Q 1700 -25 1475 -25 
Q 1153 -25 923 83 
Q 694 191 548 406 
Q 403 622 336 942 
Q 269 1263 269 1684 
Q 269 2091 336 2416 
Q 403 2741 554 2967 
Q 706 3194 948 3314 
Q 1191 3434 1538 3434 
Q 1897 3434 2161 3270 
Q 2425 3106 2569 2803 
L 2575 2803 
Q 2575 2881 2579 2978 
Q 2584 3075 2589 3161 
Q 2594 3247 2600 3309 
Q 2606 3372 2613 3381 
L 3147 3381 
Q 3144 3353 3141 3286 
Q 3138 3219 3134 3125 
Q 3131 3031 3129 2917 
Q 3128 2803 3128 2681 
L 3128 97 
Q 3128 -613 2779 -970 
Q 2431 -1328 1713 -1328 
z
M 2569 1691 
Q 2569 2044 2492 2295 
Q 2416 2547 2291 2706 
Q 2166 2866 2005 2941 
Q 1844 3016 1675 3016 
Q 1459 3016 1304 2941 
Q 1150 2866 1048 2705 
Q 947 2544 898 2292 
Q 850 2041 850 1691 
Q 850 1325 898 1076 
Q 947 828 1047 675 
Q 1147 522 1300 456 
Q 1453 391 1666 391 
Q 1834 391 1995 462 
Q 2156 534 2284 690 
Q 2413 847 2491 1094 
Q 2569 1341 2569 1691 
z
" transform="scale(0.015625)"/>
     </defs>
     <use xlink:href="#LiberationSans-4c"/>
     <use xlink:href="#LiberationSans-61" x="55.615234"/>
     <use xlink:href="#LiberationSans-74" x="111.230469"/>
     <use xlink:href="#LiberationSans-65" x="139.013672"/>
     <use xlink:href="#LiberationSans-6e" x="194.628906"/>
     <use xlink:href="#LiberationSans-63" x="250.244141"/>
     <use xlink:href="#LiberationSans-79" x="300.244141"/>
     <use xlink:href="#LiberationSans-20" x="350.244141"/>
     <use xlink:href="#LiberationSans-76" x="378.027344"/>
     <use xlink:href="#LiberationSans-2f" x="428.027344"/>
     <use xlink:href="#LiberationSans-73" x="455.810547"/>
     <use xlink:href="#LiberationSans-20" x="505.810547"/>
     <use xlink:href="#LiberationSans-72" x="533.59375"/>
     <use xlink:href="#LiberationSans-6f" x="566.894531"/>
     <use xlink:href="#LiberationSans-75" x="622.509766"/>
     <use xlink:href="#LiberationSans-6e" x="678.125"/>
     <use xlink:href="#LiberationSans-64" x="733.740234"/>
     <use xlink:href="#LiberationSans-73" x="789.355469"/>
     <use xlink:href="#LiberationSans-20" x="839.355469"/>
     <use xlink:href="#LiberationSans-69" x="867.138672"/>
     <use xlink:href="#LiberationSans-6e" x="889.355469"/>
     <use xlink:href="#LiberationSans-20" x="944.970703"/>
     <use xlink:href="#LiberationSans-46" x="972.753906"/>
     <use xlink:href="#LiberationSans-65" x="1033.837891"/>
     <use xlink:href="#LiberationSans-64" x="1089.453125"/>
     <use xlink:href="#LiberationSans-65" x="1145.068359"/>
     <use xlink:href="#LiberationSans-72" x="1200.683594"/>
     <use xlink:href="#LiberationSans-61" x="1233.984375"/>
     <use xlink:href="#LiberationSans-74" x="1289.599609"/>
     <use xlink:href="#LiberationSans-65" x="1317.382812"/>
     <use xlink:href="#LiberationSans-64" x="1372.998047"/>
     <use xlink:href="#LiberationSans-20" x="1428.613281"/>
     <use xlink:href="#LiberationSans-4c" x="1456.396484"/>
     <use xlink:href="#LiberationSans-65" x="1512.011719"/>
     <use xlink:href="#LiberationSans-61" x="1567.626953"/>
     <use xlink:href="#LiberationSans-72" x="1623.242188"/>
     <use xlink:href="#LiberationSans-6e" x="1656.542969"/>
     <use xlink:href="#LiberationSans-69" x="1712.158203"/>
     <use xlink:href="#LiberationSans-6e" x="1734.375"/>
     <use xlink:href="#LiberationSans-67" x="1789.990234"/>
    </g>
   </g>
   <g id="legend_1">
    <g id="line2d_38">
     <path d="M 538.457813 99.146875 
L 548.457813 99.146875 
L 558.457813 99.146875 
" style="fill: none; stroke-dasharray: 3.7,1.6; stroke-dashoffset: 0; stroke: #1f77b4"/>
     <g>
      <use xlink:href="#m0c7284c2bd" x="548.457813" y="99.146875" style="fill: #1f77b4; stroke: #1f77b4"/>
     </g>
    </g>
    <g id="text_19">
     <!-- gsw -->
     <g style="fill: #262626" transform="translate(566.457813 102.646875) scale(0.1 -0.1)">
      <defs>
       <path id="LiberationSans-77" d="M 3669 0 
L 3016 0 
L 2475 2181 
Q 2450 2266 2423 2391 
Q 2397 2516 2372 2634 
Q 2341 2772 2313 2919 
Q 2284 2778 2253 2641 
Q 2228 2522 2198 2394 
Q 2169 2266 2144 2169 
L 1588 0 
L 938 0 
L -9 3381 
L 547 3381 
L 1119 1084 
Q 1141 1013 1162 908 
Q 1184 803 1206 703 
Q 1228 588 1253 466 
Q 1278 584 1306 697 
Q 1331 794 1356 894 
Q 1381 994 1400 1059 
L 2013 3381 
L 2616 3381 
L 3206 1059 
Q 3228 978 3253 875 
Q 3278 772 3300 681 
Q 3325 575 3350 466 
Q 3375 584 3400 697 
Q 3422 794 3445 898 
Q 3469 1003 3491 1084 
L 4088 3381 
L 4638 3381 
L 3669 0 
z
" transform="scale(0.015625)"/>
      </defs>
      <use xlink:href="#LiberationSans-67"/>
      <use xlink:href="#LiberationSans-73" x="55.615234"/>
      <use xlink:href="#LiberationSans-77" x="105.615234"/>
     </g>
    </g>
    <g id="line2d_39">
     <path d="M 538.457813 113.46875 
L 548.457813 113.46875 
L 558.457813 113.46875 
" style="fill: none; stroke-dasharray: 3.7,1.6; stroke-dashoffset: 0; stroke: #ff7f0e"/>
     <g>
      <use xlink:href="#mdacb2cc50d" x="548.457813" y="113.46875" style="fill: #ff7f0e; stroke: #ff7f0e; stroke-linejoin: miter"/>
     </g>
    </g>
    <g id="text_20">
     <!-- nsw -->
     <g style="fill: #262626" transform="translate(566.457813 116.96875) scale(0.1 -0.1)">
      <use xlink:href="#LiberationSans-6e"/>
      <use xlink:href="#LiberationSans-73" x="55.615234"/>
      <use xlink:href="#LiberationSans-77" x="105.615234"/>
     </g>
    </g>
    <g id="line2d_40">
     <path d="M 538.457813 127.790625 
L 548.457813 127.790625 
L 558.457813 127.790625 
" style="fill: none; stroke-dasharray: 3.7,1.6; stroke-dashoffset: 0; stroke: #2ca02c"/>
     <g>
      <use xlink:href="#mc441ddb2b4" x="548.457813" y="127.790625" style="fill: #2ca02c; stroke: #2ca02c"/>
     </g>
    </g>
    <g id="text_21">
     <!-- ppo -->
     <g style="fill: #262626" transform="translate(566.457813 131.290625) scale(0.1 -0.1)">
      <defs>
       <path id="LiberationSans-70" d="M 3291 1706 
Q 3291 1322 3228 997 
Q 3166 672 3020 437 
Q 2875 203 2636 70 
Q 2397 -63 2047 -63 
Q 1684 -63 1412 75 
Q 1141 213 997 525 
L 981 525 
Q 984 519 986 469 
Q 988 419 989 344 
Q 991 269 992 176 
Q 994 84 994 -6 
L 994 -1328 
L 431 -1328 
L 431 2691 
Q 431 2813 429 2925 
Q 428 3038 425 3130 
Q 422 3222 419 3287 
Q 416 3353 413 3381 
L 956 3381 
Q 959 3372 964 3315 
Q 969 3259 973 3179 
Q 978 3100 983 3009 
Q 988 2919 988 2838 
L 1000 2838 
Q 1078 3000 1178 3114 
Q 1278 3228 1406 3301 
Q 1534 3375 1692 3408 
Q 1850 3441 2047 3441 
Q 2397 3441 2636 3316 
Q 2875 3191 3020 2964 
Q 3166 2738 3228 2417 
Q 3291 2097 3291 1706 
z
M 2700 1694 
Q 2700 2006 2662 2250 
Q 2625 2494 2533 2662 
Q 2441 2831 2287 2918 
Q 2134 3006 1903 3006 
Q 1716 3006 1550 2953 
Q 1384 2900 1261 2750 
Q 1138 2600 1066 2336 
Q 994 2072 994 1650 
Q 994 1291 1053 1042 
Q 1113 794 1227 641 
Q 1341 488 1509 420 
Q 1678 353 1897 353 
Q 2131 353 2286 443 
Q 2441 534 2533 706 
Q 2625 878 2662 1126 
Q 2700 1375 2700 1694 
z
" transform="scale(0.015625)"/>
      </defs>
      <use xlink:href="#LiberationSans-70"/>
      <use xlink:href="#LiberationSans-70" x="55.615234"/>
      <use xlink:href="#LiberationSans-6f" x="111.230469"/>
     </g>
    </g>
    <g id="line2d_41">
     <path d="M 538.457813 142.1125 
L 548.457813 142.1125 
L 558.457813 142.1125 
" style="fill: none; stroke-dasharray: 3.7,1.6; stroke-dashoffset: 0; stroke: #d62728"/>
     <g>
      <use xlink:href="#mff4c48fec1" x="548.457813" y="142.1125" style="fill: #d62728; stroke: #d62728; stroke-linejoin: miter"/>
     </g>
    </g>
    <g id="text_22">
     <!-- conventional -->
     <g style="fill: #262626" transform="translate(566.457813 145.6125) scale(0.1 -0.1)">
      <defs>
       <path id="LiberationSans-6c" d="M 431 0 
L 431 4638 
L 994 4638 
L 994 0 
L 431 0 
z
" transform="scale(0.015625)"/>
      </defs>
      <use xlink:href="#LiberationSans-63"/>
      <use xlink:href="#LiberationSans-6f" x="50"/>
      <use xlink:href="#LiberationSans-6e" x="105.615234"/>
      <use xlink:href="#LiberationSans-76" x="161.230469"/>
      <use xlink:href="#LiberationSans-65" x="211.230469"/>
      <use xlink:href="#LiberationSans-6e" x="266.845703"/>
      <use xlink:href="#LiberationSans-74" x="322.460938"/>
      <use xlink:href="#LiberationSans-69" x="350.244141"/>
      <use xlink:href="#LiberationSans-6f" x="372.460938"/>
      <use xlink:href="#LiberationSans-6e" x="428.076172"/>
      <use xlink:href="#LiberationSans-61" x="483.691406"/>
      <use xlink:href="#LiberationSans-6c" x="539.306641"/>
     </g>
    </g>
    <g id="line2d_42">
     <path d="M 538.457813 156.434375 
L 548.457813 156.434375 
L 558.457813 156.434375 
" style="fill: none; stroke-dasharray: 3.7,1.6; stroke-dashoffset: 0; stroke: #9467bd"/>
     <g>
      <use xlink:href="#mae093c31d6" x="548.457813" y="156.434375" style="fill: #9467bd; stroke: #9467bd; stroke-linejoin: miter"/>
     </g>
    </g>
    <g id="text_23">
     <!-- direct -->
     <g style="fill: #262626" transform="translate(566.457813 159.934375) scale(0.1 -0.1)">
      <use xlink:href="#LiberationSans-64"/>
      <use xlink:href="#LiberationSans-69" x="55.615234"/>
      <use xlink:href="#LiberationSans-72" x="77.832031"/>
      <use xlink:href="#LiberationSans-65" x="111.132812"/>
      <use xlink:href="#LiberationSans-63" x="166.748047"/>
      <use xlink:href="#LiberationSans-74" x="216.748047"/>
     </g>
    </g>
    <g id="line2d_43">
     <path d="M 538.457813 170.75625 
L 548.457813 170.75625 
L 558.457813 170.75625 
" style="fill: none; stroke-dasharray: 5.55,2.4; stroke-dashoffset: 0; stroke: #8c564b; stroke-width: 1.5"/>
     <g>
      <use xlink:href="#m41c5c11e4f" x="548.457813" y="170.75625" style="fill: #8c564b; stroke: #8c564b; stroke-linejoin: miter"/>
     </g>
    </g>
    <g id="text_24">
     <!-- LEACH avg -->
     <g style="fill: #262626" transform="translate(566.457813 174.25625) scale(0.1 -0.1)">
      <defs>
       <path id="LiberationSans-45" d="M 525 0 
L 525 4403 
L 3866 4403 
L 3866 3916 
L 1122 3916 
L 1122 2503 
L 3678 2503 
L 3678 2022 
L 1122 2022 
L 1122 488 
L 3994 488 
L 3994 0 
L 525 0 
z
" transform="scale(0.015625)"/>
       <path id="LiberationSans-41" d="M 3647 0 
L 3144 1288 
L 1138 1288 
L 631 0 
L 13 0 
L 1809 4403 
L 2488 4403 
L 4256 0 
L 3647 0 
z
M 2400 3206 
Q 2350 3331 2304 3459 
Q 2259 3588 2225 3692 
Q 2191 3797 2167 3867 
Q 2144 3938 2141 3953 
Q 2134 3938 2112 3866 
Q 2091 3794 2055 3687 
Q 2019 3581 1973 3453 
Q 1928 3325 1881 3200 
L 1319 1753 
L 2966 1753 
L 2400 3206 
z
" transform="scale(0.015625)"/>
       <path id="LiberationSans-43" d="M 2475 3981 
Q 2100 3981 1811 3856 
Q 1522 3731 1326 3500 
Q 1131 3269 1031 2944 
Q 931 2619 931 2222 
Q 931 1825 1039 1495 
Q 1147 1166 1348 928 
Q 1550 691 1842 559 
Q 2134 428 2500 428 
Q 2756 428 2967 495 
Q 3178 563 3348 684 
Q 3519 806 3653 973 
Q 3788 1141 3891 1344 
L 4378 1100 
Q 4259 853 4084 640 
Q 3909 428 3673 272 
Q 3438 116 3139 26 
Q 2841 -63 2472 -63 
Q 1938 -63 1536 107 
Q 1134 278 864 583 
Q 594 888 459 1306 
Q 325 1725 325 2222 
Q 325 2738 467 3153 
Q 609 3569 882 3861 
Q 1156 4153 1556 4311 
Q 1956 4469 2469 4469 
Q 3172 4469 3644 4194 
Q 4116 3919 4338 3378 
L 3772 3191 
Q 3709 3347 3603 3489 
Q 3497 3631 3337 3740 
Q 3178 3850 2964 3915 
Q 2750 3981 2475 3981 
z
" transform="scale(0.015625)"/>
       <path id="LiberationSans-48" d="M 3503 0 
L 3503 2041 
L 1122 2041 
L 1122 0 
L 525 0 
L 525 4403 
L 1122 4403 
L 1122 2541 
L 3503 2541 
L 3503 4403 
L 4100 4403 
L 4100 0 
L 3503 0 
z
" transform="scale(0.015625)"/>
      </defs>
      <use xlink:href="#LiberationSans-4c"/>
      <use xlink:href="#LiberationSans-45" x="55.615234"/>
      <use xlink:href="#LiberationSans-41" x="122.314453"/>
      <use xlink:href="#LiberationSans-43" x="189.013672"/>
      <use xlink:href="#LiberationSans-48" x="261.230469"/>
      <use xlink:href="#LiberationSans-20" x="333.447266"/>
      <use xlink:href="#LiberationSans-61" x="361.230469"/>
      <use xlink:href="#LiberationSans-76" x="416.845703"/>
      <use xlink:href="#LiberationSans-67" x="466.845703"/>
     </g>
    </g>
    <g id="line2d_44">
     <path d="M 538.457813 185.078125 
L 548.457813 185.078125 
L 558.457813 185.078125 
" style="fill: none; stroke-dasharray: 5.55,2.4; stroke-dashoffset: 0; stroke: #e377c2; stroke-width: 1.5"/>
     <g>
      <use xlink:href="#md0e97939fe" x="548.457813" y="185.078125" style="fill: #e377c2; stroke: #e377c2; stroke-linejoin: miter"/>
     </g>
    </g>
    <g id="text_25">
     <!-- LEACH p = 0.35 -->
     <g style="fill: #262626" transform="translate(566.457813 188.578125) scale(0.1 -0.1)">
      <defs>
       <path id="LiberationSans-3d" d="M 313 2675 
L 313 3138 
L 3422 3138 
L 3422 2675 
L 313 2675 
z
M 313 1075 
L 313 1538 
L 3422 1538 
L 3422 1075 
L 313 1075 
z
" transform="scale(0.015625)"/>
       <path id="LiberationSans-2e" d="M 584 0 
L 584 684 
L 1194 684 
L 1194 0 
L 584 0 
z
" transform="scale(0.015625)"/>
       <path id="LiberationSans-33" d="M 3278 1216 
Q 3278 913 3179 675 
Q 3081 438 2892 273 
Q 2703 109 2423 23 
Q 2144 -63 1784 -63 
Q 1375 -63 1095 39 
Q 816 141 634 308 
Q 453 475 362 689 
Q 272 903 244 1131 
L 825 1184 
Q 850 1009 917 865 
Q 984 722 1100 619 
Q 1216 516 1384 459 
Q 1553 403 1784 403 
Q 2209 403 2451 612 
Q 2694 822 2694 1234 
Q 2694 1478 2586 1626 
Q 2478 1775 2317 1858 
Q 2156 1941 1967 1969 
Q 1778 1997 1619 1997 
L 1300 1997 
L 1300 2484 
L 1606 2484 
Q 1766 2484 1937 2517 
Q 2109 2550 2251 2636 
Q 2394 2722 2486 2869 
Q 2578 3016 2578 3244 
Q 2578 3597 2370 3801 
Q 2163 4006 1753 4006 
Q 1381 4006 1151 3815 
Q 922 3625 884 3278 
L 319 3322 
Q 353 3613 478 3828 
Q 603 4044 795 4186 
Q 988 4328 1234 4398 
Q 1481 4469 1759 4469 
Q 2128 4469 2393 4376 
Q 2659 4284 2828 4126 
Q 2997 3969 3076 3756 
Q 3156 3544 3156 3303 
Q 3156 3109 3103 2940 
Q 3050 2772 2937 2637 
Q 2825 2503 2651 2406 
Q 2478 2309 2234 2259 
L 2234 2247 
Q 2500 2219 2697 2126 
Q 2894 2034 3022 1896 
Q 3150 1759 3214 1584 
Q 3278 1409 3278 1216 
z
" transform="scale(0.015625)"/>
      </defs>
      <use xlink:href="#LiberationSans-4c"/>
      <use xlink:href="#LiberationSans-45" x="55.615234"/>
      <use xlink:href="#LiberationSans-41" x="122.314453"/>
      <use xlink:href="#LiberationSans-43" x="189.013672"/>
      <use xlink:href="#LiberationSans-48" x="261.230469"/>
      <use xlink:href="#LiberationSans-20" x="333.447266"/>
      <use xlink:href="#LiberationSans-70" x="361.230469"/>
      <use xlink:href="#LiberationSans-20" x="416.845703"/>
      <use xlink:href="#LiberationSans-3d" x="444.628906"/>
      <use xlink:href="#LiberationSans-20" x="503.027344"/>
      <use xlink:href="#LiberationSans-30" x="530.810547"/>
      <use xlink:href="#LiberationSans-2e" x="586.425781"/>
      <use xlink:href="#LiberationSans-33" x="614.208984"/>
      <use xlink:href="#LiberationSans-35" x="669.824219"/>
     </g>
    </g>
   </g>
  </g>
 </g>
 <defs>
  <clipPath id="p9c735114a1">
   <rect x="90" y="86.4" width="558" height="554.4"/>
  </clipPath>
 </defs>
</svg>
