<?xml version="1.0" encoding="utf-8" standalone="no"?>
<!DOCTYPE svg PUBLIC "-//W3C//DTD SVG 1.1//EN"
  "http://www.w3.org/Graphics/SVG/1.1/DTD/svg11.dtd">
<svg xmlns:xlink="http://www.w3.org/1999/xlink" width="720pt" height="720pt" viewBox="0 0 720 720" xmlns="http://www.w3.org/2000/svg" version="1.1">
 <metadata>
  <rdf:RDF xmlns:dc="http://purl.org/dc/elements/1.1/" xmlns:cc="http://creativecommons.org/ns#" xmlns:rdf="http://www.w3.org/1999/02/22-rdf-syntax-ns#">
   <cc:Work>
    <dc:type rdf:resource="http://purl.org/dc/dcmitype/StillImage"/>
    <dc:date>2024-03-27T18:14:39.016560</dc:date>
    <dc:format>image/svg+xml</dc:format>
    <dc:creator>
     <cc:Agent>
      <dc:title>Matplotlib v3.8.3, https://matplotlib.org/</dc:title>
     </cc:Agent>
    </dc:creator>
   </cc:Work>
  </rdf:RDF>
 </metadata>
 <defs>
  <style type="text/css">*{stroke-linejoin: round; stroke-linecap: butt}</style>
 </defs>
 <g id="figure_1">
  <g id="patch_1">
   <path d="M 0 720 
L 720 720 
L 720 0 
L 0 0 
z
" style="fill: #ffffff"/>
  </g>
  <g id="axes_1">
   <g id="patch_2">
    <path d="M 90 640.8 
L 648 640.8 
L 648 86.4 
L 90 86.4 
z
" style="fill: #ffffff"/>
   </g>
   <g id="matplotlib.axis_1">
    <g id="xtick_1">
     <g id="line2d_1">
      <path d="M 115.363636 640.8 
L 115.363636 86.4 
" clip-path="url(#p360d6a76d5)" style="fill: none; stroke: #cccccc; stroke-width: 0.8; stroke-linecap: round"/>
     </g>
     <g id="line2d_2"/>
     <g id="text_1">
      <!-- 0 -->
      <g style="fill: #262626" transform="translate(112.583168 651.546875) scale(0.1 -0.1)">
       <defs>
        <path id="LiberationSans-30" d="M 3309 2203 
Q 3309 1569 3189 1136 
Q 3069 703 2861 436 
Q 2653 169 2372 53 
Q 2091 -63 1772 -63 
Q 1450 -63 1172 53 
Q 894 169 689 434 
Q 484 700 367 1133 
Q 250 1566 250 2203 
Q 250 2869 367 3305 
Q 484 3741 690 4000 
Q 897 4259 1178 4364 
Q 1459 4469 1791 4469 
Q 2106 4469 2382 4364 
Q 2659 4259 2865 4000 
Q 3072 3741 3190 3305 
Q 3309 2869 3309 2203 
z
M 2738 2203 
Q 2738 2728 2675 3076 
Q 2613 3425 2491 3633 
Q 2369 3841 2192 3927 
Q 2016 4013 1791 4013 
Q 1553 4013 1372 3925 
Q 1191 3838 1067 3630 
Q 944 3422 881 3073 
Q 819 2725 819 2203 
Q 819 1697 883 1350 
Q 947 1003 1070 792 
Q 1194 581 1372 489 
Q 1550 397 1778 397 
Q 2000 397 2178 489 
Q 2356 581 2479 792 
Q 2603 1003 2670 1350 
Q 2738 1697 2738 2203 
z
" transform="scale(0.015625)"/>
       </defs>
       <use xlink:href="#LiberationSans-30"/>
      </g>
     </g>
    </g>
    <g id="xtick_2">
     <g id="line2d_3">
      <path d="M 180.298701 640.8 
L 180.298701 86.4 
" clip-path="url(#p360d6a76d5)" style="fill: none; stroke: #cccccc; stroke-width: 0.8; stroke-linecap: round"/>
     </g>
     <g id="line2d_4"/>
     <g id="text_2">
      <!-- 1000 -->
      <g style="fill: #262626" transform="translate(169.176826 651.546875) scale(0.1 -0.1)">
       <defs>
        <path id="LiberationSans-31" d="M 488 0 
L 488 478 
L 1609 478 
L 1609 3866 
L 616 3156 
L 616 3688 
L 1656 4403 
L 2175 4403 
L 2175 478 
L 3247 478 
L 3247 0 
L 488 0 
z
" transform="scale(0.015625)"/>
       </defs>
       <use xlink:href="#LiberationSans-31"/>
       <use xlink:href="#LiberationSans-30" x="55.615234"/>
       <use xlink:href="#LiberationSans-30" x="111.230469"/>
       <use xlink:href="#LiberationSans-30" x="166.845703"/>
      </g>
     </g>
    </g>
    <g id="xtick_3">
     <g id="line2d_5">
      <path d="M 245.233766 640.8 
L 245.233766 86.4 
" clip-path="url(#p360d6a76d5)" style="fill: none; stroke: #cccccc; stroke-width: 0.8; stroke-linecap: round"/>
     </g>
     <g id="line2d_6"/>
     <g id="text_3">
      <!-- 2000 -->
      <g style="fill: #262626" transform="translate(234.111891 651.546875) scale(0.1 -0.1)">
       <defs>
        <path id="LiberationSans-32" d="M 322 0 
L 322 397 
Q 481 763 711 1042 
Q 941 1322 1194 1548 
Q 1447 1775 1695 1969 
Q 1944 2163 2144 2356 
Q 2344 2550 2467 2762 
Q 2591 2975 2591 3244 
Q 2591 3431 2534 3573 
Q 2478 3716 2372 3812 
Q 2266 3909 2117 3957 
Q 1969 4006 1788 4006 
Q 1619 4006 1470 3959 
Q 1322 3913 1206 3819 
Q 1091 3725 1017 3586 
Q 944 3447 922 3263 
L 347 3316 
Q 375 3553 478 3762 
Q 581 3972 762 4130 
Q 944 4288 1198 4378 
Q 1453 4469 1788 4469 
Q 2116 4469 2372 4391 
Q 2628 4313 2804 4159 
Q 2981 4006 3075 3781 
Q 3169 3556 3169 3263 
Q 3169 3041 3089 2841 
Q 3009 2641 2876 2459 
Q 2744 2278 2569 2109 
Q 2394 1941 2203 1780 
Q 2013 1619 1819 1461 
Q 1625 1303 1454 1143 
Q 1284 984 1150 820 
Q 1016 656 941 478 
L 3238 478 
L 3238 0 
L 322 0 
z
" transform="scale(0.015625)"/>
       </defs>
       <use xlink:href="#LiberationSans-32"/>
       <use xlink:href="#LiberationSans-30" x="55.615234"/>
       <use xlink:href="#LiberationSans-30" x="111.230469"/>
       <use xlink:href="#LiberationSans-30" x="166.845703"/>
      </g>
     </g>
    </g>
    <g id="xtick_4">
     <g id="line2d_7">
      <path d="M 310.168831 640.8 
L 310.168831 86.4 
" clip-path="url(#p360d6a76d5)" style="fill: none; stroke: #cccccc; stroke-width: 0.8; stroke-linecap: round"/>
     </g>
     <g id="line2d_8"/>
     <g id="text_4">
      <!-- 3000 -->
      <g style="fill: #262626" transform="translate(299.046956 651.546875) scale(0.1 -0.1)">
       <defs>
        <path id="LiberationSans-33" d="M 3278 1216 
Q 3278 913 3179 675 
Q 3081 438 2892 273 
Q 2703 109 2423 23 
Q 2144 -63 1784 -63 
Q 1375 -63 1095 39 
Q 816 141 634 308 
Q 453 475 362 689 
Q 272 903 244 1131 
L 825 1184 
Q 850 1009 917 865 
Q 984 722 1100 619 
Q 1216 516 1384 459 
Q 1553 403 1784 403 
Q 2209 403 2451 612 
Q 2694 822 2694 1234 
Q 2694 1478 2586 1626 
Q 2478 1775 2317 1858 
Q 2156 1941 1967 1969 
Q 1778 1997 1619 1997 
L 1300 1997 
L 1300 2484 
L 1606 2484 
Q 1766 2484 1937 2517 
Q 2109 2550 2251 2636 
Q 2394 2722 2486 2869 
Q 2578 3016 2578 3244 
Q 2578 3597 2370 3801 
Q 2163 4006 1753 4006 
Q 1381 4006 1151 3815 
Q 922 3625 884 3278 
L 319 3322 
Q 353 3613 478 3828 
Q 603 4044 795 4186 
Q 988 4328 1234 4398 
Q 1481 4469 1759 4469 
Q 2128 4469 2393 4376 
Q 2659 4284 2828 4126 
Q 2997 3969 3076 3756 
Q 3156 3544 3156 3303 
Q 3156 3109 3103 2940 
Q 3050 2772 2937 2637 
Q 2825 2503 2651 2406 
Q 2478 2309 2234 2259 
L 2234 2247 
Q 2500 2219 2697 2126 
Q 2894 2034 3022 1896 
Q 3150 1759 3214 1584 
Q 3278 1409 3278 1216 
z
" transform="scale(0.015625)"/>
       </defs>
       <use xlink:href="#LiberationSans-33"/>
       <use xlink:href="#LiberationSans-30" x="55.615234"/>
       <use xlink:href="#LiberationSans-30" x="111.230469"/>
       <use xlink:href="#LiberationSans-30" x="166.845703"/>
      </g>
     </g>
    </g>
    <g id="xtick_5">
     <g id="line2d_9">
      <path d="M 375.103896 640.8 
L 375.103896 86.4 
" clip-path="url(#p360d6a76d5)" style="fill: none; stroke: #cccccc; stroke-width: 0.8; stroke-linecap: round"/>
     </g>
     <g id="line2d_10"/>
     <g id="text_5">
      <!-- 4000 -->
      <g style="fill: #262626" transform="translate(363.982021 651.546875) scale(0.1 -0.1)">
       <defs>
        <path id="LiberationSans-34" d="M 2753 997 
L 2753 0 
L 2222 0 
L 2222 997 
L 147 997 
L 147 1434 
L 2163 4403 
L 2753 4403 
L 2753 1441 
L 3372 1441 
L 3372 997 
L 2753 997 
z
M 2222 3769 
Q 2216 3753 2191 3708 
Q 2166 3663 2134 3606 
Q 2103 3550 2070 3492 
Q 2038 3434 2013 3397 
L 884 1734 
Q 869 1709 839 1668 
Q 809 1628 778 1586 
Q 747 1544 715 1503 
Q 684 1463 666 1441 
L 2222 1441 
L 2222 3769 
z
" transform="scale(0.015625)"/>
       </defs>
       <use xlink:href="#LiberationSans-34"/>
       <use xlink:href="#LiberationSans-30" x="55.615234"/>
       <use xlink:href="#LiberationSans-30" x="111.230469"/>
       <use xlink:href="#LiberationSans-30" x="166.845703"/>
      </g>
     </g>
    </g>
    <g id="xtick_6">
     <g id="line2d_11">
      <path d="M 440.038961 640.8 
L 440.038961 86.4 
" clip-path="url(#p360d6a76d5)" style="fill: none; stroke: #cccccc; stroke-width: 0.8; stroke-linecap: round"/>
     </g>
     <g id="line2d_12"/>
     <g id="text_6">
      <!-- 5000 -->
      <g style="fill: #262626" transform="translate(428.917086 651.546875) scale(0.1 -0.1)">
       <defs>
        <path id="LiberationSans-35" d="M 3291 1434 
Q 3291 1103 3191 828 
Q 3091 553 2894 354 
Q 2697 156 2405 46 
Q 2113 -63 1728 -63 
Q 1381 -63 1123 18 
Q 866 100 687 242 
Q 509 384 404 575 
Q 300 766 256 984 
L 825 1050 
Q 859 925 921 808 
Q 984 691 1092 598 
Q 1200 506 1358 451 
Q 1516 397 1741 397 
Q 1959 397 2137 464 
Q 2316 531 2442 662 
Q 2569 794 2637 984 
Q 2706 1175 2706 1422 
Q 2706 1625 2640 1795 
Q 2575 1966 2453 2089 
Q 2331 2213 2154 2281 
Q 1978 2350 1753 2350 
Q 1613 2350 1494 2325 
Q 1375 2300 1273 2256 
Q 1172 2213 1089 2155 
Q 1006 2097 934 2034 
L 384 2034 
L 531 4403 
L 3034 4403 
L 3034 3925 
L 1044 3925 
L 959 2528 
Q 1109 2644 1334 2726 
Q 1559 2809 1869 2809 
Q 2197 2809 2459 2709 
Q 2722 2609 2906 2426 
Q 3091 2244 3191 1991 
Q 3291 1738 3291 1434 
z
" transform="scale(0.015625)"/>
       </defs>
       <use xlink:href="#LiberationSans-35"/>
       <use xlink:href="#LiberationSans-30" x="55.615234"/>
       <use xlink:href="#LiberationSans-30" x="111.230469"/>
       <use xlink:href="#LiberationSans-30" x="166.845703"/>
      </g>
     </g>
    </g>
    <g id="xtick_7">
     <g id="line2d_13">
      <path d="M 504.974026 640.8 
L 504.974026 86.4 
" clip-path="url(#p360d6a76d5)" style="fill: none; stroke: #cccccc; stroke-width: 0.8; stroke-linecap: round"/>
     </g>
     <g id="line2d_14"/>
     <g id="text_7">
      <!-- 6000 -->
      <g style="fill: #262626" transform="translate(493.852151 651.546875) scale(0.1 -0.1)">
       <defs>
        <path id="LiberationSans-36" d="M 3278 1441 
Q 3278 1109 3186 832 
Q 3094 556 2914 357 
Q 2734 159 2468 48 
Q 2203 -63 1856 -63 
Q 1472 -63 1184 84 
Q 897 231 706 507 
Q 516 784 420 1186 
Q 325 1588 325 2100 
Q 325 2688 433 3131 
Q 541 3575 744 3872 
Q 947 4169 1239 4319 
Q 1531 4469 1900 4469 
Q 2125 4469 2322 4422 
Q 2519 4375 2680 4270 
Q 2841 4166 2962 3994 
Q 3084 3822 3156 3572 
L 2619 3475 
Q 2531 3759 2339 3886 
Q 2147 4013 1894 4013 
Q 1663 4013 1475 3903 
Q 1288 3794 1156 3576 
Q 1025 3359 954 3031 
Q 884 2703 884 2266 
Q 1038 2550 1316 2698 
Q 1594 2847 1953 2847 
Q 2253 2847 2497 2750 
Q 2741 2653 2914 2470 
Q 3088 2288 3183 2027 
Q 3278 1766 3278 1441 
z
M 2706 1416 
Q 2706 1644 2650 1828 
Q 2594 2013 2481 2142 
Q 2369 2272 2203 2342 
Q 2038 2413 1819 2413 
Q 1666 2413 1509 2367 
Q 1353 2322 1226 2220 
Q 1100 2119 1020 1953 
Q 941 1788 941 1550 
Q 941 1306 1003 1095 
Q 1066 884 1183 728 
Q 1300 572 1465 481 
Q 1631 391 1838 391 
Q 2041 391 2202 461 
Q 2363 531 2475 664 
Q 2588 797 2647 987 
Q 2706 1178 2706 1416 
z
" transform="scale(0.015625)"/>
       </defs>
       <use xlink:href="#LiberationSans-36"/>
       <use xlink:href="#LiberationSans-30" x="55.615234"/>
       <use xlink:href="#LiberationSans-30" x="111.230469"/>
       <use xlink:href="#LiberationSans-30" x="166.845703"/>
      </g>
     </g>
    </g>
    <g id="xtick_8">
     <g id="line2d_15">
      <path d="M 569.909091 640.8 
L 569.909091 86.4 
" clip-path="url(#p360d6a76d5)" style="fill: none; stroke: #cccccc; stroke-width: 0.8; stroke-linecap: round"/>
     </g>
     <g id="line2d_16"/>
     <g id="text_8">
      <!-- 7000 -->
      <g style="fill: #262626" transform="translate(558.787216 651.546875) scale(0.1 -0.1)">
       <defs>
        <path id="LiberationSans-37" d="M 3238 3947 
Q 2906 3441 2628 2973 
Q 2350 2506 2150 2032 
Q 1950 1559 1839 1061 
Q 1728 563 1728 0 
L 1141 0 
Q 1141 528 1266 1036 
Q 1391 1544 1603 2033 
Q 1816 2522 2097 2994 
Q 2378 3466 2694 3925 
L 328 3925 
L 328 4403 
L 3238 4403 
L 3238 3947 
z
" transform="scale(0.015625)"/>
       </defs>
       <use xlink:href="#LiberationSans-37"/>
       <use xlink:href="#LiberationSans-30" x="55.615234"/>
       <use xlink:href="#LiberationSans-30" x="111.230469"/>
       <use xlink:href="#LiberationSans-30" x="166.845703"/>
      </g>
     </g>
    </g>
    <g id="xtick_9">
     <g id="line2d_17">
      <path d="M 634.844156 640.8 
L 634.844156 86.4 
" clip-path="url(#p360d6a76d5)" style="fill: none; stroke: #cccccc; stroke-width: 0.8; stroke-linecap: round"/>
     </g>
     <g id="line2d_18"/>
     <g id="text_9">
      <!-- 8000 -->
      <g style="fill: #262626" transform="translate(623.722281 651.546875) scale(0.1 -0.1)">
       <defs>
        <path id="LiberationSans-38" d="M 3281 1228 
Q 3281 947 3192 711 
Q 3103 475 2920 303 
Q 2738 131 2453 34 
Q 2169 -63 1781 -63 
Q 1394 -63 1111 34 
Q 828 131 642 301 
Q 456 472 367 708 
Q 278 944 278 1222 
Q 278 1463 351 1650 
Q 425 1838 548 1973 
Q 672 2109 830 2192 
Q 988 2275 1156 2303 
L 1156 2316 
Q 972 2359 826 2456 
Q 681 2553 582 2689 
Q 484 2825 432 2990 
Q 381 3156 381 3341 
Q 381 3572 470 3776 
Q 559 3981 734 4136 
Q 909 4291 1168 4380 
Q 1428 4469 1769 4469 
Q 2128 4469 2392 4378 
Q 2656 4288 2829 4133 
Q 3003 3978 3087 3772 
Q 3172 3566 3172 3334 
Q 3172 3153 3120 2987 
Q 3069 2822 2970 2686 
Q 2872 2550 2726 2454 
Q 2581 2359 2391 2322 
L 2391 2309 
Q 2581 2278 2743 2195 
Q 2906 2113 3025 1977 
Q 3144 1841 3212 1653 
Q 3281 1466 3281 1228 
z
M 2588 3303 
Q 2588 3469 2545 3606 
Q 2503 3744 2406 3842 
Q 2309 3941 2153 3995 
Q 1997 4050 1769 4050 
Q 1547 4050 1394 3995 
Q 1241 3941 1142 3842 
Q 1044 3744 1000 3606 
Q 956 3469 956 3303 
Q 956 3172 990 3034 
Q 1025 2897 1115 2784 
Q 1206 2672 1365 2600 
Q 1525 2528 1775 2528 
Q 2041 2528 2202 2600 
Q 2363 2672 2448 2784 
Q 2534 2897 2561 3034 
Q 2588 3172 2588 3303 
z
M 2697 1281 
Q 2697 1441 2653 1589 
Q 2609 1738 2503 1852 
Q 2397 1966 2217 2036 
Q 2038 2106 1769 2106 
Q 1522 2106 1348 2036 
Q 1175 1966 1067 1850 
Q 959 1734 909 1582 
Q 859 1431 859 1269 
Q 859 1066 909 898 
Q 959 731 1068 611 
Q 1178 491 1356 425 
Q 1534 359 1788 359 
Q 2044 359 2219 425 
Q 2394 491 2500 611 
Q 2606 731 2651 901 
Q 2697 1072 2697 1281 
z
" transform="scale(0.015625)"/>
       </defs>
       <use xlink:href="#LiberationSans-38"/>
       <use xlink:href="#LiberationSans-30" x="55.615234"/>
       <use xlink:href="#LiberationSans-30" x="111.230469"/>
       <use xlink:href="#LiberationSans-30" x="166.845703"/>
      </g>
     </g>
    </g>
    <g id="text_10">
     <!-- rounds -->
     <g style="fill: #262626" transform="translate(353.713281 664.86875) scale(0.1 -0.1)">
      <defs>
       <path id="LiberationSans-72" d="M 444 0 
L 444 2594 
Q 444 2700 442 2811 
Q 441 2922 437 3025 
Q 434 3128 431 3218 
Q 428 3309 425 3381 
L 956 3381 
Q 959 3309 964 3217 
Q 969 3125 973 3028 
Q 978 2931 979 2842 
Q 981 2753 981 2691 
L 994 2691 
Q 1053 2884 1120 3026 
Q 1188 3169 1278 3261 
Q 1369 3353 1494 3398 
Q 1619 3444 1797 3444 
Q 1866 3444 1928 3433 
Q 1991 3422 2025 3413 
L 2025 2897 
Q 1969 2913 1894 2920 
Q 1819 2928 1725 2928 
Q 1531 2928 1395 2840 
Q 1259 2753 1173 2598 
Q 1088 2444 1047 2230 
Q 1006 2016 1006 1763 
L 1006 0 
L 444 0 
z
" transform="scale(0.015625)"/>
       <path id="LiberationSans-6f" d="M 3291 1694 
Q 3291 806 2900 371 
Q 2509 -63 1766 -63 
Q 1413 -63 1134 43 
Q 856 150 664 369 
Q 472 588 370 917 
Q 269 1247 269 1694 
Q 269 3444 1784 3444 
Q 2178 3444 2464 3334 
Q 2750 3225 2933 3006 
Q 3116 2788 3203 2459 
Q 3291 2131 3291 1694 
z
M 2700 1694 
Q 2700 2088 2639 2344 
Q 2578 2600 2461 2753 
Q 2344 2906 2175 2967 
Q 2006 3028 1794 3028 
Q 1578 3028 1404 2964 
Q 1231 2900 1109 2745 
Q 988 2591 923 2334 
Q 859 2078 859 1694 
Q 859 1300 928 1042 
Q 997 784 1117 631 
Q 1238 478 1402 415 
Q 1566 353 1759 353 
Q 1975 353 2150 414 
Q 2325 475 2447 628 
Q 2569 781 2634 1040 
Q 2700 1300 2700 1694 
z
" transform="scale(0.015625)"/>
       <path id="LiberationSans-75" d="M 981 3381 
L 981 1238 
Q 981 991 1017 825 
Q 1053 659 1134 557 
Q 1216 456 1348 414 
Q 1481 372 1678 372 
Q 1878 372 2039 442 
Q 2200 513 2314 645 
Q 2428 778 2490 973 
Q 2553 1169 2553 1422 
L 2553 3381 
L 3116 3381 
L 3116 722 
Q 3116 616 3117 498 
Q 3119 381 3122 276 
Q 3125 172 3128 97 
Q 3131 22 3134 0 
L 2603 0 
Q 2600 16 2597 84 
Q 2594 153 2589 242 
Q 2584 331 2581 423 
Q 2578 516 2578 578 
L 2569 578 
Q 2488 431 2391 312 
Q 2294 194 2166 111 
Q 2038 28 1872 -17 
Q 1706 -63 1488 -63 
Q 1206 -63 1003 6 
Q 800 75 669 219 
Q 538 363 477 588 
Q 416 813 416 1128 
L 416 3381 
L 981 3381 
z
" transform="scale(0.015625)"/>
       <path id="LiberationSans-6e" d="M 2578 0 
L 2578 2144 
Q 2578 2391 2542 2556 
Q 2506 2722 2425 2823 
Q 2344 2925 2211 2967 
Q 2078 3009 1881 3009 
Q 1681 3009 1520 2939 
Q 1359 2869 1245 2736 
Q 1131 2603 1068 2408 
Q 1006 2213 1006 1959 
L 1006 0 
L 444 0 
L 444 2659 
Q 444 2766 442 2883 
Q 441 3000 437 3104 
Q 434 3209 431 3284 
Q 428 3359 425 3381 
L 956 3381 
Q 959 3366 962 3297 
Q 966 3228 970 3139 
Q 975 3050 978 2958 
Q 981 2866 981 2803 
L 991 2803 
Q 1072 2950 1169 3069 
Q 1266 3188 1394 3270 
Q 1522 3353 1687 3398 
Q 1853 3444 2072 3444 
Q 2353 3444 2556 3375 
Q 2759 3306 2890 3162 
Q 3022 3019 3083 2792 
Q 3144 2566 3144 2253 
L 3144 0 
L 2578 0 
z
" transform="scale(0.015625)"/>
       <path id="LiberationSans-64" d="M 2566 544 
Q 2409 219 2151 78 
Q 1894 -63 1513 -63 
Q 872 -63 570 368 
Q 269 800 269 1675 
Q 269 3444 1513 3444 
Q 1897 3444 2153 3303 
Q 2409 3163 2566 2856 
L 2572 2856 
Q 2572 2888 2570 2955 
Q 2569 3022 2567 3095 
Q 2566 3169 2566 3234 
Q 2566 3300 2566 3328 
L 2566 4638 
L 3128 4638 
L 3128 697 
Q 3128 575 3129 462 
Q 3131 350 3134 256 
Q 3138 163 3141 95 
Q 3144 28 3147 0 
L 2609 0 
Q 2603 31 2598 89 
Q 2594 147 2589 222 
Q 2584 297 2581 380 
Q 2578 463 2578 544 
L 2566 544 
z
M 859 1694 
Q 859 1344 903 1094 
Q 947 844 1044 683 
Q 1141 522 1291 447 
Q 1441 372 1656 372 
Q 1878 372 2048 444 
Q 2219 516 2333 677 
Q 2447 838 2506 1097 
Q 2566 1356 2566 1731 
Q 2566 2091 2506 2339 
Q 2447 2588 2331 2741 
Q 2216 2894 2048 2961 
Q 1881 3028 1663 3028 
Q 1456 3028 1306 2956 
Q 1156 2884 1056 2725 
Q 956 2566 907 2311 
Q 859 2056 859 1694 
z
" transform="scale(0.015625)"/>
       <path id="LiberationSans-73" d="M 2969 934 
Q 2969 697 2876 511 
Q 2784 325 2609 198 
Q 2434 72 2179 4 
Q 1925 -63 1597 -63 
Q 1303 -63 1067 -17 
Q 831 28 653 128 
Q 475 228 354 392 
Q 234 556 178 794 
L 675 891 
Q 747 619 972 492 
Q 1197 366 1597 366 
Q 1778 366 1929 391 
Q 2081 416 2190 477 
Q 2300 538 2361 639 
Q 2422 741 2422 891 
Q 2422 1044 2350 1142 
Q 2278 1241 2150 1306 
Q 2022 1372 1839 1420 
Q 1656 1469 1438 1528 
Q 1234 1581 1034 1647 
Q 834 1713 673 1820 
Q 513 1928 413 2087 
Q 313 2247 313 2488 
Q 313 2950 642 3192 
Q 972 3434 1603 3434 
Q 2163 3434 2492 3237 
Q 2822 3041 2909 2606 
L 2403 2544 
Q 2375 2675 2300 2764 
Q 2225 2853 2119 2908 
Q 2013 2963 1880 2986 
Q 1747 3009 1603 3009 
Q 1222 3009 1040 2893 
Q 859 2778 859 2544 
Q 859 2406 926 2317 
Q 994 2228 1114 2167 
Q 1234 2106 1403 2061 
Q 1572 2016 1775 1966 
Q 1909 1931 2050 1892 
Q 2191 1853 2323 1798 
Q 2456 1744 2573 1670 
Q 2691 1597 2778 1494 
Q 2866 1391 2917 1253 
Q 2969 1116 2969 934 
z
" transform="scale(0.015625)"/>
      </defs>
      <use xlink:href="#LiberationSans-72"/>
      <use xlink:href="#LiberationSans-6f" x="33.300781"/>
      <use xlink:href="#LiberationSans-75" x="88.916016"/>
      <use xlink:href="#LiberationSans-6e" x="144.53125"/>
      <use xlink:href="#LiberationSans-64" x="200.146484"/>
      <use xlink:href="#LiberationSans-73" x="255.761719"/>
     </g>
    </g>
   </g>
   <g id="matplotlib.axis_2">
    <g id="ytick_1">
     <g id="line2d_19">
      <path d="M 90 620.575331 
L 648 620.575331 
" clip-path="url(#p360d6a76d5)" style="fill: none; stroke: #cccccc; stroke-width: 0.8; stroke-linecap: round"/>
     </g>
     <g id="line2d_20"/>
     <g id="text_11">
      <!-- 0 -->
      <g style="fill: #262626" transform="translate(80.939063 624.198769) scale(0.1 -0.1)">
       <use xlink:href="#LiberationSans-30"/>
      </g>
     </g>
    </g>
    <g id="ytick_2">
     <g id="line2d_21">
      <path d="M 90 523.401199 
L 648 523.401199 
" clip-path="url(#p360d6a76d5)" style="fill: none; stroke: #cccccc; stroke-width: 0.8; stroke-linecap: round"/>
     </g>
     <g id="line2d_22"/>
     <g id="text_12">
      <!-- 100 -->
      <g style="fill: #262626" transform="translate(69.817188 527.024637) scale(0.1 -0.1)">
       <use xlink:href="#LiberationSans-31"/>
       <use xlink:href="#LiberationSans-30" x="55.615234"/>
       <use xlink:href="#LiberationSans-30" x="111.230469"/>
      </g>
     </g>
    </g>
    <g id="ytick_3">
     <g id="line2d_23">
      <path d="M 90 426.227067 
L 648 426.227067 
" clip-path="url(#p360d6a76d5)" style="fill: none; stroke: #cccccc; stroke-width: 0.8; stroke-linecap: round"/>
     </g>
     <g id="line2d_24"/>
     <g id="text_13">
      <!-- 200 -->
      <g style="fill: #262626" transform="translate(69.817188 429.850504) scale(0.1 -0.1)">
       <use xlink:href="#LiberationSans-32"/>
       <use xlink:href="#LiberationSans-30" x="55.615234"/>
       <use xlink:href="#LiberationSans-30" x="111.230469"/>
      </g>
     </g>
    </g>
    <g id="ytick_4">
     <g id="line2d_25">
      <path d="M 90 329.052934 
L 648 329.052934 
" clip-path="url(#p360d6a76d5)" style="fill: none; stroke: #cccccc; stroke-width: 0.8; stroke-linecap: round"/>
     </g>
     <g id="line2d_26"/>
     <g id="text_14">
      <!-- 300 -->
      <g style="fill: #262626" transform="translate(69.817188 332.676372) scale(0.1 -0.1)">
       <use xlink:href="#LiberationSans-33"/>
       <use xlink:href="#LiberationSans-30" x="55.615234"/>
       <use xlink:href="#LiberationSans-30" x="111.230469"/>
      </g>
     </g>
    </g>
    <g id="ytick_5">
     <g id="line2d_27">
      <path d="M 90 231.878802 
L 648 231.878802 
" clip-path="url(#p360d6a76d5)" style="fill: none; stroke: #cccccc; stroke-width: 0.8; stroke-linecap: round"/>
     </g>
     <g id="line2d_28"/>
     <g id="text_15">
      <!-- 400 -->
      <g style="fill: #262626" transform="translate(69.817188 235.50224) scale(0.1 -0.1)">
       <use xlink:href="#LiberationSans-34"/>
       <use xlink:href="#LiberationSans-30" x="55.615234"/>
       <use xlink:href="#LiberationSans-30" x="111.230469"/>
      </g>
     </g>
    </g>
    <g id="ytick_6">
     <g id="line2d_29">
      <path d="M 90 134.70467 
L 648 134.70467 
" clip-path="url(#p360d6a76d5)" style="fill: none; stroke: #cccccc; stroke-width: 0.8; stroke-linecap: round"/>
     </g>
     <g id="line2d_30"/>
     <g id="text_16">
      <!-- 500 -->
      <g style="fill: #262626" transform="translate(69.817188 138.328107) scale(0.1 -0.1)">
       <use xlink:href="#LiberationSans-35"/>
       <use xlink:href="#LiberationSans-30" x="55.615234"/>
       <use xlink:href="#LiberationSans-30" x="111.230469"/>
      </g>
     </g>
    </g>
    <g id="text_17">
     <!-- Latency -->
     <g style="fill: #262626" transform="translate(63.742188 381.110937) rotate(-90) scale(0.1 -0.1)">
      <defs>
       <path id="LiberationSans-4c" d="M 525 0 
L 525 4403 
L 1122 4403 
L 1122 488 
L 3347 488 
L 3347 0 
L 525 0 
z
" transform="scale(0.015625)"/>
       <path id="LiberationSans-61" d="M 1294 -63 
Q 784 -63 528 206 
Q 272 475 272 944 
Q 272 1278 398 1492 
Q 525 1706 729 1828 
Q 934 1950 1196 1997 
Q 1459 2044 1731 2050 
L 2491 2063 
L 2491 2247 
Q 2491 2456 2447 2603 
Q 2403 2750 2312 2840 
Q 2222 2931 2086 2973 
Q 1950 3016 1766 3016 
Q 1603 3016 1472 2992 
Q 1341 2969 1244 2908 
Q 1147 2847 1087 2742 
Q 1028 2638 1009 2478 
L 422 2531 
Q 453 2731 540 2898 
Q 628 3066 789 3187 
Q 950 3309 1192 3376 
Q 1434 3444 1778 3444 
Q 2416 3444 2737 3151 
Q 3059 2859 3059 2306 
L 3059 850 
Q 3059 600 3125 473 
Q 3191 347 3375 347 
Q 3422 347 3469 353 
Q 3516 359 3559 369 
L 3559 19 
Q 3453 -6 3348 -18 
Q 3244 -31 3125 -31 
Q 2966 -31 2852 11 
Q 2738 53 2666 139 
Q 2594 225 2556 351 
Q 2519 478 2509 647 
L 2491 647 
Q 2400 484 2292 353 
Q 2184 222 2040 130 
Q 1897 38 1714 -12 
Q 1531 -63 1294 -63 
z
M 1422 359 
Q 1691 359 1892 457 
Q 2094 556 2226 709 
Q 2359 863 2425 1044 
Q 2491 1225 2491 1391 
L 2491 1669 
L 1875 1656 
Q 1669 1653 1483 1626 
Q 1297 1600 1156 1522 
Q 1016 1444 933 1303 
Q 850 1163 850 934 
Q 850 659 998 509 
Q 1147 359 1422 359 
z
" transform="scale(0.015625)"/>
       <path id="LiberationSans-74" d="M 1731 25 
Q 1603 -9 1470 -29 
Q 1338 -50 1163 -50 
Q 488 -50 488 716 
L 488 2972 
L 97 2972 
L 97 3381 
L 509 3381 
L 675 4138 
L 1050 4138 
L 1050 3381 
L 1675 3381 
L 1675 2972 
L 1050 2972 
L 1050 838 
Q 1050 594 1129 495 
Q 1209 397 1406 397 
Q 1488 397 1564 409 
Q 1641 422 1731 441 
L 1731 25 
z
" transform="scale(0.015625)"/>
       <path id="LiberationSans-65" d="M 863 1572 
Q 863 1306 917 1082 
Q 972 859 1086 698 
Q 1200 538 1378 448 
Q 1556 359 1806 359 
Q 2172 359 2392 506 
Q 2613 653 2691 878 
L 3184 738 
Q 3131 597 3036 455 
Q 2941 313 2781 198 
Q 2622 84 2383 10 
Q 2144 -63 1806 -63 
Q 1056 -63 664 384 
Q 272 831 272 1713 
Q 272 2188 390 2517 
Q 509 2847 715 3053 
Q 922 3259 1197 3351 
Q 1472 3444 1784 3444 
Q 2209 3444 2495 3306 
Q 2781 3169 2954 2926 
Q 3128 2684 3201 2356 
Q 3275 2028 3275 1647 
L 3275 1572 
L 863 1572 
z
M 2694 2003 
Q 2647 2538 2422 2783 
Q 2197 3028 1775 3028 
Q 1634 3028 1479 2983 
Q 1325 2938 1194 2822 
Q 1063 2706 972 2507 
Q 881 2309 869 2003 
L 2694 2003 
z
" transform="scale(0.015625)"/>
       <path id="LiberationSans-63" d="M 859 1706 
Q 859 1416 901 1172 
Q 944 928 1044 751 
Q 1144 575 1308 478 
Q 1472 381 1713 381 
Q 2013 381 2214 543 
Q 2416 706 2463 1044 
L 3031 1006 
Q 3003 797 2909 603 
Q 2816 409 2655 262 
Q 2494 116 2262 26 
Q 2031 -63 1728 -63 
Q 1331 -63 1053 71 
Q 775 206 601 442 
Q 428 678 350 998 
Q 272 1319 272 1694 
Q 272 2034 328 2295 
Q 384 2556 486 2751 
Q 588 2947 725 3080 
Q 863 3213 1023 3292 
Q 1184 3372 1362 3408 
Q 1541 3444 1722 3444 
Q 2006 3444 2228 3366 
Q 2450 3288 2611 3152 
Q 2772 3016 2872 2831 
Q 2972 2647 3013 2434 
L 2434 2391 
Q 2391 2672 2212 2837 
Q 2034 3003 1706 3003 
Q 1466 3003 1305 2923 
Q 1144 2844 1044 2683 
Q 944 2522 901 2278 
Q 859 2034 859 1706 
z
" transform="scale(0.015625)"/>
       <path id="LiberationSans-79" d="M 1888 0 
Q 1769 -306 1645 -551 
Q 1522 -797 1369 -970 
Q 1216 -1144 1028 -1236 
Q 841 -1328 597 -1328 
Q 491 -1328 400 -1322 
Q 309 -1316 209 -1294 
L 209 -872 
Q 269 -881 344 -886 
Q 419 -891 472 -891 
Q 719 -891 931 -706 
Q 1144 -522 1303 -119 
L 1356 16 
L 16 3381 
L 616 3381 
L 1328 1513 
Q 1359 1428 1407 1287 
Q 1456 1147 1504 1006 
Q 1553 866 1590 753 
Q 1628 641 1634 613 
Q 1644 647 1680 748 
Q 1716 850 1761 975 
Q 1806 1100 1853 1228 
Q 1900 1356 1931 1450 
L 2594 3381 
L 3188 3381 
L 1888 0 
z
" transform="scale(0.015625)"/>
      </defs>
      <use xlink:href="#LiberationSans-4c"/>
      <use xlink:href="#LiberationSans-61" x="55.615234"/>
      <use xlink:href="#LiberationSans-74" x="111.230469"/>
      <use xlink:href="#LiberationSans-65" x="139.013672"/>
      <use xlink:href="#LiberationSans-6e" x="194.628906"/>
      <use xlink:href="#LiberationSans-63" x="250.244141"/>
      <use xlink:href="#LiberationSans-79" x="300.244141"/>
     </g>
    </g>
   </g>
   <g id="line2d_31">
    <path d="M 115.363636 546.567001 
L 125.623377 546.567001 
L 125.753247 546.691384 
L 126.337662 546.691384 
L 126.467532 546.815768 
L 130.883117 546.815768 
L 131.012987 546.940153 
L 132.506494 546.940153 
L 132.636364 547.064536 
L 132.831169 547.064536 
L 132.961039 547.18892 
L 133.090909 547.18892 
L 133.220779 547.313304 
L 135.103896 547.313304 
L 135.233766 547.437688 
L 139 547.437688 
L 139.12987 547.562072 
L 139.974026 547.562072 
L 140.103896 547.686457 
L 140.493506 547.686457 
L 140.623377 547.810841 
L 141.207792 547.810841 
L 141.337662 547.935226 
L 141.662338 547.935226 
L 141.857143 548.183994 
L 142.701299 548.183994 
L 142.831169 548.308378 
L 143.74026 548.308378 
L 143.87013 548.432763 
L 147.311688 548.432763 
L 147.441558 548.557147 
L 149.064935 548.557147 
L 149.194805 548.681532 
L 149.454545 548.681532 
L 149.584416 548.805916 
L 149.974026 548.805916 
L 150.103896 548.930301 
L 150.558442 548.930301 
L 150.688312 549.054685 
L 151.142857 549.054685 
L 151.272727 549.179069 
L 152.831169 549.179069 
L 152.961039 549.303452 
L 153.220779 549.303452 
L 153.350649 549.427835 
L 154.194805 549.427835 
L 154.324675 549.55222 
L 154.38961 549.55222 
L 154.584416 549.800987 
L 154.714286 549.800987 
L 154.844156 549.92537 
L 155.753247 549.92537 
L 155.883117 550.049754 
L 156.922078 550.049754 
L 157.051948 550.174138 
L 157.896104 550.174138 
L 158.025974 550.298522 
L 160.103896 550.298522 
L 160.233766 550.422906 
L 160.298701 550.422906 
L 160.493506 550.671675 
L 163.805195 550.671675 
L 163.935065 550.796059 
L 165.753247 550.796059 
L 165.883117 550.920444 
L 167.571429 550.920444 
L 167.701299 551.044828 
L 167.831169 551.044828 
L 167.961039 551.169211 
L 168.025974 551.169211 
L 168.155844 551.293596 
L 168.61039 551.293596 
L 168.74026 551.41798 
L 169.454545 551.41798 
L 169.584416 551.542364 
L 170.818182 551.542364 
L 170.948052 551.666748 
L 171.857143 551.666748 
L 171.987013 551.791132 
L 174.844156 551.791132 
L 174.974026 551.915515 
L 177.246753 551.915515 
L 177.376623 552.039899 
L 181.142857 552.039899 
L 181.272727 552.164284 
L 181.467532 552.164284 
L 181.597403 552.288668 
L 182.181818 552.288668 
L 182.311688 552.413053 
L 182.896104 552.413053 
L 183.025974 552.537437 
L 184.844156 552.537437 
L 184.974026 552.661821 
L 185.883117 552.661821 
L 186.012987 552.786205 
L 191.922078 552.786205 
L 192.051948 552.910588 
L 194.194805 552.910588 
L 194.324675 553.034973 
L 198.220779 553.034973 
L 198.350649 553.159356 
L 199.38961 553.159356 
L 199.584416 553.408124 
L 200.558442 553.408124 
L 200.688312 553.532509 
L 205.948052 553.532509 
L 206.077922 553.656893 
L 209.38961 553.656893 
L 209.519481 553.781277 
L 209.649351 553.781277 
L 209.844156 554.030046 
L 220.168831 554.030046 
L 220.298701 554.15443 
L 221.532468 554.15443 
L 221.662338 554.278814 
L 223.090909 554.278814 
L 223.220779 554.403198 
L 224.584416 554.403198 
L 224.714286 554.527582 
L 228.155844 554.527582 
L 228.285714 554.651966 
L 228.415584 554.651966 
L 228.545455 554.776349 
L 231.662338 554.776349 
L 231.792208 554.900734 
L 236.337662 554.900734 
L 236.467532 555.025119 
L 242.311688 555.025119 
L 242.441558 555.149503 
L 247.831169 555.149503 
L 247.961039 555.273886 
L 249 555.273886 
L 249.12987 555.39827 
L 256.337662 555.39827 
L 256.467532 555.522654 
L 259.324675 555.522654 
L 259.454545 555.647038 
L 260.818182 555.647038 
L 260.948052 555.771422 
L 264.064935 555.771422 
L 264.194805 555.895806 
L 265.233766 555.895806 
L 265.363636 556.02019 
L 267.051948 556.02019 
L 267.181818 556.144574 
L 267.636364 556.144574 
L 267.766234 556.268959 
L 271.142857 556.268959 
L 271.272727 556.393343 
L 271.597403 556.393343 
L 271.727273 556.517727 
L 274.454545 556.517727 
L 274.584416 556.64211 
L 275.103896 556.64211 
L 275.233766 556.766495 
L 277.896104 556.766495 
L 278.025974 556.890879 
L 281.142857 556.890879 
L 281.272727 557.015263 
L 281.597403 557.015263 
L 281.727273 557.139647 
L 282.831169 557.139647 
L 283.025974 557.388416 
L 283.74026 557.388416 
L 283.935065 557.637184 
L 622.636364 557.637184 
L 622.636364 557.637184 
" clip-path="url(#p360d6a76d5)" style="fill: none; stroke-dasharray: 3.7,1.6; stroke-dashoffset: 0; stroke: #1f77b4"/>
    <defs>
     <path id="m324d6bf22e" d="M 0 3 
C 0.795609 3 1.55874 2.683901 2.12132 2.12132 
C 2.683901 1.55874 3 0.795609 3 0 
C 3 -0.795609 2.683901 -1.55874 2.12132 -2.12132 
C 1.55874 -2.683901 0.795609 -3 0 -3 
C -0.795609 -3 -1.55874 -2.683901 -2.12132 -2.12132 
C -2.683901 -1.55874 -3 -0.795609 -3 0 
C -3 0.795609 -2.683901 1.55874 -2.12132 2.12132 
C -1.55874 2.683901 -0.795609 3 0 3 
z
" style="stroke: #1f77b4"/>
    </defs>
    <g clip-path="url(#p360d6a76d5)">
     <use xlink:href="#m324d6bf22e" x="115.363636" y="546.567001" style="fill: #1f77b4; stroke: #1f77b4"/>
     <use xlink:href="#m324d6bf22e" x="180.298701" y="552.039899" style="fill: #1f77b4; stroke: #1f77b4"/>
     <use xlink:href="#m324d6bf22e" x="245.233766" y="555.149503" style="fill: #1f77b4; stroke: #1f77b4"/>
     <use xlink:href="#m324d6bf22e" x="310.168831" y="557.637184" style="fill: #1f77b4; stroke: #1f77b4"/>
     <use xlink:href="#m324d6bf22e" x="375.103896" y="557.637184" style="fill: #1f77b4; stroke: #1f77b4"/>
     <use xlink:href="#m324d6bf22e" x="440.038961" y="557.637184" style="fill: #1f77b4; stroke: #1f77b4"/>
     <use xlink:href="#m324d6bf22e" x="504.974026" y="557.637184" style="fill: #1f77b4; stroke: #1f77b4"/>
     <use xlink:href="#m324d6bf22e" x="569.909091" y="557.637184" style="fill: #1f77b4; stroke: #1f77b4"/>
    </g>
   </g>
   <g id="line2d_32">
    <path d="M 115.363636 320.43873 
L 116.012987 339.718116 
L 116.207792 342.081395 
L 116.532468 347.429871 
L 116.597403 347.429871 
L 116.857143 349.79315 
L 116.922078 349.79315 
L 116.987013 350.415065 
L 117.181818 355.63916 
L 117.311688 355.63916 
L 117.506494 358.251206 
L 117.701299 361.360785 
L 117.766234 361.360785 
L 117.961039 362.729 
L 118.155844 362.729 
L 118.285714 363.599683 
L 118.350649 363.599683 
L 118.61039 365.962963 
L 118.87013 365.962963 
L 119 366.833645 
L 119.12987 366.833645 
L 119.25974 367.455561 
L 119.454545 367.455561 
L 119.584416 368.20186 
L 121.012987 368.20186 
L 121.142857 368.948159 
L 121.207792 368.948159 
L 121.337662 369.570075 
L 122.116883 369.570075 
L 122.246753 370.191991 
L 122.311688 370.191991 
L 122.441558 371.062673 
L 123.090909 371.062673 
L 123.220779 371.560206 
L 123.61039 371.560206 
L 123.74026 372.306506 
L 124.324675 372.306506 
L 124.454545 373.052805 
L 124.714286 373.052805 
L 124.844156 373.799104 
L 125.558442 373.799104 
L 125.688312 374.172254 
L 125.753247 374.172254 
L 125.883117 374.669786 
L 132.441558 374.669786 
L 132.571429 375.540469 
L 133.025974 375.540469 
L 133.155844 376.162385 
L 134.38961 376.162385 
L 134.519481 376.659918 
L 137.311688 376.659918 
L 137.441558 377.5306 
L 137.766234 377.5306 
L 137.896104 378.152516 
L 138.61039 378.152516 
L 138.805195 379.271964 
L 140.428571 379.271964 
L 140.558442 380.018263 
L 141.467532 380.018263 
L 141.597403 380.764562 
L 142.766234 380.764562 
L 142.961039 382.381545 
L 147.181818 382.381545 
L 147.311688 383.127844 
L 148.74026 383.127844 
L 148.87013 383.874143 
L 156.597403 383.874143 
L 156.857143 385.117975 
L 157.116883 385.117975 
L 157.246753 385.739891 
L 158.545455 385.739891 
L 158.675325 386.48619 
L 158.87013 386.48619 
L 159 386.983722 
L 160.428571 386.983722 
L 160.558442 387.730022 
L 161.077922 387.730022 
L 161.207792 388.600704 
L 167.896104 388.600704 
L 168.025974 389.347003 
L 170.428571 389.347003 
L 170.623377 390.963985 
L 170.753247 390.963985 
L 170.883117 391.710284 
L 172.441558 391.710284 
L 172.571429 392.456584 
L 173.61039 392.456584 
L 173.74026 393.327266 
L 174.974026 393.327266 
L 175.103896 394.197949 
L 176.727273 394.197949 
L 176.857143 395.193015 
L 176.922078 395.193015 
L 177.051948 395.939313 
L 177.831169 395.939313 
L 177.961039 396.809996 
L 179 396.809996 
L 179.12987 397.556296 
L 187.311688 397.556296 
L 187.571429 399.048894 
L 196.792208 399.048894 
L 196.922078 399.795193 
L 198.220779 399.795193 
L 198.350649 400.665876 
L 205.298701 400.665876 
L 205.428571 401.412174 
L 211.077922 401.412174 
L 211.207792 401.909707 
L 212.181818 401.909707 
L 212.311688 402.656005 
L 214.454545 402.656005 
L 214.584416 403.526688 
L 214.974026 403.526688 
L 215.103896 404.272988 
L 215.558442 404.272988 
L 215.688312 404.894903 
L 216.857143 404.894903 
L 216.987013 405.516819 
L 236.207792 405.516819 
L 236.337662 406.263118 
L 238.61039 406.263118 
L 238.74026 406.885034 
L 251.532468 406.885034 
L 251.662338 407.755716 
L 253.220779 407.755716 
L 253.350649 408.626399 
L 257.181818 408.626399 
L 257.311688 409.372697 
L 257.571429 409.372697 
L 257.701299 410.118996 
L 259.064935 410.118996 
L 259.194805 410.989679 
L 265.948052 410.989679 
L 266.077922 411.735978 
L 271.792208 411.735978 
L 271.922078 412.357894 
L 276.922078 412.357894 
L 277.051948 413.104192 
L 279.844156 413.104192 
L 279.974026 413.726108 
L 280.168831 413.726108 
L 280.298701 414.721174 
L 280.363636 414.721174 
L 280.493506 415.343089 
L 283.805195 415.343089 
L 283.935065 415.840621 
L 284.25974 415.840621 
L 284.38961 416.58692 
L 622.636364 416.58692 
L 622.636364 416.58692 
" clip-path="url(#p360d6a76d5)" style="fill: none; stroke-dasharray: 3.7,1.6; stroke-dashoffset: 0; stroke: #ff7f0e"/>
    <defs>
     <path id="m1b17381e86" d="M 0 -3 
L -3 3 
L 3 3 
z
" style="stroke: #ff7f0e; stroke-linejoin: miter"/>
    </defs>
    <g clip-path="url(#p360d6a76d5)">
     <use xlink:href="#m1b17381e86" x="115.363636" y="320.43873" style="fill: #ff7f0e; stroke: #ff7f0e; stroke-linejoin: miter"/>
     <use xlink:href="#m1b17381e86" x="180.298701" y="397.556296" style="fill: #ff7f0e; stroke: #ff7f0e; stroke-linejoin: miter"/>
     <use xlink:href="#m1b17381e86" x="245.233766" y="406.885034" style="fill: #ff7f0e; stroke: #ff7f0e; stroke-linejoin: miter"/>
     <use xlink:href="#m1b17381e86" x="310.168831" y="416.58692" style="fill: #ff7f0e; stroke: #ff7f0e; stroke-linejoin: miter"/>
     <use xlink:href="#m1b17381e86" x="375.103896" y="416.58692" style="fill: #ff7f0e; stroke: #ff7f0e; stroke-linejoin: miter"/>
     <use xlink:href="#m1b17381e86" x="440.038961" y="416.58692" style="fill: #ff7f0e; stroke: #ff7f0e; stroke-linejoin: miter"/>
     <use xlink:href="#m1b17381e86" x="504.974026" y="416.58692" style="fill: #ff7f0e; stroke: #ff7f0e; stroke-linejoin: miter"/>
     <use xlink:href="#m1b17381e86" x="569.909091" y="416.58692" style="fill: #ff7f0e; stroke: #ff7f0e; stroke-linejoin: miter"/>
    </g>
   </g>
   <g id="line2d_33">
    <path d="M 115.363636 405.018966 
L 115.688312 418.949898 
L 115.818182 420.815651 
L 116.012987 423.054552 
L 116.272727 424.547151 
L 116.532468 424.547151 
L 116.792208 426.039753 
L 117.116883 426.039753 
L 117.246753 426.537286 
L 117.506494 426.537286 
L 117.701299 427.656736 
L 117.831169 427.656736 
L 117.961039 428.154269 
L 118.74026 428.154269 
L 118.87013 428.651804 
L 119.12987 428.651804 
L 119.25974 429.024954 
L 119.454545 429.024954 
L 119.584416 429.522488 
L 119.714286 429.522488 
L 119.844156 430.020021 
L 120.168831 430.020021 
L 120.298701 430.517554 
L 120.428571 430.517554 
L 120.558442 430.890705 
L 121.857143 430.890705 
L 121.987013 431.263856 
L 122.506494 431.263856 
L 122.636364 431.637006 
L 123.74026 431.637006 
L 123.87013 432.010156 
L 123.935065 432.010156 
L 124.064935 432.383307 
L 124.25974 432.383307 
L 124.38961 432.756456 
L 124.649351 432.756456 
L 124.779221 433.25399 
L 127.571429 433.25399 
L 127.701299 433.751524 
L 127.831169 433.751524 
L 127.961039 434.249058 
L 129.584416 434.249058 
L 129.714286 434.622209 
L 130.233766 434.622209 
L 130.428571 435.617276 
L 131.857143 435.617276 
L 131.987013 436.114809 
L 132.376623 436.114809 
L 132.506494 436.612342 
L 132.701299 436.612342 
L 132.831169 437.109875 
L 136.142857 437.109875 
L 136.272727 437.483026 
L 137.311688 437.483026 
L 137.441558 437.98056 
L 139.844156 437.98056 
L 139.974026 438.478094 
L 140.688312 438.478094 
L 140.948052 439.348779 
L 141.207792 439.348779 
L 141.337662 439.721928 
L 141.402597 439.721928 
L 141.532468 440.219461 
L 142.181818 440.219461 
L 142.311688 440.716996 
L 142.766234 440.716996 
L 142.896104 441.214529 
L 144.194805 441.214529 
L 144.324675 441.836446 
L 145.298701 441.836446 
L 145.428571 442.085212 
L 146.727273 442.085212 
L 146.857143 442.707129 
L 147.571429 442.707129 
L 147.701299 443.329045 
L 147.831169 443.329045 
L 147.961039 443.826579 
L 148.480519 443.826579 
L 148.61039 444.324112 
L 150.038961 444.324112 
L 150.168831 444.697263 
L 150.428571 444.697263 
L 150.558442 445.319179 
L 151.077922 445.319179 
L 151.207792 445.816713 
L 152.571429 445.816713 
L 152.701299 446.314247 
L 157.766234 446.314247 
L 157.896104 446.811781 
L 158.220779 446.811781 
L 158.350649 447.309315 
L 160.038961 447.309315 
L 160.168831 447.806849 
L 160.298701 447.806849 
L 160.428571 448.179999 
L 162.766234 448.179999 
L 162.896104 448.801915 
L 164.12987 448.801915 
L 164.25974 449.29945 
L 166.012987 449.29945 
L 166.142857 449.921366 
L 167.961039 449.921366 
L 168.090909 450.543283 
L 169.779221 450.543283 
L 169.909091 451.165201 
L 173.350649 451.165201 
L 173.480519 451.538351 
L 174.25974 451.538351 
L 174.38961 452.160267 
L 175.493506 452.160267 
L 175.623377 452.533417 
L 177.311688 452.533417 
L 177.441558 453.155333 
L 179.974026 453.155333 
L 180.103896 453.77725 
L 181.077922 453.77725 
L 181.207792 454.274783 
L 183.025974 454.274783 
L 183.155844 454.772317 
L 188.220779 454.772317 
L 188.350649 455.269849 
L 197.181818 455.269849 
L 197.311688 455.767384 
L 211.727273 455.767384 
L 211.857143 456.264916 
L 217.506494 456.264916 
L 217.636364 456.76245 
L 220.168831 456.76245 
L 220.298701 457.384367 
L 228.415584 457.384367 
L 228.545455 457.881901 
L 228.675325 457.881901 
L 228.805195 458.379435 
L 229.844156 458.379435 
L 229.974026 458.876968 
L 231.662338 458.876968 
L 231.792208 459.250118 
L 238.090909 459.250118 
L 238.220779 459.747651 
L 238.675325 459.747651 
L 238.805195 460.245185 
L 243.74026 460.245185 
L 243.87013 460.742719 
L 248.805195 460.742719 
L 248.935065 461.240252 
L 251.727273 461.240252 
L 251.857143 461.613403 
L 254 461.613403 
L 254.194805 462.732853 
L 256.467532 462.732853 
L 256.597403 463.354771 
L 261.597403 463.354771 
L 261.727273 463.852305 
L 264.25974 463.852305 
L 264.38961 464.349839 
L 266.272727 464.349839 
L 266.402597 464.847373 
L 272.896104 464.847373 
L 273.025974 465.469289 
L 274.064935 465.469289 
L 274.194805 466.091207 
L 274.454545 466.091207 
L 274.584416 466.464356 
L 275.168831 466.464356 
L 275.298701 467.086273 
L 278.415584 467.086273 
L 278.545455 467.459423 
L 279.649351 467.459423 
L 279.779221 467.832574 
L 280.168831 467.832574 
L 280.298701 468.330107 
L 280.558442 468.330107 
L 280.688312 468.952023 
L 282.701299 468.952023 
L 282.831169 469.325174 
L 283.675325 469.325174 
L 283.87013 470.444624 
L 284.38961 470.444624 
L 284.519481 470.942158 
L 405.948052 470.942158 
L 406.077922 471.315308 
L 622.636364 471.315308 
L 622.636364 471.315308 
" clip-path="url(#p360d6a76d5)" style="fill: none; stroke-dasharray: 3.7,1.6; stroke-dashoffset: 0; stroke: #2ca02c"/>
    <defs>
     <path id="m39e53c4fe5" d="M -3 3 
L 3 -3 
M -3 -3 
L 3 3 
" style="stroke: #2ca02c"/>
    </defs>
    <g clip-path="url(#p360d6a76d5)">
     <use xlink:href="#m39e53c4fe5" x="115.363636" y="405.018966" style="fill: #2ca02c; stroke: #2ca02c"/>
     <use xlink:href="#m39e53c4fe5" x="180.298701" y="453.77725" style="fill: #2ca02c; stroke: #2ca02c"/>
     <use xlink:href="#m39e53c4fe5" x="245.233766" y="460.742719" style="fill: #2ca02c; stroke: #2ca02c"/>
     <use xlink:href="#m39e53c4fe5" x="310.168831" y="470.942158" style="fill: #2ca02c; stroke: #2ca02c"/>
     <use xlink:href="#m39e53c4fe5" x="375.103896" y="470.942158" style="fill: #2ca02c; stroke: #2ca02c"/>
     <use xlink:href="#m39e53c4fe5" x="440.038961" y="471.315308" style="fill: #2ca02c; stroke: #2ca02c"/>
     <use xlink:href="#m39e53c4fe5" x="504.974026" y="471.315308" style="fill: #2ca02c; stroke: #2ca02c"/>
     <use xlink:href="#m39e53c4fe5" x="569.909091" y="471.315308" style="fill: #2ca02c; stroke: #2ca02c"/>
    </g>
   </g>
   <g id="line2d_34">
    <path d="M 115.363636 111.6 
L 115.883117 111.6 
L 116.142857 111.973149 
L 116.337662 111.973149 
L 116.467532 112.346298 
L 116.727273 112.346298 
L 116.857143 112.84383 
L 117.311688 112.84383 
L 117.441558 113.465745 
L 117.571429 113.465745 
L 118.090909 118.441066 
L 119.324675 118.441066 
L 119.454545 119.187364 
L 119.584416 119.187364 
L 119.714286 120.058045 
L 119.844156 120.058045 
L 120.038961 120.67996 
L 120.623377 120.67996 
L 120.753247 121.550642 
L 120.818182 121.550642 
L 120.948052 122.670089 
L 121.012987 122.670089 
L 121.272727 127.147878 
L 121.337662 127.147878 
L 121.467532 128.391708 
L 121.792208 128.391708 
L 121.922078 129.386772 
L 121.987013 129.386772 
L 122.116883 130.381836 
L 122.571429 130.381836 
L 122.701299 131.128134 
L 122.766234 131.128134 
L 122.896104 132.123199 
L 123.025974 132.123199 
L 123.155844 132.869497 
L 123.220779 132.869497 
L 123.350649 133.988944 
L 123.74026 133.988944 
L 124 136.352221 
L 124.649351 136.352221 
L 124.844156 138.093584 
L 124.909091 138.093584 
L 125.103896 141.700691 
L 125.233766 141.700691 
L 125.428571 144.188352 
L 125.493506 144.188352 
L 125.623377 145.556565 
L 125.818182 145.556565 
L 126.142857 148.666141 
L 126.337662 148.666141 
L 126.467532 149.661205 
L 126.662338 149.661205 
L 126.987013 154.014611 
L 127.246753 154.014611 
L 127.506494 157.497335 
L 127.571429 157.497335 
L 127.701299 158.741166 
L 128.090909 158.741166 
L 128.220779 159.73623 
L 128.350649 159.73623 
L 128.480519 160.731294 
L 128.675325 160.731294 
L 128.87013 162.845805 
L 129.194805 162.845805 
L 129.324675 164.338402 
L 129.649351 164.338402 
L 129.909091 168.567425 
L 130.363636 168.567425 
L 130.493506 169.811255 
L 130.558442 169.811255 
L 130.688312 170.930702 
L 130.753247 170.930702 
L 130.883117 172.547681 
L 131.272727 172.547681 
L 131.402597 173.791512 
L 132.051948 173.791512 
L 132.181818 174.910959 
L 132.571429 174.910959 
L 132.701299 175.408491 
L 133.090909 175.408491 
L 133.220779 176.652321 
L 133.415584 176.652321 
L 133.61039 179.388748 
L 136.337662 179.388748 
L 136.467532 180.756961 
L 136.532468 180.756961 
L 136.792208 184.985984 
L 137.246753 184.985984 
L 137.376623 186.602963 
L 137.506494 186.602963 
L 137.636364 187.971177 
L 138.480519 187.971177 
L 138.87013 190.707603 
L 139.584416 190.707603 
L 139.714286 192.075816 
L 141.077922 192.075816 
L 141.272727 195.185392 
L 141.727273 195.185392 
L 141.987013 199.165649 
L 142.181818 199.165649 
L 142.311688 201.28016 
L 142.506494 201.28016 
L 142.636364 203.021522 
L 142.701299 203.021522 
L 142.831169 204.016586 
L 143.285714 204.016586 
L 143.415584 205.509183 
L 143.675325 205.509183 
L 143.805195 206.877396 
L 144.12987 206.877396 
L 144.25974 209.240673 
L 144.649351 209.240673 
L 144.779221 210.73327 
L 145.298701 210.73327 
L 145.428571 212.225866 
L 145.688312 212.225866 
L 145.818182 213.967228 
L 146.467532 213.967228 
L 146.727273 216.952421 
L 146.792208 216.952421 
L 147.051948 218.942549 
L 149.324675 218.942549 
L 149.454545 220.808295 
L 151.012987 220.808295 
L 151.142857 221.678976 
L 151.207792 221.678976 
L 151.337662 223.171572 
L 151.792208 223.171572 
L 151.922078 224.539785 
L 154.25974 224.539785 
L 154.38961 225.783615 
L 154.909091 225.783615 
L 155.038961 227.524978 
L 155.688312 227.524978 
L 155.818182 228.644425 
L 156.532468 228.644425 
L 156.662338 229.763872 
L 157.506494 229.763872 
L 157.701299 232.127149 
L 157.766234 232.127149 
L 157.896104 233.122214 
L 157.961039 233.122214 
L 158.090909 234.863576 
L 158.87013 234.863576 
L 159 236.729321 
L 160.103896 236.729321 
L 160.233766 238.097535 
L 161.467532 238.097535 
L 161.597403 239.341365 
L 162.766234 239.341365 
L 162.896104 240.585195 
L 163.090909 240.585195 
L 163.220779 242.077791 
L 163.350649 242.077791 
L 163.480519 243.570388 
L 166.532468 243.570388 
L 166.662338 245.062984 
L 167.441558 245.062984 
L 167.571429 246.928729 
L 167.896104 246.928729 
L 168.025974 248.545709 
L 169.779221 248.545709 
L 169.974026 252.774732 
L 171.792208 252.774732 
L 171.922078 254.142945 
L 172.441558 254.142945 
L 172.571429 255.262392 
L 173.545455 255.262392 
L 173.74026 258.247585 
L 173.87013 258.247585 
L 174 259.988947 
L 174.324675 259.988947 
L 174.454545 260.610862 
L 174.519481 260.610862 
L 174.649351 261.605926 
L 174.714286 261.605926 
L 174.844156 263.596055 
L 175.363636 263.596055 
L 175.493506 265.088651 
L 175.688312 265.088651 
L 175.818182 266.581248 
L 176.142857 266.581248 
L 176.272727 269.068908 
L 176.922078 269.068908 
L 177.051948 270.561504 
L 177.441558 270.561504 
L 177.571429 272.054101 
L 177.831169 272.054101 
L 177.961039 273.546697 
L 178.155844 273.546697 
L 178.285714 274.790527 
L 179.12987 274.790527 
L 179.25974 275.909974 
L 181.077922 275.909974 
L 181.207792 277.153804 
L 181.272727 277.153804 
L 181.402597 279.019549 
L 181.857143 279.019549 
L 181.987013 279.392699 
L 183.61039 279.392699 
L 183.74026 280.885295 
L 191.922078 280.885295 
L 192.051948 282.502274 
L 193.74026 282.502274 
L 193.87013 283.248572 
L 194.38961 283.248572 
L 194.519481 284.989934 
L 194.974026 284.989934 
L 195.103896 286.482531 
L 196.207792 286.482531 
L 196.337662 287.228829 
L 196.467532 287.228829 
L 196.597403 288.845808 
L 199 288.845808 
L 199.12987 290.462787 
L 200.363636 290.462787 
L 200.493506 292.452916 
L 201.077922 292.452916 
L 201.272727 294.940576 
L 202.506494 294.940576 
L 202.636364 296.308789 
L 206.337662 296.308789 
L 206.467532 298.050152 
L 208.74026 298.050152 
L 208.87013 299.667131 
L 210.168831 299.667131 
L 210.298701 301.657259 
L 213.675325 301.657259 
L 213.805195 303.025473 
L 248.545455 303.025473 
L 248.675325 304.393686 
L 250.103896 304.393686 
L 250.233766 305.886282 
L 250.428571 305.886282 
L 250.558442 307.752027 
L 251.012987 307.752027 
L 251.142857 308.871475 
L 252.571429 308.871475 
L 252.766234 312.478582 
L 253.220779 312.478582 
L 253.350649 314.344328 
L 254.584416 314.344328 
L 254.714286 315.215009 
L 254.909091 315.215009 
L 255.038961 316.458839 
L 255.558442 316.458839 
L 255.688312 317.702669 
L 255.818182 317.702669 
L 256.012987 320.812245 
L 256.857143 320.812245 
L 256.987013 322.304841 
L 257.181818 322.304841 
L 257.311688 323.548672 
L 258.350649 323.548672 
L 258.480519 324.543736 
L 258.545455 324.543736 
L 258.675325 325.165651 
L 259.454545 325.165651 
L 259.584416 326.907013 
L 260.493506 326.907013 
L 260.623377 328.399609 
L 260.688312 328.399609 
L 260.818182 330.265355 
L 260.948052 330.265355 
L 261.142857 333.126164 
L 263.480519 333.126164 
L 263.74026 335.613825 
L 264.12987 335.613825 
L 264.324675 338.847783 
L 266.857143 338.847783 
L 266.987013 340.464763 
L 267.831169 340.464763 
L 267.961039 342.206125 
L 268.220779 342.206125 
L 268.415584 344.44502 
L 272.896104 344.44502 
L 273.025974 346.186382 
L 273.220779 346.186382 
L 273.350649 346.93268 
L 277.051948 346.93268 
L 277.181818 348.425276 
L 284.194805 348.425276 
L 284.324675 350.042256 
L 622.636364 350.042256 
L 622.636364 350.042256 
" clip-path="url(#p360d6a76d5)" style="fill: none; stroke-dasharray: 3.7,1.6; stroke-dashoffset: 0; stroke: #d62728"/>
    <defs>
     <path id="ma86f45d03b" d="M -3 3 
L 3 3 
L 3 -3 
L -3 -3 
z
" style="stroke: #d62728; stroke-linejoin: miter"/>
    </defs>
    <g clip-path="url(#p360d6a76d5)">
     <use xlink:href="#ma86f45d03b" x="115.363636" y="111.6" style="fill: #d62728; stroke: #d62728; stroke-linejoin: miter"/>
     <use xlink:href="#ma86f45d03b" x="180.298701" y="275.909974" style="fill: #d62728; stroke: #d62728; stroke-linejoin: miter"/>
     <use xlink:href="#ma86f45d03b" x="245.233766" y="303.025473" style="fill: #d62728; stroke: #d62728; stroke-linejoin: miter"/>
     <use xlink:href="#ma86f45d03b" x="310.168831" y="350.042256" style="fill: #d62728; stroke: #d62728; stroke-linejoin: miter"/>
     <use xlink:href="#ma86f45d03b" x="375.103896" y="350.042256" style="fill: #d62728; stroke: #d62728; stroke-linejoin: miter"/>
     <use xlink:href="#ma86f45d03b" x="440.038961" y="350.042256" style="fill: #d62728; stroke: #d62728; stroke-linejoin: miter"/>
     <use xlink:href="#ma86f45d03b" x="504.974026" y="350.042256" style="fill: #d62728; stroke: #d62728; stroke-linejoin: miter"/>
     <use xlink:href="#ma86f45d03b" x="569.909091" y="350.042256" style="fill: #d62728; stroke: #d62728; stroke-linejoin: miter"/>
    </g>
   </g>
   <g id="line2d_35">
    <path d="M 115.363636 582.762609 
L 115.428571 593.708433 
L 115.493506 598.061879 
L 115.558442 602.042169 
L 115.623377 603.659161 
L 115.688312 605.151768 
L 115.753247 606.14684 
L 115.818182 607.017527 
L 115.883117 608.136981 
L 115.948052 608.634516 
L 116.012987 609.380819 
L 116.077922 609.75397 
L 116.142857 610.127122 
L 116.207792 610.127122 
L 116.272727 610.375889 
L 116.337662 610.74904 
L 116.402597 611.122191 
L 116.467532 611.495342 
L 116.532468 611.74411 
L 116.597403 611.868493 
L 116.662338 612.11726 
L 116.727273 612.241644 
L 116.792208 612.614795 
L 116.857143 612.863562 
L 116.922078 612.987946 
L 116.987013 613.236713 
L 117.051948 613.48548 
L 117.116883 613.48548 
L 117.181818 613.48548 
L 117.246753 613.48548 
L 117.311688 613.48548 
L 117.376623 613.48548 
L 117.441558 613.48548 
L 117.506494 613.609864 
L 117.571429 613.858631 
L 117.636364 613.858631 
L 117.701299 613.983014 
L 117.766234 614.356165 
L 117.831169 614.356165 
L 117.896104 614.356165 
L 117.961039 614.356165 
L 118.025974 614.480549 
L 118.090909 614.729316 
L 118.155844 614.853699 
L 118.220779 614.853699 
L 118.285714 614.853699 
L 118.350649 614.853699 
L 118.415584 614.978083 
L 118.480519 615.102466 
L 118.545455 615.102466 
L 118.61039 615.22685 
L 118.675325 615.22685 
L 118.74026 615.351233 
L 118.805195 615.475617 
L 118.87013 615.6 
" clip-path="url(#p360d6a76d5)" style="fill: none; stroke-dasharray: 3.7,1.6; stroke-dashoffset: 0; stroke: #9467bd"/>
    <defs>
     <path id="m0894910f86" d="M -0 4.242641 
L 2.545584 0 
L 0 -4.242641 
L -2.545584 -0 
z
" style="stroke: #9467bd; stroke-linejoin: miter"/>
    </defs>
    <g clip-path="url(#p360d6a76d5)">
     <use xlink:href="#m0894910f86" x="115.363636" y="582.762609" style="fill: #9467bd; stroke: #9467bd; stroke-linejoin: miter"/>
     <use xlink:href="#m0894910f86" x="116.337662" y="610.74904" style="fill: #9467bd; stroke: #9467bd; stroke-linejoin: miter"/>
     <use xlink:href="#m0894910f86" x="117.311688" y="613.48548" style="fill: #9467bd; stroke: #9467bd; stroke-linejoin: miter"/>
     <use xlink:href="#m0894910f86" x="118.285714" y="614.853699" style="fill: #9467bd; stroke: #9467bd; stroke-linejoin: miter"/>
    </g>
   </g>
   <g id="line2d_36">
    <path d="M 115.363636 552.661887 
L 118.285714 552.744809 
L 118.805195 552.952116 
L 119.064935 552.993577 
L 119.12987 553.698419 
L 119.324675 559.461536 
L 119.649351 559.502998 
L 120.038961 565.639258 
L 120.233766 565.639258 
L 120.363636 568.831753 
L 120.493506 577.911778 
L 121.077922 577.911778 
L 121.142857 579.362928 
L 121.207792 573.259832 
L 121.272727 573.309585 
L 122.116883 573.359339 
L 122.246753 575.647994 
L 122.376623 566.281913 
L 151.532468 566.281913 
L 151.597403 569.453654 
L 151.727273 600.093525 
L 166.012987 600.093525 
L 166.142857 601.834886 
L 166.272727 600.922741 
L 178.675325 600.922741 
L 178.805195 602.166576 
L 178.935065 590.474518 
L 199.844156 590.474518 
L 199.909091 595.201068 
L 199.909091 595.201068 
" clip-path="url(#p360d6a76d5)" style="fill: none; stroke-dasharray: 5.55,2.4; stroke-dashoffset: 0; stroke: #8c564b; stroke-width: 1.5"/>
    <defs>
     <path id="mca1541507c" d="M -0 3 
L 3 -3 
L -3 -3 
z
" style="stroke: #8c564b; stroke-linejoin: miter"/>
    </defs>
    <g clip-path="url(#p360d6a76d5)">
     <use xlink:href="#mca1541507c" x="115.363636" y="552.661887" style="fill: #8c564b; stroke: #8c564b; stroke-linejoin: miter"/>
     <use xlink:href="#mca1541507c" x="150.753247" y="566.281913" style="fill: #8c564b; stroke: #8c564b; stroke-linejoin: miter"/>
     <use xlink:href="#mca1541507c" x="180.493506" y="590.474518" style="fill: #8c564b; stroke: #8c564b; stroke-linejoin: miter"/>
    </g>
   </g>
   <g id="line2d_37">
    <path d="M 115.363636 570.324379 
L 151.532468 570.324379 
L 151.597403 574.055852 
L 151.727273 611.370965 
L 178.675325 611.370965 
L 178.805195 613.858633 
L 178.805195 613.858633 
" clip-path="url(#p360d6a76d5)" style="fill: none; stroke-dasharray: 5.55,2.4; stroke-dashoffset: 0; stroke: #e377c2; stroke-width: 1.5"/>
    <defs>
     <path id="m33bbdf9d77" d="M -1 3 
L 1 3 
L 1 1 
L 3 1 
L 3 -1 
L 1 -1 
L 1 -3 
L -1 -3 
L -1 -1 
L -3 -1 
L -3 1 
L -1 1 
z
" style="stroke: #e377c2; stroke-linejoin: miter"/>
    </defs>
    <g clip-path="url(#p360d6a76d5)">
     <use xlink:href="#m33bbdf9d77" x="115.363636" y="570.324379" style="fill: #e377c2; stroke: #e377c2; stroke-linejoin: miter"/>
     <use xlink:href="#m33bbdf9d77" x="153.090909" y="611.370965" style="fill: #e377c2; stroke: #e377c2; stroke-linejoin: miter"/>
    </g>
   </g>
   <g id="patch_3">
    <path d="M 90 640.8 
L 90 86.4 
" style="fill: none; stroke: #cccccc; stroke-linejoin: miter; stroke-linecap: square"/>
   </g>
   <g id="patch_4">
    <path d="M 648 640.8 
L 648 86.4 
" style="fill: none; stroke: #cccccc; stroke-linejoin: miter; stroke-linecap: square"/>
   </g>
   <g id="patch_5">
    <path d="M 90 640.8 
L 648 640.8 
" style="fill: none; stroke: #cccccc; stroke-linejoin: miter; stroke-linecap: square"/>
   </g>
   <g id="patch_6">
    <path d="M 90 86.4 
L 648 86.4 
" style="fill: none; stroke: #cccccc; stroke-linejoin: miter; stroke-linecap: square"/>
   </g>
   <g id="text_18">
    <!-- Latency v/s rounds in Centralised Learning -->
    <g style="fill: #262626" transform="translate(255.274687 80.4) scale(0.12 -0.12)">
     <defs>
      <path id="LiberationSans-20" transform="scale(0.015625)"/>
      <path id="LiberationSans-76" d="M 1916 0 
L 1250 0 
L 22 3381 
L 622 3381 
L 1366 1181 
Q 1388 1113 1417 1014 
Q 1447 916 1478 809 
Q 1509 703 1536 604 
Q 1563 506 1581 441 
Q 1600 506 1629 604 
Q 1659 703 1690 806 
Q 1722 909 1755 1007 
Q 1788 1106 1813 1175 
L 2581 3381 
L 3178 3381 
L 1916 0 
z
" transform="scale(0.015625)"/>
      <path id="LiberationSans-2f" d="M 0 -63 
L 1284 4638 
L 1778 4638 
L 506 -63 
L 0 -63 
z
" transform="scale(0.015625)"/>
      <path id="LiberationSans-69" d="M 428 4100 
L 428 4638 
L 991 4638 
L 991 4100 
L 428 4100 
z
M 428 0 
L 428 3381 
L 991 3381 
L 991 0 
L 428 0 
z
" transform="scale(0.015625)"/>
      <path id="LiberationSans-43" d="M 2475 3981 
Q 2100 3981 1811 3856 
Q 1522 3731 1326 3500 
Q 1131 3269 1031 2944 
Q 931 2619 931 2222 
Q 931 1825 1039 1495 
Q 1147 1166 1348 928 
Q 1550 691 1842 559 
Q 2134 428 2500 428 
Q 2756 428 2967 495 
Q 3178 563 3348 684 
Q 3519 806 3653 973 
Q 3788 1141 3891 1344 
L 4378 1100 
Q 4259 853 4084 640 
Q 3909 428 3673 272 
Q 3438 116 3139 26 
Q 2841 -63 2472 -63 
Q 1938 -63 1536 107 
Q 1134 278 864 583 
Q 594 888 459 1306 
Q 325 1725 325 2222 
Q 325 2738 467 3153 
Q 609 3569 882 3861 
Q 1156 4153 1556 4311 
Q 1956 4469 2469 4469 
Q 3172 4469 3644 4194 
Q 4116 3919 4338 3378 
L 3772 3191 
Q 3709 3347 3603 3489 
Q 3497 3631 3337 3740 
Q 3178 3850 2964 3915 
Q 2750 3981 2475 3981 
z
" transform="scale(0.015625)"/>
      <path id="LiberationSans-6c" d="M 431 0 
L 431 4638 
L 994 4638 
L 994 0 
L 431 0 
z
" transform="scale(0.015625)"/>
      <path id="LiberationSans-67" d="M 1713 -1328 
Q 1422 -1328 1197 -1268 
Q 972 -1209 812 -1098 
Q 653 -988 553 -834 
Q 453 -681 409 -494 
L 975 -413 
Q 1031 -647 1223 -773 
Q 1416 -900 1728 -900 
Q 1919 -900 2075 -847 
Q 2231 -794 2340 -676 
Q 2450 -559 2509 -371 
Q 2569 -184 2569 84 
L 2569 628 
L 2563 628 
Q 2500 500 2408 383 
Q 2316 266 2183 175 
Q 2050 84 1875 29 
Q 1700 -25 1475 -25 
Q 1153 -25 923 83 
Q 694 191 548 406 
Q 403 622 336 942 
Q 269 1263 269 1684 
Q 269 2091 336 2416 
Q 403 2741 554 2967 
Q 706 3194 948 3314 
Q 1191 3434 1538 3434 
Q 1897 3434 2161 3270 
Q 2425 3106 2569 2803 
L 2575 2803 
Q 2575 2881 2579 2978 
Q 2584 3075 2589 3161 
Q 2594 3247 2600 3309 
Q 2606 3372 2613 3381 
L 3147 3381 
Q 3144 3353 3141 3286 
Q 3138 3219 3134 3125 
Q 3131 3031 3129 2917 
Q 3128 2803 3128 2681 
L 3128 97 
Q 3128 -613 2779 -970 
Q 2431 -1328 1713 -1328 
z
M 2569 1691 
Q 2569 2044 2492 2295 
Q 2416 2547 2291 2706 
Q 2166 2866 2005 2941 
Q 1844 3016 1675 3016 
Q 1459 3016 1304 2941 
Q 1150 2866 1048 2705 
Q 947 2544 898 2292 
Q 850 2041 850 1691 
Q 850 1325 898 1076 
Q 947 828 1047 675 
Q 1147 522 1300 456 
Q 1453 391 1666 391 
Q 1834 391 1995 462 
Q 2156 534 2284 690 
Q 2413 847 2491 1094 
Q 2569 1341 2569 1691 
z
" transform="scale(0.015625)"/>
     </defs>
     <use xlink:href="#LiberationSans-4c"/>
     <use xlink:href="#LiberationSans-61" x="55.615234"/>
     <use xlink:href="#LiberationSans-74" x="111.230469"/>
     <use xlink:href="#LiberationSans-65" x="139.013672"/>
     <use xlink:href="#LiberationSans-6e" x="194.628906"/>
     <use xlink:href="#LiberationSans-63" x="250.244141"/>
     <use xlink:href="#LiberationSans-79" x="300.244141"/>
     <use xlink:href="#LiberationSans-20" x="350.244141"/>
     <use xlink:href="#LiberationSans-76" x="378.027344"/>
     <use xlink:href="#LiberationSans-2f" x="428.027344"/>
     <use xlink:href="#LiberationSans-73" x="455.810547"/>
     <use xlink:href="#LiberationSans-20" x="505.810547"/>
     <use xlink:href="#LiberationSans-72" x="533.59375"/>
     <use xlink:href="#LiberationSans-6f" x="566.894531"/>
     <use xlink:href="#LiberationSans-75" x="622.509766"/>
     <use xlink:href="#LiberationSans-6e" x="678.125"/>
     <use xlink:href="#LiberationSans-64" x="733.740234"/>
     <use xlink:href="#LiberationSans-73" x="789.355469"/>
     <use xlink:href="#LiberationSans-20" x="839.355469"/>
     <use xlink:href="#LiberationSans-69" x="867.138672"/>
     <use xlink:href="#LiberationSans-6e" x="889.355469"/>
     <use xlink:href="#LiberationSans-20" x="944.970703"/>
     <use xlink:href="#LiberationSans-43" x="972.753906"/>
     <use xlink:href="#LiberationSans-65" x="1044.970703"/>
     <use xlink:href="#LiberationSans-6e" x="1100.585938"/>
     <use xlink:href="#LiberationSans-74" x="1156.201172"/>
     <use xlink:href="#LiberationSans-72" x="1183.984375"/>
     <use xlink:href="#LiberationSans-61" x="1217.285156"/>
     <use xlink:href="#LiberationSans-6c" x="1272.900391"/>
     <use xlink:href="#LiberationSans-69" x="1295.117188"/>
     <use xlink:href="#LiberationSans-73" x="1317.333984"/>
     <use xlink:href="#LiberationSans-65" x="1367.333984"/>
     <use xlink:href="#LiberationSans-64" x="1422.949219"/>
     <use xlink:href="#LiberationSans-20" x="1478.564453"/>
     <use xlink:href="#LiberationSans-4c" x="1506.347656"/>
     <use xlink:href="#LiberationSans-65" x="1561.962891"/>
     <use xlink:href="#LiberationSans-61" x="1617.578125"/>
     <use xlink:href="#LiberationSans-72" x="1673.193359"/>
     <use xlink:href="#LiberationSans-6e" x="1706.494141"/>
     <use xlink:href="#LiberationSans-69" x="1762.109375"/>
     <use xlink:href="#LiberationSans-6e" x="1784.326172"/>
     <use xlink:href="#LiberationSans-67" x="1839.941406"/>
    </g>
   </g>
   <g id="legend_1">
    <g id="line2d_38">
     <path d="M 538.457813 99.146875 
L 548.457813 99.146875 
L 558.457813 99.146875 
" style="fill: none; stroke-dasharray: 3.7,1.6; stroke-dashoffset: 0; stroke: #1f77b4"/>
     <g>
      <use xlink:href="#m324d6bf22e" x="548.457813" y="99.146875" style="fill: #1f77b4; stroke: #1f77b4"/>
     </g>
    </g>
    <g id="text_19">
     <!-- gsw -->
     <g style="fill: #262626" transform="translate(566.457813 102.646875) scale(0.1 -0.1)">
      <defs>
       <path id="LiberationSans-77" d="M 3669 0 
L 3016 0 
L 2475 2181 
Q 2450 2266 2423 2391 
Q 2397 2516 2372 2634 
Q 2341 2772 2313 2919 
Q 2284 2778 2253 2641 
Q 2228 2522 2198 2394 
Q 2169 2266 2144 2169 
L 1588 0 
L 938 0 
L -9 3381 
L 547 3381 
L 1119 1084 
Q 1141 1013 1162 908 
Q 1184 803 1206 703 
Q 1228 588 1253 466 
Q 1278 584 1306 697 
Q 1331 794 1356 894 
Q 1381 994 1400 1059 
L 2013 3381 
L 2616 3381 
L 3206 1059 
Q 3228 978 3253 875 
Q 3278 772 3300 681 
Q 3325 575 3350 466 
Q 3375 584 3400 697 
Q 3422 794 3445 898 
Q 3469 1003 3491 1084 
L 4088 3381 
L 4638 3381 
L 3669 0 
z
" transform="scale(0.015625)"/>
      </defs>
      <use xlink:href="#LiberationSans-67"/>
      <use xlink:href="#LiberationSans-73" x="55.615234"/>
      <use xlink:href="#LiberationSans-77" x="105.615234"/>
     </g>
    </g>
    <g id="line2d_39">
     <path d="M 538.457813 113.46875 
L 548.457813 113.46875 
L 558.457813 113.46875 
" style="fill: none; stroke-dasharray: 3.7,1.6; stroke-dashoffset: 0; stroke: #ff7f0e"/>
     <g>
      <use xlink:href="#m1b17381e86" x="548.457813" y="113.46875" style="fill: #ff7f0e; stroke: #ff7f0e; stroke-linejoin: miter"/>
     </g>
    </g>
    <g id="text_20">
     <!-- nsw -->
     <g style="fill: #262626" transform="translate(566.457813 116.96875) scale(0.1 -0.1)">
      <use xlink:href="#LiberationSans-6e"/>
      <use xlink:href="#LiberationSans-73" x="55.615234"/>
      <use xlink:href="#LiberationSans-77" x="105.615234"/>
     </g>
    </g>
    <g id="line2d_40">
     <path d="M 538.457813 127.790625 
L 548.457813 127.790625 
L 558.457813 127.790625 
" style="fill: none; stroke-dasharray: 3.7,1.6; stroke-dashoffset: 0; stroke: #2ca02c"/>
     <g>
      <use xlink:href="#m39e53c4fe5" x="548.457813" y="127.790625" style="fill: #2ca02c; stroke: #2ca02c"/>
     </g>
    </g>
    <g id="text_21">
     <!-- ppo -->
     <g style="fill: #262626" transform="translate(566.457813 131.290625) scale(0.1 -0.1)">
      <defs>
       <path id="LiberationSans-70" d="M 3291 1706 
Q 3291 1322 3228 997 
Q 3166 672 3020 437 
Q 2875 203 2636 70 
Q 2397 -63 2047 -63 
Q 1684 -63 1412 75 
Q 1141 213 997 525 
L 981 525 
Q 984 519 986 469 
Q 988 419 989 344 
Q 991 269 992 176 
Q 994 84 994 -6 
L 994 -1328 
L 431 -1328 
L 431 2691 
Q 431 2813 429 2925 
Q 428 3038 425 3130 
Q 422 3222 419 3287 
Q 416 3353 413 3381 
L 956 3381 
Q 959 3372 964 3315 
Q 969 3259 973 3179 
Q 978 3100 983 3009 
Q 988 2919 988 2838 
L 1000 2838 
Q 1078 3000 1178 3114 
Q 1278 3228 1406 3301 
Q 1534 3375 1692 3408 
Q 1850 3441 2047 3441 
Q 2397 3441 2636 3316 
Q 2875 3191 3020 2964 
Q 3166 2738 3228 2417 
Q 3291 2097 3291 1706 
z
M 2700 1694 
Q 2700 2006 2662 2250 
Q 2625 2494 2533 2662 
Q 2441 2831 2287 2918 
Q 2134 3006 1903 3006 
Q 1716 3006 1550 2953 
Q 1384 2900 1261 2750 
Q 1138 2600 1066 2336 
Q 994 2072 994 1650 
Q 994 1291 1053 1042 
Q 1113 794 1227 641 
Q 1341 488 1509 420 
Q 1678 353 1897 353 
Q 2131 353 2286 443 
Q 2441 534 2533 706 
Q 2625 878 2662 1126 
Q 2700 1375 2700 1694 
z
" transform="scale(0.015625)"/>
      </defs>
      <use xlink:href="#LiberationSans-70"/>
      <use xlink:href="#LiberationSans-70" x="55.615234"/>
      <use xlink:href="#LiberationSans-6f" x="111.230469"/>
     </g>
    </g>
    <g id="line2d_41">
     <path d="M 538.457813 142.1125 
L 548.457813 142.1125 
L 558.457813 142.1125 
" style="fill: none; stroke-dasharray: 3.7,1.6; stroke-dashoffset: 0; stroke: #d62728"/>
     <g>
      <use xlink:href="#ma86f45d03b" x="548.457813" y="142.1125" style="fill: #d62728; stroke: #d62728; stroke-linejoin: miter"/>
     </g>
    </g>
    <g id="text_22">
     <!-- conventional -->
     <g style="fill: #262626" transform="translate(566.457813 145.6125) scale(0.1 -0.1)">
      <use xlink:href="#LiberationSans-63"/>
      <use xlink:href="#LiberationSans-6f" x="50"/>
      <use xlink:href="#LiberationSans-6e" x="105.615234"/>
      <use xlink:href="#LiberationSans-76" x="161.230469"/>
      <use xlink:href="#LiberationSans-65" x="211.230469"/>
      <use xlink:href="#LiberationSans-6e" x="266.845703"/>
      <use xlink:href="#LiberationSans-74" x="322.460938"/>
      <use xlink:href="#LiberationSans-69" x="350.244141"/>
      <use xlink:href="#LiberationSans-6f" x="372.460938"/>
      <use xlink:href="#LiberationSans-6e" x="428.076172"/>
      <use xlink:href="#LiberationSans-61" x="483.691406"/>
      <use xlink:href="#LiberationSans-6c" x="539.306641"/>
     </g>
    </g>
    <g id="line2d_42">
     <path d="M 538.457813 156.434375 
L 548.457813 156.434375 
L 558.457813 156.434375 
" style="fill: none; stroke-dasharray: 3.7,1.6; stroke-dashoffset: 0; stroke: #9467bd"/>
     <g>
      <use xlink:href="#m0894910f86" x="548.457813" y="156.434375" style="fill: #9467bd; stroke: #9467bd; stroke-linejoin: miter"/>
     </g>
    </g>
    <g id="text_23">
     <!-- direct -->
     <g style="fill: #262626" transform="translate(566.457813 159.934375) scale(0.1 -0.1)">
      <use xlink:href="#LiberationSans-64"/>
      <use xlink:href="#LiberationSans-69" x="55.615234"/>
      <use xlink:href="#LiberationSans-72" x="77.832031"/>
      <use xlink:href="#LiberationSans-65" x="111.132812"/>
      <use xlink:href="#LiberationSans-63" x="166.748047"/>
      <use xlink:href="#LiberationSans-74" x="216.748047"/>
     </g>
    </g>
    <g id="line2d_43">
     <path d="M 538.457813 170.75625 
L 548.457813 170.75625 
L 558.457813 170.75625 
" style="fill: none; stroke-dasharray: 5.55,2.4; stroke-dashoffset: 0; stroke: #8c564b; stroke-width: 1.5"/>
     <g>
      <use xlink:href="#mca1541507c" x="548.457813" y="170.75625" style="fill: #8c564b; stroke: #8c564b; stroke-linejoin: miter"/>
     </g>
    </g>
    <g id="text_24">
     <!-- LEACH-avg -->
     <g style="fill: #262626" transform="translate(566.457813 174.25625) scale(0.1 -0.1)">
      <defs>
       <path id="LiberationSans-45" d="M 525 0 
L 525 4403 
L 3866 4403 
L 3866 3916 
L 1122 3916 
L 1122 2503 
L 3678 2503 
L 3678 2022 
L 1122 2022 
L 1122 488 
L 3994 488 
L 3994 0 
L 525 0 
z
" transform="scale(0.015625)"/>
       <path id="LiberationSans-41" d="M 3647 0 
L 3144 1288 
L 1138 1288 
L 631 0 
L 13 0 
L 1809 4403 
L 2488 4403 
L 4256 0 
L 3647 0 
z
M 2400 3206 
Q 2350 3331 2304 3459 
Q 2259 3588 2225 3692 
Q 2191 3797 2167 3867 
Q 2144 3938 2141 3953 
Q 2134 3938 2112 3866 
Q 2091 3794 2055 3687 
Q 2019 3581 1973 3453 
Q 1928 3325 1881 3200 
L 1319 1753 
L 2966 1753 
L 2400 3206 
z
" transform="scale(0.015625)"/>
       <path id="LiberationSans-48" d="M 3503 0 
L 3503 2041 
L 1122 2041 
L 1122 0 
L 525 0 
L 525 4403 
L 1122 4403 
L 1122 2541 
L 3503 2541 
L 3503 4403 
L 4100 4403 
L 4100 0 
L 3503 0 
z
" transform="scale(0.015625)"/>
       <path id="LiberationSans-2d" d="M 284 1450 
L 284 1950 
L 1847 1950 
L 1847 1450 
L 284 1450 
z
" transform="scale(0.015625)"/>
      </defs>
      <use xlink:href="#LiberationSans-4c"/>
      <use xlink:href="#LiberationSans-45" x="55.615234"/>
      <use xlink:href="#LiberationSans-41" x="122.314453"/>
      <use xlink:href="#LiberationSans-43" x="189.013672"/>
      <use xlink:href="#LiberationSans-48" x="261.230469"/>
      <use xlink:href="#LiberationSans-2d" x="333.447266"/>
      <use xlink:href="#LiberationSans-61" x="366.748047"/>
      <use xlink:href="#LiberationSans-76" x="422.363281"/>
      <use xlink:href="#LiberationSans-67" x="472.363281"/>
     </g>
    </g>
    <g id="line2d_44">
     <path d="M 538.457813 185.078125 
L 548.457813 185.078125 
L 558.457813 185.078125 
" style="fill: none; stroke-dasharray: 5.55,2.4; stroke-dashoffset: 0; stroke: #e377c2; stroke-width: 1.5"/>
     <g>
      <use xlink:href="#m33bbdf9d77" x="548.457813" y="185.078125" style="fill: #e377c2; stroke: #e377c2; stroke-linejoin: miter"/>
     </g>
    </g>
    <g id="text_25">
     <!-- LEACH p = 0.35 -->
     <g style="fill: #262626" transform="translate(566.457813 188.578125) scale(0.1 -0.1)">
      <defs>
       <path id="LiberationSans-3d" d="M 313 2675 
L 313 3138 
L 3422 3138 
L 3422 2675 
L 313 2675 
z
M 313 1075 
L 313 1538 
L 3422 1538 
L 3422 1075 
L 313 1075 
z
" transform="scale(0.015625)"/>
       <path id="LiberationSans-2e" d="M 584 0 
L 584 684 
L 1194 684 
L 1194 0 
L 584 0 
z
" transform="scale(0.015625)"/>
      </defs>
      <use xlink:href="#LiberationSans-4c"/>
      <use xlink:href="#LiberationSans-45" x="55.615234"/>
      <use xlink:href="#LiberationSans-41" x="122.314453"/>
      <use xlink:href="#LiberationSans-43" x="189.013672"/>
      <use xlink:href="#LiberationSans-48" x="261.230469"/>
      <use xlink:href="#LiberationSans-20" x="333.447266"/>
      <use xlink:href="#LiberationSans-70" x="361.230469"/>
      <use xlink:href="#LiberationSans-20" x="416.845703"/>
      <use xlink:href="#LiberationSans-3d" x="444.628906"/>
      <use xlink:href="#LiberationSans-20" x="503.027344"/>
      <use xlink:href="#LiberationSans-30" x="530.810547"/>
      <use xlink:href="#LiberationSans-2e" x="586.425781"/>
      <use xlink:href="#LiberationSans-33" x="614.208984"/>
      <use xlink:href="#LiberationSans-35" x="669.824219"/>
     </g>
    </g>
   </g>
  </g>
 </g>
 <defs>
  <clipPath id="p360d6a76d5">
   <rect x="90" y="86.4" width="558" height="554.4"/>
  </clipPath>
 </defs>
</svg>
