<?xml version="1.0" encoding="utf-8" standalone="no"?>
<!DOCTYPE svg PUBLIC "-//W3C//DTD SVG 1.1//EN"
  "http://www.w3.org/Graphics/SVG/1.1/DTD/svg11.dtd">
<svg xmlns:xlink="http://www.w3.org/1999/xlink" width="720pt" height="720pt" viewBox="0 0 720 720" xmlns="http://www.w3.org/2000/svg" version="1.1">
 <metadata>
  <rdf:RDF xmlns:dc="http://purl.org/dc/elements/1.1/" xmlns:cc="http://creativecommons.org/ns#" xmlns:rdf="http://www.w3.org/1999/02/22-rdf-syntax-ns#">
   <cc:Work>
    <dc:type rdf:resource="http://purl.org/dc/dcmitype/StillImage"/>
    <dc:date>2024-03-27T17:41:31.399305</dc:date>
    <dc:format>image/svg+xml</dc:format>
    <dc:creator>
     <cc:Agent>
      <dc:title>Matplotlib v3.8.3, https://matplotlib.org/</dc:title>
     </cc:Agent>
    </dc:creator>
   </cc:Work>
  </rdf:RDF>
 </metadata>
 <defs>
  <style type="text/css">*{stroke-linejoin: round; stroke-linecap: butt}</style>
 </defs>
 <g id="figure_1">
  <g id="patch_1">
   <path d="M 0 720 
L 720 720 
L 720 0 
L 0 0 
z
" style="fill: #ffffff"/>
  </g>
  <g id="axes_1">
   <g id="patch_2">
    <path d="M 90 640.8 
L 648 640.8 
L 648 86.4 
L 90 86.4 
z
" style="fill: #ffffff"/>
   </g>
   <g id="matplotlib.axis_1">
    <g id="xtick_1">
     <g id="line2d_1">
      <path d="M 115.363636 640.8 
L 115.363636 86.4 
" clip-path="url(#p2ba5b86289)" style="fill: none; stroke: #cccccc; stroke-width: 0.8; stroke-linecap: round"/>
     </g>
     <g id="line2d_2"/>
     <g id="text_1">
      <!-- 0 -->
      <g style="fill: #262626" transform="translate(112.583168 651.546875) scale(0.1 -0.1)">
       <defs>
        <path id="LiberationSans-30" d="M 3309 2203 
Q 3309 1569 3189 1136 
Q 3069 703 2861 436 
Q 2653 169 2372 53 
Q 2091 -63 1772 -63 
Q 1450 -63 1172 53 
Q 894 169 689 434 
Q 484 700 367 1133 
Q 250 1566 250 2203 
Q 250 2869 367 3305 
Q 484 3741 690 4000 
Q 897 4259 1178 4364 
Q 1459 4469 1791 4469 
Q 2106 4469 2382 4364 
Q 2659 4259 2865 4000 
Q 3072 3741 3190 3305 
Q 3309 2869 3309 2203 
z
M 2738 2203 
Q 2738 2728 2675 3076 
Q 2613 3425 2491 3633 
Q 2369 3841 2192 3927 
Q 2016 4013 1791 4013 
Q 1553 4013 1372 3925 
Q 1191 3838 1067 3630 
Q 944 3422 881 3073 
Q 819 2725 819 2203 
Q 819 1697 883 1350 
Q 947 1003 1070 792 
Q 1194 581 1372 489 
Q 1550 397 1778 397 
Q 2000 397 2178 489 
Q 2356 581 2479 792 
Q 2603 1003 2670 1350 
Q 2738 1697 2738 2203 
z
" transform="scale(0.015625)"/>
       </defs>
       <use xlink:href="#LiberationSans-30"/>
      </g>
     </g>
    </g>
    <g id="xtick_2">
     <g id="line2d_3">
      <path d="M 178.457259 640.8 
L 178.457259 86.4 
" clip-path="url(#p2ba5b86289)" style="fill: none; stroke: #cccccc; stroke-width: 0.8; stroke-linecap: round"/>
     </g>
     <g id="line2d_4"/>
     <g id="text_2">
      <!-- 25 -->
      <g style="fill: #262626" transform="translate(172.896322 651.546875) scale(0.1 -0.1)">
       <defs>
        <path id="LiberationSans-32" d="M 322 0 
L 322 397 
Q 481 763 711 1042 
Q 941 1322 1194 1548 
Q 1447 1775 1695 1969 
Q 1944 2163 2144 2356 
Q 2344 2550 2467 2762 
Q 2591 2975 2591 3244 
Q 2591 3431 2534 3573 
Q 2478 3716 2372 3812 
Q 2266 3909 2117 3957 
Q 1969 4006 1788 4006 
Q 1619 4006 1470 3959 
Q 1322 3913 1206 3819 
Q 1091 3725 1017 3586 
Q 944 3447 922 3263 
L 347 3316 
Q 375 3553 478 3762 
Q 581 3972 762 4130 
Q 944 4288 1198 4378 
Q 1453 4469 1788 4469 
Q 2116 4469 2372 4391 
Q 2628 4313 2804 4159 
Q 2981 4006 3075 3781 
Q 3169 3556 3169 3263 
Q 3169 3041 3089 2841 
Q 3009 2641 2876 2459 
Q 2744 2278 2569 2109 
Q 2394 1941 2203 1780 
Q 2013 1619 1819 1461 
Q 1625 1303 1454 1143 
Q 1284 984 1150 820 
Q 1016 656 941 478 
L 3238 478 
L 3238 0 
L 322 0 
z
" transform="scale(0.015625)"/>
        <path id="LiberationSans-35" d="M 3291 1434 
Q 3291 1103 3191 828 
Q 3091 553 2894 354 
Q 2697 156 2405 46 
Q 2113 -63 1728 -63 
Q 1381 -63 1123 18 
Q 866 100 687 242 
Q 509 384 404 575 
Q 300 766 256 984 
L 825 1050 
Q 859 925 921 808 
Q 984 691 1092 598 
Q 1200 506 1358 451 
Q 1516 397 1741 397 
Q 1959 397 2137 464 
Q 2316 531 2442 662 
Q 2569 794 2637 984 
Q 2706 1175 2706 1422 
Q 2706 1625 2640 1795 
Q 2575 1966 2453 2089 
Q 2331 2213 2154 2281 
Q 1978 2350 1753 2350 
Q 1613 2350 1494 2325 
Q 1375 2300 1273 2256 
Q 1172 2213 1089 2155 
Q 1006 2097 934 2034 
L 384 2034 
L 531 4403 
L 3034 4403 
L 3034 3925 
L 1044 3925 
L 959 2528 
Q 1109 2644 1334 2726 
Q 1559 2809 1869 2809 
Q 2197 2809 2459 2709 
Q 2722 2609 2906 2426 
Q 3091 2244 3191 1991 
Q 3291 1738 3291 1434 
z
" transform="scale(0.015625)"/>
       </defs>
       <use xlink:href="#LiberationSans-32"/>
       <use xlink:href="#LiberationSans-35" x="55.615234"/>
      </g>
     </g>
    </g>
    <g id="xtick_3">
     <g id="line2d_5">
      <path d="M 241.550882 640.8 
L 241.550882 86.4 
" clip-path="url(#p2ba5b86289)" style="fill: none; stroke: #cccccc; stroke-width: 0.8; stroke-linecap: round"/>
     </g>
     <g id="line2d_6"/>
     <g id="text_3">
      <!-- 50 -->
      <g style="fill: #262626" transform="translate(235.989944 651.546875) scale(0.1 -0.1)">
       <use xlink:href="#LiberationSans-35"/>
       <use xlink:href="#LiberationSans-30" x="55.615234"/>
      </g>
     </g>
    </g>
    <g id="xtick_4">
     <g id="line2d_7">
      <path d="M 304.644505 640.8 
L 304.644505 86.4 
" clip-path="url(#p2ba5b86289)" style="fill: none; stroke: #cccccc; stroke-width: 0.8; stroke-linecap: round"/>
     </g>
     <g id="line2d_8"/>
     <g id="text_4">
      <!-- 75 -->
      <g style="fill: #262626" transform="translate(299.083567 651.546875) scale(0.1 -0.1)">
       <defs>
        <path id="LiberationSans-37" d="M 3238 3947 
Q 2906 3441 2628 2973 
Q 2350 2506 2150 2032 
Q 1950 1559 1839 1061 
Q 1728 563 1728 0 
L 1141 0 
Q 1141 528 1266 1036 
Q 1391 1544 1603 2033 
Q 1816 2522 2097 2994 
Q 2378 3466 2694 3925 
L 328 3925 
L 328 4403 
L 3238 4403 
L 3238 3947 
z
" transform="scale(0.015625)"/>
       </defs>
       <use xlink:href="#LiberationSans-37"/>
       <use xlink:href="#LiberationSans-35" x="55.615234"/>
      </g>
     </g>
    </g>
    <g id="xtick_5">
     <g id="line2d_9">
      <path d="M 367.738128 640.8 
L 367.738128 86.4 
" clip-path="url(#p2ba5b86289)" style="fill: none; stroke: #cccccc; stroke-width: 0.8; stroke-linecap: round"/>
     </g>
     <g id="line2d_10"/>
     <g id="text_5">
      <!-- 100 -->
      <g style="fill: #262626" transform="translate(359.396721 651.546875) scale(0.1 -0.1)">
       <defs>
        <path id="LiberationSans-31" d="M 488 0 
L 488 478 
L 1609 478 
L 1609 3866 
L 616 3156 
L 616 3688 
L 1656 4403 
L 2175 4403 
L 2175 478 
L 3247 478 
L 3247 0 
L 488 0 
z
" transform="scale(0.015625)"/>
       </defs>
       <use xlink:href="#LiberationSans-31"/>
       <use xlink:href="#LiberationSans-30" x="55.615234"/>
       <use xlink:href="#LiberationSans-30" x="111.230469"/>
      </g>
     </g>
    </g>
    <g id="xtick_6">
     <g id="line2d_11">
      <path d="M 430.83175 640.8 
L 430.83175 86.4 
" clip-path="url(#p2ba5b86289)" style="fill: none; stroke: #cccccc; stroke-width: 0.8; stroke-linecap: round"/>
     </g>
     <g id="line2d_12"/>
     <g id="text_6">
      <!-- 125 -->
      <g style="fill: #262626" transform="translate(422.490344 651.546875) scale(0.1 -0.1)">
       <use xlink:href="#LiberationSans-31"/>
       <use xlink:href="#LiberationSans-32" x="55.615234"/>
       <use xlink:href="#LiberationSans-35" x="111.230469"/>
      </g>
     </g>
    </g>
    <g id="xtick_7">
     <g id="line2d_13">
      <path d="M 493.925373 640.8 
L 493.925373 86.4 
" clip-path="url(#p2ba5b86289)" style="fill: none; stroke: #cccccc; stroke-width: 0.8; stroke-linecap: round"/>
     </g>
     <g id="line2d_14"/>
     <g id="text_7">
      <!-- 150 -->
      <g style="fill: #262626" transform="translate(485.583967 651.546875) scale(0.1 -0.1)">
       <use xlink:href="#LiberationSans-31"/>
       <use xlink:href="#LiberationSans-35" x="55.615234"/>
       <use xlink:href="#LiberationSans-30" x="111.230469"/>
      </g>
     </g>
    </g>
    <g id="xtick_8">
     <g id="line2d_15">
      <path d="M 557.018996 640.8 
L 557.018996 86.4 
" clip-path="url(#p2ba5b86289)" style="fill: none; stroke: #cccccc; stroke-width: 0.8; stroke-linecap: round"/>
     </g>
     <g id="line2d_16"/>
     <g id="text_8">
      <!-- 175 -->
      <g style="fill: #262626" transform="translate(548.67759 651.546875) scale(0.1 -0.1)">
       <use xlink:href="#LiberationSans-31"/>
       <use xlink:href="#LiberationSans-37" x="55.615234"/>
       <use xlink:href="#LiberationSans-35" x="111.230469"/>
      </g>
     </g>
    </g>
    <g id="xtick_9">
     <g id="line2d_17">
      <path d="M 620.112619 640.8 
L 620.112619 86.4 
" clip-path="url(#p2ba5b86289)" style="fill: none; stroke: #cccccc; stroke-width: 0.8; stroke-linecap: round"/>
     </g>
     <g id="line2d_18"/>
     <g id="text_9">
      <!-- 200 -->
      <g style="fill: #262626" transform="translate(611.771212 651.546875) scale(0.1 -0.1)">
       <use xlink:href="#LiberationSans-32"/>
       <use xlink:href="#LiberationSans-30" x="55.615234"/>
       <use xlink:href="#LiberationSans-30" x="111.230469"/>
      </g>
     </g>
    </g>
    <g id="text_10">
     <!-- rounds -->
     <g style="fill: #262626" transform="translate(353.713281 664.86875) scale(0.1 -0.1)">
      <defs>
       <path id="LiberationSans-72" d="M 444 0 
L 444 2594 
Q 444 2700 442 2811 
Q 441 2922 437 3025 
Q 434 3128 431 3218 
Q 428 3309 425 3381 
L 956 3381 
Q 959 3309 964 3217 
Q 969 3125 973 3028 
Q 978 2931 979 2842 
Q 981 2753 981 2691 
L 994 2691 
Q 1053 2884 1120 3026 
Q 1188 3169 1278 3261 
Q 1369 3353 1494 3398 
Q 1619 3444 1797 3444 
Q 1866 3444 1928 3433 
Q 1991 3422 2025 3413 
L 2025 2897 
Q 1969 2913 1894 2920 
Q 1819 2928 1725 2928 
Q 1531 2928 1395 2840 
Q 1259 2753 1173 2598 
Q 1088 2444 1047 2230 
Q 1006 2016 1006 1763 
L 1006 0 
L 444 0 
z
" transform="scale(0.015625)"/>
       <path id="LiberationSans-6f" d="M 3291 1694 
Q 3291 806 2900 371 
Q 2509 -63 1766 -63 
Q 1413 -63 1134 43 
Q 856 150 664 369 
Q 472 588 370 917 
Q 269 1247 269 1694 
Q 269 3444 1784 3444 
Q 2178 3444 2464 3334 
Q 2750 3225 2933 3006 
Q 3116 2788 3203 2459 
Q 3291 2131 3291 1694 
z
M 2700 1694 
Q 2700 2088 2639 2344 
Q 2578 2600 2461 2753 
Q 2344 2906 2175 2967 
Q 2006 3028 1794 3028 
Q 1578 3028 1404 2964 
Q 1231 2900 1109 2745 
Q 988 2591 923 2334 
Q 859 2078 859 1694 
Q 859 1300 928 1042 
Q 997 784 1117 631 
Q 1238 478 1402 415 
Q 1566 353 1759 353 
Q 1975 353 2150 414 
Q 2325 475 2447 628 
Q 2569 781 2634 1040 
Q 2700 1300 2700 1694 
z
" transform="scale(0.015625)"/>
       <path id="LiberationSans-75" d="M 981 3381 
L 981 1238 
Q 981 991 1017 825 
Q 1053 659 1134 557 
Q 1216 456 1348 414 
Q 1481 372 1678 372 
Q 1878 372 2039 442 
Q 2200 513 2314 645 
Q 2428 778 2490 973 
Q 2553 1169 2553 1422 
L 2553 3381 
L 3116 3381 
L 3116 722 
Q 3116 616 3117 498 
Q 3119 381 3122 276 
Q 3125 172 3128 97 
Q 3131 22 3134 0 
L 2603 0 
Q 2600 16 2597 84 
Q 2594 153 2589 242 
Q 2584 331 2581 423 
Q 2578 516 2578 578 
L 2569 578 
Q 2488 431 2391 312 
Q 2294 194 2166 111 
Q 2038 28 1872 -17 
Q 1706 -63 1488 -63 
Q 1206 -63 1003 6 
Q 800 75 669 219 
Q 538 363 477 588 
Q 416 813 416 1128 
L 416 3381 
L 981 3381 
z
" transform="scale(0.015625)"/>
       <path id="LiberationSans-6e" d="M 2578 0 
L 2578 2144 
Q 2578 2391 2542 2556 
Q 2506 2722 2425 2823 
Q 2344 2925 2211 2967 
Q 2078 3009 1881 3009 
Q 1681 3009 1520 2939 
Q 1359 2869 1245 2736 
Q 1131 2603 1068 2408 
Q 1006 2213 1006 1959 
L 1006 0 
L 444 0 
L 444 2659 
Q 444 2766 442 2883 
Q 441 3000 437 3104 
Q 434 3209 431 3284 
Q 428 3359 425 3381 
L 956 3381 
Q 959 3366 962 3297 
Q 966 3228 970 3139 
Q 975 3050 978 2958 
Q 981 2866 981 2803 
L 991 2803 
Q 1072 2950 1169 3069 
Q 1266 3188 1394 3270 
Q 1522 3353 1687 3398 
Q 1853 3444 2072 3444 
Q 2353 3444 2556 3375 
Q 2759 3306 2890 3162 
Q 3022 3019 3083 2792 
Q 3144 2566 3144 2253 
L 3144 0 
L 2578 0 
z
" transform="scale(0.015625)"/>
       <path id="LiberationSans-64" d="M 2566 544 
Q 2409 219 2151 78 
Q 1894 -63 1513 -63 
Q 872 -63 570 368 
Q 269 800 269 1675 
Q 269 3444 1513 3444 
Q 1897 3444 2153 3303 
Q 2409 3163 2566 2856 
L 2572 2856 
Q 2572 2888 2570 2955 
Q 2569 3022 2567 3095 
Q 2566 3169 2566 3234 
Q 2566 3300 2566 3328 
L 2566 4638 
L 3128 4638 
L 3128 697 
Q 3128 575 3129 462 
Q 3131 350 3134 256 
Q 3138 163 3141 95 
Q 3144 28 3147 0 
L 2609 0 
Q 2603 31 2598 89 
Q 2594 147 2589 222 
Q 2584 297 2581 380 
Q 2578 463 2578 544 
L 2566 544 
z
M 859 1694 
Q 859 1344 903 1094 
Q 947 844 1044 683 
Q 1141 522 1291 447 
Q 1441 372 1656 372 
Q 1878 372 2048 444 
Q 2219 516 2333 677 
Q 2447 838 2506 1097 
Q 2566 1356 2566 1731 
Q 2566 2091 2506 2339 
Q 2447 2588 2331 2741 
Q 2216 2894 2048 2961 
Q 1881 3028 1663 3028 
Q 1456 3028 1306 2956 
Q 1156 2884 1056 2725 
Q 956 2566 907 2311 
Q 859 2056 859 1694 
z
" transform="scale(0.015625)"/>
       <path id="LiberationSans-73" d="M 2969 934 
Q 2969 697 2876 511 
Q 2784 325 2609 198 
Q 2434 72 2179 4 
Q 1925 -63 1597 -63 
Q 1303 -63 1067 -17 
Q 831 28 653 128 
Q 475 228 354 392 
Q 234 556 178 794 
L 675 891 
Q 747 619 972 492 
Q 1197 366 1597 366 
Q 1778 366 1929 391 
Q 2081 416 2190 477 
Q 2300 538 2361 639 
Q 2422 741 2422 891 
Q 2422 1044 2350 1142 
Q 2278 1241 2150 1306 
Q 2022 1372 1839 1420 
Q 1656 1469 1438 1528 
Q 1234 1581 1034 1647 
Q 834 1713 673 1820 
Q 513 1928 413 2087 
Q 313 2247 313 2488 
Q 313 2950 642 3192 
Q 972 3434 1603 3434 
Q 2163 3434 2492 3237 
Q 2822 3041 2909 2606 
L 2403 2544 
Q 2375 2675 2300 2764 
Q 2225 2853 2119 2908 
Q 2013 2963 1880 2986 
Q 1747 3009 1603 3009 
Q 1222 3009 1040 2893 
Q 859 2778 859 2544 
Q 859 2406 926 2317 
Q 994 2228 1114 2167 
Q 1234 2106 1403 2061 
Q 1572 2016 1775 1966 
Q 1909 1931 2050 1892 
Q 2191 1853 2323 1798 
Q 2456 1744 2573 1670 
Q 2691 1597 2778 1494 
Q 2866 1391 2917 1253 
Q 2969 1116 2969 934 
z
" transform="scale(0.015625)"/>
      </defs>
      <use xlink:href="#LiberationSans-72"/>
      <use xlink:href="#LiberationSans-6f" x="33.300781"/>
      <use xlink:href="#LiberationSans-75" x="88.916016"/>
      <use xlink:href="#LiberationSans-6e" x="144.53125"/>
      <use xlink:href="#LiberationSans-64" x="200.146484"/>
      <use xlink:href="#LiberationSans-73" x="255.761719"/>
     </g>
    </g>
   </g>
   <g id="matplotlib.axis_2">
    <g id="ytick_1">
     <g id="line2d_19">
      <path d="M 90 637.458215 
L 648 637.458215 
" clip-path="url(#p2ba5b86289)" style="fill: none; stroke: #cccccc; stroke-width: 0.8; stroke-linecap: round"/>
     </g>
     <g id="line2d_20"/>
     <g id="text_11">
      <!-- 0.08 -->
      <g style="fill: #262626" transform="translate(67.039062 641.081653) scale(0.1 -0.1)">
       <defs>
        <path id="LiberationSans-2e" d="M 584 0 
L 584 684 
L 1194 684 
L 1194 0 
L 584 0 
z
" transform="scale(0.015625)"/>
        <path id="LiberationSans-38" d="M 3281 1228 
Q 3281 947 3192 711 
Q 3103 475 2920 303 
Q 2738 131 2453 34 
Q 2169 -63 1781 -63 
Q 1394 -63 1111 34 
Q 828 131 642 301 
Q 456 472 367 708 
Q 278 944 278 1222 
Q 278 1463 351 1650 
Q 425 1838 548 1973 
Q 672 2109 830 2192 
Q 988 2275 1156 2303 
L 1156 2316 
Q 972 2359 826 2456 
Q 681 2553 582 2689 
Q 484 2825 432 2990 
Q 381 3156 381 3341 
Q 381 3572 470 3776 
Q 559 3981 734 4136 
Q 909 4291 1168 4380 
Q 1428 4469 1769 4469 
Q 2128 4469 2392 4378 
Q 2656 4288 2829 4133 
Q 3003 3978 3087 3772 
Q 3172 3566 3172 3334 
Q 3172 3153 3120 2987 
Q 3069 2822 2970 2686 
Q 2872 2550 2726 2454 
Q 2581 2359 2391 2322 
L 2391 2309 
Q 2581 2278 2743 2195 
Q 2906 2113 3025 1977 
Q 3144 1841 3212 1653 
Q 3281 1466 3281 1228 
z
M 2588 3303 
Q 2588 3469 2545 3606 
Q 2503 3744 2406 3842 
Q 2309 3941 2153 3995 
Q 1997 4050 1769 4050 
Q 1547 4050 1394 3995 
Q 1241 3941 1142 3842 
Q 1044 3744 1000 3606 
Q 956 3469 956 3303 
Q 956 3172 990 3034 
Q 1025 2897 1115 2784 
Q 1206 2672 1365 2600 
Q 1525 2528 1775 2528 
Q 2041 2528 2202 2600 
Q 2363 2672 2448 2784 
Q 2534 2897 2561 3034 
Q 2588 3172 2588 3303 
z
M 2697 1281 
Q 2697 1441 2653 1589 
Q 2609 1738 2503 1852 
Q 2397 1966 2217 2036 
Q 2038 2106 1769 2106 
Q 1522 2106 1348 2036 
Q 1175 1966 1067 1850 
Q 959 1734 909 1582 
Q 859 1431 859 1269 
Q 859 1066 909 898 
Q 959 731 1068 611 
Q 1178 491 1356 425 
Q 1534 359 1788 359 
Q 2044 359 2219 425 
Q 2394 491 2500 611 
Q 2606 731 2651 901 
Q 2697 1072 2697 1281 
z
" transform="scale(0.015625)"/>
       </defs>
       <use xlink:href="#LiberationSans-30"/>
       <use xlink:href="#LiberationSans-2e" x="55.615234"/>
       <use xlink:href="#LiberationSans-30" x="83.398438"/>
       <use xlink:href="#LiberationSans-38" x="139.013672"/>
      </g>
     </g>
    </g>
    <g id="ytick_2">
     <g id="line2d_21">
      <path d="M 90 553.388157 
L 648 553.388157 
" clip-path="url(#p2ba5b86289)" style="fill: none; stroke: #cccccc; stroke-width: 0.8; stroke-linecap: round"/>
     </g>
     <g id="line2d_22"/>
     <g id="text_12">
      <!-- 0.10 -->
      <g style="fill: #262626" transform="translate(67.039062 557.011594) scale(0.1 -0.1)">
       <use xlink:href="#LiberationSans-30"/>
       <use xlink:href="#LiberationSans-2e" x="55.615234"/>
       <use xlink:href="#LiberationSans-31" x="83.398438"/>
       <use xlink:href="#LiberationSans-30" x="139.013672"/>
      </g>
     </g>
    </g>
    <g id="ytick_3">
     <g id="line2d_23">
      <path d="M 90 469.318098 
L 648 469.318098 
" clip-path="url(#p2ba5b86289)" style="fill: none; stroke: #cccccc; stroke-width: 0.8; stroke-linecap: round"/>
     </g>
     <g id="line2d_24"/>
     <g id="text_13">
      <!-- 0.12 -->
      <g style="fill: #262626" transform="translate(67.039062 472.941536) scale(0.1 -0.1)">
       <use xlink:href="#LiberationSans-30"/>
       <use xlink:href="#LiberationSans-2e" x="55.615234"/>
       <use xlink:href="#LiberationSans-31" x="83.398438"/>
       <use xlink:href="#LiberationSans-32" x="139.013672"/>
      </g>
     </g>
    </g>
    <g id="ytick_4">
     <g id="line2d_25">
      <path d="M 90 385.24804 
L 648 385.24804 
" clip-path="url(#p2ba5b86289)" style="fill: none; stroke: #cccccc; stroke-width: 0.8; stroke-linecap: round"/>
     </g>
     <g id="line2d_26"/>
     <g id="text_14">
      <!-- 0.14 -->
      <g style="fill: #262626" transform="translate(67.039062 388.871478) scale(0.1 -0.1)">
       <defs>
        <path id="LiberationSans-34" d="M 2753 997 
L 2753 0 
L 2222 0 
L 2222 997 
L 147 997 
L 147 1434 
L 2163 4403 
L 2753 4403 
L 2753 1441 
L 3372 1441 
L 3372 997 
L 2753 997 
z
M 2222 3769 
Q 2216 3753 2191 3708 
Q 2166 3663 2134 3606 
Q 2103 3550 2070 3492 
Q 2038 3434 2013 3397 
L 884 1734 
Q 869 1709 839 1668 
Q 809 1628 778 1586 
Q 747 1544 715 1503 
Q 684 1463 666 1441 
L 2222 1441 
L 2222 3769 
z
" transform="scale(0.015625)"/>
       </defs>
       <use xlink:href="#LiberationSans-30"/>
       <use xlink:href="#LiberationSans-2e" x="55.615234"/>
       <use xlink:href="#LiberationSans-31" x="83.398438"/>
       <use xlink:href="#LiberationSans-34" x="139.013672"/>
      </g>
     </g>
    </g>
    <g id="ytick_5">
     <g id="line2d_27">
      <path d="M 90 301.177982 
L 648 301.177982 
" clip-path="url(#p2ba5b86289)" style="fill: none; stroke: #cccccc; stroke-width: 0.8; stroke-linecap: round"/>
     </g>
     <g id="line2d_28"/>
     <g id="text_15">
      <!-- 0.16 -->
      <g style="fill: #262626" transform="translate(67.039062 304.801419) scale(0.1 -0.1)">
       <defs>
        <path id="LiberationSans-36" d="M 3278 1441 
Q 3278 1109 3186 832 
Q 3094 556 2914 357 
Q 2734 159 2468 48 
Q 2203 -63 1856 -63 
Q 1472 -63 1184 84 
Q 897 231 706 507 
Q 516 784 420 1186 
Q 325 1588 325 2100 
Q 325 2688 433 3131 
Q 541 3575 744 3872 
Q 947 4169 1239 4319 
Q 1531 4469 1900 4469 
Q 2125 4469 2322 4422 
Q 2519 4375 2680 4270 
Q 2841 4166 2962 3994 
Q 3084 3822 3156 3572 
L 2619 3475 
Q 2531 3759 2339 3886 
Q 2147 4013 1894 4013 
Q 1663 4013 1475 3903 
Q 1288 3794 1156 3576 
Q 1025 3359 954 3031 
Q 884 2703 884 2266 
Q 1038 2550 1316 2698 
Q 1594 2847 1953 2847 
Q 2253 2847 2497 2750 
Q 2741 2653 2914 2470 
Q 3088 2288 3183 2027 
Q 3278 1766 3278 1441 
z
M 2706 1416 
Q 2706 1644 2650 1828 
Q 2594 2013 2481 2142 
Q 2369 2272 2203 2342 
Q 2038 2413 1819 2413 
Q 1666 2413 1509 2367 
Q 1353 2322 1226 2220 
Q 1100 2119 1020 1953 
Q 941 1788 941 1550 
Q 941 1306 1003 1095 
Q 1066 884 1183 728 
Q 1300 572 1465 481 
Q 1631 391 1838 391 
Q 2041 391 2202 461 
Q 2363 531 2475 664 
Q 2588 797 2647 987 
Q 2706 1178 2706 1416 
z
" transform="scale(0.015625)"/>
       </defs>
       <use xlink:href="#LiberationSans-30"/>
       <use xlink:href="#LiberationSans-2e" x="55.615234"/>
       <use xlink:href="#LiberationSans-31" x="83.398438"/>
       <use xlink:href="#LiberationSans-36" x="139.013672"/>
      </g>
     </g>
    </g>
    <g id="ytick_6">
     <g id="line2d_29">
      <path d="M 90 217.107923 
L 648 217.107923 
" clip-path="url(#p2ba5b86289)" style="fill: none; stroke: #cccccc; stroke-width: 0.8; stroke-linecap: round"/>
     </g>
     <g id="line2d_30"/>
     <g id="text_16">
      <!-- 0.18 -->
      <g style="fill: #262626" transform="translate(67.039062 220.731361) scale(0.1 -0.1)">
       <use xlink:href="#LiberationSans-30"/>
       <use xlink:href="#LiberationSans-2e" x="55.615234"/>
       <use xlink:href="#LiberationSans-31" x="83.398438"/>
       <use xlink:href="#LiberationSans-38" x="139.013672"/>
      </g>
     </g>
    </g>
    <g id="ytick_7">
     <g id="line2d_31">
      <path d="M 90 133.037865 
L 648 133.037865 
" clip-path="url(#p2ba5b86289)" style="fill: none; stroke: #cccccc; stroke-width: 0.8; stroke-linecap: round"/>
     </g>
     <g id="line2d_32"/>
     <g id="text_17">
      <!-- 0.20 -->
      <g style="fill: #262626" transform="translate(67.039062 136.661302) scale(0.1 -0.1)">
       <use xlink:href="#LiberationSans-30"/>
       <use xlink:href="#LiberationSans-2e" x="55.615234"/>
       <use xlink:href="#LiberationSans-32" x="83.398438"/>
       <use xlink:href="#LiberationSans-30" x="139.013672"/>
      </g>
     </g>
    </g>
    <g id="text_18">
     <!-- Small Worldness -->
     <g style="fill: #262626" transform="translate(60.964062 401.021094) rotate(-90) scale(0.1 -0.1)">
      <defs>
       <path id="LiberationSans-53" d="M 3975 1216 
Q 3975 938 3867 703 
Q 3759 469 3534 298 
Q 3309 128 2967 32 
Q 2625 -63 2156 -63 
Q 1334 -63 875 225 
Q 416 513 291 1056 
L 869 1172 
Q 913 1000 1003 859 
Q 1094 719 1248 617 
Q 1403 516 1631 459 
Q 1859 403 2178 403 
Q 2444 403 2666 448 
Q 2888 494 3047 587 
Q 3206 681 3295 829 
Q 3384 978 3384 1184 
Q 3384 1400 3286 1534 
Q 3188 1669 3009 1756 
Q 2831 1844 2584 1903 
Q 2338 1963 2038 2031 
Q 1853 2072 1667 2120 
Q 1481 2169 1311 2236 
Q 1141 2303 991 2393 
Q 841 2484 731 2611 
Q 622 2738 559 2905 
Q 497 3072 497 3291 
Q 497 3603 623 3826 
Q 750 4050 975 4194 
Q 1200 4338 1506 4403 
Q 1813 4469 2169 4469 
Q 2578 4469 2868 4405 
Q 3159 4341 3359 4212 
Q 3559 4084 3679 3895 
Q 3800 3706 3872 3456 
L 3284 3353 
Q 3241 3513 3158 3638 
Q 3075 3763 2940 3847 
Q 2806 3931 2614 3975 
Q 2422 4019 2163 4019 
Q 1856 4019 1648 3964 
Q 1441 3909 1314 3815 
Q 1188 3722 1133 3595 
Q 1078 3469 1078 3322 
Q 1078 3125 1176 2998 
Q 1275 2872 1444 2787 
Q 1613 2703 1834 2647 
Q 2056 2591 2306 2534 
Q 2509 2488 2711 2439 
Q 2913 2391 3097 2323 
Q 3281 2256 3442 2165 
Q 3603 2075 3722 1944 
Q 3841 1813 3908 1634 
Q 3975 1456 3975 1216 
z
" transform="scale(0.015625)"/>
       <path id="LiberationSans-6d" d="M 2400 0 
L 2400 2144 
Q 2400 2391 2369 2556 
Q 2338 2722 2264 2823 
Q 2191 2925 2072 2967 
Q 1953 3009 1781 3009 
Q 1603 3009 1459 2939 
Q 1316 2869 1214 2736 
Q 1113 2603 1058 2408 
Q 1003 2213 1003 1959 
L 1003 0 
L 444 0 
L 444 2659 
Q 444 2766 442 2883 
Q 441 3000 437 3104 
Q 434 3209 431 3284 
Q 428 3359 425 3381 
L 956 3381 
Q 959 3366 962 3297 
Q 966 3228 970 3139 
Q 975 3050 978 2958 
Q 981 2866 981 2803 
L 991 2803 
Q 1066 2950 1153 3069 
Q 1241 3188 1358 3270 
Q 1475 3353 1626 3398 
Q 1778 3444 1978 3444 
Q 2363 3444 2586 3291 
Q 2809 3138 2897 2803 
L 2906 2803 
Q 2981 2950 3075 3069 
Q 3169 3188 3294 3270 
Q 3419 3353 3575 3398 
Q 3731 3444 3931 3444 
Q 4188 3444 4373 3375 
Q 4559 3306 4678 3162 
Q 4797 3019 4853 2792 
Q 4909 2566 4909 2253 
L 4909 0 
L 4353 0 
L 4353 2144 
Q 4353 2391 4322 2556 
Q 4291 2722 4217 2823 
Q 4144 2925 4025 2967 
Q 3906 3009 3734 3009 
Q 3556 3009 3412 2942 
Q 3269 2875 3167 2744 
Q 3066 2613 3011 2416 
Q 2956 2219 2956 1959 
L 2956 0 
L 2400 0 
z
" transform="scale(0.015625)"/>
       <path id="LiberationSans-61" d="M 1294 -63 
Q 784 -63 528 206 
Q 272 475 272 944 
Q 272 1278 398 1492 
Q 525 1706 729 1828 
Q 934 1950 1196 1997 
Q 1459 2044 1731 2050 
L 2491 2063 
L 2491 2247 
Q 2491 2456 2447 2603 
Q 2403 2750 2312 2840 
Q 2222 2931 2086 2973 
Q 1950 3016 1766 3016 
Q 1603 3016 1472 2992 
Q 1341 2969 1244 2908 
Q 1147 2847 1087 2742 
Q 1028 2638 1009 2478 
L 422 2531 
Q 453 2731 540 2898 
Q 628 3066 789 3187 
Q 950 3309 1192 3376 
Q 1434 3444 1778 3444 
Q 2416 3444 2737 3151 
Q 3059 2859 3059 2306 
L 3059 850 
Q 3059 600 3125 473 
Q 3191 347 3375 347 
Q 3422 347 3469 353 
Q 3516 359 3559 369 
L 3559 19 
Q 3453 -6 3348 -18 
Q 3244 -31 3125 -31 
Q 2966 -31 2852 11 
Q 2738 53 2666 139 
Q 2594 225 2556 351 
Q 2519 478 2509 647 
L 2491 647 
Q 2400 484 2292 353 
Q 2184 222 2040 130 
Q 1897 38 1714 -12 
Q 1531 -63 1294 -63 
z
M 1422 359 
Q 1691 359 1892 457 
Q 2094 556 2226 709 
Q 2359 863 2425 1044 
Q 2491 1225 2491 1391 
L 2491 1669 
L 1875 1656 
Q 1669 1653 1483 1626 
Q 1297 1600 1156 1522 
Q 1016 1444 933 1303 
Q 850 1163 850 934 
Q 850 659 998 509 
Q 1147 359 1422 359 
z
" transform="scale(0.015625)"/>
       <path id="LiberationSans-6c" d="M 431 0 
L 431 4638 
L 994 4638 
L 994 0 
L 431 0 
z
" transform="scale(0.015625)"/>
       <path id="LiberationSans-20" transform="scale(0.015625)"/>
       <path id="LiberationSans-57" d="M 4722 0 
L 4009 0 
L 3247 2797 
Q 3213 2916 3173 3078 
Q 3134 3241 3103 3388 
Q 3066 3559 3028 3738 
Q 2988 3556 2950 3384 
Q 2916 3234 2878 3075 
Q 2841 2916 2806 2797 
L 2038 0 
L 1325 0 
L 28 4403 
L 650 4403 
L 1441 1606 
Q 1494 1409 1542 1215 
Q 1591 1022 1625 869 
Q 1666 688 1700 525 
Q 1747 741 1797 950 
Q 1819 1038 1841 1134 
Q 1863 1231 1886 1325 
Q 1909 1419 1932 1505 
Q 1956 1591 1975 1663 
L 2741 4403 
L 3313 4403 
L 4078 1663 
Q 4097 1591 4120 1505 
Q 4144 1419 4167 1326 
Q 4191 1234 4212 1137 
Q 4234 1041 4256 953 
Q 4306 744 4353 525 
Q 4356 525 4381 633 
Q 4406 741 4443 903 
Q 4481 1066 4526 1255 
Q 4572 1444 4619 1606 
L 5397 4403 
L 6019 4403 
L 4722 0 
z
" transform="scale(0.015625)"/>
       <path id="LiberationSans-65" d="M 863 1572 
Q 863 1306 917 1082 
Q 972 859 1086 698 
Q 1200 538 1378 448 
Q 1556 359 1806 359 
Q 2172 359 2392 506 
Q 2613 653 2691 878 
L 3184 738 
Q 3131 597 3036 455 
Q 2941 313 2781 198 
Q 2622 84 2383 10 
Q 2144 -63 1806 -63 
Q 1056 -63 664 384 
Q 272 831 272 1713 
Q 272 2188 390 2517 
Q 509 2847 715 3053 
Q 922 3259 1197 3351 
Q 1472 3444 1784 3444 
Q 2209 3444 2495 3306 
Q 2781 3169 2954 2926 
Q 3128 2684 3201 2356 
Q 3275 2028 3275 1647 
L 3275 1572 
L 863 1572 
z
M 2694 2003 
Q 2647 2538 2422 2783 
Q 2197 3028 1775 3028 
Q 1634 3028 1479 2983 
Q 1325 2938 1194 2822 
Q 1063 2706 972 2507 
Q 881 2309 869 2003 
L 2694 2003 
z
" transform="scale(0.015625)"/>
      </defs>
      <use xlink:href="#LiberationSans-53"/>
      <use xlink:href="#LiberationSans-6d" x="66.699219"/>
      <use xlink:href="#LiberationSans-61" x="150"/>
      <use xlink:href="#LiberationSans-6c" x="205.615234"/>
      <use xlink:href="#LiberationSans-6c" x="227.832031"/>
      <use xlink:href="#LiberationSans-20" x="250.048828"/>
      <use xlink:href="#LiberationSans-57" x="277.832031"/>
      <use xlink:href="#LiberationSans-6f" x="370.466797"/>
      <use xlink:href="#LiberationSans-72" x="426.082031"/>
      <use xlink:href="#LiberationSans-6c" x="459.382812"/>
      <use xlink:href="#LiberationSans-64" x="481.599609"/>
      <use xlink:href="#LiberationSans-6e" x="537.214844"/>
      <use xlink:href="#LiberationSans-65" x="592.830078"/>
      <use xlink:href="#LiberationSans-73" x="648.445312"/>
      <use xlink:href="#LiberationSans-73" x="698.445312"/>
     </g>
    </g>
   </g>
   <g id="line2d_33">
    <path d="M 115.363636 615.6 
L 117.887381 614.338949 
L 120.411126 602.148791 
L 122.934871 569.781818 
L 125.458616 556.750959 
L 127.982361 547.503253 
L 130.506106 517.238032 
L 133.029851 510.512427 
L 135.553596 497.901918 
L 138.077341 495.800167 
L 140.601085 487.813511 
L 143.12483 486.13211 
L 145.648575 479.406505 
L 148.17232 466.795997 
L 150.696065 465.114595 
L 153.21981 462.172143 
L 155.743555 458.388991 
L 158.2673 455.446539 
L 160.791045 442.83603 
L 163.31479 436.530776 
L 165.838535 435.690075 
L 168.36228 427.70342 
L 170.886024 426.022018 
L 173.409769 418.035363 
L 175.933514 408.367306 
L 178.457259 402.902752 
L 180.981004 394.495746 
L 183.504749 389.031193 
L 186.028494 388.610842 
L 188.552239 386.088741 
L 191.075984 379.783486 
L 193.599729 379.363136 
L 196.123474 377.261384 
L 198.647218 373.478232 
L 201.170963 372.637531 
L 203.694708 369.695079 
L 206.218453 367.172977 
L 208.742198 365.491576 
L 211.265943 365.071226 
L 213.789688 358.345621 
L 216.313433 352.040367 
L 218.837178 351.199666 
L 221.360923 350.779316 
L 223.884668 349.938616 
L 226.408412 347.416514 
L 228.932157 346.575813 
L 231.455902 346.155463 
L 236.503392 344.474062 
L 239.027137 344.053711 
L 241.550882 342.792661 
L 244.074627 341.111259 
L 246.598372 338.589158 
L 249.122117 333.544954 
L 254.169607 331.863553 
L 256.693351 331.863553 
L 259.217096 329.761802 
L 261.740841 328.500751 
L 264.264586 324.297248 
L 266.788331 321.775146 
L 269.312076 320.934445 
L 271.835821 316.730942 
L 274.359566 314.629191 
L 276.883311 311.686739 
L 279.407056 310.005338 
L 281.930801 309.584987 
L 289.502035 307.062886 
L 292.02578 305.801835 
L 294.549525 306.222185 
L 297.07327 304.120434 
L 299.597015 303.279733 
L 302.12076 302.018682 
L 304.644505 301.177982 
L 307.16825 298.65588 
L 309.691995 298.23553 
L 312.215739 297.394829 
L 314.739484 291.930275 
L 317.263229 291.089575 
L 319.786974 290.669224 
L 322.310719 289.828524 
L 324.834464 289.408173 
L 327.358209 288.567473 
L 329.881954 287.306422 
L 332.405699 286.465721 
L 334.929444 283.523269 
L 337.453189 282.682569 
L 339.976934 279.319766 
L 342.500678 278.479066 
L 345.024423 276.377314 
L 347.548168 271.333111 
L 350.071913 270.49241 
L 352.595658 262.505755 
L 355.119403 261.665054 
L 357.643148 260.404003 
L 360.166893 257.461551 
L 362.690638 256.620851 
L 365.214383 255.3598 
L 377.833107 251.156297 
L 380.356852 249.895246 
L 385.404342 248.213845 
L 387.928087 246.112093 
L 390.451832 246.532444 
L 392.975577 241.48824 
L 395.499322 238.966138 
L 405.594301 235.603336 
L 408.118046 234.342285 
L 415.689281 231.820183 
L 418.213026 230.559133 
L 420.736771 229.718432 
L 423.260516 228.037031 
L 425.784261 226.77598 
L 428.308005 225.935279 
L 430.83175 224.674229 
L 433.355495 223.833528 
L 435.87924 222.572477 
L 438.402985 220.891076 
L 440.92673 219.630025 
L 443.450475 217.528274 
L 445.97422 216.687573 
L 448.497965 214.165471 
L 456.069199 211.643369 
L 458.592944 210.382319 
L 461.116689 209.541618 
L 466.164179 207.019516 
L 471.211669 205.338115 
L 473.735414 204.077064 
L 476.259159 203.236364 
L 481.306649 200.714262 
L 486.354138 199.032861 
L 488.877883 197.77181 
L 491.401628 192.307256 
L 493.925373 191.046205 
L 496.449118 188.524103 
L 498.972863 188.944454 
L 501.496608 187.683403 
L 504.020353 185.581651 
L 506.544098 184.320601 
L 509.067843 184.320601 
L 511.591588 183.05955 
L 514.115332 182.218849 
L 521.686567 178.435696 
L 524.210312 175.913595 
L 526.734057 175.072894 
L 529.257802 170.028691 
L 531.781547 168.76764 
L 534.305292 167.926939 
L 544.400271 162.882736 
L 546.924016 162.042035 
L 549.447761 160.780984 
L 554.495251 155.736781 
L 557.018996 154.055379 
L 559.542741 153.214679 
L 562.066486 151.953628 
L 564.590231 148.170475 
L 567.113976 146.909425 
L 572.161465 141.865221 
L 579.7327 138.082068 
L 582.256445 135.559967 
L 584.78019 134.298916 
L 587.303935 132.617515 
L 589.82768 131.776814 
L 592.351425 130.095413 
L 594.87517 128.834362 
L 597.398915 127.993661 
L 599.922659 126.31226 
L 602.446404 125.051209 
L 604.970149 122.529108 
L 607.493894 120.847706 
L 610.017639 120.007006 
L 612.541384 118.745955 
L 615.065129 117.064554 
L 617.588874 114.542452 
L 620.112619 112.861051 
L 622.636364 111.6 
L 622.636364 111.6 
" clip-path="url(#p2ba5b86289)" style="fill: none; stroke: #1f77b4; stroke-linecap: round"/>
    <defs>
     <path id="m4fd3849a10" d="M 0 3 
C 0.795609 3 1.55874 2.683901 2.12132 2.12132 
C 2.683901 1.55874 3 0.795609 3 0 
C 3 -0.795609 2.683901 -1.55874 2.12132 -2.12132 
C 1.55874 -2.683901 0.795609 -3 0 -3 
C -0.795609 -3 -1.55874 -2.683901 -2.12132 -2.12132 
C -2.683901 -1.55874 -3 -0.795609 -3 0 
C -3 0.795609 -2.683901 1.55874 -2.12132 2.12132 
C -1.55874 2.683901 -0.795609 3 0 3 
z
" style="stroke: #1f77b4"/>
    </defs>
    <g clip-path="url(#p2ba5b86289)">
     <use xlink:href="#m4fd3849a10" x="115.363636" y="615.6" style="fill: #1f77b4; stroke: #1f77b4"/>
     <use xlink:href="#m4fd3849a10" x="165.838535" y="435.690075" style="fill: #1f77b4; stroke: #1f77b4"/>
     <use xlink:href="#m4fd3849a10" x="216.313433" y="352.040367" style="fill: #1f77b4; stroke: #1f77b4"/>
     <use xlink:href="#m4fd3849a10" x="266.788331" y="321.775146" style="fill: #1f77b4; stroke: #1f77b4"/>
     <use xlink:href="#m4fd3849a10" x="317.263229" y="291.089575" style="fill: #1f77b4; stroke: #1f77b4"/>
     <use xlink:href="#m4fd3849a10" x="367.738128" y="254.519099" style="fill: #1f77b4; stroke: #1f77b4"/>
     <use xlink:href="#m4fd3849a10" x="418.213026" y="230.559133" style="fill: #1f77b4; stroke: #1f77b4"/>
     <use xlink:href="#m4fd3849a10" x="468.687924" y="206.178816" style="fill: #1f77b4; stroke: #1f77b4"/>
     <use xlink:href="#m4fd3849a10" x="519.162822" y="179.696747" style="fill: #1f77b4; stroke: #1f77b4"/>
     <use xlink:href="#m4fd3849a10" x="569.63772" y="144.387323" style="fill: #1f77b4; stroke: #1f77b4"/>
     <use xlink:href="#m4fd3849a10" x="620.112619" y="112.861051" style="fill: #1f77b4; stroke: #1f77b4"/>
    </g>
   </g>
   <g id="line2d_34">
    <path d="M 115.363636 615.6 
L 117.887381 607.192994 
L 120.411126 584.914429 
L 122.934871 579.870225 
L 125.458616 578.609174 
L 127.982361 577.768474 
L 130.506106 573.564971 
L 133.029851 568.941118 
L 135.553596 559.273061 
L 138.077341 559.273061 
L 140.601085 552.547456 
L 143.12483 552.547456 
L 145.648575 549.184654 
L 148.17232 546.662552 
L 150.696065 545.821852 
L 153.21981 541.197998 
L 155.743555 535.733445 
L 158.2673 529.42819 
L 160.791045 525.645038 
L 163.31479 521.021184 
L 165.838535 518.078732 
L 168.36228 514.71593 
L 170.886024 513.454879 
L 175.933514 509.251376 
L 178.457259 509.251376 
L 180.981004 497.901918 
L 183.504749 495.800167 
L 186.028494 491.176314 
L 188.552239 489.915263 
L 191.075984 488.233862 
L 193.599729 483.189658 
L 196.123474 482.769308 
L 198.647218 481.087907 
L 201.170963 480.667556 
L 203.694708 477.725104 
L 206.218453 477.304754 
L 208.742198 476.043703 
L 211.265943 474.362302 
L 213.789688 473.101251 
L 216.313433 472.26055 
L 218.837178 471.8402 
L 223.884668 469.318098 
L 226.408412 464.694245 
L 228.932157 464.273895 
L 231.455902 463.012844 
L 233.979647 462.592494 
L 236.503392 460.911093 
L 239.027137 460.490742 
L 241.550882 459.229691 
L 244.074627 455.026188 
L 249.122117 454.185488 
L 251.645862 454.185488 
L 254.169607 453.344787 
L 256.693351 449.561635 
L 259.217096 448.720934 
L 261.740841 449.141284 
L 264.264586 446.619183 
L 266.788331 446.619183 
L 269.312076 447.039533 
L 271.835821 445.778482 
L 274.359566 441.154629 
L 276.883311 439.473228 
L 279.407056 435.690075 
L 281.930801 434.429024 
L 284.454545 434.849374 
L 286.97829 431.486572 
L 289.502035 430.645872 
L 292.02578 428.54412 
L 294.549525 427.70342 
L 299.597015 427.70342 
L 302.12076 426.862719 
L 304.644505 427.283069 
L 307.16825 425.181318 
L 309.691995 424.760967 
L 312.215739 423.499917 
L 314.739484 423.920267 
L 317.263229 422.659216 
L 319.786974 423.079566 
L 322.310719 421.398165 
L 324.834464 421.398165 
L 329.881954 419.716764 
L 332.405699 419.716764 
L 337.453189 418.035363 
L 339.976934 418.455713 
L 342.500678 417.194662 
L 345.024423 417.615013 
L 347.548168 416.774312 
L 350.071913 417.194662 
L 352.595658 416.353962 
L 355.119403 416.353962 
L 357.643148 415.092911 
L 360.166893 415.933611 
L 362.690638 414.67256 
L 367.738128 415.513261 
L 370.261872 415.092911 
L 372.785617 415.092911 
L 375.309362 415.513261 
L 377.833107 414.67256 
L 380.356852 414.67256 
L 382.880597 414.25221 
L 385.404342 414.67256 
L 387.928087 413.41151 
L 390.451832 412.991159 
L 392.975577 413.41151 
L 395.499322 412.991159 
L 398.023066 411.309758 
L 400.546811 410.889408 
L 403.070556 410.889408 
L 405.594301 410.469058 
L 410.641791 408.787656 
L 413.165536 408.367306 
L 415.689281 408.787656 
L 418.213026 406.265555 
L 420.736771 405.845204 
L 423.260516 406.685905 
L 425.784261 406.265555 
L 428.308005 406.685905 
L 430.83175 405.845204 
L 433.355495 406.685905 
L 435.87924 406.265555 
L 438.402985 405.004504 
L 440.92673 405.004504 
L 443.450475 403.323103 
L 445.97422 402.482402 
L 448.497965 402.902752 
L 451.02171 401.641701 
L 453.545455 401.641701 
L 456.069199 401.221351 
L 458.592944 401.641701 
L 461.116689 400.801001 
L 463.640434 401.641701 
L 466.164179 401.221351 
L 468.687924 399.53995 
L 471.211669 400.380651 
L 473.735414 399.9603 
L 476.259159 398.699249 
L 478.782904 399.1196 
L 481.306649 399.1196 
L 483.830393 398.699249 
L 486.354138 397.438198 
L 488.877883 395.756797 
L 491.401628 396.597498 
L 493.925373 396.177148 
L 496.449118 397.438198 
L 498.972863 396.597498 
L 501.496608 396.597498 
L 504.020353 397.017848 
L 506.544098 396.597498 
L 509.067843 395.756797 
L 511.591588 396.597498 
L 514.115332 396.177148 
L 516.639077 397.017848 
L 519.162822 396.177148 
L 521.686567 394.916097 
L 524.210312 395.756797 
L 526.734057 395.756797 
L 529.257802 396.177148 
L 531.781547 394.916097 
L 534.305292 393.234696 
L 536.829037 392.814345 
L 539.352782 392.814345 
L 541.876526 391.973645 
L 544.400271 392.814345 
L 546.924016 391.553294 
L 549.447761 391.553294 
L 551.971506 392.393995 
L 554.495251 392.393995 
L 557.018996 391.973645 
L 559.542741 392.393995 
L 562.066486 391.553294 
L 564.590231 391.973645 
L 567.113976 390.712594 
L 569.63772 391.553294 
L 572.161465 391.132944 
L 574.68521 391.973645 
L 579.7327 390.292244 
L 582.256445 390.712594 
L 584.78019 390.712594 
L 587.303935 391.553294 
L 589.82768 390.712594 
L 592.351425 391.973645 
L 594.87517 391.553294 
L 597.398915 390.712594 
L 599.922659 391.973645 
L 602.446404 391.553294 
L 604.970149 392.393995 
L 610.017639 391.553294 
L 612.541384 392.393995 
L 615.065129 392.393995 
L 617.588874 393.234696 
L 620.112619 392.814345 
L 622.636364 391.973645 
L 622.636364 391.973645 
" clip-path="url(#p2ba5b86289)" style="fill: none; stroke: #ff7f0e; stroke-linecap: round"/>
    <defs>
     <path id="m51d63cf11f" d="M 0 -3 
L -3 3 
L 3 3 
z
" style="stroke: #ff7f0e; stroke-linejoin: miter"/>
    </defs>
    <g clip-path="url(#p2ba5b86289)">
     <use xlink:href="#m51d63cf11f" x="115.363636" y="615.6" style="fill: #ff7f0e; stroke: #ff7f0e; stroke-linejoin: miter"/>
     <use xlink:href="#m51d63cf11f" x="165.838535" y="518.078732" style="fill: #ff7f0e; stroke: #ff7f0e; stroke-linejoin: miter"/>
     <use xlink:href="#m51d63cf11f" x="216.313433" y="472.26055" style="fill: #ff7f0e; stroke: #ff7f0e; stroke-linejoin: miter"/>
     <use xlink:href="#m51d63cf11f" x="266.788331" y="446.619183" style="fill: #ff7f0e; stroke: #ff7f0e; stroke-linejoin: miter"/>
     <use xlink:href="#m51d63cf11f" x="317.263229" y="422.659216" style="fill: #ff7f0e; stroke: #ff7f0e; stroke-linejoin: miter"/>
     <use xlink:href="#m51d63cf11f" x="367.738128" y="415.513261" style="fill: #ff7f0e; stroke: #ff7f0e; stroke-linejoin: miter"/>
     <use xlink:href="#m51d63cf11f" x="418.213026" y="406.265555" style="fill: #ff7f0e; stroke: #ff7f0e; stroke-linejoin: miter"/>
     <use xlink:href="#m51d63cf11f" x="468.687924" y="399.53995" style="fill: #ff7f0e; stroke: #ff7f0e; stroke-linejoin: miter"/>
     <use xlink:href="#m51d63cf11f" x="519.162822" y="396.177148" style="fill: #ff7f0e; stroke: #ff7f0e; stroke-linejoin: miter"/>
     <use xlink:href="#m51d63cf11f" x="569.63772" y="391.553294" style="fill: #ff7f0e; stroke: #ff7f0e; stroke-linejoin: miter"/>
     <use xlink:href="#m51d63cf11f" x="620.112619" y="392.814345" style="fill: #ff7f0e; stroke: #ff7f0e; stroke-linejoin: miter"/>
    </g>
   </g>
   <g id="line2d_35">
    <path d="M 115.363636 615.6 
L 117.887381 615.17965 
L 120.411126 597.945288 
L 122.934871 578.188824 
L 127.982361 551.706756 
L 130.506106 547.082902 
L 133.029851 541.618349 
L 135.553596 531.109591 
L 138.077341 527.326439 
L 140.601085 526.485738 
L 143.12483 518.078732 
L 145.648575 513.034529 
L 148.17232 501.685071 
L 150.696065 500.84437 
L 153.21981 496.220517 
L 155.743555 495.379817 
L 158.2673 486.13211 
L 160.791045 484.450709 
L 163.31479 483.610008 
L 165.838535 482.348957 
L 170.886024 475.623353 
L 173.409769 471.8402 
L 175.933514 470.9995 
L 178.457259 469.318098 
L 180.981004 468.897748 
L 183.504749 467.216347 
L 186.028494 467.636697 
L 188.552239 466.795997 
L 191.075984 463.853545 
L 193.599729 463.853545 
L 196.123474 462.592494 
L 198.647218 462.592494 
L 201.170963 460.070392 
L 203.694708 458.388991 
L 206.218453 457.12794 
L 208.742198 452.504087 
L 213.789688 444.937781 
L 216.313433 446.198832 
L 218.837178 444.097081 
L 221.360923 444.517431 
L 223.884668 440.734279 
L 228.932157 438.212177 
L 231.455902 437.791827 
L 236.503392 435.269725 
L 239.027137 433.167973 
L 241.550882 431.906922 
L 244.074627 431.066222 
L 246.598372 431.066222 
L 249.122117 430.225521 
L 251.645862 429.805171 
L 254.169607 428.54412 
L 256.693351 426.442369 
L 259.217096 425.601668 
L 261.740841 420.977815 
L 264.264586 419.296414 
L 266.788331 419.716764 
L 269.312076 418.876063 
L 271.835821 418.876063 
L 274.359566 418.035363 
L 276.883311 413.41151 
L 281.930801 410.048707 
L 284.454545 409.628357 
L 286.97829 407.526606 
L 289.502035 407.946956 
L 292.02578 407.106255 
L 294.549525 405.004504 
L 297.07327 402.062052 
L 299.597015 402.062052 
L 302.12076 401.641701 
L 304.644505 401.641701 
L 307.16825 400.380651 
L 309.691995 399.9603 
L 312.215739 398.278899 
L 314.739484 397.858549 
L 317.263229 395.336447 
L 319.786974 394.075396 
L 322.310719 394.495746 
L 324.834464 393.234696 
L 327.358209 392.814345 
L 329.881954 391.132944 
L 332.405699 390.292244 
L 334.929444 390.292244 
L 337.453189 389.451543 
L 339.976934 389.031193 
L 342.500678 389.031193 
L 345.024423 389.871893 
L 347.548168 388.190492 
L 350.071913 387.770142 
L 352.595658 387.770142 
L 355.119403 386.088741 
L 357.643148 386.088741 
L 360.166893 386.929441 
L 362.690638 383.986989 
L 365.214383 384.407339 
L 367.738128 383.986989 
L 370.261872 381.885238 
L 372.785617 381.464887 
L 375.309362 380.624187 
L 377.833107 381.044537 
L 382.880597 381.044537 
L 385.404342 378.522435 
L 387.928087 378.102085 
L 390.451832 378.102085 
L 392.975577 377.261384 
L 395.499322 378.102085 
L 398.023066 377.681735 
L 400.546811 376.841034 
L 403.070556 377.261384 
L 408.118046 378.942786 
L 410.641791 378.942786 
L 413.165536 378.102085 
L 415.689281 377.681735 
L 418.213026 378.102085 
L 420.736771 377.681735 
L 423.260516 377.681735 
L 425.784261 376.841034 
L 428.308005 376.841034 
L 430.83175 377.261384 
L 433.355495 375.579983 
L 435.87924 376.000334 
L 438.402985 375.159633 
L 443.450475 374.318932 
L 445.97422 374.318932 
L 451.02171 373.478232 
L 453.545455 372.217181 
L 456.069199 372.637531 
L 461.116689 370.11543 
L 463.640434 370.95613 
L 466.164179 369.274729 
L 468.687924 369.695079 
L 471.211669 369.274729 
L 473.735414 370.11543 
L 476.259159 370.11543 
L 478.782904 369.274729 
L 481.306649 369.695079 
L 483.830393 369.274729 
L 486.354138 369.695079 
L 488.877883 369.274729 
L 491.401628 366.752627 
L 496.449118 368.434028 
L 498.972863 368.013678 
L 501.496608 368.434028 
L 504.020353 367.593328 
L 506.544098 367.593328 
L 511.591588 366.752627 
L 514.115332 367.172977 
L 516.639077 366.752627 
L 519.162822 367.593328 
L 521.686567 366.752627 
L 524.210312 367.172977 
L 526.734057 366.332277 
L 529.257802 366.332277 
L 531.781547 365.491576 
L 534.305292 365.911927 
L 536.829037 365.071226 
L 539.352782 364.650876 
L 541.876526 364.650876 
L 544.400271 365.491576 
L 546.924016 364.230525 
L 549.447761 363.810175 
L 551.971506 363.810175 
L 557.018996 362.969475 
L 559.542741 363.810175 
L 562.066486 362.969475 
L 567.113976 362.969475 
L 569.63772 363.389825 
L 572.161465 362.969475 
L 574.68521 362.969475 
L 577.208955 362.549124 
L 579.7327 363.389825 
L 582.256445 362.549124 
L 584.78019 363.389825 
L 587.303935 363.810175 
L 589.82768 363.389825 
L 592.351425 363.389825 
L 594.87517 363.810175 
L 597.398915 362.969475 
L 599.922659 363.389825 
L 602.446404 362.549124 
L 604.970149 362.549124 
L 607.493894 362.128774 
L 610.017639 361.288073 
L 612.541384 361.288073 
L 615.065129 361.708424 
L 617.588874 361.288073 
L 620.112619 362.128774 
L 622.636364 361.288073 
L 622.636364 361.288073 
" clip-path="url(#p2ba5b86289)" style="fill: none; stroke: #2ca02c; stroke-linecap: round"/>
    <defs>
     <path id="mf96838958a" d="M -3 3 
L 3 -3 
M -3 -3 
L 3 3 
" style="stroke: #2ca02c"/>
    </defs>
    <g clip-path="url(#p2ba5b86289)">
     <use xlink:href="#mf96838958a" x="115.363636" y="615.6" style="fill: #2ca02c; stroke: #2ca02c"/>
     <use xlink:href="#mf96838958a" x="165.838535" y="482.348957" style="fill: #2ca02c; stroke: #2ca02c"/>
     <use xlink:href="#mf96838958a" x="216.313433" y="446.198832" style="fill: #2ca02c; stroke: #2ca02c"/>
     <use xlink:href="#mf96838958a" x="266.788331" y="419.716764" style="fill: #2ca02c; stroke: #2ca02c"/>
     <use xlink:href="#mf96838958a" x="317.263229" y="395.336447" style="fill: #2ca02c; stroke: #2ca02c"/>
     <use xlink:href="#mf96838958a" x="367.738128" y="383.986989" style="fill: #2ca02c; stroke: #2ca02c"/>
     <use xlink:href="#mf96838958a" x="418.213026" y="378.102085" style="fill: #2ca02c; stroke: #2ca02c"/>
     <use xlink:href="#mf96838958a" x="468.687924" y="369.695079" style="fill: #2ca02c; stroke: #2ca02c"/>
     <use xlink:href="#mf96838958a" x="519.162822" y="367.593328" style="fill: #2ca02c; stroke: #2ca02c"/>
     <use xlink:href="#mf96838958a" x="569.63772" y="363.389825" style="fill: #2ca02c; stroke: #2ca02c"/>
     <use xlink:href="#mf96838958a" x="620.112619" y="362.128774" style="fill: #2ca02c; stroke: #2ca02c"/>
    </g>
   </g>
   <g id="patch_3">
    <path d="M 90 640.8 
L 90 86.4 
" style="fill: none; stroke: #cccccc; stroke-linejoin: miter; stroke-linecap: square"/>
   </g>
   <g id="patch_4">
    <path d="M 648 640.8 
L 648 86.4 
" style="fill: none; stroke: #cccccc; stroke-linejoin: miter; stroke-linecap: square"/>
   </g>
   <g id="patch_5">
    <path d="M 90 640.8 
L 648 640.8 
" style="fill: none; stroke: #cccccc; stroke-linejoin: miter; stroke-linecap: square"/>
   </g>
   <g id="patch_6">
    <path d="M 90 86.4 
L 648 86.4 
" style="fill: none; stroke: #cccccc; stroke-linejoin: miter; stroke-linecap: square"/>
   </g>
   <g id="text_19">
    <!-- Small Worldnes v/s rounds -->
    <g style="fill: #262626" transform="translate(297.75 80.4) scale(0.12 -0.12)">
     <defs>
      <path id="LiberationSans-76" d="M 1916 0 
L 1250 0 
L 22 3381 
L 622 3381 
L 1366 1181 
Q 1388 1113 1417 1014 
Q 1447 916 1478 809 
Q 1509 703 1536 604 
Q 1563 506 1581 441 
Q 1600 506 1629 604 
Q 1659 703 1690 806 
Q 1722 909 1755 1007 
Q 1788 1106 1813 1175 
L 2581 3381 
L 3178 3381 
L 1916 0 
z
" transform="scale(0.015625)"/>
      <path id="LiberationSans-2f" d="M 0 -63 
L 1284 4638 
L 1778 4638 
L 506 -63 
L 0 -63 
z
" transform="scale(0.015625)"/>
     </defs>
     <use xlink:href="#LiberationSans-53"/>
     <use xlink:href="#LiberationSans-6d" x="66.699219"/>
     <use xlink:href="#LiberationSans-61" x="150"/>
     <use xlink:href="#LiberationSans-6c" x="205.615234"/>
     <use xlink:href="#LiberationSans-6c" x="227.832031"/>
     <use xlink:href="#LiberationSans-20" x="250.048828"/>
     <use xlink:href="#LiberationSans-57" x="277.832031"/>
     <use xlink:href="#LiberationSans-6f" x="370.466797"/>
     <use xlink:href="#LiberationSans-72" x="426.082031"/>
     <use xlink:href="#LiberationSans-6c" x="459.382812"/>
     <use xlink:href="#LiberationSans-64" x="481.599609"/>
     <use xlink:href="#LiberationSans-6e" x="537.214844"/>
     <use xlink:href="#LiberationSans-65" x="592.830078"/>
     <use xlink:href="#LiberationSans-73" x="648.445312"/>
     <use xlink:href="#LiberationSans-20" x="698.445312"/>
     <use xlink:href="#LiberationSans-76" x="726.228516"/>
     <use xlink:href="#LiberationSans-2f" x="776.228516"/>
     <use xlink:href="#LiberationSans-73" x="804.011719"/>
     <use xlink:href="#LiberationSans-20" x="854.011719"/>
     <use xlink:href="#LiberationSans-72" x="881.794922"/>
     <use xlink:href="#LiberationSans-6f" x="915.095703"/>
     <use xlink:href="#LiberationSans-75" x="970.710938"/>
     <use xlink:href="#LiberationSans-6e" x="1026.326172"/>
     <use xlink:href="#LiberationSans-64" x="1081.941406"/>
     <use xlink:href="#LiberationSans-73" x="1137.556641"/>
    </g>
   </g>
   <g id="legend_1">
    <g id="line2d_36">
     <path d="M 99 99.146875 
L 109 99.146875 
L 119 99.146875 
" style="fill: none; stroke: #1f77b4; stroke-linecap: round"/>
     <g>
      <use xlink:href="#m4fd3849a10" x="109" y="99.146875" style="fill: #1f77b4; stroke: #1f77b4"/>
     </g>
    </g>
    <g id="text_20">
     <!-- gsw -->
     <g style="fill: #262626" transform="translate(127 102.646875) scale(0.1 -0.1)">
      <defs>
       <path id="LiberationSans-67" d="M 1713 -1328 
Q 1422 -1328 1197 -1268 
Q 972 -1209 812 -1098 
Q 653 -988 553 -834 
Q 453 -681 409 -494 
L 975 -413 
Q 1031 -647 1223 -773 
Q 1416 -900 1728 -900 
Q 1919 -900 2075 -847 
Q 2231 -794 2340 -676 
Q 2450 -559 2509 -371 
Q 2569 -184 2569 84 
L 2569 628 
L 2563 628 
Q 2500 500 2408 383 
Q 2316 266 2183 175 
Q 2050 84 1875 29 
Q 1700 -25 1475 -25 
Q 1153 -25 923 83 
Q 694 191 548 406 
Q 403 622 336 942 
Q 269 1263 269 1684 
Q 269 2091 336 2416 
Q 403 2741 554 2967 
Q 706 3194 948 3314 
Q 1191 3434 1538 3434 
Q 1897 3434 2161 3270 
Q 2425 3106 2569 2803 
L 2575 2803 
Q 2575 2881 2579 2978 
Q 2584 3075 2589 3161 
Q 2594 3247 2600 3309 
Q 2606 3372 2613 3381 
L 3147 3381 
Q 3144 3353 3141 3286 
Q 3138 3219 3134 3125 
Q 3131 3031 3129 2917 
Q 3128 2803 3128 2681 
L 3128 97 
Q 3128 -613 2779 -970 
Q 2431 -1328 1713 -1328 
z
M 2569 1691 
Q 2569 2044 2492 2295 
Q 2416 2547 2291 2706 
Q 2166 2866 2005 2941 
Q 1844 3016 1675 3016 
Q 1459 3016 1304 2941 
Q 1150 2866 1048 2705 
Q 947 2544 898 2292 
Q 850 2041 850 1691 
Q 850 1325 898 1076 
Q 947 828 1047 675 
Q 1147 522 1300 456 
Q 1453 391 1666 391 
Q 1834 391 1995 462 
Q 2156 534 2284 690 
Q 2413 847 2491 1094 
Q 2569 1341 2569 1691 
z
" transform="scale(0.015625)"/>
       <path id="LiberationSans-77" d="M 3669 0 
L 3016 0 
L 2475 2181 
Q 2450 2266 2423 2391 
Q 2397 2516 2372 2634 
Q 2341 2772 2313 2919 
Q 2284 2778 2253 2641 
Q 2228 2522 2198 2394 
Q 2169 2266 2144 2169 
L 1588 0 
L 938 0 
L -9 3381 
L 547 3381 
L 1119 1084 
Q 1141 1013 1162 908 
Q 1184 803 1206 703 
Q 1228 588 1253 466 
Q 1278 584 1306 697 
Q 1331 794 1356 894 
Q 1381 994 1400 1059 
L 2013 3381 
L 2616 3381 
L 3206 1059 
Q 3228 978 3253 875 
Q 3278 772 3300 681 
Q 3325 575 3350 466 
Q 3375 584 3400 697 
Q 3422 794 3445 898 
Q 3469 1003 3491 1084 
L 4088 3381 
L 4638 3381 
L 3669 0 
z
" transform="scale(0.015625)"/>
      </defs>
      <use xlink:href="#LiberationSans-67"/>
      <use xlink:href="#LiberationSans-73" x="55.615234"/>
      <use xlink:href="#LiberationSans-77" x="105.615234"/>
     </g>
    </g>
    <g id="line2d_37">
     <path d="M 99 113.46875 
L 109 113.46875 
L 119 113.46875 
" style="fill: none; stroke: #ff7f0e; stroke-linecap: round"/>
     <g>
      <use xlink:href="#m51d63cf11f" x="109" y="113.46875" style="fill: #ff7f0e; stroke: #ff7f0e; stroke-linejoin: miter"/>
     </g>
    </g>
    <g id="text_21">
     <!-- nsw -->
     <g style="fill: #262626" transform="translate(127 116.96875) scale(0.1 -0.1)">
      <use xlink:href="#LiberationSans-6e"/>
      <use xlink:href="#LiberationSans-73" x="55.615234"/>
      <use xlink:href="#LiberationSans-77" x="105.615234"/>
     </g>
    </g>
    <g id="line2d_38">
     <path d="M 99 127.790625 
L 109 127.790625 
L 119 127.790625 
" style="fill: none; stroke: #2ca02c; stroke-linecap: round"/>
     <g>
      <use xlink:href="#mf96838958a" x="109" y="127.790625" style="fill: #2ca02c; stroke: #2ca02c"/>
     </g>
    </g>
    <g id="text_22">
     <!-- ppo -->
     <g style="fill: #262626" transform="translate(127 131.290625) scale(0.1 -0.1)">
      <defs>
       <path id="LiberationSans-70" d="M 3291 1706 
Q 3291 1322 3228 997 
Q 3166 672 3020 437 
Q 2875 203 2636 70 
Q 2397 -63 2047 -63 
Q 1684 -63 1412 75 
Q 1141 213 997 525 
L 981 525 
Q 984 519 986 469 
Q 988 419 989 344 
Q 991 269 992 176 
Q 994 84 994 -6 
L 994 -1328 
L 431 -1328 
L 431 2691 
Q 431 2813 429 2925 
Q 428 3038 425 3130 
Q 422 3222 419 3287 
Q 416 3353 413 3381 
L 956 3381 
Q 959 3372 964 3315 
Q 969 3259 973 3179 
Q 978 3100 983 3009 
Q 988 2919 988 2838 
L 1000 2838 
Q 1078 3000 1178 3114 
Q 1278 3228 1406 3301 
Q 1534 3375 1692 3408 
Q 1850 3441 2047 3441 
Q 2397 3441 2636 3316 
Q 2875 3191 3020 2964 
Q 3166 2738 3228 2417 
Q 3291 2097 3291 1706 
z
M 2700 1694 
Q 2700 2006 2662 2250 
Q 2625 2494 2533 2662 
Q 2441 2831 2287 2918 
Q 2134 3006 1903 3006 
Q 1716 3006 1550 2953 
Q 1384 2900 1261 2750 
Q 1138 2600 1066 2336 
Q 994 2072 994 1650 
Q 994 1291 1053 1042 
Q 1113 794 1227 641 
Q 1341 488 1509 420 
Q 1678 353 1897 353 
Q 2131 353 2286 443 
Q 2441 534 2533 706 
Q 2625 878 2662 1126 
Q 2700 1375 2700 1694 
z
" transform="scale(0.015625)"/>
      </defs>
      <use xlink:href="#LiberationSans-70"/>
      <use xlink:href="#LiberationSans-70" x="55.615234"/>
      <use xlink:href="#LiberationSans-6f" x="111.230469"/>
     </g>
    </g>
   </g>
  </g>
 </g>
 <defs>
  <clipPath id="p2ba5b86289">
   <rect x="90" y="86.4" width="558" height="554.4"/>
  </clipPath>
 </defs>
</svg>
