<?xml version="1.0" encoding="utf-8" standalone="no"?>
<!DOCTYPE svg PUBLIC "-//W3C//DTD SVG 1.1//EN"
  "http://www.w3.org/Graphics/SVG/1.1/DTD/svg11.dtd">
<svg xmlns:xlink="http://www.w3.org/1999/xlink" width="1296pt" height="1296pt" viewBox="0 0 1296 1296" xmlns="http://www.w3.org/2000/svg" version="1.1">
 <metadata>
  <rdf:RDF xmlns:dc="http://purl.org/dc/elements/1.1/" xmlns:cc="http://creativecommons.org/ns#" xmlns:rdf="http://www.w3.org/1999/02/22-rdf-syntax-ns#">
   <cc:Work>
    <dc:type rdf:resource="http://purl.org/dc/dcmitype/StillImage"/>
    <dc:date>2023-10-17T14:33:52.754711</dc:date>
    <dc:format>image/svg+xml</dc:format>
    <dc:creator>
     <cc:Agent>
      <dc:title>Matplotlib v3.7.1, https://matplotlib.org/</dc:title>
     </cc:Agent>
    </dc:creator>
   </cc:Work>
  </rdf:RDF>
 </metadata>
 <defs>
  <style type="text/css">*{stroke-linejoin: round; stroke-linecap: butt}</style>
 </defs>
 <g id="figure_1">
  <g id="patch_1">
   <path d="M 0 1296 
L 1296 1296 
L 1296 0 
L 0 0 
z
" style="fill: #ffffff"/>
  </g>
  <g id="axes_1">
   <g id="patch_2">
    <path d="M 162 1153.44 
L 1166.4 1153.44 
L 1166.4 155.52 
L 162 155.52 
z
" style="fill: #ffffff"/>
   </g>
   <g id="matplotlib.axis_1">
    <g id="xtick_1">
     <g id="line2d_1">
      <defs>
       <path id="me62ac900e0" d="M 0 0 
L 0 3.5 
" style="stroke: #000000; stroke-width: 0.8"/>
      </defs>
      <g>
       <use xlink:href="#me62ac900e0" x="207.206073" y="1153.44" style="stroke: #000000; stroke-width: 0.8"/>
      </g>
     </g>
     <g id="text_1">
      <!-- 0 -->
      <g transform="translate(204.024823 1168.038438) scale(0.1 -0.1)">
       <defs>
        <path id="DejaVuSans-30" d="M 2034 4250 
Q 1547 4250 1301 3770 
Q 1056 3291 1056 2328 
Q 1056 1369 1301 889 
Q 1547 409 2034 409 
Q 2525 409 2770 889 
Q 3016 1369 3016 2328 
Q 3016 3291 2770 3770 
Q 2525 4250 2034 4250 
z
M 2034 4750 
Q 2819 4750 3233 4129 
Q 3647 3509 3647 2328 
Q 3647 1150 3233 529 
Q 2819 -91 2034 -91 
Q 1250 -91 836 529 
Q 422 1150 422 2328 
Q 422 3509 836 4129 
Q 1250 4750 2034 4750 
z
" transform="scale(0.015625)"/>
       </defs>
       <use xlink:href="#DejaVuSans-30"/>
      </g>
     </g>
    </g>
    <g id="xtick_2">
     <g id="line2d_2">
      <g>
       <use xlink:href="#me62ac900e0" x="319.324308" y="1153.44" style="stroke: #000000; stroke-width: 0.8"/>
      </g>
     </g>
     <g id="text_2">
      <!-- 250 -->
      <g transform="translate(309.780558 1168.038438) scale(0.1 -0.1)">
       <defs>
        <path id="DejaVuSans-32" d="M 1228 531 
L 3431 531 
L 3431 0 
L 469 0 
L 469 531 
Q 828 903 1448 1529 
Q 2069 2156 2228 2338 
Q 2531 2678 2651 2914 
Q 2772 3150 2772 3378 
Q 2772 3750 2511 3984 
Q 2250 4219 1831 4219 
Q 1534 4219 1204 4116 
Q 875 4013 500 3803 
L 500 4441 
Q 881 4594 1212 4672 
Q 1544 4750 1819 4750 
Q 2544 4750 2975 4387 
Q 3406 4025 3406 3419 
Q 3406 3131 3298 2873 
Q 3191 2616 2906 2266 
Q 2828 2175 2409 1742 
Q 1991 1309 1228 531 
z
" transform="scale(0.015625)"/>
        <path id="DejaVuSans-35" d="M 691 4666 
L 3169 4666 
L 3169 4134 
L 1269 4134 
L 1269 2991 
Q 1406 3038 1543 3061 
Q 1681 3084 1819 3084 
Q 2600 3084 3056 2656 
Q 3513 2228 3513 1497 
Q 3513 744 3044 326 
Q 2575 -91 1722 -91 
Q 1428 -91 1123 -41 
Q 819 9 494 109 
L 494 744 
Q 775 591 1075 516 
Q 1375 441 1709 441 
Q 2250 441 2565 725 
Q 2881 1009 2881 1497 
Q 2881 1984 2565 2268 
Q 2250 2553 1709 2553 
Q 1456 2553 1204 2497 
Q 953 2441 691 2322 
L 691 4666 
z
" transform="scale(0.015625)"/>
       </defs>
       <use xlink:href="#DejaVuSans-32"/>
       <use xlink:href="#DejaVuSans-35" x="63.623047"/>
       <use xlink:href="#DejaVuSans-30" x="127.246094"/>
      </g>
     </g>
    </g>
    <g id="xtick_3">
     <g id="line2d_3">
      <g>
       <use xlink:href="#me62ac900e0" x="431.442543" y="1153.44" style="stroke: #000000; stroke-width: 0.8"/>
      </g>
     </g>
     <g id="text_3">
      <!-- 500 -->
      <g transform="translate(421.898793 1168.038438) scale(0.1 -0.1)">
       <use xlink:href="#DejaVuSans-35"/>
       <use xlink:href="#DejaVuSans-30" x="63.623047"/>
       <use xlink:href="#DejaVuSans-30" x="127.246094"/>
      </g>
     </g>
    </g>
    <g id="xtick_4">
     <g id="line2d_4">
      <g>
       <use xlink:href="#me62ac900e0" x="543.560779" y="1153.44" style="stroke: #000000; stroke-width: 0.8"/>
      </g>
     </g>
     <g id="text_4">
      <!-- 750 -->
      <g transform="translate(534.017029 1168.038438) scale(0.1 -0.1)">
       <defs>
        <path id="DejaVuSans-37" d="M 525 4666 
L 3525 4666 
L 3525 4397 
L 1831 0 
L 1172 0 
L 2766 4134 
L 525 4134 
L 525 4666 
z
" transform="scale(0.015625)"/>
       </defs>
       <use xlink:href="#DejaVuSans-37"/>
       <use xlink:href="#DejaVuSans-35" x="63.623047"/>
       <use xlink:href="#DejaVuSans-30" x="127.246094"/>
      </g>
     </g>
    </g>
    <g id="xtick_5">
     <g id="line2d_5">
      <g>
       <use xlink:href="#me62ac900e0" x="655.679014" y="1153.44" style="stroke: #000000; stroke-width: 0.8"/>
      </g>
     </g>
     <g id="text_5">
      <!-- 1000 -->
      <g transform="translate(642.954014 1168.038438) scale(0.1 -0.1)">
       <defs>
        <path id="DejaVuSans-31" d="M 794 531 
L 1825 531 
L 1825 4091 
L 703 3866 
L 703 4441 
L 1819 4666 
L 2450 4666 
L 2450 531 
L 3481 531 
L 3481 0 
L 794 0 
L 794 531 
z
" transform="scale(0.015625)"/>
       </defs>
       <use xlink:href="#DejaVuSans-31"/>
       <use xlink:href="#DejaVuSans-30" x="63.623047"/>
       <use xlink:href="#DejaVuSans-30" x="127.246094"/>
       <use xlink:href="#DejaVuSans-30" x="190.869141"/>
      </g>
     </g>
    </g>
    <g id="xtick_6">
     <g id="line2d_6">
      <g>
       <use xlink:href="#me62ac900e0" x="767.79725" y="1153.44" style="stroke: #000000; stroke-width: 0.8"/>
      </g>
     </g>
     <g id="text_6">
      <!-- 1250 -->
      <g transform="translate(755.07225 1168.038438) scale(0.1 -0.1)">
       <use xlink:href="#DejaVuSans-31"/>
       <use xlink:href="#DejaVuSans-32" x="63.623047"/>
       <use xlink:href="#DejaVuSans-35" x="127.246094"/>
       <use xlink:href="#DejaVuSans-30" x="190.869141"/>
      </g>
     </g>
    </g>
    <g id="xtick_7">
     <g id="line2d_7">
      <g>
       <use xlink:href="#me62ac900e0" x="879.915485" y="1153.44" style="stroke: #000000; stroke-width: 0.8"/>
      </g>
     </g>
     <g id="text_7">
      <!-- 1500 -->
      <g transform="translate(867.190485 1168.038438) scale(0.1 -0.1)">
       <use xlink:href="#DejaVuSans-31"/>
       <use xlink:href="#DejaVuSans-35" x="63.623047"/>
       <use xlink:href="#DejaVuSans-30" x="127.246094"/>
       <use xlink:href="#DejaVuSans-30" x="190.869141"/>
      </g>
     </g>
    </g>
    <g id="xtick_8">
     <g id="line2d_8">
      <g>
       <use xlink:href="#me62ac900e0" x="992.03372" y="1153.44" style="stroke: #000000; stroke-width: 0.8"/>
      </g>
     </g>
     <g id="text_8">
      <!-- 1750 -->
      <g transform="translate(979.30872 1168.038438) scale(0.1 -0.1)">
       <use xlink:href="#DejaVuSans-31"/>
       <use xlink:href="#DejaVuSans-37" x="63.623047"/>
       <use xlink:href="#DejaVuSans-35" x="127.246094"/>
       <use xlink:href="#DejaVuSans-30" x="190.869141"/>
      </g>
     </g>
    </g>
    <g id="xtick_9">
     <g id="line2d_9">
      <g>
       <use xlink:href="#me62ac900e0" x="1104.151956" y="1153.44" style="stroke: #000000; stroke-width: 0.8"/>
      </g>
     </g>
     <g id="text_9">
      <!-- 2000 -->
      <g transform="translate(1091.426956 1168.038438) scale(0.1 -0.1)">
       <use xlink:href="#DejaVuSans-32"/>
       <use xlink:href="#DejaVuSans-30" x="63.623047"/>
       <use xlink:href="#DejaVuSans-30" x="127.246094"/>
       <use xlink:href="#DejaVuSans-30" x="190.869141"/>
      </g>
     </g>
    </g>
    <g id="text_10">
     <!-- lifetime -->
     <g transform="translate(645.289062 1181.716563) scale(0.1 -0.1)">
      <defs>
       <path id="DejaVuSans-6c" d="M 603 4863 
L 1178 4863 
L 1178 0 
L 603 0 
L 603 4863 
z
" transform="scale(0.015625)"/>
       <path id="DejaVuSans-69" d="M 603 3500 
L 1178 3500 
L 1178 0 
L 603 0 
L 603 3500 
z
M 603 4863 
L 1178 4863 
L 1178 4134 
L 603 4134 
L 603 4863 
z
" transform="scale(0.015625)"/>
       <path id="DejaVuSans-66" d="M 2375 4863 
L 2375 4384 
L 1825 4384 
Q 1516 4384 1395 4259 
Q 1275 4134 1275 3809 
L 1275 3500 
L 2222 3500 
L 2222 3053 
L 1275 3053 
L 1275 0 
L 697 0 
L 697 3053 
L 147 3053 
L 147 3500 
L 697 3500 
L 697 3744 
Q 697 4328 969 4595 
Q 1241 4863 1831 4863 
L 2375 4863 
z
" transform="scale(0.015625)"/>
       <path id="DejaVuSans-65" d="M 3597 1894 
L 3597 1613 
L 953 1613 
Q 991 1019 1311 708 
Q 1631 397 2203 397 
Q 2534 397 2845 478 
Q 3156 559 3463 722 
L 3463 178 
Q 3153 47 2828 -22 
Q 2503 -91 2169 -91 
Q 1331 -91 842 396 
Q 353 884 353 1716 
Q 353 2575 817 3079 
Q 1281 3584 2069 3584 
Q 2775 3584 3186 3129 
Q 3597 2675 3597 1894 
z
M 3022 2063 
Q 3016 2534 2758 2815 
Q 2500 3097 2075 3097 
Q 1594 3097 1305 2825 
Q 1016 2553 972 2059 
L 3022 2063 
z
" transform="scale(0.015625)"/>
       <path id="DejaVuSans-74" d="M 1172 4494 
L 1172 3500 
L 2356 3500 
L 2356 3053 
L 1172 3053 
L 1172 1153 
Q 1172 725 1289 603 
Q 1406 481 1766 481 
L 2356 481 
L 2356 0 
L 1766 0 
Q 1100 0 847 248 
Q 594 497 594 1153 
L 594 3053 
L 172 3053 
L 172 3500 
L 594 3500 
L 594 4494 
L 1172 4494 
z
" transform="scale(0.015625)"/>
       <path id="DejaVuSans-6d" d="M 3328 2828 
Q 3544 3216 3844 3400 
Q 4144 3584 4550 3584 
Q 5097 3584 5394 3201 
Q 5691 2819 5691 2113 
L 5691 0 
L 5113 0 
L 5113 2094 
Q 5113 2597 4934 2840 
Q 4756 3084 4391 3084 
Q 3944 3084 3684 2787 
Q 3425 2491 3425 1978 
L 3425 0 
L 2847 0 
L 2847 2094 
Q 2847 2600 2669 2842 
Q 2491 3084 2119 3084 
Q 1678 3084 1418 2786 
Q 1159 2488 1159 1978 
L 1159 0 
L 581 0 
L 581 3500 
L 1159 3500 
L 1159 2956 
Q 1356 3278 1631 3431 
Q 1906 3584 2284 3584 
Q 2666 3584 2933 3390 
Q 3200 3197 3328 2828 
z
" transform="scale(0.015625)"/>
      </defs>
      <use xlink:href="#DejaVuSans-6c"/>
      <use xlink:href="#DejaVuSans-69" x="27.783203"/>
      <use xlink:href="#DejaVuSans-66" x="55.566406"/>
      <use xlink:href="#DejaVuSans-65" x="90.771484"/>
      <use xlink:href="#DejaVuSans-74" x="152.294922"/>
      <use xlink:href="#DejaVuSans-69" x="191.503906"/>
      <use xlink:href="#DejaVuSans-6d" x="219.287109"/>
      <use xlink:href="#DejaVuSans-65" x="316.699219"/>
     </g>
    </g>
   </g>
   <g id="matplotlib.axis_2">
    <g id="ytick_1">
     <g id="line2d_10">
      <defs>
       <path id="me5ecbb6886" d="M 0 0 
L -3.5 0 
" style="stroke: #000000; stroke-width: 0.8"/>
      </defs>
      <g>
       <use xlink:href="#me5ecbb6886" x="162" y="1108.08" style="stroke: #000000; stroke-width: 0.8"/>
      </g>
     </g>
     <g id="text_11">
      <!-- 0.0 -->
      <g transform="translate(139.096875 1111.879219) scale(0.1 -0.1)">
       <defs>
        <path id="DejaVuSans-2e" d="M 684 794 
L 1344 794 
L 1344 0 
L 684 0 
L 684 794 
z
" transform="scale(0.015625)"/>
       </defs>
       <use xlink:href="#DejaVuSans-30"/>
       <use xlink:href="#DejaVuSans-2e" x="63.623047"/>
       <use xlink:href="#DejaVuSans-30" x="95.410156"/>
      </g>
     </g>
    </g>
    <g id="ytick_2">
     <g id="line2d_11">
      <g>
       <use xlink:href="#me5ecbb6886" x="162" y="994.716188" style="stroke: #000000; stroke-width: 0.8"/>
      </g>
     </g>
     <g id="text_12">
      <!-- 0.2 -->
      <g transform="translate(139.096875 998.515407) scale(0.1 -0.1)">
       <use xlink:href="#DejaVuSans-30"/>
       <use xlink:href="#DejaVuSans-2e" x="63.623047"/>
       <use xlink:href="#DejaVuSans-32" x="95.410156"/>
      </g>
     </g>
    </g>
    <g id="ytick_3">
     <g id="line2d_12">
      <g>
       <use xlink:href="#me5ecbb6886" x="162" y="881.352376" style="stroke: #000000; stroke-width: 0.8"/>
      </g>
     </g>
     <g id="text_13">
      <!-- 0.4 -->
      <g transform="translate(139.096875 885.151595) scale(0.1 -0.1)">
       <defs>
        <path id="DejaVuSans-34" d="M 2419 4116 
L 825 1625 
L 2419 1625 
L 2419 4116 
z
M 2253 4666 
L 3047 4666 
L 3047 1625 
L 3713 1625 
L 3713 1100 
L 3047 1100 
L 3047 0 
L 2419 0 
L 2419 1100 
L 313 1100 
L 313 1709 
L 2253 4666 
z
" transform="scale(0.015625)"/>
       </defs>
       <use xlink:href="#DejaVuSans-30"/>
       <use xlink:href="#DejaVuSans-2e" x="63.623047"/>
       <use xlink:href="#DejaVuSans-34" x="95.410156"/>
      </g>
     </g>
    </g>
    <g id="ytick_4">
     <g id="line2d_13">
      <g>
       <use xlink:href="#me5ecbb6886" x="162" y="767.988564" style="stroke: #000000; stroke-width: 0.8"/>
      </g>
     </g>
     <g id="text_14">
      <!-- 0.6 -->
      <g transform="translate(139.096875 771.787783) scale(0.1 -0.1)">
       <defs>
        <path id="DejaVuSans-36" d="M 2113 2584 
Q 1688 2584 1439 2293 
Q 1191 2003 1191 1497 
Q 1191 994 1439 701 
Q 1688 409 2113 409 
Q 2538 409 2786 701 
Q 3034 994 3034 1497 
Q 3034 2003 2786 2293 
Q 2538 2584 2113 2584 
z
M 3366 4563 
L 3366 3988 
Q 3128 4100 2886 4159 
Q 2644 4219 2406 4219 
Q 1781 4219 1451 3797 
Q 1122 3375 1075 2522 
Q 1259 2794 1537 2939 
Q 1816 3084 2150 3084 
Q 2853 3084 3261 2657 
Q 3669 2231 3669 1497 
Q 3669 778 3244 343 
Q 2819 -91 2113 -91 
Q 1303 -91 875 529 
Q 447 1150 447 2328 
Q 447 3434 972 4092 
Q 1497 4750 2381 4750 
Q 2619 4750 2861 4703 
Q 3103 4656 3366 4563 
z
" transform="scale(0.015625)"/>
       </defs>
       <use xlink:href="#DejaVuSans-30"/>
       <use xlink:href="#DejaVuSans-2e" x="63.623047"/>
       <use xlink:href="#DejaVuSans-36" x="95.410156"/>
      </g>
     </g>
    </g>
    <g id="ytick_5">
     <g id="line2d_14">
      <g>
       <use xlink:href="#me5ecbb6886" x="162" y="654.624752" style="stroke: #000000; stroke-width: 0.8"/>
      </g>
     </g>
     <g id="text_15">
      <!-- 0.8 -->
      <g transform="translate(139.096875 658.423971) scale(0.1 -0.1)">
       <defs>
        <path id="DejaVuSans-38" d="M 2034 2216 
Q 1584 2216 1326 1975 
Q 1069 1734 1069 1313 
Q 1069 891 1326 650 
Q 1584 409 2034 409 
Q 2484 409 2743 651 
Q 3003 894 3003 1313 
Q 3003 1734 2745 1975 
Q 2488 2216 2034 2216 
z
M 1403 2484 
Q 997 2584 770 2862 
Q 544 3141 544 3541 
Q 544 4100 942 4425 
Q 1341 4750 2034 4750 
Q 2731 4750 3128 4425 
Q 3525 4100 3525 3541 
Q 3525 3141 3298 2862 
Q 3072 2584 2669 2484 
Q 3125 2378 3379 2068 
Q 3634 1759 3634 1313 
Q 3634 634 3220 271 
Q 2806 -91 2034 -91 
Q 1263 -91 848 271 
Q 434 634 434 1313 
Q 434 1759 690 2068 
Q 947 2378 1403 2484 
z
M 1172 3481 
Q 1172 3119 1398 2916 
Q 1625 2713 2034 2713 
Q 2441 2713 2670 2916 
Q 2900 3119 2900 3481 
Q 2900 3844 2670 4047 
Q 2441 4250 2034 4250 
Q 1625 4250 1398 4047 
Q 1172 3844 1172 3481 
z
" transform="scale(0.015625)"/>
       </defs>
       <use xlink:href="#DejaVuSans-30"/>
       <use xlink:href="#DejaVuSans-2e" x="63.623047"/>
       <use xlink:href="#DejaVuSans-38" x="95.410156"/>
      </g>
     </g>
    </g>
    <g id="ytick_6">
     <g id="line2d_15">
      <g>
       <use xlink:href="#me5ecbb6886" x="162" y="541.26094" style="stroke: #000000; stroke-width: 0.8"/>
      </g>
     </g>
     <g id="text_16">
      <!-- 1.0 -->
      <g transform="translate(139.096875 545.060159) scale(0.1 -0.1)">
       <use xlink:href="#DejaVuSans-31"/>
       <use xlink:href="#DejaVuSans-2e" x="63.623047"/>
       <use xlink:href="#DejaVuSans-30" x="95.410156"/>
      </g>
     </g>
    </g>
    <g id="ytick_7">
     <g id="line2d_16">
      <g>
       <use xlink:href="#me5ecbb6886" x="162" y="427.897128" style="stroke: #000000; stroke-width: 0.8"/>
      </g>
     </g>
     <g id="text_17">
      <!-- 1.2 -->
      <g transform="translate(139.096875 431.696347) scale(0.1 -0.1)">
       <use xlink:href="#DejaVuSans-31"/>
       <use xlink:href="#DejaVuSans-2e" x="63.623047"/>
       <use xlink:href="#DejaVuSans-32" x="95.410156"/>
      </g>
     </g>
    </g>
    <g id="ytick_8">
     <g id="line2d_17">
      <g>
       <use xlink:href="#me5ecbb6886" x="162" y="314.533316" style="stroke: #000000; stroke-width: 0.8"/>
      </g>
     </g>
     <g id="text_18">
      <!-- 1.4 -->
      <g transform="translate(139.096875 318.332535) scale(0.1 -0.1)">
       <use xlink:href="#DejaVuSans-31"/>
       <use xlink:href="#DejaVuSans-2e" x="63.623047"/>
       <use xlink:href="#DejaVuSans-34" x="95.410156"/>
      </g>
     </g>
    </g>
    <g id="ytick_9">
     <g id="line2d_18">
      <g>
       <use xlink:href="#me5ecbb6886" x="162" y="201.169504" style="stroke: #000000; stroke-width: 0.8"/>
      </g>
     </g>
     <g id="text_19">
      <!-- 1.6 -->
      <g transform="translate(139.096875 204.968723) scale(0.1 -0.1)">
       <use xlink:href="#DejaVuSans-31"/>
       <use xlink:href="#DejaVuSans-2e" x="63.623047"/>
       <use xlink:href="#DejaVuSans-36" x="95.410156"/>
      </g>
     </g>
    </g>
    <g id="text_20">
     <!-- seconds -->
     <g transform="translate(133.017188 674.9175) rotate(-90) scale(0.1 -0.1)">
      <defs>
       <path id="DejaVuSans-73" d="M 2834 3397 
L 2834 2853 
Q 2591 2978 2328 3040 
Q 2066 3103 1784 3103 
Q 1356 3103 1142 2972 
Q 928 2841 928 2578 
Q 928 2378 1081 2264 
Q 1234 2150 1697 2047 
L 1894 2003 
Q 2506 1872 2764 1633 
Q 3022 1394 3022 966 
Q 3022 478 2636 193 
Q 2250 -91 1575 -91 
Q 1294 -91 989 -36 
Q 684 19 347 128 
L 347 722 
Q 666 556 975 473 
Q 1284 391 1588 391 
Q 1994 391 2212 530 
Q 2431 669 2431 922 
Q 2431 1156 2273 1281 
Q 2116 1406 1581 1522 
L 1381 1569 
Q 847 1681 609 1914 
Q 372 2147 372 2553 
Q 372 3047 722 3315 
Q 1072 3584 1716 3584 
Q 2034 3584 2315 3537 
Q 2597 3491 2834 3397 
z
" transform="scale(0.015625)"/>
       <path id="DejaVuSans-63" d="M 3122 3366 
L 3122 2828 
Q 2878 2963 2633 3030 
Q 2388 3097 2138 3097 
Q 1578 3097 1268 2742 
Q 959 2388 959 1747 
Q 959 1106 1268 751 
Q 1578 397 2138 397 
Q 2388 397 2633 464 
Q 2878 531 3122 666 
L 3122 134 
Q 2881 22 2623 -34 
Q 2366 -91 2075 -91 
Q 1284 -91 818 406 
Q 353 903 353 1747 
Q 353 2603 823 3093 
Q 1294 3584 2113 3584 
Q 2378 3584 2631 3529 
Q 2884 3475 3122 3366 
z
" transform="scale(0.015625)"/>
       <path id="DejaVuSans-6f" d="M 1959 3097 
Q 1497 3097 1228 2736 
Q 959 2375 959 1747 
Q 959 1119 1226 758 
Q 1494 397 1959 397 
Q 2419 397 2687 759 
Q 2956 1122 2956 1747 
Q 2956 2369 2687 2733 
Q 2419 3097 1959 3097 
z
M 1959 3584 
Q 2709 3584 3137 3096 
Q 3566 2609 3566 1747 
Q 3566 888 3137 398 
Q 2709 -91 1959 -91 
Q 1206 -91 779 398 
Q 353 888 353 1747 
Q 353 2609 779 3096 
Q 1206 3584 1959 3584 
z
" transform="scale(0.015625)"/>
       <path id="DejaVuSans-6e" d="M 3513 2113 
L 3513 0 
L 2938 0 
L 2938 2094 
Q 2938 2591 2744 2837 
Q 2550 3084 2163 3084 
Q 1697 3084 1428 2787 
Q 1159 2491 1159 1978 
L 1159 0 
L 581 0 
L 581 3500 
L 1159 3500 
L 1159 2956 
Q 1366 3272 1645 3428 
Q 1925 3584 2291 3584 
Q 2894 3584 3203 3211 
Q 3513 2838 3513 2113 
z
" transform="scale(0.015625)"/>
       <path id="DejaVuSans-64" d="M 2906 2969 
L 2906 4863 
L 3481 4863 
L 3481 0 
L 2906 0 
L 2906 525 
Q 2725 213 2448 61 
Q 2172 -91 1784 -91 
Q 1150 -91 751 415 
Q 353 922 353 1747 
Q 353 2572 751 3078 
Q 1150 3584 1784 3584 
Q 2172 3584 2448 3432 
Q 2725 3281 2906 2969 
z
M 947 1747 
Q 947 1113 1208 752 
Q 1469 391 1925 391 
Q 2381 391 2643 752 
Q 2906 1113 2906 1747 
Q 2906 2381 2643 2742 
Q 2381 3103 1925 3103 
Q 1469 3103 1208 2742 
Q 947 2381 947 1747 
z
" transform="scale(0.015625)"/>
      </defs>
      <use xlink:href="#DejaVuSans-73"/>
      <use xlink:href="#DejaVuSans-65" x="52.099609"/>
      <use xlink:href="#DejaVuSans-63" x="113.623047"/>
      <use xlink:href="#DejaVuSans-6f" x="168.603516"/>
      <use xlink:href="#DejaVuSans-6e" x="229.785156"/>
      <use xlink:href="#DejaVuSans-64" x="293.164062"/>
      <use xlink:href="#DejaVuSans-73" x="356.640625"/>
     </g>
    </g>
   </g>
   <g id="line2d_19">
    <path d="M 207.654545 200.88 
L 211.242329 200.88 
L 211.690802 205.417069 
L 212.139275 212.2226 
L 212.587748 221.296517 
L 213.484694 234.907202 
L 213.933167 243.980875 
L 214.38164 250.78607 
L 214.830113 259.859608 
L 215.278585 273.469781 
L 215.727058 282.543185 
L 216.624004 307.494798 
L 217.072477 312.031412 
L 217.52095 314.299707 
L 218.417896 332.445968 
L 218.866369 339.250762 
L 219.314842 348.323786 
L 219.763315 361.933272 
L 220.211788 382.347413 
L 220.660261 389.152109 
L 221.557207 418.638955 
L 222.454153 443.589197 
L 222.902625 448.125582 
L 223.351098 454.930147 
L 223.799571 454.930147 
L 224.248044 459.466502 
L 224.696517 473.075517 
L 225.14499 482.148169 
L 225.593463 493.488966 
L 226.041936 495.757117 
L 226.938882 509.365986 
L 227.387355 518.438538 
L 227.835828 534.315472 
L 228.284301 538.851729 
L 228.732774 545.656102 
L 229.181247 554.728576 
L 230.078193 563.801025 
L 230.526665 563.801025 
L 230.975138 572.873433 
L 231.423611 572.873433 
L 231.872084 579.677719 
L 232.320557 581.945811 
L 232.76903 591.018164 
L 233.665976 600.090494 
L 234.114449 602.358571 
L 234.562922 602.358571 
L 235.011395 606.894711 
L 235.459868 613.698913 
L 235.908341 618.235042 
L 236.356814 620.503104 
L 236.805287 627.30728 
L 237.25376 631.84339 
L 238.150705 631.84339 
L 238.599178 634.111436 
L 239.047651 640.915572 
L 239.496124 643.183613 
L 239.944597 643.183613 
L 240.39307 647.719686 
L 241.290016 652.25575 
L 241.738489 656.791808 
L 242.186962 656.791808 
L 242.635435 661.327854 
L 243.083908 661.327854 
L 244.429327 668.131903 
L 244.8778 672.667927 
L 245.326273 672.667927 
L 247.120164 681.739946 
L 247.568637 686.275946 
L 248.465583 686.275946 
L 248.914056 690.811933 
L 249.362529 690.811933 
L 249.811002 693.079922 
L 250.707948 702.15187 
L 251.156421 708.955823 
L 251.604894 708.955823 
L 252.053367 713.491785 
L 252.950313 713.491785 
L 253.398785 718.027734 
L 253.847258 720.295708 
L 254.744204 720.295708 
L 255.192677 722.563677 
L 255.64115 729.367579 
L 256.089623 729.367579 
L 257.435042 736.171466 
L 257.883515 736.171466 
L 259.228934 749.779203 
L 260.12588 754.315109 
L 261.471298 754.315109 
L 262.368244 758.851 
L 263.26519 758.851 
L 263.713663 763.386881 
L 264.162136 765.65482 
L 264.610609 770.190697 
L 265.059082 776.994508 
L 266.404501 776.994508 
L 266.852974 779.26244 
L 267.301447 783.798302 
L 268.198393 783.798302 
L 268.646866 786.066229 
L 271.786176 786.066229 
L 272.234649 788.334147 
L 274.028541 788.334147 
L 274.925487 792.86997 
L 277.167851 792.86997 
L 277.616324 797.40578 
L 278.51327 797.40578 
L 279.410216 801.941584 
L 279.858689 801.941584 
L 280.307162 804.209483 
L 281.204108 804.209483 
L 281.652581 806.47738 
L 285.688837 806.47738 
L 286.13731 808.745267 
L 288.379675 808.745267 
L 289.276621 813.281031 
L 289.725094 817.816792 
L 290.173567 817.816792 
L 291.518986 824.620427 
L 292.864404 824.620427 
L 293.312877 826.888301 
L 293.76135 831.424048 
L 296.452188 831.424048 
L 297.349134 835.959783 
L 297.797607 835.959783 
L 298.24608 838.227649 
L 298.694553 838.227649 
L 299.143026 840.495514 
L 302.282336 840.495514 
L 302.730809 842.763372 
L 303.627755 842.763372 
L 304.076228 845.031229 
L 308.112484 845.031229 
L 308.560957 847.29908 
L 309.457903 847.29908 
L 309.906376 851.834777 
L 312.597214 851.834777 
L 313.045687 854.102621 
L 314.839578 854.102621 
L 315.288051 856.370463 
L 316.63347 856.370463 
L 317.081943 858.638301 
L 318.875835 858.638301 
L 319.324308 860.906137 
L 322.015146 860.906137 
L 322.463619 867.709634 
L 326.051402 867.709634 
L 326.499875 869.977461 
L 328.293767 869.977461 
L 328.74224 872.245285 
L 329.190713 872.245285 
L 329.639186 874.513109 
L 331.433077 874.513109 
L 332.330023 879.048751 
L 332.778496 879.048751 
L 333.226969 881.316571 
L 336.36628 881.316571 
L 337.263226 885.852202 
L 341.299482 885.852202 
L 341.747955 888.120013 
L 346.681157 888.120013 
L 347.12963 890.387819 
L 350.717414 890.387819 
L 351.165887 892.655621 
L 352.062833 892.655621 
L 352.959779 897.191222 
L 354.75367 897.191222 
L 355.650616 901.726818 
L 361.032291 901.726818 
L 361.480764 903.99461 
L 367.310913 903.99461 
L 367.759386 906.262398 
L 370.00175 906.262398 
L 370.450223 908.530183 
L 374.48648 908.530183 
L 374.934953 910.797966 
L 380.316628 910.797966 
L 380.765101 913.065743 
L 388.837614 913.065743 
L 389.286087 915.333515 
L 391.079979 915.333515 
L 391.528452 917.601286 
L 409.018896 917.601286 
L 409.467369 919.869045 
L 414.400572 919.869045 
L 414.849044 922.136801 
L 429.200179 922.136801 
L 429.648652 924.404548 
L 430.99407 924.404548 
L 431.442543 926.672295 
L 436.375746 926.672295 
L 436.824219 928.940039 
L 437.721164 928.940039 
L 438.169637 931.207782 
L 439.515056 931.207782 
L 439.963529 933.475524 
L 446.24215 933.475524 
L 446.690623 935.743263 
L 451.175353 935.743263 
L 451.623826 938.011 
L 457.902447 938.011 
L 458.35092 940.278733 
L 462.387176 940.278733 
L 462.835649 942.546464 
L 465.526487 942.546464 
L 465.97496 944.814194 
L 476.289837 944.814194 
L 476.73831 947.08192 
L 490.192499 947.08192 
L 490.640972 949.34964 
L 501.852795 949.34964 
L 502.301268 951.617355 
L 506.337525 951.617355 
L 506.785997 953.885069 
L 517.549348 953.885069 
L 517.997821 956.152778 
L 523.827969 956.152778 
L 524.276442 958.420486 
L 524.724915 958.420486 
L 525.173388 960.688193 
L 531.900482 960.688193 
L 532.348955 962.955898 
L 538.627576 962.955898 
L 539.076049 967.491303 
L 558.360386 967.491303 
L 558.808859 969.759 
L 571.366101 969.759 
L 571.814574 972.026692 
L 575.850831 972.026692 
L 576.299303 974.294384 
L 586.614181 974.294384 
L 587.062654 976.562072 
L 592.892802 976.562072 
L 593.341275 978.829759 
L 690.211431 978.829759 
L 690.659904 981.097423 
L 699.180889 981.097423 
L 699.629362 983.365085 
L 700.077835 983.365085 
L 700.526308 985.632748 
L 728.331631 985.632748 
L 728.780104 987.900404 
L 745.373602 987.900404 
L 745.822075 990.168058 
L 746.719021 990.168058 
L 747.167494 992.435712 
L 751.203751 992.435712 
L 751.652224 994.703364 
L 804.123558 994.703364 
L 804.572031 996.971009 
L 815.783854 996.971009 
L 816.232327 999.238651 
L 818.923165 999.238651 
L 819.371638 1001.506293 
L 826.995678 1001.506293 
L 827.444151 1003.773933 
L 882.15785 1003.773933 
L 882.606323 1006.041566 
L 900.096767 1006.041566 
L 900.54524 1008.309197 
L 925.659725 1008.309197 
L 926.108198 1010.576824 
L 961.986033 1010.576824 
L 962.434506 1012.844447 
L 974.543276 1012.844447 
L 974.991749 1015.112069 
L 993.827612 1015.112069 
L 994.276085 1017.379688 
L 994.724558 1108.08 
L 1120.745455 1108.08 
L 1120.745455 1108.08 
" clip-path="url(#pcbab663718)" style="fill: none; stroke: #1f77b4; stroke-linecap: square"/>
   </g>
   <g id="line2d_20">
    <path d="M 207.654545 200.880633 
L 210.793856 200.880633 
L 211.242329 203.149226 
L 211.690802 207.686325 
L 212.139275 209.954824 
L 213.484694 237.176379 
L 213.933167 243.981647 
L 214.38164 253.055224 
L 214.830113 268.933882 
L 215.278585 278.007331 
L 215.727058 282.544042 
L 216.624004 296.154011 
L 217.072477 300.690626 
L 218.417896 339.251498 
L 219.314842 348.324537 
L 219.763315 357.397531 
L 220.211788 361.934005 
L 220.660261 380.079852 
L 221.108734 391.420967 
L 221.557207 411.834904 
L 222.00568 418.639529 
L 222.454153 427.712338 
L 223.351098 454.930634 
L 223.799571 464.003365 
L 224.248044 466.271539 
L 224.696517 475.34422 
L 225.14499 477.612385 
L 225.593463 493.489491 
L 226.041936 500.29395 
L 226.490409 502.562096 
L 226.938882 511.634665 
L 227.387355 525.243492 
L 228.284301 543.388534 
L 228.732774 550.192907 
L 229.181247 559.265387 
L 229.62972 561.5335 
L 230.078193 572.874054 
L 230.526665 572.874054 
L 230.975138 575.142157 
L 231.423611 579.678356 
L 233.217503 588.750712 
L 233.665976 588.750712 
L 234.114449 591.018789 
L 235.011395 600.091075 
L 235.459868 600.091075 
L 235.908341 602.359139 
L 236.356814 606.895263 
L 236.805287 618.235553 
L 237.25376 620.503609 
L 237.702233 625.039714 
L 238.150705 627.307763 
L 238.599178 634.111905 
L 239.047651 643.184081 
L 239.944597 647.720161 
L 240.39307 654.524271 
L 241.738489 661.328365 
L 242.635435 670.400461 
L 244.8778 670.400461 
L 246.223218 677.204483 
L 246.671691 681.740491 
L 247.120164 681.740491 
L 248.914056 690.812479 
L 249.362529 690.812479 
L 249.811002 695.348459 
L 250.259475 695.348459 
L 250.707948 699.884431 
L 251.604894 704.420399 
L 252.053367 708.956362 
L 252.50184 708.956362 
L 252.950313 711.224339 
L 253.398785 715.760289 
L 253.847258 718.028263 
L 255.192677 718.028263 
L 255.64115 727.100132 
L 256.089623 731.636063 
L 256.986569 731.636063 
L 257.883515 736.171983 
L 258.331988 740.707898 
L 260.574353 740.707898 
L 261.022826 745.243798 
L 261.471298 747.511745 
L 261.919771 747.511745 
L 262.368244 752.047636 
L 264.162136 752.047636 
L 264.610609 756.583512 
L 265.059082 758.851449 
L 265.956028 758.851449 
L 267.74992 767.923175 
L 269.095338 767.923175 
L 269.543811 772.459025 
L 269.992284 774.726948 
L 270.88923 774.726948 
L 271.337703 776.994868 
L 271.786176 776.994868 
L 273.131595 783.798619 
L 274.028541 783.798619 
L 275.37396 790.602353 
L 275.822433 790.602353 
L 276.270906 792.870261 
L 276.719378 792.870261 
L 277.616324 801.941885 
L 278.064797 804.209789 
L 278.961743 804.209789 
L 279.410216 808.745591 
L 280.307162 808.745591 
L 280.755635 811.01349 
L 282.101054 811.01349 
L 282.549527 813.281384 
L 283.446473 813.281384 
L 283.894946 815.549276 
L 284.343418 815.549276 
L 284.791891 822.352946 
L 285.240364 824.620835 
L 287.034256 824.620835 
L 287.482729 829.156605 
L 287.931202 831.424489 
L 288.379675 831.424489 
L 288.828148 833.692371 
L 293.76135 833.692371 
L 294.209823 835.960244 
L 295.106769 835.960244 
L 295.555242 838.228114 
L 297.349134 838.228114 
L 297.797607 840.49598 
L 298.24608 840.49598 
L 298.694553 842.763846 
L 299.591498 842.763846 
L 300.039971 849.567435 
L 306.318593 849.567435 
L 306.767066 851.835287 
L 309.00943 851.835287 
L 309.457903 854.103136 
L 315.288051 854.103136 
L 316.184997 858.638817 
L 318.875835 858.638817 
L 319.324308 860.906652 
L 321.566673 860.906652 
L 322.015146 863.174485 
L 325.602929 863.174485 
L 326.051402 865.442313 
L 329.190713 865.442313 
L 329.639186 867.710136 
L 332.330023 867.710136 
L 332.778496 869.977957 
L 334.123915 869.977957 
L 334.572388 874.513593 
L 340.402536 874.513593 
L 340.851009 876.781405 
L 341.747955 876.781405 
L 342.196428 879.049215 
L 343.093374 879.049215 
L 343.99032 883.584833 
L 349.820468 883.584833 
L 350.268941 885.852636 
L 356.099089 885.852636 
L 356.547562 888.120433 
L 361.032291 888.120433 
L 361.480764 890.388225 
L 362.826183 890.388225 
L 363.723129 894.923808 
L 365.068548 894.923808 
L 365.517021 897.191597 
L 366.413967 897.191597 
L 366.86244 899.459386 
L 373.141061 899.459386 
L 373.589534 901.727169 
L 375.831899 901.727169 
L 376.280371 903.99495 
L 385.24983 903.99495 
L 385.698303 906.262724 
L 393.322343 906.262724 
L 394.219289 910.798262 
L 398.704019 910.798262 
L 399.152492 913.066027 
L 403.188748 913.066027 
L 403.637221 915.33379 
L 406.328059 915.33379 
L 406.776532 917.60155 
L 410.812788 917.60155 
L 411.709734 922.137066 
L 412.60668 922.137066 
L 413.055153 924.404823 
L 415.74599 924.404823 
L 416.194463 926.672578 
L 423.818503 926.672578 
L 424.715449 931.208079 
L 437.272692 931.208079 
L 437.721164 933.475822 
L 448.036042 933.475822 
L 448.484515 935.74356 
L 452.969245 935.74356 
L 453.417717 938.011296 
L 454.763136 938.011296 
L 455.211609 940.279031 
L 459.247866 940.279031 
L 459.696339 942.546763 
L 461.041757 942.546763 
L 461.49023 944.814496 
L 470.459689 944.814496 
L 470.908162 947.082223 
L 475.392892 947.082223 
L 476.289837 951.617675 
L 479.877621 951.617675 
L 480.326094 953.885399 
L 485.259296 953.885399 
L 485.707769 956.15312 
L 498.713485 956.15312 
L 499.161957 958.420837 
L 532.348955 958.420837 
L 532.797428 960.688542 
L 536.385212 960.688542 
L 536.833685 962.956245 
L 537.282158 962.956245 
L 537.73063 965.223948 
L 541.318414 965.223948 
L 541.766887 967.49165 
L 549.8394 967.49165 
L 550.287873 969.759349 
L 581.232506 969.759349 
L 581.680979 972.027039 
L 588.856546 972.027039 
L 589.305019 974.294727 
L 590.201965 974.294727 
L 590.650438 976.562414 
L 599.171423 976.562414 
L 599.619896 978.830099 
L 620.249652 978.830099 
L 620.698125 981.097779 
L 666.442365 981.097779 
L 666.890838 983.365448 
L 727.434685 983.365448 
L 727.883158 985.633105 
L 729.228577 985.633105 
L 729.677049 987.900761 
L 731.470941 987.900761 
L 731.919414 990.168418 
L 744.476657 990.168418 
L 744.925129 994.703726 
L 760.621682 994.703726 
L 761.070155 996.971377 
L 788.427005 996.971377 
L 788.875478 999.239023 
L 817.129273 999.239023 
L 817.577746 1001.506665 
L 913.102483 1001.506665 
L 913.550956 1003.774294 
L 916.241793 1003.774294 
L 916.690266 1006.041923 
L 933.283765 1006.041923 
L 933.732238 1008.309549 
L 966.919236 1008.309549 
L 967.367709 1010.577172 
L 1024.323772 1010.577172 
L 1024.772245 1012.844788 
L 1058.407716 1012.844788 
L 1058.856189 1015.1124 
L 1120.296982 1015.1124 
L 1120.745455 1017.380007 
L 1120.745455 1017.380007 
" clip-path="url(#pcbab663718)" style="fill: none; stroke: #ff7f0e; stroke-linecap: square"/>
   </g>
   <g id="line2d_21">
    <path d="M 207.654545 200.880633 
L 210.793856 200.880633 
L 211.242329 203.149226 
L 211.690802 207.686325 
L 212.139275 209.954824 
L 213.484694 237.176379 
L 213.933167 243.981647 
L 214.38164 253.055224 
L 214.830113 268.933882 
L 215.278585 278.007331 
L 215.727058 282.544042 
L 216.624004 296.154011 
L 217.072477 300.690626 
L 218.417896 339.251498 
L 219.314842 348.324537 
L 219.763315 357.397531 
L 220.211788 361.934005 
L 220.660261 380.079852 
L 221.108734 391.420967 
L 221.557207 411.834904 
L 222.00568 418.639529 
L 222.454153 427.712338 
L 223.351098 454.930634 
L 223.799571 464.003365 
L 224.248044 466.271539 
L 224.696517 475.34422 
L 225.14499 477.612385 
L 225.593463 493.489491 
L 226.041936 500.29395 
L 226.490409 502.562096 
L 226.938882 511.634665 
L 227.387355 525.243492 
L 228.284301 543.388534 
L 228.732774 550.192907 
L 229.181247 559.265387 
L 229.62972 561.5335 
L 230.078193 572.874054 
L 230.526665 572.874054 
L 230.975138 575.142157 
L 231.423611 579.678356 
L 233.217503 588.750712 
L 233.665976 588.750712 
L 234.114449 591.018789 
L 235.011395 600.091075 
L 235.459868 600.091075 
L 235.908341 602.359139 
L 236.356814 606.895263 
L 236.805287 618.235553 
L 237.25376 620.503609 
L 237.702233 625.039714 
L 238.150705 627.307763 
L 238.599178 634.111905 
L 239.047651 643.184081 
L 239.944597 647.720161 
L 240.39307 654.524271 
L 241.738489 661.328365 
L 242.635435 670.400461 
L 244.8778 670.400461 
L 246.223218 677.204483 
L 246.671691 681.740491 
L 247.120164 681.740491 
L 248.914056 690.812479 
L 249.362529 690.812479 
L 249.811002 695.348459 
L 250.259475 695.348459 
L 250.707948 699.884431 
L 251.604894 704.420399 
L 252.053367 708.956362 
L 252.50184 708.956362 
L 252.950313 711.224339 
L 253.398785 715.760289 
L 253.847258 718.028263 
L 255.192677 718.028263 
L 255.64115 727.100132 
L 256.089623 731.636063 
L 256.986569 731.636063 
L 257.883515 736.171983 
L 258.331988 740.707898 
L 260.574353 740.707898 
L 261.022826 745.243798 
L 261.471298 747.511745 
L 261.919771 747.511745 
L 262.368244 752.047636 
L 264.162136 752.047636 
L 264.610609 756.583512 
L 265.059082 758.851449 
L 265.956028 758.851449 
L 267.74992 767.923175 
L 269.095338 767.923175 
L 269.543811 772.459025 
L 269.992284 774.726948 
L 270.88923 774.726948 
L 271.337703 776.994868 
L 271.786176 776.994868 
L 273.131595 783.798619 
L 274.028541 783.798619 
L 275.37396 790.602353 
L 275.822433 790.602353 
L 276.270906 792.870261 
L 276.719378 792.870261 
L 277.616324 801.941885 
L 278.064797 804.209789 
L 278.961743 804.209789 
L 279.410216 808.745591 
L 280.307162 808.745591 
L 280.755635 811.01349 
L 282.101054 811.01349 
L 282.549527 813.281384 
L 283.446473 813.281384 
L 283.894946 815.549276 
L 284.343418 815.549276 
L 284.791891 822.352946 
L 285.240364 824.620835 
L 287.034256 824.620835 
L 287.482729 829.156605 
L 287.931202 831.424489 
L 288.379675 831.424489 
L 288.828148 833.692371 
L 293.76135 833.692371 
L 294.209823 835.960244 
L 295.106769 835.960244 
L 295.555242 838.228114 
L 297.349134 838.228114 
L 297.797607 840.49598 
L 298.24608 840.49598 
L 298.694553 842.763846 
L 299.591498 842.763846 
L 300.039971 849.567435 
L 306.318593 849.567435 
L 306.767066 851.835287 
L 309.00943 851.835287 
L 309.457903 854.103136 
L 315.288051 854.103136 
L 316.184997 858.638817 
L 318.875835 858.638817 
L 319.324308 860.906652 
L 321.566673 860.906652 
L 322.015146 863.174485 
L 325.602929 863.174485 
L 326.051402 865.442313 
L 329.190713 865.442313 
L 329.639186 867.710136 
L 332.330023 867.710136 
L 332.778496 869.977957 
L 334.123915 869.977957 
L 334.572388 874.513593 
L 340.402536 874.513593 
L 340.851009 876.781405 
L 341.747955 876.781405 
L 342.196428 879.049215 
L 343.093374 879.049215 
L 343.99032 883.584833 
L 349.820468 883.584833 
L 350.268941 885.852636 
L 356.099089 885.852636 
L 356.547562 888.120433 
L 361.032291 888.120433 
L 361.480764 890.388225 
L 362.826183 890.388225 
L 363.723129 894.923808 
L 365.068548 894.923808 
L 365.517021 897.191597 
L 366.413967 897.191597 
L 366.86244 899.459386 
L 373.141061 899.459386 
L 373.589534 901.727169 
L 375.831899 901.727169 
L 376.280371 903.99495 
L 385.24983 903.99495 
L 385.698303 906.262724 
L 393.322343 906.262724 
L 394.219289 910.798262 
L 398.704019 910.798262 
L 399.152492 913.066027 
L 403.188748 913.066027 
L 403.637221 915.33379 
L 406.328059 915.33379 
L 406.776532 917.60155 
L 410.812788 917.60155 
L 411.709734 922.137066 
L 412.60668 922.137066 
L 413.055153 924.404823 
L 415.74599 924.404823 
L 416.194463 926.672578 
L 423.818503 926.672578 
L 424.715449 931.208079 
L 437.272692 931.208079 
L 437.721164 933.475822 
L 448.036042 933.475822 
L 448.484515 935.74356 
L 452.969245 935.74356 
L 453.417717 938.011296 
L 454.763136 938.011296 
L 455.211609 940.279031 
L 459.247866 940.279031 
L 459.696339 942.546763 
L 461.041757 942.546763 
L 461.49023 944.814496 
L 470.459689 944.814496 
L 470.908162 947.082223 
L 475.392892 947.082223 
L 476.289837 951.617675 
L 479.877621 951.617675 
L 480.326094 953.885399 
L 485.259296 953.885399 
L 485.707769 956.15312 
L 498.713485 956.15312 
L 499.161957 958.420837 
L 532.348955 958.420837 
L 532.797428 960.688542 
L 536.385212 960.688542 
L 536.833685 962.956245 
L 537.282158 962.956245 
L 537.73063 965.223948 
L 541.318414 965.223948 
L 541.766887 967.49165 
L 549.8394 967.49165 
L 550.287873 969.759349 
L 581.232506 969.759349 
L 581.680979 972.027039 
L 588.856546 972.027039 
L 589.305019 974.294727 
L 590.201965 974.294727 
L 590.650438 976.562414 
L 599.171423 976.562414 
L 599.619896 978.830099 
L 620.249652 978.830099 
L 620.698125 981.097779 
L 666.442365 981.097779 
L 666.890838 983.365448 
L 727.434685 983.365448 
L 727.883158 985.633105 
L 729.228577 985.633105 
L 729.677049 987.900761 
L 731.470941 987.900761 
L 731.919414 990.168418 
L 744.476657 990.168418 
L 744.925129 994.703726 
L 760.621682 994.703726 
L 761.070155 996.971377 
L 788.427005 996.971377 
L 788.875478 999.239023 
L 817.129273 999.239023 
L 817.577746 1001.506665 
L 913.102483 1001.506665 
L 913.550956 1003.774294 
L 916.241793 1003.774294 
L 916.690266 1006.041923 
L 933.283765 1006.041923 
L 933.732238 1008.309549 
L 966.919236 1008.309549 
L 967.367709 1010.577172 
L 1024.323772 1010.577172 
L 1024.772245 1012.844788 
L 1058.407716 1012.844788 
L 1058.856189 1015.1124 
L 1120.296982 1015.1124 
L 1120.745455 1017.380007 
L 1120.745455 1017.380007 
" clip-path="url(#pcbab663718)" style="fill: none; stroke-dasharray: 6.4,1.6,1,1.6; stroke-dashoffset: 0; stroke: #2ca02c"/>
   </g>
   <g id="patch_3">
    <path d="M 162 1153.44 
L 162 155.52 
" style="fill: none; stroke: #000000; stroke-width: 0.8; stroke-linejoin: miter; stroke-linecap: square"/>
   </g>
   <g id="patch_4">
    <path d="M 1166.4 1153.44 
L 1166.4 155.52 
" style="fill: none; stroke: #000000; stroke-width: 0.8; stroke-linejoin: miter; stroke-linecap: square"/>
   </g>
   <g id="patch_5">
    <path d="M 162 1153.44 
L 1166.4 1153.44 
" style="fill: none; stroke: #000000; stroke-width: 0.8; stroke-linejoin: miter; stroke-linecap: square"/>
   </g>
   <g id="patch_6">
    <path d="M 162 155.52 
L 1166.4 155.52 
" style="fill: none; stroke: #000000; stroke-width: 0.8; stroke-linejoin: miter; stroke-linecap: square"/>
   </g>
   <g id="legend_1">
    <g id="patch_7">
     <path d="M 1076.39375 207.554375 
L 1159.4 207.554375 
Q 1161.4 207.554375 1161.4 205.554375 
L 1161.4 162.52 
Q 1161.4 160.52 1159.4 160.52 
L 1076.39375 160.52 
Q 1074.39375 160.52 1074.39375 162.52 
L 1074.39375 205.554375 
Q 1074.39375 207.554375 1076.39375 207.554375 
z
" style="fill: #ffffff; opacity: 0.8; stroke: #cccccc; stroke-linejoin: miter"/>
    </g>
    <g id="line2d_22">
     <path d="M 1078.39375 168.618438 
L 1088.39375 168.618438 
L 1098.39375 168.618438 
" style="fill: none; stroke: #1f77b4; stroke-linecap: square"/>
    </g>
    <g id="text_21">
     <!-- default -->
     <g transform="translate(1106.39375 172.118438) scale(0.1 -0.1)">
      <defs>
       <path id="DejaVuSans-61" d="M 2194 1759 
Q 1497 1759 1228 1600 
Q 959 1441 959 1056 
Q 959 750 1161 570 
Q 1363 391 1709 391 
Q 2188 391 2477 730 
Q 2766 1069 2766 1631 
L 2766 1759 
L 2194 1759 
z
M 3341 1997 
L 3341 0 
L 2766 0 
L 2766 531 
Q 2569 213 2275 61 
Q 1981 -91 1556 -91 
Q 1019 -91 701 211 
Q 384 513 384 1019 
Q 384 1609 779 1909 
Q 1175 2209 1959 2209 
L 2766 2209 
L 2766 2266 
Q 2766 2663 2505 2880 
Q 2244 3097 1772 3097 
Q 1472 3097 1187 3025 
Q 903 2953 641 2809 
L 641 3341 
Q 956 3463 1253 3523 
Q 1550 3584 1831 3584 
Q 2591 3584 2966 3190 
Q 3341 2797 3341 1997 
z
" transform="scale(0.015625)"/>
       <path id="DejaVuSans-75" d="M 544 1381 
L 544 3500 
L 1119 3500 
L 1119 1403 
Q 1119 906 1312 657 
Q 1506 409 1894 409 
Q 2359 409 2629 706 
Q 2900 1003 2900 1516 
L 2900 3500 
L 3475 3500 
L 3475 0 
L 2900 0 
L 2900 538 
Q 2691 219 2414 64 
Q 2138 -91 1772 -91 
Q 1169 -91 856 284 
Q 544 659 544 1381 
z
M 1991 3584 
L 1991 3584 
z
" transform="scale(0.015625)"/>
      </defs>
      <use xlink:href="#DejaVuSans-64"/>
      <use xlink:href="#DejaVuSans-65" x="63.476562"/>
      <use xlink:href="#DejaVuSans-66" x="125"/>
      <use xlink:href="#DejaVuSans-61" x="160.205078"/>
      <use xlink:href="#DejaVuSans-75" x="221.484375"/>
      <use xlink:href="#DejaVuSans-6c" x="284.863281"/>
      <use xlink:href="#DejaVuSans-74" x="312.646484"/>
     </g>
    </g>
    <g id="line2d_23">
     <path d="M 1078.39375 183.296562 
L 1088.39375 183.296562 
L 1098.39375 183.296562 
" style="fill: none; stroke: #ff7f0e; stroke-linecap: square"/>
    </g>
    <g id="text_22">
     <!-- serverless -->
     <g transform="translate(1106.39375 186.796562) scale(0.1 -0.1)">
      <defs>
       <path id="DejaVuSans-72" d="M 2631 2963 
Q 2534 3019 2420 3045 
Q 2306 3072 2169 3072 
Q 1681 3072 1420 2755 
Q 1159 2438 1159 1844 
L 1159 0 
L 581 0 
L 581 3500 
L 1159 3500 
L 1159 2956 
Q 1341 3275 1631 3429 
Q 1922 3584 2338 3584 
Q 2397 3584 2469 3576 
Q 2541 3569 2628 3553 
L 2631 2963 
z
" transform="scale(0.015625)"/>
       <path id="DejaVuSans-76" d="M 191 3500 
L 800 3500 
L 1894 563 
L 2988 3500 
L 3597 3500 
L 2284 0 
L 1503 0 
L 191 3500 
z
" transform="scale(0.015625)"/>
      </defs>
      <use xlink:href="#DejaVuSans-73"/>
      <use xlink:href="#DejaVuSans-65" x="52.099609"/>
      <use xlink:href="#DejaVuSans-72" x="113.623047"/>
      <use xlink:href="#DejaVuSans-76" x="154.736328"/>
      <use xlink:href="#DejaVuSans-65" x="213.916016"/>
      <use xlink:href="#DejaVuSans-72" x="275.439453"/>
      <use xlink:href="#DejaVuSans-6c" x="316.552734"/>
      <use xlink:href="#DejaVuSans-65" x="344.335938"/>
      <use xlink:href="#DejaVuSans-73" x="405.859375"/>
      <use xlink:href="#DejaVuSans-73" x="457.958984"/>
     </g>
    </g>
    <g id="line2d_24">
     <path d="M 1078.39375 197.974688 
L 1088.39375 197.974688 
L 1098.39375 197.974688 
" style="fill: none; stroke-dasharray: 6.4,1.6,1,1.6; stroke-dashoffset: 0; stroke: #2ca02c"/>
    </g>
    <g id="text_23">
     <!-- server -->
     <g transform="translate(1106.39375 201.474688) scale(0.1 -0.1)">
      <use xlink:href="#DejaVuSans-73"/>
      <use xlink:href="#DejaVuSans-65" x="52.099609"/>
      <use xlink:href="#DejaVuSans-72" x="113.623047"/>
      <use xlink:href="#DejaVuSans-76" x="154.736328"/>
      <use xlink:href="#DejaVuSans-65" x="213.916016"/>
      <use xlink:href="#DejaVuSans-72" x="275.439453"/>
     </g>
    </g>
   </g>
  </g>
 </g>
 <defs>
  <clipPath id="pcbab663718">
   <rect x="162" y="155.52" width="1004.4" height="997.92"/>
  </clipPath>
 </defs>
</svg>
