<?xml version="1.0" encoding="utf-8" standalone="no"?>
<!DOCTYPE svg PUBLIC "-//W3C//DTD SVG 1.1//EN"
  "http://www.w3.org/Graphics/SVG/1.1/DTD/svg11.dtd">
<svg xmlns:xlink="http://www.w3.org/1999/xlink" width="1296pt" height="1296pt" viewBox="0 0 1296 1296" xmlns="http://www.w3.org/2000/svg" version="1.1">
 <metadata>
  <rdf:RDF xmlns:dc="http://purl.org/dc/elements/1.1/" xmlns:cc="http://creativecommons.org/ns#" xmlns:rdf="http://www.w3.org/1999/02/22-rdf-syntax-ns#">
   <cc:Work>
    <dc:type rdf:resource="http://purl.org/dc/dcmitype/StillImage"/>
    <dc:date>2023-10-17T14:27:57.982229</dc:date>
    <dc:format>image/svg+xml</dc:format>
    <dc:creator>
     <cc:Agent>
      <dc:title>Matplotlib v3.7.1, https://matplotlib.org/</dc:title>
     </cc:Agent>
    </dc:creator>
   </cc:Work>
  </rdf:RDF>
 </metadata>
 <defs>
  <style type="text/css">*{stroke-linejoin: round; stroke-linecap: butt}</style>
 </defs>
 <g id="figure_1">
  <g id="patch_1">
   <path d="M 0 1296 
L 1296 1296 
L 1296 0 
L 0 0 
z
" style="fill: #ffffff"/>
  </g>
  <g id="axes_1">
   <g id="patch_2">
    <path d="M 162 1153.44 
L 1166.4 1153.44 
L 1166.4 155.52 
L 162 155.52 
z
" style="fill: #ffffff"/>
   </g>
   <g id="matplotlib.axis_1">
    <g id="xtick_1">
     <g id="line2d_1">
      <defs>
       <path id="m8977722f6f" d="M 0 0 
L 0 3.5 
" style="stroke: #000000; stroke-width: 0.8"/>
      </defs>
      <g>
       <use xlink:href="#m8977722f6f" x="207.206073" y="1153.44" style="stroke: #000000; stroke-width: 0.8"/>
      </g>
     </g>
     <g id="text_1">
      <!-- 0 -->
      <g transform="translate(204.024823 1168.038438) scale(0.1 -0.1)">
       <defs>
        <path id="DejaVuSans-30" d="M 2034 4250 
Q 1547 4250 1301 3770 
Q 1056 3291 1056 2328 
Q 1056 1369 1301 889 
Q 1547 409 2034 409 
Q 2525 409 2770 889 
Q 3016 1369 3016 2328 
Q 3016 3291 2770 3770 
Q 2525 4250 2034 4250 
z
M 2034 4750 
Q 2819 4750 3233 4129 
Q 3647 3509 3647 2328 
Q 3647 1150 3233 529 
Q 2819 -91 2034 -91 
Q 1250 -91 836 529 
Q 422 1150 422 2328 
Q 422 3509 836 4129 
Q 1250 4750 2034 4750 
z
" transform="scale(0.015625)"/>
       </defs>
       <use xlink:href="#DejaVuSans-30"/>
      </g>
     </g>
    </g>
    <g id="xtick_2">
     <g id="line2d_2">
      <g>
       <use xlink:href="#m8977722f6f" x="319.324308" y="1153.44" style="stroke: #000000; stroke-width: 0.8"/>
      </g>
     </g>
     <g id="text_2">
      <!-- 250 -->
      <g transform="translate(309.780558 1168.038438) scale(0.1 -0.1)">
       <defs>
        <path id="DejaVuSans-32" d="M 1228 531 
L 3431 531 
L 3431 0 
L 469 0 
L 469 531 
Q 828 903 1448 1529 
Q 2069 2156 2228 2338 
Q 2531 2678 2651 2914 
Q 2772 3150 2772 3378 
Q 2772 3750 2511 3984 
Q 2250 4219 1831 4219 
Q 1534 4219 1204 4116 
Q 875 4013 500 3803 
L 500 4441 
Q 881 4594 1212 4672 
Q 1544 4750 1819 4750 
Q 2544 4750 2975 4387 
Q 3406 4025 3406 3419 
Q 3406 3131 3298 2873 
Q 3191 2616 2906 2266 
Q 2828 2175 2409 1742 
Q 1991 1309 1228 531 
z
" transform="scale(0.015625)"/>
        <path id="DejaVuSans-35" d="M 691 4666 
L 3169 4666 
L 3169 4134 
L 1269 4134 
L 1269 2991 
Q 1406 3038 1543 3061 
Q 1681 3084 1819 3084 
Q 2600 3084 3056 2656 
Q 3513 2228 3513 1497 
Q 3513 744 3044 326 
Q 2575 -91 1722 -91 
Q 1428 -91 1123 -41 
Q 819 9 494 109 
L 494 744 
Q 775 591 1075 516 
Q 1375 441 1709 441 
Q 2250 441 2565 725 
Q 2881 1009 2881 1497 
Q 2881 1984 2565 2268 
Q 2250 2553 1709 2553 
Q 1456 2553 1204 2497 
Q 953 2441 691 2322 
L 691 4666 
z
" transform="scale(0.015625)"/>
       </defs>
       <use xlink:href="#DejaVuSans-32"/>
       <use xlink:href="#DejaVuSans-35" x="63.623047"/>
       <use xlink:href="#DejaVuSans-30" x="127.246094"/>
      </g>
     </g>
    </g>
    <g id="xtick_3">
     <g id="line2d_3">
      <g>
       <use xlink:href="#m8977722f6f" x="431.442543" y="1153.44" style="stroke: #000000; stroke-width: 0.8"/>
      </g>
     </g>
     <g id="text_3">
      <!-- 500 -->
      <g transform="translate(421.898793 1168.038438) scale(0.1 -0.1)">
       <use xlink:href="#DejaVuSans-35"/>
       <use xlink:href="#DejaVuSans-30" x="63.623047"/>
       <use xlink:href="#DejaVuSans-30" x="127.246094"/>
      </g>
     </g>
    </g>
    <g id="xtick_4">
     <g id="line2d_4">
      <g>
       <use xlink:href="#m8977722f6f" x="543.560779" y="1153.44" style="stroke: #000000; stroke-width: 0.8"/>
      </g>
     </g>
     <g id="text_4">
      <!-- 750 -->
      <g transform="translate(534.017029 1168.038438) scale(0.1 -0.1)">
       <defs>
        <path id="DejaVuSans-37" d="M 525 4666 
L 3525 4666 
L 3525 4397 
L 1831 0 
L 1172 0 
L 2766 4134 
L 525 4134 
L 525 4666 
z
" transform="scale(0.015625)"/>
       </defs>
       <use xlink:href="#DejaVuSans-37"/>
       <use xlink:href="#DejaVuSans-35" x="63.623047"/>
       <use xlink:href="#DejaVuSans-30" x="127.246094"/>
      </g>
     </g>
    </g>
    <g id="xtick_5">
     <g id="line2d_5">
      <g>
       <use xlink:href="#m8977722f6f" x="655.679014" y="1153.44" style="stroke: #000000; stroke-width: 0.8"/>
      </g>
     </g>
     <g id="text_5">
      <!-- 1000 -->
      <g transform="translate(642.954014 1168.038438) scale(0.1 -0.1)">
       <defs>
        <path id="DejaVuSans-31" d="M 794 531 
L 1825 531 
L 1825 4091 
L 703 3866 
L 703 4441 
L 1819 4666 
L 2450 4666 
L 2450 531 
L 3481 531 
L 3481 0 
L 794 0 
L 794 531 
z
" transform="scale(0.015625)"/>
       </defs>
       <use xlink:href="#DejaVuSans-31"/>
       <use xlink:href="#DejaVuSans-30" x="63.623047"/>
       <use xlink:href="#DejaVuSans-30" x="127.246094"/>
       <use xlink:href="#DejaVuSans-30" x="190.869141"/>
      </g>
     </g>
    </g>
    <g id="xtick_6">
     <g id="line2d_6">
      <g>
       <use xlink:href="#m8977722f6f" x="767.79725" y="1153.44" style="stroke: #000000; stroke-width: 0.8"/>
      </g>
     </g>
     <g id="text_6">
      <!-- 1250 -->
      <g transform="translate(755.07225 1168.038438) scale(0.1 -0.1)">
       <use xlink:href="#DejaVuSans-31"/>
       <use xlink:href="#DejaVuSans-32" x="63.623047"/>
       <use xlink:href="#DejaVuSans-35" x="127.246094"/>
       <use xlink:href="#DejaVuSans-30" x="190.869141"/>
      </g>
     </g>
    </g>
    <g id="xtick_7">
     <g id="line2d_7">
      <g>
       <use xlink:href="#m8977722f6f" x="879.915485" y="1153.44" style="stroke: #000000; stroke-width: 0.8"/>
      </g>
     </g>
     <g id="text_7">
      <!-- 1500 -->
      <g transform="translate(867.190485 1168.038438) scale(0.1 -0.1)">
       <use xlink:href="#DejaVuSans-31"/>
       <use xlink:href="#DejaVuSans-35" x="63.623047"/>
       <use xlink:href="#DejaVuSans-30" x="127.246094"/>
       <use xlink:href="#DejaVuSans-30" x="190.869141"/>
      </g>
     </g>
    </g>
    <g id="xtick_8">
     <g id="line2d_8">
      <g>
       <use xlink:href="#m8977722f6f" x="992.03372" y="1153.44" style="stroke: #000000; stroke-width: 0.8"/>
      </g>
     </g>
     <g id="text_8">
      <!-- 1750 -->
      <g transform="translate(979.30872 1168.038438) scale(0.1 -0.1)">
       <use xlink:href="#DejaVuSans-31"/>
       <use xlink:href="#DejaVuSans-37" x="63.623047"/>
       <use xlink:href="#DejaVuSans-35" x="127.246094"/>
       <use xlink:href="#DejaVuSans-30" x="190.869141"/>
      </g>
     </g>
    </g>
    <g id="xtick_9">
     <g id="line2d_9">
      <g>
       <use xlink:href="#m8977722f6f" x="1104.151956" y="1153.44" style="stroke: #000000; stroke-width: 0.8"/>
      </g>
     </g>
     <g id="text_9">
      <!-- 2000 -->
      <g transform="translate(1091.426956 1168.038438) scale(0.1 -0.1)">
       <use xlink:href="#DejaVuSans-32"/>
       <use xlink:href="#DejaVuSans-30" x="63.623047"/>
       <use xlink:href="#DejaVuSans-30" x="127.246094"/>
       <use xlink:href="#DejaVuSans-30" x="190.869141"/>
      </g>
     </g>
    </g>
    <g id="text_10">
     <!-- lifetime -->
     <g transform="translate(645.289062 1181.716563) scale(0.1 -0.1)">
      <defs>
       <path id="DejaVuSans-6c" d="M 603 4863 
L 1178 4863 
L 1178 0 
L 603 0 
L 603 4863 
z
" transform="scale(0.015625)"/>
       <path id="DejaVuSans-69" d="M 603 3500 
L 1178 3500 
L 1178 0 
L 603 0 
L 603 3500 
z
M 603 4863 
L 1178 4863 
L 1178 4134 
L 603 4134 
L 603 4863 
z
" transform="scale(0.015625)"/>
       <path id="DejaVuSans-66" d="M 2375 4863 
L 2375 4384 
L 1825 4384 
Q 1516 4384 1395 4259 
Q 1275 4134 1275 3809 
L 1275 3500 
L 2222 3500 
L 2222 3053 
L 1275 3053 
L 1275 0 
L 697 0 
L 697 3053 
L 147 3053 
L 147 3500 
L 697 3500 
L 697 3744 
Q 697 4328 969 4595 
Q 1241 4863 1831 4863 
L 2375 4863 
z
" transform="scale(0.015625)"/>
       <path id="DejaVuSans-65" d="M 3597 1894 
L 3597 1613 
L 953 1613 
Q 991 1019 1311 708 
Q 1631 397 2203 397 
Q 2534 397 2845 478 
Q 3156 559 3463 722 
L 3463 178 
Q 3153 47 2828 -22 
Q 2503 -91 2169 -91 
Q 1331 -91 842 396 
Q 353 884 353 1716 
Q 353 2575 817 3079 
Q 1281 3584 2069 3584 
Q 2775 3584 3186 3129 
Q 3597 2675 3597 1894 
z
M 3022 2063 
Q 3016 2534 2758 2815 
Q 2500 3097 2075 3097 
Q 1594 3097 1305 2825 
Q 1016 2553 972 2059 
L 3022 2063 
z
" transform="scale(0.015625)"/>
       <path id="DejaVuSans-74" d="M 1172 4494 
L 1172 3500 
L 2356 3500 
L 2356 3053 
L 1172 3053 
L 1172 1153 
Q 1172 725 1289 603 
Q 1406 481 1766 481 
L 2356 481 
L 2356 0 
L 1766 0 
Q 1100 0 847 248 
Q 594 497 594 1153 
L 594 3053 
L 172 3053 
L 172 3500 
L 594 3500 
L 594 4494 
L 1172 4494 
z
" transform="scale(0.015625)"/>
       <path id="DejaVuSans-6d" d="M 3328 2828 
Q 3544 3216 3844 3400 
Q 4144 3584 4550 3584 
Q 5097 3584 5394 3201 
Q 5691 2819 5691 2113 
L 5691 0 
L 5113 0 
L 5113 2094 
Q 5113 2597 4934 2840 
Q 4756 3084 4391 3084 
Q 3944 3084 3684 2787 
Q 3425 2491 3425 1978 
L 3425 0 
L 2847 0 
L 2847 2094 
Q 2847 2600 2669 2842 
Q 2491 3084 2119 3084 
Q 1678 3084 1418 2786 
Q 1159 2488 1159 1978 
L 1159 0 
L 581 0 
L 581 3500 
L 1159 3500 
L 1159 2956 
Q 1356 3278 1631 3431 
Q 1906 3584 2284 3584 
Q 2666 3584 2933 3390 
Q 3200 3197 3328 2828 
z
" transform="scale(0.015625)"/>
      </defs>
      <use xlink:href="#DejaVuSans-6c"/>
      <use xlink:href="#DejaVuSans-69" x="27.783203"/>
      <use xlink:href="#DejaVuSans-66" x="55.566406"/>
      <use xlink:href="#DejaVuSans-65" x="90.771484"/>
      <use xlink:href="#DejaVuSans-74" x="152.294922"/>
      <use xlink:href="#DejaVuSans-69" x="191.503906"/>
      <use xlink:href="#DejaVuSans-6d" x="219.287109"/>
      <use xlink:href="#DejaVuSans-65" x="316.699219"/>
     </g>
    </g>
   </g>
   <g id="matplotlib.axis_2">
    <g id="ytick_1">
     <g id="line2d_10">
      <defs>
       <path id="m8785ddb758" d="M 0 0 
L -3.5 0 
" style="stroke: #000000; stroke-width: 0.8"/>
      </defs>
      <g>
       <use xlink:href="#m8785ddb758" x="162" y="1108.08" style="stroke: #000000; stroke-width: 0.8"/>
      </g>
     </g>
     <g id="text_11">
      <!-- 0.0 -->
      <g transform="translate(139.096875 1111.879219) scale(0.1 -0.1)">
       <defs>
        <path id="DejaVuSans-2e" d="M 684 794 
L 1344 794 
L 1344 0 
L 684 0 
L 684 794 
z
" transform="scale(0.015625)"/>
       </defs>
       <use xlink:href="#DejaVuSans-30"/>
       <use xlink:href="#DejaVuSans-2e" x="63.623047"/>
       <use xlink:href="#DejaVuSans-30" x="95.410156"/>
      </g>
     </g>
    </g>
    <g id="ytick_2">
     <g id="line2d_11">
      <g>
       <use xlink:href="#m8785ddb758" x="162" y="926.64" style="stroke: #000000; stroke-width: 0.8"/>
      </g>
     </g>
     <g id="text_12">
      <!-- 0.2 -->
      <g transform="translate(139.096875 930.439219) scale(0.1 -0.1)">
       <use xlink:href="#DejaVuSans-30"/>
       <use xlink:href="#DejaVuSans-2e" x="63.623047"/>
       <use xlink:href="#DejaVuSans-32" x="95.410156"/>
      </g>
     </g>
    </g>
    <g id="ytick_3">
     <g id="line2d_12">
      <g>
       <use xlink:href="#m8785ddb758" x="162" y="745.2" style="stroke: #000000; stroke-width: 0.8"/>
      </g>
     </g>
     <g id="text_13">
      <!-- 0.4 -->
      <g transform="translate(139.096875 748.999219) scale(0.1 -0.1)">
       <defs>
        <path id="DejaVuSans-34" d="M 2419 4116 
L 825 1625 
L 2419 1625 
L 2419 4116 
z
M 2253 4666 
L 3047 4666 
L 3047 1625 
L 3713 1625 
L 3713 1100 
L 3047 1100 
L 3047 0 
L 2419 0 
L 2419 1100 
L 313 1100 
L 313 1709 
L 2253 4666 
z
" transform="scale(0.015625)"/>
       </defs>
       <use xlink:href="#DejaVuSans-30"/>
       <use xlink:href="#DejaVuSans-2e" x="63.623047"/>
       <use xlink:href="#DejaVuSans-34" x="95.410156"/>
      </g>
     </g>
    </g>
    <g id="ytick_4">
     <g id="line2d_13">
      <g>
       <use xlink:href="#m8785ddb758" x="162" y="563.76" style="stroke: #000000; stroke-width: 0.8"/>
      </g>
     </g>
     <g id="text_14">
      <!-- 0.6 -->
      <g transform="translate(139.096875 567.559219) scale(0.1 -0.1)">
       <defs>
        <path id="DejaVuSans-36" d="M 2113 2584 
Q 1688 2584 1439 2293 
Q 1191 2003 1191 1497 
Q 1191 994 1439 701 
Q 1688 409 2113 409 
Q 2538 409 2786 701 
Q 3034 994 3034 1497 
Q 3034 2003 2786 2293 
Q 2538 2584 2113 2584 
z
M 3366 4563 
L 3366 3988 
Q 3128 4100 2886 4159 
Q 2644 4219 2406 4219 
Q 1781 4219 1451 3797 
Q 1122 3375 1075 2522 
Q 1259 2794 1537 2939 
Q 1816 3084 2150 3084 
Q 2853 3084 3261 2657 
Q 3669 2231 3669 1497 
Q 3669 778 3244 343 
Q 2819 -91 2113 -91 
Q 1303 -91 875 529 
Q 447 1150 447 2328 
Q 447 3434 972 4092 
Q 1497 4750 2381 4750 
Q 2619 4750 2861 4703 
Q 3103 4656 3366 4563 
z
" transform="scale(0.015625)"/>
       </defs>
       <use xlink:href="#DejaVuSans-30"/>
       <use xlink:href="#DejaVuSans-2e" x="63.623047"/>
       <use xlink:href="#DejaVuSans-36" x="95.410156"/>
      </g>
     </g>
    </g>
    <g id="ytick_5">
     <g id="line2d_14">
      <g>
       <use xlink:href="#m8785ddb758" x="162" y="382.32" style="stroke: #000000; stroke-width: 0.8"/>
      </g>
     </g>
     <g id="text_15">
      <!-- 0.8 -->
      <g transform="translate(139.096875 386.119219) scale(0.1 -0.1)">
       <defs>
        <path id="DejaVuSans-38" d="M 2034 2216 
Q 1584 2216 1326 1975 
Q 1069 1734 1069 1313 
Q 1069 891 1326 650 
Q 1584 409 2034 409 
Q 2484 409 2743 651 
Q 3003 894 3003 1313 
Q 3003 1734 2745 1975 
Q 2488 2216 2034 2216 
z
M 1403 2484 
Q 997 2584 770 2862 
Q 544 3141 544 3541 
Q 544 4100 942 4425 
Q 1341 4750 2034 4750 
Q 2731 4750 3128 4425 
Q 3525 4100 3525 3541 
Q 3525 3141 3298 2862 
Q 3072 2584 2669 2484 
Q 3125 2378 3379 2068 
Q 3634 1759 3634 1313 
Q 3634 634 3220 271 
Q 2806 -91 2034 -91 
Q 1263 -91 848 271 
Q 434 634 434 1313 
Q 434 1759 690 2068 
Q 947 2378 1403 2484 
z
M 1172 3481 
Q 1172 3119 1398 2916 
Q 1625 2713 2034 2713 
Q 2441 2713 2670 2916 
Q 2900 3119 2900 3481 
Q 2900 3844 2670 4047 
Q 2441 4250 2034 4250 
Q 1625 4250 1398 4047 
Q 1172 3844 1172 3481 
z
" transform="scale(0.015625)"/>
       </defs>
       <use xlink:href="#DejaVuSans-30"/>
       <use xlink:href="#DejaVuSans-2e" x="63.623047"/>
       <use xlink:href="#DejaVuSans-38" x="95.410156"/>
      </g>
     </g>
    </g>
    <g id="ytick_6">
     <g id="line2d_15">
      <g>
       <use xlink:href="#m8785ddb758" x="162" y="200.88" style="stroke: #000000; stroke-width: 0.8"/>
      </g>
     </g>
     <g id="text_16">
      <!-- 1.0 -->
      <g transform="translate(139.096875 204.679219) scale(0.1 -0.1)">
       <use xlink:href="#DejaVuSans-31"/>
       <use xlink:href="#DejaVuSans-2e" x="63.623047"/>
       <use xlink:href="#DejaVuSans-30" x="95.410156"/>
      </g>
     </g>
    </g>
    <g id="text_17">
     <!-- #packets rec/ #packets gen -->
     <g transform="translate(133.017188 725.185469) rotate(-90) scale(0.1 -0.1)">
      <defs>
       <path id="DejaVuSans-23" d="M 3272 2816 
L 2363 2816 
L 2100 1772 
L 3016 1772 
L 3272 2816 
z
M 2803 4594 
L 2478 3297 
L 3391 3297 
L 3719 4594 
L 4219 4594 
L 3897 3297 
L 4872 3297 
L 4872 2816 
L 3775 2816 
L 3519 1772 
L 4513 1772 
L 4513 1294 
L 3397 1294 
L 3072 0 
L 2572 0 
L 2894 1294 
L 1978 1294 
L 1656 0 
L 1153 0 
L 1478 1294 
L 494 1294 
L 494 1772 
L 1594 1772 
L 1856 2816 
L 850 2816 
L 850 3297 
L 1978 3297 
L 2297 4594 
L 2803 4594 
z
" transform="scale(0.015625)"/>
       <path id="DejaVuSans-70" d="M 1159 525 
L 1159 -1331 
L 581 -1331 
L 581 3500 
L 1159 3500 
L 1159 2969 
Q 1341 3281 1617 3432 
Q 1894 3584 2278 3584 
Q 2916 3584 3314 3078 
Q 3713 2572 3713 1747 
Q 3713 922 3314 415 
Q 2916 -91 2278 -91 
Q 1894 -91 1617 61 
Q 1341 213 1159 525 
z
M 3116 1747 
Q 3116 2381 2855 2742 
Q 2594 3103 2138 3103 
Q 1681 3103 1420 2742 
Q 1159 2381 1159 1747 
Q 1159 1113 1420 752 
Q 1681 391 2138 391 
Q 2594 391 2855 752 
Q 3116 1113 3116 1747 
z
" transform="scale(0.015625)"/>
       <path id="DejaVuSans-61" d="M 2194 1759 
Q 1497 1759 1228 1600 
Q 959 1441 959 1056 
Q 959 750 1161 570 
Q 1363 391 1709 391 
Q 2188 391 2477 730 
Q 2766 1069 2766 1631 
L 2766 1759 
L 2194 1759 
z
M 3341 1997 
L 3341 0 
L 2766 0 
L 2766 531 
Q 2569 213 2275 61 
Q 1981 -91 1556 -91 
Q 1019 -91 701 211 
Q 384 513 384 1019 
Q 384 1609 779 1909 
Q 1175 2209 1959 2209 
L 2766 2209 
L 2766 2266 
Q 2766 2663 2505 2880 
Q 2244 3097 1772 3097 
Q 1472 3097 1187 3025 
Q 903 2953 641 2809 
L 641 3341 
Q 956 3463 1253 3523 
Q 1550 3584 1831 3584 
Q 2591 3584 2966 3190 
Q 3341 2797 3341 1997 
z
" transform="scale(0.015625)"/>
       <path id="DejaVuSans-63" d="M 3122 3366 
L 3122 2828 
Q 2878 2963 2633 3030 
Q 2388 3097 2138 3097 
Q 1578 3097 1268 2742 
Q 959 2388 959 1747 
Q 959 1106 1268 751 
Q 1578 397 2138 397 
Q 2388 397 2633 464 
Q 2878 531 3122 666 
L 3122 134 
Q 2881 22 2623 -34 
Q 2366 -91 2075 -91 
Q 1284 -91 818 406 
Q 353 903 353 1747 
Q 353 2603 823 3093 
Q 1294 3584 2113 3584 
Q 2378 3584 2631 3529 
Q 2884 3475 3122 3366 
z
" transform="scale(0.015625)"/>
       <path id="DejaVuSans-6b" d="M 581 4863 
L 1159 4863 
L 1159 1991 
L 2875 3500 
L 3609 3500 
L 1753 1863 
L 3688 0 
L 2938 0 
L 1159 1709 
L 1159 0 
L 581 0 
L 581 4863 
z
" transform="scale(0.015625)"/>
       <path id="DejaVuSans-73" d="M 2834 3397 
L 2834 2853 
Q 2591 2978 2328 3040 
Q 2066 3103 1784 3103 
Q 1356 3103 1142 2972 
Q 928 2841 928 2578 
Q 928 2378 1081 2264 
Q 1234 2150 1697 2047 
L 1894 2003 
Q 2506 1872 2764 1633 
Q 3022 1394 3022 966 
Q 3022 478 2636 193 
Q 2250 -91 1575 -91 
Q 1294 -91 989 -36 
Q 684 19 347 128 
L 347 722 
Q 666 556 975 473 
Q 1284 391 1588 391 
Q 1994 391 2212 530 
Q 2431 669 2431 922 
Q 2431 1156 2273 1281 
Q 2116 1406 1581 1522 
L 1381 1569 
Q 847 1681 609 1914 
Q 372 2147 372 2553 
Q 372 3047 722 3315 
Q 1072 3584 1716 3584 
Q 2034 3584 2315 3537 
Q 2597 3491 2834 3397 
z
" transform="scale(0.015625)"/>
       <path id="DejaVuSans-20" transform="scale(0.015625)"/>
       <path id="DejaVuSans-72" d="M 2631 2963 
Q 2534 3019 2420 3045 
Q 2306 3072 2169 3072 
Q 1681 3072 1420 2755 
Q 1159 2438 1159 1844 
L 1159 0 
L 581 0 
L 581 3500 
L 1159 3500 
L 1159 2956 
Q 1341 3275 1631 3429 
Q 1922 3584 2338 3584 
Q 2397 3584 2469 3576 
Q 2541 3569 2628 3553 
L 2631 2963 
z
" transform="scale(0.015625)"/>
       <path id="DejaVuSans-2f" d="M 1625 4666 
L 2156 4666 
L 531 -594 
L 0 -594 
L 1625 4666 
z
" transform="scale(0.015625)"/>
       <path id="DejaVuSans-67" d="M 2906 1791 
Q 2906 2416 2648 2759 
Q 2391 3103 1925 3103 
Q 1463 3103 1205 2759 
Q 947 2416 947 1791 
Q 947 1169 1205 825 
Q 1463 481 1925 481 
Q 2391 481 2648 825 
Q 2906 1169 2906 1791 
z
M 3481 434 
Q 3481 -459 3084 -895 
Q 2688 -1331 1869 -1331 
Q 1566 -1331 1297 -1286 
Q 1028 -1241 775 -1147 
L 775 -588 
Q 1028 -725 1275 -790 
Q 1522 -856 1778 -856 
Q 2344 -856 2625 -561 
Q 2906 -266 2906 331 
L 2906 616 
Q 2728 306 2450 153 
Q 2172 0 1784 0 
Q 1141 0 747 490 
Q 353 981 353 1791 
Q 353 2603 747 3093 
Q 1141 3584 1784 3584 
Q 2172 3584 2450 3431 
Q 2728 3278 2906 2969 
L 2906 3500 
L 3481 3500 
L 3481 434 
z
" transform="scale(0.015625)"/>
       <path id="DejaVuSans-6e" d="M 3513 2113 
L 3513 0 
L 2938 0 
L 2938 2094 
Q 2938 2591 2744 2837 
Q 2550 3084 2163 3084 
Q 1697 3084 1428 2787 
Q 1159 2491 1159 1978 
L 1159 0 
L 581 0 
L 581 3500 
L 1159 3500 
L 1159 2956 
Q 1366 3272 1645 3428 
Q 1925 3584 2291 3584 
Q 2894 3584 3203 3211 
Q 3513 2838 3513 2113 
z
" transform="scale(0.015625)"/>
      </defs>
      <use xlink:href="#DejaVuSans-23"/>
      <use xlink:href="#DejaVuSans-70" x="83.789062"/>
      <use xlink:href="#DejaVuSans-61" x="147.265625"/>
      <use xlink:href="#DejaVuSans-63" x="208.544922"/>
      <use xlink:href="#DejaVuSans-6b" x="263.525391"/>
      <use xlink:href="#DejaVuSans-65" x="317.810547"/>
      <use xlink:href="#DejaVuSans-74" x="379.333984"/>
      <use xlink:href="#DejaVuSans-73" x="418.542969"/>
      <use xlink:href="#DejaVuSans-20" x="470.642578"/>
      <use xlink:href="#DejaVuSans-72" x="502.429688"/>
      <use xlink:href="#DejaVuSans-65" x="541.292969"/>
      <use xlink:href="#DejaVuSans-63" x="602.816406"/>
      <use xlink:href="#DejaVuSans-2f" x="657.796875"/>
      <use xlink:href="#DejaVuSans-20" x="691.488281"/>
      <use xlink:href="#DejaVuSans-23" x="723.275391"/>
      <use xlink:href="#DejaVuSans-70" x="807.064453"/>
      <use xlink:href="#DejaVuSans-61" x="870.541016"/>
      <use xlink:href="#DejaVuSans-63" x="931.820312"/>
      <use xlink:href="#DejaVuSans-6b" x="986.800781"/>
      <use xlink:href="#DejaVuSans-65" x="1041.085938"/>
      <use xlink:href="#DejaVuSans-74" x="1102.609375"/>
      <use xlink:href="#DejaVuSans-73" x="1141.818359"/>
      <use xlink:href="#DejaVuSans-20" x="1193.917969"/>
      <use xlink:href="#DejaVuSans-67" x="1225.705078"/>
      <use xlink:href="#DejaVuSans-65" x="1289.181641"/>
      <use xlink:href="#DejaVuSans-6e" x="1350.705078"/>
     </g>
    </g>
   </g>
   <g id="line2d_16">
    <path d="M 207.654545 200.88 
L 211.242329 200.88 
L 211.690802 209.952 
L 214.830113 209.952 
L 215.278585 219.024 
L 215.727058 209.952 
L 216.175531 209.952 
L 216.624004 219.024 
L 217.52095 200.88 
L 217.969423 209.952 
L 219.314842 209.952 
L 220.211788 228.096 
L 220.660261 209.952 
L 221.108734 219.024 
L 222.454153 219.024 
L 222.902625 209.952 
L 223.351098 209.952 
L 223.799571 200.88 
L 224.696517 219.024 
L 225.14499 209.952 
L 225.593463 219.024 
L 226.041936 200.88 
L 226.490409 209.952 
L 226.938882 209.952 
L 227.835828 228.096 
L 228.284301 209.952 
L 228.732774 209.952 
L 229.181247 219.024 
L 229.62972 209.952 
L 230.078193 209.952 
L 230.526665 200.88 
L 230.975138 219.024 
L 231.423611 200.88 
L 231.872084 209.952 
L 232.320557 200.88 
L 232.76903 219.024 
L 233.217503 209.952 
L 233.665976 209.952 
L 234.114449 200.88 
L 234.562922 200.88 
L 235.011395 209.952 
L 235.908341 209.952 
L 236.356814 200.88 
L 236.805287 209.952 
L 237.25376 209.952 
L 237.702233 200.88 
L 238.599178 200.88 
L 239.047651 209.952 
L 239.496124 200.88 
L 239.944597 200.88 
L 240.39307 209.952 
L 240.841543 200.88 
L 241.290016 200.88 
L 241.738489 209.952 
L 242.186962 200.88 
L 242.635435 209.952 
L 243.083908 200.88 
L 243.532381 209.952 
L 244.8778 209.952 
L 245.326273 200.88 
L 245.774745 209.952 
L 247.568637 209.952 
L 248.01711 200.88 
L 248.465583 200.88 
L 248.914056 209.952 
L 249.362529 200.88 
L 249.811002 209.952 
L 250.707948 209.952 
L 251.156421 219.024 
L 251.604894 200.88 
L 252.053367 209.952 
L 252.50184 200.88 
L 252.950313 200.88 
L 253.398785 209.952 
L 253.847258 209.952 
L 254.295731 200.88 
L 254.744204 200.88 
L 255.64115 219.024 
L 256.089623 200.88 
L 256.538096 209.952 
L 257.435042 209.952 
L 257.883515 200.88 
L 258.331988 209.952 
L 260.12588 209.952 
L 260.574353 200.88 
L 261.471298 200.88 
L 261.919771 209.952 
L 262.368244 209.952 
L 262.816717 200.88 
L 263.26519 200.88 
L 263.713663 209.952 
L 264.610609 209.952 
L 265.059082 219.024 
L 265.507555 200.88 
L 266.404501 200.88 
L 266.852974 209.952 
L 267.301447 209.952 
L 267.74992 200.88 
L 268.198393 200.88 
L 268.646866 209.952 
L 269.095338 200.88 
L 271.786176 200.88 
L 272.234649 209.952 
L 272.683122 200.88 
L 274.028541 200.88 
L 274.477014 209.952 
L 274.925487 209.952 
L 275.37396 200.88 
L 277.167851 200.88 
L 277.616324 209.952 
L 278.064797 200.88 
L 278.51327 200.88 
L 278.961743 209.952 
L 279.410216 209.952 
L 279.858689 200.88 
L 280.307162 209.952 
L 280.755635 200.88 
L 281.204108 200.88 
L 281.652581 209.952 
L 282.101054 200.88 
L 285.688837 200.88 
L 286.13731 209.952 
L 286.585783 200.88 
L 288.379675 200.88 
L 288.828148 209.952 
L 289.276621 209.952 
L 289.725094 219.024 
L 290.173567 200.88 
L 290.62204 209.952 
L 291.518986 209.952 
L 291.967458 200.88 
L 292.864404 200.88 
L 293.76135 219.024 
L 294.209823 200.88 
L 296.452188 200.88 
L 296.900661 209.952 
L 297.349134 209.952 
L 297.797607 200.88 
L 298.24608 209.952 
L 298.694553 200.88 
L 299.143026 209.952 
L 299.591498 200.88 
L 302.282336 200.88 
L 302.730809 209.952 
L 303.179282 200.88 
L 303.627755 200.88 
L 304.076228 209.952 
L 304.524701 200.88 
L 308.112484 200.88 
L 308.560957 209.952 
L 309.00943 200.88 
L 309.457903 200.88 
L 309.906376 219.024 
L 310.354849 200.88 
L 312.597214 200.88 
L 313.045687 209.952 
L 313.49416 200.88 
L 314.839578 200.88 
L 315.288051 209.952 
L 315.736524 200.88 
L 316.63347 200.88 
L 317.081943 209.952 
L 317.530416 200.88 
L 318.875835 200.88 
L 319.324308 209.952 
L 319.772781 200.88 
L 322.015146 200.88 
L 322.463619 228.096 
L 322.912091 200.88 
L 326.051402 200.88 
L 326.499875 209.952 
L 326.948348 200.88 
L 328.293767 200.88 
L 328.74224 209.952 
L 329.190713 200.88 
L 329.639186 209.952 
L 330.087659 200.88 
L 331.433077 200.88 
L 331.88155 209.952 
L 332.330023 209.952 
L 332.778496 200.88 
L 333.226969 209.952 
L 333.675442 200.88 
L 336.36628 200.88 
L 336.814753 209.952 
L 337.263226 209.952 
L 337.711699 200.88 
L 341.299482 200.88 
L 341.747955 209.952 
L 342.196428 200.88 
L 346.681157 200.88 
L 347.12963 209.952 
L 347.578103 200.88 
L 350.717414 200.88 
L 351.165887 209.952 
L 351.61436 200.88 
L 352.062833 200.88 
L 352.511306 209.952 
L 352.959779 209.952 
L 353.408251 200.88 
L 354.75367 200.88 
L 355.202143 209.952 
L 355.650616 209.952 
L 356.099089 200.88 
L 361.032291 200.88 
L 361.480764 209.952 
L 361.929237 200.88 
L 367.310913 200.88 
L 367.759386 209.952 
L 368.207859 200.88 
L 370.00175 200.88 
L 370.450223 209.952 
L 370.898696 200.88 
L 374.48648 200.88 
L 374.934953 209.952 
L 375.383426 200.88 
L 380.316628 200.88 
L 380.765101 209.952 
L 381.213574 200.88 
L 388.837614 200.88 
L 389.286087 209.952 
L 389.73456 200.88 
L 391.079979 200.88 
L 391.528452 209.952 
L 391.976924 200.88 
L 409.018896 200.88 
L 409.467369 209.952 
L 409.915842 200.88 
L 414.400572 200.88 
L 414.849044 209.952 
L 415.297517 200.88 
L 429.200179 200.88 
L 429.648652 209.952 
L 430.097124 200.88 
L 430.99407 200.88 
L 431.442543 209.952 
L 431.891016 200.88 
L 436.375746 200.88 
L 436.824219 209.952 
L 437.272692 200.88 
L 437.721164 200.88 
L 438.169637 209.952 
L 438.61811 200.88 
L 439.515056 200.88 
L 439.963529 209.952 
L 440.412002 200.88 
L 446.24215 200.88 
L 446.690623 209.952 
L 447.139096 200.88 
L 451.175353 200.88 
L 451.623826 209.952 
L 452.072299 200.88 
L 457.902447 200.88 
L 458.35092 209.952 
L 458.799393 200.88 
L 462.387176 200.88 
L 462.835649 209.952 
L 463.284122 200.88 
L 465.526487 200.88 
L 465.97496 209.952 
L 466.423433 200.88 
L 476.289837 200.88 
L 476.73831 209.952 
L 477.186783 200.88 
L 490.192499 200.88 
L 490.640972 209.952 
L 491.089445 200.88 
L 501.852795 200.88 
L 502.301268 209.952 
L 502.749741 200.88 
L 506.337525 200.88 
L 506.785997 209.952 
L 507.23447 200.88 
L 517.549348 200.88 
L 517.997821 209.952 
L 518.446294 200.88 
L 523.827969 200.88 
L 524.276442 209.952 
L 524.724915 200.88 
L 525.173388 219.024 
L 525.621861 200.88 
L 531.900482 200.88 
L 532.348955 219.024 
L 532.797428 200.88 
L 538.627576 200.88 
L 539.076049 228.096 
L 539.524522 200.88 
L 558.360386 200.88 
L 558.808859 219.024 
L 559.257332 200.88 
L 571.366101 200.88 
L 571.814574 219.024 
L 572.263047 200.88 
L 575.850831 200.88 
L 576.299303 219.024 
L 576.747776 200.88 
L 586.614181 200.88 
L 587.062654 219.024 
L 587.511127 200.88 
L 592.892802 200.88 
L 593.341275 219.024 
L 593.789748 200.88 
L 690.211431 200.88 
L 690.659904 219.024 
L 691.108376 200.88 
L 699.180889 200.88 
L 699.629362 219.024 
L 700.077835 200.88 
L 700.526308 219.024 
L 700.974781 200.88 
L 728.331631 200.88 
L 728.780104 219.024 
L 729.228577 200.88 
L 745.373602 200.88 
L 745.822075 219.024 
L 746.270548 200.88 
L 746.719021 200.88 
L 747.167494 219.024 
L 747.615967 200.88 
L 751.203751 200.88 
L 751.652224 219.024 
L 752.100697 200.88 
L 804.123558 200.88 
L 804.572031 219.024 
L 805.020504 200.88 
L 815.783854 200.88 
L 816.232327 219.024 
L 816.6808 200.88 
L 818.923165 200.88 
L 819.371638 219.024 
L 819.820111 200.88 
L 826.995678 200.88 
L 827.444151 219.024 
L 827.892624 200.88 
L 882.15785 200.88 
L 882.606323 219.024 
L 883.054795 200.88 
L 900.096767 200.88 
L 900.54524 219.024 
L 900.993713 200.88 
L 925.659725 200.88 
L 926.108198 219.024 
L 926.556671 200.88 
L 961.986033 200.88 
L 962.434506 219.024 
L 962.882979 200.88 
L 974.543276 200.88 
L 974.991749 219.024 
L 975.440221 200.88 
L 993.827612 200.88 
L 994.276085 219.024 
L 994.724558 1108.08 
L 1120.745455 1108.08 
L 1120.745455 1108.08 
" clip-path="url(#p62b06994ec)" style="fill: none; stroke: #1f77b4; stroke-linecap: square"/>
   </g>
   <g id="line2d_17">
    <path d="M 207.654545 200.88 
L 211.242329 200.88 
L 211.690802 209.952 
L 212.139275 200.88 
L 212.587748 209.952 
L 214.38164 209.952 
L 214.830113 219.024 
L 215.278585 209.952 
L 217.072477 209.952 
L 217.52095 219.024 
L 217.969423 219.024 
L 218.417896 209.952 
L 220.211788 209.952 
L 220.660261 219.024 
L 221.108734 219.024 
L 221.557207 228.096 
L 222.00568 209.952 
L 222.454153 209.952 
L 222.902625 219.024 
L 223.351098 219.024 
L 224.248044 200.88 
L 224.696517 209.952 
L 225.14499 200.88 
L 225.593463 228.096 
L 226.041936 209.952 
L 226.490409 200.88 
L 227.387355 219.024 
L 228.284301 219.024 
L 228.732774 209.952 
L 229.181247 219.024 
L 229.62972 200.88 
L 230.078193 219.024 
L 230.526665 200.88 
L 230.975138 200.88 
L 231.423611 209.952 
L 231.872084 200.88 
L 234.114449 200.88 
L 234.562922 209.952 
L 235.011395 209.952 
L 235.459868 200.88 
L 235.908341 200.88 
L 236.805287 219.024 
L 237.25376 200.88 
L 237.702233 209.952 
L 238.150705 200.88 
L 239.047651 219.024 
L 239.496124 200.88 
L 239.944597 200.88 
L 240.39307 209.952 
L 242.635435 209.952 
L 243.083908 200.88 
L 244.8778 200.88 
L 245.326273 209.952 
L 246.671691 209.952 
L 247.120164 200.88 
L 247.568637 209.952 
L 248.914056 209.952 
L 249.362529 200.88 
L 249.811002 209.952 
L 250.259475 200.88 
L 250.707948 209.952 
L 252.053367 209.952 
L 252.50184 200.88 
L 252.950313 209.952 
L 253.847258 209.952 
L 254.295731 200.88 
L 255.192677 200.88 
L 255.64115 219.024 
L 256.538096 200.88 
L 256.986569 200.88 
L 257.435042 209.952 
L 258.331988 209.952 
L 258.780461 200.88 
L 260.574353 200.88 
L 261.022826 209.952 
L 261.471298 209.952 
L 261.919771 200.88 
L 262.368244 209.952 
L 262.816717 200.88 
L 264.162136 200.88 
L 264.610609 209.952 
L 265.059082 209.952 
L 265.507555 200.88 
L 265.956028 200.88 
L 266.404501 209.952 
L 267.74992 209.952 
L 268.198393 200.88 
L 269.095338 200.88 
L 269.543811 209.952 
L 269.992284 209.952 
L 270.440757 200.88 
L 270.88923 200.88 
L 271.337703 209.952 
L 271.786176 200.88 
L 272.234649 209.952 
L 273.131595 209.952 
L 273.580068 200.88 
L 274.028541 200.88 
L 274.477014 209.952 
L 275.37396 209.952 
L 275.822433 200.88 
L 276.270906 209.952 
L 276.719378 200.88 
L 277.167851 209.952 
L 278.064797 209.952 
L 278.51327 200.88 
L 278.961743 200.88 
L 279.410216 209.952 
L 279.858689 200.88 
L 280.307162 200.88 
L 280.755635 209.952 
L 281.204108 200.88 
L 282.101054 200.88 
L 282.549527 209.952 
L 282.998 200.88 
L 283.446473 200.88 
L 283.894946 209.952 
L 284.343418 200.88 
L 284.791891 219.024 
L 285.688837 200.88 
L 287.034256 200.88 
L 287.482729 219.024 
L 288.379675 200.88 
L 288.828148 209.952 
L 289.276621 200.88 
L 293.76135 200.88 
L 294.209823 209.952 
L 294.658296 200.88 
L 295.106769 200.88 
L 295.555242 209.952 
L 296.003715 200.88 
L 297.349134 200.88 
L 297.797607 209.952 
L 298.24608 200.88 
L 298.694553 209.952 
L 299.143026 200.88 
L 299.591498 200.88 
L 300.039971 228.096 
L 300.488444 200.88 
L 306.318593 200.88 
L 306.767066 209.952 
L 307.215538 200.88 
L 309.00943 200.88 
L 309.457903 209.952 
L 309.906376 200.88 
L 315.288051 200.88 
L 315.736524 209.952 
L 316.184997 209.952 
L 316.63347 200.88 
L 318.875835 200.88 
L 319.324308 209.952 
L 319.772781 200.88 
L 321.566673 200.88 
L 322.015146 209.952 
L 322.463619 200.88 
L 325.602929 200.88 
L 326.051402 209.952 
L 326.499875 200.88 
L 329.190713 200.88 
L 329.639186 209.952 
L 330.087659 200.88 
L 332.330023 200.88 
L 332.778496 209.952 
L 333.226969 200.88 
L 334.123915 200.88 
L 334.572388 219.024 
L 335.020861 200.88 
L 340.402536 200.88 
L 340.851009 209.952 
L 341.299482 200.88 
L 341.747955 200.88 
L 342.196428 209.952 
L 342.644901 200.88 
L 343.093374 200.88 
L 343.541847 209.952 
L 343.99032 209.952 
L 344.438793 200.88 
L 349.820468 200.88 
L 350.268941 209.952 
L 350.717414 200.88 
L 356.099089 200.88 
L 356.547562 209.952 
L 356.996035 200.88 
L 361.032291 200.88 
L 361.480764 209.952 
L 361.929237 200.88 
L 362.826183 200.88 
L 363.274656 209.952 
L 363.723129 209.952 
L 364.171602 200.88 
L 365.068548 200.88 
L 365.517021 209.952 
L 365.965494 200.88 
L 366.413967 200.88 
L 366.86244 209.952 
L 367.310913 200.88 
L 373.141061 200.88 
L 373.589534 209.952 
L 374.038007 200.88 
L 375.831899 200.88 
L 376.280371 209.952 
L 376.728844 200.88 
L 385.24983 200.88 
L 385.698303 209.952 
L 386.146776 200.88 
L 393.322343 200.88 
L 393.770816 209.952 
L 394.219289 209.952 
L 394.667762 200.88 
L 398.704019 200.88 
L 399.152492 209.952 
L 399.600964 200.88 
L 403.188748 200.88 
L 403.637221 209.952 
L 404.085694 200.88 
L 406.328059 200.88 
L 406.776532 209.952 
L 407.225004 200.88 
L 410.812788 200.88 
L 411.261261 209.952 
L 411.709734 209.952 
L 412.158207 200.88 
L 412.60668 200.88 
L 413.055153 209.952 
L 413.503626 200.88 
L 415.74599 200.88 
L 416.194463 209.952 
L 416.642936 200.88 
L 423.818503 200.88 
L 424.266976 209.952 
L 424.715449 209.952 
L 425.163922 200.88 
L 437.272692 200.88 
L 437.721164 209.952 
L 438.169637 200.88 
L 448.036042 200.88 
L 448.484515 209.952 
L 448.932988 200.88 
L 452.969245 200.88 
L 453.417717 209.952 
L 453.86619 200.88 
L 454.763136 200.88 
L 455.211609 209.952 
L 455.660082 200.88 
L 459.247866 200.88 
L 459.696339 209.952 
L 460.144812 200.88 
L 461.041757 200.88 
L 461.49023 209.952 
L 461.938703 200.88 
L 470.459689 200.88 
L 470.908162 209.952 
L 471.356635 200.88 
L 475.392892 200.88 
L 475.841365 209.952 
L 476.289837 209.952 
L 476.73831 200.88 
L 479.877621 200.88 
L 480.326094 209.952 
L 480.774567 200.88 
L 485.259296 200.88 
L 485.707769 209.952 
L 486.156242 200.88 
L 498.713485 200.88 
L 499.161957 209.952 
L 499.61043 200.88 
L 532.348955 200.88 
L 532.797428 219.024 
L 533.245901 200.88 
L 536.385212 200.88 
L 536.833685 219.024 
L 537.282158 200.88 
L 537.73063 219.024 
L 538.179103 200.88 
L 541.318414 200.88 
L 541.766887 219.024 
L 542.21536 200.88 
L 549.8394 200.88 
L 550.287873 219.024 
L 550.736346 200.88 
L 581.232506 200.88 
L 581.680979 219.024 
L 582.129452 200.88 
L 588.856546 200.88 
L 589.305019 219.024 
L 589.753492 200.88 
L 590.201965 200.88 
L 590.650438 219.024 
L 591.098911 200.88 
L 599.171423 200.88 
L 599.619896 219.024 
L 600.068369 200.88 
L 620.249652 200.88 
L 620.698125 219.024 
L 621.146598 200.88 
L 666.442365 200.88 
L 666.890838 219.024 
L 667.339311 200.88 
L 727.434685 200.88 
L 727.883158 219.024 
L 728.331631 200.88 
L 729.228577 200.88 
L 729.677049 219.024 
L 730.125522 200.88 
L 731.470941 200.88 
L 731.919414 219.024 
L 732.367887 200.88 
L 744.476657 200.88 
L 744.925129 237.168 
L 745.373602 200.88 
L 760.621682 200.88 
L 761.070155 219.024 
L 761.518628 200.88 
L 788.427005 200.88 
L 788.875478 219.024 
L 789.323951 200.88 
L 817.129273 200.88 
L 817.577746 219.024 
L 818.026219 200.88 
L 913.102483 200.88 
L 913.550956 219.024 
L 913.999428 200.88 
L 916.241793 200.88 
L 916.690266 219.024 
L 917.138739 200.88 
L 933.283765 200.88 
L 933.732238 219.024 
L 934.180711 200.88 
L 966.919236 200.88 
L 967.367709 219.024 
L 967.816181 200.88 
L 1024.323772 200.88 
L 1024.772245 219.024 
L 1025.220718 200.88 
L 1058.407716 200.88 
L 1058.856189 219.024 
L 1059.304662 200.88 
L 1120.296982 200.88 
L 1120.745455 219.024 
L 1120.745455 219.024 
" clip-path="url(#p62b06994ec)" style="fill: none; stroke: #ff7f0e; stroke-linecap: square"/>
   </g>
   <g id="line2d_18">
    <path d="M 207.654545 200.88 
L 211.242329 200.88 
L 211.690802 209.952 
L 212.139275 200.88 
L 212.587748 209.952 
L 214.38164 209.952 
L 214.830113 219.024 
L 215.278585 209.952 
L 217.072477 209.952 
L 217.52095 219.024 
L 217.969423 219.024 
L 218.417896 209.952 
L 220.211788 209.952 
L 220.660261 219.024 
L 221.108734 219.024 
L 221.557207 228.096 
L 222.00568 209.952 
L 222.454153 209.952 
L 222.902625 219.024 
L 223.351098 219.024 
L 224.248044 200.88 
L 224.696517 209.952 
L 225.14499 200.88 
L 225.593463 228.096 
L 226.041936 209.952 
L 226.490409 200.88 
L 227.387355 219.024 
L 228.284301 219.024 
L 228.732774 209.952 
L 229.181247 219.024 
L 229.62972 200.88 
L 230.078193 219.024 
L 230.526665 200.88 
L 230.975138 200.88 
L 231.423611 209.952 
L 231.872084 200.88 
L 234.114449 200.88 
L 234.562922 209.952 
L 235.011395 209.952 
L 235.459868 200.88 
L 235.908341 200.88 
L 236.805287 219.024 
L 237.25376 200.88 
L 237.702233 209.952 
L 238.150705 200.88 
L 239.047651 219.024 
L 239.496124 200.88 
L 239.944597 200.88 
L 240.39307 209.952 
L 242.635435 209.952 
L 243.083908 200.88 
L 244.8778 200.88 
L 245.326273 209.952 
L 246.671691 209.952 
L 247.120164 200.88 
L 247.568637 209.952 
L 248.914056 209.952 
L 249.362529 200.88 
L 249.811002 209.952 
L 250.259475 200.88 
L 250.707948 209.952 
L 252.053367 209.952 
L 252.50184 200.88 
L 252.950313 209.952 
L 253.847258 209.952 
L 254.295731 200.88 
L 255.192677 200.88 
L 255.64115 219.024 
L 256.538096 200.88 
L 256.986569 200.88 
L 257.435042 209.952 
L 258.331988 209.952 
L 258.780461 200.88 
L 260.574353 200.88 
L 261.022826 209.952 
L 261.471298 209.952 
L 261.919771 200.88 
L 262.368244 209.952 
L 262.816717 200.88 
L 264.162136 200.88 
L 264.610609 209.952 
L 265.059082 209.952 
L 265.507555 200.88 
L 265.956028 200.88 
L 266.404501 209.952 
L 267.74992 209.952 
L 268.198393 200.88 
L 269.095338 200.88 
L 269.543811 209.952 
L 269.992284 209.952 
L 270.440757 200.88 
L 270.88923 200.88 
L 271.337703 209.952 
L 271.786176 200.88 
L 272.234649 209.952 
L 273.131595 209.952 
L 273.580068 200.88 
L 274.028541 200.88 
L 274.477014 209.952 
L 275.37396 209.952 
L 275.822433 200.88 
L 276.270906 209.952 
L 276.719378 200.88 
L 277.167851 209.952 
L 278.064797 209.952 
L 278.51327 200.88 
L 278.961743 200.88 
L 279.410216 209.952 
L 279.858689 200.88 
L 280.307162 200.88 
L 280.755635 209.952 
L 281.204108 200.88 
L 282.101054 200.88 
L 282.549527 209.952 
L 282.998 200.88 
L 283.446473 200.88 
L 283.894946 209.952 
L 284.343418 200.88 
L 284.791891 219.024 
L 285.688837 200.88 
L 287.034256 200.88 
L 287.482729 219.024 
L 288.379675 200.88 
L 288.828148 209.952 
L 289.276621 200.88 
L 293.76135 200.88 
L 294.209823 209.952 
L 294.658296 200.88 
L 295.106769 200.88 
L 295.555242 209.952 
L 296.003715 200.88 
L 297.349134 200.88 
L 297.797607 209.952 
L 298.24608 200.88 
L 298.694553 209.952 
L 299.143026 200.88 
L 299.591498 200.88 
L 300.039971 228.096 
L 300.488444 200.88 
L 306.318593 200.88 
L 306.767066 209.952 
L 307.215538 200.88 
L 309.00943 200.88 
L 309.457903 209.952 
L 309.906376 200.88 
L 315.288051 200.88 
L 315.736524 209.952 
L 316.184997 209.952 
L 316.63347 200.88 
L 318.875835 200.88 
L 319.324308 209.952 
L 319.772781 200.88 
L 321.566673 200.88 
L 322.015146 209.952 
L 322.463619 200.88 
L 325.602929 200.88 
L 326.051402 209.952 
L 326.499875 200.88 
L 329.190713 200.88 
L 329.639186 209.952 
L 330.087659 200.88 
L 332.330023 200.88 
L 332.778496 209.952 
L 333.226969 200.88 
L 334.123915 200.88 
L 334.572388 219.024 
L 335.020861 200.88 
L 340.402536 200.88 
L 340.851009 209.952 
L 341.299482 200.88 
L 341.747955 200.88 
L 342.196428 209.952 
L 342.644901 200.88 
L 343.093374 200.88 
L 343.541847 209.952 
L 343.99032 209.952 
L 344.438793 200.88 
L 349.820468 200.88 
L 350.268941 209.952 
L 350.717414 200.88 
L 356.099089 200.88 
L 356.547562 209.952 
L 356.996035 200.88 
L 361.032291 200.88 
L 361.480764 209.952 
L 361.929237 200.88 
L 362.826183 200.88 
L 363.274656 209.952 
L 363.723129 209.952 
L 364.171602 200.88 
L 365.068548 200.88 
L 365.517021 209.952 
L 365.965494 200.88 
L 366.413967 200.88 
L 366.86244 209.952 
L 367.310913 200.88 
L 373.141061 200.88 
L 373.589534 209.952 
L 374.038007 200.88 
L 375.831899 200.88 
L 376.280371 209.952 
L 376.728844 200.88 
L 385.24983 200.88 
L 385.698303 209.952 
L 386.146776 200.88 
L 393.322343 200.88 
L 393.770816 209.952 
L 394.219289 209.952 
L 394.667762 200.88 
L 398.704019 200.88 
L 399.152492 209.952 
L 399.600964 200.88 
L 403.188748 200.88 
L 403.637221 209.952 
L 404.085694 200.88 
L 406.328059 200.88 
L 406.776532 209.952 
L 407.225004 200.88 
L 410.812788 200.88 
L 411.261261 209.952 
L 411.709734 209.952 
L 412.158207 200.88 
L 412.60668 200.88 
L 413.055153 209.952 
L 413.503626 200.88 
L 415.74599 200.88 
L 416.194463 209.952 
L 416.642936 200.88 
L 423.818503 200.88 
L 424.266976 209.952 
L 424.715449 209.952 
L 425.163922 200.88 
L 437.272692 200.88 
L 437.721164 209.952 
L 438.169637 200.88 
L 448.036042 200.88 
L 448.484515 209.952 
L 448.932988 200.88 
L 452.969245 200.88 
L 453.417717 209.952 
L 453.86619 200.88 
L 454.763136 200.88 
L 455.211609 209.952 
L 455.660082 200.88 
L 459.247866 200.88 
L 459.696339 209.952 
L 460.144812 200.88 
L 461.041757 200.88 
L 461.49023 209.952 
L 461.938703 200.88 
L 470.459689 200.88 
L 470.908162 209.952 
L 471.356635 200.88 
L 475.392892 200.88 
L 475.841365 209.952 
L 476.289837 209.952 
L 476.73831 200.88 
L 479.877621 200.88 
L 480.326094 209.952 
L 480.774567 200.88 
L 485.259296 200.88 
L 485.707769 209.952 
L 486.156242 200.88 
L 498.713485 200.88 
L 499.161957 209.952 
L 499.61043 200.88 
L 532.348955 200.88 
L 532.797428 219.024 
L 533.245901 200.88 
L 536.385212 200.88 
L 536.833685 219.024 
L 537.282158 200.88 
L 537.73063 219.024 
L 538.179103 200.88 
L 541.318414 200.88 
L 541.766887 219.024 
L 542.21536 200.88 
L 549.8394 200.88 
L 550.287873 219.024 
L 550.736346 200.88 
L 581.232506 200.88 
L 581.680979 219.024 
L 582.129452 200.88 
L 588.856546 200.88 
L 589.305019 219.024 
L 589.753492 200.88 
L 590.201965 200.88 
L 590.650438 219.024 
L 591.098911 200.88 
L 599.171423 200.88 
L 599.619896 219.024 
L 600.068369 200.88 
L 620.249652 200.88 
L 620.698125 219.024 
L 621.146598 200.88 
L 666.442365 200.88 
L 666.890838 219.024 
L 667.339311 200.88 
L 727.434685 200.88 
L 727.883158 219.024 
L 728.331631 200.88 
L 729.228577 200.88 
L 729.677049 219.024 
L 730.125522 200.88 
L 731.470941 200.88 
L 731.919414 219.024 
L 732.367887 200.88 
L 744.476657 200.88 
L 744.925129 237.168 
L 745.373602 200.88 
L 760.621682 200.88 
L 761.070155 219.024 
L 761.518628 200.88 
L 788.427005 200.88 
L 788.875478 219.024 
L 789.323951 200.88 
L 817.129273 200.88 
L 817.577746 219.024 
L 818.026219 200.88 
L 913.102483 200.88 
L 913.550956 219.024 
L 913.999428 200.88 
L 916.241793 200.88 
L 916.690266 219.024 
L 917.138739 200.88 
L 933.283765 200.88 
L 933.732238 219.024 
L 934.180711 200.88 
L 966.919236 200.88 
L 967.367709 219.024 
L 967.816181 200.88 
L 1024.323772 200.88 
L 1024.772245 219.024 
L 1025.220718 200.88 
L 1058.407716 200.88 
L 1058.856189 219.024 
L 1059.304662 200.88 
L 1120.296982 200.88 
L 1120.745455 219.024 
L 1120.745455 219.024 
" clip-path="url(#p62b06994ec)" style="fill: none; stroke-dasharray: 6.4,1.6,1,1.6; stroke-dashoffset: 0; stroke: #2ca02c"/>
   </g>
   <g id="patch_3">
    <path d="M 162 1153.44 
L 162 155.52 
" style="fill: none; stroke: #000000; stroke-width: 0.8; stroke-linejoin: miter; stroke-linecap: square"/>
   </g>
   <g id="patch_4">
    <path d="M 1166.4 1153.44 
L 1166.4 155.52 
" style="fill: none; stroke: #000000; stroke-width: 0.8; stroke-linejoin: miter; stroke-linecap: square"/>
   </g>
   <g id="patch_5">
    <path d="M 162 1153.44 
L 1166.4 1153.44 
" style="fill: none; stroke: #000000; stroke-width: 0.8; stroke-linejoin: miter; stroke-linecap: square"/>
   </g>
   <g id="patch_6">
    <path d="M 162 155.52 
L 1166.4 155.52 
" style="fill: none; stroke: #000000; stroke-width: 0.8; stroke-linejoin: miter; stroke-linecap: square"/>
   </g>
   <g id="legend_1">
    <g id="patch_7">
     <path d="M 169 1148.44 
L 252.00625 1148.44 
Q 254.00625 1148.44 254.00625 1146.44 
L 254.00625 1103.405625 
Q 254.00625 1101.405625 252.00625 1101.405625 
L 169 1101.405625 
Q 167 1101.405625 167 1103.405625 
L 167 1146.44 
Q 167 1148.44 169 1148.44 
z
" style="fill: #ffffff; opacity: 0.8; stroke: #cccccc; stroke-linejoin: miter"/>
    </g>
    <g id="line2d_19">
     <path d="M 171 1109.504063 
L 181 1109.504063 
L 191 1109.504063 
" style="fill: none; stroke: #1f77b4; stroke-linecap: square"/>
    </g>
    <g id="text_18">
     <!-- default -->
     <g transform="translate(199 1113.004063) scale(0.1 -0.1)">
      <defs>
       <path id="DejaVuSans-64" d="M 2906 2969 
L 2906 4863 
L 3481 4863 
L 3481 0 
L 2906 0 
L 2906 525 
Q 2725 213 2448 61 
Q 2172 -91 1784 -91 
Q 1150 -91 751 415 
Q 353 922 353 1747 
Q 353 2572 751 3078 
Q 1150 3584 1784 3584 
Q 2172 3584 2448 3432 
Q 2725 3281 2906 2969 
z
M 947 1747 
Q 947 1113 1208 752 
Q 1469 391 1925 391 
Q 2381 391 2643 752 
Q 2906 1113 2906 1747 
Q 2906 2381 2643 2742 
Q 2381 3103 1925 3103 
Q 1469 3103 1208 2742 
Q 947 2381 947 1747 
z
" transform="scale(0.015625)"/>
       <path id="DejaVuSans-75" d="M 544 1381 
L 544 3500 
L 1119 3500 
L 1119 1403 
Q 1119 906 1312 657 
Q 1506 409 1894 409 
Q 2359 409 2629 706 
Q 2900 1003 2900 1516 
L 2900 3500 
L 3475 3500 
L 3475 0 
L 2900 0 
L 2900 538 
Q 2691 219 2414 64 
Q 2138 -91 1772 -91 
Q 1169 -91 856 284 
Q 544 659 544 1381 
z
M 1991 3584 
L 1991 3584 
z
" transform="scale(0.015625)"/>
      </defs>
      <use xlink:href="#DejaVuSans-64"/>
      <use xlink:href="#DejaVuSans-65" x="63.476562"/>
      <use xlink:href="#DejaVuSans-66" x="125"/>
      <use xlink:href="#DejaVuSans-61" x="160.205078"/>
      <use xlink:href="#DejaVuSans-75" x="221.484375"/>
      <use xlink:href="#DejaVuSans-6c" x="284.863281"/>
      <use xlink:href="#DejaVuSans-74" x="312.646484"/>
     </g>
    </g>
    <g id="line2d_20">
     <path d="M 171 1124.182188 
L 181 1124.182188 
L 191 1124.182188 
" style="fill: none; stroke: #ff7f0e; stroke-linecap: square"/>
    </g>
    <g id="text_19">
     <!-- serverless -->
     <g transform="translate(199 1127.682188) scale(0.1 -0.1)">
      <defs>
       <path id="DejaVuSans-76" d="M 191 3500 
L 800 3500 
L 1894 563 
L 2988 3500 
L 3597 3500 
L 2284 0 
L 1503 0 
L 191 3500 
z
" transform="scale(0.015625)"/>
      </defs>
      <use xlink:href="#DejaVuSans-73"/>
      <use xlink:href="#DejaVuSans-65" x="52.099609"/>
      <use xlink:href="#DejaVuSans-72" x="113.623047"/>
      <use xlink:href="#DejaVuSans-76" x="154.736328"/>
      <use xlink:href="#DejaVuSans-65" x="213.916016"/>
      <use xlink:href="#DejaVuSans-72" x="275.439453"/>
      <use xlink:href="#DejaVuSans-6c" x="316.552734"/>
      <use xlink:href="#DejaVuSans-65" x="344.335938"/>
      <use xlink:href="#DejaVuSans-73" x="405.859375"/>
      <use xlink:href="#DejaVuSans-73" x="457.958984"/>
     </g>
    </g>
    <g id="line2d_21">
     <path d="M 171 1138.860312 
L 181 1138.860312 
L 191 1138.860312 
" style="fill: none; stroke-dasharray: 6.4,1.6,1,1.6; stroke-dashoffset: 0; stroke: #2ca02c"/>
    </g>
    <g id="text_20">
     <!-- server -->
     <g transform="translate(199 1142.360312) scale(0.1 -0.1)">
      <use xlink:href="#DejaVuSans-73"/>
      <use xlink:href="#DejaVuSans-65" x="52.099609"/>
      <use xlink:href="#DejaVuSans-72" x="113.623047"/>
      <use xlink:href="#DejaVuSans-76" x="154.736328"/>
      <use xlink:href="#DejaVuSans-65" x="213.916016"/>
      <use xlink:href="#DejaVuSans-72" x="275.439453"/>
     </g>
    </g>
   </g>
  </g>
 </g>
 <defs>
  <clipPath id="p62b06994ec">
   <rect x="162" y="155.52" width="1004.4" height="997.92"/>
  </clipPath>
 </defs>
</svg>
