<?xml version="1.0" encoding="utf-8" standalone="no"?>
<!DOCTYPE svg PUBLIC "-//W3C//DTD SVG 1.1//EN"
  "http://www.w3.org/Graphics/SVG/1.1/DTD/svg11.dtd">
<svg xmlns:xlink="http://www.w3.org/1999/xlink" width="1296pt" height="1296pt" viewBox="0 0 1296 1296" xmlns="http://www.w3.org/2000/svg" version="1.1">
 <metadata>
  <rdf:RDF xmlns:dc="http://purl.org/dc/elements/1.1/" xmlns:cc="http://creativecommons.org/ns#" xmlns:rdf="http://www.w3.org/1999/02/22-rdf-syntax-ns#">
   <cc:Work>
    <dc:type rdf:resource="http://purl.org/dc/dcmitype/StillImage"/>
    <dc:date>2023-10-17T14:37:08.950022</dc:date>
    <dc:format>image/svg+xml</dc:format>
    <dc:creator>
     <cc:Agent>
      <dc:title>Matplotlib v3.7.1, https://matplotlib.org/</dc:title>
     </cc:Agent>
    </dc:creator>
   </cc:Work>
  </rdf:RDF>
 </metadata>
 <defs>
  <style type="text/css">*{stroke-linejoin: round; stroke-linecap: butt}</style>
 </defs>
 <g id="figure_1">
  <g id="patch_1">
   <path d="M 0 1296 
L 1296 1296 
L 1296 0 
L 0 0 
z
" style="fill: #ffffff"/>
  </g>
  <g id="axes_1">
   <g id="patch_2">
    <path d="M 162 1153.44 
L 1166.4 1153.44 
L 1166.4 155.52 
L 162 155.52 
z
" style="fill: #ffffff"/>
   </g>
   <g id="matplotlib.axis_1">
    <g id="xtick_1">
     <g id="line2d_1">
      <defs>
       <path id="maef896ca02" d="M 0 0 
L 0 3.5 
" style="stroke: #000000; stroke-width: 0.8"/>
      </defs>
      <g>
       <use xlink:href="#maef896ca02" x="207.490468" y="1153.44" style="stroke: #000000; stroke-width: 0.8"/>
      </g>
     </g>
     <g id="text_1">
      <!-- 0 -->
      <g transform="translate(204.309218 1168.038438) scale(0.1 -0.1)">
       <defs>
        <path id="DejaVuSans-30" d="M 2034 4250 
Q 1547 4250 1301 3770 
Q 1056 3291 1056 2328 
Q 1056 1369 1301 889 
Q 1547 409 2034 409 
Q 2525 409 2770 889 
Q 3016 1369 3016 2328 
Q 3016 3291 2770 3770 
Q 2525 4250 2034 4250 
z
M 2034 4750 
Q 2819 4750 3233 4129 
Q 3647 3509 3647 2328 
Q 3647 1150 3233 529 
Q 2819 -91 2034 -91 
Q 1250 -91 836 529 
Q 422 1150 422 2328 
Q 422 3509 836 4129 
Q 1250 4750 2034 4750 
z
" transform="scale(0.015625)"/>
       </defs>
       <use xlink:href="#DejaVuSans-30"/>
      </g>
     </g>
    </g>
    <g id="xtick_2">
     <g id="line2d_2">
      <g>
       <use xlink:href="#maef896ca02" x="371.5679" y="1153.44" style="stroke: #000000; stroke-width: 0.8"/>
      </g>
     </g>
     <g id="text_2">
      <!-- 1000 -->
      <g transform="translate(358.8429 1168.038438) scale(0.1 -0.1)">
       <defs>
        <path id="DejaVuSans-31" d="M 794 531 
L 1825 531 
L 1825 4091 
L 703 3866 
L 703 4441 
L 1819 4666 
L 2450 4666 
L 2450 531 
L 3481 531 
L 3481 0 
L 794 0 
L 794 531 
z
" transform="scale(0.015625)"/>
       </defs>
       <use xlink:href="#DejaVuSans-31"/>
       <use xlink:href="#DejaVuSans-30" x="63.623047"/>
       <use xlink:href="#DejaVuSans-30" x="127.246094"/>
       <use xlink:href="#DejaVuSans-30" x="190.869141"/>
      </g>
     </g>
    </g>
    <g id="xtick_3">
     <g id="line2d_3">
      <g>
       <use xlink:href="#maef896ca02" x="535.645332" y="1153.44" style="stroke: #000000; stroke-width: 0.8"/>
      </g>
     </g>
     <g id="text_3">
      <!-- 2000 -->
      <g transform="translate(522.920332 1168.038438) scale(0.1 -0.1)">
       <defs>
        <path id="DejaVuSans-32" d="M 1228 531 
L 3431 531 
L 3431 0 
L 469 0 
L 469 531 
Q 828 903 1448 1529 
Q 2069 2156 2228 2338 
Q 2531 2678 2651 2914 
Q 2772 3150 2772 3378 
Q 2772 3750 2511 3984 
Q 2250 4219 1831 4219 
Q 1534 4219 1204 4116 
Q 875 4013 500 3803 
L 500 4441 
Q 881 4594 1212 4672 
Q 1544 4750 1819 4750 
Q 2544 4750 2975 4387 
Q 3406 4025 3406 3419 
Q 3406 3131 3298 2873 
Q 3191 2616 2906 2266 
Q 2828 2175 2409 1742 
Q 1991 1309 1228 531 
z
" transform="scale(0.015625)"/>
       </defs>
       <use xlink:href="#DejaVuSans-32"/>
       <use xlink:href="#DejaVuSans-30" x="63.623047"/>
       <use xlink:href="#DejaVuSans-30" x="127.246094"/>
       <use xlink:href="#DejaVuSans-30" x="190.869141"/>
      </g>
     </g>
    </g>
    <g id="xtick_4">
     <g id="line2d_4">
      <g>
       <use xlink:href="#maef896ca02" x="699.722764" y="1153.44" style="stroke: #000000; stroke-width: 0.8"/>
      </g>
     </g>
     <g id="text_4">
      <!-- 3000 -->
      <g transform="translate(686.997764 1168.038438) scale(0.1 -0.1)">
       <defs>
        <path id="DejaVuSans-33" d="M 2597 2516 
Q 3050 2419 3304 2112 
Q 3559 1806 3559 1356 
Q 3559 666 3084 287 
Q 2609 -91 1734 -91 
Q 1441 -91 1130 -33 
Q 819 25 488 141 
L 488 750 
Q 750 597 1062 519 
Q 1375 441 1716 441 
Q 2309 441 2620 675 
Q 2931 909 2931 1356 
Q 2931 1769 2642 2001 
Q 2353 2234 1838 2234 
L 1294 2234 
L 1294 2753 
L 1863 2753 
Q 2328 2753 2575 2939 
Q 2822 3125 2822 3475 
Q 2822 3834 2567 4026 
Q 2313 4219 1838 4219 
Q 1578 4219 1281 4162 
Q 984 4106 628 3988 
L 628 4550 
Q 988 4650 1302 4700 
Q 1616 4750 1894 4750 
Q 2613 4750 3031 4423 
Q 3450 4097 3450 3541 
Q 3450 3153 3228 2886 
Q 3006 2619 2597 2516 
z
" transform="scale(0.015625)"/>
       </defs>
       <use xlink:href="#DejaVuSans-33"/>
       <use xlink:href="#DejaVuSans-30" x="63.623047"/>
       <use xlink:href="#DejaVuSans-30" x="127.246094"/>
       <use xlink:href="#DejaVuSans-30" x="190.869141"/>
      </g>
     </g>
    </g>
    <g id="xtick_5">
     <g id="line2d_5">
      <g>
       <use xlink:href="#maef896ca02" x="863.800196" y="1153.44" style="stroke: #000000; stroke-width: 0.8"/>
      </g>
     </g>
     <g id="text_5">
      <!-- 4000 -->
      <g transform="translate(851.075196 1168.038438) scale(0.1 -0.1)">
       <defs>
        <path id="DejaVuSans-34" d="M 2419 4116 
L 825 1625 
L 2419 1625 
L 2419 4116 
z
M 2253 4666 
L 3047 4666 
L 3047 1625 
L 3713 1625 
L 3713 1100 
L 3047 1100 
L 3047 0 
L 2419 0 
L 2419 1100 
L 313 1100 
L 313 1709 
L 2253 4666 
z
" transform="scale(0.015625)"/>
       </defs>
       <use xlink:href="#DejaVuSans-34"/>
       <use xlink:href="#DejaVuSans-30" x="63.623047"/>
       <use xlink:href="#DejaVuSans-30" x="127.246094"/>
       <use xlink:href="#DejaVuSans-30" x="190.869141"/>
      </g>
     </g>
    </g>
    <g id="xtick_6">
     <g id="line2d_6">
      <g>
       <use xlink:href="#maef896ca02" x="1027.877628" y="1153.44" style="stroke: #000000; stroke-width: 0.8"/>
      </g>
     </g>
     <g id="text_6">
      <!-- 5000 -->
      <g transform="translate(1015.152628 1168.038438) scale(0.1 -0.1)">
       <defs>
        <path id="DejaVuSans-35" d="M 691 4666 
L 3169 4666 
L 3169 4134 
L 1269 4134 
L 1269 2991 
Q 1406 3038 1543 3061 
Q 1681 3084 1819 3084 
Q 2600 3084 3056 2656 
Q 3513 2228 3513 1497 
Q 3513 744 3044 326 
Q 2575 -91 1722 -91 
Q 1428 -91 1123 -41 
Q 819 9 494 109 
L 494 744 
Q 775 591 1075 516 
Q 1375 441 1709 441 
Q 2250 441 2565 725 
Q 2881 1009 2881 1497 
Q 2881 1984 2565 2268 
Q 2250 2553 1709 2553 
Q 1456 2553 1204 2497 
Q 953 2441 691 2322 
L 691 4666 
z
" transform="scale(0.015625)"/>
       </defs>
       <use xlink:href="#DejaVuSans-35"/>
       <use xlink:href="#DejaVuSans-30" x="63.623047"/>
       <use xlink:href="#DejaVuSans-30" x="127.246094"/>
       <use xlink:href="#DejaVuSans-30" x="190.869141"/>
      </g>
     </g>
    </g>
    <g id="text_7">
     <!-- lifetime -->
     <g transform="translate(645.289062 1181.716563) scale(0.1 -0.1)">
      <defs>
       <path id="DejaVuSans-6c" d="M 603 4863 
L 1178 4863 
L 1178 0 
L 603 0 
L 603 4863 
z
" transform="scale(0.015625)"/>
       <path id="DejaVuSans-69" d="M 603 3500 
L 1178 3500 
L 1178 0 
L 603 0 
L 603 3500 
z
M 603 4863 
L 1178 4863 
L 1178 4134 
L 603 4134 
L 603 4863 
z
" transform="scale(0.015625)"/>
       <path id="DejaVuSans-66" d="M 2375 4863 
L 2375 4384 
L 1825 4384 
Q 1516 4384 1395 4259 
Q 1275 4134 1275 3809 
L 1275 3500 
L 2222 3500 
L 2222 3053 
L 1275 3053 
L 1275 0 
L 697 0 
L 697 3053 
L 147 3053 
L 147 3500 
L 697 3500 
L 697 3744 
Q 697 4328 969 4595 
Q 1241 4863 1831 4863 
L 2375 4863 
z
" transform="scale(0.015625)"/>
       <path id="DejaVuSans-65" d="M 3597 1894 
L 3597 1613 
L 953 1613 
Q 991 1019 1311 708 
Q 1631 397 2203 397 
Q 2534 397 2845 478 
Q 3156 559 3463 722 
L 3463 178 
Q 3153 47 2828 -22 
Q 2503 -91 2169 -91 
Q 1331 -91 842 396 
Q 353 884 353 1716 
Q 353 2575 817 3079 
Q 1281 3584 2069 3584 
Q 2775 3584 3186 3129 
Q 3597 2675 3597 1894 
z
M 3022 2063 
Q 3016 2534 2758 2815 
Q 2500 3097 2075 3097 
Q 1594 3097 1305 2825 
Q 1016 2553 972 2059 
L 3022 2063 
z
" transform="scale(0.015625)"/>
       <path id="DejaVuSans-74" d="M 1172 4494 
L 1172 3500 
L 2356 3500 
L 2356 3053 
L 1172 3053 
L 1172 1153 
Q 1172 725 1289 603 
Q 1406 481 1766 481 
L 2356 481 
L 2356 0 
L 1766 0 
Q 1100 0 847 248 
Q 594 497 594 1153 
L 594 3053 
L 172 3053 
L 172 3500 
L 594 3500 
L 594 4494 
L 1172 4494 
z
" transform="scale(0.015625)"/>
       <path id="DejaVuSans-6d" d="M 3328 2828 
Q 3544 3216 3844 3400 
Q 4144 3584 4550 3584 
Q 5097 3584 5394 3201 
Q 5691 2819 5691 2113 
L 5691 0 
L 5113 0 
L 5113 2094 
Q 5113 2597 4934 2840 
Q 4756 3084 4391 3084 
Q 3944 3084 3684 2787 
Q 3425 2491 3425 1978 
L 3425 0 
L 2847 0 
L 2847 2094 
Q 2847 2600 2669 2842 
Q 2491 3084 2119 3084 
Q 1678 3084 1418 2786 
Q 1159 2488 1159 1978 
L 1159 0 
L 581 0 
L 581 3500 
L 1159 3500 
L 1159 2956 
Q 1356 3278 1631 3431 
Q 1906 3584 2284 3584 
Q 2666 3584 2933 3390 
Q 3200 3197 3328 2828 
z
" transform="scale(0.015625)"/>
      </defs>
      <use xlink:href="#DejaVuSans-6c"/>
      <use xlink:href="#DejaVuSans-69" x="27.783203"/>
      <use xlink:href="#DejaVuSans-66" x="55.566406"/>
      <use xlink:href="#DejaVuSans-65" x="90.771484"/>
      <use xlink:href="#DejaVuSans-74" x="152.294922"/>
      <use xlink:href="#DejaVuSans-69" x="191.503906"/>
      <use xlink:href="#DejaVuSans-6d" x="219.287109"/>
      <use xlink:href="#DejaVuSans-65" x="316.699219"/>
     </g>
    </g>
   </g>
   <g id="matplotlib.axis_2">
    <g id="ytick_1">
     <g id="line2d_7">
      <defs>
       <path id="mf70aa704d3" d="M 0 0 
L -3.5 0 
" style="stroke: #000000; stroke-width: 0.8"/>
      </defs>
      <g>
       <use xlink:href="#mf70aa704d3" x="162" y="1108.08" style="stroke: #000000; stroke-width: 0.8"/>
      </g>
     </g>
     <g id="text_8">
      <!-- 0 -->
      <g transform="translate(148.6375 1111.879219) scale(0.1 -0.1)">
       <use xlink:href="#DejaVuSans-30"/>
      </g>
     </g>
    </g>
    <g id="ytick_2">
     <g id="line2d_8">
      <g>
       <use xlink:href="#mf70aa704d3" x="162" y="965.149747" style="stroke: #000000; stroke-width: 0.8"/>
      </g>
     </g>
     <g id="text_9">
      <!-- 10 -->
      <g transform="translate(142.275 968.948965) scale(0.1 -0.1)">
       <use xlink:href="#DejaVuSans-31"/>
       <use xlink:href="#DejaVuSans-30" x="63.623047"/>
      </g>
     </g>
    </g>
    <g id="ytick_3">
     <g id="line2d_9">
      <g>
       <use xlink:href="#mf70aa704d3" x="162" y="822.219493" style="stroke: #000000; stroke-width: 0.8"/>
      </g>
     </g>
     <g id="text_10">
      <!-- 20 -->
      <g transform="translate(142.275 826.018712) scale(0.1 -0.1)">
       <use xlink:href="#DejaVuSans-32"/>
       <use xlink:href="#DejaVuSans-30" x="63.623047"/>
      </g>
     </g>
    </g>
    <g id="ytick_4">
     <g id="line2d_10">
      <g>
       <use xlink:href="#mf70aa704d3" x="162" y="679.28924" style="stroke: #000000; stroke-width: 0.8"/>
      </g>
     </g>
     <g id="text_11">
      <!-- 30 -->
      <g transform="translate(142.275 683.088459) scale(0.1 -0.1)">
       <use xlink:href="#DejaVuSans-33"/>
       <use xlink:href="#DejaVuSans-30" x="63.623047"/>
      </g>
     </g>
    </g>
    <g id="ytick_5">
     <g id="line2d_11">
      <g>
       <use xlink:href="#mf70aa704d3" x="162" y="536.358987" style="stroke: #000000; stroke-width: 0.8"/>
      </g>
     </g>
     <g id="text_12">
      <!-- 40 -->
      <g transform="translate(142.275 540.158205) scale(0.1 -0.1)">
       <use xlink:href="#DejaVuSans-34"/>
       <use xlink:href="#DejaVuSans-30" x="63.623047"/>
      </g>
     </g>
    </g>
    <g id="ytick_6">
     <g id="line2d_12">
      <g>
       <use xlink:href="#mf70aa704d3" x="162" y="393.428733" style="stroke: #000000; stroke-width: 0.8"/>
      </g>
     </g>
     <g id="text_13">
      <!-- 50 -->
      <g transform="translate(142.275 397.227952) scale(0.1 -0.1)">
       <use xlink:href="#DejaVuSans-35"/>
       <use xlink:href="#DejaVuSans-30" x="63.623047"/>
      </g>
     </g>
    </g>
    <g id="ytick_7">
     <g id="line2d_13">
      <g>
       <use xlink:href="#mf70aa704d3" x="162" y="250.49848" style="stroke: #000000; stroke-width: 0.8"/>
      </g>
     </g>
     <g id="text_14">
      <!-- 60 -->
      <g transform="translate(142.275 254.297699) scale(0.1 -0.1)">
       <defs>
        <path id="DejaVuSans-36" d="M 2113 2584 
Q 1688 2584 1439 2293 
Q 1191 2003 1191 1497 
Q 1191 994 1439 701 
Q 1688 409 2113 409 
Q 2538 409 2786 701 
Q 3034 994 3034 1497 
Q 3034 2003 2786 2293 
Q 2538 2584 2113 2584 
z
M 3366 4563 
L 3366 3988 
Q 3128 4100 2886 4159 
Q 2644 4219 2406 4219 
Q 1781 4219 1451 3797 
Q 1122 3375 1075 2522 
Q 1259 2794 1537 2939 
Q 1816 3084 2150 3084 
Q 2853 3084 3261 2657 
Q 3669 2231 3669 1497 
Q 3669 778 3244 343 
Q 2819 -91 2113 -91 
Q 1303 -91 875 529 
Q 447 1150 447 2328 
Q 447 3434 972 4092 
Q 1497 4750 2381 4750 
Q 2619 4750 2861 4703 
Q 3103 4656 3366 4563 
z
" transform="scale(0.015625)"/>
       </defs>
       <use xlink:href="#DejaVuSans-36"/>
       <use xlink:href="#DejaVuSans-30" x="63.623047"/>
      </g>
     </g>
    </g>
    <g id="text_15">
     <!-- nJ -->
     <g transform="translate(136.195312 659.12375) rotate(-90) scale(0.1 -0.1)">
      <defs>
       <path id="DejaVuSans-6e" d="M 3513 2113 
L 3513 0 
L 2938 0 
L 2938 2094 
Q 2938 2591 2744 2837 
Q 2550 3084 2163 3084 
Q 1697 3084 1428 2787 
Q 1159 2491 1159 1978 
L 1159 0 
L 581 0 
L 581 3500 
L 1159 3500 
L 1159 2956 
Q 1366 3272 1645 3428 
Q 1925 3584 2291 3584 
Q 2894 3584 3203 3211 
Q 3513 2838 3513 2113 
z
" transform="scale(0.015625)"/>
       <path id="DejaVuSans-4a" d="M 628 4666 
L 1259 4666 
L 1259 325 
Q 1259 -519 939 -900 
Q 619 -1281 -91 -1281 
L -331 -1281 
L -331 -750 
L -134 -750 
Q 284 -750 456 -515 
Q 628 -281 628 325 
L 628 4666 
z
" transform="scale(0.015625)"/>
      </defs>
      <use xlink:href="#DejaVuSans-6e"/>
      <use xlink:href="#DejaVuSans-4a" x="63.378906"/>
     </g>
    </g>
   </g>
   <g id="line2d_14">
    <path d="M 207.654545 200.88 
L 207.818623 884.737418 
L 208.146778 1027.421051 
L 208.310855 1049.628639 
L 208.474933 1051.273502 
L 208.803087 1078.626885 
L 209.131242 1088.637649 
L 209.459397 1088.646225 
L 209.623475 1089.791538 
L 209.787552 1091.910462 
L 210.115707 1087.290416 
L 210.279784 1087.890165 
L 210.443862 1091.809858 
L 210.607939 1092.346741 
L 210.936094 1097.658572 
L 211.100172 1095.856271 
L 211.264249 1096.499688 
L 211.428326 1096.632468 
L 211.592404 1095.364993 
L 211.756481 1098.80463 
L 211.920559 1096.294657 
L 212.084636 1096.379307 
L 212.248714 1095.609165 
L 212.412791 1096.092244 
L 212.576868 1096.092244 
L 212.740946 1093.420042 
L 213.069101 1093.551486 
L 213.233178 1093.551486 
L 213.397256 1094.016911 
L 213.561333 1092.299567 
L 213.72541 1085.383439 
L 213.889488 1098.138304 
L 214.053565 1093.386466 
L 214.38172 1103.795559 
L 215.03803 1103.808422 
L 215.366185 1104.263218 
L 215.530262 1104.778042 
L 215.69434 1104.778042 
L 216.186572 1102.871005 
L 216.350649 1103.040083 
L 216.514727 1102.791392 
L 216.678804 1100.620704 
L 216.842882 1100.237545 
L 217.335114 1100.237545 
L 217.499191 1099.718853 
L 217.663269 1097.75041 
L 217.827346 1097.979111 
L 217.991424 1097.979111 
L 218.155501 1102.111155 
L 218.319579 1102.205875 
L 218.483656 1087.44393 
L 218.647733 1086.457496 
L 218.811811 1090.188557 
L 219.139966 1103.608779 
L 219.304043 1103.608779 
L 219.632198 1097.493702 
L 219.796275 1098.930401 
L 219.960353 1098.930401 
L 220.12443 1095.182743 
L 220.288508 1104.985447 
L 220.452585 1105.612335 
L 220.616663 1105.612335 
L 220.78074 1105.424376 
L 221.272972 1105.424376 
L 221.43705 1099.957551 
L 221.601127 1099.967556 
L 221.765205 1105.440098 
L 221.929282 1105.440098 
L 222.093359 1087.11958 
L 222.257437 1105.404366 
L 222.421514 1105.802562 
L 222.749669 1096.235155 
L 222.913747 1101.002772 
L 223.077824 1100.467808 
L 223.241901 1103.708996 
L 223.570056 1103.708996 
L 223.734134 1102.316242 
L 223.898211 1091.567283 
L 224.062289 1102.321959 
L 224.226366 1102.62946 
L 224.554521 1102.632318 
L 224.718598 1103.919182 
L 225.046753 1103.817893 
L 225.210831 1104.951586 
L 225.538986 1103.885863 
L 225.703063 1103.900156 
L 225.86714 1104.397016 
L 227.17976 1104.340048 
L 227.343837 1099.956547 
L 227.507915 1085.458846 
L 227.671992 1085.458846 
L 227.83607 1101.043709 
L 228.000147 1100.80777 
L 228.164224 1094.252228 
L 228.656457 1105.123882 
L 229.476844 1105.123882 
L 229.804999 1105.659713 
L 229.969076 1105.397874 
L 230.461309 1106.170206 
L 231.773928 1106.263341 
L 231.938005 1105.760164 
L 232.758393 1105.670392 
L 232.92247 1105.602772 
L 233.086547 1097.704711 
L 233.250625 1105.609919 
L 233.742857 1105.609919 
L 233.906935 1105.871838 
L 235.219554 1105.964841 
L 235.383631 1105.173136 
L 235.547709 1095.376413 
L 235.875864 1102.031435 
L 236.039941 1102.149077 
L 236.204019 1104.805034 
L 236.532173 1104.716064 
L 236.696251 1104.72464 
L 236.860328 1100.539443 
L 237.024406 1099.439981 
L 237.188483 1099.144584 
L 237.516638 1099.144584 
L 237.680716 1101.711535 
L 238.00887 1101.711535 
L 238.172948 1104.070818 
L 238.501103 1104.072248 
L 238.66518 1104.335516 
L 238.829258 1097.795588 
L 238.993335 1105.460705 
L 239.32149 1105.460705 
L 239.485567 1105.23922 
L 239.9778 1105.23922 
L 240.141877 1105.834226 
L 240.470032 1105.834226 
L 240.634109 1106.352844 
L 241.126342 1106.352844 
L 241.290419 1106.611281 
L 244.571968 1106.631291 
L 244.736045 1106.928118 
L 245.0642 1106.928118 
L 245.392355 1103.618171 
L 245.72051 1103.618171 
L 246.048665 1106.932406 
L 246.869052 1106.932406 
L 247.033129 1102.8877 
L 248.345749 1102.945512 
L 248.509826 1104.413978 
L 248.673903 1107.032349 
L 248.837981 1094.586421 
L 249.002058 1107.026632 
L 249.166136 1107.249546 
L 253.103994 1107.314013 
L 253.268072 1101.64719 
L 253.596226 1101.64719 
L 253.760304 1105.451679 
L 253.924381 1092.534679 
L 254.088459 1105.453108 
L 254.252536 1105.453108 
L 254.416614 1107.321159 
L 257.041852 1107.408559 
L 257.534085 1107.455789 
L 259.667091 1107.457218 
L 259.831169 1097.373571 
L 259.995246 1107.461506 
L 260.815633 1107.461506 
L 260.979711 1084.110567 
L 261.143788 1107.464364 
L 262.128253 1107.464364 
L 262.29233 1092.155856 
L 262.456408 1107.477228 
L 262.784563 1107.481516 
L 262.94864 1095.05349 
L 263.112717 1107.485804 
L 265.573879 1107.490092 
L 265.902034 1099.023962 
L 266.066111 1104.035808 
L 266.230189 1104.035808 
L 266.394266 1107.492951 
L 275.09037 1107.601872 
L 275.254447 1104.698056 
L 275.582602 1104.698056 
L 275.74668 1098.637095 
L 275.910757 1101.545199 
L 276.074835 1107.60759 
L 276.895222 1107.604731 
L 277.059299 1094.64458 
L 277.223377 1106.951323 
L 278.700074 1106.951323 
L 278.864151 1103.738237 
L 279.028228 1103.738237 
L 279.192306 1090.463385 
L 279.356383 1106.964187 
L 280.17677 1106.964187 
L 280.340848 1107.620453 
L 287.88841 1107.620453 
L 288.052487 1098.453325 
L 288.216565 1107.611878 
L 288.380642 1107.611878 
L 288.544719 1098.233909 
L 288.708797 1107.609019 
L 289.365107 1107.609019 
L 289.529184 1102.146046 
L 289.857339 1102.150024 
L 290.021416 1107.620453 
L 290.185494 1106.134173 
L 291.169958 1106.134173 
L 291.334036 1107.621883 
L 293.795197 1107.623312 
L 293.959275 1106.626596 
L 294.28743 1106.626596 
L 294.451507 1103.033875 
L 294.779662 1103.035305 
L 294.943739 1106.628026 
L 295.928204 1106.640889 
L 296.092281 1107.639034 
L 301.670914 1107.673714 
L 301.999069 1102.60831 
L 302.327224 1102.60831 
L 302.491301 1105.289098 
L 302.655379 1105.289098 
L 302.819456 1107.676573 
L 303.147611 1107.676573 
L 303.311688 1099.836657 
L 303.475766 1107.659421 
L 305.77285 1107.680861 
L 305.936927 1096.814595 
L 306.101005 1107.690866 
L 307.249547 1107.748613 
L 316.60196 1107.819184 
L 316.766038 1106.140093 
L 317.25827 1106.141522 
L 317.422347 1103.863322 
L 317.750502 1103.863322 
L 317.91458 1105.543842 
L 318.078657 1105.543842 
L 318.242735 1107.823472 
L 319.719432 1107.823472 
L 319.883509 1101.230724 
L 320.047586 1107.824901 
L 322.508748 1107.824901 
L 322.672825 1099.535929 
L 323.00098 1107.826331 
L 330.876697 1107.826331 
L 331.040774 1100.263719 
L 331.204852 1100.516531 
L 331.368929 1107.829189 
L 340.065033 1107.834766 
L 340.229111 1099.77475 
L 340.393188 1107.836195 
L 344.002891 1107.836195 
L 344.166969 1106.526165 
L 345.479588 1106.526165 
L 345.643666 1107.837624 
L 350.073756 1107.837624 
L 350.237834 1094.273207 
L 350.401911 1094.273207 
L 350.894144 1107.841912 
L 351.386376 1107.844771 
L 351.550453 1100.106269 
L 351.714531 1107.847629 
L 363.364028 1107.849059 
L 363.528106 1102.159875 
L 363.692183 1107.856205 
L 369.106739 1107.856205 
L 369.434893 1101.199428 
L 369.598971 1107.860493 
L 369.927126 1107.860493 
L 370.091203 1103.321135 
L 370.255281 1103.321135 
L 370.419358 1107.861922 
L 373.536829 1107.861922 
L 373.700907 1105.086663 
L 374.193139 1105.086663 
L 374.357216 1107.863352 
L 389.45234 1107.892897 
L 389.616418 1103.630346 
L 389.780495 1103.630346 
L 389.944572 1107.895755 
L 390.600882 1107.898614 
L 390.76496 1099.526146 
L 390.929037 1107.900043 
L 468.209507 1107.954061 
L 468.373585 1105.999613 
L 469.193972 1105.999613 
L 469.358049 1107.95549 
L 474.116295 1107.968027 
L 474.280372 1100.542538 
L 474.44445 1107.969456 
L 475.921147 1107.969456 
L 476.085224 1106.578217 
L 477.069689 1106.578217 
L 477.233766 1107.970886 
L 482.320167 1107.976603 
L 482.484244 1104.294698 
L 482.812399 1104.294698 
L 482.976476 1107.978032 
L 486.750257 1107.978032 
L 486.914335 1099.08874 
L 487.078412 1107.980891 
L 519.893899 1107.985179 
L 520.057976 1082.447038 
L 520.222053 1107.989467 
L 523.831757 1107.989467 
L 523.995834 1091.684882 
L 524.159912 1107.989467 
L 550.904533 1107.989467 
L 551.068611 1102.617001 
L 551.232688 1107.990896 
L 552.053075 1107.990896 
L 552.217153 1103.946162 
L 552.38123 1103.946162 
L 552.545308 1107.992325 
L 566.984122 1107.993754 
L 567.148199 1101.193844 
L 567.312276 1102.273696 
L 567.476354 1107.996613 
L 640.818966 1108.015194 
L 640.983043 1104.148152 
L 641.147121 1104.148152 
L 641.311198 1108.016623 
L 647.382063 1108.016623 
L 647.546141 1102.66861 
L 647.710218 1108.018053 
L 648.038373 1108.08 
L 1120.745455 1108.08 
L 1120.745455 1108.08 
" clip-path="url(#p4dc099c43b)" style="fill: none; stroke: #1f77b4; stroke-linecap: square"/>
   </g>
   <g id="line2d_15">
    <path d="M 207.654545 1010.445512 
L 207.9827 1010.445512 
L 208.803087 1032.961801 
L 209.131242 1047.673357 
L 209.623475 1063.770563 
L 209.787552 1063.312681 
L 210.279784 1067.607524 
L 210.607939 1073.346471 
L 210.936094 1078.025758 
L 211.920559 1084.666372 
L 212.084636 1085.14108 
L 212.412791 1088.183847 
L 212.576868 1088.671784 
L 212.740946 1088.671784 
L 212.905023 1089.936037 
L 213.069101 1089.204567 
L 213.561333 1090.725453 
L 213.72541 1092.291853 
L 213.889488 1092.291853 
L 214.053565 1093.334221 
L 214.217643 1095.160746 
L 214.873952 1095.160746 
L 215.202107 1095.741618 
L 215.530262 1097.648364 
L 216.022494 1097.739933 
L 216.186572 1097.324082 
L 216.350649 1097.938687 
L 216.514727 1098.05062 
L 216.842882 1099.084835 
L 217.006959 1099.250953 
L 217.171037 1099.575706 
L 217.499191 1100.5099 
L 217.663269 1100.610655 
L 217.827346 1101.005271 
L 218.155501 1101.094059 
L 218.319579 1101.848809 
L 218.483656 1101.920853 
L 218.647733 1101.823673 
L 219.632198 1102.293779 
L 219.960353 1102.570105 
L 220.12443 1102.525048 
L 220.288508 1102.673092 
L 220.616663 1103.18447 
L 220.944817 1103.318535 
L 221.108895 1104.18177 
L 221.43705 1104.214418 
L 221.601127 1103.586532 
L 222.093359 1103.546388 
L 222.585592 1103.546388 
L 222.749669 1103.278364 
L 222.913747 1103.432391 
L 223.077824 1103.432105 
L 223.405979 1103.873515 
L 224.062289 1103.77316 
L 224.226366 1103.422096 
L 224.554521 1104.106555 
L 224.882676 1104.436109 
L 225.046753 1105.087606 
L 225.210831 1104.767187 
L 225.374908 1104.898872 
L 225.703063 1104.486384 
L 227.343837 1104.392625 
L 227.507915 1103.66736 
L 228.492379 1103.897079 
L 228.820534 1103.812602 
L 229.640921 1103.813002 
L 229.969076 1103.495586 
L 230.297231 1103.942537 
L 231.117618 1104.04827 
L 231.281696 1104.523539 
L 232.26616 1104.523539 
L 232.430238 1104.844301 
L 232.594315 1104.633463 
L 233.250625 1104.725043 
L 233.414702 1105.275777 
L 234.235089 1105.201628 
L 234.399167 1105.49868 
L 234.563244 1105.49868 
L 234.891399 1105.786391 
L 235.055477 1105.786391 
L 235.383631 1106.11747 
L 239.813722 1106.029137 
L 239.9778 1106.235503 
L 240.634109 1106.318336 
L 240.962264 1105.869938 
L 241.454496 1105.925739 
L 241.782651 1105.832957 
L 242.603038 1105.866511 
L 242.931193 1105.993516 
L 243.75158 1106.077118 
L 244.079735 1106.16072 
L 244.243813 1106.11032 
L 244.40789 1105.755815 
L 245.392355 1105.755815 
L 246.048665 1106.634558 
L 246.869052 1106.61047 
L 247.197207 1106.355591 
L 250.314678 1106.455875 
L 250.642833 1106.506239 
L 250.80691 1106.624098 
L 251.46322 1106.587042 
L 251.955452 1106.664622 
L 252.11953 1106.34563 
L 252.775839 1106.381678 
L 253.268072 1105.739976 
L 253.924381 1105.645315 
L 254.252536 1105.645315 
L 254.416614 1105.240013 
L 255.072923 1105.367381 
L 255.237001 1105.147634 
L 255.729233 1105.190318 
L 256.221465 1105.138356 
L 256.54962 1105.284875 
L 257.698162 1105.363376 
L 258.190395 1105.61541 
L 259.831169 1105.674256 
L 259.995246 1105.786561 
L 260.159324 1106.427558 
L 260.815633 1106.409401 
L 260.979711 1106.380009 
L 261.143788 1106.663026 
L 261.471943 1106.663026 
L 261.636021 1105.833654 
L 262.620485 1105.745742 
L 262.784563 1105.377739 
L 264.261259 1105.377853 
L 264.425337 1106.207453 
L 264.589414 1106.012092 
L 264.917569 1103.838548 
L 265.081647 1103.270428 
L 265.245724 1103.502221 
L 265.409802 1103.075303 
L 266.722421 1103.168142 
L 267.050576 1103.301364 
L 267.870963 1103.328105 
L 268.03504 1103.347569 
L 268.363195 1104.716611 
L 268.855428 1104.716611 
L 269.019505 1104.900698 
L 269.183582 1105.630237 
L 269.839892 1105.512596 
L 272.301054 1105.449919 
L 272.629209 1106.059893 
L 272.793286 1106.059893 
L 272.957363 1106.355458 
L 273.285518 1106.355458 
L 273.449596 1105.965451 
L 275.582602 1106.024571 
L 275.74668 1106.239464 
L 276.074835 1106.239464 
L 276.567067 1106.753743 
L 277.715609 1106.7538 
L 278.043764 1106.474931 
L 279.192306 1106.474931 
L 279.356383 1106.865338 
L 282.1457 1106.816394 
L 282.309777 1106.618693 
L 283.622396 1106.618693 
L 283.950551 1106.262371 
L 284.770938 1106.179736 
L 284.935016 1106.019992 
L 288.216565 1106.077212 
L 288.544719 1106.171359 
L 289.036952 1106.171359 
L 289.201029 1106.323597 
L 290.841803 1106.428766 
L 291.334036 1106.481181 
L 291.826268 1106.481181 
L 291.990346 1106.246386 
L 292.482578 1106.406302 
L 292.646655 1106.406302 
L 292.97481 1106.538275 
L 297.404901 1106.630197 
L 298.553443 1106.698046 
L 301.178682 1106.698103 
L 301.342759 1106.830728 
L 301.506837 1106.666215 
L 301.670914 1106.666272 
L 301.834991 1106.901124 
L 302.819456 1106.770781 
L 303.147611 1106.652085 
L 303.639843 1106.652085 
L 303.967998 1106.768808 
L 313.648567 1106.841681 
L 313.812644 1107.006309 
L 318.734967 1107.114867 
L 320.047586 1107.172825 
L 322.508748 1107.257321 
L 322.836903 1107.376075 
L 325.298064 1107.345762 
L 325.462142 1106.41654 
L 325.954374 1106.456753 
L 326.446606 1106.456753 
L 326.774761 1107.426474 
L 330.876697 1107.526665 
L 331.368929 1107.574153 
L 341.705807 1107.616222 
L 341.869885 1107.151178 
L 343.838814 1107.168489 
L 344.331046 1106.884017 
L 344.495124 1107.349118 
L 347.120363 1107.423457 
L 347.28444 1106.60221 
L 352.698995 1106.627104 
L 352.863073 1107.448466 
L 353.519383 1107.480615 
L 360.08248 1107.4805 
L 360.574712 1107.765087 
L 360.902867 1107.614118 
L 365.004803 1107.640176 
L 365.332958 1106.942744 
L 365.82519 1106.942744 
L 365.989267 1106.445974 
L 368.286351 1106.446032 
L 368.942661 1107.640462 
L 372.060132 1107.649051 
L 372.22421 1107.446791 
L 374.685371 1107.436821 
L 374.849449 1107.273731 
L 375.997991 1107.273731 
L 376.162068 1107.424757 
L 382.068856 1107.457444 
L 382.397011 1103.498343 
L 382.725165 1103.498343 
L 382.889243 1104.516118 
L 383.05332 1106.551668 
L 383.545553 1106.551668 
L 383.70963 1106.753928 
L 384.694095 1106.753928 
L 384.858172 1107.660162 
L 388.467876 1107.662601 
L 388.631953 1107.253089 
L 388.79603 1107.253089 
L 388.960108 1107.416237 
L 390.10865 1107.392402 
L 390.272727 1106.902376 
L 394.046508 1106.936733 
L 394.210586 1107.346302 
L 394.538741 1107.346302 
L 394.702818 1107.836557 
L 396.015437 1107.836557 
L 396.179515 1106.939769 
L 399.625141 1106.939769 
L 399.789218 1107.418481 
L 400.93776 1107.469103 
L 401.101838 1107.887294 
L 402.086302 1107.887294 
L 402.25038 1107.592896 
L 409.797942 1107.537285 
L 409.962019 1107.831739 
L 412.587258 1107.831739 
L 412.751335 1107.376693 
L 416.032884 1107.359616 
L 416.525116 1107.0803 
L 416.689194 1107.0803 
L 417.017349 1105.43238 
L 417.509581 1105.43238 
L 417.673658 1105.887483 
L 418.165891 1105.887483 
L 418.329968 1107.535231 
L 420.79113 1107.561093 
L 421.119284 1105.939139 
L 422.924136 1105.939139 
L 423.088214 1106.986448 
L 424.400833 1107.070204 
L 424.728988 1107.209948 
L 424.893065 1107.802185 
L 426.861995 1107.827724 
L 427.026072 1107.055204 
L 432.27655 1107.055204 
L 432.604705 1107.167179 
L 432.768782 1107.567762 
L 433.096937 1107.582822 
L 433.261014 1107.954873 
L 433.425092 1107.508798 
L 438.347415 1107.488221 
L 438.67557 1107.93441 
L 465.748346 1107.848882 
L 465.912423 1106.998537 
L 468.373585 1106.998537 
L 468.537662 1107.848939 
L 497.087136 1107.933006 
L 497.907523 1107.960848 
L 504.306543 1107.960848 
L 504.634697 1106.08235 
L 506.275472 1106.078965 
L 506.439549 1107.279895 
L 507.588091 1107.279895 
L 507.752169 1107.962091 
L 516.284195 1107.962091 
L 516.448272 1107.744238 
L 526.785151 1107.756514 
L 526.949228 1107.974424 
L 527.44146 1107.974424 
L 527.605538 1107.806275 
L 541.223965 1107.806275 
L 541.388042 1107.974481 
L 543.356971 1107.872433 
L 543.521049 1107.464022 
L 548.935604 1107.464022 
L 549.099681 1107.872376 
L 554.350159 1107.88806 
L 554.514237 1107.017494 
L 559.272482 1107.017494 
L 559.43656 1107.477115 
L 559.764715 1107.477115 
L 559.928792 1107.888174 
L 573.383141 1107.918613 
L 573.547219 1107.617454 
L 580.930703 1107.617454 
L 581.094781 1107.918671 
L 596.189904 1107.92269 
L 596.518059 1107.789541 
L 606.526783 1107.870438 
L 606.69086 1107.472391 
L 610.464641 1107.472391 
L 610.628718 1106.920387 
L 612.269493 1106.920387 
L 612.43357 1107.318548 
L 613.582112 1107.318548 
L 613.910267 1107.451755 
L 614.238422 1107.451755 
L 614.402499 1108.003817 
L 622.114139 1107.992298 
L 622.442294 1105.258693 
L 623.426758 1105.258693 
L 623.590836 1106.983367 
L 624.247145 1106.983367 
L 624.411223 1107.99247 
L 639.834501 1107.895966 
L 640.162656 1106.055908 
L 641.147121 1106.055908 
L 641.311198 1107.896137 
L 659.687871 1108.004624 
L 659.851948 1107.380287 
L 663.297574 1107.380287 
L 663.461652 1108.004681 
L 669.040284 1108.013505 
L 669.368439 1107.869235 
L 679.049008 1107.869235 
L 679.213085 1107.680295 
L 683.315021 1107.680295 
L 683.479098 1107.869293 
L 684.955795 1107.869293 
L 685.28395 1108.013619 
L 699.886841 1108.013619 
L 700.050919 1107.795661 
L 710.387797 1107.795661 
L 710.551875 1108.013676 
L 758.13433 1108.033388 
L 758.298407 1107.721978 
L 765.517814 1107.710402 
L 765.681892 1108.02187 
L 813.592502 1108.033153 
L 813.920657 1105.789175 
L 814.576966 1105.789175 
L 814.905121 1108.033324 
L 828.523548 1108.0424 
L 828.687626 1107.775737 
L 837.055575 1107.775737 
L 837.219652 1108.042457 
L 873.644842 1108.042457 
L 873.808919 1107.713308 
L 880.536094 1107.713308 
L 880.700172 1108.0424 
L 893.662289 1108.042514 
L 893.826366 1107.721581 
L 900.389463 1107.721581 
L 900.553541 1108.042572 
L 932.384563 1108.042572 
L 932.54864 1107.05262 
L 936.814653 1107.05262 
L 936.978731 1107.570929 
L 937.142808 1107.570929 
L 937.306886 1108.042686 
L 945.182602 1108.042686 
L 945.34668 1107.248112 
L 947.971919 1107.260037 
L 948.135996 1108.054668 
L 1120.745455 1108.08 
L 1120.745455 1108.08 
" clip-path="url(#p4dc099c43b)" style="fill: none; stroke: #ff7f0e; stroke-linecap: square"/>
   </g>
   <g id="line2d_16">
    <path d="M 207.654545 1006.745043 
L 207.9827 1006.745043 
L 208.310855 1014.804306 
L 208.474933 1016.496821 
L 209.623475 1065.415968 
L 209.95163 1069.992233 
L 210.115707 1071.811443 
L 210.443862 1078.500393 
L 210.772017 1082.971417 
L 211.100172 1084.116474 
L 211.428326 1086.120807 
L 211.592404 1086.494775 
L 211.920559 1087.514422 
L 212.084636 1087.572122 
L 212.412791 1087.316161 
L 212.576868 1088.736084 
L 212.905023 1088.801819 
L 213.233178 1091.7901 
L 213.889488 1093.022128 
L 214.217643 1094.906462 
L 214.545798 1095.585416 
L 214.873952 1095.585416 
L 215.202107 1096.968251 
L 215.366185 1097.285359 
L 215.530262 1098.403108 
L 215.858417 1098.403108 
L 216.022494 1098.15619 
L 216.186572 1098.516962 
L 216.350649 1099.434865 
L 216.514727 1099.434865 
L 217.006959 1100.194726 
L 217.171037 1100.194726 
L 217.499191 1100.670257 
L 217.827346 1100.670257 
L 218.155501 1099.563263 
L 218.319579 1099.395744 
L 218.483656 1099.612355 
L 218.647733 1099.612355 
L 219.468121 1101.547604 
L 219.796275 1101.905073 
L 220.12443 1101.997182 
L 220.288508 1101.910311 
L 220.616663 1102.408331 
L 221.108895 1102.408331 
L 221.272972 1102.223637 
L 221.43705 1102.22318 
L 221.929282 1102.995232 
L 222.093359 1102.995232 
L 222.421514 1103.331678 
L 222.585592 1103.957601 
L 222.913747 1103.985219 
L 223.077824 1103.83194 
L 223.405979 1103.873033 
L 223.734134 1103.95522 
L 223.898211 1103.95522 
L 224.062289 1104.332735 
L 224.226366 1104.332735 
L 224.718598 1104.609981 
L 225.046753 1104.609981 
L 225.210831 1104.200075 
L 225.86714 1104.228766 
L 226.687528 1104.228766 
L 226.851605 1104.497477 
L 227.343837 1104.521851 
L 227.671992 1103.056442 
L 227.83607 1102.896204 
L 228.164224 1102.946575 
L 228.492379 1103.047316 
L 228.984612 1103.143031 
L 229.312766 1103.238746 
L 229.640921 1103.238746 
L 229.804999 1103.453639 
L 230.133154 1103.453639 
L 230.297231 1103.665836 
L 230.625386 1103.665836 
L 230.953541 1104.078952 
L 232.102083 1104.078209 
L 232.26616 1104.237589 
L 233.086547 1104.331337 
L 233.414702 1104.902736 
L 233.57878 1104.770053 
L 233.742857 1104.49147 
L 233.906935 1104.49147 
L 234.727322 1105.055123 
L 234.891399 1104.804819 
L 235.055477 1104.965628 
L 235.219554 1104.314188 
L 236.204019 1104.313902 
L 236.368096 1104.116316 
L 237.024406 1104.117288 
L 237.188483 1103.654711 
L 238.501103 1103.680149 
L 238.66518 1104.331647 
L 239.157412 1104.665244 
L 239.32149 1104.665244 
L 239.485567 1105.162305 
L 241.290419 1105.245907 
L 241.618574 1105.329509 
L 241.782651 1105.329509 
L 241.946729 1105.792257 
L 242.603038 1105.825697 
L 242.931193 1105.952702 
L 243.915658 1105.952702 
L 244.243813 1106.093402 
L 245.0642 1106.093402 
L 245.228277 1105.818539 
L 245.72051 1105.879971 
L 246.212742 1106.031294 
L 246.540897 1105.921774 
L 246.704974 1105.006509 
L 248.017594 1104.999428 
L 248.181671 1105.273185 
L 248.345749 1105.140674 
L 248.673903 1105.272533 
L 248.837981 1105.272533 
L 249.166136 1105.915194 
L 249.330213 1104.987107 
L 249.986523 1105.042907 
L 250.1506 1105.042907 
L 250.314678 1105.304589 
L 250.478755 1106.345831 
L 251.46322 1106.444336 
L 251.955452 1106.521916 
L 252.283607 1106.452913 
L 252.611762 1106.424668 
L 252.775839 1106.505729 
L 252.939917 1106.222883 
L 253.103994 1106.223055 
L 253.432149 1105.725108 
L 253.760304 1105.725108 
L 254.088459 1105.368305 
L 254.252536 1104.96941 
L 254.416614 1103.426924 
L 256.385543 1103.481028 
L 256.54962 1103.7991 
L 256.877775 1103.7991 
L 257.041852 1104.071826 
L 257.20593 1104.617277 
L 259.995246 1104.661854 
L 260.159324 1105.291822 
L 260.651556 1105.3301 
L 260.979711 1105.3301 
L 261.143788 1105.61306 
L 261.471943 1103.47785 
L 261.636021 1102.648479 
L 261.800098 1102.995141 
L 261.964175 1102.973023 
L 262.128253 1103.565442 
L 263.112717 1103.624562 
L 263.769027 1105.89835 
L 264.261259 1105.89835 
L 264.425337 1106.72795 
L 264.589414 1106.532589 
L 267.542808 1106.532589 
L 267.706886 1105.489311 
L 269.34766 1105.430633 
L 269.675815 1105.371841 
L 270.00397 1106.415462 
L 270.168047 1106.415462 
L 270.332124 1105.373432 
L 270.496202 1105.373432 
L 270.824357 1105.005429 
L 271.316589 1105.005429 
L 271.644744 1105.13865 
L 272.301054 1105.428743 
L 272.629209 1105.440118 
L 273.121441 1105.479045 
L 273.941828 1105.479045 
L 274.269983 1105.595768 
L 274.43406 1106.14783 
L 274.926293 1106.14783 
L 275.09037 1106.638084 
L 275.74668 1106.535732 
L 275.910757 1106.642877 
L 276.238912 1106.511493 
L 276.402989 1106.511493 
L 276.567067 1106.706911 
L 276.895222 1106.706911 
L 277.059299 1107.075085 
L 277.715609 1107.111076 
L 279.684538 1107.111076 
L 279.848616 1106.904591 
L 281.325312 1106.834123 
L 281.817545 1104.512667 
L 282.966087 1104.512667 
L 283.294242 1105.887 
L 283.950551 1105.887 
L 284.278706 1106.787149 
L 286.57579 1106.881296 
L 287.396177 1106.942617 
L 289.036952 1106.977043 
L 289.365107 1107.094855 
L 290.841803 1107.006017 
L 291.005881 1107.265089 
L 301.342759 1107.159444 
L 301.506837 1107.040748 
L 302.655379 1107.113756 
L 306.265082 1107.11387 
L 306.593237 1106.623674 
L 307.085469 1106.432578 
L 311.023328 1106.361604 
L 311.187405 1106.012859 
L 311.351482 1105.315484 
L 313.320412 1105.330924 
L 313.484489 1106.35815 
L 313.976721 1106.301707 
L 314.140799 1106.301707 
L 314.468954 1106.488193 
L 316.766038 1106.577203 
L 317.25827 1105.319042 
L 318.570889 1105.317843 
L 318.734967 1105.48247 
L 319.719432 1105.48247 
L 320.047586 1106.274103 
L 320.375741 1106.274103 
L 320.703896 1106.557157 
L 321.032051 1106.557157 
L 321.360206 1106.67591 
L 321.688361 1106.675968 
L 321.852438 1106.007701 
L 322.016516 1106.007701 
L 322.180593 1106.44001 
L 324.969909 1106.450044 
L 325.133987 1107.118368 
L 325.462142 1107.219248 
L 326.282529 1107.219248 
L 326.446606 1106.722536 
L 330.384465 1106.81222 
L 330.548542 1107.309046 
L 334.650478 1107.356534 
L 334.978633 1107.439226 
L 337.603872 1107.383239 
L 337.767949 1106.974714 
L 341.377653 1107.044592 
L 341.869885 1107.096315 
L 342.854349 1107.113627 
L 343.018427 1106.648583 
L 343.182504 1106.648583 
L 343.346582 1107.056936 
L 343.838814 1107.112924 
L 344.331046 1107.168911 
L 344.987356 1107.127481 
L 345.315511 1107.020875 
L 347.612595 1107.104069 
L 347.776672 1107.141563 
L 347.94075 1106.73457 
L 353.191228 1106.766719 
L 353.519383 1107.598228 
L 356.308699 1107.592244 
L 360.410635 1107.592415 
L 360.73879 1107.441447 
L 363.364028 1107.445974 
L 363.692183 1106.843712 
L 366.809654 1106.869769 
L 367.301887 1107.293994 
L 367.465964 1107.141152 
L 367.630042 1106.743162 
L 372.388287 1106.743162 
L 372.552365 1107.197278 
L 373.208674 1107.197278 
L 373.372752 1107.595439 
L 375.833913 1107.618795 
L 375.997991 1107.769822 
L 382.068856 1107.767 
L 382.397011 1103.807899 
L 382.725165 1103.807899 
L 382.889243 1104.825674 
L 383.05332 1106.861224 
L 383.217398 1106.861224 
L 383.545553 1105.926192 
L 384.694095 1105.955698 
L 384.858172 1106.861931 
L 385.514482 1106.861931 
L 385.678559 1107.173647 
L 385.842637 1107.797078 
L 388.467876 1107.797078 
L 388.631953 1107.387566 
L 394.046508 1107.381148 
L 394.210586 1107.790718 
L 394.374663 1107.790718 
L 394.538741 1107.588515 
L 395.85136 1107.503196 
L 396.015437 1107.152074 
L 403.562999 1107.196694 
L 403.727077 1106.912221 
L 405.860083 1106.912221 
L 406.024161 1107.114482 
L 409.797942 1107.114482 
L 409.962019 1107.408936 
L 412.915413 1107.408994 
L 413.07949 1107.113543 
L 416.032884 1107.076148 
L 416.361039 1106.796832 
L 416.689194 1106.82222 
L 417.017349 1105.199534 
L 418.165891 1105.199534 
L 418.329968 1106.847283 
L 419.642588 1106.929944 
L 420.13482 1107.214359 
L 420.627052 1107.214359 
L 420.79113 1107.473373 
L 423.088214 1107.558921 
L 423.252291 1107.146021 
L 424.236756 1107.146021 
L 424.728988 1107.425508 
L 428.502769 1107.425737 
L 428.666846 1107.838808 
L 433.425092 1107.853868 
L 433.589169 1107.347159 
L 434.081402 1107.347273 
L 434.245479 1107.124236 
L 438.839647 1107.112368 
L 439.167802 1107.558557 
L 439.824112 1107.558557 
L 440.152267 1106.51142 
L 441.464886 1106.51142 
L 441.628963 1105.804756 
L 441.793041 1104.234816 
L 441.957118 1104.234816 
L 442.285273 1105.282125 
L 443.269738 1105.282125 
L 443.433815 1106.566731 
L 445.402744 1106.566731 
L 445.566822 1107.778325 
L 453.278461 1107.841087 
L 453.442539 1107.623234 
L 456.395932 1107.623234 
L 456.888165 1106.121018 
L 458.364862 1106.121018 
L 458.693016 1105.348499 
L 459.021171 1105.348499 
L 459.185249 1106.258706 
L 460.169713 1106.258706 
L 460.333791 1106.850943 
L 462.30272 1106.850943 
L 462.466797 1106.632985 
L 463.779417 1106.632985 
L 463.943494 1106.850895 
L 464.107572 1106.856205 
L 464.271649 1107.262061 
L 464.763881 1107.256713 
L 464.927959 1107.628764 
L 465.748346 1107.628764 
L 465.912423 1106.778419 
L 468.373585 1106.778419 
L 468.537662 1107.628821 
L 471.655134 1107.628821 
L 471.819211 1106.732033 
L 472.803676 1106.732033 
L 472.967753 1106.950049 
L 475.10076 1106.97144 
L 475.264837 1106.736645 
L 476.413379 1106.710896 
L 476.577457 1107.189607 
L 476.905611 1107.189607 
L 477.069689 1107.607798 
L 484.945406 1107.696166 
L 485.109483 1107.931018 
L 500.368684 1107.960243 
L 500.532762 1107.105195 
L 502.829846 1107.105195 
L 503.158 1107.960415 
L 508.900711 1107.960415 
L 509.064788 1107.570065 
L 514.807498 1107.570065 
L 514.971576 1107.960472 
L 515.463808 1107.960472 
L 515.627885 1107.278333 
L 515.791963 1106.072303 
L 517.432737 1106.072303 
L 517.760892 1107.278505 
L 518.745357 1107.278505 
L 518.909434 1107.960701 
L 536.957951 1107.960701 
L 537.122029 1107.639767 
L 538.106494 1107.639767 
L 538.270571 1107.290448 
L 543.849204 1107.1884 
L 544.013281 1107.509391 
L 550.740456 1107.525075 
L 550.904533 1107.706302 
L 551.888998 1107.715974 
L 552.053075 1107.884179 
L 554.678314 1107.77575 
L 556.811321 1107.767093 
L 574.367606 1107.86018 
L 574.695761 1107.968666 
L 585.853026 1107.968666 
L 586.181181 1107.098101 
L 586.509336 1107.098101 
L 586.673413 1106.797263 
L 590.775349 1106.815489 
L 590.939427 1107.275109 
L 591.431659 1107.275109 
L 591.595736 1107.686168 
L 594.056898 1107.679785 
L 594.220975 1107.98068 
L 596.189904 1107.98068 
L 596.518059 1107.84753 
L 613.582112 1107.870062 
L 613.910267 1108.003269 
L 622.278216 1107.991751 
L 622.442294 1107.129471 
L 624.739378 1107.129471 
L 624.903455 1107.991808 
L 661.984955 1108.012614 
L 662.149032 1107.388278 
L 665.594658 1107.388278 
L 665.758736 1108.012671 
L 669.040284 1108.012671 
L 669.368439 1107.868402 
L 684.955795 1107.868402 
L 685.28395 1108.012728 
L 689.714041 1108.012728 
L 689.878118 1107.823788 
L 693.651899 1107.823788 
L 693.815976 1106.903731 
L 693.980054 1106.903731 
L 694.144131 1106.418812 
L 696.113061 1106.418812 
L 696.277138 1107.338927 
L 698.574222 1107.338927 
L 698.738299 1107.823902 
L 701.855771 1107.826088 
L 702.019848 1108.015086 
L 713.341191 1108.015086 
L 713.505268 1107.345048 
L 719.740211 1107.345048 
L 719.904288 1107.69961 
L 720.560598 1107.69961 
L 720.724675 1108.0152 
L 758.13433 1108.032726 
L 758.298407 1107.721316 
L 765.517814 1107.709741 
L 765.681892 1108.021208 
L 813.592502 1108.032491 
L 813.920657 1105.788513 
L 814.576966 1105.788513 
L 814.905121 1108.032662 
L 820.811909 1108.032662 
L 820.975986 1107.023616 
L 822.944915 1107.023788 
L 823.108993 1108.032891 
L 828.523548 1108.041967 
L 828.687626 1107.775304 
L 837.055575 1107.775304 
L 837.219652 1108.042024 
L 838.696349 1108.042024 
L 838.860426 1107.810288 
L 848.540995 1107.810288 
L 848.705072 1108.042081 
L 861.667189 1108.042081 
L 861.831267 1107.109818 
L 866.425435 1107.109818 
L 866.75359 1108.042196 
L 873.644842 1108.042196 
L 873.808919 1107.713046 
L 880.536094 1107.713046 
L 880.700172 1108.042138 
L 1031.323254 1108.056452 
L 1031.487332 1106.810753 
L 1033.128106 1106.810753 
L 1033.292183 1108.056509 
L 1078.577555 1108.056509 
L 1078.741632 1107.620194 
L 1083.663955 1107.620194 
L 1083.828032 1108.056566 
L 1116.971674 1108.056566 
L 1117.299828 1106.84598 
L 1120.581377 1106.84598 
L 1120.745455 1107.468844 
L 1120.745455 1107.468844 
" clip-path="url(#p4dc099c43b)" style="fill: none; stroke-dasharray: 6.4,1.6,1,1.6; stroke-dashoffset: 0; stroke: #2ca02c"/>
   </g>
   <g id="patch_3">
    <path d="M 162 1153.44 
L 162 155.52 
" style="fill: none; stroke: #000000; stroke-width: 0.8; stroke-linejoin: miter; stroke-linecap: square"/>
   </g>
   <g id="patch_4">
    <path d="M 1166.4 1153.44 
L 1166.4 155.52 
" style="fill: none; stroke: #000000; stroke-width: 0.8; stroke-linejoin: miter; stroke-linecap: square"/>
   </g>
   <g id="patch_5">
    <path d="M 162 1153.44 
L 1166.4 1153.44 
" style="fill: none; stroke: #000000; stroke-width: 0.8; stroke-linejoin: miter; stroke-linecap: square"/>
   </g>
   <g id="patch_6">
    <path d="M 162 155.52 
L 1166.4 155.52 
" style="fill: none; stroke: #000000; stroke-width: 0.8; stroke-linejoin: miter; stroke-linecap: square"/>
   </g>
   <g id="legend_1">
    <g id="patch_7">
     <path d="M 1076.39375 207.554375 
L 1159.4 207.554375 
Q 1161.4 207.554375 1161.4 205.554375 
L 1161.4 162.52 
Q 1161.4 160.52 1159.4 160.52 
L 1076.39375 160.52 
Q 1074.39375 160.52 1074.39375 162.52 
L 1074.39375 205.554375 
Q 1074.39375 207.554375 1076.39375 207.554375 
z
" style="fill: #ffffff; opacity: 0.8; stroke: #cccccc; stroke-linejoin: miter"/>
    </g>
    <g id="line2d_17">
     <path d="M 1078.39375 168.618438 
L 1088.39375 168.618438 
L 1098.39375 168.618438 
" style="fill: none; stroke: #1f77b4; stroke-linecap: square"/>
    </g>
    <g id="text_16">
     <!-- default -->
     <g transform="translate(1106.39375 172.118438) scale(0.1 -0.1)">
      <defs>
       <path id="DejaVuSans-64" d="M 2906 2969 
L 2906 4863 
L 3481 4863 
L 3481 0 
L 2906 0 
L 2906 525 
Q 2725 213 2448 61 
Q 2172 -91 1784 -91 
Q 1150 -91 751 415 
Q 353 922 353 1747 
Q 353 2572 751 3078 
Q 1150 3584 1784 3584 
Q 2172 3584 2448 3432 
Q 2725 3281 2906 2969 
z
M 947 1747 
Q 947 1113 1208 752 
Q 1469 391 1925 391 
Q 2381 391 2643 752 
Q 2906 1113 2906 1747 
Q 2906 2381 2643 2742 
Q 2381 3103 1925 3103 
Q 1469 3103 1208 2742 
Q 947 2381 947 1747 
z
" transform="scale(0.015625)"/>
       <path id="DejaVuSans-61" d="M 2194 1759 
Q 1497 1759 1228 1600 
Q 959 1441 959 1056 
Q 959 750 1161 570 
Q 1363 391 1709 391 
Q 2188 391 2477 730 
Q 2766 1069 2766 1631 
L 2766 1759 
L 2194 1759 
z
M 3341 1997 
L 3341 0 
L 2766 0 
L 2766 531 
Q 2569 213 2275 61 
Q 1981 -91 1556 -91 
Q 1019 -91 701 211 
Q 384 513 384 1019 
Q 384 1609 779 1909 
Q 1175 2209 1959 2209 
L 2766 2209 
L 2766 2266 
Q 2766 2663 2505 2880 
Q 2244 3097 1772 3097 
Q 1472 3097 1187 3025 
Q 903 2953 641 2809 
L 641 3341 
Q 956 3463 1253 3523 
Q 1550 3584 1831 3584 
Q 2591 3584 2966 3190 
Q 3341 2797 3341 1997 
z
" transform="scale(0.015625)"/>
       <path id="DejaVuSans-75" d="M 544 1381 
L 544 3500 
L 1119 3500 
L 1119 1403 
Q 1119 906 1312 657 
Q 1506 409 1894 409 
Q 2359 409 2629 706 
Q 2900 1003 2900 1516 
L 2900 3500 
L 3475 3500 
L 3475 0 
L 2900 0 
L 2900 538 
Q 2691 219 2414 64 
Q 2138 -91 1772 -91 
Q 1169 -91 856 284 
Q 544 659 544 1381 
z
M 1991 3584 
L 1991 3584 
z
" transform="scale(0.015625)"/>
      </defs>
      <use xlink:href="#DejaVuSans-64"/>
      <use xlink:href="#DejaVuSans-65" x="63.476562"/>
      <use xlink:href="#DejaVuSans-66" x="125"/>
      <use xlink:href="#DejaVuSans-61" x="160.205078"/>
      <use xlink:href="#DejaVuSans-75" x="221.484375"/>
      <use xlink:href="#DejaVuSans-6c" x="284.863281"/>
      <use xlink:href="#DejaVuSans-74" x="312.646484"/>
     </g>
    </g>
    <g id="line2d_18">
     <path d="M 1078.39375 183.296562 
L 1088.39375 183.296562 
L 1098.39375 183.296562 
" style="fill: none; stroke: #ff7f0e; stroke-linecap: square"/>
    </g>
    <g id="text_17">
     <!-- serverless -->
     <g transform="translate(1106.39375 186.796562) scale(0.1 -0.1)">
      <defs>
       <path id="DejaVuSans-73" d="M 2834 3397 
L 2834 2853 
Q 2591 2978 2328 3040 
Q 2066 3103 1784 3103 
Q 1356 3103 1142 2972 
Q 928 2841 928 2578 
Q 928 2378 1081 2264 
Q 1234 2150 1697 2047 
L 1894 2003 
Q 2506 1872 2764 1633 
Q 3022 1394 3022 966 
Q 3022 478 2636 193 
Q 2250 -91 1575 -91 
Q 1294 -91 989 -36 
Q 684 19 347 128 
L 347 722 
Q 666 556 975 473 
Q 1284 391 1588 391 
Q 1994 391 2212 530 
Q 2431 669 2431 922 
Q 2431 1156 2273 1281 
Q 2116 1406 1581 1522 
L 1381 1569 
Q 847 1681 609 1914 
Q 372 2147 372 2553 
Q 372 3047 722 3315 
Q 1072 3584 1716 3584 
Q 2034 3584 2315 3537 
Q 2597 3491 2834 3397 
z
" transform="scale(0.015625)"/>
       <path id="DejaVuSans-72" d="M 2631 2963 
Q 2534 3019 2420 3045 
Q 2306 3072 2169 3072 
Q 1681 3072 1420 2755 
Q 1159 2438 1159 1844 
L 1159 0 
L 581 0 
L 581 3500 
L 1159 3500 
L 1159 2956 
Q 1341 3275 1631 3429 
Q 1922 3584 2338 3584 
Q 2397 3584 2469 3576 
Q 2541 3569 2628 3553 
L 2631 2963 
z
" transform="scale(0.015625)"/>
       <path id="DejaVuSans-76" d="M 191 3500 
L 800 3500 
L 1894 563 
L 2988 3500 
L 3597 3500 
L 2284 0 
L 1503 0 
L 191 3500 
z
" transform="scale(0.015625)"/>
      </defs>
      <use xlink:href="#DejaVuSans-73"/>
      <use xlink:href="#DejaVuSans-65" x="52.099609"/>
      <use xlink:href="#DejaVuSans-72" x="113.623047"/>
      <use xlink:href="#DejaVuSans-76" x="154.736328"/>
      <use xlink:href="#DejaVuSans-65" x="213.916016"/>
      <use xlink:href="#DejaVuSans-72" x="275.439453"/>
      <use xlink:href="#DejaVuSans-6c" x="316.552734"/>
      <use xlink:href="#DejaVuSans-65" x="344.335938"/>
      <use xlink:href="#DejaVuSans-73" x="405.859375"/>
      <use xlink:href="#DejaVuSans-73" x="457.958984"/>
     </g>
    </g>
    <g id="line2d_19">
     <path d="M 1078.39375 197.974688 
L 1088.39375 197.974688 
L 1098.39375 197.974688 
" style="fill: none; stroke-dasharray: 6.4,1.6,1,1.6; stroke-dashoffset: 0; stroke: #2ca02c"/>
    </g>
    <g id="text_18">
     <!-- server -->
     <g transform="translate(1106.39375 201.474688) scale(0.1 -0.1)">
      <use xlink:href="#DejaVuSans-73"/>
      <use xlink:href="#DejaVuSans-65" x="52.099609"/>
      <use xlink:href="#DejaVuSans-72" x="113.623047"/>
      <use xlink:href="#DejaVuSans-76" x="154.736328"/>
      <use xlink:href="#DejaVuSans-65" x="213.916016"/>
      <use xlink:href="#DejaVuSans-72" x="275.439453"/>
     </g>
    </g>
   </g>
  </g>
 </g>
 <defs>
  <clipPath id="p4dc099c43b">
   <rect x="162" y="155.52" width="1004.4" height="997.92"/>
  </clipPath>
 </defs>
</svg>
