<?xml version="1.0" encoding="utf-8" standalone="no"?>
<!DOCTYPE svg PUBLIC "-//W3C//DTD SVG 1.1//EN"
  "http://www.w3.org/Graphics/SVG/1.1/DTD/svg11.dtd">
<svg xmlns:xlink="http://www.w3.org/1999/xlink" width="1296pt" height="1296pt" viewBox="0 0 1296 1296" xmlns="http://www.w3.org/2000/svg" version="1.1">
 <metadata>
  <rdf:RDF xmlns:dc="http://purl.org/dc/elements/1.1/" xmlns:cc="http://creativecommons.org/ns#" xmlns:rdf="http://www.w3.org/1999/02/22-rdf-syntax-ns#">
   <cc:Work>
    <dc:type rdf:resource="http://purl.org/dc/dcmitype/StillImage"/>
    <dc:date>2023-10-17T14:35:14.486278</dc:date>
    <dc:format>image/svg+xml</dc:format>
    <dc:creator>
     <cc:Agent>
      <dc:title>Matplotlib v3.7.1, https://matplotlib.org/</dc:title>
     </cc:Agent>
    </dc:creator>
   </cc:Work>
  </rdf:RDF>
 </metadata>
 <defs>
  <style type="text/css">*{stroke-linejoin: round; stroke-linecap: butt}</style>
 </defs>
 <g id="figure_1">
  <g id="patch_1">
   <path d="M 0 1296 
L 1296 1296 
L 1296 0 
L 0 0 
z
" style="fill: #ffffff"/>
  </g>
  <g id="axes_1">
   <g id="patch_2">
    <path d="M 162 1153.44 
L 1166.4 1153.44 
L 1166.4 155.52 
L 162 155.52 
z
" style="fill: #ffffff"/>
   </g>
   <g id="matplotlib.axis_1">
    <g id="xtick_1">
     <g id="line2d_1">
      <defs>
       <path id="m5b3637ec9e" d="M 0 0 
L 0 3.5 
" style="stroke: #000000; stroke-width: 0.8"/>
      </defs>
      <g>
       <use xlink:href="#m5b3637ec9e" x="207.490468" y="1153.44" style="stroke: #000000; stroke-width: 0.8"/>
      </g>
     </g>
     <g id="text_1">
      <!-- 0 -->
      <g transform="translate(204.309218 1168.038438) scale(0.1 -0.1)">
       <defs>
        <path id="DejaVuSans-30" d="M 2034 4250 
Q 1547 4250 1301 3770 
Q 1056 3291 1056 2328 
Q 1056 1369 1301 889 
Q 1547 409 2034 409 
Q 2525 409 2770 889 
Q 3016 1369 3016 2328 
Q 3016 3291 2770 3770 
Q 2525 4250 2034 4250 
z
M 2034 4750 
Q 2819 4750 3233 4129 
Q 3647 3509 3647 2328 
Q 3647 1150 3233 529 
Q 2819 -91 2034 -91 
Q 1250 -91 836 529 
Q 422 1150 422 2328 
Q 422 3509 836 4129 
Q 1250 4750 2034 4750 
z
" transform="scale(0.015625)"/>
       </defs>
       <use xlink:href="#DejaVuSans-30"/>
      </g>
     </g>
    </g>
    <g id="xtick_2">
     <g id="line2d_2">
      <g>
       <use xlink:href="#m5b3637ec9e" x="371.5679" y="1153.44" style="stroke: #000000; stroke-width: 0.8"/>
      </g>
     </g>
     <g id="text_2">
      <!-- 1000 -->
      <g transform="translate(358.8429 1168.038438) scale(0.1 -0.1)">
       <defs>
        <path id="DejaVuSans-31" d="M 794 531 
L 1825 531 
L 1825 4091 
L 703 3866 
L 703 4441 
L 1819 4666 
L 2450 4666 
L 2450 531 
L 3481 531 
L 3481 0 
L 794 0 
L 794 531 
z
" transform="scale(0.015625)"/>
       </defs>
       <use xlink:href="#DejaVuSans-31"/>
       <use xlink:href="#DejaVuSans-30" x="63.623047"/>
       <use xlink:href="#DejaVuSans-30" x="127.246094"/>
       <use xlink:href="#DejaVuSans-30" x="190.869141"/>
      </g>
     </g>
    </g>
    <g id="xtick_3">
     <g id="line2d_3">
      <g>
       <use xlink:href="#m5b3637ec9e" x="535.645332" y="1153.44" style="stroke: #000000; stroke-width: 0.8"/>
      </g>
     </g>
     <g id="text_3">
      <!-- 2000 -->
      <g transform="translate(522.920332 1168.038438) scale(0.1 -0.1)">
       <defs>
        <path id="DejaVuSans-32" d="M 1228 531 
L 3431 531 
L 3431 0 
L 469 0 
L 469 531 
Q 828 903 1448 1529 
Q 2069 2156 2228 2338 
Q 2531 2678 2651 2914 
Q 2772 3150 2772 3378 
Q 2772 3750 2511 3984 
Q 2250 4219 1831 4219 
Q 1534 4219 1204 4116 
Q 875 4013 500 3803 
L 500 4441 
Q 881 4594 1212 4672 
Q 1544 4750 1819 4750 
Q 2544 4750 2975 4387 
Q 3406 4025 3406 3419 
Q 3406 3131 3298 2873 
Q 3191 2616 2906 2266 
Q 2828 2175 2409 1742 
Q 1991 1309 1228 531 
z
" transform="scale(0.015625)"/>
       </defs>
       <use xlink:href="#DejaVuSans-32"/>
       <use xlink:href="#DejaVuSans-30" x="63.623047"/>
       <use xlink:href="#DejaVuSans-30" x="127.246094"/>
       <use xlink:href="#DejaVuSans-30" x="190.869141"/>
      </g>
     </g>
    </g>
    <g id="xtick_4">
     <g id="line2d_4">
      <g>
       <use xlink:href="#m5b3637ec9e" x="699.722764" y="1153.44" style="stroke: #000000; stroke-width: 0.8"/>
      </g>
     </g>
     <g id="text_4">
      <!-- 3000 -->
      <g transform="translate(686.997764 1168.038438) scale(0.1 -0.1)">
       <defs>
        <path id="DejaVuSans-33" d="M 2597 2516 
Q 3050 2419 3304 2112 
Q 3559 1806 3559 1356 
Q 3559 666 3084 287 
Q 2609 -91 1734 -91 
Q 1441 -91 1130 -33 
Q 819 25 488 141 
L 488 750 
Q 750 597 1062 519 
Q 1375 441 1716 441 
Q 2309 441 2620 675 
Q 2931 909 2931 1356 
Q 2931 1769 2642 2001 
Q 2353 2234 1838 2234 
L 1294 2234 
L 1294 2753 
L 1863 2753 
Q 2328 2753 2575 2939 
Q 2822 3125 2822 3475 
Q 2822 3834 2567 4026 
Q 2313 4219 1838 4219 
Q 1578 4219 1281 4162 
Q 984 4106 628 3988 
L 628 4550 
Q 988 4650 1302 4700 
Q 1616 4750 1894 4750 
Q 2613 4750 3031 4423 
Q 3450 4097 3450 3541 
Q 3450 3153 3228 2886 
Q 3006 2619 2597 2516 
z
" transform="scale(0.015625)"/>
       </defs>
       <use xlink:href="#DejaVuSans-33"/>
       <use xlink:href="#DejaVuSans-30" x="63.623047"/>
       <use xlink:href="#DejaVuSans-30" x="127.246094"/>
       <use xlink:href="#DejaVuSans-30" x="190.869141"/>
      </g>
     </g>
    </g>
    <g id="xtick_5">
     <g id="line2d_5">
      <g>
       <use xlink:href="#m5b3637ec9e" x="863.800196" y="1153.44" style="stroke: #000000; stroke-width: 0.8"/>
      </g>
     </g>
     <g id="text_5">
      <!-- 4000 -->
      <g transform="translate(851.075196 1168.038438) scale(0.1 -0.1)">
       <defs>
        <path id="DejaVuSans-34" d="M 2419 4116 
L 825 1625 
L 2419 1625 
L 2419 4116 
z
M 2253 4666 
L 3047 4666 
L 3047 1625 
L 3713 1625 
L 3713 1100 
L 3047 1100 
L 3047 0 
L 2419 0 
L 2419 1100 
L 313 1100 
L 313 1709 
L 2253 4666 
z
" transform="scale(0.015625)"/>
       </defs>
       <use xlink:href="#DejaVuSans-34"/>
       <use xlink:href="#DejaVuSans-30" x="63.623047"/>
       <use xlink:href="#DejaVuSans-30" x="127.246094"/>
       <use xlink:href="#DejaVuSans-30" x="190.869141"/>
      </g>
     </g>
    </g>
    <g id="xtick_6">
     <g id="line2d_6">
      <g>
       <use xlink:href="#m5b3637ec9e" x="1027.877628" y="1153.44" style="stroke: #000000; stroke-width: 0.8"/>
      </g>
     </g>
     <g id="text_6">
      <!-- 5000 -->
      <g transform="translate(1015.152628 1168.038438) scale(0.1 -0.1)">
       <defs>
        <path id="DejaVuSans-35" d="M 691 4666 
L 3169 4666 
L 3169 4134 
L 1269 4134 
L 1269 2991 
Q 1406 3038 1543 3061 
Q 1681 3084 1819 3084 
Q 2600 3084 3056 2656 
Q 3513 2228 3513 1497 
Q 3513 744 3044 326 
Q 2575 -91 1722 -91 
Q 1428 -91 1123 -41 
Q 819 9 494 109 
L 494 744 
Q 775 591 1075 516 
Q 1375 441 1709 441 
Q 2250 441 2565 725 
Q 2881 1009 2881 1497 
Q 2881 1984 2565 2268 
Q 2250 2553 1709 2553 
Q 1456 2553 1204 2497 
Q 953 2441 691 2322 
L 691 4666 
z
" transform="scale(0.015625)"/>
       </defs>
       <use xlink:href="#DejaVuSans-35"/>
       <use xlink:href="#DejaVuSans-30" x="63.623047"/>
       <use xlink:href="#DejaVuSans-30" x="127.246094"/>
       <use xlink:href="#DejaVuSans-30" x="190.869141"/>
      </g>
     </g>
    </g>
    <g id="text_7">
     <!-- lifetime -->
     <g transform="translate(645.289062 1181.716563) scale(0.1 -0.1)">
      <defs>
       <path id="DejaVuSans-6c" d="M 603 4863 
L 1178 4863 
L 1178 0 
L 603 0 
L 603 4863 
z
" transform="scale(0.015625)"/>
       <path id="DejaVuSans-69" d="M 603 3500 
L 1178 3500 
L 1178 0 
L 603 0 
L 603 3500 
z
M 603 4863 
L 1178 4863 
L 1178 4134 
L 603 4134 
L 603 4863 
z
" transform="scale(0.015625)"/>
       <path id="DejaVuSans-66" d="M 2375 4863 
L 2375 4384 
L 1825 4384 
Q 1516 4384 1395 4259 
Q 1275 4134 1275 3809 
L 1275 3500 
L 2222 3500 
L 2222 3053 
L 1275 3053 
L 1275 0 
L 697 0 
L 697 3053 
L 147 3053 
L 147 3500 
L 697 3500 
L 697 3744 
Q 697 4328 969 4595 
Q 1241 4863 1831 4863 
L 2375 4863 
z
" transform="scale(0.015625)"/>
       <path id="DejaVuSans-65" d="M 3597 1894 
L 3597 1613 
L 953 1613 
Q 991 1019 1311 708 
Q 1631 397 2203 397 
Q 2534 397 2845 478 
Q 3156 559 3463 722 
L 3463 178 
Q 3153 47 2828 -22 
Q 2503 -91 2169 -91 
Q 1331 -91 842 396 
Q 353 884 353 1716 
Q 353 2575 817 3079 
Q 1281 3584 2069 3584 
Q 2775 3584 3186 3129 
Q 3597 2675 3597 1894 
z
M 3022 2063 
Q 3016 2534 2758 2815 
Q 2500 3097 2075 3097 
Q 1594 3097 1305 2825 
Q 1016 2553 972 2059 
L 3022 2063 
z
" transform="scale(0.015625)"/>
       <path id="DejaVuSans-74" d="M 1172 4494 
L 1172 3500 
L 2356 3500 
L 2356 3053 
L 1172 3053 
L 1172 1153 
Q 1172 725 1289 603 
Q 1406 481 1766 481 
L 2356 481 
L 2356 0 
L 1766 0 
Q 1100 0 847 248 
Q 594 497 594 1153 
L 594 3053 
L 172 3053 
L 172 3500 
L 594 3500 
L 594 4494 
L 1172 4494 
z
" transform="scale(0.015625)"/>
       <path id="DejaVuSans-6d" d="M 3328 2828 
Q 3544 3216 3844 3400 
Q 4144 3584 4550 3584 
Q 5097 3584 5394 3201 
Q 5691 2819 5691 2113 
L 5691 0 
L 5113 0 
L 5113 2094 
Q 5113 2597 4934 2840 
Q 4756 3084 4391 3084 
Q 3944 3084 3684 2787 
Q 3425 2491 3425 1978 
L 3425 0 
L 2847 0 
L 2847 2094 
Q 2847 2600 2669 2842 
Q 2491 3084 2119 3084 
Q 1678 3084 1418 2786 
Q 1159 2488 1159 1978 
L 1159 0 
L 581 0 
L 581 3500 
L 1159 3500 
L 1159 2956 
Q 1356 3278 1631 3431 
Q 1906 3584 2284 3584 
Q 2666 3584 2933 3390 
Q 3200 3197 3328 2828 
z
" transform="scale(0.015625)"/>
      </defs>
      <use xlink:href="#DejaVuSans-6c"/>
      <use xlink:href="#DejaVuSans-69" x="27.783203"/>
      <use xlink:href="#DejaVuSans-66" x="55.566406"/>
      <use xlink:href="#DejaVuSans-65" x="90.771484"/>
      <use xlink:href="#DejaVuSans-74" x="152.294922"/>
      <use xlink:href="#DejaVuSans-69" x="191.503906"/>
      <use xlink:href="#DejaVuSans-6d" x="219.287109"/>
      <use xlink:href="#DejaVuSans-65" x="316.699219"/>
     </g>
    </g>
   </g>
   <g id="matplotlib.axis_2">
    <g id="ytick_1">
     <g id="line2d_7">
      <defs>
       <path id="mbfb6652c5f" d="M 0 0 
L -3.5 0 
" style="stroke: #000000; stroke-width: 0.8"/>
      </defs>
      <g>
       <use xlink:href="#mbfb6652c5f" x="162" y="1108.08" style="stroke: #000000; stroke-width: 0.8"/>
      </g>
     </g>
     <g id="text_8">
      <!-- 0 -->
      <g transform="translate(148.6375 1111.879219) scale(0.1 -0.1)">
       <use xlink:href="#DejaVuSans-30"/>
      </g>
     </g>
    </g>
    <g id="ytick_2">
     <g id="line2d_8">
      <g>
       <use xlink:href="#mbfb6652c5f" x="162" y="912.141264" style="stroke: #000000; stroke-width: 0.8"/>
      </g>
     </g>
     <g id="text_9">
      <!-- 20 -->
      <g transform="translate(142.275 915.940482) scale(0.1 -0.1)">
       <use xlink:href="#DejaVuSans-32"/>
       <use xlink:href="#DejaVuSans-30" x="63.623047"/>
      </g>
     </g>
    </g>
    <g id="ytick_3">
     <g id="line2d_9">
      <g>
       <use xlink:href="#mbfb6652c5f" x="162" y="716.202527" style="stroke: #000000; stroke-width: 0.8"/>
      </g>
     </g>
     <g id="text_10">
      <!-- 40 -->
      <g transform="translate(142.275 720.001746) scale(0.1 -0.1)">
       <use xlink:href="#DejaVuSans-34"/>
       <use xlink:href="#DejaVuSans-30" x="63.623047"/>
      </g>
     </g>
    </g>
    <g id="ytick_4">
     <g id="line2d_10">
      <g>
       <use xlink:href="#mbfb6652c5f" x="162" y="520.263791" style="stroke: #000000; stroke-width: 0.8"/>
      </g>
     </g>
     <g id="text_11">
      <!-- 60 -->
      <g transform="translate(142.275 524.06301) scale(0.1 -0.1)">
       <defs>
        <path id="DejaVuSans-36" d="M 2113 2584 
Q 1688 2584 1439 2293 
Q 1191 2003 1191 1497 
Q 1191 994 1439 701 
Q 1688 409 2113 409 
Q 2538 409 2786 701 
Q 3034 994 3034 1497 
Q 3034 2003 2786 2293 
Q 2538 2584 2113 2584 
z
M 3366 4563 
L 3366 3988 
Q 3128 4100 2886 4159 
Q 2644 4219 2406 4219 
Q 1781 4219 1451 3797 
Q 1122 3375 1075 2522 
Q 1259 2794 1537 2939 
Q 1816 3084 2150 3084 
Q 2853 3084 3261 2657 
Q 3669 2231 3669 1497 
Q 3669 778 3244 343 
Q 2819 -91 2113 -91 
Q 1303 -91 875 529 
Q 447 1150 447 2328 
Q 447 3434 972 4092 
Q 1497 4750 2381 4750 
Q 2619 4750 2861 4703 
Q 3103 4656 3366 4563 
z
" transform="scale(0.015625)"/>
       </defs>
       <use xlink:href="#DejaVuSans-36"/>
       <use xlink:href="#DejaVuSans-30" x="63.623047"/>
      </g>
     </g>
    </g>
    <g id="ytick_5">
     <g id="line2d_11">
      <g>
       <use xlink:href="#mbfb6652c5f" x="162" y="324.325055" style="stroke: #000000; stroke-width: 0.8"/>
      </g>
     </g>
     <g id="text_12">
      <!-- 80 -->
      <g transform="translate(142.275 328.124273) scale(0.1 -0.1)">
       <defs>
        <path id="DejaVuSans-38" d="M 2034 2216 
Q 1584 2216 1326 1975 
Q 1069 1734 1069 1313 
Q 1069 891 1326 650 
Q 1584 409 2034 409 
Q 2484 409 2743 651 
Q 3003 894 3003 1313 
Q 3003 1734 2745 1975 
Q 2488 2216 2034 2216 
z
M 1403 2484 
Q 997 2584 770 2862 
Q 544 3141 544 3541 
Q 544 4100 942 4425 
Q 1341 4750 2034 4750 
Q 2731 4750 3128 4425 
Q 3525 4100 3525 3541 
Q 3525 3141 3298 2862 
Q 3072 2584 2669 2484 
Q 3125 2378 3379 2068 
Q 3634 1759 3634 1313 
Q 3634 634 3220 271 
Q 2806 -91 2034 -91 
Q 1263 -91 848 271 
Q 434 634 434 1313 
Q 434 1759 690 2068 
Q 947 2378 1403 2484 
z
M 1172 3481 
Q 1172 3119 1398 2916 
Q 1625 2713 2034 2713 
Q 2441 2713 2670 2916 
Q 2900 3119 2900 3481 
Q 2900 3844 2670 4047 
Q 2441 4250 2034 4250 
Q 1625 4250 1398 4047 
Q 1172 3844 1172 3481 
z
" transform="scale(0.015625)"/>
       </defs>
       <use xlink:href="#DejaVuSans-38"/>
       <use xlink:href="#DejaVuSans-30" x="63.623047"/>
      </g>
     </g>
    </g>
    <g id="text_13">
     <!-- seconds -->
     <g transform="translate(136.195312 674.9175) rotate(-90) scale(0.1 -0.1)">
      <defs>
       <path id="DejaVuSans-73" d="M 2834 3397 
L 2834 2853 
Q 2591 2978 2328 3040 
Q 2066 3103 1784 3103 
Q 1356 3103 1142 2972 
Q 928 2841 928 2578 
Q 928 2378 1081 2264 
Q 1234 2150 1697 2047 
L 1894 2003 
Q 2506 1872 2764 1633 
Q 3022 1394 3022 966 
Q 3022 478 2636 193 
Q 2250 -91 1575 -91 
Q 1294 -91 989 -36 
Q 684 19 347 128 
L 347 722 
Q 666 556 975 473 
Q 1284 391 1588 391 
Q 1994 391 2212 530 
Q 2431 669 2431 922 
Q 2431 1156 2273 1281 
Q 2116 1406 1581 1522 
L 1381 1569 
Q 847 1681 609 1914 
Q 372 2147 372 2553 
Q 372 3047 722 3315 
Q 1072 3584 1716 3584 
Q 2034 3584 2315 3537 
Q 2597 3491 2834 3397 
z
" transform="scale(0.015625)"/>
       <path id="DejaVuSans-63" d="M 3122 3366 
L 3122 2828 
Q 2878 2963 2633 3030 
Q 2388 3097 2138 3097 
Q 1578 3097 1268 2742 
Q 959 2388 959 1747 
Q 959 1106 1268 751 
Q 1578 397 2138 397 
Q 2388 397 2633 464 
Q 2878 531 3122 666 
L 3122 134 
Q 2881 22 2623 -34 
Q 2366 -91 2075 -91 
Q 1284 -91 818 406 
Q 353 903 353 1747 
Q 353 2603 823 3093 
Q 1294 3584 2113 3584 
Q 2378 3584 2631 3529 
Q 2884 3475 3122 3366 
z
" transform="scale(0.015625)"/>
       <path id="DejaVuSans-6f" d="M 1959 3097 
Q 1497 3097 1228 2736 
Q 959 2375 959 1747 
Q 959 1119 1226 758 
Q 1494 397 1959 397 
Q 2419 397 2687 759 
Q 2956 1122 2956 1747 
Q 2956 2369 2687 2733 
Q 2419 3097 1959 3097 
z
M 1959 3584 
Q 2709 3584 3137 3096 
Q 3566 2609 3566 1747 
Q 3566 888 3137 398 
Q 2709 -91 1959 -91 
Q 1206 -91 779 398 
Q 353 888 353 1747 
Q 353 2609 779 3096 
Q 1206 3584 1959 3584 
z
" transform="scale(0.015625)"/>
       <path id="DejaVuSans-6e" d="M 3513 2113 
L 3513 0 
L 2938 0 
L 2938 2094 
Q 2938 2591 2744 2837 
Q 2550 3084 2163 3084 
Q 1697 3084 1428 2787 
Q 1159 2491 1159 1978 
L 1159 0 
L 581 0 
L 581 3500 
L 1159 3500 
L 1159 2956 
Q 1366 3272 1645 3428 
Q 1925 3584 2291 3584 
Q 2894 3584 3203 3211 
Q 3513 2838 3513 2113 
z
" transform="scale(0.015625)"/>
       <path id="DejaVuSans-64" d="M 2906 2969 
L 2906 4863 
L 3481 4863 
L 3481 0 
L 2906 0 
L 2906 525 
Q 2725 213 2448 61 
Q 2172 -91 1784 -91 
Q 1150 -91 751 415 
Q 353 922 353 1747 
Q 353 2572 751 3078 
Q 1150 3584 1784 3584 
Q 2172 3584 2448 3432 
Q 2725 3281 2906 2969 
z
M 947 1747 
Q 947 1113 1208 752 
Q 1469 391 1925 391 
Q 2381 391 2643 752 
Q 2906 1113 2906 1747 
Q 2906 2381 2643 2742 
Q 2381 3103 1925 3103 
Q 1469 3103 1208 2742 
Q 947 2381 947 1747 
z
" transform="scale(0.015625)"/>
      </defs>
      <use xlink:href="#DejaVuSans-73"/>
      <use xlink:href="#DejaVuSans-65" x="52.099609"/>
      <use xlink:href="#DejaVuSans-63" x="113.623047"/>
      <use xlink:href="#DejaVuSans-6f" x="168.603516"/>
      <use xlink:href="#DejaVuSans-6e" x="229.785156"/>
      <use xlink:href="#DejaVuSans-64" x="293.164062"/>
      <use xlink:href="#DejaVuSans-73" x="356.640625"/>
     </g>
    </g>
   </g>
   <g id="line2d_12">
    <path d="M 207.654545 200.88 
L 207.818623 306.688396 
L 208.310855 410.536721 
L 208.474933 452.663638 
L 208.803087 473.237348 
L 208.967165 477.15616 
L 209.131242 497.72979 
L 209.29532 503.607964 
L 209.459397 503.607964 
L 209.623475 504.587667 
L 210.115707 511.44555 
L 210.443862 523.201922 
L 210.936094 529.080137 
L 211.100172 529.080147 
L 211.428326 536.917725 
L 211.592404 535.938017 
L 212.084636 549.653768 
L 212.412791 551.613158 
L 212.576868 551.613158 
L 212.905023 564.349182 
L 213.233178 564.349182 
L 213.397256 565.328878 
L 214.38172 591.780707 
L 214.545798 591.780707 
L 214.873952 599.618263 
L 215.03803 600.597958 
L 215.202107 627.049743 
L 215.366185 628.029443 
L 215.530262 655.460921 
L 215.69434 655.460921 
L 215.858417 656.440606 
L 216.022494 660.359367 
L 216.186572 660.359367 
L 216.350649 664.278158 
L 216.514727 665.257846 
L 216.842882 675.054758 
L 217.335114 675.05476 
L 217.499191 678.973548 
L 217.663269 679.953235 
L 217.827346 681.912633 
L 217.991424 681.912633 
L 218.155501 685.831438 
L 218.319579 686.811137 
L 218.483656 688.770485 
L 218.647733 696.608042 
L 218.811811 697.587748 
L 219.139966 704.445656 
L 219.468121 704.445645 
L 219.632198 705.425331 
L 219.796275 707.384734 
L 219.960353 707.384734 
L 220.12443 697.587792 
L 220.288508 665.257912 
L 220.452585 666.237613 
L 221.272972 666.237609 
L 221.43705 669.176678 
L 221.601127 676.034535 
L 221.765205 677.014242 
L 221.929282 677.014242 
L 222.257437 652.521772 
L 222.421514 654.481172 
L 222.585592 658.399944 
L 222.749669 690.729913 
L 222.913747 691.709614 
L 223.077824 689.750215 
L 223.241901 690.729915 
L 223.734134 690.729906 
L 224.226366 695.628384 
L 224.390444 695.628384 
L 224.718598 699.547173 
L 224.882676 699.547173 
L 225.210831 701.506567 
L 225.374908 701.50656 
L 225.538986 702.486247 
L 225.703063 712.283197 
L 225.86714 737.755285 
L 227.015682 737.755284 
L 227.343837 741.67404 
L 227.507915 751.470966 
L 227.671992 751.470966 
L 227.83607 755.389782 
L 228.000147 755.389777 
L 228.164224 756.369459 
L 228.328302 760.288255 
L 228.492379 761.267963 
L 229.476844 761.267963 
L 229.804999 764.20706 
L 229.969076 764.207055 
L 230.461309 767.146155 
L 231.445773 767.146155 
L 231.773928 771.064943 
L 232.758393 771.064927 
L 232.92247 772.044621 
L 233.086547 772.044608 
L 233.250625 776.943098 
L 233.742857 776.943098 
L 233.906935 777.922798 
L 234.727322 777.922798 
L 234.891399 778.902496 
L 235.055477 778.902496 
L 235.219554 783.800974 
L 235.383631 783.800967 
L 235.547709 784.780631 
L 235.875864 795.557307 
L 236.204019 798.496401 
L 236.368096 799.476096 
L 236.532173 799.476096 
L 237.024406 813.191787 
L 237.516638 813.191782 
L 237.680716 815.151188 
L 238.00887 815.151188 
L 238.172948 817.110593 
L 238.337025 817.110593 
L 238.66518 819.06999 
L 238.829258 824.948139 
L 238.993335 836.704487 
L 239.9778 836.704482 
L 240.141877 837.684184 
L 240.470032 837.684184 
L 240.634109 847.481146 
L 241.126342 847.481146 
L 241.290419 848.460846 
L 242.110806 848.460846 
L 242.274884 850.420236 
L 242.438961 862.176579 
L 244.571968 862.176579 
L 244.736045 863.156279 
L 245.228277 863.156269 
L 245.392355 864.135954 
L 245.72051 864.135954 
L 246.048665 866.095361 
L 246.869052 866.095361 
L 247.197207 868.054728 
L 248.017594 868.054728 
L 248.181671 870.014123 
L 248.345749 870.014123 
L 248.673903 873.93293 
L 248.837981 869.034434 
L 249.166136 870.993844 
L 250.478755 870.99384 
L 250.642833 871.973539 
L 253.103994 871.973539 
L 253.268072 872.953203 
L 253.596226 872.953203 
L 253.760304 874.91261 
L 253.924381 874.912594 
L 254.088459 875.892305 
L 254.252536 875.892305 
L 254.416614 876.872009 
L 254.744768 876.872009 
L 254.908846 877.851703 
L 255.072923 882.750182 
L 256.057388 882.750182 
L 256.221465 883.72988 
L 257.041852 883.729874 
L 257.20593 884.709572 
L 259.503014 884.709572 
L 259.667091 885.689267 
L 259.995246 888.628348 
L 260.979711 888.628319 
L 261.143788 890.587739 
L 262.128253 890.587739 
L 262.29233 891.567406 
L 262.620485 902.34408 
L 262.94864 902.344064 
L 263.276795 908.222249 
L 265.902034 908.222225 
L 266.066111 909.201932 
L 266.230189 909.201932 
L 266.394266 910.181637 
L 269.511737 910.181637 
L 269.675815 911.161333 
L 269.839892 913.120728 
L 270.00397 913.120728 
L 270.332124 919.978593 
L 273.285518 919.978593 
L 273.613673 925.856767 
L 274.43406 925.856767 
L 274.598138 926.836464 
L 275.74668 926.836442 
L 276.074835 930.755243 
L 276.238912 930.755243 
L 276.402989 928.795857 
L 277.059299 928.795839 
L 277.223377 929.775549 
L 279.192306 929.77552 
L 279.356383 938.592797 
L 280.17677 938.592797 
L 280.340848 939.572499 
L 287.88841 939.572499 
L 288.216565 933.694327 
L 288.380642 933.694327 
L 288.544719 928.79584 
L 288.708797 931.734939 
L 289.365107 931.734939 
L 289.529184 933.694317 
L 289.693261 938.592793 
L 289.857339 938.592793 
L 290.021416 939.5725 
L 291.169958 939.572492 
L 291.334036 940.552196 
L 291.990346 940.552196 
L 292.154423 941.531891 
L 294.28743 941.531883 
L 294.451507 940.552179 
L 294.615584 941.531875 
L 294.779662 941.531875 
L 294.943739 942.511581 
L 295.600049 942.511581 
L 295.764126 951.328836 
L 295.928204 951.328836 
L 296.092281 952.308538 
L 298.71752 952.308538 
L 298.881598 953.288235 
L 302.327224 953.288215 
L 302.491301 954.26792 
L 302.655379 954.26792 
L 302.819456 955.247625 
L 303.147611 955.247625 
L 303.311688 952.308528 
L 303.475766 943.491286 
L 303.803921 943.491286 
L 304.132075 955.247624 
L 305.444695 955.247624 
L 305.608772 958.186707 
L 305.936927 958.186692 
L 306.101005 965.044569 
L 306.265082 966.024266 
L 306.42916 966.024266 
L 306.593237 967.003964 
L 306.757314 967.003964 
L 307.085469 968.963357 
L 309.218476 968.963357 
L 309.382553 971.902446 
L 309.546631 970.922748 
L 312.335947 970.922748 
L 312.500025 971.902442 
L 312.664102 973.861832 
L 313.320412 973.861832 
L 313.648567 975.821226 
L 314.140799 975.821226 
L 314.304876 976.800923 
L 315.125263 976.800923 
L 315.289341 974.841533 
L 315.617496 974.841533 
L 315.781573 975.821231 
L 317.094193 975.82122 
L 317.25827 976.800914 
L 317.750502 976.800904 
L 317.91458 977.780608 
L 318.078657 977.780608 
L 318.242735 978.760312 
L 319.883509 978.7603 
L 320.047586 979.740007 
L 322.508748 979.740007 
L 322.672825 978.760292 
L 323.00098 980.719704 
L 331.040774 980.71969 
L 331.368929 982.679093 
L 331.697084 982.679093 
L 332.025239 984.638486 
L 340.229111 984.63847 
L 340.393188 985.618178 
L 345.479588 985.618169 
L 345.643666 986.597872 
L 350.401911 986.597836 
L 350.565989 987.577543 
L 350.730066 989.536955 
L 351.222298 989.536955 
L 351.550453 992.476028 
L 351.714531 993.455736 
L 355.488312 993.455736 
L 355.652389 994.435432 
L 363.364028 994.435432 
L 363.856261 999.333902 
L 369.270816 999.333891 
L 369.434893 1000.313573 
L 369.598971 1002.272984 
L 370.255281 1002.272972 
L 370.419358 1003.252679 
L 374.193139 1003.252668 
L 374.357216 1004.232373 
L 382.725165 1004.232373 
L 382.889243 1005.21207 
L 389.780495 1005.212057 
L 390.10865 1009.130849 
L 390.76496 1009.130834 
L 390.929037 1010.110543 
L 412.587258 1010.110543 
L 412.751335 1011.09024 
L 414.39211 1011.09024 
L 414.556187 1012.069936 
L 420.955207 1012.069936 
L 421.447439 1018.927801 
L 428.010537 1018.927801 
L 428.338691 1022.84658 
L 439.331879 1022.84658 
L 439.495957 1023.826274 
L 439.660034 1025.785662 
L 440.808576 1025.785662 
L 441.136731 1028.724743 
L 441.300809 1029.704438 
L 469.193972 1029.704428 
L 469.358049 1030.684132 
L 471.655134 1030.684132 
L 471.819211 1031.663828 
L 474.280372 1031.663814 
L 474.44445 1032.643522 
L 477.069689 1032.643514 
L 477.233766 1033.623218 
L 480.515315 1033.623218 
L 480.679392 1034.602911 
L 480.84347 1037.541993 
L 482.812399 1037.541981 
L 482.976476 1038.521687 
L 486.750257 1038.521687 
L 487.078412 1040.481076 
L 497.41529 1040.481077 
L 497.579368 1041.460771 
L 499.38422 1041.460771 
L 499.712374 1043.42016 
L 520.057976 1043.420118 
L 520.222053 1046.359245 
L 523.831757 1046.359245 
L 523.995834 1044.399826 
L 524.159912 1046.359243 
L 551.068611 1046.359231 
L 551.232688 1047.338938 
L 552.38123 1047.338926 
L 552.545308 1048.318632 
L 562.061799 1048.318632 
L 562.225876 1049.298327 
L 567.148199 1049.298313 
L 567.476354 1051.257716 
L 582.899632 1051.257716 
L 583.06371 1052.237411 
L 583.555942 1052.237411 
L 583.72002 1055.176493 
L 584.048174 1055.176493 
L 584.212252 1056.156188 
L 600.455918 1056.156188 
L 600.619995 1057.135883 
L 600.784073 1059.095272 
L 613.08988 1059.095272 
L 613.253957 1060.074967 
L 613.418035 1062.034356 
L 619.981132 1062.034356 
L 620.14521 1063.993747 
L 641.147121 1063.993735 
L 641.311198 1064.973442 
L 647.546141 1064.973429 
L 647.710218 1065.953136 
L 647.874296 1108.08 
L 1120.745455 1108.08 
L 1120.745455 1108.08 
" clip-path="url(#p4b85dc6938)" style="fill: none; stroke: #1f77b4; stroke-linecap: square"/>
   </g>
   <g id="line2d_13">
    <path d="M 207.654545 1032.752272 
L 207.9827 1032.752272 
L 208.474933 1033.301159 
L 208.63901 1033.77168 
L 208.803087 1033.536661 
L 209.459397 1036.202502 
L 209.623475 1034.830829 
L 209.787552 1034.948382 
L 209.95163 1035.457903 
L 210.279784 1041.689563 
L 210.443862 1042.081546 
L 210.772017 1045.177895 
L 211.264249 1046.197092 
L 211.428326 1049.018931 
L 211.756481 1051.409775 
L 211.920559 1052.859863 
L 212.084636 1060.07093 
L 212.248714 1062.030541 
L 212.576868 1062.187354 
L 212.905023 1062.265763 
L 213.397256 1063.363153 
L 213.561333 1065.283431 
L 213.72541 1065.55782 
L 213.889488 1065.55782 
L 214.217643 1066.302613 
L 214.873952 1066.302614 
L 215.202107 1066.4986 
L 215.366185 1070.064963 
L 215.530262 1070.535309 
L 216.022494 1070.574507 
L 216.350649 1071.123196 
L 216.514727 1071.240774 
L 216.678804 1071.671881 
L 217.335114 1072.063876 
L 217.499191 1072.103078 
L 217.663269 1072.338223 
L 217.827346 1073.043678 
L 218.319579 1073.239678 
L 218.647733 1074.101825 
L 219.960353 1074.376212 
L 220.452585 1075.316813 
L 220.78074 1077.746661 
L 220.944817 1077.746661 
L 221.108895 1077.981859 
L 221.43705 1078.021055 
L 221.601127 1077.629128 
L 221.765205 1076.100624 
L 222.585592 1076.100624 
L 222.913747 1077.080385 
L 223.077824 1076.884437 
L 224.554521 1077.550734 
L 224.882676 1077.394005 
L 225.374908 1077.589952 
L 225.703063 1077.864233 
L 226.359373 1077.864233 
L 226.52345 1078.021 
L 227.015682 1078.021 
L 227.507915 1078.452035 
L 228.820534 1078.765596 
L 228.984612 1079.039928 
L 229.969076 1079.118271 
L 230.625386 1079.235861 
L 230.953541 1079.157467 
L 231.609851 1079.353465 
L 232.26616 1079.353465 
L 232.758393 1079.627796 
L 233.250625 1079.666994 
L 233.906935 1080.09812 
L 234.071012 1080.09812 
L 234.399167 1080.411644 
L 234.563244 1080.411644 
L 235.055477 1080.646826 
L 235.547709 1080.803619 
L 235.875864 1080.842808 
L 236.204019 1081.234708 
L 237.680716 1081.313088 
L 237.844793 1081.548231 
L 238.993335 1081.626611 
L 239.157412 1082.057709 
L 239.32149 1083.15509 
L 240.305954 1083.233488 
L 240.634109 1083.390252 
L 241.126342 1083.782141 
L 242.438961 1083.86051 
L 243.915658 1084.134888 
L 244.079735 1084.134888 
L 244.243813 1083.860548 
L 245.556432 1083.899748 
L 245.884587 1084.017342 
L 246.540897 1084.095726 
L 249.002058 1084.095713 
L 249.330213 1084.330882 
L 250.478755 1084.370077 
L 250.642833 1084.448467 
L 250.80691 1084.76199 
L 250.970988 1085.34983 
L 251.627297 1085.389025 
L 251.955452 1085.506611 
L 252.775839 1085.5849 
L 253.268072 1085.741603 
L 253.432149 1085.702402 
L 253.596226 1087.034901 
L 255.401078 1087.113279 
L 255.729233 1087.191657 
L 255.89331 1086.760601 
L 256.877775 1086.838996 
L 257.370007 1086.878193 
L 257.698162 1086.91739 
L 258.026317 1087.074177 
L 258.518549 1087.113375 
L 259.503014 1087.152571 
L 259.667091 1088.36747 
L 259.995246 1088.40667 
L 260.323401 1088.641854 
L 260.815633 1088.56345 
L 260.979711 1088.524229 
L 261.307866 1088.602622 
L 261.471943 1088.602622 
L 261.964175 1088.837747 
L 262.29233 1088.837747 
L 262.456408 1089.425602 
L 262.784563 1089.464766 
L 263.112717 1089.543142 
L 264.917569 1089.621452 
L 265.737956 1089.738972 
L 267.050576 1089.81737 
L 268.03504 1090.013324 
L 268.363195 1090.248516 
L 269.019505 1090.287717 
L 269.34766 1090.405312 
L 269.839892 1090.444491 
L 271.808821 1090.522862 
L 272.136976 1090.640411 
L 272.793286 1090.718816 
L 273.285518 1090.758018 
L 273.449596 1090.993145 
L 276.074835 1091.071544 
L 277.059299 1091.228341 
L 280.669003 1091.306698 
L 280.997158 1091.424285 
L 288.216565 1091.50259 
L 288.544719 1091.580984 
L 289.036952 1091.580984 
L 289.365107 1091.698575 
L 289.693261 1091.776966 
L 291.990346 1091.855341 
L 292.810733 1091.972937 
L 293.138888 1091.972937 
L 293.467042 1092.208087 
L 293.795197 1092.20808 
L 293.959275 1093.070244 
L 294.451507 1093.109445 
L 297.568978 1093.148641 
L 297.733056 1093.227032 
L 297.897133 1093.697301 
L 298.06121 1097.067547 
L 301.342759 1097.145935 
L 302.491301 1097.341889 
L 305.608772 1097.381066 
L 305.936927 1097.459463 
L 308.726244 1097.498635 
L 308.890321 1097.812165 
L 316.109728 1097.890564 
L 316.60196 1097.929762 
L 316.930115 1097.929762 
L 317.25827 1098.086535 
L 317.750502 1098.086534 
L 317.91458 1098.243285 
L 318.242735 1098.243285 
L 318.570889 1098.360865 
L 319.555354 1098.439254 
L 319.883509 1098.556837 
L 323.821367 1098.635231 
L 324.641754 1098.752803 
L 325.298064 1098.752793 
L 325.626219 1099.027095 
L 330.05631 1099.105499 
L 330.548542 1099.144698 
L 336.783484 1099.22308 
L 337.275717 1099.262277 
L 344.331046 1099.34064 
L 344.987356 1099.41904 
L 352.698995 1099.497399 
L 353.191228 1099.615002 
L 365.989267 1099.693354 
L 366.4815 1099.732544 
L 368.614506 1099.81095 
L 369.106739 1099.850155 
L 371.896055 1099.928536 
L 372.22421 1099.967721 
L 372.388287 1099.967721 
L 372.552365 1100.281234 
L 379.771772 1100.359618 
L 380.264004 1100.398812 
L 382.232933 1100.437964 
L 382.561088 1100.555494 
L 382.889243 1100.594701 
L 383.217398 1100.673117 
L 386.498946 1100.751525 
L 386.991179 1100.790715 
L 387.319333 1100.790715 
L 387.647488 1100.947471 
L 390.10865 1100.986649 
L 390.436805 1101.104201 
L 394.538741 1101.182601 
L 395.030973 1101.221805 
L 400.281451 1101.300174 
L 400.773683 1101.33937 
L 403.070767 1101.378553 
L 403.562999 1101.496119 
L 416.853271 1101.496056 
L 417.181426 1101.378468 
L 418.165891 1101.417672 
L 418.494046 1101.496085 
L 420.955207 1101.574438 
L 421.119284 1101.770378 
L 424.400833 1101.848789 
L 425.057143 1101.927194 
L 425.22122 1101.927194 
L 425.385298 1102.083952 
L 425.87753 1102.162339 
L 426.369762 1102.201533 
L 432.604705 1102.2799 
L 433.753247 1102.475857 
L 442.941583 1102.55424 
L 443.10566 1102.71101 
L 443.433815 1102.71101 
L 443.597893 1102.867749 
L 464.107572 1102.946124 
L 464.435727 1102.946122 
L 474.280372 1103.024504 
L 474.608527 1103.142083 
L 495.282284 1103.220457 
L 495.774516 1103.259655 
L 504.47062 1103.338011 
L 504.798775 1103.455567 
L 541.223965 1103.533984 
L 541.716197 1103.573173 
L 559.764715 1103.651546 
L 560.256947 1103.690749 
L 580.930703 1103.76911 
L 581.422936 1103.808312 
L 582.079245 1103.808312 
L 582.4074 1103.965073 
L 590.611272 1104.004265 
L 590.939427 1104.12184 
L 604.393776 1104.200207 
L 604.886008 1104.239404 
L 612.269493 1104.317753 
L 612.761725 1104.356956 
L 623.426758 1104.435298 
L 623.754913 1104.513712 
L 639.998579 1104.592084 
L 640.490811 1104.631254 
L 651.319922 1104.709668 
L 651.812154 1104.748867 
L 683.315021 1104.827228 
L 683.807253 1104.866428 
L 737.460573 1104.944817 
L 737.952806 1104.98401 
L 748.289684 1105.062397 
L 748.617839 1105.140782 
L 787.996422 1105.17996 
L 788.324577 1105.258349 
L 814.741044 1105.336701 
L 815.233276 1105.375909 
L 893.498211 1105.454291 
L 893.990444 1105.493468 
L 937.142808 1105.571843 
L 937.63504 1105.611047 
L 971.763146 1105.68943 
L 971.927224 1105.728623 
L 972.091301 1108.08 
L 1120.745455 1108.08 
L 1120.745455 1108.08 
" clip-path="url(#p4b85dc6938)" style="fill: none; stroke: #ff7f0e; stroke-linecap: square"/>
   </g>
   <g id="line2d_14">
    <path d="M 207.654545 1038.94539 
L 207.9827 1038.94539 
L 208.310855 1039.259051 
L 208.474933 1039.337464 
L 208.803087 1040.239182 
L 209.131242 1041.140984 
L 209.29532 1041.062753 
L 209.623475 1042.082048 
L 210.607939 1043.80696 
L 210.772017 1045.139483 
L 210.936094 1045.257084 
L 211.592404 1047.334379 
L 211.756481 1047.451983 
L 211.920559 1048.392464 
L 212.084636 1056.152182 
L 212.576868 1060.894217 
L 212.740946 1060.894217 
L 212.905023 1061.874002 
L 213.233178 1062.109331 
L 213.889488 1062.344536 
L 214.217643 1062.971722 
L 214.873952 1063.128522 
L 215.202107 1063.363727 
L 215.366185 1066.812511 
L 215.530262 1066.969319 
L 216.022494 1067.047674 
L 216.514727 1067.478857 
L 216.842882 1067.635656 
L 217.499191 1067.870849 
L 217.827346 1067.870849 
L 218.155501 1070.222142 
L 218.483656 1071.241109 
L 218.811811 1071.31951 
L 219.304043 1071.554707 
L 219.468121 1071.98584 
L 219.632198 1072.025042 
L 219.796275 1074.376493 
L 220.12443 1074.415691 
L 220.452585 1075.277852 
L 220.78074 1075.356251 
L 221.108895 1075.356251 
L 221.272972 1073.553392 
L 221.43705 1073.239853 
L 222.093359 1073.357458 
L 222.257437 1073.279093 
L 222.585592 1075.121079 
L 222.749669 1075.121079 
L 222.913747 1075.23866 
L 223.077824 1075.512957 
L 223.405979 1075.552153 
L 223.734134 1075.630547 
L 223.898211 1075.630547 
L 224.226366 1075.748145 
L 224.882676 1075.826545 
L 225.046753 1075.826546 
L 225.374908 1076.335982 
L 227.17976 1076.375184 
L 227.83607 1076.610212 
L 228.164224 1076.649409 
L 228.492379 1076.727804 
L 229.640921 1076.806194 
L 230.297231 1076.884596 
L 230.789463 1076.962994 
L 231.117618 1077.041392 
L 231.445773 1076.531928 
L 232.430238 1076.610324 
L 232.758393 1076.688718 
L 233.57878 1076.688719 
L 233.742857 1076.92383 
L 234.071012 1077.002226 
L 234.399167 1077.19821 
L 234.727322 1077.19821 
L 235.055477 1077.942854 
L 235.711786 1077.86446 
L 236.204019 1077.746885 
L 236.860328 1078.177961 
L 237.024406 1078.491484 
L 237.680716 1078.609025 
L 237.844793 1078.844168 
L 238.66518 1078.883368 
L 238.829258 1078.961762 
L 239.157412 1080.607833 
L 241.290419 1080.686235 
L 242.110806 1080.803837 
L 242.603038 1080.843033 
L 242.931193 1080.999817 
L 245.0642 1081.078213 
L 245.228277 1081.470111 
L 245.72051 1081.548503 
L 247.033129 1081.940369 
L 247.197207 1082.175513 
L 247.525361 1082.175513 
L 247.689439 1082.33229 
L 248.017594 1082.097091 
L 248.345749 1082.293055 
L 248.837981 1082.253879 
L 249.002058 1082.293084 
L 249.330213 1082.841709 
L 249.658368 1082.998487 
L 250.1506 1082.998487 
L 250.478755 1084.409356 
L 251.46322 1084.448555 
L 251.791375 1084.605336 
L 252.283607 1084.605327 
L 252.611762 1084.801275 
L 253.268072 1084.997162 
L 253.432149 1085.585002 
L 254.088459 1085.663349 
L 254.416614 1085.976789 
L 254.908846 1086.055168 
L 255.072923 1086.251135 
L 255.237001 1086.251135 
L 255.401078 1086.09438 
L 255.729233 1086.09438 
L 255.89331 1086.211925 
L 256.057388 1086.721366 
L 256.877775 1086.799766 
L 257.698162 1086.917372 
L 259.503014 1086.995757 
L 261.471943 1087.5052 
L 261.964175 1087.936299 
L 262.128253 1088.171468 
L 263.112717 1088.210666 
L 263.769027 1088.44588 
L 267.542808 1088.485075 
L 268.03504 1088.720161 
L 269.675815 1088.759331 
L 270.332124 1088.994478 
L 271.644744 1089.072841 
L 271.972899 1089.151235 
L 272.301054 1089.38641 
L 272.465131 1089.347213 
L 272.793286 1089.582377 
L 274.926293 1089.660781 
L 275.09037 1089.699985 
L 275.582602 1090.562153 
L 276.895222 1090.60134 
L 277.387454 1090.718937 
L 279.848616 1090.797304 
L 280.17677 1090.875673 
L 281.48939 1090.914826 
L 281.817545 1090.993153 
L 283.130164 1091.071561 
L 283.622396 1091.110765 
L 285.099093 1091.189173 
L 285.427248 1091.267567 
L 287.068023 1091.345957 
L 287.2321 1092.129779 
L 289.036952 1092.168975 
L 289.365107 1092.24737 
L 301.506837 1092.325745 
L 302.327224 1092.443332 
L 306.593237 1092.521668 
L 307.085469 1092.560835 
L 307.741779 1092.639223 
L 308.234011 1092.678418 
L 312.007792 1092.756744 
L 312.828179 1092.874331 
L 314.633031 1092.952749 
L 315.289341 1093.031126 
L 316.930115 1093.031105 
L 317.25827 1093.227031 
L 317.750502 1093.22703 
L 317.91458 1093.383781 
L 318.242735 1093.383781 
L 318.570889 1093.501362 
L 319.063122 1093.540562 
L 320.375741 1093.618969 
L 321.196128 1093.736568 
L 323.165058 1093.814945 
L 324.3136 1094.010919 
L 325.298064 1094.089293 
L 325.626219 1094.167669 
L 330.876697 1094.246049 
L 331.368929 1094.285245 
L 337.603872 1094.285247 
L 337.767949 1094.128476 
L 337.932026 1095.460913 
L 341.377653 1095.539306 
L 341.705807 1095.617697 
L 342.033962 1095.617697 
L 342.362117 1095.735277 
L 343.838814 1095.813662 
L 344.331046 1095.85286 
L 345.479588 1095.931223 
L 345.971821 1096.04881 
L 352.863073 1096.127167 
L 353.355305 1096.205566 
L 353.519383 1096.401539 
L 353.847537 1097.733915 
L 358.441705 1097.812296 
L 358.933938 1097.851485 
L 362.379564 1097.851473 
L 362.543641 1097.969046 
L 362.707719 1099.183934 
L 366.809654 1099.26229 
L 367.301887 1099.379886 
L 368.122274 1099.49742 
L 374.685371 1099.575827 
L 375.177604 1099.615023 
L 382.232933 1099.693381 
L 382.561088 1099.810911 
L 382.889243 1099.850118 
L 383.217398 1099.928534 
L 383.545553 1099.889299 
L 385.514482 1099.967702 
L 386.334869 1100.085309 
L 388.960108 1100.163679 
L 389.288263 1100.242067 
L 394.046508 1100.32045 
L 394.538741 1100.359642 
L 402.086302 1100.437988 
L 402.578535 1100.477178 
L 412.751335 1100.55556 
L 413.407645 1100.633927 
L 414.228032 1100.633927 
L 414.556187 1100.7515 
L 421.283362 1100.829896 
L 421.775594 1100.869089 
L 424.236756 1100.947448 
L 424.893065 1101.025848 
L 425.22122 1101.025848 
L 425.385298 1101.182605 
L 432.93286 1101.261008 
L 433.261014 1101.339395 
L 438.839647 1101.41773 
L 439.495957 1101.496132 
L 441.628963 1101.535263 
L 442.121196 1101.65281 
L 442.613428 1101.692014 
L 445.402744 1101.770425 
L 445.730899 1101.848835 
L 459.021171 1101.927132 
L 459.349326 1102.00554 
L 463.943494 1102.083933 
L 464.599804 1102.162327 
L 472.803676 1102.240688 
L 473.295908 1102.279889 
L 474.280372 1102.319082 
L 474.608527 1102.436662 
L 477.233766 1102.515047 
L 477.725999 1102.554244 
L 488.555109 1102.632641 
L 489.047341 1102.671837 
L 491.180348 1102.71103 
L 491.508503 1102.828607 
L 491.67258 1102.828602 
L 491.836658 1102.985346 
L 502.993923 1103.06371 
L 503.486155 1103.102913 
L 517.432737 1103.181239 
L 518.089047 1103.25965 
L 550.576378 1103.338015 
L 551.232688 1103.573181 
L 590.611272 1103.651531 
L 590.939427 1103.80831 
L 599.471453 1103.886695 
L 600.127763 1104.121848 
L 631.958785 1104.200224 
L 632.451017 1104.239418 
L 665.594658 1104.317785 
L 666.08689 1104.356991 
L 698.574222 1104.43534 
L 699.394609 1104.552929 
L 719.740211 1104.631286 
L 720.232443 1104.670489 
L 739.101348 1104.748885 
L 739.429503 1104.827271 
L 813.756579 1104.905628 
L 814.248812 1104.944798 
L 820.975986 1105.023195 
L 821.304141 1105.140761 
L 837.055575 1105.219149 
L 837.547807 1105.258351 
L 866.589512 1105.336712 
L 867.081745 1105.375916 
L 971.434991 1105.4543 
L 971.763146 1105.532684 
L 987.022347 1105.571872 
L 987.350502 1105.650255 
L 1120.745455 1105.689421 
L 1120.745455 1105.689421 
" clip-path="url(#p4b85dc6938)" style="fill: none; stroke-dasharray: 6.4,1.6,1,1.6; stroke-dashoffset: 0; stroke: #2ca02c"/>
   </g>
   <g id="patch_3">
    <path d="M 162 1153.44 
L 162 155.52 
" style="fill: none; stroke: #000000; stroke-width: 0.8; stroke-linejoin: miter; stroke-linecap: square"/>
   </g>
   <g id="patch_4">
    <path d="M 1166.4 1153.44 
L 1166.4 155.52 
" style="fill: none; stroke: #000000; stroke-width: 0.8; stroke-linejoin: miter; stroke-linecap: square"/>
   </g>
   <g id="patch_5">
    <path d="M 162 1153.44 
L 1166.4 1153.44 
" style="fill: none; stroke: #000000; stroke-width: 0.8; stroke-linejoin: miter; stroke-linecap: square"/>
   </g>
   <g id="patch_6">
    <path d="M 162 155.52 
L 1166.4 155.52 
" style="fill: none; stroke: #000000; stroke-width: 0.8; stroke-linejoin: miter; stroke-linecap: square"/>
   </g>
   <g id="legend_1">
    <g id="patch_7">
     <path d="M 1076.39375 207.554375 
L 1159.4 207.554375 
Q 1161.4 207.554375 1161.4 205.554375 
L 1161.4 162.52 
Q 1161.4 160.52 1159.4 160.52 
L 1076.39375 160.52 
Q 1074.39375 160.52 1074.39375 162.52 
L 1074.39375 205.554375 
Q 1074.39375 207.554375 1076.39375 207.554375 
z
" style="fill: #ffffff; opacity: 0.8; stroke: #cccccc; stroke-linejoin: miter"/>
    </g>
    <g id="line2d_15">
     <path d="M 1078.39375 168.618438 
L 1088.39375 168.618438 
L 1098.39375 168.618438 
" style="fill: none; stroke: #1f77b4; stroke-linecap: square"/>
    </g>
    <g id="text_14">
     <!-- default -->
     <g transform="translate(1106.39375 172.118438) scale(0.1 -0.1)">
      <defs>
       <path id="DejaVuSans-61" d="M 2194 1759 
Q 1497 1759 1228 1600 
Q 959 1441 959 1056 
Q 959 750 1161 570 
Q 1363 391 1709 391 
Q 2188 391 2477 730 
Q 2766 1069 2766 1631 
L 2766 1759 
L 2194 1759 
z
M 3341 1997 
L 3341 0 
L 2766 0 
L 2766 531 
Q 2569 213 2275 61 
Q 1981 -91 1556 -91 
Q 1019 -91 701 211 
Q 384 513 384 1019 
Q 384 1609 779 1909 
Q 1175 2209 1959 2209 
L 2766 2209 
L 2766 2266 
Q 2766 2663 2505 2880 
Q 2244 3097 1772 3097 
Q 1472 3097 1187 3025 
Q 903 2953 641 2809 
L 641 3341 
Q 956 3463 1253 3523 
Q 1550 3584 1831 3584 
Q 2591 3584 2966 3190 
Q 3341 2797 3341 1997 
z
" transform="scale(0.015625)"/>
       <path id="DejaVuSans-75" d="M 544 1381 
L 544 3500 
L 1119 3500 
L 1119 1403 
Q 1119 906 1312 657 
Q 1506 409 1894 409 
Q 2359 409 2629 706 
Q 2900 1003 2900 1516 
L 2900 3500 
L 3475 3500 
L 3475 0 
L 2900 0 
L 2900 538 
Q 2691 219 2414 64 
Q 2138 -91 1772 -91 
Q 1169 -91 856 284 
Q 544 659 544 1381 
z
M 1991 3584 
L 1991 3584 
z
" transform="scale(0.015625)"/>
      </defs>
      <use xlink:href="#DejaVuSans-64"/>
      <use xlink:href="#DejaVuSans-65" x="63.476562"/>
      <use xlink:href="#DejaVuSans-66" x="125"/>
      <use xlink:href="#DejaVuSans-61" x="160.205078"/>
      <use xlink:href="#DejaVuSans-75" x="221.484375"/>
      <use xlink:href="#DejaVuSans-6c" x="284.863281"/>
      <use xlink:href="#DejaVuSans-74" x="312.646484"/>
     </g>
    </g>
    <g id="line2d_16">
     <path d="M 1078.39375 183.296562 
L 1088.39375 183.296562 
L 1098.39375 183.296562 
" style="fill: none; stroke: #ff7f0e; stroke-linecap: square"/>
    </g>
    <g id="text_15">
     <!-- serverless -->
     <g transform="translate(1106.39375 186.796562) scale(0.1 -0.1)">
      <defs>
       <path id="DejaVuSans-72" d="M 2631 2963 
Q 2534 3019 2420 3045 
Q 2306 3072 2169 3072 
Q 1681 3072 1420 2755 
Q 1159 2438 1159 1844 
L 1159 0 
L 581 0 
L 581 3500 
L 1159 3500 
L 1159 2956 
Q 1341 3275 1631 3429 
Q 1922 3584 2338 3584 
Q 2397 3584 2469 3576 
Q 2541 3569 2628 3553 
L 2631 2963 
z
" transform="scale(0.015625)"/>
       <path id="DejaVuSans-76" d="M 191 3500 
L 800 3500 
L 1894 563 
L 2988 3500 
L 3597 3500 
L 2284 0 
L 1503 0 
L 191 3500 
z
" transform="scale(0.015625)"/>
      </defs>
      <use xlink:href="#DejaVuSans-73"/>
      <use xlink:href="#DejaVuSans-65" x="52.099609"/>
      <use xlink:href="#DejaVuSans-72" x="113.623047"/>
      <use xlink:href="#DejaVuSans-76" x="154.736328"/>
      <use xlink:href="#DejaVuSans-65" x="213.916016"/>
      <use xlink:href="#DejaVuSans-72" x="275.439453"/>
      <use xlink:href="#DejaVuSans-6c" x="316.552734"/>
      <use xlink:href="#DejaVuSans-65" x="344.335938"/>
      <use xlink:href="#DejaVuSans-73" x="405.859375"/>
      <use xlink:href="#DejaVuSans-73" x="457.958984"/>
     </g>
    </g>
    <g id="line2d_17">
     <path d="M 1078.39375 197.974688 
L 1088.39375 197.974688 
L 1098.39375 197.974688 
" style="fill: none; stroke-dasharray: 6.4,1.6,1,1.6; stroke-dashoffset: 0; stroke: #2ca02c"/>
    </g>
    <g id="text_16">
     <!-- server -->
     <g transform="translate(1106.39375 201.474688) scale(0.1 -0.1)">
      <use xlink:href="#DejaVuSans-73"/>
      <use xlink:href="#DejaVuSans-65" x="52.099609"/>
      <use xlink:href="#DejaVuSans-72" x="113.623047"/>
      <use xlink:href="#DejaVuSans-76" x="154.736328"/>
      <use xlink:href="#DejaVuSans-65" x="213.916016"/>
      <use xlink:href="#DejaVuSans-72" x="275.439453"/>
     </g>
    </g>
   </g>
  </g>
 </g>
 <defs>
  <clipPath id="p4b85dc6938">
   <rect x="162" y="155.52" width="1004.4" height="997.92"/>
  </clipPath>
 </defs>
</svg>
