<?xml version="1.0" encoding="utf-8" standalone="no"?>
<!DOCTYPE svg PUBLIC "-//W3C//DTD SVG 1.1//EN"
  "http://www.w3.org/Graphics/SVG/1.1/DTD/svg11.dtd">
<svg xmlns:xlink="http://www.w3.org/1999/xlink" width="1296pt" height="1296pt" viewBox="0 0 1296 1296" xmlns="http://www.w3.org/2000/svg" version="1.1">
 <metadata>
  <rdf:RDF xmlns:dc="http://purl.org/dc/elements/1.1/" xmlns:cc="http://creativecommons.org/ns#" xmlns:rdf="http://www.w3.org/1999/02/22-rdf-syntax-ns#">
   <cc:Work>
    <dc:type rdf:resource="http://purl.org/dc/dcmitype/StillImage"/>
    <dc:date>2023-10-17T15:33:44.820107</dc:date>
    <dc:format>image/svg+xml</dc:format>
    <dc:creator>
     <cc:Agent>
      <dc:title>Matplotlib v3.7.1, https://matplotlib.org/</dc:title>
     </cc:Agent>
    </dc:creator>
   </cc:Work>
  </rdf:RDF>
 </metadata>
 <defs>
  <style type="text/css">*{stroke-linejoin: round; stroke-linecap: butt}</style>
 </defs>
 <g id="figure_1">
  <g id="patch_1">
   <path d="M 0 1296 
L 1296 1296 
L 1296 0 
L 0 0 
z
" style="fill: #ffffff"/>
  </g>
  <g id="axes_1">
   <g id="patch_2">
    <path d="M 162 1153.44 
L 1166.4 1153.44 
L 1166.4 155.52 
L 162 155.52 
z
" style="fill: #ffffff"/>
   </g>
   <g id="matplotlib.axis_1">
    <g id="xtick_1">
     <g id="line2d_1">
      <defs>
       <path id="mae2154a1d5" d="M 0 0 
L 0 3.5 
" style="stroke: #000000; stroke-width: 0.8"/>
      </defs>
      <g>
       <use xlink:href="#mae2154a1d5" x="207.490468" y="1153.44" style="stroke: #000000; stroke-width: 0.8"/>
      </g>
     </g>
     <g id="text_1">
      <!-- 0 -->
      <g transform="translate(204.309218 1168.038438) scale(0.1 -0.1)">
       <defs>
        <path id="DejaVuSans-30" d="M 2034 4250 
Q 1547 4250 1301 3770 
Q 1056 3291 1056 2328 
Q 1056 1369 1301 889 
Q 1547 409 2034 409 
Q 2525 409 2770 889 
Q 3016 1369 3016 2328 
Q 3016 3291 2770 3770 
Q 2525 4250 2034 4250 
z
M 2034 4750 
Q 2819 4750 3233 4129 
Q 3647 3509 3647 2328 
Q 3647 1150 3233 529 
Q 2819 -91 2034 -91 
Q 1250 -91 836 529 
Q 422 1150 422 2328 
Q 422 3509 836 4129 
Q 1250 4750 2034 4750 
z
" transform="scale(0.015625)"/>
       </defs>
       <use xlink:href="#DejaVuSans-30"/>
      </g>
     </g>
    </g>
    <g id="xtick_2">
     <g id="line2d_2">
      <g>
       <use xlink:href="#mae2154a1d5" x="371.5679" y="1153.44" style="stroke: #000000; stroke-width: 0.8"/>
      </g>
     </g>
     <g id="text_2">
      <!-- 1000 -->
      <g transform="translate(358.8429 1168.038438) scale(0.1 -0.1)">
       <defs>
        <path id="DejaVuSans-31" d="M 794 531 
L 1825 531 
L 1825 4091 
L 703 3866 
L 703 4441 
L 1819 4666 
L 2450 4666 
L 2450 531 
L 3481 531 
L 3481 0 
L 794 0 
L 794 531 
z
" transform="scale(0.015625)"/>
       </defs>
       <use xlink:href="#DejaVuSans-31"/>
       <use xlink:href="#DejaVuSans-30" x="63.623047"/>
       <use xlink:href="#DejaVuSans-30" x="127.246094"/>
       <use xlink:href="#DejaVuSans-30" x="190.869141"/>
      </g>
     </g>
    </g>
    <g id="xtick_3">
     <g id="line2d_3">
      <g>
       <use xlink:href="#mae2154a1d5" x="535.645332" y="1153.44" style="stroke: #000000; stroke-width: 0.8"/>
      </g>
     </g>
     <g id="text_3">
      <!-- 2000 -->
      <g transform="translate(522.920332 1168.038438) scale(0.1 -0.1)">
       <defs>
        <path id="DejaVuSans-32" d="M 1228 531 
L 3431 531 
L 3431 0 
L 469 0 
L 469 531 
Q 828 903 1448 1529 
Q 2069 2156 2228 2338 
Q 2531 2678 2651 2914 
Q 2772 3150 2772 3378 
Q 2772 3750 2511 3984 
Q 2250 4219 1831 4219 
Q 1534 4219 1204 4116 
Q 875 4013 500 3803 
L 500 4441 
Q 881 4594 1212 4672 
Q 1544 4750 1819 4750 
Q 2544 4750 2975 4387 
Q 3406 4025 3406 3419 
Q 3406 3131 3298 2873 
Q 3191 2616 2906 2266 
Q 2828 2175 2409 1742 
Q 1991 1309 1228 531 
z
" transform="scale(0.015625)"/>
       </defs>
       <use xlink:href="#DejaVuSans-32"/>
       <use xlink:href="#DejaVuSans-30" x="63.623047"/>
       <use xlink:href="#DejaVuSans-30" x="127.246094"/>
       <use xlink:href="#DejaVuSans-30" x="190.869141"/>
      </g>
     </g>
    </g>
    <g id="xtick_4">
     <g id="line2d_4">
      <g>
       <use xlink:href="#mae2154a1d5" x="699.722764" y="1153.44" style="stroke: #000000; stroke-width: 0.8"/>
      </g>
     </g>
     <g id="text_4">
      <!-- 3000 -->
      <g transform="translate(686.997764 1168.038438) scale(0.1 -0.1)">
       <defs>
        <path id="DejaVuSans-33" d="M 2597 2516 
Q 3050 2419 3304 2112 
Q 3559 1806 3559 1356 
Q 3559 666 3084 287 
Q 2609 -91 1734 -91 
Q 1441 -91 1130 -33 
Q 819 25 488 141 
L 488 750 
Q 750 597 1062 519 
Q 1375 441 1716 441 
Q 2309 441 2620 675 
Q 2931 909 2931 1356 
Q 2931 1769 2642 2001 
Q 2353 2234 1838 2234 
L 1294 2234 
L 1294 2753 
L 1863 2753 
Q 2328 2753 2575 2939 
Q 2822 3125 2822 3475 
Q 2822 3834 2567 4026 
Q 2313 4219 1838 4219 
Q 1578 4219 1281 4162 
Q 984 4106 628 3988 
L 628 4550 
Q 988 4650 1302 4700 
Q 1616 4750 1894 4750 
Q 2613 4750 3031 4423 
Q 3450 4097 3450 3541 
Q 3450 3153 3228 2886 
Q 3006 2619 2597 2516 
z
" transform="scale(0.015625)"/>
       </defs>
       <use xlink:href="#DejaVuSans-33"/>
       <use xlink:href="#DejaVuSans-30" x="63.623047"/>
       <use xlink:href="#DejaVuSans-30" x="127.246094"/>
       <use xlink:href="#DejaVuSans-30" x="190.869141"/>
      </g>
     </g>
    </g>
    <g id="xtick_5">
     <g id="line2d_5">
      <g>
       <use xlink:href="#mae2154a1d5" x="863.800196" y="1153.44" style="stroke: #000000; stroke-width: 0.8"/>
      </g>
     </g>
     <g id="text_5">
      <!-- 4000 -->
      <g transform="translate(851.075196 1168.038438) scale(0.1 -0.1)">
       <defs>
        <path id="DejaVuSans-34" d="M 2419 4116 
L 825 1625 
L 2419 1625 
L 2419 4116 
z
M 2253 4666 
L 3047 4666 
L 3047 1625 
L 3713 1625 
L 3713 1100 
L 3047 1100 
L 3047 0 
L 2419 0 
L 2419 1100 
L 313 1100 
L 313 1709 
L 2253 4666 
z
" transform="scale(0.015625)"/>
       </defs>
       <use xlink:href="#DejaVuSans-34"/>
       <use xlink:href="#DejaVuSans-30" x="63.623047"/>
       <use xlink:href="#DejaVuSans-30" x="127.246094"/>
       <use xlink:href="#DejaVuSans-30" x="190.869141"/>
      </g>
     </g>
    </g>
    <g id="xtick_6">
     <g id="line2d_6">
      <g>
       <use xlink:href="#mae2154a1d5" x="1027.877628" y="1153.44" style="stroke: #000000; stroke-width: 0.8"/>
      </g>
     </g>
     <g id="text_6">
      <!-- 5000 -->
      <g transform="translate(1015.152628 1168.038438) scale(0.1 -0.1)">
       <defs>
        <path id="DejaVuSans-35" d="M 691 4666 
L 3169 4666 
L 3169 4134 
L 1269 4134 
L 1269 2991 
Q 1406 3038 1543 3061 
Q 1681 3084 1819 3084 
Q 2600 3084 3056 2656 
Q 3513 2228 3513 1497 
Q 3513 744 3044 326 
Q 2575 -91 1722 -91 
Q 1428 -91 1123 -41 
Q 819 9 494 109 
L 494 744 
Q 775 591 1075 516 
Q 1375 441 1709 441 
Q 2250 441 2565 725 
Q 2881 1009 2881 1497 
Q 2881 1984 2565 2268 
Q 2250 2553 1709 2553 
Q 1456 2553 1204 2497 
Q 953 2441 691 2322 
L 691 4666 
z
" transform="scale(0.015625)"/>
       </defs>
       <use xlink:href="#DejaVuSans-35"/>
       <use xlink:href="#DejaVuSans-30" x="63.623047"/>
       <use xlink:href="#DejaVuSans-30" x="127.246094"/>
       <use xlink:href="#DejaVuSans-30" x="190.869141"/>
      </g>
     </g>
    </g>
    <g id="text_7">
     <!-- lifetime -->
     <g transform="translate(645.289062 1181.716563) scale(0.1 -0.1)">
      <defs>
       <path id="DejaVuSans-6c" d="M 603 4863 
L 1178 4863 
L 1178 0 
L 603 0 
L 603 4863 
z
" transform="scale(0.015625)"/>
       <path id="DejaVuSans-69" d="M 603 3500 
L 1178 3500 
L 1178 0 
L 603 0 
L 603 3500 
z
M 603 4863 
L 1178 4863 
L 1178 4134 
L 603 4134 
L 603 4863 
z
" transform="scale(0.015625)"/>
       <path id="DejaVuSans-66" d="M 2375 4863 
L 2375 4384 
L 1825 4384 
Q 1516 4384 1395 4259 
Q 1275 4134 1275 3809 
L 1275 3500 
L 2222 3500 
L 2222 3053 
L 1275 3053 
L 1275 0 
L 697 0 
L 697 3053 
L 147 3053 
L 147 3500 
L 697 3500 
L 697 3744 
Q 697 4328 969 4595 
Q 1241 4863 1831 4863 
L 2375 4863 
z
" transform="scale(0.015625)"/>
       <path id="DejaVuSans-65" d="M 3597 1894 
L 3597 1613 
L 953 1613 
Q 991 1019 1311 708 
Q 1631 397 2203 397 
Q 2534 397 2845 478 
Q 3156 559 3463 722 
L 3463 178 
Q 3153 47 2828 -22 
Q 2503 -91 2169 -91 
Q 1331 -91 842 396 
Q 353 884 353 1716 
Q 353 2575 817 3079 
Q 1281 3584 2069 3584 
Q 2775 3584 3186 3129 
Q 3597 2675 3597 1894 
z
M 3022 2063 
Q 3016 2534 2758 2815 
Q 2500 3097 2075 3097 
Q 1594 3097 1305 2825 
Q 1016 2553 972 2059 
L 3022 2063 
z
" transform="scale(0.015625)"/>
       <path id="DejaVuSans-74" d="M 1172 4494 
L 1172 3500 
L 2356 3500 
L 2356 3053 
L 1172 3053 
L 1172 1153 
Q 1172 725 1289 603 
Q 1406 481 1766 481 
L 2356 481 
L 2356 0 
L 1766 0 
Q 1100 0 847 248 
Q 594 497 594 1153 
L 594 3053 
L 172 3053 
L 172 3500 
L 594 3500 
L 594 4494 
L 1172 4494 
z
" transform="scale(0.015625)"/>
       <path id="DejaVuSans-6d" d="M 3328 2828 
Q 3544 3216 3844 3400 
Q 4144 3584 4550 3584 
Q 5097 3584 5394 3201 
Q 5691 2819 5691 2113 
L 5691 0 
L 5113 0 
L 5113 2094 
Q 5113 2597 4934 2840 
Q 4756 3084 4391 3084 
Q 3944 3084 3684 2787 
Q 3425 2491 3425 1978 
L 3425 0 
L 2847 0 
L 2847 2094 
Q 2847 2600 2669 2842 
Q 2491 3084 2119 3084 
Q 1678 3084 1418 2786 
Q 1159 2488 1159 1978 
L 1159 0 
L 581 0 
L 581 3500 
L 1159 3500 
L 1159 2956 
Q 1356 3278 1631 3431 
Q 1906 3584 2284 3584 
Q 2666 3584 2933 3390 
Q 3200 3197 3328 2828 
z
" transform="scale(0.015625)"/>
      </defs>
      <use xlink:href="#DejaVuSans-6c"/>
      <use xlink:href="#DejaVuSans-69" x="27.783203"/>
      <use xlink:href="#DejaVuSans-66" x="55.566406"/>
      <use xlink:href="#DejaVuSans-65" x="90.771484"/>
      <use xlink:href="#DejaVuSans-74" x="152.294922"/>
      <use xlink:href="#DejaVuSans-69" x="191.503906"/>
      <use xlink:href="#DejaVuSans-6d" x="219.287109"/>
      <use xlink:href="#DejaVuSans-65" x="316.699219"/>
     </g>
    </g>
   </g>
   <g id="matplotlib.axis_2">
    <g id="ytick_1">
     <g id="line2d_7">
      <defs>
       <path id="m2a5eb9e994" d="M 0 0 
L -3.5 0 
" style="stroke: #000000; stroke-width: 0.8"/>
      </defs>
      <g>
       <use xlink:href="#m2a5eb9e994" x="162" y="1108.08" style="stroke: #000000; stroke-width: 0.8"/>
      </g>
     </g>
     <g id="text_8">
      <!-- 0 -->
      <g transform="translate(148.6375 1111.879219) scale(0.1 -0.1)">
       <use xlink:href="#DejaVuSans-30"/>
      </g>
     </g>
    </g>
    <g id="ytick_2">
     <g id="line2d_8">
      <g>
       <use xlink:href="#m2a5eb9e994" x="162" y="952.65583" style="stroke: #000000; stroke-width: 0.8"/>
      </g>
     </g>
     <g id="text_9">
      <!-- 1000 -->
      <g transform="translate(129.55 956.455049) scale(0.1 -0.1)">
       <use xlink:href="#DejaVuSans-31"/>
       <use xlink:href="#DejaVuSans-30" x="63.623047"/>
       <use xlink:href="#DejaVuSans-30" x="127.246094"/>
       <use xlink:href="#DejaVuSans-30" x="190.869141"/>
      </g>
     </g>
    </g>
    <g id="ytick_3">
     <g id="line2d_9">
      <g>
       <use xlink:href="#m2a5eb9e994" x="162" y="797.23166" style="stroke: #000000; stroke-width: 0.8"/>
      </g>
     </g>
     <g id="text_10">
      <!-- 2000 -->
      <g transform="translate(129.55 801.030879) scale(0.1 -0.1)">
       <use xlink:href="#DejaVuSans-32"/>
       <use xlink:href="#DejaVuSans-30" x="63.623047"/>
       <use xlink:href="#DejaVuSans-30" x="127.246094"/>
       <use xlink:href="#DejaVuSans-30" x="190.869141"/>
      </g>
     </g>
    </g>
    <g id="ytick_4">
     <g id="line2d_10">
      <g>
       <use xlink:href="#m2a5eb9e994" x="162" y="641.80749" style="stroke: #000000; stroke-width: 0.8"/>
      </g>
     </g>
     <g id="text_11">
      <!-- 3000 -->
      <g transform="translate(129.55 645.606709) scale(0.1 -0.1)">
       <use xlink:href="#DejaVuSans-33"/>
       <use xlink:href="#DejaVuSans-30" x="63.623047"/>
       <use xlink:href="#DejaVuSans-30" x="127.246094"/>
       <use xlink:href="#DejaVuSans-30" x="190.869141"/>
      </g>
     </g>
    </g>
    <g id="ytick_5">
     <g id="line2d_11">
      <g>
       <use xlink:href="#m2a5eb9e994" x="162" y="486.38332" style="stroke: #000000; stroke-width: 0.8"/>
      </g>
     </g>
     <g id="text_12">
      <!-- 4000 -->
      <g transform="translate(129.55 490.182539) scale(0.1 -0.1)">
       <use xlink:href="#DejaVuSans-34"/>
       <use xlink:href="#DejaVuSans-30" x="63.623047"/>
       <use xlink:href="#DejaVuSans-30" x="127.246094"/>
       <use xlink:href="#DejaVuSans-30" x="190.869141"/>
      </g>
     </g>
    </g>
    <g id="ytick_6">
     <g id="line2d_12">
      <g>
       <use xlink:href="#m2a5eb9e994" x="162" y="330.959151" style="stroke: #000000; stroke-width: 0.8"/>
      </g>
     </g>
     <g id="text_13">
      <!-- 5000 -->
      <g transform="translate(129.55 334.758369) scale(0.1 -0.1)">
       <use xlink:href="#DejaVuSans-35"/>
       <use xlink:href="#DejaVuSans-30" x="63.623047"/>
       <use xlink:href="#DejaVuSans-30" x="127.246094"/>
       <use xlink:href="#DejaVuSans-30" x="190.869141"/>
      </g>
     </g>
    </g>
    <g id="ytick_7">
     <g id="line2d_13">
      <g>
       <use xlink:href="#m2a5eb9e994" x="162" y="175.534981" style="stroke: #000000; stroke-width: 0.8"/>
      </g>
     </g>
     <g id="text_14">
      <!-- 6000 -->
      <g transform="translate(129.55 179.334199) scale(0.1 -0.1)">
       <defs>
        <path id="DejaVuSans-36" d="M 2113 2584 
Q 1688 2584 1439 2293 
Q 1191 2003 1191 1497 
Q 1191 994 1439 701 
Q 1688 409 2113 409 
Q 2538 409 2786 701 
Q 3034 994 3034 1497 
Q 3034 2003 2786 2293 
Q 2538 2584 2113 2584 
z
M 3366 4563 
L 3366 3988 
Q 3128 4100 2886 4159 
Q 2644 4219 2406 4219 
Q 1781 4219 1451 3797 
Q 1122 3375 1075 2522 
Q 1259 2794 1537 2939 
Q 1816 3084 2150 3084 
Q 2853 3084 3261 2657 
Q 3669 2231 3669 1497 
Q 3669 778 3244 343 
Q 2819 -91 2113 -91 
Q 1303 -91 875 529 
Q 447 1150 447 2328 
Q 447 3434 972 4092 
Q 1497 4750 2381 4750 
Q 2619 4750 2861 4703 
Q 3103 4656 3366 4563 
z
" transform="scale(0.015625)"/>
       </defs>
       <use xlink:href="#DejaVuSans-36"/>
       <use xlink:href="#DejaVuSans-30" x="63.623047"/>
       <use xlink:href="#DejaVuSans-30" x="127.246094"/>
       <use xlink:href="#DejaVuSans-30" x="190.869141"/>
      </g>
     </g>
    </g>
   </g>
   <g id="line2d_14">
    <path d="M 207.654545 1107.969649 
L 208.474933 1107.591968 
L 210.279784 1107.063526 
L 215.202107 1105.869868 
L 225.046753 1103.830703 
L 227.343837 1103.378419 
L 229.476844 1102.825109 
L 231.609851 1102.402355 
L 232.430238 1102.267136 
L 234.891399 1101.819514 
L 237.024406 1101.18383 
L 238.172948 1100.952248 
L 238.501103 1100.820137 
L 238.993335 1100.661604 
L 239.485567 1100.545036 
L 240.634109 1100.283924 
L 241.126342 1100.165801 
L 242.438961 1099.887592 
L 242.931193 1099.767915 
L 247.033129 1099.082495 
L 247.525361 1098.950384 
L 248.509826 1098.748333 
L 249.002058 1098.449918 
L 249.658368 1098.249421 
L 254.088459 1097.562446 
L 254.580691 1097.363503 
L 256.221465 1097.088403 
L 256.54962 1096.976497 
L 259.667091 1096.545972 
L 260.159324 1096.331487 
L 261.143788 1096.216473 
L 261.471943 1096.015976 
L 262.29233 1095.918059 
L 262.94864 1095.315013 
L 263.276795 1095.182902 
L 263.440872 1094.974634 
L 266.394266 1094.502145 
L 266.722421 1094.360709 
L 269.839892 1093.861797 
L 270.332124 1093.592913 
L 273.449596 1093.233883 
L 273.777751 1093.083122 
L 274.598138 1092.989867 
L 274.926293 1092.837552 
L 275.910757 1092.722538 
L 276.074835 1092.464534 
L 277.223377 1092.333977 
L 277.551531 1092.170782 
L 279.356383 1091.95008 
L 279.520461 1091.67187 
L 280.340848 1091.573953 
L 280.669003 1091.402987 
L 288.708797 1090.479767 
L 289.036952 1090.297921 
L 289.529184 1090.240414 
L 289.857339 1090.053905 
L 290.021416 1090.0337 
L 290.349571 1089.844082 
L 291.334036 1089.721297 
L 291.662191 1089.530125 
L 294.451507 1089.192855 
L 294.779662 1088.990803 
L 294.943739 1088.969044 
L 295.271894 1088.765438 
L 295.600049 1088.723474 
L 296.256359 1088.134416 
L 298.881598 1087.811134 
L 299.045675 1087.613745 
L 302.491301 1087.203425 
L 302.655379 1086.996711 
L 302.819456 1086.97806 
L 302.983533 1086.769792 
L 303.311688 1086.729382 
L 303.639843 1086.301965 
L 303.967998 1086.263109 
L 304.132075 1086.042407 
L 305.444695 1085.88232 
L 305.608772 1085.656955 
L 306.101005 1085.594785 
L 306.42916 1085.133176 
L 306.593237 1085.116079 
L 306.757314 1084.87828 
L 306.921392 1084.861183 
L 307.085469 1084.620276 
L 309.382553 1084.373151 
L 309.546631 1084.126027 
L 312.500025 1083.827613 
L 312.664102 1083.572717 
L 313.484489 1083.490342 
L 313.648567 1083.233892 
L 314.304876 1083.179494 
L 314.468954 1082.918381 
L 315.781573 1082.820464 
L 315.945651 1082.554689 
L 317.25827 1082.452109 
L 317.422347 1082.175454 
L 317.91458 1082.128826 
L 318.078657 1081.847509 
L 318.242735 1081.83352 
L 318.406812 1081.54754 
L 320.047586 1081.416984 
L 320.211664 1081.123232 
L 322.836903 1080.908747 
L 323.00098 1080.605669 
L 331.204852 1079.942008 
L 331.533007 1079.303215 
L 331.861161 1079.276793 
L 332.025239 1078.950402 
L 340.229111 1078.375333 
L 340.393188 1078.362899 
L 340.557265 1078.020966 
L 345.643666 1077.630851 
L 345.807743 1077.276484 
L 350.565989 1076.908128 
L 350.730066 1076.541327 
L 350.894144 1075.795291 
L 351.386376 1075.756435 
L 351.550453 1075.361658 
L 351.714531 1075.349224 
L 351.878608 1074.946675 
L 355.488312 1074.662249 
L 355.652389 1074.245712 
L 363.528106 1073.61469 
L 363.692183 1073.181057 
L 369.598971 1072.697688 
L 369.763048 1072.248512 
L 370.419358 1072.191005 
L 370.583435 1071.727841 
L 374.357216 1071.407667 
L 374.521294 1070.928961 
L 382.889243 1070.229552 
L 383.05332 1069.732195 
L 389.944572 1069.225512 
L 390.10865 1068.191941 
L 390.929037 1068.128217 
L 391.093114 1067.582678 
L 412.751335 1065.942953 
L 412.915413 1065.363221 
L 414.39211 1065.268412 
L 414.556187 1064.671584 
L 421.119284 1064.245721 
L 421.283362 1063.627133 
L 428.174614 1063.173295 
L 428.338691 1062.529839 
L 439.495957 1061.785357 
L 439.824112 1060.420733 
L 440.972654 1060.346129 
L 441.136731 1059.637395 
L 469.358049 1058.052068 
L 469.522127 1057.295152 
L 471.819211 1057.167705 
L 471.983288 1056.38903 
L 474.44445 1056.281787 
L 474.608527 1055.47669 
L 477.233766 1055.346133 
L 477.397844 1054.514614 
L 480.679392 1054.368515 
L 481.007547 1052.621548 
L 482.976476 1052.52363 
L 483.140554 1051.605074 
L 486.914335 1051.426336 
L 487.24249 1049.489751 
L 497.579368 1048.992393 
L 497.743445 1047.96504 
L 499.548297 1047.878002 
L 499.712374 1046.813346 
L 515.627885 1046.019129 
L 520.222053 1045.782884 
L 520.386131 1042.312263 
L 524.159912 1042.108657 
L 524.323989 1040.854384 
L 542.044352 1039.904742 
L 551.232688 1039.408939 
L 551.396765 1038.080062 
L 552.545308 1038.010121 
L 552.709385 1036.626846 
L 562.225876 1036.09685 
L 562.389953 1034.648297 
L 567.312276 1034.362316 
L 567.640431 1031.270929 
L 583.72002 1030.319734 
L 583.884097 1028.655141 
L 600.619995 1027.643329 
L 600.784073 1025.883928 
L 600.94815 1022.138205 
L 613.253957 1021.342434 
L 613.418035 1019.314148 
L 620.14521 1018.869635 
L 620.309287 1016.735661 
L 633.927714 1015.813996 
L 641.311198 1015.307313 
L 641.475276 1013.031903 
L 647.710218 1012.596715 
L 647.874296 1108.08 
L 1120.745455 1108.08 
L 1120.745455 1108.08 
" clip-path="url(#p0f8faeb962)" style="fill: none; stroke: #1f77b4; stroke-linecap: square"/>
   </g>
   <g id="line2d_15">
    <path d="M 207.654545 1107.924576 
L 211.920559 1104.0312 
L 217.991424 1099.600057 
L 218.483656 1099.227039 
L 219.796275 1098.426605 
L 221.43705 1097.497168 
L 222.257437 1097.040221 
L 222.749669 1096.813302 
L 223.077824 1096.494682 
L 224.882676 1095.543486 
L 226.031218 1094.828535 
L 227.671992 1093.956606 
L 228.164224 1093.672179 
L 228.984612 1093.232329 
L 229.312766 1092.961891 
L 231.117618 1092.037117 
L 231.773928 1091.600375 
L 232.430238 1091.291081 
L 232.758393 1090.93516 
L 233.414702 1090.557479 
L 233.906935 1090.039917 
L 234.399167 1089.736839 
L 235.055477 1089.211506 
L 235.219554 1089.140011 
L 235.547709 1088.840042 
L 236.039941 1088.54629 
L 236.368096 1088.319371 
L 238.829258 1087.150581 
L 239.9778 1086.550644 
L 240.305954 1086.314399 
L 240.962264 1085.930502 
L 241.290419 1085.694257 
L 242.603038 1085.029041 
L 243.095271 1084.62183 
L 245.556432 1083.477908 
L 246.212742 1082.877971 
L 247.361284 1082.279588 
L 249.166136 1081.384345 
L 249.494291 1081.129449 
L 250.80691 1080.597898 
L 250.970988 1080.282387 
L 252.939917 1079.366939 
L 253.268072 1079.096501 
L 253.432149 1079.025006 
L 253.760304 1078.745242 
L 254.580691 1078.378441 
L 254.908846 1078.094015 
L 255.237001 1077.946362 
L 255.565156 1077.665044 
L 255.729233 1077.593549 
L 255.89331 1077.232965 
L 256.385543 1077.013817 
L 256.54962 1076.645462 
L 257.698162 1076.140333 
L 258.190395 1075.627433 
L 259.503014 1075.08034 
L 259.667091 1074.694888 
L 259.995246 1074.561224 
L 260.651556 1073.816742 
L 261.143788 1073.62557 
L 261.471943 1073.327156 
L 261.636021 1073.261877 
L 261.800098 1072.850003 
L 262.29233 1072.652615 
L 262.620485 1072.340212 
L 264.425337 1071.580188 
L 264.753492 1071.256906 
L 266.722421 1070.352337 
L 267.378731 1069.475745 
L 268.03504 1069.17733 
L 268.69135 1068.292967 
L 269.019505 1068.153085 
L 269.511737 1067.529834 
L 270.168047 1067.254733 
L 270.496202 1066.90192 
L 272.465131 1066.064184 
L 273.121441 1065.105217 
L 273.449596 1064.963781 
L 273.613673 1064.424459 
L 273.941828 1064.281469 
L 274.269983 1063.899125 
L 276.402989 1062.972797 
L 276.731144 1062.338667 
L 276.895222 1062.27028 
L 277.059299 1061.946998 
L 279.356383 1060.9585 
L 279.520461 1060.625892 
L 280.83308 1060.053932 
L 280.997158 1059.715107 
L 286.083558 1057.430372 
L 287.2321 1056.89105 
L 287.396177 1056.525803 
L 288.380642 1056.067302 
L 288.544719 1055.697392 
L 289.201029 1055.398978 
L 289.365107 1055.02596 
L 289.529184 1054.954464 
L 289.693261 1054.578338 
L 290.513649 1054.2162 
L 290.677726 1053.833856 
L 291.005881 1053.690866 
L 291.169958 1053.30386 
L 292.154423 1052.871781 
L 292.3185 1052.480112 
L 292.810733 1052.267181 
L 292.97481 1051.869295 
L 293.138888 1051.7978 
L 293.467042 1050.991148 
L 293.795197 1050.848158 
L 293.959275 1050.433175 
L 294.123352 1050.360126 
L 294.28743 1049.940481 
L 297.568978 1048.471722 
L 297.733056 1048.041197 
L 297.897133 1047.972811 
L 298.06121 1047.537623 
L 300.03014 1046.690561 
L 300.194217 1046.244494 
L 301.342759 1045.748691 
L 301.670914 1044.834797 
L 301.834991 1044.763302 
L 301.999069 1043.900698 
L 303.803921 1043.097155 
L 303.967998 1042.61534 
L 305.608772 1041.881738 
L 305.936927 1040.891686 
L 308.398089 1039.789728 
L 308.562166 1039.278383 
L 308.726244 1039.202225 
L 308.890321 1038.683108 
L 312.992257 1036.80403 
L 313.156334 1036.266262 
L 313.812644 1035.967848 
L 313.976721 1035.422309 
L 316.273805 1034.38563 
L 316.437883 1033.827657 
L 317.750502 1033.25725 
L 317.91458 1032.688398 
L 318.406812 1032.472358 
L 318.570889 1031.897289 
L 318.899044 1031.758961 
L 319.063122 1031.177675 
L 319.719432 1030.905683 
L 319.883509 1030.318179 
L 322.016516 1029.449358 
L 322.180593 1028.847867 
L 322.672825 1028.645815 
L 322.836903 1028.034998 
L 323.985445 1027.565617 
L 324.149522 1026.947029 
L 325.462142 1026.418587 
L 325.626219 1025.784456 
L 326.610684 1025.377245 
L 326.774761 1024.732235 
L 330.220387 1023.328754 
L 330.384465 1022.665093 
L 331.040774 1022.399318 
L 331.204852 1021.724777 
L 333.830091 1020.658567 
L 333.994168 1019.965375 
L 336.947562 1018.728199 
L 337.111639 1018.016356 
L 340.88542 1016.449681 
L 341.049498 1015.717633 
L 342.19804 1015.245143 
L 342.362117 1014.500662 
L 344.495124 1013.638057 
L 344.659201 1012.876479 
L 344.823279 1012.811201 
L 344.987356 1012.038743 
L 345.807743 1011.706135 
L 345.971821 1010.919689 
L 349.581524 1009.405857 
L 349.745602 1008.594543 
L 352.863073 1007.287426 
L 353.191228 1004.827061 
L 360.246557 1001.948606 
L 360.574712 1000.159673 
L 361.559177 999.760233 
L 361.723254 998.841676 
L 368.450429 996.062692 
L 368.614506 995.106834 
L 368.778584 995.040001 
L 368.942661 994.0686 
L 370.583435 993.397168 
L 370.747513 992.404007 
L 372.388287 991.732575 
L 372.552365 990.717655 
L 376.162068 989.206932 
L 376.326146 988.164036 
L 379.771772 986.720145 
L 379.935849 985.650827 
L 382.889243 984.426085 
L 383.05332 983.327236 
L 383.70963 983.053689 
L 383.873707 981.936189 
L 384.858172 981.528978 
L 385.022249 980.389719 
L 387.483411 979.384125 
L 387.647488 978.218443 
L 388.960108 977.683784 
L 389.124185 976.493235 
L 390.10865 976.089132 
L 390.272727 974.870607 
L 392.405734 973.958267 
L 392.569811 972.711765 
L 394.210586 972.018573 
L 394.374663 970.745649 
L 394.702818 970.608876 
L 394.866895 969.314193 
L 399.789218 967.211304 
L 399.953296 965.873102 
L 400.281451 965.73322 
L 400.609605 962.98532 
L 401.101838 962.781715 
L 401.265915 961.368909 
L 403.234844 960.543607 
L 403.398922 959.096608 
L 409.962019 956.308298 
L 410.126097 954.808455 
L 417.181426 951.75437 
L 419.806665 950.562267 
L 419.970742 948.989374 
L 421.119284 948.47492 
L 421.283362 945.299604 
L 423.088214 944.455651 
L 423.252291 942.77707 
L 424.400833 942.247073 
L 424.564911 940.531191 
L 424.893065 940.385092 
L 425.057143 938.635016 
L 425.22122 938.561966 
L 425.385298 936.776143 
L 425.87753 936.556995 
L 426.041607 934.736978 
L 430.799853 932.637197 
L 432.440627 931.911366 
L 432.604705 930.024517 
L 432.768782 929.95613 
L 432.93286 928.030425 
L 433.096937 927.965146 
L 433.425092 923.997167 
L 438.511492 921.822783 
L 438.67557 919.749425 
L 443.10566 917.843925 
L 443.269738 915.709951 
L 446.551286 914.290928 
L 463.779417 906.664264 
L 464.107572 906.51972 
L 464.271649 904.234984 
L 468.537662 902.343472 
L 468.70174 899.984133 
L 474.280372 897.52066 
L 474.44445 895.088272 
L 477.397844 893.833999 
L 477.561921 891.328561 
L 487.570644 886.992227 
L 487.734722 884.379547 
L 495.446361 881.022384 
L 495.610439 878.311787 
L 497.251213 877.60927 
L 497.41529 874.828731 
L 504.47062 871.83837 
L 504.634697 868.956806 
L 506.439549 868.18124 
L 506.603627 865.218855 
L 507.752169 864.723052 
L 507.916246 861.686063 
L 523.667679 854.869159 
L 523.831757 851.672084 
L 526.949228 850.324557 
L 527.113306 847.032673 
L 537.614261 842.43678 
L 541.388042 840.784621 
L 541.55212 837.331096 
L 550.740456 833.19215 
L 550.904533 829.597189 
L 559.43656 825.849913 
L 559.600637 822.111961 
L 559.928792 821.968971 
L 560.092869 818.131548 
L 564.358883 816.272675 
L 564.52296 812.312467 
L 573.219064 808.515455 
L 573.383141 804.392052 
L 581.094781 800.741138 
L 581.258858 796.454539 
L 582.243323 795.999147 
L 582.4074 791.588209 
L 590.611272 787.812956 
L 590.775349 783.234159 
L 594.385053 781.647279 
L 599.635531 779.224216 
L 599.799608 774.452694 
L 604.557853 772.331154 
L 604.721931 767.391774 
L 606.526783 766.599111 
L 606.69086 761.502752 
L 612.43357 758.837228 
L 612.597648 753.548143 
L 613.74619 753.015038 
L 613.910267 747.55965 
L 614.402499 747.335839 
L 614.566577 741.711038 
L 622.114139 738.232645 
L 623.590836 737.486609 
L 623.754913 731.616238 
L 624.411223 731.297619 
L 624.5753 725.23763 
L 632.122862 721.577391 
L 632.286939 715.262507 
L 641.311198 710.812713 
L 641.475276 704.21962 
L 651.483999 699.247601 
L 651.648076 692.354539 
L 663.461652 686.515253 
L 663.625729 679.288029 
L 668.383975 676.922473 
L 668.548052 669.409269 
L 678.064543 664.598891 
L 683.479098 661.787267 
L 683.643176 653.873069 
L 685.119873 653.114599 
L 685.28395 644.908202 
L 710.551875 631.906971 
L 710.715952 623.164361 
L 734.999412 610.618522 
L 737.624651 609.264778 
L 737.788728 599.94399 
L 744.515903 596.524658 
L 744.67998 586.793551 
L 748.453761 584.978197 
L 748.617839 574.842987 
L 757.149865 570.843923 
L 762.728498 568.078927 
L 765.681892 566.575975 
L 765.845969 555.876575 
L 788.1605 544.692252 
L 788.324577 533.346288 
L 801.286694 527.085802 
L 814.741044 520.421214 
L 814.905121 508.34631 
L 825.406077 503.071214 
L 825.570154 490.385493 
L 834.430336 485.898397 
L 837.219652 484.470049 
L 837.383729 471.119113 
L 876.106003 451.558981 
L 884.145798 447.418481 
L 893.498211 442.70602 
L 893.662289 428.156764 
L 900.553541 424.470102 
L 900.717618 409.193461 
L 930.579711 393.476969 
L 934.681647 391.221764 
L 936.978731 389.920864 
L 937.142808 373.506517 
L 937.306886 373.417925 
L 937.470963 356.242 
L 945.838912 351.622794 
L 946.002989 333.520541 
L 948.135996 332.320666 
L 948.300074 313.309182 
L 971.927224 300.211587 
L 972.091301 1108.08 
L 1120.745455 1108.08 
L 1120.745455 1108.08 
" clip-path="url(#p0f8faeb962)" style="fill: none; stroke: #ff7f0e; stroke-linecap: square"/>
   </g>
   <g id="line2d_16">
    <path d="M 207.654545 1107.924576 
L 210.443862 1105.41603 
L 213.72541 1103.000738 
L 222.257437 1098.022502 
L 222.421514 1097.951007 
L 222.749669 1097.635496 
L 223.734134 1097.105499 
L 225.374908 1096.305065 
L 226.031218 1095.983337 
L 228.164224 1094.955983 
L 228.656457 1094.687099 
L 232.594315 1092.81113 
L 233.086547 1092.550017 
L 233.414702 1092.299784 
L 234.563244 1091.522663 
L 234.891399 1091.388998 
L 235.055477 1090.941377 
L 236.860328 1090.130063 
L 237.352561 1089.853408 
L 238.66518 1089.220831 
L 239.649645 1088.507434 
L 241.946729 1087.464538 
L 242.274884 1087.250053 
L 242.767116 1086.967181 
L 243.095271 1086.75425 
L 245.0642 1085.897862 
L 245.392355 1085.680269 
L 245.884587 1085.397397 
L 246.212742 1085.182911 
L 247.033129 1084.767929 
L 247.361284 1084.544118 
L 248.181671 1084.127581 
L 248.673903 1083.739021 
L 249.166136 1083.448378 
L 249.658368 1083.052046 
L 250.314678 1082.800259 
L 250.80691 1082.189442 
L 251.627297 1081.776013 
L 251.955452 1081.545986 
L 252.939917 1081.193173 
L 253.432149 1080.776636 
L 254.252536 1080.332123 
L 254.416614 1080.01972 
L 254.908846 1079.813006 
L 255.401078 1079.362276 
L 256.385543 1078.951956 
L 256.713698 1078.686181 
L 257.041852 1078.550962 
L 257.370007 1078.288295 
L 258.846704 1077.691466 
L 259.174859 1077.422582 
L 259.503014 1077.288918 
L 259.831169 1077.020034 
L 260.159324 1076.891032 
L 260.323401 1076.542882 
L 261.143788 1076.213382 
L 261.471943 1075.932065 
L 261.636021 1075.862124 
L 261.964175 1075.280837 
L 262.456408 1074.771046 
L 262.620485 1074.704214 
L 262.94864 1074.413571 
L 263.276795 1074.279906 
L 263.440872 1073.896008 
L 264.425337 1073.51211 
L 264.753492 1073.221467 
L 267.706886 1072.065111 
L 268.03504 1071.76048 
L 269.839892 1071.023769 
L 270.332124 1070.467351 
L 271.480667 1069.982427 
L 272.136976 1069.154017 
L 272.301054 1069.090293 
L 272.793286 1068.516778 
L 274.105905 1068.027191 
L 274.598138 1067.447459 
L 275.09037 1067.267167 
L 275.582602 1066.671893 
L 275.910757 1066.547553 
L 276.238912 1066.207174 
L 276.567067 1066.078172 
L 276.895222 1065.734685 
L 277.059299 1065.672515 
L 277.551531 1065.04771 
L 279.848616 1064.166455 
L 280.17677 1063.810534 
L 283.130164 1062.581129 
L 283.294242 1062.276497 
L 284.114629 1061.934564 
L 284.278706 1061.626824 
L 285.263171 1061.22583 
L 285.427248 1060.914981 
L 287.068023 1060.260646 
L 287.396177 1059.624961 
L 289.201029 1058.914672 
L 289.365107 1058.589836 
L 291.005881 1057.957259 
L 291.169958 1057.355768 
L 296.256359 1055.400532 
L 296.420436 1055.053936 
L 301.670914 1053.061398 
L 301.834991 1052.700814 
L 305.936927 1051.159006 
L 306.101005 1050.785988 
L 307.741779 1050.128544 
L 307.905856 1049.744646 
L 312.17187 1048.022547 
L 312.335947 1047.624661 
L 313.484489 1047.163051 
L 313.648567 1046.75584 
L 314.304876 1046.48851 
L 314.633031 1045.666316 
L 316.273805 1045.01198 
L 316.437883 1044.590781 
L 317.750502 1044.062339 
L 317.91458 1043.628705 
L 318.406812 1043.4251 
L 318.570889 1042.989912 
L 318.734967 1042.923079 
L 318.899044 1042.483229 
L 319.883509 1042.086897 
L 320.047586 1041.64083 
L 320.539819 1041.448104 
L 320.867974 1040.541981 
L 321.196128 1040.414533 
L 321.360206 1039.954478 
L 322.180593 1039.637413 
L 322.34467 1039.168032 
L 323.329135 1038.788797 
L 323.493212 1038.313199 
L 323.985445 1038.128244 
L 324.149522 1037.651092 
L 325.133987 1037.281182 
L 325.462142 1036.297347 
L 330.220387 1034.421377 
L 330.384465 1033.906923 
L 330.548542 1033.841645 
L 330.712619 1033.322529 
L 331.040774 1033.193526 
L 331.204852 1032.666639 
L 334.814555 1031.253833 
L 334.978633 1030.712957 
L 337.767949 1029.615662 
L 337.932026 1029.059244 
L 340.88542 1027.904442 
L 341.049498 1027.337144 
L 341.54173 1027.147526 
L 341.705807 1026.574011 
L 342.19804 1026.390611 
L 342.362117 1025.810878 
L 343.838814 1025.276219 
L 344.002891 1024.687162 
L 344.823279 1024.398073 
L 344.987356 1023.79969 
L 345.643666 1023.560336 
L 345.971821 1022.340257 
L 347.776672 1021.701463 
L 347.94075 1020.495372 
L 353.02715 1018.5821 
L 353.191228 1017.923102 
L 353.355305 1017.864041 
L 353.519383 1017.203488 
L 353.68346 1015.90725 
L 358.277628 1014.248874 
L 358.441705 1013.546357 
L 362.543641 1012.04496 
L 362.707719 1011.322237 
L 365.004803 1010.462742 
L 365.16888 1009.722923 
L 366.973732 1009.048382 
L 367.137809 1007.593611 
L 367.301887 1007.53455 
L 367.465964 1006.762092 
L 372.552365 1004.884568 
L 372.716442 1004.087242 
L 373.372752 1003.847889 
L 373.536829 1003.039683 
L 374.849449 1002.56564 
L 375.013526 1001.743446 
L 375.997991 1001.392187 
L 376.162068 1000.556005 
L 379.279539 999.457156 
L 379.443617 998.602323 
L 382.889243 997.39934 
L 383.05332 996.519639 
L 384.530017 995.966329 
L 384.694095 995.067978 
L 384.858172 995.007362 
L 385.022249 994.096577 
L 385.678559 993.855669 
L 385.842637 992.932449 
L 388.960108 991.832046 
L 389.124185 990.885513 
L 392.405734 989.691856 
L 392.569811 988.722009 
L 393.554276 988.364533 
L 393.718353 987.37759 
L 394.210586 987.200406 
L 394.374663 986.19792 
L 400.773683 983.781074 
L 406.024161 981.724813 
L 406.188238 980.66482 
L 409.962019 979.174302 
L 410.126097 978.087887 
L 412.915413 976.996809 
L 413.07949 975.882418 
L 414.39211 975.357084 
L 414.556187 974.224042 
L 416.525116 973.451584 
L 416.689194 972.290565 
L 416.853271 972.225287 
L 417.017349 971.044064 
L 419.642588 969.988734 
L 419.970742 967.559454 
L 420.13482 967.497284 
L 420.298897 966.253891 
L 420.79113 966.064273 
L 420.955207 964.796012 
L 421.283362 964.66701 
L 421.447439 963.375435 
L 422.103749 963.117431 
L 422.267827 961.802543 
L 424.400833 960.946155 
L 424.564911 959.60329 
L 425.22122 959.343732 
L 425.385298 957.972891 
L 428.666846 956.667328 
L 428.830924 955.263848 
L 433.096937 953.621014 
L 433.261014 952.181786 
L 439.003725 949.890834 
L 439.167802 948.400316 
L 441.793041 947.329444 
L 441.957118 945.793853 
L 442.121196 945.722358 
L 442.285273 944.161899 
L 443.433815 943.666096 
L 443.597893 942.074553 
L 445.566822 941.247696 
L 445.730899 938.033524 
L 448.520216 936.888048 
L 448.684293 935.190816 
L 459.021171 930.863807 
L 459.185249 930.790758 
L 459.349326 929.012705 
L 460.333791 928.575963 
L 460.497868 926.760609 
L 463.943494 925.225018 
L 464.435727 919.525614 
L 464.927959 919.312683 
L 465.092036 917.335687 
L 468.537662 915.826519 
L 468.70174 913.793571 
L 472.967753 911.914492 
L 473.13183 909.81782 
L 474.280372 909.303366 
L 474.44445 907.16473 
L 476.577457 906.235293 
L 476.741534 904.037596 
L 477.069689 903.891497 
L 477.233766 901.647172 
L 477.397844 901.575677 
L 477.561921 899.28317 
L 479.366773 898.49517 
L 479.53085 896.145156 
L 485.109483 893.734527 
L 485.27356 891.30991 
L 488.719186 889.841152 
L 488.883264 887.346594 
L 491.180348 886.38141 
L 491.344425 883.827791 
L 496.102671 881.861675 
L 502.993923 878.945918 
L 503.158 876.274176 
L 514.971576 871.250867 
L 515.135653 868.459449 
L 517.596815 867.34972 
L 517.760892 864.477482 
L 518.909434 863.973907 
L 519.073511 861.030173 
L 541.223965 851.263319 
L 544.013281 849.928225 
L 544.177358 846.776223 
L 550.740456 843.672402 
L 551.068611 837.074646 
L 551.232688 837.00626 
L 551.396765 833.591591 
L 552.053075 833.31649 
L 552.217153 829.814783 
L 557.795785 827.371515 
L 561.897721 825.528185 
L 562.061799 821.878825 
L 574.531683 816.305314 
L 574.695761 812.491205 
L 587.821955 806.530688 
L 588.80642 806.05509 
L 588.970497 802.054472 
L 590.611272 801.268026 
L 590.775349 797.160165 
L 590.939427 797.090224 
L 591.103504 792.873566 
L 591.595736 792.663744 
L 591.759814 788.332072 
L 594.220975 787.211464 
L 594.385053 782.741465 
L 599.635531 780.315294 
L 599.963685 770.941662 
L 613.74619 764.877011 
L 613.910267 759.903437 
L 626.216074 754.421627 
L 632.122862 751.785633 
L 632.286939 746.549393 
L 637.865572 744.101462 
L 638.02965 738.677158 
L 648.694683 734.012879 
L 654.765548 731.308499 
L 654.929625 725.613757 
L 665.758736 720.815813 
L 665.922813 714.875501 
L 677.736388 709.494716 
L 685.119873 706.106469 
L 685.28395 699.847538 
L 695.948983 694.877073 
L 696.277138 694.716986 
L 696.441215 688.176737 
L 698.738299 687.057683 
L 698.902377 680.295177 
L 699.066454 680.21902 
L 699.230532 673.243583 
L 702.019848 671.934911 
L 702.183926 664.707688 
L 716.458662 657.960724 
L 719.904288 656.251058 
L 720.068366 648.641491 
L 720.724675 648.322872 
L 720.888753 640.450637 
L 737.624651 632.391894 
L 737.788728 624.114003 
L 739.265425 623.419257 
L 739.429503 614.842951 
L 760.923646 605.152254 
L 765.681892 602.923471 
L 765.845969 593.826495 
L 790.129429 582.32666 
L 790.293506 572.695025 
L 814.248812 561.684776 
L 814.741044 561.442315 
L 814.905121 551.241827 
L 821.140064 548.28255 
L 821.304141 537.637549 
L 823.108993 536.737643 
L 823.27307 525.669888 
L 825.406077 524.623883 
L 825.570154 513.103844 
L 835.250723 508.304345 
L 837.219652 507.32051 
L 837.383729 495.223847 
L 845.095369 491.30405 
L 848.705072 489.460719 
L 848.86915 476.753239 
L 864.620583 468.722472 
L 866.589512 467.659371 
L 866.917667 440.23633 
L 893.498211 426.167334 
L 893.662289 411.255939 
L 918.930213 397.72782 
L 924.672923 394.656638 
L 924.837001 378.716335 
L 954.535016 363.086881 
L 971.599069 354.114243 
L 971.763146 336.896354 
L 985.053418 330.228657 
L 987.022347 329.213737 
L 987.186425 311.024446 
L 990.139819 309.561905 
L 1016.064053 296.425454 
L 1033.292183 287.657977 
L 1033.456261 268.038784 
L 1083.828032 241.793858 
L 1083.99211 220.576905 
L 1118.940603 201.919788 
L 1120.745455 200.88 
L 1120.745455 200.88 
" clip-path="url(#p0f8faeb962)" style="fill: none; stroke-dasharray: 6.4,1.6,1,1.6; stroke-dashoffset: 0; stroke: #2ca02c"/>
   </g>
   <g id="patch_3">
    <path d="M 162 1153.44 
L 162 155.52 
" style="fill: none; stroke: #000000; stroke-width: 0.8; stroke-linejoin: miter; stroke-linecap: square"/>
   </g>
   <g id="patch_4">
    <path d="M 1166.4 1153.44 
L 1166.4 155.52 
" style="fill: none; stroke: #000000; stroke-width: 0.8; stroke-linejoin: miter; stroke-linecap: square"/>
   </g>
   <g id="patch_5">
    <path d="M 162 1153.44 
L 1166.4 1153.44 
" style="fill: none; stroke: #000000; stroke-width: 0.8; stroke-linejoin: miter; stroke-linecap: square"/>
   </g>
   <g id="patch_6">
    <path d="M 162 155.52 
L 1166.4 155.52 
" style="fill: none; stroke: #000000; stroke-width: 0.8; stroke-linejoin: miter; stroke-linecap: square"/>
   </g>
   <g id="legend_1">
    <g id="patch_7">
     <path d="M 169 207.554375 
L 252.00625 207.554375 
Q 254.00625 207.554375 254.00625 205.554375 
L 254.00625 162.52 
Q 254.00625 160.52 252.00625 160.52 
L 169 160.52 
Q 167 160.52 167 162.52 
L 167 205.554375 
Q 167 207.554375 169 207.554375 
z
" style="fill: #ffffff; opacity: 0.8; stroke: #cccccc; stroke-linejoin: miter"/>
    </g>
    <g id="line2d_17">
     <path d="M 171 168.618438 
L 181 168.618438 
L 191 168.618438 
" style="fill: none; stroke: #1f77b4; stroke-linecap: square"/>
    </g>
    <g id="text_15">
     <!-- default -->
     <g transform="translate(199 172.118438) scale(0.1 -0.1)">
      <defs>
       <path id="DejaVuSans-64" d="M 2906 2969 
L 2906 4863 
L 3481 4863 
L 3481 0 
L 2906 0 
L 2906 525 
Q 2725 213 2448 61 
Q 2172 -91 1784 -91 
Q 1150 -91 751 415 
Q 353 922 353 1747 
Q 353 2572 751 3078 
Q 1150 3584 1784 3584 
Q 2172 3584 2448 3432 
Q 2725 3281 2906 2969 
z
M 947 1747 
Q 947 1113 1208 752 
Q 1469 391 1925 391 
Q 2381 391 2643 752 
Q 2906 1113 2906 1747 
Q 2906 2381 2643 2742 
Q 2381 3103 1925 3103 
Q 1469 3103 1208 2742 
Q 947 2381 947 1747 
z
" transform="scale(0.015625)"/>
       <path id="DejaVuSans-61" d="M 2194 1759 
Q 1497 1759 1228 1600 
Q 959 1441 959 1056 
Q 959 750 1161 570 
Q 1363 391 1709 391 
Q 2188 391 2477 730 
Q 2766 1069 2766 1631 
L 2766 1759 
L 2194 1759 
z
M 3341 1997 
L 3341 0 
L 2766 0 
L 2766 531 
Q 2569 213 2275 61 
Q 1981 -91 1556 -91 
Q 1019 -91 701 211 
Q 384 513 384 1019 
Q 384 1609 779 1909 
Q 1175 2209 1959 2209 
L 2766 2209 
L 2766 2266 
Q 2766 2663 2505 2880 
Q 2244 3097 1772 3097 
Q 1472 3097 1187 3025 
Q 903 2953 641 2809 
L 641 3341 
Q 956 3463 1253 3523 
Q 1550 3584 1831 3584 
Q 2591 3584 2966 3190 
Q 3341 2797 3341 1997 
z
" transform="scale(0.015625)"/>
       <path id="DejaVuSans-75" d="M 544 1381 
L 544 3500 
L 1119 3500 
L 1119 1403 
Q 1119 906 1312 657 
Q 1506 409 1894 409 
Q 2359 409 2629 706 
Q 2900 1003 2900 1516 
L 2900 3500 
L 3475 3500 
L 3475 0 
L 2900 0 
L 2900 538 
Q 2691 219 2414 64 
Q 2138 -91 1772 -91 
Q 1169 -91 856 284 
Q 544 659 544 1381 
z
M 1991 3584 
L 1991 3584 
z
" transform="scale(0.015625)"/>
      </defs>
      <use xlink:href="#DejaVuSans-64"/>
      <use xlink:href="#DejaVuSans-65" x="63.476562"/>
      <use xlink:href="#DejaVuSans-66" x="125"/>
      <use xlink:href="#DejaVuSans-61" x="160.205078"/>
      <use xlink:href="#DejaVuSans-75" x="221.484375"/>
      <use xlink:href="#DejaVuSans-6c" x="284.863281"/>
      <use xlink:href="#DejaVuSans-74" x="312.646484"/>
     </g>
    </g>
    <g id="line2d_18">
     <path d="M 171 183.296562 
L 181 183.296562 
L 191 183.296562 
" style="fill: none; stroke: #ff7f0e; stroke-linecap: square"/>
    </g>
    <g id="text_16">
     <!-- serverless -->
     <g transform="translate(199 186.796562) scale(0.1 -0.1)">
      <defs>
       <path id="DejaVuSans-73" d="M 2834 3397 
L 2834 2853 
Q 2591 2978 2328 3040 
Q 2066 3103 1784 3103 
Q 1356 3103 1142 2972 
Q 928 2841 928 2578 
Q 928 2378 1081 2264 
Q 1234 2150 1697 2047 
L 1894 2003 
Q 2506 1872 2764 1633 
Q 3022 1394 3022 966 
Q 3022 478 2636 193 
Q 2250 -91 1575 -91 
Q 1294 -91 989 -36 
Q 684 19 347 128 
L 347 722 
Q 666 556 975 473 
Q 1284 391 1588 391 
Q 1994 391 2212 530 
Q 2431 669 2431 922 
Q 2431 1156 2273 1281 
Q 2116 1406 1581 1522 
L 1381 1569 
Q 847 1681 609 1914 
Q 372 2147 372 2553 
Q 372 3047 722 3315 
Q 1072 3584 1716 3584 
Q 2034 3584 2315 3537 
Q 2597 3491 2834 3397 
z
" transform="scale(0.015625)"/>
       <path id="DejaVuSans-72" d="M 2631 2963 
Q 2534 3019 2420 3045 
Q 2306 3072 2169 3072 
Q 1681 3072 1420 2755 
Q 1159 2438 1159 1844 
L 1159 0 
L 581 0 
L 581 3500 
L 1159 3500 
L 1159 2956 
Q 1341 3275 1631 3429 
Q 1922 3584 2338 3584 
Q 2397 3584 2469 3576 
Q 2541 3569 2628 3553 
L 2631 2963 
z
" transform="scale(0.015625)"/>
       <path id="DejaVuSans-76" d="M 191 3500 
L 800 3500 
L 1894 563 
L 2988 3500 
L 3597 3500 
L 2284 0 
L 1503 0 
L 191 3500 
z
" transform="scale(0.015625)"/>
      </defs>
      <use xlink:href="#DejaVuSans-73"/>
      <use xlink:href="#DejaVuSans-65" x="52.099609"/>
      <use xlink:href="#DejaVuSans-72" x="113.623047"/>
      <use xlink:href="#DejaVuSans-76" x="154.736328"/>
      <use xlink:href="#DejaVuSans-65" x="213.916016"/>
      <use xlink:href="#DejaVuSans-72" x="275.439453"/>
      <use xlink:href="#DejaVuSans-6c" x="316.552734"/>
      <use xlink:href="#DejaVuSans-65" x="344.335938"/>
      <use xlink:href="#DejaVuSans-73" x="405.859375"/>
      <use xlink:href="#DejaVuSans-73" x="457.958984"/>
     </g>
    </g>
    <g id="line2d_19">
     <path d="M 171 197.974688 
L 181 197.974688 
L 191 197.974688 
" style="fill: none; stroke-dasharray: 6.4,1.6,1,1.6; stroke-dashoffset: 0; stroke: #2ca02c"/>
    </g>
    <g id="text_17">
     <!-- server -->
     <g transform="translate(199 201.474688) scale(0.1 -0.1)">
      <use xlink:href="#DejaVuSans-73"/>
      <use xlink:href="#DejaVuSans-65" x="52.099609"/>
      <use xlink:href="#DejaVuSans-72" x="113.623047"/>
      <use xlink:href="#DejaVuSans-76" x="154.736328"/>
      <use xlink:href="#DejaVuSans-65" x="213.916016"/>
      <use xlink:href="#DejaVuSans-72" x="275.439453"/>
     </g>
    </g>
   </g>
  </g>
 </g>
 <defs>
  <clipPath id="p0f8faeb962">
   <rect x="162" y="155.52" width="1004.4" height="997.92"/>
  </clipPath>
 </defs>
</svg>
