<?xml version="1.0" encoding="utf-8" standalone="no"?>
<!DOCTYPE svg PUBLIC "-//W3C//DTD SVG 1.1//EN"
  "http://www.w3.org/Graphics/SVG/1.1/DTD/svg11.dtd">
<svg xmlns:xlink="http://www.w3.org/1999/xlink" width="1296pt" height="1296pt" viewBox="0 0 1296 1296" xmlns="http://www.w3.org/2000/svg" version="1.1">
 <metadata>
  <rdf:RDF xmlns:dc="http://purl.org/dc/elements/1.1/" xmlns:cc="http://creativecommons.org/ns#" xmlns:rdf="http://www.w3.org/1999/02/22-rdf-syntax-ns#">
   <cc:Work>
    <dc:type rdf:resource="http://purl.org/dc/dcmitype/StillImage"/>
    <dc:date>2023-10-17T14:26:51.367632</dc:date>
    <dc:format>image/svg+xml</dc:format>
    <dc:creator>
     <cc:Agent>
      <dc:title>Matplotlib v3.7.1, https://matplotlib.org/</dc:title>
     </cc:Agent>
    </dc:creator>
   </cc:Work>
  </rdf:RDF>
 </metadata>
 <defs>
  <style type="text/css">*{stroke-linejoin: round; stroke-linecap: butt}</style>
 </defs>
 <g id="figure_1">
  <g id="patch_1">
   <path d="M 0 1296 
L 1296 1296 
L 1296 0 
L 0 0 
z
" style="fill: #ffffff"/>
  </g>
  <g id="axes_1">
   <g id="patch_2">
    <path d="M 162 1153.44 
L 1166.4 1153.44 
L 1166.4 155.52 
L 162 155.52 
z
" style="fill: #ffffff"/>
   </g>
   <g id="matplotlib.axis_1">
    <g id="xtick_1">
     <g id="line2d_1">
      <defs>
       <path id="m0d7b157dae" d="M 0 0 
L 0 3.5 
" style="stroke: #000000; stroke-width: 0.8"/>
      </defs>
      <g>
       <use xlink:href="#m0d7b157dae" x="207.206073" y="1153.44" style="stroke: #000000; stroke-width: 0.8"/>
      </g>
     </g>
     <g id="text_1">
      <!-- 0 -->
      <g transform="translate(204.024823 1168.038438) scale(0.1 -0.1)">
       <defs>
        <path id="DejaVuSans-30" d="M 2034 4250 
Q 1547 4250 1301 3770 
Q 1056 3291 1056 2328 
Q 1056 1369 1301 889 
Q 1547 409 2034 409 
Q 2525 409 2770 889 
Q 3016 1369 3016 2328 
Q 3016 3291 2770 3770 
Q 2525 4250 2034 4250 
z
M 2034 4750 
Q 2819 4750 3233 4129 
Q 3647 3509 3647 2328 
Q 3647 1150 3233 529 
Q 2819 -91 2034 -91 
Q 1250 -91 836 529 
Q 422 1150 422 2328 
Q 422 3509 836 4129 
Q 1250 4750 2034 4750 
z
" transform="scale(0.015625)"/>
       </defs>
       <use xlink:href="#DejaVuSans-30"/>
      </g>
     </g>
    </g>
    <g id="xtick_2">
     <g id="line2d_2">
      <g>
       <use xlink:href="#m0d7b157dae" x="319.324308" y="1153.44" style="stroke: #000000; stroke-width: 0.8"/>
      </g>
     </g>
     <g id="text_2">
      <!-- 250 -->
      <g transform="translate(309.780558 1168.038438) scale(0.1 -0.1)">
       <defs>
        <path id="DejaVuSans-32" d="M 1228 531 
L 3431 531 
L 3431 0 
L 469 0 
L 469 531 
Q 828 903 1448 1529 
Q 2069 2156 2228 2338 
Q 2531 2678 2651 2914 
Q 2772 3150 2772 3378 
Q 2772 3750 2511 3984 
Q 2250 4219 1831 4219 
Q 1534 4219 1204 4116 
Q 875 4013 500 3803 
L 500 4441 
Q 881 4594 1212 4672 
Q 1544 4750 1819 4750 
Q 2544 4750 2975 4387 
Q 3406 4025 3406 3419 
Q 3406 3131 3298 2873 
Q 3191 2616 2906 2266 
Q 2828 2175 2409 1742 
Q 1991 1309 1228 531 
z
" transform="scale(0.015625)"/>
        <path id="DejaVuSans-35" d="M 691 4666 
L 3169 4666 
L 3169 4134 
L 1269 4134 
L 1269 2991 
Q 1406 3038 1543 3061 
Q 1681 3084 1819 3084 
Q 2600 3084 3056 2656 
Q 3513 2228 3513 1497 
Q 3513 744 3044 326 
Q 2575 -91 1722 -91 
Q 1428 -91 1123 -41 
Q 819 9 494 109 
L 494 744 
Q 775 591 1075 516 
Q 1375 441 1709 441 
Q 2250 441 2565 725 
Q 2881 1009 2881 1497 
Q 2881 1984 2565 2268 
Q 2250 2553 1709 2553 
Q 1456 2553 1204 2497 
Q 953 2441 691 2322 
L 691 4666 
z
" transform="scale(0.015625)"/>
       </defs>
       <use xlink:href="#DejaVuSans-32"/>
       <use xlink:href="#DejaVuSans-35" x="63.623047"/>
       <use xlink:href="#DejaVuSans-30" x="127.246094"/>
      </g>
     </g>
    </g>
    <g id="xtick_3">
     <g id="line2d_3">
      <g>
       <use xlink:href="#m0d7b157dae" x="431.442543" y="1153.44" style="stroke: #000000; stroke-width: 0.8"/>
      </g>
     </g>
     <g id="text_3">
      <!-- 500 -->
      <g transform="translate(421.898793 1168.038438) scale(0.1 -0.1)">
       <use xlink:href="#DejaVuSans-35"/>
       <use xlink:href="#DejaVuSans-30" x="63.623047"/>
       <use xlink:href="#DejaVuSans-30" x="127.246094"/>
      </g>
     </g>
    </g>
    <g id="xtick_4">
     <g id="line2d_4">
      <g>
       <use xlink:href="#m0d7b157dae" x="543.560779" y="1153.44" style="stroke: #000000; stroke-width: 0.8"/>
      </g>
     </g>
     <g id="text_4">
      <!-- 750 -->
      <g transform="translate(534.017029 1168.038438) scale(0.1 -0.1)">
       <defs>
        <path id="DejaVuSans-37" d="M 525 4666 
L 3525 4666 
L 3525 4397 
L 1831 0 
L 1172 0 
L 2766 4134 
L 525 4134 
L 525 4666 
z
" transform="scale(0.015625)"/>
       </defs>
       <use xlink:href="#DejaVuSans-37"/>
       <use xlink:href="#DejaVuSans-35" x="63.623047"/>
       <use xlink:href="#DejaVuSans-30" x="127.246094"/>
      </g>
     </g>
    </g>
    <g id="xtick_5">
     <g id="line2d_5">
      <g>
       <use xlink:href="#m0d7b157dae" x="655.679014" y="1153.44" style="stroke: #000000; stroke-width: 0.8"/>
      </g>
     </g>
     <g id="text_5">
      <!-- 1000 -->
      <g transform="translate(642.954014 1168.038438) scale(0.1 -0.1)">
       <defs>
        <path id="DejaVuSans-31" d="M 794 531 
L 1825 531 
L 1825 4091 
L 703 3866 
L 703 4441 
L 1819 4666 
L 2450 4666 
L 2450 531 
L 3481 531 
L 3481 0 
L 794 0 
L 794 531 
z
" transform="scale(0.015625)"/>
       </defs>
       <use xlink:href="#DejaVuSans-31"/>
       <use xlink:href="#DejaVuSans-30" x="63.623047"/>
       <use xlink:href="#DejaVuSans-30" x="127.246094"/>
       <use xlink:href="#DejaVuSans-30" x="190.869141"/>
      </g>
     </g>
    </g>
    <g id="xtick_6">
     <g id="line2d_6">
      <g>
       <use xlink:href="#m0d7b157dae" x="767.79725" y="1153.44" style="stroke: #000000; stroke-width: 0.8"/>
      </g>
     </g>
     <g id="text_6">
      <!-- 1250 -->
      <g transform="translate(755.07225 1168.038438) scale(0.1 -0.1)">
       <use xlink:href="#DejaVuSans-31"/>
       <use xlink:href="#DejaVuSans-32" x="63.623047"/>
       <use xlink:href="#DejaVuSans-35" x="127.246094"/>
       <use xlink:href="#DejaVuSans-30" x="190.869141"/>
      </g>
     </g>
    </g>
    <g id="xtick_7">
     <g id="line2d_7">
      <g>
       <use xlink:href="#m0d7b157dae" x="879.915485" y="1153.44" style="stroke: #000000; stroke-width: 0.8"/>
      </g>
     </g>
     <g id="text_7">
      <!-- 1500 -->
      <g transform="translate(867.190485 1168.038438) scale(0.1 -0.1)">
       <use xlink:href="#DejaVuSans-31"/>
       <use xlink:href="#DejaVuSans-35" x="63.623047"/>
       <use xlink:href="#DejaVuSans-30" x="127.246094"/>
       <use xlink:href="#DejaVuSans-30" x="190.869141"/>
      </g>
     </g>
    </g>
    <g id="xtick_8">
     <g id="line2d_8">
      <g>
       <use xlink:href="#m0d7b157dae" x="992.03372" y="1153.44" style="stroke: #000000; stroke-width: 0.8"/>
      </g>
     </g>
     <g id="text_8">
      <!-- 1750 -->
      <g transform="translate(979.30872 1168.038438) scale(0.1 -0.1)">
       <use xlink:href="#DejaVuSans-31"/>
       <use xlink:href="#DejaVuSans-37" x="63.623047"/>
       <use xlink:href="#DejaVuSans-35" x="127.246094"/>
       <use xlink:href="#DejaVuSans-30" x="190.869141"/>
      </g>
     </g>
    </g>
    <g id="xtick_9">
     <g id="line2d_9">
      <g>
       <use xlink:href="#m0d7b157dae" x="1104.151956" y="1153.44" style="stroke: #000000; stroke-width: 0.8"/>
      </g>
     </g>
     <g id="text_9">
      <!-- 2000 -->
      <g transform="translate(1091.426956 1168.038438) scale(0.1 -0.1)">
       <use xlink:href="#DejaVuSans-32"/>
       <use xlink:href="#DejaVuSans-30" x="63.623047"/>
       <use xlink:href="#DejaVuSans-30" x="127.246094"/>
       <use xlink:href="#DejaVuSans-30" x="190.869141"/>
      </g>
     </g>
    </g>
    <g id="text_10">
     <!-- lifetime -->
     <g transform="translate(645.289062 1181.716563) scale(0.1 -0.1)">
      <defs>
       <path id="DejaVuSans-6c" d="M 603 4863 
L 1178 4863 
L 1178 0 
L 603 0 
L 603 4863 
z
" transform="scale(0.015625)"/>
       <path id="DejaVuSans-69" d="M 603 3500 
L 1178 3500 
L 1178 0 
L 603 0 
L 603 3500 
z
M 603 4863 
L 1178 4863 
L 1178 4134 
L 603 4134 
L 603 4863 
z
" transform="scale(0.015625)"/>
       <path id="DejaVuSans-66" d="M 2375 4863 
L 2375 4384 
L 1825 4384 
Q 1516 4384 1395 4259 
Q 1275 4134 1275 3809 
L 1275 3500 
L 2222 3500 
L 2222 3053 
L 1275 3053 
L 1275 0 
L 697 0 
L 697 3053 
L 147 3053 
L 147 3500 
L 697 3500 
L 697 3744 
Q 697 4328 969 4595 
Q 1241 4863 1831 4863 
L 2375 4863 
z
" transform="scale(0.015625)"/>
       <path id="DejaVuSans-65" d="M 3597 1894 
L 3597 1613 
L 953 1613 
Q 991 1019 1311 708 
Q 1631 397 2203 397 
Q 2534 397 2845 478 
Q 3156 559 3463 722 
L 3463 178 
Q 3153 47 2828 -22 
Q 2503 -91 2169 -91 
Q 1331 -91 842 396 
Q 353 884 353 1716 
Q 353 2575 817 3079 
Q 1281 3584 2069 3584 
Q 2775 3584 3186 3129 
Q 3597 2675 3597 1894 
z
M 3022 2063 
Q 3016 2534 2758 2815 
Q 2500 3097 2075 3097 
Q 1594 3097 1305 2825 
Q 1016 2553 972 2059 
L 3022 2063 
z
" transform="scale(0.015625)"/>
       <path id="DejaVuSans-74" d="M 1172 4494 
L 1172 3500 
L 2356 3500 
L 2356 3053 
L 1172 3053 
L 1172 1153 
Q 1172 725 1289 603 
Q 1406 481 1766 481 
L 2356 481 
L 2356 0 
L 1766 0 
Q 1100 0 847 248 
Q 594 497 594 1153 
L 594 3053 
L 172 3053 
L 172 3500 
L 594 3500 
L 594 4494 
L 1172 4494 
z
" transform="scale(0.015625)"/>
       <path id="DejaVuSans-6d" d="M 3328 2828 
Q 3544 3216 3844 3400 
Q 4144 3584 4550 3584 
Q 5097 3584 5394 3201 
Q 5691 2819 5691 2113 
L 5691 0 
L 5113 0 
L 5113 2094 
Q 5113 2597 4934 2840 
Q 4756 3084 4391 3084 
Q 3944 3084 3684 2787 
Q 3425 2491 3425 1978 
L 3425 0 
L 2847 0 
L 2847 2094 
Q 2847 2600 2669 2842 
Q 2491 3084 2119 3084 
Q 1678 3084 1418 2786 
Q 1159 2488 1159 1978 
L 1159 0 
L 581 0 
L 581 3500 
L 1159 3500 
L 1159 2956 
Q 1356 3278 1631 3431 
Q 1906 3584 2284 3584 
Q 2666 3584 2933 3390 
Q 3200 3197 3328 2828 
z
" transform="scale(0.015625)"/>
      </defs>
      <use xlink:href="#DejaVuSans-6c"/>
      <use xlink:href="#DejaVuSans-69" x="27.783203"/>
      <use xlink:href="#DejaVuSans-66" x="55.566406"/>
      <use xlink:href="#DejaVuSans-65" x="90.771484"/>
      <use xlink:href="#DejaVuSans-74" x="152.294922"/>
      <use xlink:href="#DejaVuSans-69" x="191.503906"/>
      <use xlink:href="#DejaVuSans-6d" x="219.287109"/>
      <use xlink:href="#DejaVuSans-65" x="316.699219"/>
     </g>
    </g>
   </g>
   <g id="matplotlib.axis_2">
    <g id="ytick_1">
     <g id="line2d_10">
      <defs>
       <path id="m6d14feed5c" d="M 0 0 
L -3.5 0 
" style="stroke: #000000; stroke-width: 0.8"/>
      </defs>
      <g>
       <use xlink:href="#m6d14feed5c" x="162" y="1108.08" style="stroke: #000000; stroke-width: 0.8"/>
      </g>
     </g>
     <g id="text_11">
      <!-- 0 -->
      <g transform="translate(148.6375 1111.879219) scale(0.1 -0.1)">
       <use xlink:href="#DejaVuSans-30"/>
      </g>
     </g>
    </g>
    <g id="ytick_2">
     <g id="line2d_11">
      <g>
       <use xlink:href="#m6d14feed5c" x="162" y="995.125393" style="stroke: #000000; stroke-width: 0.8"/>
      </g>
     </g>
     <g id="text_12">
      <!-- 1 -->
      <g transform="translate(148.6375 998.924611) scale(0.1 -0.1)">
       <use xlink:href="#DejaVuSans-31"/>
      </g>
     </g>
    </g>
    <g id="ytick_3">
     <g id="line2d_12">
      <g>
       <use xlink:href="#m6d14feed5c" x="162" y="882.170785" style="stroke: #000000; stroke-width: 0.8"/>
      </g>
     </g>
     <g id="text_13">
      <!-- 2 -->
      <g transform="translate(148.6375 885.970004) scale(0.1 -0.1)">
       <use xlink:href="#DejaVuSans-32"/>
      </g>
     </g>
    </g>
    <g id="ytick_4">
     <g id="line2d_13">
      <g>
       <use xlink:href="#m6d14feed5c" x="162" y="769.216178" style="stroke: #000000; stroke-width: 0.8"/>
      </g>
     </g>
     <g id="text_14">
      <!-- 3 -->
      <g transform="translate(148.6375 773.015396) scale(0.1 -0.1)">
       <defs>
        <path id="DejaVuSans-33" d="M 2597 2516 
Q 3050 2419 3304 2112 
Q 3559 1806 3559 1356 
Q 3559 666 3084 287 
Q 2609 -91 1734 -91 
Q 1441 -91 1130 -33 
Q 819 25 488 141 
L 488 750 
Q 750 597 1062 519 
Q 1375 441 1716 441 
Q 2309 441 2620 675 
Q 2931 909 2931 1356 
Q 2931 1769 2642 2001 
Q 2353 2234 1838 2234 
L 1294 2234 
L 1294 2753 
L 1863 2753 
Q 2328 2753 2575 2939 
Q 2822 3125 2822 3475 
Q 2822 3834 2567 4026 
Q 2313 4219 1838 4219 
Q 1578 4219 1281 4162 
Q 984 4106 628 3988 
L 628 4550 
Q 988 4650 1302 4700 
Q 1616 4750 1894 4750 
Q 2613 4750 3031 4423 
Q 3450 4097 3450 3541 
Q 3450 3153 3228 2886 
Q 3006 2619 2597 2516 
z
" transform="scale(0.015625)"/>
       </defs>
       <use xlink:href="#DejaVuSans-33"/>
      </g>
     </g>
    </g>
    <g id="ytick_5">
     <g id="line2d_14">
      <g>
       <use xlink:href="#m6d14feed5c" x="162" y="656.26157" style="stroke: #000000; stroke-width: 0.8"/>
      </g>
     </g>
     <g id="text_15">
      <!-- 4 -->
      <g transform="translate(148.6375 660.060789) scale(0.1 -0.1)">
       <defs>
        <path id="DejaVuSans-34" d="M 2419 4116 
L 825 1625 
L 2419 1625 
L 2419 4116 
z
M 2253 4666 
L 3047 4666 
L 3047 1625 
L 3713 1625 
L 3713 1100 
L 3047 1100 
L 3047 0 
L 2419 0 
L 2419 1100 
L 313 1100 
L 313 1709 
L 2253 4666 
z
" transform="scale(0.015625)"/>
       </defs>
       <use xlink:href="#DejaVuSans-34"/>
      </g>
     </g>
    </g>
    <g id="ytick_6">
     <g id="line2d_15">
      <g>
       <use xlink:href="#m6d14feed5c" x="162" y="543.306963" style="stroke: #000000; stroke-width: 0.8"/>
      </g>
     </g>
     <g id="text_16">
      <!-- 5 -->
      <g transform="translate(148.6375 547.106182) scale(0.1 -0.1)">
       <use xlink:href="#DejaVuSans-35"/>
      </g>
     </g>
    </g>
    <g id="ytick_7">
     <g id="line2d_16">
      <g>
       <use xlink:href="#m6d14feed5c" x="162" y="430.352355" style="stroke: #000000; stroke-width: 0.8"/>
      </g>
     </g>
     <g id="text_17">
      <!-- 6 -->
      <g transform="translate(148.6375 434.151574) scale(0.1 -0.1)">
       <defs>
        <path id="DejaVuSans-36" d="M 2113 2584 
Q 1688 2584 1439 2293 
Q 1191 2003 1191 1497 
Q 1191 994 1439 701 
Q 1688 409 2113 409 
Q 2538 409 2786 701 
Q 3034 994 3034 1497 
Q 3034 2003 2786 2293 
Q 2538 2584 2113 2584 
z
M 3366 4563 
L 3366 3988 
Q 3128 4100 2886 4159 
Q 2644 4219 2406 4219 
Q 1781 4219 1451 3797 
Q 1122 3375 1075 2522 
Q 1259 2794 1537 2939 
Q 1816 3084 2150 3084 
Q 2853 3084 3261 2657 
Q 3669 2231 3669 1497 
Q 3669 778 3244 343 
Q 2819 -91 2113 -91 
Q 1303 -91 875 529 
Q 447 1150 447 2328 
Q 447 3434 972 4092 
Q 1497 4750 2381 4750 
Q 2619 4750 2861 4703 
Q 3103 4656 3366 4563 
z
" transform="scale(0.015625)"/>
       </defs>
       <use xlink:href="#DejaVuSans-36"/>
      </g>
     </g>
    </g>
    <g id="ytick_8">
     <g id="line2d_17">
      <g>
       <use xlink:href="#m6d14feed5c" x="162" y="317.397748" style="stroke: #000000; stroke-width: 0.8"/>
      </g>
     </g>
     <g id="text_18">
      <!-- 7 -->
      <g transform="translate(148.6375 321.196967) scale(0.1 -0.1)">
       <use xlink:href="#DejaVuSans-37"/>
      </g>
     </g>
    </g>
    <g id="ytick_9">
     <g id="line2d_18">
      <g>
       <use xlink:href="#m6d14feed5c" x="162" y="204.443141" style="stroke: #000000; stroke-width: 0.8"/>
      </g>
     </g>
     <g id="text_19">
      <!-- 8 -->
      <g transform="translate(148.6375 208.242359) scale(0.1 -0.1)">
       <defs>
        <path id="DejaVuSans-38" d="M 2034 2216 
Q 1584 2216 1326 1975 
Q 1069 1734 1069 1313 
Q 1069 891 1326 650 
Q 1584 409 2034 409 
Q 2484 409 2743 651 
Q 3003 894 3003 1313 
Q 3003 1734 2745 1975 
Q 2488 2216 2034 2216 
z
M 1403 2484 
Q 997 2584 770 2862 
Q 544 3141 544 3541 
Q 544 4100 942 4425 
Q 1341 4750 2034 4750 
Q 2731 4750 3128 4425 
Q 3525 4100 3525 3541 
Q 3525 3141 3298 2862 
Q 3072 2584 2669 2484 
Q 3125 2378 3379 2068 
Q 3634 1759 3634 1313 
Q 3634 634 3220 271 
Q 2806 -91 2034 -91 
Q 1263 -91 848 271 
Q 434 634 434 1313 
Q 434 1759 690 2068 
Q 947 2378 1403 2484 
z
M 1172 3481 
Q 1172 3119 1398 2916 
Q 1625 2713 2034 2713 
Q 2441 2713 2670 2916 
Q 2900 3119 2900 3481 
Q 2900 3844 2670 4047 
Q 2441 4250 2034 4250 
Q 1625 4250 1398 4047 
Q 1172 3844 1172 3481 
z
" transform="scale(0.015625)"/>
       </defs>
       <use xlink:href="#DejaVuSans-38"/>
      </g>
     </g>
    </g>
    <g id="text_20">
     <!-- nJ -->
     <g transform="translate(142.557812 659.12375) rotate(-90) scale(0.1 -0.1)">
      <defs>
       <path id="DejaVuSans-6e" d="M 3513 2113 
L 3513 0 
L 2938 0 
L 2938 2094 
Q 2938 2591 2744 2837 
Q 2550 3084 2163 3084 
Q 1697 3084 1428 2787 
Q 1159 2491 1159 1978 
L 1159 0 
L 581 0 
L 581 3500 
L 1159 3500 
L 1159 2956 
Q 1366 3272 1645 3428 
Q 1925 3584 2291 3584 
Q 2894 3584 3203 3211 
Q 3513 2838 3513 2113 
z
" transform="scale(0.015625)"/>
       <path id="DejaVuSans-4a" d="M 628 4666 
L 1259 4666 
L 1259 325 
Q 1259 -519 939 -900 
Q 619 -1281 -91 -1281 
L -331 -1281 
L -331 -750 
L -134 -750 
Q 284 -750 456 -515 
Q 628 -281 628 325 
L 628 4666 
z
" transform="scale(0.015625)"/>
      </defs>
      <use xlink:href="#DejaVuSans-6e"/>
      <use xlink:href="#DejaVuSans-4a" x="63.378906"/>
     </g>
    </g>
   </g>
   <g id="line2d_19">
    <path d="M 207.654545 201.050954 
L 211.242329 201.050954 
L 211.690802 224.141001 
L 213.933167 378.305359 
L 214.38164 400.225342 
L 214.830113 428.048341 
L 215.278585 466.506685 
L 216.175531 520.152369 
L 216.624004 553.29855 
L 217.072477 563.694929 
L 217.52095 568.673963 
L 218.417896 606.511417 
L 218.866369 619.712622 
L 219.314842 636.6972 
L 219.763315 661.345542 
L 220.211788 696.815718 
L 220.660261 708.362627 
L 221.557207 755.702997 
L 222.454153 793.24702 
L 222.902625 799.745478 
L 223.351098 809.320481 
L 223.799571 809.320481 
L 224.248044 815.397931 
L 224.696517 832.982097 
L 225.593463 858.409814 
L 226.041936 861.108728 
L 226.938882 876.852888 
L 227.387355 887.027959 
L 227.835828 904.452842 
L 228.284301 909.319965 
L 228.732774 916.473123 
L 229.181247 925.757719 
L 230.078193 934.763281 
L 230.526665 934.763281 
L 230.975138 943.344008 
L 231.423611 943.344008 
L 231.872084 949.573547 
L 232.320557 951.615232 
L 232.76903 959.62972 
L 233.665976 967.430195 
L 234.114449 969.319772 
L 234.562922 969.319772 
L 235.011395 972.984816 
L 235.459868 978.399611 
L 235.908341 981.95865 
L 236.356814 983.718614 
L 236.805287 988.907426 
L 237.25376 992.298096 
L 238.150705 992.298096 
L 238.599178 993.920068 
L 239.047651 998.752664 
L 239.496124 1000.337417 
L 239.944597 1000.337417 
L 240.39307 1003.413542 
L 241.290016 1006.421481 
L 241.738489 1009.384556 
L 242.186962 1009.384556 
L 242.635435 1012.251317 
L 243.083908 1012.251317 
L 244.429327 1016.406481 
L 244.8778 1019.11094 
L 245.326273 1019.11094 
L 247.120164 1024.308283 
L 247.568637 1026.836783 
L 248.465583 1026.836783 
L 248.914056 1029.278279 
L 249.362529 1029.278279 
L 249.811002 1030.469603 
L 250.707948 1035.178925 
L 251.156421 1038.654755 
L 251.604894 1038.654755 
L 252.053367 1040.930349 
L 252.950313 1040.930349 
L 253.398785 1043.125467 
L 253.847258 1044.21876 
L 254.744204 1044.21876 
L 255.192677 1045.284627 
L 255.64115 1048.438117 
L 256.089623 1048.438117 
L 257.435042 1051.505224 
L 257.883515 1051.505224 
L 259.228934 1057.423072 
L 260.12588 1059.358375 
L 261.471298 1059.358375 
L 262.368244 1061.209194 
L 263.26519 1061.209194 
L 263.713663 1063.006693 
L 264.162136 1063.897096 
L 264.610609 1065.671724 
L 265.059082 1068.309222 
L 266.404501 1068.309222 
L 266.852974 1069.162196 
L 267.301447 1070.855902 
L 268.198393 1070.855902 
L 268.646866 1071.684781 
L 271.786176 1071.684781 
L 272.234649 1072.469216 
L 274.028541 1072.469216 
L 274.925487 1073.972924 
L 277.167851 1073.972924 
L 277.616324 1075.414541 
L 278.51327 1075.414541 
L 279.410216 1076.829777 
L 279.858689 1076.829777 
L 280.307162 1077.52354 
L 281.204108 1077.52354 
L 281.652581 1078.206934 
L 285.688837 1078.206934 
L 286.13731 1078.849852 
L 288.379675 1078.849852 
L 289.276621 1080.092181 
L 289.725094 1081.32478 
L 290.173567 1081.32478 
L 291.518986 1083.142778 
L 292.864404 1083.142778 
L 293.312877 1083.733741 
L 293.76135 1084.908085 
L 296.452188 1084.908085 
L 297.349134 1086.038471 
L 297.797607 1086.038471 
L 298.24608 1086.597094 
L 298.694553 1086.597094 
L 299.143026 1087.148818 
L 302.282336 1087.148818 
L 302.730809 1087.680501 
L 303.627755 1087.680501 
L 304.076228 1088.204786 
L 308.112484 1088.204786 
L 308.560957 1088.706813 
L 309.457903 1088.706813 
L 309.906376 1089.698198 
L 312.597214 1089.698198 
L 313.045687 1090.179131 
L 314.839578 1090.179131 
L 315.288051 1090.649864 
L 316.63347 1090.649864 
L 317.081943 1091.112233 
L 318.875835 1091.112233 
L 319.324308 1091.565373 
L 322.015146 1091.565373 
L 322.463619 1092.888879 
L 326.051402 1092.888879 
L 326.499875 1093.314167 
L 328.293767 1093.314167 
L 328.74224 1093.731477 
L 329.190713 1093.731477 
L 329.639186 1094.146496 
L 331.433077 1094.146496 
L 332.330023 1094.95946 
L 332.778496 1094.95946 
L 333.226969 1095.362772 
L 336.36628 1095.362772 
L 337.263226 1096.145935 
L 341.299482 1096.145935 
L 341.747955 1096.523535 
L 346.681157 1096.523535 
L 347.12963 1096.886033 
L 350.717414 1096.886033 
L 351.165887 1097.23882 
L 352.062833 1097.23882 
L 352.959779 1097.937137 
L 354.75367 1097.937137 
L 355.650616 1098.6219 
L 361.032291 1098.6219 
L 361.480764 1098.950831 
L 367.310913 1098.950831 
L 367.759386 1099.266808 
L 370.00175 1099.266808 
L 370.450223 1099.577923 
L 374.48648 1099.577923 
L 374.934953 1099.880971 
L 380.316628 1099.880971 
L 380.765101 1100.173508 
L 388.837614 1100.173508 
L 389.286087 1100.452829 
L 391.079979 1100.452829 
L 391.528452 1100.728266 
L 409.018896 1100.728266 
L 409.467369 1100.979436 
L 414.400572 1100.979436 
L 414.849044 1101.224242 
L 429.200179 1101.224242 
L 429.648652 1101.452536 
L 430.99407 1101.452536 
L 431.442543 1101.679302 
L 436.375746 1101.679302 
L 436.824219 1101.900569 
L 437.721164 1101.900569 
L 438.169637 1102.12052 
L 439.515056 1102.12052 
L 439.963529 1102.338704 
L 446.24215 1102.338704 
L 446.690623 1102.55089 
L 451.175353 1102.55089 
L 451.623826 1102.758795 
L 457.902447 1102.758795 
L 458.35092 1102.961282 
L 462.387176 1102.961282 
L 462.835649 1103.1599 
L 465.526487 1103.1599 
L 465.97496 1103.35623 
L 476.289837 1103.35623 
L 476.73831 1103.544769 
L 490.192499 1103.544769 
L 490.640972 1103.724198 
L 501.852795 1103.724198 
L 502.301268 1103.896498 
L 506.337525 1103.896498 
L 506.785997 1104.066071 
L 517.549348 1104.066071 
L 517.997821 1104.22955 
L 523.827969 1104.22955 
L 524.276442 1104.389876 
L 524.724915 1104.389876 
L 525.173388 1104.54984 
L 531.900482 1104.54984 
L 532.348955 1104.706181 
L 538.627576 1104.706181 
L 539.076049 1105.012552 
L 558.360386 1105.012552 
L 558.808859 1105.157178 
L 571.366101 1105.157178 
L 571.814574 1105.296729 
L 575.850831 1105.296729 
L 576.299303 1105.434453 
L 586.614181 1105.434453 
L 587.062654 1105.568404 
L 592.892802 1105.568404 
L 593.341275 1105.70015 
L 699.180889 1105.805477 
L 700.526308 1106.012055 
L 745.373602 1106.109711 
L 746.270548 1106.204236 
L 751.203751 1106.298518 
L 752.100697 1106.392072 
L 815.783854 1106.477382 
L 816.6808 1106.561055 
L 826.995678 1106.644303 
L 827.892624 1106.72645 
L 900.096767 1106.801936 
L 900.993713 1106.875498 
L 961.986033 1106.946415 
L 962.882979 1107.013944 
L 993.827612 1107.080405 
L 994.276085 1107.145246 
L 994.724558 1108.08 
L 1120.745455 1108.08 
L 1120.745455 1108.08 
" clip-path="url(#p317557e6a9)" style="fill: none; stroke: #1f77b4; stroke-linecap: square"/>
   </g>
   <g id="line2d_20">
    <path d="M 207.654545 200.88 
L 210.793856 200.88 
L 211.242329 214.703568 
L 211.690802 238.940566 
L 212.139275 249.235963 
L 213.484694 359.149662 
L 214.38164 411.850764 
L 214.830113 459.688545 
L 215.278585 485.336334 
L 215.727058 497.84466 
L 216.624004 531.714975 
L 217.072477 542.146127 
L 217.969423 600.814658 
L 218.417896 623.845 
L 219.314842 641.10201 
L 219.763315 657.589319 
L 220.211788 665.444693 
L 220.660261 696.071798 
L 221.108734 714.593276 
L 221.557207 746.854503 
L 222.00568 757.292523 
L 222.454153 770.845117 
L 223.351098 809.654861 
L 223.799571 822.096839 
L 224.248044 825.103457 
L 224.696517 836.882438 
L 225.14499 839.752174 
L 225.593463 859.264109 
L 226.041936 867.434212 
L 226.490409 870.074401 
L 226.938882 880.454114 
L 227.387355 895.699932 
L 228.284301 915.315438 
L 228.732774 922.477744 
L 229.181247 931.822294 
L 229.62972 934.084127 
L 230.078193 945.266335 
L 230.526665 945.266335 
L 230.975138 947.422079 
L 231.423611 951.654376 
L 233.217503 959.705758 
L 233.665976 959.705758 
L 234.114449 961.604629 
L 235.011395 968.979415 
L 235.459868 968.979415 
L 235.908341 970.754481 
L 236.356814 974.268846 
L 236.805287 982.886936 
L 237.25376 984.585642 
L 237.702233 987.937009 
L 238.150705 989.585873 
L 238.599178 994.476667 
L 239.047651 1000.885886 
L 239.944597 1004.022855 
L 240.39307 1008.65036 
L 241.738489 1013.148913 
L 242.635435 1018.916834 
L 244.8778 1018.916834 
L 246.223218 1022.869175 
L 246.671691 1025.455565 
L 247.120164 1025.455565 
L 248.914056 1030.43433 
L 249.362529 1030.43433 
L 249.811002 1032.82976 
L 250.259475 1032.82976 
L 250.707948 1035.173035 
L 251.604894 1037.487542 
L 252.053367 1039.764115 
L 252.50184 1039.764115 
L 252.950313 1040.878502 
L 253.398785 1043.081233 
L 253.847258 1044.175236 
L 255.192677 1044.175236 
L 255.64115 1048.376605 
L 256.089623 1050.461143 
L 256.986569 1050.461143 
L 257.883515 1052.480834 
L 258.331988 1054.46804 
L 260.574353 1054.46804 
L 261.022826 1056.365192 
L 261.471298 1057.304126 
L 261.919771 1057.304126 
L 262.368244 1059.151989 
L 264.162136 1059.151989 
L 264.610609 1060.924092 
L 265.059082 1061.804194 
L 265.956028 1061.804194 
L 267.74992 1065.206336 
L 269.095338 1065.206336 
L 269.543811 1066.838863 
L 269.992284 1067.646232 
L 270.88923 1067.646232 
L 271.337703 1068.440675 
L 271.786176 1068.440675 
L 273.131595 1070.774703 
L 274.028541 1070.774703 
L 275.37396 1073.027063 
L 275.822433 1073.027063 
L 276.270906 1073.761205 
L 276.719378 1073.761205 
L 277.616324 1076.663097 
L 278.064797 1077.381918 
L 278.961743 1077.381918 
L 279.410216 1078.787019 
L 280.307162 1078.787019 
L 280.755635 1079.478766 
L 282.101054 1079.478766 
L 282.549527 1080.154378 
L 283.446473 1080.154378 
L 283.894946 1080.815516 
L 284.343418 1080.815516 
L 284.791891 1082.780023 
L 285.240364 1083.432847 
L 287.034256 1083.432847 
L 287.482729 1084.699415 
L 287.931202 1085.329641 
L 288.379675 1085.329641 
L 288.828148 1085.951305 
L 293.76135 1085.951305 
L 294.209823 1086.53448 
L 295.106769 1086.53448 
L 295.555242 1087.10965 
L 297.349134 1087.10965 
L 297.797607 1087.670134 
L 298.24608 1087.670134 
L 298.694553 1088.226546 
L 299.591498 1088.226546 
L 300.039971 1089.867886 
L 306.318593 1089.867886 
L 306.767066 1090.377874 
L 309.00943 1090.377874 
L 309.457903 1090.874318 
L 315.288051 1090.874318 
L 316.184997 1091.807956 
L 318.875835 1091.807956 
L 319.324308 1092.260607 
L 321.566673 1092.260607 
L 322.015146 1092.703514 
L 325.602929 1092.703514 
L 326.051402 1093.131019 
L 329.190713 1093.131019 
L 329.639186 1093.545694 
L 332.330023 1093.545694 
L 332.778496 1093.950238 
L 334.123915 1093.950238 
L 334.572388 1094.747837 
L 340.402536 1094.747837 
L 340.851009 1095.127732 
L 341.747955 1095.127732 
L 342.196428 1095.503472 
L 343.093374 1095.503472 
L 343.99032 1096.246817 
L 349.820468 1096.246817 
L 350.268941 1096.601581 
L 356.099089 1096.601581 
L 356.547562 1096.941643 
L 361.032291 1096.941643 
L 361.480764 1097.270862 
L 362.826183 1097.270862 
L 363.723129 1097.921079 
L 365.068548 1097.921079 
L 365.517021 1098.241833 
L 366.413967 1098.241833 
L 366.86244 1098.559629 
L 373.141061 1098.559629 
L 373.589534 1098.864713 
L 375.831899 1098.864713 
L 376.280371 1099.165242 
L 385.24983 1099.165242 
L 385.698303 1099.450122 
L 393.322343 1099.450122 
L 394.219289 1099.994598 
L 398.704019 1099.994598 
L 399.152492 1100.259318 
L 403.188748 1100.259318 
L 403.637221 1100.517776 
L 406.328059 1100.517776 
L 406.776532 1100.772293 
L 410.812788 1100.772293 
L 411.709734 1101.269793 
L 412.60668 1101.269793 
L 413.055153 1101.516719 
L 415.74599 1101.516719 
L 416.194463 1101.759915 
L 423.818503 1101.759915 
L 424.715449 1102.227504 
L 437.272692 1102.227504 
L 437.721164 1102.447988 
L 448.036042 1102.447988 
L 448.484515 1102.658419 
L 452.969245 1102.658419 
L 453.417717 1102.864799 
L 454.763136 1102.864799 
L 455.211609 1103.069629 
L 459.247866 1103.069629 
L 459.696339 1103.270721 
L 461.041757 1103.270721 
L 461.49023 1103.470589 
L 470.459689 1103.470589 
L 470.908162 1103.663363 
L 475.392892 1103.663363 
L 476.289837 1104.041391 
L 479.877621 1104.041391 
L 480.326094 1104.227324 
L 485.259296 1104.227324 
L 485.707769 1104.409721 
L 498.713485 1104.409721 
L 499.161957 1104.583827 
L 532.348955 1104.583827 
L 532.797428 1104.740059 
L 536.385212 1104.740059 
L 536.833685 1104.894327 
L 537.282158 1104.894327 
L 537.73063 1105.048054 
L 541.318414 1105.048054 
L 541.766887 1105.200082 
L 549.8394 1105.200082 
L 550.287873 1105.348361 
L 581.232506 1105.348361 
L 581.680979 1105.484225 
L 588.856546 1105.484225 
L 589.305019 1105.617349 
L 590.201965 1105.617349 
L 590.650438 1105.749964 
L 599.171423 1105.749964 
L 599.619896 1105.879579 
L 620.249652 1105.879579 
L 620.698125 1106.002636 
L 727.434685 1106.113333 
L 728.331631 1106.211104 
L 731.470941 1106.308569 
L 732.367887 1106.405573 
L 744.476657 1106.405573 
L 744.925129 1106.594961 
L 788.427005 1106.68689 
L 789.323951 1106.774494 
L 913.102483 1106.85798 
L 913.999428 1106.930157 
L 933.283765 1107.002044 
L 934.180711 1107.072226 
L 1024.323772 1107.139349 
L 1025.220718 1107.201775 
L 1120.296982 1107.261736 
L 1120.745455 1107.31764 
L 1120.745455 1107.31764 
" clip-path="url(#p317557e6a9)" style="fill: none; stroke: #ff7f0e; stroke-linecap: square"/>
   </g>
   <g id="line2d_21">
    <path d="M 207.654545 200.88 
L 210.793856 200.88 
L 211.242329 214.703568 
L 211.690802 238.940566 
L 212.139275 249.235963 
L 213.484694 359.149662 
L 214.38164 411.850764 
L 214.830113 459.688545 
L 215.278585 485.336334 
L 215.727058 497.84466 
L 216.624004 531.714975 
L 217.072477 542.146127 
L 217.969423 600.814658 
L 218.417896 623.845 
L 219.314842 641.10201 
L 219.763315 657.589319 
L 220.211788 665.444693 
L 220.660261 696.071798 
L 221.108734 714.593276 
L 221.557207 746.854503 
L 222.00568 757.292523 
L 222.454153 770.845117 
L 223.351098 809.654861 
L 223.799571 822.096839 
L 224.248044 825.103457 
L 224.696517 836.882438 
L 225.14499 839.752174 
L 225.593463 859.264109 
L 226.041936 867.434212 
L 226.490409 870.074401 
L 226.938882 880.454114 
L 227.387355 895.699932 
L 228.284301 915.315438 
L 228.732774 922.477744 
L 229.181247 931.822294 
L 229.62972 934.084127 
L 230.078193 945.266335 
L 230.526665 945.266335 
L 230.975138 947.422079 
L 231.423611 951.654376 
L 233.217503 959.705758 
L 233.665976 959.705758 
L 234.114449 961.604629 
L 235.011395 968.979415 
L 235.459868 968.979415 
L 235.908341 970.754481 
L 236.356814 974.268846 
L 236.805287 982.886936 
L 237.25376 984.585642 
L 237.702233 987.937009 
L 238.150705 989.585873 
L 238.599178 994.476667 
L 239.047651 1000.885886 
L 239.944597 1004.022855 
L 240.39307 1008.65036 
L 241.738489 1013.148913 
L 242.635435 1018.916834 
L 244.8778 1018.916834 
L 246.223218 1022.869175 
L 246.671691 1025.455565 
L 247.120164 1025.455565 
L 248.914056 1030.43433 
L 249.362529 1030.43433 
L 249.811002 1032.82976 
L 250.259475 1032.82976 
L 250.707948 1035.173035 
L 251.604894 1037.487542 
L 252.053367 1039.764115 
L 252.50184 1039.764115 
L 252.950313 1040.878502 
L 253.398785 1043.081233 
L 253.847258 1044.175236 
L 255.192677 1044.175236 
L 255.64115 1048.376605 
L 256.089623 1050.461143 
L 256.986569 1050.461143 
L 257.883515 1052.480834 
L 258.331988 1054.46804 
L 260.574353 1054.46804 
L 261.022826 1056.365192 
L 261.471298 1057.304126 
L 261.919771 1057.304126 
L 262.368244 1059.151989 
L 264.162136 1059.151989 
L 264.610609 1060.924092 
L 265.059082 1061.804194 
L 265.956028 1061.804194 
L 267.74992 1065.206336 
L 269.095338 1065.206336 
L 269.543811 1066.838863 
L 269.992284 1067.646232 
L 270.88923 1067.646232 
L 271.337703 1068.440675 
L 271.786176 1068.440675 
L 273.131595 1070.774703 
L 274.028541 1070.774703 
L 275.37396 1073.027063 
L 275.822433 1073.027063 
L 276.270906 1073.761205 
L 276.719378 1073.761205 
L 277.616324 1076.663097 
L 278.064797 1077.381918 
L 278.961743 1077.381918 
L 279.410216 1078.787019 
L 280.307162 1078.787019 
L 280.755635 1079.478766 
L 282.101054 1079.478766 
L 282.549527 1080.154378 
L 283.446473 1080.154378 
L 283.894946 1080.815516 
L 284.343418 1080.815516 
L 284.791891 1082.780023 
L 285.240364 1083.432847 
L 287.034256 1083.432847 
L 287.482729 1084.699415 
L 287.931202 1085.329641 
L 288.379675 1085.329641 
L 288.828148 1085.951305 
L 293.76135 1085.951305 
L 294.209823 1086.53448 
L 295.106769 1086.53448 
L 295.555242 1087.10965 
L 297.349134 1087.10965 
L 297.797607 1087.670134 
L 298.24608 1087.670134 
L 298.694553 1088.226546 
L 299.591498 1088.226546 
L 300.039971 1089.867886 
L 306.318593 1089.867886 
L 306.767066 1090.377874 
L 309.00943 1090.377874 
L 309.457903 1090.874318 
L 315.288051 1090.874318 
L 316.184997 1091.807956 
L 318.875835 1091.807956 
L 319.324308 1092.260607 
L 321.566673 1092.260607 
L 322.015146 1092.703514 
L 325.602929 1092.703514 
L 326.051402 1093.131019 
L 329.190713 1093.131019 
L 329.639186 1093.545694 
L 332.330023 1093.545694 
L 332.778496 1093.950238 
L 334.123915 1093.950238 
L 334.572388 1094.747837 
L 340.402536 1094.747837 
L 340.851009 1095.127732 
L 341.747955 1095.127732 
L 342.196428 1095.503472 
L 343.093374 1095.503472 
L 343.99032 1096.246817 
L 349.820468 1096.246817 
L 350.268941 1096.601581 
L 356.099089 1096.601581 
L 356.547562 1096.941643 
L 361.032291 1096.941643 
L 361.480764 1097.270862 
L 362.826183 1097.270862 
L 363.723129 1097.921079 
L 365.068548 1097.921079 
L 365.517021 1098.241833 
L 366.413967 1098.241833 
L 366.86244 1098.559629 
L 373.141061 1098.559629 
L 373.589534 1098.864713 
L 375.831899 1098.864713 
L 376.280371 1099.165242 
L 385.24983 1099.165242 
L 385.698303 1099.450122 
L 393.322343 1099.450122 
L 394.219289 1099.994598 
L 398.704019 1099.994598 
L 399.152492 1100.259318 
L 403.188748 1100.259318 
L 403.637221 1100.517776 
L 406.328059 1100.517776 
L 406.776532 1100.772293 
L 410.812788 1100.772293 
L 411.709734 1101.269793 
L 412.60668 1101.269793 
L 413.055153 1101.516719 
L 415.74599 1101.516719 
L 416.194463 1101.759915 
L 423.818503 1101.759915 
L 424.715449 1102.227504 
L 437.272692 1102.227504 
L 437.721164 1102.447988 
L 448.036042 1102.447988 
L 448.484515 1102.658419 
L 452.969245 1102.658419 
L 453.417717 1102.864799 
L 454.763136 1102.864799 
L 455.211609 1103.069629 
L 459.247866 1103.069629 
L 459.696339 1103.270721 
L 461.041757 1103.270721 
L 461.49023 1103.470589 
L 470.459689 1103.470589 
L 470.908162 1103.663363 
L 475.392892 1103.663363 
L 476.289837 1104.041391 
L 479.877621 1104.041391 
L 480.326094 1104.227324 
L 485.259296 1104.227324 
L 485.707769 1104.409721 
L 498.713485 1104.409721 
L 499.161957 1104.583827 
L 532.348955 1104.583827 
L 532.797428 1104.740059 
L 536.385212 1104.740059 
L 536.833685 1104.894327 
L 537.282158 1104.894327 
L 537.73063 1105.048054 
L 541.318414 1105.048054 
L 541.766887 1105.200082 
L 549.8394 1105.200082 
L 550.287873 1105.348361 
L 581.232506 1105.348361 
L 581.680979 1105.484225 
L 588.856546 1105.484225 
L 589.305019 1105.617349 
L 590.201965 1105.617349 
L 590.650438 1105.749964 
L 599.171423 1105.749964 
L 599.619896 1105.879579 
L 620.249652 1105.879579 
L 620.698125 1106.002636 
L 727.434685 1106.113333 
L 728.331631 1106.211104 
L 731.470941 1106.308569 
L 732.367887 1106.405573 
L 744.476657 1106.405573 
L 744.925129 1106.594961 
L 788.427005 1106.68689 
L 789.323951 1106.774494 
L 913.102483 1106.85798 
L 913.999428 1106.930157 
L 933.283765 1107.002044 
L 934.180711 1107.072226 
L 1024.323772 1107.139349 
L 1025.220718 1107.201775 
L 1120.296982 1107.261736 
L 1120.745455 1107.31764 
L 1120.745455 1107.31764 
" clip-path="url(#p317557e6a9)" style="fill: none; stroke-dasharray: 6.4,1.6,1,1.6; stroke-dashoffset: 0; stroke: #2ca02c"/>
   </g>
   <g id="patch_3">
    <path d="M 162 1153.44 
L 162 155.52 
" style="fill: none; stroke: #000000; stroke-width: 0.8; stroke-linejoin: miter; stroke-linecap: square"/>
   </g>
   <g id="patch_4">
    <path d="M 1166.4 1153.44 
L 1166.4 155.52 
" style="fill: none; stroke: #000000; stroke-width: 0.8; stroke-linejoin: miter; stroke-linecap: square"/>
   </g>
   <g id="patch_5">
    <path d="M 162 1153.44 
L 1166.4 1153.44 
" style="fill: none; stroke: #000000; stroke-width: 0.8; stroke-linejoin: miter; stroke-linecap: square"/>
   </g>
   <g id="patch_6">
    <path d="M 162 155.52 
L 1166.4 155.52 
" style="fill: none; stroke: #000000; stroke-width: 0.8; stroke-linejoin: miter; stroke-linecap: square"/>
   </g>
   <g id="legend_1">
    <g id="patch_7">
     <path d="M 1076.39375 207.554375 
L 1159.4 207.554375 
Q 1161.4 207.554375 1161.4 205.554375 
L 1161.4 162.52 
Q 1161.4 160.52 1159.4 160.52 
L 1076.39375 160.52 
Q 1074.39375 160.52 1074.39375 162.52 
L 1074.39375 205.554375 
Q 1074.39375 207.554375 1076.39375 207.554375 
z
" style="fill: #ffffff; opacity: 0.8; stroke: #cccccc; stroke-linejoin: miter"/>
    </g>
    <g id="line2d_22">
     <path d="M 1078.39375 168.618438 
L 1088.39375 168.618438 
L 1098.39375 168.618438 
" style="fill: none; stroke: #1f77b4; stroke-linecap: square"/>
    </g>
    <g id="text_21">
     <!-- default -->
     <g transform="translate(1106.39375 172.118438) scale(0.1 -0.1)">
      <defs>
       <path id="DejaVuSans-64" d="M 2906 2969 
L 2906 4863 
L 3481 4863 
L 3481 0 
L 2906 0 
L 2906 525 
Q 2725 213 2448 61 
Q 2172 -91 1784 -91 
Q 1150 -91 751 415 
Q 353 922 353 1747 
Q 353 2572 751 3078 
Q 1150 3584 1784 3584 
Q 2172 3584 2448 3432 
Q 2725 3281 2906 2969 
z
M 947 1747 
Q 947 1113 1208 752 
Q 1469 391 1925 391 
Q 2381 391 2643 752 
Q 2906 1113 2906 1747 
Q 2906 2381 2643 2742 
Q 2381 3103 1925 3103 
Q 1469 3103 1208 2742 
Q 947 2381 947 1747 
z
" transform="scale(0.015625)"/>
       <path id="DejaVuSans-61" d="M 2194 1759 
Q 1497 1759 1228 1600 
Q 959 1441 959 1056 
Q 959 750 1161 570 
Q 1363 391 1709 391 
Q 2188 391 2477 730 
Q 2766 1069 2766 1631 
L 2766 1759 
L 2194 1759 
z
M 3341 1997 
L 3341 0 
L 2766 0 
L 2766 531 
Q 2569 213 2275 61 
Q 1981 -91 1556 -91 
Q 1019 -91 701 211 
Q 384 513 384 1019 
Q 384 1609 779 1909 
Q 1175 2209 1959 2209 
L 2766 2209 
L 2766 2266 
Q 2766 2663 2505 2880 
Q 2244 3097 1772 3097 
Q 1472 3097 1187 3025 
Q 903 2953 641 2809 
L 641 3341 
Q 956 3463 1253 3523 
Q 1550 3584 1831 3584 
Q 2591 3584 2966 3190 
Q 3341 2797 3341 1997 
z
" transform="scale(0.015625)"/>
       <path id="DejaVuSans-75" d="M 544 1381 
L 544 3500 
L 1119 3500 
L 1119 1403 
Q 1119 906 1312 657 
Q 1506 409 1894 409 
Q 2359 409 2629 706 
Q 2900 1003 2900 1516 
L 2900 3500 
L 3475 3500 
L 3475 0 
L 2900 0 
L 2900 538 
Q 2691 219 2414 64 
Q 2138 -91 1772 -91 
Q 1169 -91 856 284 
Q 544 659 544 1381 
z
M 1991 3584 
L 1991 3584 
z
" transform="scale(0.015625)"/>
      </defs>
      <use xlink:href="#DejaVuSans-64"/>
      <use xlink:href="#DejaVuSans-65" x="63.476562"/>
      <use xlink:href="#DejaVuSans-66" x="125"/>
      <use xlink:href="#DejaVuSans-61" x="160.205078"/>
      <use xlink:href="#DejaVuSans-75" x="221.484375"/>
      <use xlink:href="#DejaVuSans-6c" x="284.863281"/>
      <use xlink:href="#DejaVuSans-74" x="312.646484"/>
     </g>
    </g>
    <g id="line2d_23">
     <path d="M 1078.39375 183.296562 
L 1088.39375 183.296562 
L 1098.39375 183.296562 
" style="fill: none; stroke: #ff7f0e; stroke-linecap: square"/>
    </g>
    <g id="text_22">
     <!-- serverless -->
     <g transform="translate(1106.39375 186.796562) scale(0.1 -0.1)">
      <defs>
       <path id="DejaVuSans-73" d="M 2834 3397 
L 2834 2853 
Q 2591 2978 2328 3040 
Q 2066 3103 1784 3103 
Q 1356 3103 1142 2972 
Q 928 2841 928 2578 
Q 928 2378 1081 2264 
Q 1234 2150 1697 2047 
L 1894 2003 
Q 2506 1872 2764 1633 
Q 3022 1394 3022 966 
Q 3022 478 2636 193 
Q 2250 -91 1575 -91 
Q 1294 -91 989 -36 
Q 684 19 347 128 
L 347 722 
Q 666 556 975 473 
Q 1284 391 1588 391 
Q 1994 391 2212 530 
Q 2431 669 2431 922 
Q 2431 1156 2273 1281 
Q 2116 1406 1581 1522 
L 1381 1569 
Q 847 1681 609 1914 
Q 372 2147 372 2553 
Q 372 3047 722 3315 
Q 1072 3584 1716 3584 
Q 2034 3584 2315 3537 
Q 2597 3491 2834 3397 
z
" transform="scale(0.015625)"/>
       <path id="DejaVuSans-72" d="M 2631 2963 
Q 2534 3019 2420 3045 
Q 2306 3072 2169 3072 
Q 1681 3072 1420 2755 
Q 1159 2438 1159 1844 
L 1159 0 
L 581 0 
L 581 3500 
L 1159 3500 
L 1159 2956 
Q 1341 3275 1631 3429 
Q 1922 3584 2338 3584 
Q 2397 3584 2469 3576 
Q 2541 3569 2628 3553 
L 2631 2963 
z
" transform="scale(0.015625)"/>
       <path id="DejaVuSans-76" d="M 191 3500 
L 800 3500 
L 1894 563 
L 2988 3500 
L 3597 3500 
L 2284 0 
L 1503 0 
L 191 3500 
z
" transform="scale(0.015625)"/>
      </defs>
      <use xlink:href="#DejaVuSans-73"/>
      <use xlink:href="#DejaVuSans-65" x="52.099609"/>
      <use xlink:href="#DejaVuSans-72" x="113.623047"/>
      <use xlink:href="#DejaVuSans-76" x="154.736328"/>
      <use xlink:href="#DejaVuSans-65" x="213.916016"/>
      <use xlink:href="#DejaVuSans-72" x="275.439453"/>
      <use xlink:href="#DejaVuSans-6c" x="316.552734"/>
      <use xlink:href="#DejaVuSans-65" x="344.335938"/>
      <use xlink:href="#DejaVuSans-73" x="405.859375"/>
      <use xlink:href="#DejaVuSans-73" x="457.958984"/>
     </g>
    </g>
    <g id="line2d_24">
     <path d="M 1078.39375 197.974688 
L 1088.39375 197.974688 
L 1098.39375 197.974688 
" style="fill: none; stroke-dasharray: 6.4,1.6,1,1.6; stroke-dashoffset: 0; stroke: #2ca02c"/>
    </g>
    <g id="text_23">
     <!-- server -->
     <g transform="translate(1106.39375 201.474688) scale(0.1 -0.1)">
      <use xlink:href="#DejaVuSans-73"/>
      <use xlink:href="#DejaVuSans-65" x="52.099609"/>
      <use xlink:href="#DejaVuSans-72" x="113.623047"/>
      <use xlink:href="#DejaVuSans-76" x="154.736328"/>
      <use xlink:href="#DejaVuSans-65" x="213.916016"/>
      <use xlink:href="#DejaVuSans-72" x="275.439453"/>
     </g>
    </g>
   </g>
  </g>
 </g>
 <defs>
  <clipPath id="p317557e6a9">
   <rect x="162" y="155.52" width="1004.4" height="997.92"/>
  </clipPath>
 </defs>
</svg>
